<?xml version="1.0" encoding="UTF-8" standalone="no"?>
<svg
   width="2631.9678"
   height="1301.8486"
   version="1.1"
   id="svg160"
   sodipodi:docname="30sf_1d_plots.svg"
   xml:space="preserve"
   inkscape:version="1.2.2 (1:1.2.2+202305151914+b0a8486541)"
   inkscape:export-filename="30sf_1d_plots.pdf"
   inkscape:export-xdpi="96"
   inkscape:export-ydpi="96"
   xmlns:inkscape="http://www.inkscape.org/namespaces/inkscape"
   xmlns:sodipodi="http://sodipodi.sourceforge.net/DTD/sodipodi-0.dtd"
   xmlns="http://www.w3.org/2000/svg"
   xmlns:svg="http://www.w3.org/2000/svg"><defs
     id="defs164" /><sodipodi:namedview
     id="namedview162"
     pagecolor="#ffffff"
     bordercolor="#666666"
     borderopacity="1.0"
     inkscape:showpageshadow="2"
     inkscape:pageopacity="0.0"
     inkscape:pagecheckerboard="0"
     inkscape:deskcolor="#d1d1d1"
     showgrid="false"
     inkscape:zoom="0.12642212"
     inkscape:cx="-245.21025"
     inkscape:cy="577.43058"
     inkscape:window-width="1920"
     inkscape:window-height="1051"
     inkscape:window-x="0"
     inkscape:window-y="0"
     inkscape:window-maximized="1"
     inkscape:current-layer="svg160" /><g
     transform="translate(1364.4839,66)"
     id="g98"><title
       id="title4" /><path
       d="M 0,0 H 1246 V 528 H 0 Z"
       style="fill:none;stroke:#000000;stroke-width:1"
       id="path6" /><svg
       x="0"
       y="0"
       overflow="hidden"
       width="1246"
       height="528"
       viewBox="0 0 1246 528"
       version="1.1"
       id="svg16"><g
         id="g10"><path
           d="m 0,528 h 6 v -6 h 6 v -29 h 7 V 393 h 6 v -55 h 6 v 53 h 6 v 34 h 7 v -2 h 6 v -26 h 6 v -14 h 6 v -42 h 7 v -25 h 6 v -10 h 6 v -33 h 6 v -37 h 6 v -57 h 7 v -17 h 6 v -34 h 6 v 59 h 6 v 63 h 7 v 51 h 6 v 46 h 6 v 8 h 6 v 14 h 7 v 17 h 6 v -3 h 6 v -7 h 6 v 7 h 6 v 6 h 7 v -4 h 6 v 6 h 6 v -4 h 13 v -5 h 6 v -3 h 6 v 1 h 6 v -3 h 7 v 9 h 6 v -6 h 6 v 3 h 6 v -15 h 6 v 2 h 7 v 1 h 6 v -10 h 6 v -4 h 6 v 6 h 7 v 21 h 6 v -34 h 6 v 17 h 6 v -21 h 7 v 11 h 6 v -24 h 6 v 20 h 6 v 1 h 6 v -8 h 7 v -7 h 6 v 6 h 6 v -12 h 6 v 4 h 7 v 1 h 6 v -3 h 6 v -17 h 6 v 22 h 6 v -12 h 13 v 7 h 6 v 12 h 6 v -20 h 7 v 21 h 6 v -9 h 6 v 1 h 6 v -10 h 7 v 15 h 6 v -17 h 6 v -8 h 6 v 38 h 6 v -25 h 7 v 27 h 6 v -37 h 6 v 2 h 6 v -1 h 7 v 16 h 6 v -21 h 6 v 40 h 6 v -30 h 7 v 9 h 6 v -15 h 6 v 12 h 6 v 5 h 6 v 9 h 7 v -3 h 6 v 6 h 6 v -10 h 6 v -1 h 7 v -9 h 6 v 8 h 6 v -2 h 6 v 6 h 7 v -6 h 6 v -2 h 6 v -19 h 6 v -12 h 6 v -1 h 7 v 6 h 6 v -42 h 6 v 17 h 6 v -27 h 7 v -32 h 6 v -18 h 6 v 16 h 6 v -52 h 7 v -8 h 6 v -19 h 6 v -24 h 6 V 84 h 6 v 31 h 7 V 71 h 6 V 42 h 12 V 26 h 7 v -1 h 6 v 62 h 6 v -6 h 6 v 25 h 7 v 14 h 6 v 27 h 6 v 27 h 6 v 12 h 6 v 27 h 7 v 51 h 6 v 15 h 6 v 41 h 6 v 15 h 7 v 18 h 6 v 22 h 6 v 16 h 6 v 12 h 7 v 17 h 6 v 10 h 6 v 16 h 6 v -2 h 6 v 15 h 7 v 8 h 6 v 14 h 6 v -9 h 6 v 4 h 7 v 2 h 6 v 6 h 6 v 5 h 6 v 1 h 6 v 6 h 7 v -1 h 6 v 1 h 6 v 3 h 6 v -3 h 7 v 4 h 6 v 2 h 6 v 2 h 6 v 3 h 7 v -5 h 6 v 12 h 6 v -6 h 6 v 1 h 6 v 2 h 7 v 8 h 12 v -1 h 13 v 3 h 12 v -2 h 6 v 2 h 7 v -6 h 6 v 7 h 6 v 1 h 6 v 1 h 6 v -3 h 7 v 1 h 6 v 1 h 12 v 3 h 13 v -4 h 6 v 3 h 6 v -4 h 7 v 3 h 6 v -2 h 6 v 1 h 6 v 1 h 6 v -2 h 13 v -1 h 6 v 5 h 6 v -4 h 7 v 2 h 12 v 1 h 6 v -3 h 7 v 1 h 6 v 1 h 6 v 7 H 0 Z"
           style="fill:none;stroke:#000099;stroke-width:1;stroke-linejoin:miter"
           id="path8" /></g><g
         id="g14"><path
           d="m 467.25,336.88 c 0.78,-0.02 3.12,-0.09 4.67,-0.12 1.55,-0.03 3.12,-0.06 4.67,-0.08 1.55,-0.02 3.12,-0.04 4.68,-0.05 1.56,-0.01 3.11,-0.01 4.67,-0.01 1.56,0 3.12,0.01 4.67,0.02 1.55,0.01 3.12,0.04 4.67,0.06 1.55,0.02 3.12,0.06 4.68,0.1 1.56,0.04 3.11,0.08 4.67,0.12 1.56,0.04 3.12,0.11 4.67,0.17 1.55,0.06 3.12,0.12 4.67,0.19 1.55,0.07 3.12,0.15 4.68,0.23 1.56,0.08 3.12,0.17 4.67,0.26 1.55,0.09 3.12,0.19 4.67,0.29 1.55,0.1 3.13,0.21 4.67,0.32 1.54,0.11 3.13,0.22 4.68,0.34 1.55,0.12 3.12,0.24 4.67,0.37 1.55,0.13 3.13,0.25 4.67,0.38 1.54,0.13 3.13,0.26 4.67,0.39 1.54,0.13 3.13,0.26 4.68,0.39 1.55,0.13 3.12,0.26 4.67,0.39 1.55,0.13 3.12,0.24 4.67,0.36 1.55,0.12 3.12,0.22 4.67,0.32 1.55,0.1 3.12,0.18 4.68,0.25 1.56,0.07 3.11,0.13 4.67,0.17 1.56,0.04 3.12,0.06 4.67,0.04 1.55,-0.02 3.12,-0.04 4.68,-0.11 1.56,-0.07 3.12,-0.18 4.67,-0.33 1.55,-0.15 3.15,-0.34 4.67,-0.59 1.52,-0.25 3.2,-0.56 4.67,-0.91 1.47,-0.35 3.27,-0.84 4.67,-1.3 1.4,-0.46 3.37,-1.21 4.68,-1.78 1.31,-0.57 3.49,-1.66 4.67,-2.33 1.18,-0.67 3.64,-2.24 4.67,-2.98 1.03,-0.74 3.8,-2.95 4.67,-3.72 0.87,-0.77 3.95,-3.78 4.68,-4.55 0.73,-0.77 4.08,-4.74 4.67,-5.49 0.59,-0.75 4.2,-5.79 4.67,-6.5 0.47,-0.71 4.29,-6.93 4.67,-7.61 0.38,-0.68 4.37,-8.13 4.68,-8.76 0.31,-0.63 4.42,-9.38 4.67,-9.96 0.25,-0.58 4.46,-10.65 4.67,-11.18 0.21,-0.53 4.5,-11.9 4.68,-12.39 0.18,-0.49 4.51,-13.09 4.67,-13.56 0.16,-0.47 4.53,-14.18 4.67,-14.62 0.14,-0.44 4.55,-15.15 4.67,-15.57 0.12,-0.42 4.56,-15.94 4.67,-16.35 0.11,-0.41 4.57,-16.51 4.68,-16.9 0.11,-0.39 4.56,-16.82 4.67,-17.22 0.11,-0.4 4.56,-16.83 4.67,-17.23 0.11,-0.4 4.56,-16.52 4.67,-16.93 0.11,-0.41 4.55,-15.87 4.68,-16.29 0.13,-0.42 4.53,-14.86 4.67,-15.31 0.14,-0.45 4.5,-13.47 4.67,-13.96 0.17,-0.49 4.45,-11.73 4.67,-12.28 0.22,-0.55 4.36,-9.66 4.68,-10.29 0.32,-0.63 4.17,-7.29 4.67,-8.02 0.5,-0.73 3.8,-4.73 4.67,-5.51 0.87,-0.78 3.12,-2.8 4.67,-2.82 1.55,-0.02 3.12,-0.04 4.68,-0.02 1.56,0.02 3.82,2.05 4.67,2.82 0.85,0.77 4.19,4.94 4.67,5.66 0.48,0.72 4.38,7.78 4.67,8.39 0.29,0.61 4.48,10.45 4.68,10.97 0.2,0.52 4.52,12.89 4.67,13.34 0.15,0.45 4.55,15.04 4.67,15.46 0.12,0.42 4.58,16.87 4.67,17.25 0.09,0.38 4.59,18.38 4.68,18.73 0.09,0.35 4.59,19.52 4.67,19.86 0.08,0.34 4.6,20.29 4.67,20.63 0.07,0.34 4.6,20.73 4.67,21.05 0.07,0.32 4.6,20.84 4.68,21.16 0.08,0.32 4.59,20.63 4.67,20.96 0.08,0.33 4.59,20.15 4.67,20.5 0.08,0.35 4.59,19.44 4.67,19.79 0.08,0.35 4.58,18.54 4.68,18.92 0.1,0.38 4.56,17.49 4.67,17.88 0.11,0.39 4.55,16.33 4.67,16.75 0.12,0.42 4.54,15.11 4.67,15.56 0.13,0.45 4.52,13.86 4.68,14.34 0.16,0.48 4.48,12.61 4.67,13.12 0.19,0.51 4.45,11.4 4.67,11.95 0.22,0.55 4.41,10.23 4.67,10.82 0.26,0.59 4.36,9.15 4.68,9.77 0.32,0.62 4.3,8.15 4.67,8.81 0.37,0.66 4.24,7.24 4.67,7.94 0.43,0.7 4.18,6.43 4.68,7.15 0.5,0.72 4.1,5.73 4.67,6.48 0.57,0.75 4.04,5.12 4.67,5.88 0.63,0.76 3.97,4.61 4.67,5.38 0.7,0.77 3.91,4.18 4.67,4.96 0.76,0.78 3.86,3.83 4.68,4.61 0.82,0.78 3.81,3.55 4.67,4.32 0.86,0.77 3.77,3.33 4.67,4.1 0.9,0.77 3.75,3.15 4.68,3.91 0.93,0.76 3.72,3.03 4.67,3.78 0.95,0.75 3.7,2.93 4.67,3.68 0.97,0.75 3.69,2.86 4.67,3.61 0.98,0.75 3.69,2.81 4.67,3.56 0.98,0.75 3.68,2.77 4.68,3.52 1,0.75 4.17,3.14 4.67,3.51"
           style="fill:none;stroke:#ff0000;stroke-width:2"
           id="path12" /></g></svg><g
       id="g78"><g
         transform="translate(0,528)"
         id="g46"><path
           d="M 0,0 H 1246 M 0,-20 V 0 M 31,-10 V 0 M 62,-10 V 0 M 93,-10 V 0 m 32,-10 V 0 m 31,-20 V 0 m 31,-10 V 0 m 31,-10 V 0 m 31,-10 V 0 m 31,-10 V 0 m 32,-20 V 0 m 31,-10 V 0 m 31,-10 V 0 m 31,-10 V 0 m 31,-10 V 0 m 31,-20 V 0 m 31,-10 V 0 m 32,-10 V 0 m 31,-10 V 0 m 31,-10 V 0 m 31,-20 V 0 m 31,-10 V 0 m 31,-10 V 0 m 31,-10 V 0 m 32,-10 V 0 m 31,-20 V 0 m 31,-10 V 0 m 31,-10 V 0 m 31,-10 V 0 m 31,-10 V 0 m 31,-20 V 0 m 32,-10 V 0 m 31,-10 V 0 m 31,-10 V 0 m 31,-10 V 0 m 31,-20 V 0 m 31,-10 V 0 m 32,-10 V 0 m 31,-10 V 0 m 31,-10 V 0 m 31,-20 V 0"
           style="stroke:#000000;stroke-width:1"
           id="path18" /><g
           font-family="Arial"
           font-size="23px"
           xml:space="preserve"
           fill="#000000"
           text-anchor="middle"
           id="g38"><text
             dy="0.80000001em"
             transform="translate(0,5)"
             id="text20">0</text><text
             dy="0.80000001em"
             transform="translate(156,5)"
             id="text22">0.05</text><text
             dy="0.80000001em"
             transform="translate(312,5)"
             id="text24">0.10</text><text
             dy="0.80000001em"
             transform="translate(467,5)"
             id="text26">0.15</text><text
             dy="0.80000001em"
             transform="translate(623,5)"
             id="text28">0.20</text><text
             dy="0.80000001em"
             transform="translate(779,5)"
             id="text30">0.25</text><text
             dy="0.80000001em"
             transform="translate(934,5)"
             id="text32">0.30</text><text
             dy="0.80000001em"
             transform="translate(1090,5)"
             id="text34">0.35</text><text
             dy="0.80000001em"
             transform="translate(1246,5)"
             id="text36">0.40</text></g><rect
           x="0"
           y="0"
           width="1246"
           height="26"
           style="opacity:0"
           id="rect40" /><g
           font-family="Arial"
           font-size="23px"
           xml:space="preserve"
           transform="translate(1246,37)"
           id="g44"><text
             fill="#000000"
             text-anchor="end"
             dominant-baseline="middle"
             id="text42">E/p</text></g></g><g
         id="g76"><path
           d="m 0,0 v 528 m 47,0 H 0 M 24,518 H 0 M 24,508 H 0 M 24,497 H 0 M 24,487 H 0 M 47,477 H 0 M 24,467 H 0 M 24,457 H 0 M 24,446 H 0 M 24,436 H 0 M 47,426 H 0 M 24,416 H 0 M 24,406 H 0 M 24,396 H 0 M 24,385 H 0 M 47,375 H 0 M 24,365 H 0 M 24,355 H 0 M 24,345 H 0 M 24,334 H 0 M 47,324 H 0 M 24,314 H 0 M 24,304 H 0 M 24,294 H 0 M 24,283 H 0 M 47,273 H 0 M 24,263 H 0 M 24,253 H 0 M 24,243 H 0 M 24,233 H 0 M 47,222 H 0 M 24,212 H 0 M 24,202 H 0 M 24,192 H 0 M 24,182 H 0 M 47,171 H 0 M 24,161 H 0 M 24,151 H 0 M 24,141 H 0 M 24,131 H 0 M 47,120 H 0 M 24,110 H 0 M 24,100 H 0 M 24,90 H 0 M 24,80 H 0 M 47,69 H 0 M 24,59 H 0 M 24,49 H 0 M 24,39 H 0 M 24,29 H 0 M 47,19 H 0 M 24,8 H 0"
           style="stroke:#000000;stroke-width:1"
           id="path48" /><g
           font-family="Arial"
           font-size="23px"
           xml:space="preserve"
           fill="#000000"
           text-anchor="end"
           id="g72"><text
             dominant-baseline="middle"
             transform="translate(-3,528)"
             id="text50">0</text><text
             dominant-baseline="middle"
             transform="translate(-3,477)"
             id="text52">100</text><text
             dominant-baseline="middle"
             transform="translate(-3,426)"
             id="text54">200</text><text
             dominant-baseline="middle"
             transform="translate(-3,375)"
             id="text56">300</text><text
             dominant-baseline="middle"
             transform="translate(-3,324)"
             id="text58">400</text><text
             dominant-baseline="middle"
             transform="translate(-3,273)"
             id="text60">500</text><text
             dominant-baseline="middle"
             transform="translate(-3,222)"
             id="text62">600</text><text
             dominant-baseline="middle"
             transform="translate(-3,171)"
             id="text64">700</text><text
             dominant-baseline="middle"
             transform="translate(-3,120)"
             id="text66">800</text><text
             dominant-baseline="middle"
             transform="translate(-3,69)"
             id="text68">900</text><text
             dominant-baseline="middle"
             transform="translate(-3,19)"
             id="text70">1000</text></g><rect
           x="-55"
           y="0"
           width="55"
           height="528"
           style="opacity:0"
           id="rect74" /></g></g><path
       d="M 2,2 H 17 V -3 H -3 v 20 h 5 z"
       style="opacity:0"
       id="path80" /><path
       d="m 1244,2 h -15 v -5 h 20 v 20 h -5 z"
       style="opacity:0"
       id="path82" /><path
       d="m 2,526 h 15 v 5 H -3 v -20 h 5 z"
       style="opacity:0"
       id="path84" /><path
       d="m 1244,526 h -15 v 5 h 20 v -20 h -5 z"
       style="opacity:0"
       id="path86" /><path
       d="M -3,18 H 2 V 510 H -3 Z"
       style="opacity:0"
       id="path88" /><path
       d="m 1249,18 h -5 v 492 h 5 z"
       style="opacity:0"
       id="path90" /><path
       d="M 18,-3 V 2 H 1228 V -3 Z"
       style="opacity:0"
       id="path92" /><path
       d="m 18,531 v -5 h 1210 v 5 z"
       style="opacity:0"
       id="path94" /><style
       id="style96">
.jsroot rect.h1bin { stroke: #4572A7; fill: #4572A7; opacity: 0; }
.jsroot rect.zoom { stroke: steelblue; fill-opacity: 0.1; }
.jsroot path.zoom { stroke: steelblue; fill-opacity: 0.1; }
.jsroot svg:not(:root) { overflow: hidden; }</style></g><g
     transform="translate(1377.4839,3)"
     font-family="Arial"
     font-size="37px"
     xml:space="preserve"
     id="g120"><path
       d="M 0,0 H 1246 V 44 H 0 Z"
       style="fill:none"
       id="path100" /><text
       fill="#000000"
       text-anchor="middle"
       dominant-baseline="middle"
       transform="translate(623,22)"
       id="text102">ECAL Sampling Fraction sector 2 ( 3.00 &lt; p &lt;  3.40)</text><path
       d="M 2,2 H 17 V -3 H -3 v 20 h 5 z"
       style="opacity:0"
       id="path104" /><path
       d="m 1244,2 h -15 v -5 h 20 v 20 h -5 z"
       style="opacity:0"
       id="path106" /><path
       d="m 2,42 h 15 v 5 H -3 V 27 h 5 z"
       style="opacity:0"
       id="path108" /><path
       d="m 1244,42 h -15 v 5 h 20 V 27 h -5 z"
       style="opacity:0"
       id="path110" /><path
       d="m -3,18 h 5 v 8 h -5 z"
       style="opacity:0"
       id="path112" /><path
       d="m 1249,18 h -5 v 8 h 5 z"
       style="opacity:0"
       id="path114" /><path
       d="M 18,-3 V 2 H 1228 V -3 Z"
       style="opacity:0"
       id="path116" /><path
       d="m 18,47 v -5 h 1210 v 5 z"
       style="opacity:0"
       id="path118" /></g><g
     transform="translate(2288.9839,76.5)"
     font-family="Arial"
     font-size="22px"
     xml:space="preserve"
     fill="#000000"
     id="g156"><path
       d="M 0,0 H 311 V 106 H 0 Z"
       style="fill:#ffffff;stroke:#000000;stroke-width:1"
       id="path122" /><text
       text-anchor="middle"
       dominant-baseline="middle"
       transform="translate(156,13)"
       id="text124">ECAL: ECAL Sampling...</text><text
       text-anchor="start"
       dominant-baseline="middle"
       transform="translate(16,40)"
       id="text126">Entries </text><text
       text-anchor="end"
       dominant-baseline="middle"
       transform="translate(295,40)"
       id="text128"> 62162</text><text
       text-anchor="start"
       dominant-baseline="middle"
       transform="translate(16,66)"
       id="text130">Mean </text><text
       text-anchor="end"
       dominant-baseline="middle"
       transform="translate(295,66)"
       id="text132"> 0.1623</text><text
       text-anchor="start"
       dominant-baseline="middle"
       transform="translate(16,93)"
       id="text134">Std Dev </text><text
       text-anchor="end"
       dominant-baseline="middle"
       transform="translate(295,93)"
       id="text136"> 0.08373</text><path
       d="M 0,27 H 311"
       style="stroke:#000000;stroke-width:1"
       id="path138" /><path
       d="M 2,2 H 17 V -3 H -3 v 20 h 5 z"
       style="opacity:0"
       id="path140" /><path
       d="m 309,2 h -15 v -5 h 20 v 20 h -5 z"
       style="opacity:0"
       id="path142" /><path
       d="m 2,104 h 15 v 5 H -3 V 89 h 5 z"
       style="opacity:0"
       id="path144" /><path
       d="m 309,104 h -15 v 5 h 20 V 89 h -5 z"
       style="opacity:0"
       id="path146" /><path
       d="M -3,18 H 2 V 88 H -3 Z"
       style="opacity:0"
       id="path148" /><path
       d="m 314,18 h -5 v 70 h 5 z"
       style="opacity:0"
       id="path150" /><path
       d="M 18,-3 V 2 H 293 V -3 Z"
       style="opacity:0"
       id="path152" /><path
       d="m 18,109 v -5 h 275 v 5 z"
       style="opacity:0"
       id="path154" /></g><g
     transform="translate(55,66)"
     id="g477"><title
       id="title395" /><path
       d="M 0,0 H 1246 V 528 H 0 Z"
       style="fill:none;stroke:#000000;stroke-width:1"
       id="path397" /><svg
       x="0"
       y="0"
       overflow="hidden"
       width="1246"
       height="528"
       viewBox="0 0 1246 528"
       version="1.1"
       id="svg407"><g
         id="g401"><path
           d="m 0,528 h 6 v -1 h 6 v -4 h 7 v -3 h 6 v -16 h 6 v -28 h 6 v -34 h 7 v -49 h 6 v -55 h 6 V 231 h 6 v -88 h 7 V 87 h 6 V 31 h 6 v -6 h 6 v 40 h 6 v 19 h 7 v 39 h 6 v 39 h 6 v 6 h 6 v 1 h 7 v 18 h 6 v -3 h 6 v -4 h 6 v 3 h 7 v -13 h 6 v 30 h 6 v -19 h 6 v 3 h 6 v -10 h 7 v 2 h 6 v -31 h 6 v 3 h 6 v -6 h 7 v 10 h 6 v -30 h 6 v -9 h 6 v -3 h 7 V 89 h 6 v 1 h 6 V 55 h 6 v 25 h 6 V 69 h 7 V 50 h 6 v 5 h 6 v -1 h 6 v -9 h 7 v 21 h 6 v -4 h 6 v 36 h 6 v 4 h 7 V 90 h 6 v 2 h 6 v 20 h 6 v 20 h 13 v 3 h 6 v 14 h 6 v 25 h 6 v 23 h 7 v -15 h 6 v 9 h 6 v 20 h 6 v -1 h 6 v 17 h 7 v -13 h 6 v 34 h 6 v -17 h 6 v 13 h 7 v 18 h 6 v -24 h 6 v 9 h 6 v 20 h 7 v -5 h 6 v 6 h 6 v 17 h 6 v -2 h 6 v -1 h 7 v 6 h 6 v -7 h 6 v 13 h 6 v 8 h 7 v 4 h 6 v -5 h 6 v 14 h 6 v 3 h 7 v 6 h 6 v -5 h 6 v 20 h 6 v -8 h 6 v 9 h 7 v -6 h 6 v 9 h 6 v 8 h 6 v -8 h 7 v 4 h 6 v -17 h 6 v 9 h 6 v 6 h 7 v -19 h 6 v 11 h 6 v -3 h 6 v -1 h 6 v 6 h 7 v -11 h 6 v -5 h 6 v -2 h 6 v -9 h 7 v 3 h 6 v -4 h 6 v -1 h 6 v -9 h 7 v -5 h 6 v -5 h 6 v 6 h 6 v -4 h 6 v 4 h 7 v 4 h 6 v -20 h 6 v 16 h 6 v -22 h 7 v -9 h 6 v 8 h 6 v 16 h 6 v -2 h 7 v 9 h 6 v 6 h 6 v 5 h 6 v -2 h 6 v 10 h 7 v 21 h 6 v 10 h 6 v 20 h 6 v -1 h 7 v 11 h 6 v 13 h 6 v 9 h 6 v -3 h 7 v 25 h 6 v -3 h 6 v 18 h 6 v 7 h 6 v 9 h 7 v 2 h 6 v 3 h 6 v 9 h 6 v 5 h 7 v 3 h 6 v 3 h 6 v 2 h 6 v 6 h 6 v 1 h 7 v 5 h 6 v 1 h 6 v 2 h 6 v -1 h 13 v 8 h 12 v 5 h 7 v 2 h 6 v -5 h 6 v 3 h 12 v 4 h 13 v -2 h 6 v 2 h 6 v 1 h 7 v 2 h 6 v 1 h 6 v 2 h 6 v -1 h 7 v 3 h 6 v 2 h 6 v -5 h 6 v 2 h 6 v 4 h 7 v -5 h 6 v 5 h 6 v -2 h 6 v 4 h 7 v -2 h 6 v 1 h 6 v 1 h 6 v -1 h 13 v -1 h 6 v 2 h 6 v 1 h 25 v -3 h 6 v 2 h 13 v 1 h 6 v 1 h 6 v -1 h 7 v 1 h 12 v 6 H 0 Z"
           style="fill:none;stroke:#000099;stroke-width:1;stroke-linejoin:miter"
           id="path399" /></g><g
         id="g405"><path
           d="m 467.25,275.41 c 0.5,0.38 3.68,2.78 4.67,3.53 0.99,0.75 3.67,2.75 4.67,3.49 1,0.74 3.67,2.71 4.68,3.46 1.01,0.75 3.65,2.67 4.67,3.41 1.02,0.74 3.64,2.63 4.67,3.37 1.03,0.74 3.63,2.58 4.67,3.32 1.04,0.74 3.63,2.54 4.68,3.26 1.05,0.72 3.61,2.49 4.67,3.22 1.06,0.73 3.6,2.44 4.67,3.15 1.07,0.71 3.58,2.38 4.67,3.1 1.09,0.72 3.57,2.31 4.68,3.02 1.11,0.71 3.55,2.24 4.67,2.94 1.12,0.7 3.53,2.17 4.67,2.86 1.14,0.69 3.51,2.09 4.67,2.77 1.16,0.68 3.49,2 4.68,2.67 1.19,0.67 3.46,1.91 4.67,2.56 1.21,0.65 3.43,1.81 4.67,2.44 1.24,0.63 3.41,1.7 4.67,2.3 1.26,0.6 3.38,1.59 4.68,2.17 1.3,0.58 3.34,1.47 4.67,2.01 1.33,0.54 3.31,1.34 4.67,1.85 1.36,0.51 3.28,1.2 4.67,1.67 1.39,0.47 3.24,1.05 4.68,1.47 1.44,0.42 3.2,0.91 4.67,1.27 1.47,0.36 3.17,0.75 4.67,1.05 1.5,0.3 3.15,0.6 4.68,0.82 1.53,0.22 3.12,0.43 4.67,0.58 1.55,0.15 3.11,0.27 4.67,0.32 1.56,0.05 3.12,0.08 4.67,0.05 1.55,-0.03 3.13,-0.1 4.67,-0.22 1.54,-0.12 3.15,-0.28 4.68,-0.49 1.53,-0.21 3.17,-0.49 4.67,-0.79 1.5,-0.3 3.21,-0.69 4.67,-1.07 1.46,-0.38 3.26,-0.91 4.67,-1.36 1.41,-0.45 3.32,-1.13 4.68,-1.65 1.36,-0.52 3.37,-1.35 4.67,-1.92 1.3,-0.57 3.42,-1.57 4.67,-2.19 1.25,-0.62 3.48,-1.79 4.67,-2.45 1.19,-0.66 3.53,-1.99 4.68,-2.68 1.15,-0.69 3.56,-2.19 4.67,-2.9 1.11,-0.71 3.6,-2.36 4.67,-3.08 1.07,-0.72 3.64,-2.51 4.68,-3.24 1.04,-0.73 3.65,-2.63 4.67,-3.37 1.02,-0.74 3.67,-2.71 4.67,-3.46 1,-0.75 3.68,-2.76 4.67,-3.51 0.99,-0.75 3.68,-2.77 4.67,-3.51 0.99,-0.74 3.67,-2.74 4.68,-3.48 1.01,-0.74 3.64,-2.66 4.67,-3.39 1.03,-0.73 3.61,-2.54 4.67,-3.26 1.06,-0.72 3.56,-2.37 4.67,-3.07 1.11,-0.7 3.51,-2.17 4.68,-2.85 1.17,-0.68 3.44,-1.93 4.67,-2.57 1.23,-0.64 3.37,-1.66 4.67,-2.24 1.3,-0.58 3.29,-1.38 4.67,-1.87 1.38,-0.49 3.22,-1.08 4.68,-1.47 1.46,-0.39 3.15,-0.77 4.67,-1.02 1.52,-0.25 3.12,-0.51 4.67,-0.54 1.55,-0.03 3.12,-0.06 4.67,-0.04 1.55,0.02 3.16,0.24 4.68,0.49 1.52,0.25 3.23,0.63 4.67,1.03 1.44,0.4 3.33,1.05 4.67,1.59 1.34,0.54 3.45,1.5 4.67,2.14 1.22,0.64 3.57,1.99 4.68,2.7 1.11,0.71 3.67,2.5 4.67,3.24 1,0.74 3.78,3.01 4.67,3.78 0.89,0.77 3.87,3.5 4.67,4.28 0.8,0.78 3.95,3.99 4.68,4.77 0.73,0.78 4.01,4.45 4.67,5.22 0.66,0.77 4.06,4.87 4.67,5.63 0.61,0.76 4.11,5.26 4.67,6.01 0.56,0.75 4.15,5.61 4.68,6.35 0.53,0.74 4.17,5.9 4.67,6.62 0.5,0.72 4.19,6.15 4.67,6.87 0.48,0.72 4.21,6.35 4.67,7.06 0.46,0.71 4.22,6.49 4.68,7.2 0.46,0.71 4.22,6.59 4.67,7.3 0.45,0.71 4.22,6.63 4.67,7.34 0.45,0.71 4.22,6.64 4.67,7.34 0.45,0.7 4.22,6.59 4.68,7.3 0.46,0.71 4.2,6.51 4.67,7.22 0.47,0.71 4.19,6.38 4.67,7.1 0.48,0.72 4.18,6.22 4.67,6.94 0.49,0.72 4.16,6.03 4.68,6.77 0.52,0.74 4.13,5.81 4.67,6.55 0.54,0.74 4.11,5.57 4.67,6.32 0.56,0.75 4.08,5.31 4.68,6.06 0.6,0.75 4.04,5.04 4.67,5.81 0.63,0.77 4,4.75 4.67,5.52 0.67,0.77 3.96,4.47 4.67,5.25 0.71,0.78 3.92,4.17 4.67,4.95 0.75,0.78 3.87,3.89 4.68,4.67 0.81,0.78 3.82,3.6 4.67,4.38 0.85,0.78 3.77,3.33 4.67,4.1 0.9,0.77 3.72,3.06 4.68,3.82 0.96,0.76 3.66,2.82 4.67,3.56 1.01,0.74 3.6,2.57 4.67,3.3 1.07,0.73 3.56,2.35 4.67,3.05 1.11,0.7 3.51,2.15 4.67,2.82 1.16,0.67 3.47,1.96 4.68,2.6 1.21,0.64 4.05,2.08 4.67,2.39"
           style="fill:none;stroke:#ff0000;stroke-width:2"
           id="path403" /></g></svg><g
       id="g457"><g
         transform="translate(0,528)"
         id="g437"><path
           d="M 0,0 H 1246 M 0,-20 V 0 M 31,-10 V 0 M 62,-10 V 0 M 93,-10 V 0 m 32,-10 V 0 m 31,-20 V 0 m 31,-10 V 0 m 31,-10 V 0 m 31,-10 V 0 m 31,-10 V 0 m 32,-20 V 0 m 31,-10 V 0 m 31,-10 V 0 m 31,-10 V 0 m 31,-10 V 0 m 31,-20 V 0 m 31,-10 V 0 m 32,-10 V 0 m 31,-10 V 0 m 31,-10 V 0 m 31,-20 V 0 m 31,-10 V 0 m 31,-10 V 0 m 31,-10 V 0 m 32,-10 V 0 m 31,-20 V 0 m 31,-10 V 0 m 31,-10 V 0 m 31,-10 V 0 m 31,-10 V 0 m 31,-20 V 0 m 32,-10 V 0 m 31,-10 V 0 m 31,-10 V 0 m 31,-10 V 0 m 31,-20 V 0 m 31,-10 V 0 m 32,-10 V 0 m 31,-10 V 0 m 31,-10 V 0 m 31,-20 V 0"
           style="stroke:#000000;stroke-width:1"
           id="path409" /><g
           font-family="Arial"
           font-size="23px"
           xml:space="preserve"
           fill="#000000"
           text-anchor="middle"
           id="g429"><text
             dy="0.80000001em"
             transform="translate(0,5)"
             id="text411">0</text><text
             dy="0.80000001em"
             transform="translate(156,5)"
             id="text413">0.05</text><text
             dy="0.80000001em"
             transform="translate(312,5)"
             id="text415">0.10</text><text
             dy="0.80000001em"
             transform="translate(467,5)"
             id="text417">0.15</text><text
             dy="0.80000001em"
             transform="translate(623,5)"
             id="text419">0.20</text><text
             dy="0.80000001em"
             transform="translate(779,5)"
             id="text421">0.25</text><text
             dy="0.80000001em"
             transform="translate(934,5)"
             id="text423">0.30</text><text
             dy="0.80000001em"
             transform="translate(1090,5)"
             id="text425">0.35</text><text
             dy="0.80000001em"
             transform="translate(1246,5)"
             id="text427">0.40</text></g><rect
           x="0"
           y="0"
           width="1246"
           height="26"
           style="opacity:0"
           id="rect431" /><g
           font-family="Arial"
           font-size="23px"
           xml:space="preserve"
           transform="translate(1246,37)"
           id="g435"><text
             fill="#000000"
             text-anchor="end"
             dominant-baseline="middle"
             id="text433">E/p</text></g></g><g
         id="g455"><path
           d="m 0,0 v 528 m 47,0 H 0 M 24,505 H 0 M 24,482 H 0 M 24,459 H 0 M 24,436 H 0 M 47,412 H 0 M 24,389 H 0 M 24,366 H 0 M 24,343 H 0 M 24,320 H 0 M 47,297 H 0 M 24,274 H 0 M 24,251 H 0 M 24,227 H 0 M 24,204 H 0 M 47,181 H 0 M 24,158 H 0 M 24,135 H 0 M 24,112 H 0 M 24,89 H 0 M 47,66 H 0 M 24,42 H 0 M 24,19 H 0"
           style="stroke:#000000;stroke-width:1"
           id="path439" /><g
           font-family="Arial"
           font-size="23px"
           xml:space="preserve"
           fill="#000000"
           text-anchor="end"
           id="g451"><text
             dominant-baseline="middle"
             transform="translate(-3,528)"
             id="text441">0</text><text
             dominant-baseline="middle"
             transform="translate(-3,412)"
             id="text443">500</text><text
             dominant-baseline="middle"
             transform="translate(-3,297)"
             id="text445">1000</text><text
             dominant-baseline="middle"
             transform="translate(-3,181)"
             id="text447">1500</text><text
             dominant-baseline="middle"
             transform="translate(-3,66)"
             id="text449">2000</text></g><rect
           x="-55"
           y="0"
           width="55"
           height="528"
           style="opacity:0"
           id="rect453" /></g></g><path
       d="M 2,2 H 17 V -3 H -3 v 20 h 5 z"
       style="opacity:0"
       id="path459" /><path
       d="m 1244,2 h -15 v -5 h 20 v 20 h -5 z"
       style="opacity:0"
       id="path461" /><path
       d="m 2,526 h 15 v 5 H -3 v -20 h 5 z"
       style="opacity:0"
       id="path463" /><path
       d="m 1244,526 h -15 v 5 h 20 v -20 h -5 z"
       style="opacity:0"
       id="path465" /><path
       d="M -3,18 H 2 V 510 H -3 Z"
       style="opacity:0"
       id="path467" /><path
       d="m 1249,18 h -5 v 492 h 5 z"
       style="opacity:0"
       id="path469" /><path
       d="M 18,-3 V 2 H 1228 V -3 Z"
       style="opacity:0"
       id="path471" /><path
       d="m 18,531 v -5 h 1210 v 5 z"
       style="opacity:0"
       id="path473" /><style
       id="style475">
.jsroot rect.h1bin { stroke: #4572A7; fill: #4572A7; opacity: 0; }
.jsroot rect.zoom { stroke: steelblue; fill-opacity: 0.1; }
.jsroot path.zoom { stroke: steelblue; fill-opacity: 0.1; }
.jsroot svg:not(:root) { overflow: hidden; }</style></g><g
     transform="translate(979.5,76.5)"
     font-family="Arial"
     font-size="22px"
     xml:space="preserve"
     fill="#000000"
     id="g513"><path
       d="M 0,0 H 311 V 106 H 0 Z"
       style="fill:#ffffff;stroke:#000000;stroke-width:1"
       id="path479" /><text
       text-anchor="middle"
       dominant-baseline="middle"
       transform="translate(156,13)"
       id="text481">ECAL: ECAL Sampling...</text><text
       text-anchor="start"
       dominant-baseline="middle"
       transform="translate(16,40)"
       id="text483">Entries </text><text
       text-anchor="end"
       dominant-baseline="middle"
       transform="translate(295,40)"
       id="text485"> 173624</text><text
       text-anchor="start"
       dominant-baseline="middle"
       transform="translate(16,66)"
       id="text487">Mean </text><text
       text-anchor="end"
       dominant-baseline="middle"
       transform="translate(295,66)"
       id="text489"> 0.1312</text><text
       text-anchor="start"
       dominant-baseline="middle"
       transform="translate(16,93)"
       id="text491">Std Dev </text><text
       text-anchor="end"
       dominant-baseline="middle"
       transform="translate(295,93)"
       id="text493"> 0.07925</text><path
       d="M 0,27 H 311"
       style="stroke:#000000;stroke-width:1"
       id="path495" /><path
       d="M 2,2 H 17 V -3 H -3 v 20 h 5 z"
       style="opacity:0"
       id="path497" /><path
       d="m 309,2 h -15 v -5 h 20 v 20 h -5 z"
       style="opacity:0"
       id="path499" /><path
       d="m 2,104 h 15 v 5 H -3 V 89 h 5 z"
       style="opacity:0"
       id="path501" /><path
       d="m 309,104 h -15 v 5 h 20 V 89 h -5 z"
       style="opacity:0"
       id="path503" /><path
       d="M -3,18 H 2 V 88 H -3 Z"
       style="opacity:0"
       id="path505" /><path
       d="m 314,18 h -5 v 70 h 5 z"
       style="opacity:0"
       id="path507" /><path
       d="M 18,-3 V 2 H 293 V -3 Z"
       style="opacity:0"
       id="path509" /><path
       d="m 18,109 v -5 h 275 v 5 z"
       style="opacity:0"
       id="path511" /></g><g
     transform="translate(55,3)"
     font-family="Arial"
     font-size="37px"
     xml:space="preserve"
     id="g535"><path
       d="M 0,0 H 1246 V 44 H 0 Z"
       style="fill:none"
       id="path515" /><text
       fill="#000000"
       text-anchor="middle"
       dominant-baseline="middle"
       transform="translate(623,22)"
       id="text517">ECAL Sampling Fraction sector 2 ( 1.00 &lt; p &lt;  1.40)</text><path
       d="M 2,2 H 17 V -3 H -3 v 20 h 5 z"
       style="opacity:0"
       id="path519" /><path
       d="m 1244,2 h -15 v -5 h 20 v 20 h -5 z"
       style="opacity:0"
       id="path521" /><path
       d="m 2,42 h 15 v 5 H -3 V 27 h 5 z"
       style="opacity:0"
       id="path523" /><path
       d="m 1244,42 h -15 v 5 h 20 V 27 h -5 z"
       style="opacity:0"
       id="path525" /><path
       d="m -3,18 h 5 v 8 h -5 z"
       style="opacity:0"
       id="path527" /><path
       d="m 1249,18 h -5 v 8 h 5 z"
       style="opacity:0"
       id="path529" /><path
       d="M 18,-3 V 2 H 1228 V -3 Z"
       style="opacity:0"
       id="path531" /><path
       d="m 18,47 v -5 h 1210 v 5 z"
       style="opacity:0"
       id="path533" /></g><g
     id="g2527"
     transform="translate(-286.9527)"><g
       transform="translate(1651.4366,726)"
       id="g710"><title
         id="title622" /><path
         d="M 0,0 H 1246 V 528 H 0 Z"
         style="fill:none;stroke:#000000;stroke-width:1"
         id="path624" /><svg
         x="0"
         y="0"
         overflow="hidden"
         width="1246"
         height="528"
         viewBox="0 0 1246 528"
         version="1.1"
         id="svg634"><g
           id="g628"><path
             d="m 0,528 h 6 v -27 h 6 v 14 h 7 v 1 h 6 v -7 h 6 v -2 h 6 v -6 h 7 v 12 h 12 v 3 h 6 v 5 h 7 v -8 h 6 v -1 h 12 v -15 h 6 v -15 h 7 v -44 h 6 v 31 h 6 v -11 h 6 v -34 h 7 v 11 h 6 v -16 h 6 v -2 h 6 v 25 h 7 v -9 h 6 v -3 h 6 v -8 h 6 v 14 h 6 v -14 h 7 v 2 h 6 v -20 h 6 v 3 h 6 v 17 h 7 v -32 h 6 v -7 h 6 v -20 h 6 v 18 h 7 v -1 h 6 v -18 h 6 v 4 h 6 v -31 h 6 v 27 h 7 v -61 h 6 v 19 h 6 v 23 h 6 v -58 h 7 v -7 h 6 v 20 h 6 v -25 h 6 v -65 h 7 v 41 h 6 v 15 h 6 v -78 h 6 v 18 h 6 v -6 h 7 v -40 h 6 v 25 h 6 v -5 h 6 v -48 h 7 v 10 h 6 v -31 h 6 V 83 h 6 v 15 h 6 V 86 h 13 V 46 h 6 v 22 h 6 v 16 h 7 V 67 h 6 V 55 h 6 V 25 h 6 v 9 h 7 v 33 h 6 v 16 h 6 v 3 h 6 v -3 h 6 v 55 h 7 v 5 h 6 v 54 h 6 v -30 h 6 v -1 h 7 v 59 h 6 v -3 h 12 v 12 h 7 v 59 h 6 v -21 h 6 v 6 h 6 v -4 h 6 v 45 h 7 v -11 h 6 v 20 h 6 v 11 h 6 v -24 h 7 v -1 h 6 v -51 h 6 v -15 h 6 v 46 h 7 v 2 h 6 v -55 h 6 v -12 h 6 v 37 h 6 v -34 h 7 v 11 h 6 v -18 h 6 v 4 h 6 v -18 h 7 v -11 h 6 v 60 h 6 v -20 h 6 v -51 h 7 v 65 h 6 v -31 h 6 v 3 h 6 v 6 h 6 v -15 h 7 v 39 h 6 v 3 h 6 v 58 h 6 v -27 h 7 v 10 h 6 v 65 h 6 v -3 h 6 v 60 h 7 v 2 h 6 v 5 h 6 v 46 h 6 v 7 h 6 v 6 h 7 v 25 h 6 v -7 h 6 v 12 h 13 v -3 h 6 v 9 h 6 v 1 h 6 v -3 h 7 v 3 h 6 v 2 h 6 v -3 h 6 v 4 h 13 v -1 h 6 v 1 h 12 v -1 h 13 v 1 h 18 v -1 h 7 v 1 h 305 v 3 H 0 Z"
             style="fill:none;stroke:#000099;stroke-width:1;stroke-linejoin:miter"
             id="path626" /></g><g
           id="g632"><path
             d="m 467.25,300.05 c 0.2,-0.34 4.26,-7.32 4.67,-8.01 0.41,-0.69 4.23,-6.93 4.67,-7.63 0.44,-0.7 4.2,-6.53 4.68,-7.25 0.48,-0.72 4.16,-6.13 4.67,-6.87 0.51,-0.74 4.12,-5.72 4.67,-6.47 0.55,-0.75 4.07,-5.32 4.67,-6.08 0.6,-0.76 4.02,-4.91 4.68,-5.68 0.66,-0.77 3.96,-4.5 4.67,-5.28 0.71,-0.78 3.89,-4.1 4.67,-4.88 0.78,-0.78 3.83,-3.7 4.67,-4.47 0.84,-0.77 3.75,-3.31 4.68,-4.07 0.93,-0.76 3.66,-2.92 4.67,-3.66 1.01,-0.74 3.58,-2.55 4.67,-3.26 1.09,-0.71 3.5,-2.19 4.67,-2.86 1.17,-0.67 3.41,-1.84 4.68,-2.45 1.27,-0.61 3.32,-1.51 4.67,-2.05 1.35,-0.54 3.25,-1.21 4.67,-1.65 1.42,-0.44 3.19,-0.92 4.67,-1.25 1.48,-0.33 3.15,-0.65 4.68,-0.87 1.53,-0.22 3.12,-0.39 4.67,-0.47 1.55,-0.08 3.12,-0.12 4.67,-0.09 1.55,0.03 3.13,0.13 4.67,0.28 1.54,0.15 3.17,0.39 4.68,0.66 1.51,0.27 3.21,0.65 4.67,1.02 1.46,0.37 3.27,0.92 4.67,1.39 1.4,0.47 3.34,1.19 4.68,1.73 1.34,0.54 3.4,1.47 4.67,2.08 1.27,0.61 3.48,1.75 4.67,2.41 1.19,0.66 3.55,2.04 4.67,2.74 1.12,0.7 3.62,2.33 4.67,3.06 1.05,0.73 3.68,2.62 4.68,3.37 1,0.75 3.73,2.9 4.67,3.66 0.94,0.76 3.79,3.18 4.67,3.95 0.88,0.77 3.84,3.46 4.67,4.23 0.83,0.77 3.89,3.72 4.68,4.5 0.79,0.78 3.92,3.97 4.67,4.75 0.75,0.78 3.96,4.21 4.67,4.99 0.71,0.78 4,4.45 4.67,5.22 0.67,0.77 4.03,4.68 4.68,5.44 0.65,0.76 4.05,4.89 4.67,5.65 0.62,0.76 4.08,5.08 4.67,5.84 0.59,0.76 4.1,5.27 4.68,6.02 0.58,0.75 4.11,5.44 4.67,6.19 0.56,0.75 4.13,5.59 4.67,6.34 0.54,0.75 4.15,5.74 4.67,6.48 0.52,0.74 4.16,5.87 4.67,6.6 0.51,0.73 4.17,5.99 4.68,6.72 0.51,0.73 4.18,6.09 4.67,6.81 0.49,0.72 4.19,6.18 4.67,6.9 0.48,0.72 4.19,6.26 4.67,6.97 0.48,0.71 4.2,6.32 4.68,7.03 0.48,0.71 4.2,6.36 4.67,7.07 0.47,0.71 4.2,6.39 4.67,7.1 0.47,0.71 4.21,6.4 4.67,7.11 0.46,0.71 4.21,6.4 4.68,7.12 0.47,0.72 4.2,6.38 4.67,7.1 0.47,0.72 4.2,6.35 4.67,7.07 0.47,0.72 4.2,6.32 4.67,7.03 0.47,0.71 4.19,6.26 4.68,6.98 0.49,0.72 4.18,6.19 4.67,6.92 0.49,0.73 4.17,6.1 4.67,6.83 0.5,0.73 4.16,6 4.67,6.74 0.51,0.74 4.15,5.89 4.68,6.63 0.53,0.74 4.13,5.77 4.67,6.51 0.54,0.74 4.12,5.64 4.67,6.38 0.55,0.74 4.11,5.49 4.67,6.24 0.56,0.75 4.09,5.33 4.68,6.09 0.59,0.76 4.06,5.16 4.67,5.92 0.61,0.76 4.04,4.97 4.67,5.74 0.63,0.77 4.02,4.78 4.67,5.55 0.65,0.77 3.99,4.57 4.68,5.35 0.69,0.78 3.95,4.36 4.67,5.14 0.72,0.78 3.92,4.14 4.67,4.92 0.75,0.78 3.88,3.91 4.67,4.69 0.79,0.78 3.84,3.67 4.68,4.45 0.84,0.78 3.79,3.43 4.67,4.2 0.88,0.77 3.74,3.18 4.67,3.95 0.93,0.77 3.69,2.93 4.67,3.68 0.98,0.75 3.63,2.67 4.68,3.4 1.05,0.73 3.56,2.42 4.67,3.12 1.11,0.7 3.5,2.17 4.67,2.84 1.17,0.67 3.44,1.91 4.67,2.54 1.23,0.63 3.38,1.65 4.68,2.23 1.3,0.58 3.31,1.41 4.67,1.93 1.36,0.52 3.25,1.17 4.67,1.61 1.42,0.44 3.2,0.93 4.68,1.29 1.48,0.36 3.15,0.7 4.67,0.96 1.52,0.26 3.13,0.48 4.67,0.64 1.54,0.16 3.12,0.27 4.67,0.29 1.55,0.02 3.12,0 4.67,-0.04 1.55,-0.04 3.14,-0.2 4.68,-0.38 1.54,-0.18 3.17,-0.44 4.67,-0.73 1.5,-0.29 3.22,-0.7 4.67,-1.09 1.45,-0.39 3.28,-0.95 4.68,-1.43 1.4,-0.48 3.35,-1.24 4.67,-1.79 1.32,-0.55 3.42,-1.53 4.67,-2.15 1.25,-0.62 3.5,-1.84 4.67,-2.51 1.17,-0.67 3.58,-2.16 4.67,-2.87 1.09,-0.71 3.66,-2.49 4.68,-3.23 1.02,-0.74 4.18,-3.22 4.67,-3.6"
             style="fill:none;stroke:#ff0000;stroke-width:2"
             id="path630" /></g></svg><g
         id="g690"><g
           transform="translate(0,528)"
           id="g664"><path
             d="M 0,0 H 1246 M 0,-20 V 0 M 31,-10 V 0 M 62,-10 V 0 M 93,-10 V 0 m 32,-10 V 0 m 31,-20 V 0 m 31,-10 V 0 m 31,-10 V 0 m 31,-10 V 0 m 31,-10 V 0 m 32,-20 V 0 m 31,-10 V 0 m 31,-10 V 0 m 31,-10 V 0 m 31,-10 V 0 m 31,-20 V 0 m 31,-10 V 0 m 32,-10 V 0 m 31,-10 V 0 m 31,-10 V 0 m 31,-20 V 0 m 31,-10 V 0 m 31,-10 V 0 m 31,-10 V 0 m 32,-10 V 0 m 31,-20 V 0 m 31,-10 V 0 m 31,-10 V 0 m 31,-10 V 0 m 31,-10 V 0 m 31,-20 V 0 m 32,-10 V 0 m 31,-10 V 0 m 31,-10 V 0 m 31,-10 V 0 m 31,-20 V 0 m 31,-10 V 0 m 32,-10 V 0 m 31,-10 V 0 m 31,-10 V 0 m 31,-20 V 0"
             style="stroke:#000000;stroke-width:1"
             id="path636" /><g
             font-family="Arial"
             font-size="23px"
             xml:space="preserve"
             fill="#000000"
             text-anchor="middle"
             id="g656"><text
               dy="0.80000001em"
               transform="translate(0,5)"
               id="text638">0</text><text
               dy="0.80000001em"
               transform="translate(156,5)"
               id="text640">0.05</text><text
               dy="0.80000001em"
               transform="translate(312,5)"
               id="text642">0.10</text><text
               dy="0.80000001em"
               transform="translate(467,5)"
               id="text644">0.15</text><text
               dy="0.80000001em"
               transform="translate(623,5)"
               id="text646">0.20</text><text
               dy="0.80000001em"
               transform="translate(779,5)"
               id="text648">0.25</text><text
               dy="0.80000001em"
               transform="translate(934,5)"
               id="text650">0.30</text><text
               dy="0.80000001em"
               transform="translate(1090,5)"
               id="text652">0.35</text><text
               dy="0.80000001em"
               transform="translate(1246,5)"
               id="text654">0.40</text></g><rect
             x="0"
             y="0"
             width="1246"
             height="26"
             style="opacity:0"
             id="rect658" /><g
             font-family="Arial"
             font-size="23px"
             xml:space="preserve"
             transform="translate(1246,37)"
             id="g662"><text
               fill="#000000"
               text-anchor="end"
               dominant-baseline="middle"
               id="text660">E/p</text></g></g><g
           id="g688"><path
             d="m 0,0 v 528 m 47,0 H 0 M 24,513 H 0 M 24,498 H 0 M 24,484 H 0 M 24,469 H 0 M 47,454 H 0 M 24,439 H 0 M 24,424 H 0 M 24,410 H 0 M 24,395 H 0 M 47,380 H 0 M 24,365 H 0 M 24,351 H 0 M 24,336 H 0 M 24,321 H 0 M 47,306 H 0 M 24,291 H 0 M 24,277 H 0 M 24,262 H 0 M 24,247 H 0 M 47,232 H 0 M 24,217 H 0 M 24,203 H 0 M 24,188 H 0 M 24,173 H 0 M 47,158 H 0 M 24,143 H 0 M 24,129 H 0 M 24,114 H 0 M 24,99 H 0 M 47,84 H 0 M 24,70 H 0 M 24,55 H 0 M 24,40 H 0 M 24,25 H 0 M 47,10 H 0"
             style="stroke:#000000;stroke-width:1"
             id="path666" /><g
             font-family="Arial"
             font-size="23px"
             xml:space="preserve"
             fill="#000000"
             text-anchor="end"
             id="g684"><text
               dominant-baseline="middle"
               transform="translate(-3,528)"
               id="text668">0</text><text
               dominant-baseline="middle"
               transform="translate(-3,454)"
               id="text670">50</text><text
               dominant-baseline="middle"
               transform="translate(-3,380)"
               id="text672">100</text><text
               dominant-baseline="middle"
               transform="translate(-3,306)"
               id="text674">150</text><text
               dominant-baseline="middle"
               transform="translate(-3,232)"
               id="text676">200</text><text
               dominant-baseline="middle"
               transform="translate(-3,158)"
               id="text678">250</text><text
               dominant-baseline="middle"
               transform="translate(-3,84)"
               id="text680">300</text><text
               dominant-baseline="middle"
               transform="translate(-3,10)"
               id="text682">350</text></g><rect
             x="-42"
             y="0"
             width="42"
             height="528"
             style="opacity:0"
             id="rect686" /></g></g><path
         d="M 2,2 H 17 V -3 H -3 v 20 h 5 z"
         style="opacity:0"
         id="path692" /><path
         d="m 1244,2 h -15 v -5 h 20 v 20 h -5 z"
         style="opacity:0"
         id="path694" /><path
         d="m 2,526 h 15 v 5 H -3 v -20 h 5 z"
         style="opacity:0"
         id="path696" /><path
         d="m 1244,526 h -15 v 5 h 20 v -20 h -5 z"
         style="opacity:0"
         id="path698" /><path
         d="M -3,18 H 2 V 510 H -3 Z"
         style="opacity:0"
         id="path700" /><path
         d="m 1249,18 h -5 v 492 h 5 z"
         style="opacity:0"
         id="path702" /><path
         d="M 18,-3 V 2 H 1228 V -3 Z"
         style="opacity:0"
         id="path704" /><path
         d="m 18,531 v -5 h 1210 v 5 z"
         style="opacity:0"
         id="path706" /><style
         id="style708">
.jsroot rect.h1bin { stroke: #4572A7; fill: #4572A7; opacity: 0; }
.jsroot rect.zoom { stroke: steelblue; fill-opacity: 0.1; }
.jsroot path.zoom { stroke: steelblue; fill-opacity: 0.1; }
.jsroot svg:not(:root) { overflow: hidden; }</style></g><g
       transform="translate(1651.4366,663)"
       font-family="Arial"
       font-size="37px"
       xml:space="preserve"
       id="g732"><path
         d="M 0,0 H 1246 V 44 H 0 Z"
         style="fill:none"
         id="path712" /><text
         fill="#000000"
         text-anchor="middle"
         dominant-baseline="middle"
         transform="translate(623,22)"
         id="text714">ECAL Sampling Fraction sector 2 ( 8.60 &lt; p &lt;  9.00)</text><path
         d="M 2,2 H 17 V -3 H -3 v 20 h 5 z"
         style="opacity:0"
         id="path716" /><path
         d="m 1244,2 h -15 v -5 h 20 v 20 h -5 z"
         style="opacity:0"
         id="path718" /><path
         d="m 2,42 h 15 v 5 H -3 V 27 h 5 z"
         style="opacity:0"
         id="path720" /><path
         d="m 1244,42 h -15 v 5 h 20 V 27 h -5 z"
         style="opacity:0"
         id="path722" /><path
         d="m -3,18 h 5 v 8 h -5 z"
         style="opacity:0"
         id="path724" /><path
         d="m 1249,18 h -5 v 8 h 5 z"
         style="opacity:0"
         id="path726" /><path
         d="M 18,-3 V 2 H 1228 V -3 Z"
         style="opacity:0"
         id="path728" /><path
         d="m 18,47 v -5 h 1210 v 5 z"
         style="opacity:0"
         id="path730" /></g><g
       transform="translate(2575.9366,736.5)"
       font-family="Arial"
       font-size="22px"
       xml:space="preserve"
       fill="#000000"
       id="g768"><path
         d="M 0,0 H 311 V 106 H 0 Z"
         style="fill:#ffffff;stroke:#000000;stroke-width:1"
         id="path734" /><text
         text-anchor="middle"
         dominant-baseline="middle"
         transform="translate(156,13)"
         id="text736">ECAL: ECAL Sampling...</text><text
         text-anchor="start"
         dominant-baseline="middle"
         transform="translate(16,40)"
         id="text738">Entries </text><text
         text-anchor="end"
         dominant-baseline="middle"
         transform="translate(295,40)"
         id="text740"> 19863</text><text
         text-anchor="start"
         dominant-baseline="middle"
         transform="translate(16,66)"
         id="text742">Mean </text><text
         text-anchor="end"
         dominant-baseline="middle"
         transform="translate(295,66)"
         id="text744"> 0.1504</text><text
         text-anchor="start"
         dominant-baseline="middle"
         transform="translate(16,93)"
         id="text746">Std Dev </text><text
         text-anchor="end"
         dominant-baseline="middle"
         transform="translate(295,93)"
         id="text748"> 0.05469</text><path
         d="M 0,27 H 311"
         style="stroke:#000000;stroke-width:1"
         id="path750" /><path
         d="M 2,2 H 17 V -3 H -3 v 20 h 5 z"
         style="opacity:0"
         id="path752" /><path
         d="m 309,2 h -15 v -5 h 20 v 20 h -5 z"
         style="opacity:0"
         id="path754" /><path
         d="m 2,104 h 15 v 5 H -3 V 89 h 5 z"
         style="opacity:0"
         id="path756" /><path
         d="m 309,104 h -15 v 5 h 20 V 89 h -5 z"
         style="opacity:0"
         id="path758" /><path
         d="M -3,18 H 2 V 88 H -3 Z"
         style="opacity:0"
         id="path760" /><path
         d="m 314,18 h -5 v 70 h 5 z"
         style="opacity:0"
         id="path762" /><path
         d="M 18,-3 V 2 H 293 V -3 Z"
         style="opacity:0"
         id="path764" /><path
         d="m 18,109 v -5 h 275 v 5 z"
         style="opacity:0"
         id="path766" /></g></g><g
     id="g2301"
     transform="translate(61.91324,-47.28463)"><g
       transform="translate(-6.91324,773.28463)"
       id="g948"><title
         id="title858" /><path
         d="M 0,0 H 1246 V 528 H 0 Z"
         style="fill:none;stroke:#000000;stroke-width:1"
         id="path860" /><svg
         x="0"
         y="0"
         overflow="hidden"
         width="1246"
         height="528"
         viewBox="0 0 1246 528"
         version="1.1"
         id="svg870"><g
           id="g864"><path
             d="m 0,526 h 6 v -14 h 6 v -12 h 7 v 12 h 6 v -4 h 6 v -6 h 6 v -4 h 7 v -9 h 6 v -4 h 6 v 8 h 6 v 9 h 7 v -2 h 6 v -5 h 6 v 5 h 6 v 6 h 6 v -2 h 7 v -9 h 6 v 3 h 6 v -7 h 13 v -3 h 6 v -14 h 6 v -2 h 6 v -17 h 7 v -8 h 6 v 9 h 6 v -16 h 6 v -13 h 6 v 6 h 7 v 18 h 6 v -12 h 6 v 3 h 6 v -4 h 7 v -8 h 6 v -13 h 6 v 7 h 6 v -7 h 7 v 14 h 12 v -18 h 6 v -7 h 6 v -6 h 7 v 12 h 6 v -17 h 6 v -1 h 6 v -4 h 7 v -1 h 6 v -4 h 6 v 3 h 6 v -21 h 7 v 7 h 6 v -20 h 6 v 10 h 6 v -14 h 6 v -23 h 7 v 6 h 6 v 13 h 6 v -35 h 6 v -5 h 13 v -5 h 6 v -23 h 6 v 24 h 6 v -37 h 7 v 30 h 6 v -1 h 6 v -8 h 6 v -36 h 7 v 13 h 6 v -8 h 6 v 10 h 6 v -19 h 7 v 3 h 6 v 7 h 6 v -27 h 6 v 31 h 6 v -6 h 7 v 24 h 6 v -4 h 6 v 13 h 6 v -2 h 7 v 22 h 6 v 3 h 6 v -1 h 6 v -14 h 7 v 29 h 6 v 5 h 6 v -6 h 6 v 30 h 6 v -24 h 7 v 21 h 6 v -7 h 6 v 28 h 6 v -8 h 7 v -11 h 6 v -7 h 6 v -3 h 6 v -14 h 7 v -21 h 6 v 3 h 6 v -15 h 6 v 1 h 6 v -29 h 7 v 34 h 6 v -39 h 6 v -14 h 6 v 6 h 7 v -19 h 6 v -22 h 6 v -30 h 6 v 9 h 7 v -16 h 6 v -20 h 6 v -38 h 6 v 7 h 6 v -18 h 7 V 25 h 6 v 24 h 6 v 17 h 6 v -2 h 7 v 13 h 6 V 34 h 6 v 20 h 6 v 55 h 7 v 5 h 6 v 30 h 6 v 25 h 6 v 50 h 6 v 42 h 7 v 30 h 6 v 51 h 6 v -3 h 6 v 51 h 7 v 42 h 6 v 5 h 6 v 24 h 6 v 14 h 7 v -3 h 6 v 3 h 6 v 4 h 6 v 9 h 6 v 7 h 7 v 7 h 6 v -11 h 6 v 13 h 6 v 4 h 13 v -4 h 6 v 11 h 6 v -2 h 6 v -4 h 7 v 3 h 6 v 1 h 6 v 3 h 6 v 2 h 7 v 2 h 6 v 5 h 19 v 2 h 6 v -4 h 6 v 4 h 6 v -2 h 6 v 2 h 7 v -2 h 6 v 2 h 19 v 1 h 6 v -1 h 19 v 1 h 18 v -1 h 6 v 1 h 150 v 3 H 0 Z"
             style="fill:none;stroke:#000099;stroke-width:1;stroke-linejoin:miter"
             id="path862" /></g><g
           id="g868"><path
             d="m 467.25,256.55 c 0.42,0.39 3.83,3.56 4.67,4.34 0.84,0.78 3.83,3.52 4.67,4.3 0.84,0.78 3.82,3.49 4.68,4.26 0.86,0.77 3.81,3.46 4.67,4.23 0.86,0.77 3.81,3.42 4.67,4.2 0.86,0.78 3.8,3.38 4.67,4.15 0.87,0.77 3.8,3.35 4.68,4.12 0.88,0.77 3.78,3.31 4.67,4.08 0.89,0.77 3.78,3.27 4.67,4.04 0.89,0.77 3.77,3.23 4.67,4 0.9,0.77 3.77,3.19 4.68,3.96 0.91,0.77 3.75,3.14 4.67,3.91 0.92,0.77 3.74,3.09 4.67,3.86 0.93,0.77 3.73,3.04 4.67,3.8 0.94,0.76 3.72,2.98 4.68,3.74 0.96,0.76 3.7,2.91 4.67,3.67 0.97,0.76 3.68,2.83 4.67,3.58 0.99,0.75 3.66,2.74 4.67,3.49 1.01,0.75 3.64,2.63 4.68,3.36 1.04,0.73 3.6,2.51 4.67,3.23 1.07,0.72 3.56,2.36 4.67,3.07 1.11,0.71 3.52,2.18 4.67,2.86 1.15,0.68 3.46,1.98 4.68,2.63 1.22,0.65 3.39,1.74 4.67,2.34 1.28,0.6 3.32,1.48 4.67,2 1.35,0.52 3.24,1.18 4.68,1.6 1.44,0.42 3.16,0.86 4.67,1.14 1.51,0.28 3.11,0.56 4.67,0.59 1.56,0.03 3.12,-0.01 4.67,-0.05 1.55,-0.04 3.21,-0.4 4.67,-0.76 1.46,-0.36 3.37,-1.02 4.68,-1.59 1.31,-0.57 3.57,-1.79 4.67,-2.5 1.1,-0.71 3.79,-2.75 4.67,-3.52 0.88,-0.77 3.98,-3.85 4.67,-4.63 0.69,-0.78 4.14,-5.08 4.68,-5.82 0.54,-0.74 4.26,-6.42 4.67,-7.11 0.41,-0.69 4.35,-7.81 4.67,-8.44 0.32,-0.63 4.42,-9.24 4.67,-9.82 0.25,-0.58 4.47,-10.68 4.68,-11.21 0.21,-0.53 4.5,-12.09 4.67,-12.58 0.17,-0.49 4.53,-13.45 4.67,-13.9 0.14,-0.45 4.55,-14.71 4.68,-15.14 0.13,-0.43 4.55,-15.82 4.67,-16.23 0.12,-0.41 4.57,-16.76 4.67,-17.15 0.1,-0.39 4.57,-17.48 4.67,-17.86 0.1,-0.38 4.58,-17.93 4.67,-18.3 0.09,-0.37 4.58,-18.08 4.68,-18.46 0.1,-0.38 4.57,-17.9 4.67,-18.28 0.1,-0.38 4.57,-17.37 4.67,-17.77 0.1,-0.4 4.56,-16.47 4.67,-16.88 0.11,-0.41 4.54,-15.2 4.68,-15.65 0.14,-0.45 4.49,-13.55 4.67,-14.04 0.18,-0.49 4.43,-11.55 4.67,-12.11 0.24,-0.56 4.32,-9.21 4.67,-9.86 0.35,-0.65 4.09,-6.59 4.68,-7.35 0.59,-0.76 3.61,-3.9 4.67,-4.62 1.06,-0.72 3.12,-1.66 4.67,-1.74 1.55,-0.08 3.52,0.56 4.67,1.24 1.15,0.68 4.05,3.48 4.68,4.25 0.63,0.77 4.32,6.54 4.67,7.2 0.35,0.66 4.45,9.5 4.67,10.04 0.22,0.54 4.52,12.26 4.67,12.73 0.15,0.47 4.56,14.75 4.68,15.16 0.12,0.41 4.57,16.95 4.67,17.33 0.1,0.38 4.59,18.82 4.67,19.17 0.08,0.35 4.6,20.34 4.67,20.67 0.07,0.33 4.61,21.5 4.68,21.82 0.07,0.32 4.61,22.28 4.67,22.59 0.06,0.31 4.61,22.71 4.67,23.01 0.06,0.3 4.61,22.78 4.67,23.09 0.06,0.31 4.61,22.54 4.68,22.85 0.07,0.31 4.6,22.01 4.67,22.33 0.07,0.32 4.6,21.23 4.67,21.55 0.07,0.32 4.59,20.24 4.67,20.59 0.08,0.35 4.59,19.08 4.68,19.44 0.09,0.36 4.57,17.8 4.67,18.19 0.1,0.39 4.55,16.43 4.67,16.85 0.12,0.42 4.53,15.01 4.67,15.46 0.14,0.45 4.51,13.59 4.68,14.08 0.17,0.49 4.47,12.18 4.67,12.7 0.2,0.52 4.43,10.82 4.67,11.39 0.24,0.57 4.37,9.51 4.67,10.13 0.3,0.62 4.31,8.29 4.68,8.95 0.37,0.66 4.22,7.16 4.67,7.86 0.45,0.7 4.13,6.14 4.67,6.88 0.54,0.74 4.04,5.23 4.68,5.99 0.64,0.76 3.92,4.42 4.67,5.2 0.75,0.78 3.81,3.73 4.67,4.51 0.86,0.78 3.7,3.14 4.67,3.89 0.97,0.75 3.6,2.65 4.67,3.37 1.07,0.72 3.52,2.25 4.68,2.93 1.16,0.68 3.43,1.91 4.67,2.54 1.24,0.63 3.37,1.64 4.67,2.21 1.3,0.57 3.33,1.42 4.68,1.95 1.35,0.53 3.28,1.24 4.67,1.72 1.39,0.48 3.25,1.09 4.67,1.53 1.42,0.44 3.23,0.97 4.67,1.38 1.44,0.41 3.21,0.87 4.67,1.24 1.46,0.37 3.2,0.79 4.68,1.13 1.48,0.34 3.93,0.87 4.67,1.04"
             style="fill:none;stroke:#ff0000;stroke-width:2"
             id="path866" /></g></svg><g
         id="g928"><g
           transform="translate(0,528)"
           id="g900"><path
             d="M 0,0 H 1246 M 0,-20 V 0 M 31,-10 V 0 M 62,-10 V 0 M 93,-10 V 0 m 32,-10 V 0 m 31,-20 V 0 m 31,-10 V 0 m 31,-10 V 0 m 31,-10 V 0 m 31,-10 V 0 m 32,-20 V 0 m 31,-10 V 0 m 31,-10 V 0 m 31,-10 V 0 m 31,-10 V 0 m 31,-20 V 0 m 31,-10 V 0 m 32,-10 V 0 m 31,-10 V 0 m 31,-10 V 0 m 31,-20 V 0 m 31,-10 V 0 m 31,-10 V 0 m 31,-10 V 0 m 32,-10 V 0 m 31,-20 V 0 m 31,-10 V 0 m 31,-10 V 0 m 31,-10 V 0 m 31,-10 V 0 m 31,-20 V 0 m 32,-10 V 0 m 31,-10 V 0 m 31,-10 V 0 m 31,-10 V 0 m 31,-20 V 0 m 31,-10 V 0 m 32,-10 V 0 m 31,-10 V 0 m 31,-10 V 0 m 31,-20 V 0"
             style="stroke:#000000;stroke-width:1"
             id="path872" /><g
             font-family="Arial"
             font-size="23px"
             xml:space="preserve"
             fill="#000000"
             text-anchor="middle"
             id="g892"><text
               dy="0.80000001em"
               transform="translate(0,5)"
               id="text874">0</text><text
               dy="0.80000001em"
               transform="translate(156,5)"
               id="text876">0.05</text><text
               dy="0.80000001em"
               transform="translate(312,5)"
               id="text878">0.10</text><text
               dy="0.80000001em"
               transform="translate(467,5)"
               id="text880">0.15</text><text
               dy="0.80000001em"
               transform="translate(623,5)"
               id="text882">0.20</text><text
               dy="0.80000001em"
               transform="translate(779,5)"
               id="text884">0.25</text><text
               dy="0.80000001em"
               transform="translate(934,5)"
               id="text886">0.30</text><text
               dy="0.80000001em"
               transform="translate(1090,5)"
               id="text888">0.35</text><text
               dy="0.80000001em"
               transform="translate(1246,5)"
               id="text890">0.40</text></g><rect
             x="0"
             y="0"
             width="1246"
             height="26"
             style="opacity:0"
             id="rect894" /><g
             font-family="Arial"
             font-size="23px"
             xml:space="preserve"
             transform="translate(1246,37)"
             id="g898"><text
               fill="#000000"
               text-anchor="end"
               dominant-baseline="middle"
               id="text896">E/p</text></g></g><g
           id="g926"><path
             d="m 0,0 v 528 m 47,0 H 0 M 24,515 H 0 M 24,502 H 0 M 24,490 H 0 M 24,477 H 0 M 47,464 H 0 M 24,451 H 0 M 24,438 H 0 M 24,426 H 0 M 24,413 H 0 M 47,400 H 0 M 24,387 H 0 M 24,374 H 0 M 24,361 H 0 M 24,349 H 0 M 47,336 H 0 M 24,323 H 0 M 24,310 H 0 M 24,297 H 0 M 24,285 H 0 M 47,272 H 0 M 24,259 H 0 M 24,246 H 0 M 24,233 H 0 M 24,221 H 0 M 47,208 H 0 M 24,195 H 0 M 24,182 H 0 M 24,169 H 0 M 24,156 H 0 M 47,144 H 0 M 24,131 H 0 M 24,118 H 0 M 24,105 H 0 M 24,92 H 0 M 47,80 H 0 M 24,67 H 0 M 24,54 H 0 M 24,41 H 0 M 24,28 H 0 M 47,16 H 0 M 24,3 H 0"
             style="stroke:#000000;stroke-width:1"
             id="path902" /><g
             font-family="Arial"
             font-size="23px"
             xml:space="preserve"
             fill="#000000"
             text-anchor="end"
             id="g922"><text
               dominant-baseline="middle"
               transform="translate(-3,528)"
               id="text904">0</text><text
               dominant-baseline="middle"
               transform="translate(-3,464)"
               id="text906">100</text><text
               dominant-baseline="middle"
               transform="translate(-3,400)"
               id="text908">200</text><text
               dominant-baseline="middle"
               transform="translate(-3,336)"
               id="text910">300</text><text
               dominant-baseline="middle"
               transform="translate(-3,272)"
               id="text912">400</text><text
               dominant-baseline="middle"
               transform="translate(-3,208)"
               id="text914">500</text><text
               dominant-baseline="middle"
               transform="translate(-3,144)"
               id="text916">600</text><text
               dominant-baseline="middle"
               transform="translate(-3,80)"
               id="text918">700</text><text
               dominant-baseline="middle"
               transform="translate(-3,16)"
               id="text920">800</text></g><rect
             x="-42"
             y="0"
             width="42"
             height="528"
             style="opacity:0"
             id="rect924" /></g></g><path
         d="M 2,2 H 17 V -3 H -3 v 20 h 5 z"
         style="opacity:0"
         id="path930" /><path
         d="m 1244,2 h -15 v -5 h 20 v 20 h -5 z"
         style="opacity:0"
         id="path932" /><path
         d="m 2,526 h 15 v 5 H -3 v -20 h 5 z"
         style="opacity:0"
         id="path934" /><path
         d="m 1244,526 h -15 v 5 h 20 v -20 h -5 z"
         style="opacity:0"
         id="path936" /><path
         d="M -3,18 H 2 V 510 H -3 Z"
         style="opacity:0"
         id="path938" /><path
         d="m 1249,18 h -5 v 492 h 5 z"
         style="opacity:0"
         id="path940" /><path
         d="M 18,-3 V 2 H 1228 V -3 Z"
         style="opacity:0"
         id="path942" /><path
         d="m 18,531 v -5 h 1210 v 5 z"
         style="opacity:0"
         id="path944" /><style
         id="style946">
.jsroot rect.h1bin { stroke: #4572A7; fill: #4572A7; opacity: 0; }
.jsroot rect.zoom { stroke: steelblue; fill-opacity: 0.1; }
.jsroot path.zoom { stroke: steelblue; fill-opacity: 0.1; }
.jsroot svg:not(:root) { overflow: hidden; }</style></g><g
       transform="translate(-6.91324,710.28463)"
       font-family="Arial"
       font-size="37px"
       xml:space="preserve"
       id="g970"><path
         d="M 0,0 H 1246 V 44 H 0 Z"
         style="fill:none"
         id="path950" /><text
         fill="#000000"
         text-anchor="middle"
         dominant-baseline="middle"
         transform="translate(623,22)"
         id="text952">ECAL Sampling Fraction sector 2 ( 6.20 &lt; p &lt;  6.60)</text><path
         d="M 2,2 H 17 V -3 H -3 v 20 h 5 z"
         style="opacity:0"
         id="path954" /><path
         d="m 1244,2 h -15 v -5 h 20 v 20 h -5 z"
         style="opacity:0"
         id="path956" /><path
         d="m 2,42 h 15 v 5 H -3 V 27 h 5 z"
         style="opacity:0"
         id="path958" /><path
         d="m 1244,42 h -15 v 5 h 20 V 27 h -5 z"
         style="opacity:0"
         id="path960" /><path
         d="m -3,18 h 5 v 8 h -5 z"
         style="opacity:0"
         id="path962" /><path
         d="m 1249,18 h -5 v 8 h 5 z"
         style="opacity:0"
         id="path964" /><path
         d="M 18,-3 V 2 H 1228 V -3 Z"
         style="opacity:0"
         id="path966" /><path
         d="m 18,47 v -5 h 1210 v 5 z"
         style="opacity:0"
         id="path968" /></g><g
       transform="translate(917.58676,783.78463)"
       font-family="Arial"
       font-size="22px"
       xml:space="preserve"
       fill="#000000"
       id="g1006"><path
         d="M 0,0 H 311 V 106 H 0 Z"
         style="fill:#ffffff;stroke:#000000;stroke-width:1"
         id="path972" /><text
         text-anchor="middle"
         dominant-baseline="middle"
         transform="translate(156,13)"
         id="text974">ECAL: ECAL Sampling...</text><text
         text-anchor="start"
         dominant-baseline="middle"
         transform="translate(16,40)"
         id="text976">Entries </text><text
         text-anchor="end"
         dominant-baseline="middle"
         transform="translate(295,40)"
         id="text978"> 41803</text><text
         text-anchor="start"
         dominant-baseline="middle"
         transform="translate(16,66)"
         id="text980">Mean </text><text
         text-anchor="end"
         dominant-baseline="middle"
         transform="translate(295,66)"
         id="text982"> 0.1775</text><text
         text-anchor="start"
         dominant-baseline="middle"
         transform="translate(16,93)"
         id="text984">Std Dev </text><text
         text-anchor="end"
         dominant-baseline="middle"
         transform="translate(295,93)"
         id="text986"> 0.06450</text><path
         d="M 0,27 H 311"
         style="stroke:#000000;stroke-width:1"
         id="path988" /><path
         d="M 2,2 H 17 V -3 H -3 v 20 h 5 z"
         style="opacity:0"
         id="path990" /><path
         d="m 309,2 h -15 v -5 h 20 v 20 h -5 z"
         style="opacity:0"
         id="path992" /><path
         d="m 2,104 h 15 v 5 H -3 V 89 h 5 z"
         style="opacity:0"
         id="path994" /><path
         d="m 309,104 h -15 v 5 h 20 V 89 h -5 z"
         style="opacity:0"
         id="path996" /><path
         d="M -3,18 H 2 V 88 H -3 Z"
         style="opacity:0"
         id="path998" /><path
         d="m 314,18 h -5 v 70 h 5 z"
         style="opacity:0"
         id="path1000" /><path
         d="M 18,-3 V 2 H 293 V -3 Z"
         style="opacity:0"
         id="path1002" /><path
         d="m 18,109 v -5 h 275 v 5 z"
         style="opacity:0"
         id="path1004" /></g></g></svg>
