<?xml version="1.0" encoding="UTF-8" standalone="no"?>
<svg
   width="1372"
   height="672"
   version="1.1"
   id="svg160"
   sodipodi:docname="31sf_1d_plot2.svg"
   xml:space="preserve"
   inkscape:version="1.2.2 (1:1.2.2+202305151914+b0a8486541)"
   inkscape:export-filename="31sf_1d_plot2.pdf"
   inkscape:export-xdpi="96"
   inkscape:export-ydpi="96"
   xmlns:inkscape="http://www.inkscape.org/namespaces/inkscape"
   xmlns:sodipodi="http://sodipodi.sourceforge.net/DTD/sodipodi-0.dtd"
   xmlns="http://www.w3.org/2000/svg"
   xmlns:svg="http://www.w3.org/2000/svg"><defs
     id="defs164" /><sodipodi:namedview
     id="namedview162"
     pagecolor="#ffffff"
     bordercolor="#666666"
     borderopacity="1.0"
     inkscape:showpageshadow="2"
     inkscape:pageopacity="0.0"
     inkscape:pagecheckerboard="0"
     inkscape:deskcolor="#d1d1d1"
     showgrid="false"
     inkscape:zoom="0.35355339"
     inkscape:cx="446.89149"
     inkscape:cy="308.29856"
     inkscape:window-width="1920"
     inkscape:window-height="1051"
     inkscape:window-x="0"
     inkscape:window-y="0"
     inkscape:window-maximized="1"
     inkscape:current-layer="svg160" /><rect
     style="fill:#ffffff;stroke-width:0.764942;stroke-dasharray:0.764942, 1.52988;stroke-opacity:0.6"
     id="rect1594"
     width="1372"
     height="672"
     x="0"
     y="0" /><g
     id="g2301"
     transform="translate(80.171297,-692.20895)"><g
       transform="translate(-6.91324,773.28463)"
       id="g948"><title
         id="title858" /><path
         d="M 0,0 H 1246 V 528 H 0 Z"
         style="fill:none;stroke:#000000;stroke-width:1"
         id="path860" /><svg
         x="0"
         y="0"
         overflow="hidden"
         width="1246"
         height="528"
         viewBox="0 0 1246 528"
         version="1.1"
         id="svg870"><g
           id="g864"><path
             d="m 0,526 h 6 v -14 h 6 v -12 h 7 v 12 h 6 v -4 h 6 v -6 h 6 v -4 h 7 v -9 h 6 v -4 h 6 v 8 h 6 v 9 h 7 v -2 h 6 v -5 h 6 v 5 h 6 v 6 h 6 v -2 h 7 v -9 h 6 v 3 h 6 v -7 h 13 v -3 h 6 v -14 h 6 v -2 h 6 v -17 h 7 v -8 h 6 v 9 h 6 v -16 h 6 v -13 h 6 v 6 h 7 v 18 h 6 v -12 h 6 v 3 h 6 v -4 h 7 v -8 h 6 v -13 h 6 v 7 h 6 v -7 h 7 v 14 h 12 v -18 h 6 v -7 h 6 v -6 h 7 v 12 h 6 v -17 h 6 v -1 h 6 v -4 h 7 v -1 h 6 v -4 h 6 v 3 h 6 v -21 h 7 v 7 h 6 v -20 h 6 v 10 h 6 v -14 h 6 v -23 h 7 v 6 h 6 v 13 h 6 v -35 h 6 v -5 h 13 v -5 h 6 v -23 h 6 v 24 h 6 v -37 h 7 v 30 h 6 v -1 h 6 v -8 h 6 v -36 h 7 v 13 h 6 v -8 h 6 v 10 h 6 v -19 h 7 v 3 h 6 v 7 h 6 v -27 h 6 v 31 h 6 v -6 h 7 v 24 h 6 v -4 h 6 v 13 h 6 v -2 h 7 v 22 h 6 v 3 h 6 v -1 h 6 v -14 h 7 v 29 h 6 v 5 h 6 v -6 h 6 v 30 h 6 v -24 h 7 v 21 h 6 v -7 h 6 v 28 h 6 v -8 h 7 v -11 h 6 v -7 h 6 v -3 h 6 v -14 h 7 v -21 h 6 v 3 h 6 v -15 h 6 v 1 h 6 v -29 h 7 v 34 h 6 v -39 h 6 v -14 h 6 v 6 h 7 v -19 h 6 v -22 h 6 v -30 h 6 v 9 h 7 v -16 h 6 v -20 h 6 v -38 h 6 v 7 h 6 v -18 h 7 V 25 h 6 v 24 h 6 v 17 h 6 v -2 h 7 v 13 h 6 V 34 h 6 v 20 h 6 v 55 h 7 v 5 h 6 v 30 h 6 v 25 h 6 v 50 h 6 v 42 h 7 v 30 h 6 v 51 h 6 v -3 h 6 v 51 h 7 v 42 h 6 v 5 h 6 v 24 h 6 v 14 h 7 v -3 h 6 v 3 h 6 v 4 h 6 v 9 h 6 v 7 h 7 v 7 h 6 v -11 h 6 v 13 h 6 v 4 h 13 v -4 h 6 v 11 h 6 v -2 h 6 v -4 h 7 v 3 h 6 v 1 h 6 v 3 h 6 v 2 h 7 v 2 h 6 v 5 h 19 v 2 h 6 v -4 h 6 v 4 h 6 v -2 h 6 v 2 h 7 v -2 h 6 v 2 h 19 v 1 h 6 v -1 h 19 v 1 h 18 v -1 h 6 v 1 h 150 v 3 H 0 Z"
             style="fill:none;stroke:#000099;stroke-width:1;stroke-linejoin:miter"
             id="path862" /></g><g
           id="g868"><path
             d="m 467.25,256.55 c 0.42,0.39 3.83,3.56 4.67,4.34 0.84,0.78 3.83,3.52 4.67,4.3 0.84,0.78 3.82,3.49 4.68,4.26 0.86,0.77 3.81,3.46 4.67,4.23 0.86,0.77 3.81,3.42 4.67,4.2 0.86,0.78 3.8,3.38 4.67,4.15 0.87,0.77 3.8,3.35 4.68,4.12 0.88,0.77 3.78,3.31 4.67,4.08 0.89,0.77 3.78,3.27 4.67,4.04 0.89,0.77 3.77,3.23 4.67,4 0.9,0.77 3.77,3.19 4.68,3.96 0.91,0.77 3.75,3.14 4.67,3.91 0.92,0.77 3.74,3.09 4.67,3.86 0.93,0.77 3.73,3.04 4.67,3.8 0.94,0.76 3.72,2.98 4.68,3.74 0.96,0.76 3.7,2.91 4.67,3.67 0.97,0.76 3.68,2.83 4.67,3.58 0.99,0.75 3.66,2.74 4.67,3.49 1.01,0.75 3.64,2.63 4.68,3.36 1.04,0.73 3.6,2.51 4.67,3.23 1.07,0.72 3.56,2.36 4.67,3.07 1.11,0.71 3.52,2.18 4.67,2.86 1.15,0.68 3.46,1.98 4.68,2.63 1.22,0.65 3.39,1.74 4.67,2.34 1.28,0.6 3.32,1.48 4.67,2 1.35,0.52 3.24,1.18 4.68,1.6 1.44,0.42 3.16,0.86 4.67,1.14 1.51,0.28 3.11,0.56 4.67,0.59 1.56,0.03 3.12,-0.01 4.67,-0.05 1.55,-0.04 3.21,-0.4 4.67,-0.76 1.46,-0.36 3.37,-1.02 4.68,-1.59 1.31,-0.57 3.57,-1.79 4.67,-2.5 1.1,-0.71 3.79,-2.75 4.67,-3.52 0.88,-0.77 3.98,-3.85 4.67,-4.63 0.69,-0.78 4.14,-5.08 4.68,-5.82 0.54,-0.74 4.26,-6.42 4.67,-7.11 0.41,-0.69 4.35,-7.81 4.67,-8.44 0.32,-0.63 4.42,-9.24 4.67,-9.82 0.25,-0.58 4.47,-10.68 4.68,-11.21 0.21,-0.53 4.5,-12.09 4.67,-12.58 0.17,-0.49 4.53,-13.45 4.67,-13.9 0.14,-0.45 4.55,-14.71 4.68,-15.14 0.13,-0.43 4.55,-15.82 4.67,-16.23 0.12,-0.41 4.57,-16.76 4.67,-17.15 0.1,-0.39 4.57,-17.48 4.67,-17.86 0.1,-0.38 4.58,-17.93 4.67,-18.3 0.09,-0.37 4.58,-18.08 4.68,-18.46 0.1,-0.38 4.57,-17.9 4.67,-18.28 0.1,-0.38 4.57,-17.37 4.67,-17.77 0.1,-0.4 4.56,-16.47 4.67,-16.88 0.11,-0.41 4.54,-15.2 4.68,-15.65 0.14,-0.45 4.49,-13.55 4.67,-14.04 0.18,-0.49 4.43,-11.55 4.67,-12.11 0.24,-0.56 4.32,-9.21 4.67,-9.86 0.35,-0.65 4.09,-6.59 4.68,-7.35 0.59,-0.76 3.61,-3.9 4.67,-4.62 1.06,-0.72 3.12,-1.66 4.67,-1.74 1.55,-0.08 3.52,0.56 4.67,1.24 1.15,0.68 4.05,3.48 4.68,4.25 0.63,0.77 4.32,6.54 4.67,7.2 0.35,0.66 4.45,9.5 4.67,10.04 0.22,0.54 4.52,12.26 4.67,12.73 0.15,0.47 4.56,14.75 4.68,15.16 0.12,0.41 4.57,16.95 4.67,17.33 0.1,0.38 4.59,18.82 4.67,19.17 0.08,0.35 4.6,20.34 4.67,20.67 0.07,0.33 4.61,21.5 4.68,21.82 0.07,0.32 4.61,22.28 4.67,22.59 0.06,0.31 4.61,22.71 4.67,23.01 0.06,0.3 4.61,22.78 4.67,23.09 0.06,0.31 4.61,22.54 4.68,22.85 0.07,0.31 4.6,22.01 4.67,22.33 0.07,0.32 4.6,21.23 4.67,21.55 0.07,0.32 4.59,20.24 4.67,20.59 0.08,0.35 4.59,19.08 4.68,19.44 0.09,0.36 4.57,17.8 4.67,18.19 0.1,0.39 4.55,16.43 4.67,16.85 0.12,0.42 4.53,15.01 4.67,15.46 0.14,0.45 4.51,13.59 4.68,14.08 0.17,0.49 4.47,12.18 4.67,12.7 0.2,0.52 4.43,10.82 4.67,11.39 0.24,0.57 4.37,9.51 4.67,10.13 0.3,0.62 4.31,8.29 4.68,8.95 0.37,0.66 4.22,7.16 4.67,7.86 0.45,0.7 4.13,6.14 4.67,6.88 0.54,0.74 4.04,5.23 4.68,5.99 0.64,0.76 3.92,4.42 4.67,5.2 0.75,0.78 3.81,3.73 4.67,4.51 0.86,0.78 3.7,3.14 4.67,3.89 0.97,0.75 3.6,2.65 4.67,3.37 1.07,0.72 3.52,2.25 4.68,2.93 1.16,0.68 3.43,1.91 4.67,2.54 1.24,0.63 3.37,1.64 4.67,2.21 1.3,0.57 3.33,1.42 4.68,1.95 1.35,0.53 3.28,1.24 4.67,1.72 1.39,0.48 3.25,1.09 4.67,1.53 1.42,0.44 3.23,0.97 4.67,1.38 1.44,0.41 3.21,0.87 4.67,1.24 1.46,0.37 3.2,0.79 4.68,1.13 1.48,0.34 3.93,0.87 4.67,1.04"
             style="fill:none;stroke:#ff0000;stroke-width:2"
             id="path866" /></g></svg><g
         id="g928"><g
           transform="translate(0,528)"
           id="g900"><path
             d="M 0,0 H 1246 M 0,-20 V 0 M 31,-10 V 0 M 62,-10 V 0 M 93,-10 V 0 m 32,-10 V 0 m 31,-20 V 0 m 31,-10 V 0 m 31,-10 V 0 m 31,-10 V 0 m 31,-10 V 0 m 32,-20 V 0 m 31,-10 V 0 m 31,-10 V 0 m 31,-10 V 0 m 31,-10 V 0 m 31,-20 V 0 m 31,-10 V 0 m 32,-10 V 0 m 31,-10 V 0 m 31,-10 V 0 m 31,-20 V 0 m 31,-10 V 0 m 31,-10 V 0 m 31,-10 V 0 m 32,-10 V 0 m 31,-20 V 0 m 31,-10 V 0 m 31,-10 V 0 m 31,-10 V 0 m 31,-10 V 0 m 31,-20 V 0 m 32,-10 V 0 m 31,-10 V 0 m 31,-10 V 0 m 31,-10 V 0 m 31,-20 V 0 m 31,-10 V 0 m 32,-10 V 0 m 31,-10 V 0 m 31,-10 V 0 m 31,-20 V 0"
             style="stroke:#000000;stroke-width:1"
             id="path872" /><g
             font-family="Arial"
             font-size="23px"
             xml:space="preserve"
             fill="#000000"
             text-anchor="middle"
             id="g892"><text
               dy="0.80000001em"
               transform="translate(0,5)"
               id="text874">0</text><text
               dy="0.80000001em"
               transform="translate(156,5)"
               id="text876">0.05</text><text
               dy="0.80000001em"
               transform="translate(312,5)"
               id="text878">0.10</text><text
               dy="0.80000001em"
               transform="translate(467,5)"
               id="text880">0.15</text><text
               dy="0.80000001em"
               transform="translate(623,5)"
               id="text882">0.20</text><text
               dy="0.80000001em"
               transform="translate(779,5)"
               id="text884">0.25</text><text
               dy="0.80000001em"
               transform="translate(934,5)"
               id="text886">0.30</text><text
               dy="0.80000001em"
               transform="translate(1090,5)"
               id="text888">0.35</text><text
               dy="0.80000001em"
               transform="translate(1246,5)"
               id="text890">0.40</text></g><rect
             x="0"
             y="0"
             width="1246"
             height="26"
             style="opacity:0"
             id="rect894" /><g
             font-family="Arial"
             font-size="23px"
             xml:space="preserve"
             transform="translate(1246,37)"
             id="g898"><text
               fill="#000000"
               text-anchor="end"
               dominant-baseline="middle"
               id="text896">E/p</text></g></g><g
           id="g926"><path
             d="m 0,0 v 528 m 47,0 H 0 M 24,515 H 0 M 24,502 H 0 M 24,490 H 0 M 24,477 H 0 M 47,464 H 0 M 24,451 H 0 M 24,438 H 0 M 24,426 H 0 M 24,413 H 0 M 47,400 H 0 M 24,387 H 0 M 24,374 H 0 M 24,361 H 0 M 24,349 H 0 M 47,336 H 0 M 24,323 H 0 M 24,310 H 0 M 24,297 H 0 M 24,285 H 0 M 47,272 H 0 M 24,259 H 0 M 24,246 H 0 M 24,233 H 0 M 24,221 H 0 M 47,208 H 0 M 24,195 H 0 M 24,182 H 0 M 24,169 H 0 M 24,156 H 0 M 47,144 H 0 M 24,131 H 0 M 24,118 H 0 M 24,105 H 0 M 24,92 H 0 M 47,80 H 0 M 24,67 H 0 M 24,54 H 0 M 24,41 H 0 M 24,28 H 0 M 47,16 H 0 M 24,3 H 0"
             style="stroke:#000000;stroke-width:1"
             id="path902" /><g
             font-family="Arial"
             font-size="23px"
             xml:space="preserve"
             fill="#000000"
             text-anchor="end"
             id="g922"><text
               dominant-baseline="middle"
               transform="translate(-3,528)"
               id="text904">0</text><text
               dominant-baseline="middle"
               transform="translate(-3,464)"
               id="text906">100</text><text
               dominant-baseline="middle"
               transform="translate(-3,400)"
               id="text908">200</text><text
               dominant-baseline="middle"
               transform="translate(-3,336)"
               id="text910">300</text><text
               dominant-baseline="middle"
               transform="translate(-3,272)"
               id="text912">400</text><text
               dominant-baseline="middle"
               transform="translate(-3,208)"
               id="text914">500</text><text
               dominant-baseline="middle"
               transform="translate(-3,144)"
               id="text916">600</text><text
               dominant-baseline="middle"
               transform="translate(-3,80)"
               id="text918">700</text><text
               dominant-baseline="middle"
               transform="translate(-3,16)"
               id="text920">800</text></g><rect
             x="-42"
             y="0"
             width="42"
             height="528"
             style="opacity:0"
             id="rect924" /></g></g><path
         d="M 2,2 H 17 V -3 H -3 v 20 h 5 z"
         style="opacity:0"
         id="path930" /><path
         d="m 1244,2 h -15 v -5 h 20 v 20 h -5 z"
         style="opacity:0"
         id="path932" /><path
         d="m 2,526 h 15 v 5 H -3 v -20 h 5 z"
         style="opacity:0"
         id="path934" /><path
         d="m 1244,526 h -15 v 5 h 20 v -20 h -5 z"
         style="opacity:0"
         id="path936" /><path
         d="M -3,18 H 2 V 510 H -3 Z"
         style="opacity:0"
         id="path938" /><path
         d="m 1249,18 h -5 v 492 h 5 z"
         style="opacity:0"
         id="path940" /><path
         d="M 18,-3 V 2 H 1228 V -3 Z"
         style="opacity:0"
         id="path942" /><path
         d="m 18,531 v -5 h 1210 v 5 z"
         style="opacity:0"
         id="path944" /><style
         id="style946">
.jsroot rect.h1bin { stroke: #4572A7; fill: #4572A7; opacity: 0; }
.jsroot rect.zoom { stroke: steelblue; fill-opacity: 0.1; }
.jsroot path.zoom { stroke: steelblue; fill-opacity: 0.1; }
.jsroot svg:not(:root) { overflow: hidden; }</style></g><g
       transform="translate(-6.91324,710.28463)"
       font-family="Arial"
       font-size="37px"
       xml:space="preserve"
       id="g970"><path
         d="M 0,0 H 1246 V 44 H 0 Z"
         style="fill:none"
         id="path950" /><text
         fill="#000000"
         text-anchor="middle"
         dominant-baseline="middle"
         transform="translate(623,22)"
         id="text952">ECAL Sampling Fraction sector 2 ( 6.20 &lt; p &lt;  6.60)</text><path
         d="M 2,2 H 17 V -3 H -3 v 20 h 5 z"
         style="opacity:0"
         id="path954" /><path
         d="m 1244,2 h -15 v -5 h 20 v 20 h -5 z"
         style="opacity:0"
         id="path956" /><path
         d="m 2,42 h 15 v 5 H -3 V 27 h 5 z"
         style="opacity:0"
         id="path958" /><path
         d="m 1244,42 h -15 v 5 h 20 V 27 h -5 z"
         style="opacity:0"
         id="path960" /><path
         d="m -3,18 h 5 v 8 h -5 z"
         style="opacity:0"
         id="path962" /><path
         d="m 1249,18 h -5 v 8 h 5 z"
         style="opacity:0"
         id="path964" /><path
         d="M 18,-3 V 2 H 1228 V -3 Z"
         style="opacity:0"
         id="path966" /><path
         d="m 18,47 v -5 h 1210 v 5 z"
         style="opacity:0"
         id="path968" /></g><g
       transform="translate(917.58676,783.78463)"
       font-family="Arial"
       font-size="22px"
       xml:space="preserve"
       fill="#000000"
       id="g1006"><path
         d="M 0,0 H 311 V 106 H 0 Z"
         style="fill:#ffffff;stroke:#000000;stroke-width:1"
         id="path972" /><text
         text-anchor="middle"
         dominant-baseline="middle"
         transform="translate(156,13)"
         id="text974">ECAL: ECAL Sampling...</text><text
         text-anchor="start"
         dominant-baseline="middle"
         transform="translate(16,40)"
         id="text976">Entries </text><text
         text-anchor="end"
         dominant-baseline="middle"
         transform="translate(295,40)"
         id="text978"> 41803</text><text
         text-anchor="start"
         dominant-baseline="middle"
         transform="translate(16,66)"
         id="text980">Mean </text><text
         text-anchor="end"
         dominant-baseline="middle"
         transform="translate(295,66)"
         id="text982"> 0.1775</text><text
         text-anchor="start"
         dominant-baseline="middle"
         transform="translate(16,93)"
         id="text984">Std Dev </text><text
         text-anchor="end"
         dominant-baseline="middle"
         transform="translate(295,93)"
         id="text986"> 0.06450</text><path
         d="M 0,27 H 311"
         style="stroke:#000000;stroke-width:1"
         id="path988" /><path
         d="M 2,2 H 17 V -3 H -3 v 20 h 5 z"
         style="opacity:0"
         id="path990" /><path
         d="m 309,2 h -15 v -5 h 20 v 20 h -5 z"
         style="opacity:0"
         id="path992" /><path
         d="m 2,104 h 15 v 5 H -3 V 89 h 5 z"
         style="opacity:0"
         id="path994" /><path
         d="m 309,104 h -15 v 5 h 20 V 89 h -5 z"
         style="opacity:0"
         id="path996" /><path
         d="M -3,18 H 2 V 88 H -3 Z"
         style="opacity:0"
         id="path998" /><path
         d="m 314,18 h -5 v 70 h 5 z"
         style="opacity:0"
         id="path1000" /><path
         d="M 18,-3 V 2 H 293 V -3 Z"
         style="opacity:0"
         id="path1002" /><path
         d="m 18,109 v -5 h 275 v 5 z"
         style="opacity:0"
         id="path1004" /></g></g></svg>
