<?xml version="1.0" encoding="UTF-8" standalone="no"?>
<svg
   width="1372"
   height="672"
   version="1.1"
   id="svg160"
   sodipodi:docname="31sf_1d_plot1.svg"
   xml:space="preserve"
   inkscape:version="1.2.2 (1:1.2.2+202305151914+b0a8486541)"
   inkscape:export-filename="31sf_1d_plot1.pdf"
   inkscape:export-xdpi="96"
   inkscape:export-ydpi="96"
   xmlns:inkscape="http://www.inkscape.org/namespaces/inkscape"
   xmlns:sodipodi="http://sodipodi.sourceforge.net/DTD/sodipodi-0.dtd"
   xmlns="http://www.w3.org/2000/svg"
   xmlns:svg="http://www.w3.org/2000/svg"><defs
     id="defs164" /><sodipodi:namedview
     id="namedview162"
     pagecolor="#ffffff"
     bordercolor="#666666"
     borderopacity="1.0"
     inkscape:showpageshadow="2"
     inkscape:pageopacity="0.0"
     inkscape:pagecheckerboard="0"
     inkscape:deskcolor="#d1d1d1"
     showgrid="false"
     inkscape:zoom="0.35355339"
     inkscape:cx="517.60216"
     inkscape:cy="469.5189"
     inkscape:window-width="1920"
     inkscape:window-height="1051"
     inkscape:window-x="0"
     inkscape:window-y="0"
     inkscape:window-maximized="1"
     inkscape:current-layer="svg160" /><rect
     style="fill:#ffffff;stroke-width:0.990933;stroke-dasharray:0.990933, 1.98185;stroke-opacity:0.6"
     id="rect1220"
     width="1372"
     height="672"
     x="0"
     y="0" /><g
     id="g663"
     transform="translate(-1334.7419,-15)"><g
       transform="translate(1414.5,96.075684)"
       id="g98"><title
         id="title4" /><path
         d="M 0,0 H 1246 V 528 H 0 Z"
         style="fill:none;stroke:#000000;stroke-width:1"
         id="path6" /><svg
         x="0"
         y="0"
         overflow="hidden"
         width="1246"
         height="528"
         viewBox="0 0 1246 528"
         version="1.1"
         id="svg16"><g
           id="g10"><path
             d="m 0,528 h 6 v -6 h 6 v -29 h 7 V 393 h 6 v -55 h 6 v 53 h 6 v 34 h 7 v -2 h 6 v -26 h 6 v -14 h 6 v -42 h 7 v -25 h 6 v -10 h 6 v -33 h 6 v -37 h 6 v -57 h 7 v -17 h 6 v -34 h 6 v 59 h 6 v 63 h 7 v 51 h 6 v 46 h 6 v 8 h 6 v 14 h 7 v 17 h 6 v -3 h 6 v -7 h 6 v 7 h 6 v 6 h 7 v -4 h 6 v 6 h 6 v -4 h 13 v -5 h 6 v -3 h 6 v 1 h 6 v -3 h 7 v 9 h 6 v -6 h 6 v 3 h 6 v -15 h 6 v 2 h 7 v 1 h 6 v -10 h 6 v -4 h 6 v 6 h 7 v 21 h 6 v -34 h 6 v 17 h 6 v -21 h 7 v 11 h 6 v -24 h 6 v 20 h 6 v 1 h 6 v -8 h 7 v -7 h 6 v 6 h 6 v -12 h 6 v 4 h 7 v 1 h 6 v -3 h 6 v -17 h 6 v 22 h 6 v -12 h 13 v 7 h 6 v 12 h 6 v -20 h 7 v 21 h 6 v -9 h 6 v 1 h 6 v -10 h 7 v 15 h 6 v -17 h 6 v -8 h 6 v 38 h 6 v -25 h 7 v 27 h 6 v -37 h 6 v 2 h 6 v -1 h 7 v 16 h 6 v -21 h 6 v 40 h 6 v -30 h 7 v 9 h 6 v -15 h 6 v 12 h 6 v 5 h 6 v 9 h 7 v -3 h 6 v 6 h 6 v -10 h 6 v -1 h 7 v -9 h 6 v 8 h 6 v -2 h 6 v 6 h 7 v -6 h 6 v -2 h 6 v -19 h 6 v -12 h 6 v -1 h 7 v 6 h 6 v -42 h 6 v 17 h 6 v -27 h 7 v -32 h 6 v -18 h 6 v 16 h 6 v -52 h 7 v -8 h 6 v -19 h 6 v -24 h 6 V 84 h 6 v 31 h 7 V 71 h 6 V 42 h 12 V 26 h 7 v -1 h 6 v 62 h 6 v -6 h 6 v 25 h 7 v 14 h 6 v 27 h 6 v 27 h 6 v 12 h 6 v 27 h 7 v 51 h 6 v 15 h 6 v 41 h 6 v 15 h 7 v 18 h 6 v 22 h 6 v 16 h 6 v 12 h 7 v 17 h 6 v 10 h 6 v 16 h 6 v -2 h 6 v 15 h 7 v 8 h 6 v 14 h 6 v -9 h 6 v 4 h 7 v 2 h 6 v 6 h 6 v 5 h 6 v 1 h 6 v 6 h 7 v -1 h 6 v 1 h 6 v 3 h 6 v -3 h 7 v 4 h 6 v 2 h 6 v 2 h 6 v 3 h 7 v -5 h 6 v 12 h 6 v -6 h 6 v 1 h 6 v 2 h 7 v 8 h 12 v -1 h 13 v 3 h 12 v -2 h 6 v 2 h 7 v -6 h 6 v 7 h 6 v 1 h 6 v 1 h 6 v -3 h 7 v 1 h 6 v 1 h 12 v 3 h 13 v -4 h 6 v 3 h 6 v -4 h 7 v 3 h 6 v -2 h 6 v 1 h 6 v 1 h 6 v -2 h 13 v -1 h 6 v 5 h 6 v -4 h 7 v 2 h 12 v 1 h 6 v -3 h 7 v 1 h 6 v 1 h 6 v 7 H 0 Z"
             style="fill:none;stroke:#000099;stroke-width:1;stroke-linejoin:miter"
             id="path8" /></g><g
           id="g14"><path
             d="m 467.25,336.88 c 0.78,-0.02 3.12,-0.09 4.67,-0.12 1.55,-0.03 3.12,-0.06 4.67,-0.08 1.55,-0.02 3.12,-0.04 4.68,-0.05 1.56,-0.01 3.11,-0.01 4.67,-0.01 1.56,0 3.12,0.01 4.67,0.02 1.55,0.01 3.12,0.04 4.67,0.06 1.55,0.02 3.12,0.06 4.68,0.1 1.56,0.04 3.11,0.08 4.67,0.12 1.56,0.04 3.12,0.11 4.67,0.17 1.55,0.06 3.12,0.12 4.67,0.19 1.55,0.07 3.12,0.15 4.68,0.23 1.56,0.08 3.12,0.17 4.67,0.26 1.55,0.09 3.12,0.19 4.67,0.29 1.55,0.1 3.13,0.21 4.67,0.32 1.54,0.11 3.13,0.22 4.68,0.34 1.55,0.12 3.12,0.24 4.67,0.37 1.55,0.13 3.13,0.25 4.67,0.38 1.54,0.13 3.13,0.26 4.67,0.39 1.54,0.13 3.13,0.26 4.68,0.39 1.55,0.13 3.12,0.26 4.67,0.39 1.55,0.13 3.12,0.24 4.67,0.36 1.55,0.12 3.12,0.22 4.67,0.32 1.55,0.1 3.12,0.18 4.68,0.25 1.56,0.07 3.11,0.13 4.67,0.17 1.56,0.04 3.12,0.06 4.67,0.04 1.55,-0.02 3.12,-0.04 4.68,-0.11 1.56,-0.07 3.12,-0.18 4.67,-0.33 1.55,-0.15 3.15,-0.34 4.67,-0.59 1.52,-0.25 3.2,-0.56 4.67,-0.91 1.47,-0.35 3.27,-0.84 4.67,-1.3 1.4,-0.46 3.37,-1.21 4.68,-1.78 1.31,-0.57 3.49,-1.66 4.67,-2.33 1.18,-0.67 3.64,-2.24 4.67,-2.98 1.03,-0.74 3.8,-2.95 4.67,-3.72 0.87,-0.77 3.95,-3.78 4.68,-4.55 0.73,-0.77 4.08,-4.74 4.67,-5.49 0.59,-0.75 4.2,-5.79 4.67,-6.5 0.47,-0.71 4.29,-6.93 4.67,-7.61 0.38,-0.68 4.37,-8.13 4.68,-8.76 0.31,-0.63 4.42,-9.38 4.67,-9.96 0.25,-0.58 4.46,-10.65 4.67,-11.18 0.21,-0.53 4.5,-11.9 4.68,-12.39 0.18,-0.49 4.51,-13.09 4.67,-13.56 0.16,-0.47 4.53,-14.18 4.67,-14.62 0.14,-0.44 4.55,-15.15 4.67,-15.57 0.12,-0.42 4.56,-15.94 4.67,-16.35 0.11,-0.41 4.57,-16.51 4.68,-16.9 0.11,-0.39 4.56,-16.82 4.67,-17.22 0.11,-0.4 4.56,-16.83 4.67,-17.23 0.11,-0.4 4.56,-16.52 4.67,-16.93 0.11,-0.41 4.55,-15.87 4.68,-16.29 0.13,-0.42 4.53,-14.86 4.67,-15.31 0.14,-0.45 4.5,-13.47 4.67,-13.96 0.17,-0.49 4.45,-11.73 4.67,-12.28 0.22,-0.55 4.36,-9.66 4.68,-10.29 0.32,-0.63 4.17,-7.29 4.67,-8.02 0.5,-0.73 3.8,-4.73 4.67,-5.51 0.87,-0.78 3.12,-2.8 4.67,-2.82 1.55,-0.02 3.12,-0.04 4.68,-0.02 1.56,0.02 3.82,2.05 4.67,2.82 0.85,0.77 4.19,4.94 4.67,5.66 0.48,0.72 4.38,7.78 4.67,8.39 0.29,0.61 4.48,10.45 4.68,10.97 0.2,0.52 4.52,12.89 4.67,13.34 0.15,0.45 4.55,15.04 4.67,15.46 0.12,0.42 4.58,16.87 4.67,17.25 0.09,0.38 4.59,18.38 4.68,18.73 0.09,0.35 4.59,19.52 4.67,19.86 0.08,0.34 4.6,20.29 4.67,20.63 0.07,0.34 4.6,20.73 4.67,21.05 0.07,0.32 4.6,20.84 4.68,21.16 0.08,0.32 4.59,20.63 4.67,20.96 0.08,0.33 4.59,20.15 4.67,20.5 0.08,0.35 4.59,19.44 4.67,19.79 0.08,0.35 4.58,18.54 4.68,18.92 0.1,0.38 4.56,17.49 4.67,17.88 0.11,0.39 4.55,16.33 4.67,16.75 0.12,0.42 4.54,15.11 4.67,15.56 0.13,0.45 4.52,13.86 4.68,14.34 0.16,0.48 4.48,12.61 4.67,13.12 0.19,0.51 4.45,11.4 4.67,11.95 0.22,0.55 4.41,10.23 4.67,10.82 0.26,0.59 4.36,9.15 4.68,9.77 0.32,0.62 4.3,8.15 4.67,8.81 0.37,0.66 4.24,7.24 4.67,7.94 0.43,0.7 4.18,6.43 4.68,7.15 0.5,0.72 4.1,5.73 4.67,6.48 0.57,0.75 4.04,5.12 4.67,5.88 0.63,0.76 3.97,4.61 4.67,5.38 0.7,0.77 3.91,4.18 4.67,4.96 0.76,0.78 3.86,3.83 4.68,4.61 0.82,0.78 3.81,3.55 4.67,4.32 0.86,0.77 3.77,3.33 4.67,4.1 0.9,0.77 3.75,3.15 4.68,3.91 0.93,0.76 3.72,3.03 4.67,3.78 0.95,0.75 3.7,2.93 4.67,3.68 0.97,0.75 3.69,2.86 4.67,3.61 0.98,0.75 3.69,2.81 4.67,3.56 0.98,0.75 3.68,2.77 4.68,3.52 1,0.75 4.17,3.14 4.67,3.51"
             style="fill:none;stroke:#ff0000;stroke-width:2"
             id="path12" /></g></svg><g
         id="g78"><g
           transform="translate(0,528)"
           id="g46"><path
             d="M 0,0 H 1246 M 0,-20 V 0 M 31,-10 V 0 M 62,-10 V 0 M 93,-10 V 0 m 32,-10 V 0 m 31,-20 V 0 m 31,-10 V 0 m 31,-10 V 0 m 31,-10 V 0 m 31,-10 V 0 m 32,-20 V 0 m 31,-10 V 0 m 31,-10 V 0 m 31,-10 V 0 m 31,-10 V 0 m 31,-20 V 0 m 31,-10 V 0 m 32,-10 V 0 m 31,-10 V 0 m 31,-10 V 0 m 31,-20 V 0 m 31,-10 V 0 m 31,-10 V 0 m 31,-10 V 0 m 32,-10 V 0 m 31,-20 V 0 m 31,-10 V 0 m 31,-10 V 0 m 31,-10 V 0 m 31,-10 V 0 m 31,-20 V 0 m 32,-10 V 0 m 31,-10 V 0 m 31,-10 V 0 m 31,-10 V 0 m 31,-20 V 0 m 31,-10 V 0 m 32,-10 V 0 m 31,-10 V 0 m 31,-10 V 0 m 31,-20 V 0"
             style="stroke:#000000;stroke-width:1"
             id="path18" /><g
             font-family="Arial"
             font-size="23px"
             xml:space="preserve"
             fill="#000000"
             text-anchor="middle"
             id="g38"><text
               dy="0.80000001em"
               transform="translate(0,5)"
               id="text20">0</text><text
               dy="0.80000001em"
               transform="translate(156,5)"
               id="text22">0.05</text><text
               dy="0.80000001em"
               transform="translate(312,5)"
               id="text24">0.10</text><text
               dy="0.80000001em"
               transform="translate(467,5)"
               id="text26">0.15</text><text
               dy="0.80000001em"
               transform="translate(623,5)"
               id="text28">0.20</text><text
               dy="0.80000001em"
               transform="translate(779,5)"
               id="text30">0.25</text><text
               dy="0.80000001em"
               transform="translate(934,5)"
               id="text32">0.30</text><text
               dy="0.80000001em"
               transform="translate(1090,5)"
               id="text34">0.35</text><text
               dy="0.80000001em"
               transform="translate(1246,5)"
               id="text36">0.40</text></g><rect
             x="0"
             y="0"
             width="1246"
             height="26"
             style="opacity:0"
             id="rect40" /><g
             font-family="Arial"
             font-size="23px"
             xml:space="preserve"
             transform="translate(1246,37)"
             id="g44"><text
               fill="#000000"
               text-anchor="end"
               dominant-baseline="middle"
               id="text42">E/p</text></g></g><g
           id="g76"><path
             d="m 0,0 v 528 m 47,0 H 0 M 24,518 H 0 M 24,508 H 0 M 24,497 H 0 M 24,487 H 0 M 47,477 H 0 M 24,467 H 0 M 24,457 H 0 M 24,446 H 0 M 24,436 H 0 M 47,426 H 0 M 24,416 H 0 M 24,406 H 0 M 24,396 H 0 M 24,385 H 0 M 47,375 H 0 M 24,365 H 0 M 24,355 H 0 M 24,345 H 0 M 24,334 H 0 M 47,324 H 0 M 24,314 H 0 M 24,304 H 0 M 24,294 H 0 M 24,283 H 0 M 47,273 H 0 M 24,263 H 0 M 24,253 H 0 M 24,243 H 0 M 24,233 H 0 M 47,222 H 0 M 24,212 H 0 M 24,202 H 0 M 24,192 H 0 M 24,182 H 0 M 47,171 H 0 M 24,161 H 0 M 24,151 H 0 M 24,141 H 0 M 24,131 H 0 M 47,120 H 0 M 24,110 H 0 M 24,100 H 0 M 24,90 H 0 M 24,80 H 0 M 47,69 H 0 M 24,59 H 0 M 24,49 H 0 M 24,39 H 0 M 24,29 H 0 M 47,19 H 0 M 24,8 H 0"
             style="stroke:#000000;stroke-width:1"
             id="path48" /><g
             font-family="Arial"
             font-size="23px"
             xml:space="preserve"
             fill="#000000"
             text-anchor="end"
             id="g72"><text
               dominant-baseline="middle"
               transform="translate(-3,528)"
               id="text50">0</text><text
               dominant-baseline="middle"
               transform="translate(-3,477)"
               id="text52">100</text><text
               dominant-baseline="middle"
               transform="translate(-3,426)"
               id="text54">200</text><text
               dominant-baseline="middle"
               transform="translate(-3,375)"
               id="text56">300</text><text
               dominant-baseline="middle"
               transform="translate(-3,324)"
               id="text58">400</text><text
               dominant-baseline="middle"
               transform="translate(-3,273)"
               id="text60">500</text><text
               dominant-baseline="middle"
               transform="translate(-3,222)"
               id="text62">600</text><text
               dominant-baseline="middle"
               transform="translate(-3,171)"
               id="text64">700</text><text
               dominant-baseline="middle"
               transform="translate(-3,120)"
               id="text66">800</text><text
               dominant-baseline="middle"
               transform="translate(-3,69)"
               id="text68">900</text><text
               dominant-baseline="middle"
               transform="translate(-3,19)"
               id="text70">1000</text></g><rect
             x="-55"
             y="0"
             width="55"
             height="528"
             style="opacity:0"
             id="rect74" /></g></g><path
         d="M 2,2 H 17 V -3 H -3 v 20 h 5 z"
         style="opacity:0"
         id="path80" /><path
         d="m 1244,2 h -15 v -5 h 20 v 20 h -5 z"
         style="opacity:0"
         id="path82" /><path
         d="m 2,526 h 15 v 5 H -3 v -20 h 5 z"
         style="opacity:0"
         id="path84" /><path
         d="m 1244,526 h -15 v 5 h 20 v -20 h -5 z"
         style="opacity:0"
         id="path86" /><path
         d="M -3,18 H 2 V 510 H -3 Z"
         style="opacity:0"
         id="path88" /><path
         d="m 1249,18 h -5 v 492 h 5 z"
         style="opacity:0"
         id="path90" /><path
         d="M 18,-3 V 2 H 1228 V -3 Z"
         style="opacity:0"
         id="path92" /><path
         d="m 18,531 v -5 h 1210 v 5 z"
         style="opacity:0"
         id="path94" /><style
         id="style96">
.jsroot rect.h1bin { stroke: #4572A7; fill: #4572A7; opacity: 0; }
.jsroot rect.zoom { stroke: steelblue; fill-opacity: 0.1; }
.jsroot path.zoom { stroke: steelblue; fill-opacity: 0.1; }
.jsroot svg:not(:root) { overflow: hidden; }</style></g><g
       transform="translate(1427.5,33.075684)"
       font-family="Arial"
       font-size="37px"
       xml:space="preserve"
       id="g120"><path
         d="M 0,0 H 1246 V 44 H 0 Z"
         style="fill:none"
         id="path100" /><text
         fill="#000000"
         text-anchor="middle"
         dominant-baseline="middle"
         transform="translate(623,22)"
         id="text102">ECAL Sampling Fraction sector 2 ( 3.00 &lt; p &lt;  3.40)</text><path
         d="M 2,2 H 17 V -3 H -3 v 20 h 5 z"
         style="opacity:0"
         id="path104" /><path
         d="m 1244,2 h -15 v -5 h 20 v 20 h -5 z"
         style="opacity:0"
         id="path106" /><path
         d="m 2,42 h 15 v 5 H -3 V 27 h 5 z"
         style="opacity:0"
         id="path108" /><path
         d="m 1244,42 h -15 v 5 h 20 V 27 h -5 z"
         style="opacity:0"
         id="path110" /><path
         d="m -3,18 h 5 v 8 h -5 z"
         style="opacity:0"
         id="path112" /><path
         d="m 1249,18 h -5 v 8 h 5 z"
         style="opacity:0"
         id="path114" /><path
         d="M 18,-3 V 2 H 1228 V -3 Z"
         style="opacity:0"
         id="path116" /><path
         d="m 18,47 v -5 h 1210 v 5 z"
         style="opacity:0"
         id="path118" /></g><g
       transform="translate(2339,106.57568)"
       font-family="Arial"
       font-size="22px"
       xml:space="preserve"
       fill="#000000"
       id="g156"><path
         d="M 0,0 H 311 V 106 H 0 Z"
         style="fill:#ffffff;stroke:#000000;stroke-width:1"
         id="path122" /><text
         text-anchor="middle"
         dominant-baseline="middle"
         transform="translate(156,13)"
         id="text124">ECAL: ECAL Sampling...</text><text
         text-anchor="start"
         dominant-baseline="middle"
         transform="translate(16,40)"
         id="text126">Entries </text><text
         text-anchor="end"
         dominant-baseline="middle"
         transform="translate(295,40)"
         id="text128"> 62162</text><text
         text-anchor="start"
         dominant-baseline="middle"
         transform="translate(16,66)"
         id="text130">Mean </text><text
         text-anchor="end"
         dominant-baseline="middle"
         transform="translate(295,66)"
         id="text132"> 0.1623</text><text
         text-anchor="start"
         dominant-baseline="middle"
         transform="translate(16,93)"
         id="text134">Std Dev </text><text
         text-anchor="end"
         dominant-baseline="middle"
         transform="translate(295,93)"
         id="text136"> 0.08373</text><path
         d="M 0,27 H 311"
         style="stroke:#000000;stroke-width:1"
         id="path138" /><path
         d="M 2,2 H 17 V -3 H -3 v 20 h 5 z"
         style="opacity:0"
         id="path140" /><path
         d="m 309,2 h -15 v -5 h 20 v 20 h -5 z"
         style="opacity:0"
         id="path142" /><path
         d="m 2,104 h 15 v 5 H -3 V 89 h 5 z"
         style="opacity:0"
         id="path144" /><path
         d="m 309,104 h -15 v 5 h 20 V 89 h -5 z"
         style="opacity:0"
         id="path146" /><path
         d="M -3,18 H 2 V 88 H -3 Z"
         style="opacity:0"
         id="path148" /><path
         d="m 314,18 h -5 v 70 h 5 z"
         style="opacity:0"
         id="path150" /><path
         d="M 18,-3 V 2 H 293 V -3 Z"
         style="opacity:0"
         id="path152" /><path
         d="m 18,109 v -5 h 275 v 5 z"
         style="opacity:0"
         id="path154" /></g></g></svg>
