<?xml version="1.0" encoding="UTF-8" standalone="no"?>
<svg
   width="1338.0881"
   height="648.76086"
   version="1.1"
   id="svg184"
   sodipodi:docname="11vz_seasons.svg"
   inkscape:version="1.2.2 (1:1.2.2+202212051552+b0a8486541)"
   inkscape:export-filename="11vz_seasons.pdf"
   inkscape:export-xdpi="96"
   inkscape:export-ydpi="96"
   xmlns:inkscape="http://www.inkscape.org/namespaces/inkscape"
   xmlns:sodipodi="http://sodipodi.sourceforge.net/DTD/sodipodi-0.dtd"
   xmlns="http://www.w3.org/2000/svg"
   xmlns:svg="http://www.w3.org/2000/svg">
  <defs
     id="defs188" />
  <sodipodi:namedview
     id="namedview186"
     pagecolor="#ffffff"
     bordercolor="#666666"
     borderopacity="1.0"
     inkscape:showpageshadow="2"
     inkscape:pageopacity="0.0"
     inkscape:pagecheckerboard="0"
     inkscape:deskcolor="#d1d1d1"
     showgrid="false"
     inkscape:zoom="0.71515151"
     inkscape:cx="501.99153"
     inkscape:cy="286.65254"
     inkscape:window-width="1920"
     inkscape:window-height="1051"
     inkscape:window-x="0"
     inkscape:window-y="0"
     inkscape:window-maximized="1"
     inkscape:current-layer="svg184" />
  <path
     style="fill:#ffffff;stroke-width:0.919112"
     d="M 0,0 H 1338.0881 V 648.76086 H 0 Z"
     id="path2" />
  <g
     id="g182"
     transform="translate(-100.73541,-11.239142)">
    <g
       transform="translate(156,66)"
       id="g118">
      <title
         id="title4" />
      <path
         d="M 0,0 H 1246 V 528 H 0 Z"
         style="fill:#ffffff;stroke:#000000;stroke-width:1"
         id="path6" />
      <g
         id="g12">
        <path
           d="M 0,0 V 528 M 156,0 V 528 M 312,0 V 528 M 467,0 V 528 M 623,0 V 528 M 779,0 V 528 M 935,0 V 528 M 1090,0 V 528 M 1246,0 v 528"
           style="stroke:#000000;stroke-width:1;stroke-dasharray:1, 2"
           id="path8" />
        <path
           d="M 0,528 H 1246 M 0,476 H 1246 M 0,424 H 1246 M 0,373 H 1246 M 0,321 H 1246 M 0,269 H 1246 M 0,217 H 1246 M 0,166 H 1246 M 0,114 H 1246 M 0,62 H 1246 M 0,10 h 1246"
           style="stroke:#000000;stroke-width:1;stroke-dasharray:1, 2"
           id="path10" />
      </g>
      <svg
         x="0"
         y="0"
         overflow="hidden"
         width="1246"
         height="528"
         viewBox="0 0 1246 528"
         version="1.1"
         id="svg30">
        <g
           id="g16">
          <path
             d="m 0,525 h 3 v -1 h 3 v -1 h 3 v -1 h 3 v -3 h 4 v -4 h 3 v -5 h 3 v -6 h 3 v -7 h 3 v -8 h 3 v -8 h 3 v -7 h 3 v -4 h 7 v -1 h 3 v 2 h 3 v 5 h 3 v 3 h 3 v 3 h 3 v 3 h 3 v 2 h 3 v 2 h 4 v -1 h 6 v -3 h 3 v -4 h 3 v -5 h 3 v -10 h 3 v -11 h 3 v -19 h 3 v -23 h 4 v -31 h 3 v -37 h 3 v -43 h 3 v -51 h 3 v -41 h 3 v -27 h 3 v -7 h 3 v 6 h 3 v 26 h 4 v 37 h 3 v 40 h 3 v 36 h 3 v 31 h 3 v 25 h 3 v 20 h 3 v 17 h 3 v 10 h 4 v 9 h 3 v 5 h 3 v 3 h 3 v 4 h 3 v 1 h 3 v 1 h 3 v -1 h 3 v 1 h 3 v -1 h 4 v -1 h 3 v -1 h 3 v -2 h 3 v -1 h 3 v -1 h 3 v -2 h 3 v -1 h 3 v -1 h 3 v -1 h 4 v 1 h 3 v -4 h 3 v 1 h 9 v -2 h 3 v -1 h 3 v -1 h 4 v 1 h 3 v -1 h 6 v -1 h 9 v -1 h 3 v -1 h 3 v 1 h 4 v -3 h 3 v 2 h 3 v -2 h 3 v 1 h 6 v -2 h 3 v -1 h 6 v -1 h 4 v 1 h 3 v 1 h 3 v -2 h 9 v -2 h 6 v -2 h 4 v 3 h 3 v -2 h 3 v -1 h 9 v -2 h 3 v 2 h 6 v -1 h 7 v -1 h 3 v -1 h 3 v 2 h 3 v -3 h 3 v 2 h 3 v -2 h 6 v -1 h 10 v -2 h 3 v 2 h 3 v -1 h 3 v 1 h 3 v -1 h 3 v -1 h 3 v 1 h 4 v -3 h 3 v 1 h 3 v 2 h 6 v -2 h 3 v -1 h 3 v 2 h 3 v 1 h 4 v -4 h 3 v 1 h 12 v -1 h 3 v 1 h 6 v -1 h 7 v 1 h 3 v -1 h 6 v -2 h 3 v 2 h 3 v -1 h 6 v 1 h 4 v -2 h 3 v 3 h 6 v -1 h 3 v 2 h 3 v -3 h 3 v 1 h 7 v -1 h 3 v 2 h 3 v -1 h 3 v 1 h 3 v -2 h 3 v -2 h 3 v 3 h 3 v -1 h 3 v 1 h 7 v -1 h 6 v 3 h 3 v -1 h 3 v 1 h 3 v -2 h 3 v 1 h 3 v 1 h 4 v -1 h 3 v 1 h 3 v -2 h 3 v 2 h 6 v -2 h 3 v 2 h 7 v -1 h 3 v 1 h 3 v 1 h 3 v -1 h 3 v 1 h 6 v -2 h 3 v 2 h 7 v -1 h 3 v 1 h 3 v -1 h 3 v 1 h 3 v 1 h 3 v 1 h 3 v -1 h 10 v 2 h 6 v -2 h 3 v 2 h 3 v -2 h 16 v 1 h 6 v 1 h 3 v -1 h 3 v 3 h 6 v 2 h 3 v -4 h 4 v 2 h 6 v -1 h 6 v 1 h 6 v -1 h 3 v 2 h 10 v -1 h 3 v 1 h 6 v 1 h 6 v -1 h 3 v 1 h 3 v 2 h 4 v -1 h 3 v -1 h 3 v 1 h 3 v 1 h 6 v 1 h 3 v -1 h 3 v -1 h 7 v 2 h 3 v -1 h 6 v 3 h 3 v -1 h 9 v -1 h 7 v 3 h 3 v -1 h 3 v -1 h 3 v 1 h 12 v 3 h 4 v -2 h 3 v 1 h 3 v -2 h 3 v 2 h 9 v 2 h 3 v 1 h 4 v -3 h 3 v 1 h 3 v 3 h 3 v -1 h 3 v -1 h 3 v -1 h 3 v 1 h 3 v 1 h 3 v 1 h 7 v -1 h 3 v 2 h 3 v 3 h 3 v -2 h 12 v 2 h 4 v 1 h 6 v -1 h 3 v 2 h 6 v 2 h 10 v 1 h 9 v -2 h 3 v -3 h 3 v -4 h 3 v -7 h 3 v -15 h 3 v -24 h 4 v -39 h 3 v -60 h 3 v -78 h 3 v -93 h 3 V 31 h 3 V 10 h 3 v 46 h 3 v 91 h 3 v 97 h 4 v 76 h 3 v 59 h 3 v 35 h 3 v 26 h 3 v 16 h 3 v 11 h 3 v 8 h 3 v 5 h 3 v 3 h 4 v 3 h 3 v 2 h 3 v 3 h 3 v 2 h 3 v 2 h 3 v 2 h 3 v 1 h 3 v 2 h 7 v 2 h 3 v 1 h 3 v 1 h 3 v 1 h 3 v 1 h 3 v 1 h 3 v 1 h 3 v 1 h 4 v 2 h 6 v 2 h 9 v 1 h 3 v 1 h 3 v 2 h 7 v 1 h 6 v 1 h 3 v 1 h 6 v 1 h 6 v 1 h 7 v 1 h 6 v 1 h 9 v 1 h 13 v 1 h 15 v 1 h 28 v 1 h 3 v -1 h 4 v 1 h 40 v 3 H 0 Z"
             style="fill:none;stroke:#ff0000;stroke-width:1;stroke-linejoin:miter"
             id="path14" />
        </g>
        <g
           id="g20">
          <path
             d="m 0,526 h 3 v -1 h 6 v -1 h 7 v -1 h 6 v -1 h 3 v -1 h 3 v -1 h 3 v -3 h 3 v -3 h 3 v -3 h 3 v -2 h 7 v -1 h 9 v -1 h 9 v 1 h 10 v -1 h 6 v -1 h 3 v -2 h 6 v -3 h 7 v -3 h 3 v -4 h 3 v -4 h 3 v -8 h 3 v -15 h 3 v -14 h 3 v -12 h 3 v -4 h 3 v 4 h 7 v 2 h 3 v 3 h 3 v 5 h 3 v 8 h 3 v 11 h 3 v 7 h 3 v 5 h 4 v 5 h 3 v 2 h 3 v 1 h 3 v 2 h 6 v 1 h 3 v 2 h 3 v -1 h 3 v 1 h 7 v -1 h 3 v 1 h 3 v -1 h 3 v 1 h 6 v 1 h 3 v -1 h 7 v -2 h 9 v 1 h 6 v 1 h 3 v -1 h 3 v -1 h 4 v -1 h 6 v 2 h 3 v -1 h 3 v -1 h 9 v -1 h 3 v 1 h 4 v -1 h 6 v 1 h 3 v -1 h 6 v -1 h 3 v 1 h 3 v -1 h 3 v 1 h 4 v -1 h 6 v -1 h 3 v -1 h 3 v 1 h 3 v -1 h 10 v -1 h 3 v -1 h 9 v 1 h 3 v -1 h 6 v -1 h 3 v 1 h 4 v -2 h 6 v 1 h 6 v -1 h 3 v -2 h 3 v 1 h 3 v 1 h 3 v -2 h 4 v 1 h 3 v -1 h 6 v -1 h 6 v -1 h 6 v 1 h 3 v -1 h 4 v 1 h 3 v -1 h 6 v -2 h 3 v 1 h 3 v -1 h 6 v -1 h 4 v 1 h 3 v -1 h 3 v -1 h 3 v 1 h 3 v -1 h 9 v 1 h 3 v -1 h 4 v -1 h 6 v 1 h 3 v -2 h 12 v -1 h 7 v -1 h 15 v -1 h 10 v 1 h 3 v -1 h 3 v -1 h 6 v 1 h 3 v -1 h 9 v -1 h 7 v -2 h 3 v 2 h 3 v -1 h 3 v 1 h 28 v 1 h 3 v -1 h 13 v -1 h 9 v 1 h 3 v 1 h 3 v -1 h 10 v 1 h 6 v 1 h 3 v -1 h 6 v 2 h 16 v 2 h 9 v 1 h 3 v -1 h 3 v 1 h 6 v 2 h 4 v -1 h 6 v 1 h 3 v 1 h 3 v 1 h 6 v 1 h 7 v 2 h 6 v 1 h 3 v 1 h 12 v 1 h 3 v 2 h 7 v 1 h 6 v 2 h 3 v -1 h 3 v 2 h 3 v 1 h 6 v 1 h 7 v 2 h 3 v 1 h 3 v 1 h 3 v 1 h 9 v 3 h 4 v 1 h 6 v 1 h 3 v 1 h 3 v 1 h 6 v 2 h 6 v 1 h 4 v 1 h 3 v 1 h 3 v 1 h 3 v 1 h 6 v 2 h 6 v 1 h 3 v 1 h 4 v 1 h 6 v 1 h 6 v 1 h 3 v 1 h 6 v 1 h 7 v 1 h 6 v 1 h 6 v 1 h 9 v 1 h 10 v 1 h 15 v 1 h 19 v 1 h 324 v 3 H 0 Z"
             style="fill:none;stroke:#0000ff;stroke-width:1;stroke-linejoin:miter"
             id="path18" />
        </g>
        <g
           id="g24">
          <path
             d="m 0,528 h 12 v -1 h 19 v -1 h 6 v -1 h 3 v -1 h 4 v -1 h 3 v -2 h 3 v -1 h 3 v -5 h 3 v -5 h 3 v -6 h 3 v -11 h 3 v -11 h 4 v -17 h 3 v -19 h 3 v -22 h 3 v -17 h 3 v -17 h 3 v -14 h 3 v -2 h 3 v -4 h 3 v 6 h 4 v -3 h 3 v -7 h 3 v -10 h 3 v -20 h 3 v -22 h 3 v -28 h 3 v -30 h 3 v -20 h 3 v -4 h 4 v 11 h 3 v 14 h 3 v 25 h 3 v 33 h 3 v 30 h 3 v 27 h 3 v 14 h 3 v 21 h 4 v 10 h 3 v 10 h 3 v 7 h 3 v 3 h 3 v 6 h 6 v 1 h 10 v -1 h 3 v -1 h 3 v 1 h 3 v -2 h 3 v -1 h 3 v -3 h 3 v -2 h 3 v 1 h 3 v -2 h 4 v -3 h 3 v 1 h 3 v 2 h 3 v -2 h 3 v -1 h 3 v -1 h 3 v -1 h 3 v 3 h 4 v -3 h 3 v -2 h 3 v 1 h 3 v -3 h 3 v 3 h 3 v 1 h 3 v -5 h 3 v 2 h 7 v -1 h 6 v -2 h 3 v -1 h 3 v 3 h 3 v -1 h 3 v 1 h 6 v -5 h 4 v 2 h 3 v -1 h 3 v 1 h 3 v -4 h 3 v 3 h 6 v -1 h 7 v -4 h 3 v 1 h 3 v -2 h 3 v -1 h 3 v -1 h 3 v 1 h 3 v 1 h 3 v 2 h 3 v -5 h 4 v 2 h 3 v 1 h 3 v -6 h 3 v 4 h 3 v 1 h 3 v -5 h 3 v 4 h 3 v -2 h 7 v -3 h 3 v 4 h 3 v -5 h 3 v 2 h 3 v -2 h 3 v -2 h 3 v 3 h 3 v -3 h 3 v 1 h 7 v 1 h 3 v -2 h 3 v 1 h 3 v -2 h 3 v 4 h 3 v -3 h 3 v -2 h 4 v 2 h 3 v 1 h 3 v -1 h 3 v -1 h 3 v 2 h 3 v -1 h 3 v -1 h 3 v -1 h 3 v -1 h 4 v -2 h 6 v 5 h 3 v -2 h 9 v -2 h 3 v -2 h 3 v 4 h 7 v -3 h 3 v 2 h 3 v 2 h 3 v -4 h 3 v 1 h 3 v -2 h 10 v 2 h 3 v 1 h 6 v -3 h 3 v -2 h 3 v 4 h 6 v -5 h 4 v 5 h 3 v 1 h 6 v -4 h 3 v 6 h 9 v -5 h 3 v 4 h 7 v -4 h 3 v 3 h 3 v 1 h 3 v -2 h 3 v 2 h 3 v -2 h 3 v 1 h 4 v -1 h 3 v 1 h 3 v -1 h 3 v 2 h 3 v 3 h 3 v -3 h 3 v -1 h 6 v 2 h 4 v 1 h 3 v -1 h 3 v -1 h 3 v 3 h 3 v -3 h 3 v 1 h 3 v -3 h 3 v 4 h 3 v 4 h 4 v -5 h 3 v 2 h 3 v 1 h 3 v -2 h 9 v 2 h 3 v -2 h 3 v 1 h 4 v 2 h 3 v -1 h 6 v 1 h 3 v -2 h 6 v 2 h 13 v 1 h 3 v -2 h 3 v 1 h 3 v 1 h 3 v -2 h 3 v 2 h 3 v 1 h 4 v -1 h 3 v -3 h 3 v 5 h 3 v -2 h 3 v -1 h 6 v -1 h 3 v 3 h 7 v -2 h 6 v 2 h 3 v -2 h 3 v 2 h 3 v -2 h 3 v 4 h 3 v -3 h 4 v 3 h 3 v -2 h 3 v 3 h 3 v -1 h 9 v -1 h 3 v 1 h 3 v -1 h 7 v 1 h 6 v 1 h 3 v 5 h 3 v -6 h 6 v 3 h 3 v 3 h 4 v -4 h 3 v 1 h 3 v 1 h 6 v 1 h 9 v 2 h 4 v -3 h 6 v 4 h 3 v -3 h 3 v -1 h 3 v 1 h 3 v 2 h 3 v -2 h 7 v 1 h 9 v 1 h 3 v 2 h 3 v -1 h 3 v -1 h 3 v 2 h 7 v 3 h 3 v -1 h 3 v 2 h 9 v -1 h 3 v 4 h 3 v -4 h 4 v 5 h 6 v -1 h 3 v 2 h 3 v -2 h 3 v 2 h 3 v -1 h 6 v -8 h 4 v -7 h 3 v -11 h 3 v -28 h 3 v -46 h 3 v -70 h 3 v -94 h 3 V 77 h 3 V 10 h 3 v 10 h 4 v 69 h 3 v 95 h 3 v 88 h 3 v 67 h 3 v 44 h 3 v 24 h 3 v 18 h 3 v 14 h 3 v 4 h 4 v 9 h 3 v 3 h 3 v 5 h 3 v -1 h 3 v 4 h 3 v 3 h 3 v 2 h 7 v 1 h 3 v 4 h 3 v -2 h 3 v 3 h 3 v 2 h 3 v 2 h 3 v 2 h 6 v 2 h 4 v -1 h 3 v 5 h 3 v 1 h 3 v 2 h 3 v -2 h 3 v 3 h 3 v 1 h 3 v 1 h 3 v 2 h 10 v 1 h 6 v 2 h 3 v 1 h 3 v 1 h 7 v 2 h 6 v 2 h 3 v 1 h 3 v -1 h 3 v 1 h 3 v -1 h 6 v 3 h 4 v -1 h 3 v 1 h 3 v 1 h 9 v 1 h 3 v -1 h 6 v 3 h 10 v 2 h 3 v -1 h 3 v 2 h 6 v 1 h 3 v 1 h 10 v 2 h 6 v 2 h 6 v 1 h 6 v 1 h 4 v 1 h 3 v -1 h 3 v 1 h 6 v 9 H 0 Z"
             style="fill:none;stroke:#990000;stroke-width:1;stroke-linejoin:miter"
             id="path22" />
        </g>
        <g
           id="g28">
          <path
             d="m 0,527 h 16 v -1 h 15 v -1 h 3 v -1 h 6 v -1 h 4 v -1 h 6 v -1 h 3 v -1 h 3 v -1 h 3 v -2 h 3 v -1 h 3 v -3 h 4 v -4 h 3 v -5 h 3 v -7 h 3 v -12 h 3 v -12 h 3 v -14 h 3 v -4 h 3 v -4 h 3 v 6 h 4 v 5 h 3 v 5 h 3 v 3 h 3 v -2 h 3 v -3 h 3 v -12 h 3 v -12 h 3 v -19 h 3 v -23 h 4 v -21 h 3 v -3 h 3 v 12 h 3 v 22 h 3 v 21 h 3 v 18 h 3 v 9 h 3 v 12 h 4 v 6 h 3 v 1 h 3 v 3 h 3 v -1 h 3 v 3 h 3 v 1 h 3 v 2 h 3 v -1 h 3 v -1 h 4 v 2 h 3 v -1 h 6 v -1 h 6 v 1 h 3 v -1 h 6 v -3 h 10 v -1 h 6 v 1 h 3 v -1 h 3 v 1 h 3 v -1 h 7 v 1 h 3 v -2 h 3 v 2 h 3 v -2 h 3 v -2 h 6 v -1 h 3 v 2 h 4 v -2 h 3 v 1 h 3 v 1 h 3 v -4 h 6 v 1 h 3 v -1 h 6 v 1 h 7 v -3 h 3 v 1 h 3 v -1 h 3 v 1 h 6 v 1 h 3 v -3 h 4 v 1 h 3 v -3 h 3 v 2 h 3 v -3 h 3 v 1 h 6 v -2 h 3 v 1 h 3 v -2 h 4 v 1 h 6 v -1 h 6 v 1 h 3 v -2 h 6 v -2 h 13 v -1 h 3 v -1 h 3 v 2 h 3 v -1 h 3 v 1 h 3 v -2 h 7 v -1 h 6 v -2 h 3 v -1 h 3 v 3 h 3 v -1 h 3 v 1 h 3 v -1 h 4 v -3 h 3 v 1 h 3 v 1 h 9 v -1 h 6 v -2 h 3 v -2 h 4 v 2 h 3 v 1 h 3 v 1 h 6 v -3 h 3 v 2 h 3 v -3 h 3 v -1 h 10 v 1 h 6 v -3 h 3 v 2 h 6 v -2 h 3 v 1 h 7 v 1 h 3 v -2 h 3 v 4 h 3 v -3 h 6 v -5 h 3 v 6 h 3 v -1 h 4 v 1 h 3 v -3 h 3 v 1 h 6 v 1 h 3 v -1 h 3 v 1 h 3 v -1 h 3 v 4 h 4 v -6 h 3 v 2 h 3 v 2 h 3 v -2 h 3 v 4 h 3 v -3 h 3 v 1 h 3 v 1 h 4 v -2 h 3 v 2 h 3 v 1 h 3 v -1 h 3 v 1 h 3 v -2 h 3 v 3 h 3 v -2 h 3 v 3 h 4 v -1 h 3 v -1 h 3 v 2 h 6 v 1 h 6 v -1 h 3 v 1 h 3 v 1 h 4 v 2 h 3 v -2 h 3 v 2 h 3 v 1 h 3 v -1 h 3 v 3 h 3 v -1 h 3 v -2 h 3 v 4 h 7 v 2 h 3 v -3 h 3 v 2 h 3 v 2 h 3 v 1 h 6 v 2 h 4 v -1 h 3 v 2 h 3 v 1 h 3 v 2 h 3 v -2 h 3 v 1 h 3 v 2 h 3 v -1 h 3 v 1 h 4 v 1 h 3 v 1 h 3 v 2 h 9 v 2 h 3 v 2 h 13 v 1 h 3 v 2 h 6 v 3 h 3 v -1 h 3 v 1 h 7 v 2 h 3 v 3 h 3 v -1 h 3 v 1 h 3 v 3 h 6 v 2 h 6 v 1 h 4 v 1 h 3 v 3 h 3 v -1 h 6 v 3 h 3 v 1 h 6 v 2 h 7 v 2 h 3 v 1 h 3 v 1 h 6 v 1 h 3 v 1 h 3 v 1 h 3 v 1 h 4 v 2 h 9 v 1 h 3 v 1 h 3 v 1 h 6 v 1 h 3 v 1 h 7 v 1 h 3 v 1 h 12 v 1 h 10 v 1 h 9 v 1 h 19 v 1 h 3 v -1 h 3 v 1 h 302 v 3 H 0 Z"
             style="fill:none;stroke:#000099;stroke-width:1;stroke-linejoin:miter"
             id="path26" />
        </g>
      </svg>
      <g
         id="g98">
        <g
           transform="translate(0,528)"
           id="g66">
          <path
             d="M 0,0 H 1246 M 0,-20 V 0 M 31,-10 V 0 M 62,-10 V 0 M 93,-10 V 0 m 32,-10 V 0 m 31,-20 V 0 m 31,-10 V 0 m 31,-10 V 0 m 31,-10 V 0 m 31,-10 V 0 m 32,-20 V 0 m 31,-10 V 0 m 31,-10 V 0 m 31,-10 V 0 m 31,-10 V 0 m 31,-20 V 0 m 31,-10 V 0 m 32,-10 V 0 m 31,-10 V 0 m 31,-10 V 0 m 31,-20 V 0 m 31,-10 V 0 m 31,-10 V 0 m 31,-10 V 0 m 32,-10 V 0 m 31,-20 V 0 m 31,-10 V 0 m 31,-10 V 0 m 31,-10 V 0 m 31,-10 V 0 m 32,-20 V 0 m 31,-10 V 0 m 31,-10 V 0 m 31,-10 V 0 m 31,-10 V 0 m 31,-20 V 0 m 31,-10 V 0 m 32,-10 V 0 m 31,-10 V 0 m 31,-10 V 0 m 31,-20 V 0"
             style="stroke:#000000;stroke-width:1"
             id="path32" />
          <g
             font-family="Arial"
             font-size="23px"
             xml:space="preserve"
             fill="#000000"
             text-anchor="middle"
             id="g52"><text
               dy="0.80000001em"
               transform="translate(0,5)"
               id="text34">-40</text><text
               dy="0.80000001em"
               transform="translate(156,5)"
               id="text36">-30</text><text
               dy="0.80000001em"
               transform="translate(312,5)"
               id="text38">-20</text><text
               dy="0.80000001em"
               transform="translate(467,5)"
               id="text40">-10</text><text
               dy="0.80000001em"
               transform="translate(623,5)"
               id="text42">0</text><text
               dy="0.80000001em"
               transform="translate(779,5)"
               id="text44">10</text><text
               dy="0.80000001em"
               transform="translate(935,5)"
               id="text46">20</text><text
               dy="0.80000001em"
               transform="translate(1090,5)"
               id="text48">30</text><text
               dy="0.80000001em"
               transform="translate(1246,5)"
               id="text50">40</text></g>
          <rect
             x="0"
             y="0"
             width="1246"
             height="26"
             style="opacity:0"
             id="rect54" />
          <g
             font-family="Arial"
             font-size="23px"
             xml:space="preserve"
             transform="translate(1246,37)"
             id="g64"><g
               transform="translate(-66,7)"
               id="g62"><text
                 fill="#000000"
                 font-size="23px"
                 id="text56">v</text><text
                 fill="#000000"
                 font-size="14px"
                 transform="translate(12,4)"
                 id="text58">z</text><text
                 fill="#000000"
                 font-size="23px"
                 x="19"
                 id="text60"> (cm)</text></g></g>
        </g>
        <g
           id="g96">
          <path
             d="m 0,0 v 528 m 47,0 H 0 M 24,518 H 0 M 24,507 H 0 M 24,497 H 0 M 24,487 H 0 M 47,476 H 0 M 24,466 H 0 M 24,456 H 0 M 24,445 H 0 M 24,435 H 0 M 47,424 H 0 M 24,414 H 0 M 24,404 H 0 M 24,393 H 0 M 24,383 H 0 M 47,373 H 0 M 24,362 H 0 M 24,352 H 0 M 24,342 H 0 M 24,331 H 0 M 47,321 H 0 M 24,311 H 0 M 24,300 H 0 M 24,290 H 0 M 24,280 H 0 M 47,269 H 0 M 24,259 H 0 M 24,248 H 0 M 24,238 H 0 M 24,228 H 0 M 47,217 H 0 M 24,207 H 0 M 24,197 H 0 M 24,186 H 0 M 24,176 H 0 M 47,166 H 0 M 24,155 H 0 M 24,145 H 0 M 24,135 H 0 M 24,124 H 0 M 47,114 H 0 M 24,104 H 0 M 24,93 H 0 M 24,83 H 0 M 24,72 H 0 M 47,62 H 0 M 24,52 H 0 M 24,41 H 0 M 24,31 H 0 M 24,21 H 0 M 47,10 H 0 M 24,0 H 0"
             style="stroke:#000000;stroke-width:1"
             id="path68" />
          <g
             font-family="Arial"
             font-size="23px"
             xml:space="preserve"
             fill="#000000"
             text-anchor="end"
             id="g92"><text
               dominant-baseline="middle"
               transform="translate(-3,528)"
               id="text70">0</text><text
               dominant-baseline="middle"
               transform="translate(-3,476)"
               id="text72">0.1</text><text
               dominant-baseline="middle"
               transform="translate(-3,424)"
               id="text74">0.2</text><text
               dominant-baseline="middle"
               transform="translate(-3,373)"
               id="text76">0.3</text><text
               dominant-baseline="middle"
               transform="translate(-3,321)"
               id="text78">0.4</text><text
               dominant-baseline="middle"
               transform="translate(-3,269)"
               id="text80">0.5</text><text
               dominant-baseline="middle"
               transform="translate(-3,217)"
               id="text82">0.6</text><text
               dominant-baseline="middle"
               transform="translate(-3,166)"
               id="text84">0.7</text><text
               dominant-baseline="middle"
               transform="translate(-3,114)"
               id="text86">0.8</text><text
               dominant-baseline="middle"
               transform="translate(-3,62)"
               id="text88">0.9</text><text
               dominant-baseline="middle"
               transform="translate(-3,10)"
               id="text90">1</text></g>
          <rect
             x="-35"
             y="0"
             width="35"
             height="528"
             style="opacity:0"
             id="rect94" />
        </g>
      </g>
      <path
         d="M 2,2 H 17 V -3 H -3 v 20 h 5 z"
         style="opacity:0"
         id="path100" />
      <path
         d="m 1244,2 h -15 v -5 h 20 v 20 h -5 z"
         style="opacity:0"
         id="path102" />
      <path
         d="m 2,526 h 15 v 5 H -3 v -20 h 5 z"
         style="opacity:0"
         id="path104" />
      <path
         d="m 1244,526 h -15 v 5 h 20 v -20 h -5 z"
         style="opacity:0"
         id="path106" />
      <path
         d="M -3,18 H 2 V 510 H -3 Z"
         style="opacity:0"
         id="path108" />
      <path
         d="m 1249,18 h -5 v 492 h 5 z"
         style="opacity:0"
         id="path110" />
      <path
         d="M 18,-3 V 2 H 1228 V -3 Z"
         style="opacity:0"
         id="path112" />
      <path
         d="m 18,531 v -5 h 1210 v 5 z"
         style="opacity:0"
         id="path114" />
      <style
         id="style116">
.jsroot rect.h1bin { stroke: #4572A7; fill: #4572A7; opacity: 0; }
.jsroot rect.zoom { stroke: steelblue; fill-opacity: 0.1; }
.jsroot path.zoom { stroke: steelblue; fill-opacity: 0.1; }
.jsroot svg:not(:root) { overflow: hidden; }</style>
    </g>
    <g
       transform="translate(813,79)"
       font-family="Arial"
       font-size="24px"
       xml:space="preserve"
       id="g154"><path
         d="M 0,0 H 290 V 119 H 0 Z"
         style="fill:#ffffff;stroke:#000000;stroke-width:1"
         id="path120" /><path
         d="M 9,18 H 64"
         style="stroke:#ff0000;stroke-width:1"
         id="path122" /><text
         fill="#000000"
         text-anchor="start"
         dominant-baseline="middle"
         transform="translate(73,18)"
         id="text124">DC (run 12933)</text><path
         d="M 9,46 H 64"
         style="stroke:#0000ff;stroke-width:1"
         id="path126" /><text
         fill="#000000"
         text-anchor="start"
         dominant-baseline="middle"
         transform="translate(73,46)"
         id="text128">FMT (run 12933)</text><path
         d="M 9,73 H 64"
         style="stroke:#990000;stroke-width:1"
         id="path130" /><text
         fill="#000000"
         text-anchor="start"
         dominant-baseline="middle"
         transform="translate(73,74)"
         id="text132">DC (run 12016)</text><path
         d="M 9,101 H 64"
         style="stroke:#000099;stroke-width:1"
         id="path134" /><text
         fill="#000000"
         text-anchor="start"
         dominant-baseline="middle"
         transform="translate(73,101)"
         id="text136">FMT (run 12016)</text><path
         d="M 2,2 H 17 V -3 H -3 v 20 h 5 z"
         style="opacity:0"
         id="path138" /><path
         d="m 288,2 h -15 v -5 h 20 v 20 h -5 z"
         style="opacity:0"
         id="path140" /><path
         d="m 2,117 h 15 v 5 H -3 v -20 h 5 z"
         style="opacity:0"
         id="path142" /><path
         d="m 288,117 h -15 v 5 h 20 v -20 h -5 z"
         style="opacity:0"
         id="path144" /><path
         d="m -3,18 h 5 v 83 h -5 z"
         style="opacity:0"
         id="path146" /><path
         d="m 293,18 h -5 v 83 h 5 z"
         style="opacity:0"
         id="path148" /><path
         d="M 18,-3 V 2 H 272 V -3 Z"
         style="opacity:0"
         id="path150" /><path
         d="m 18,122 v -5 h 254 v 5 z"
         style="opacity:0"
         id="path152" /></g>
    <g
       transform="translate(732.44653,19)"
       font-family="Arial"
       font-size="29px"
       xml:space="preserve"
       id="g180"><path
         d="M 0,0 H 70 V 36 H 0 Z"
         style="fill:none"
         id="path156" /><g
         transform="matrix(0.973,0,0,0.973,23,26)"
         id="g162"><text
           fill="#000000"
           font-size="30px"
           id="text158">v</text><text
           fill="#000000"
           font-size="18px"
           transform="translate(15,6)"
           id="text160">z</text></g><path
         d="M 2,2 H 17 V -3 H -3 v 20 h 5 z"
         style="opacity:0"
         id="path164" /><path
         d="M 68,2 H 53 v -5 h 20 v 20 h -5 z"
         style="opacity:0"
         id="path166" /><path
         d="m 2,34 h 15 v 5 H -3 V 19 h 5 z"
         style="opacity:0"
         id="path168" /><path
         d="M 68,34 H 53 v 5 H 73 V 19 h -5 z"
         style="opacity:0"
         id="path170" /><path
         d="m -3,18 h 5 v 0 z"
         style="opacity:0"
         id="path172" /><path
         d="m 73,18 h -5 v 0 z"
         style="opacity:0"
         id="path174" /><path
         d="M 18,-3 V 2 H 52 V -3 Z"
         style="opacity:0"
         id="path176" /><path
         d="m 18,39 v -5 h 34 v 5 z"
         style="opacity:0"
         id="path178" /></g>
  </g>
</svg>
