<?xml version="1.0" encoding="UTF-8" standalone="no"?>
<svg
   width="1373.5596"
   height="638.09094"
   version="1.1"
   id="svg174"
   sodipodi:docname="12vz_012016_geomcut.svg"
   inkscape:version="1.2.2 (1:1.2.2+202212051552+b0a8486541)"
   inkscape:export-filename="12vz_012016_geomcut.pdf"
   inkscape:export-xdpi="96"
   inkscape:export-ydpi="96"
   xmlns:inkscape="http://www.inkscape.org/namespaces/inkscape"
   xmlns:sodipodi="http://sodipodi.sourceforge.net/DTD/sodipodi-0.dtd"
   xmlns="http://www.w3.org/2000/svg"
   xmlns:svg="http://www.w3.org/2000/svg">
  <defs
     id="defs178" />
  <sodipodi:namedview
     id="namedview176"
     pagecolor="#ffffff"
     bordercolor="#666666"
     borderopacity="1.0"
     inkscape:showpageshadow="2"
     inkscape:pageopacity="0.0"
     inkscape:pagecheckerboard="0"
     inkscape:deskcolor="#d1d1d1"
     showgrid="false"
     inkscape:zoom="0.4386641"
     inkscape:cx="223.40556"
     inkscape:cy="490.12445"
     inkscape:window-width="1920"
     inkscape:window-height="1051"
     inkscape:window-x="0"
     inkscape:window-y="0"
     inkscape:window-maximized="1"
     inkscape:current-layer="g172" />
  <path
     style="fill:#ffffff;stroke-width:0.923526"
     d="M 0,0 H 1373.5596 V 638.09092 H 0 Z"
     id="path2" />
  <g
     id="g172"
     transform="translate(-68.724585,-17.656547)">
    <g
       transform="translate(156,66)"
       id="g108">
      <title
         id="title4" />
      <path
         d="M 0,0 H 1246 V 528 H 0 Z"
         style="fill:#ffffff;stroke:#000000;stroke-width:1"
         id="path6" />
      <g
         id="g12">
        <path
           d="M 0,0 V 528 M 156,0 V 528 M 312,0 V 528 M 467,0 V 528 M 623,0 V 528 M 779,0 V 528 M 935,0 V 528 M 1090,0 V 528 M 1246,0 v 528"
           style="stroke:#000000;stroke-width:1;stroke-dasharray:1, 2"
           id="path8" />
        <path
           d="M 0,528 H 1246 M 0,431 H 1246 M 0,333 H 1246 M 0,236 H 1246 M 0,139 H 1246 M 0,42 h 1246"
           style="stroke:#000000;stroke-width:1;stroke-dasharray:1, 2"
           id="path10" />
      </g>
      <svg
         x="0"
         y="0"
         overflow="hidden"
         width="1246"
         height="528"
         viewBox="0 0 1246 528"
         version="1.1"
         id="svg30">
        <g
           id="g16">
          <path
             d="m 0,528 h 16 v -1 h 15 v -1 h 6 v -1 h 3 v -1 h 7 v -2 h 3 v -2 h 3 v -4 h 3 v -5 h 3 v -6 h 3 v -9 h 3 v -11 h 4 v -16 h 3 v -17 h 3 v -21 h 3 v -16 h 3 v -15 h 3 v -13 h 3 v -2 h 3 v -3 h 3 v 5 h 4 v -3 h 3 v -6 h 3 v -9 h 3 v -19 h 3 v -20 h 3 v -26 h 3 v -28 h 3 v -19 h 3 v -3 h 4 v 10 h 3 v 12 h 3 v 24 h 3 v 31 h 3 v 27 h 3 v 26 h 3 v 13 h 3 v 19 h 4 v 9 h 3 v 10 h 3 v 6 h 3 v 3 h 3 v 5 h 6 v 1 h 10 v -1 h 3 v -1 h 3 v 1 h 3 v -2 h 3 v -1 h 3 v -2 h 3 v -3 h 3 v 2 h 3 v -2 h 4 v -3 h 3 v 1 h 3 v 2 h 3 v -2 h 3 v -1 h 6 v -2 h 3 v 3 h 4 v -3 h 3 v -2 h 3 v 1 h 3 v -2 h 3 v 2 h 3 v 2 h 3 v -5 h 3 v 1 h 13 v -2 h 3 v -1 h 3 v 3 h 3 v -1 h 3 v 1 h 3 v -1 h 3 v -4 h 4 v 2 h 3 v -1 h 3 v 1 h 3 v -4 h 3 v 2 h 3 v 1 h 3 v -1 h 7 v -4 h 3 v 1 h 3 v -2 h 6 v -2 h 3 v 1 h 3 v 2 h 3 v 1 h 3 v -5 h 4 v 3 h 3 v 1 h 3 v -6 h 3 v 4 h 3 v 1 h 3 v -5 h 3 v 4 h 3 v -2 h 3 v -1 h 4 v -2 h 3 v 4 h 3 v -5 h 3 v 1 h 3 v -1 h 3 v -2 h 3 v 3 h 3 v -3 h 3 v 1 h 7 v 1 h 3 v -2 h 3 v 1 h 3 v -2 h 3 v 4 h 3 v -3 h 3 v -1 h 4 v 1 h 3 v 1 h 3 v -1 h 3 v -1 h 3 v 2 h 3 v -1 h 3 v -1 h 3 v -1 h 3 v -1 h 4 v -1 h 6 v 4 h 3 v -2 h 9 v -1 h 3 v -2 h 3 v 3 h 7 v -3 h 3 v 2 h 3 v 2 h 3 v -4 h 3 v 1 h 3 v -1 h 3 v -1 h 7 v 2 h 3 v 1 h 6 v -2 h 3 v -3 h 3 v 4 h 6 v -4 h 4 v 4 h 3 v 2 h 3 v -1 h 3 v -3 h 3 v 5 h 9 v -5 h 3 v 4 h 7 v -4 h 3 v 3 h 3 v 1 h 3 v -2 h 3 v 3 h 3 v -2 h 7 v -1 h 3 v 1 h 6 v 1 h 3 v 3 h 3 v -3 h 3 v -1 h 6 v 2 h 4 v 1 h 3 v -1 h 3 v -1 h 3 v 2 h 3 v -2 h 3 v 1 h 3 v -3 h 3 v 4 h 3 v 4 h 4 v -5 h 3 v 2 h 3 v 1 h 3 v -2 h 9 v 2 h 3 v -2 h 3 v 1 h 4 v 2 h 3 v -1 h 3 v -1 h 3 v 2 h 3 v -2 h 6 v 2 h 3 v -1 h 4 v 1 h 9 v -1 h 3 v 1 h 3 v 1 h 3 v -2 h 3 v 2 h 10 v -3 h 3 v 4 h 3 v -1 h 3 v -2 h 6 v -1 h 3 v 3 h 3 v 1 h 4 v -2 h 3 v -1 h 3 v 3 h 3 v -2 h 3 v 2 h 3 v -2 h 3 v 4 h 3 v -3 h 4 v 2 h 3 v -1 h 3 v 3 h 3 v -2 h 12 v 1 h 3 v -1 h 7 v 1 h 3 v -1 h 3 v 2 h 3 v 4 h 3 v -5 h 6 v 3 h 3 v 2 h 4 v -3 h 6 v 1 h 6 v 1 h 9 v 2 h 4 v -3 h 6 v 4 h 3 v -3 h 3 v -1 h 3 v 2 h 3 v 1 h 3 v -2 h 7 v 1 h 9 v 1 h 3 v 2 h 3 v -1 h 3 v -1 h 3 v 2 h 7 v 2 h 3 v -1 h 3 v 2 h 3 v 1 h 6 v -1 h 3 v 3 h 3 v -3 h 4 v 4 h 6 v -1 h 3 v 2 h 3 v -1 h 3 v 2 h 3 v -2 h 6 v -7 h 4 v -7 h 3 v -10 h 3 v -26 h 3 v -42 h 3 v -65 h 3 v -87 h 3 v -82 h 3 V 48 h 3 v 9 h 4 v 64 h 3 v 88 h 3 v 82 h 3 v 61 h 3 v 41 h 3 v 23 h 3 v 17 h 3 v 13 h 3 v 3 h 4 v 9 h 3 v 2 h 3 v 5 h 3 v -1 h 3 v 4 h 3 v 3 h 3 v 1 h 3 v 1 h 4 v 1 h 3 v 3 h 3 v -1 h 3 v 1 h 3 v 3 h 3 v 2 h 3 v 1 h 6 v 2 h 7 v 4 h 3 v 1 h 3 v 2 h 3 v -2 h 3 v 3 h 3 v 1 h 6 v 3 h 4 v -1 h 6 v 2 h 6 v 1 h 3 v 1 h 3 v 1 h 7 v 2 h 6 v 1 h 3 v 2 h 3 v -1 h 3 v 1 h 3 v -1 h 6 v 2 h 7 v 1 h 6 v 1 h 15 v 2 h 4 v 1 h 3 v -1 h 3 v 2 h 6 v 1 h 6 v 1 h 3 v 1 h 10 v 1 h 3 v 1 h 3 v 1 h 3 v 1 h 3 v 1 h 3 v -1 h 3 v 1 h 4 v 1 h 9 v 1 h 3 v 8 H 0 Z"
             style="fill:none;stroke:#ff0000;stroke-width:1;stroke-linejoin:miter"
             id="path14" />
        </g>
        <g
           id="g20">
          <path
             d="m 0,527 h 19 v -1 h 12 v -1 h 6 v -1 h 7 v -1 h 6 v -1 h 3 v -1 h 3 v -1 h 3 v -2 h 3 v -1 h 3 v -3 h 4 v -4 h 3 v -5 h 3 v -6 h 3 v -11 h 3 v -11 h 3 v -13 h 3 v -4 h 3 v -3 h 3 v 5 h 4 v 5 h 3 v 4 h 3 v 3 h 3 v -2 h 3 v -2 h 3 v -11 h 3 v -11 h 3 v -18 h 3 v -22 h 4 v -19 h 3 v -3 h 3 v 11 h 3 v 21 h 3 v 20 h 3 v 16 h 3 v 8 h 3 v 11 h 4 v 6 h 3 v 1 h 3 v 3 h 3 v -1 h 3 v 3 h 3 v 1 h 3 v 1 h 3 v -1 h 3 v -1 h 4 v 2 h 3 v -1 h 3 v 1 h 3 v -1 h 9 v -1 h 6 v -2 h 10 v -1 h 3 v -1 h 3 v 2 h 3 v -2 h 3 v 1 h 13 v -1 h 3 v 1 h 3 v -1 h 3 v -2 h 6 v -1 h 3 v 2 h 4 v -2 h 3 v 1 h 3 v 1 h 3 v -4 h 6 v 1 h 3 v -1 h 6 v 1 h 7 v -3 h 3 v 1 h 12 v 1 h 3 v -3 h 4 v 1 h 3 v -3 h 3 v 3 h 3 v -3 h 9 v -1 h 3 v 1 h 3 v -2 h 19 v -1 h 3 v -1 h 3 v -1 h 13 v -1 h 3 v -1 h 3 v 2 h 3 v -1 h 3 v 1 h 3 v -2 h 7 v -1 h 6 v -2 h 6 v 2 h 6 v 1 h 3 v -2 h 4 v -2 h 6 v 1 h 9 v -1 h 6 v -1 h 3 v -2 h 4 v 1 h 3 v 1 h 3 v 1 h 3 v 1 h 3 v -4 h 3 v 2 h 3 v -3 h 6 v -1 h 4 v 1 h 6 v 1 h 3 v -3 h 3 v 2 h 6 v -2 h 3 v 1 h 4 v -1 h 3 v 1 h 3 v -1 h 3 v 4 h 3 v -4 h 3 v 1 h 3 v -5 h 3 v 6 h 3 v -1 h 4 v 1 h 3 v -3 h 3 v 1 h 12 v 1 h 3 v -1 h 3 v 4 h 4 v -6 h 3 v 2 h 3 v 1 h 3 v -1 h 3 v 3 h 3 v -2 h 3 v 1 h 3 v 1 h 4 v -2 h 3 v 1 h 3 v 2 h 3 v -1 h 6 v -1 h 3 v 2 h 3 v -2 h 3 v 3 h 4 v -1 h 6 v 1 h 3 v 1 h 12 v 1 h 7 v 2 h 3 v -2 h 3 v 2 h 3 v 1 h 3 v -1 h 3 v 3 h 3 v -1 h 3 v -2 h 3 v 4 h 4 v -1 h 3 v 2 h 3 v -2 h 3 v 2 h 3 v 1 h 3 v 1 h 3 v 1 h 3 v 1 h 4 v -1 h 3 v 2 h 3 v 1 h 3 v 2 h 3 v -2 h 3 v 1 h 3 v 2 h 3 v -1 h 3 v 1 h 4 v 1 h 3 v 1 h 3 v 2 h 3 v -1 h 3 v 1 h 3 v 2 h 3 v 2 h 16 v 2 h 6 v 3 h 3 v -1 h 3 v 1 h 7 v 2 h 3 v 2 h 6 v 1 h 3 v 3 h 3 v -1 h 3 v 2 h 3 v 1 h 7 v 1 h 3 v 2 h 9 v 3 h 3 v 1 h 6 v 2 h 7 v 1 h 3 v 2 h 9 v 2 h 6 v 1 h 3 v 1 h 4 v 2 h 12 v 2 h 3 v 1 h 6 v 1 h 3 v 1 h 4 v -1 h 3 v 1 h 3 v 1 h 12 v 1 h 6 v 1 h 13 v 1 h 19 v 1 h 3 v -1 h 3 v 1 h 302 v 3 H 0 Z"
             style="fill:none;stroke:#0000ff;stroke-width:1;stroke-linejoin:miter"
             id="path18" />
        </g>
        <g
           id="g24">
          <path
             d="m 0,528 h 19 v -1 h 21 v -1 h 7 v -1 h 3 v -1 h 3 v -2 h 3 v -4 h 3 v -3 h 3 v -6 h 3 v -8 h 4 v -10 h 3 v -12 h 3 v -16 h 3 v -10 h 3 v -12 h 3 v -9 h 3 v -4 h 3 v -3 h 7 v -2 h 3 v -7 h 3 v -10 h 3 v -19 h 3 v -18 h 3 v -25 h 3 v -26 h 3 v -16 h 3 v -8 h 4 v 9 h 3 v 10 h 3 v 21 h 3 v 27 h 3 v 25 h 3 v 21 h 3 v 12 h 3 v 16 h 4 v 9 h 3 v 7 h 3 v 5 h 3 v 2 h 3 v 4 h 16 v -1 h 3 v -1 h 3 v 1 h 3 v -3 h 3 v -1 h 3 v -2 h 3 v -3 h 3 v 1 h 3 v -2 h 4 v -2 h 6 v 2 h 3 v -3 h 9 v -2 h 3 v 2 h 4 v -2 h 3 v -2 h 3 v 1 h 3 v -3 h 3 v 2 h 3 v 1 h 3 v -4 h 3 v 1 h 7 v -1 h 6 v -2 h 3 v -1 h 3 v 3 h 3 v -2 h 3 v 1 h 3 v -1 h 3 v -4 h 4 v 2 h 3 v -1 h 6 v -3 h 3 v 2 h 3 v 1 h 3 v -1 h 3 v -1 h 4 v -3 h 6 v -2 h 6 v -1 h 6 v 1 h 3 v 2 h 3 v -5 h 4 v 3 h 6 v -6 h 3 v 4 h 3 v 1 h 3 v -5 h 3 v 3 h 3 v -1 h 3 v -1 h 4 v -2 h 3 v 4 h 3 v -5 h 3 v 2 h 3 v -2 h 3 v -2 h 3 v 2 h 3 v -3 h 3 v 1 h 4 v 1 h 6 v -2 h 3 v 1 h 3 v -3 h 3 v 5 h 3 v -3 h 3 v -1 h 4 v 1 h 6 v -1 h 6 v 2 h 3 v -2 h 3 v -1 h 6 v -1 h 4 v -2 h 6 v 4 h 3 v -2 h 9 v -2 h 3 v -1 h 3 v 3 h 7 v -3 h 3 v 1 h 3 v 2 h 3 v -3 h 9 v -2 h 7 v 2 h 3 v 1 h 6 v -2 h 3 v -2 h 3 v 4 h 3 v -1 h 3 v -4 h 4 v 5 h 3 v 1 h 6 v -4 h 3 v 5 h 6 v 1 h 3 v -5 h 3 v 3 h 4 v 1 h 3 v -3 h 3 v 3 h 6 v -1 h 3 v 2 h 3 v -2 h 3 v 1 h 4 v 1 h 9 v 1 h 3 v 3 h 3 v -3 h 6 v 1 h 3 v 3 h 4 v 1 h 3 v -1 h 6 v 3 h 3 v -3 h 3 v 2 h 3 v -2 h 3 v 3 h 3 v 5 h 4 v -3 h 3 v 2 h 3 v 1 h 9 v 2 h 3 v 1 h 3 v -1 h 3 v 3 h 4 v 2 h 9 v 2 h 6 v 1 h 3 v 1 h 3 v 2 h 4 v 1 h 3 v 2 h 3 v 1 h 3 v -1 h 3 v 3 h 3 v 1 h 3 v -1 h 3 v 3 h 3 v 2 h 4 v 1 h 3 v -1 h 3 v 4 h 3 v -1 h 6 v 3 h 3 v 1 h 3 v 2 h 3 v 2 h 7 v 1 h 3 v 1 h 3 v 1 h 3 v 3 h 6 v 3 h 7 v 4 h 3 v -1 h 3 v 2 h 3 v 1 h 3 v 2 h 3 v 3 h 3 v 1 h 3 v 1 h 3 v 2 h 4 v 1 h 3 v 1 h 3 v 2 h 3 v 1 h 3 v 4 h 3 v -1 h 3 v 4 h 3 v -1 h 3 v 3 h 4 v 2 h 6 v 1 h 3 v 2 h 3 v 1 h 3 v 3 h 3 v -1 h 3 v 2 h 4 v 1 h 3 v 1 h 3 v 1 h 3 v 2 h 3 v 1 h 6 v 1 h 3 v 1 h 3 v 1 h 7 v 1 h 6 v 2 h 6 v 1 h 9 v 1 h 10 v 1 h 12 v 1 h 3 v -1 h 4 v 1 h 311 v 3 H 0 Z"
             style="fill:none;stroke:#990000;stroke-width:1;stroke-linejoin:miter"
             id="path22" />
        </g>
        <g
           id="g28">
          <path
             d="m 0,527 h 19 v -1 h 12 v -1 h 9 v -1 h 4 v -1 h 6 v -1 h 3 v -1 h 3 v -1 h 3 v -2 h 3 v -1 h 3 v -3 h 4 v -3 h 3 v -5 h 3 v -6 h 3 v -12 h 3 v -11 h 3 v -13 h 3 v -4 h 3 v -3 h 3 v 5 h 4 v 5 h 3 v 5 h 3 v 2 h 3 v -1 h 3 v -3 h 3 v -11 h 3 v -11 h 3 v -18 h 3 v -21 h 4 v -20 h 3 v -3 h 3 v 11 h 3 v 21 h 3 v 20 h 3 v 16 h 3 v 9 h 3 v 10 h 4 v 6 h 3 v 1 h 3 v 3 h 3 v -1 h 3 v 3 h 3 v 1 h 3 v 2 h 3 v -2 h 3 v -1 h 4 v 2 h 3 v -1 h 3 v 1 h 3 v -1 h 9 v -1 h 6 v -2 h 10 v -1 h 3 v -1 h 3 v 2 h 3 v -2 h 3 v 1 h 13 v -1 h 3 v 1 h 3 v -1 h 3 v -2 h 6 v -1 h 3 v 2 h 4 v -2 h 3 v 1 h 3 v 1 h 3 v -4 h 6 v 1 h 3 v -1 h 6 v 1 h 7 v -3 h 3 v 1 h 12 v 1 h 3 v -3 h 4 v 2 h 3 v -4 h 3 v 3 h 3 v -3 h 9 v -1 h 3 v 1 h 3 v -2 h 4 v 1 h 3 v -1 h 12 v -1 h 3 v -1 h 3 v -1 h 13 v -1 h 3 v -1 h 3 v 2 h 3 v -1 h 3 v 1 h 3 v -2 h 7 v -1 h 6 v -2 h 6 v 2 h 6 v 1 h 3 v -2 h 4 v -2 h 6 v 1 h 9 v -1 h 6 v -1 h 3 v -2 h 4 v 1 h 3 v 1 h 3 v 1 h 3 v 1 h 3 v -4 h 3 v 2 h 3 v -3 h 6 v -1 h 4 v 1 h 6 v 1 h 3 v -3 h 3 v 2 h 6 v -2 h 3 v 1 h 4 v -1 h 3 v 1 h 3 v -1 h 3 v 4 h 3 v -4 h 3 v 1 h 3 v -5 h 3 v 6 h 3 v -1 h 4 v 1 h 3 v -3 h 3 v 1 h 12 v 1 h 3 v -1 h 3 v 4 h 4 v -6 h 3 v 2 h 3 v 2 h 3 v -2 h 3 v 4 h 3 v -3 h 3 v 1 h 3 v 1 h 4 v -2 h 3 v 2 h 3 v 1 h 3 v -1 h 3 v 1 h 3 v -2 h 3 v 2 h 3 v -1 h 3 v 2 h 4 v -1 h 6 v 2 h 15 v 1 h 3 v 1 h 4 v 2 h 3 v -2 h 3 v 2 h 9 v 3 h 3 v -2 h 3 v -1 h 3 v 4 h 4 v -1 h 3 v 2 h 3 v -2 h 3 v 2 h 3 v 1 h 3 v 1 h 6 v 2 h 4 v -1 h 3 v 2 h 3 v 1 h 3 v 2 h 3 v -2 h 3 v 1 h 3 v 3 h 3 v -2 h 3 v 1 h 4 v 2 h 6 v 2 h 9 v 2 h 3 v 2 h 13 v 1 h 3 v 1 h 3 v 1 h 3 v 2 h 9 v 1 h 4 v 1 h 3 v 3 h 3 v -1 h 3 v 1 h 3 v 3 h 6 v 1 h 3 v 1 h 3 v 1 h 4 v 1 h 3 v 2 h 3 v -1 h 6 v 3 h 3 v 1 h 6 v 2 h 7 v 2 h 3 v 1 h 6 v 1 h 3 v 1 h 3 v 1 h 6 v 1 h 4 v 2 h 9 v 1 h 3 v 1 h 3 v 1 h 6 v 1 h 3 v 1 h 4 v -1 h 3 v 1 h 3 v 1 h 12 v 1 h 13 v 1 h 15 v 1 h 318 v 3 H 0 Z"
             style="fill:none;stroke:#000099;stroke-width:1;stroke-linejoin:miter"
             id="path26" />
        </g>
      </svg>
      <g
         id="g88">
        <g
           transform="translate(0,528)"
           id="g66">
          <path
             d="M 0,0 H 1246 M 0,-20 V 0 M 31,-10 V 0 M 62,-10 V 0 M 93,-10 V 0 m 32,-10 V 0 m 31,-20 V 0 m 31,-10 V 0 m 31,-10 V 0 m 31,-10 V 0 m 31,-10 V 0 m 32,-20 V 0 m 31,-10 V 0 m 31,-10 V 0 m 31,-10 V 0 m 31,-10 V 0 m 31,-20 V 0 m 31,-10 V 0 m 32,-10 V 0 m 31,-10 V 0 m 31,-10 V 0 m 31,-20 V 0 m 31,-10 V 0 m 31,-10 V 0 m 31,-10 V 0 m 32,-10 V 0 m 31,-20 V 0 m 31,-10 V 0 m 31,-10 V 0 m 31,-10 V 0 m 31,-10 V 0 m 32,-20 V 0 m 31,-10 V 0 m 31,-10 V 0 m 31,-10 V 0 m 31,-10 V 0 m 31,-20 V 0 m 31,-10 V 0 m 32,-10 V 0 m 31,-10 V 0 m 31,-10 V 0 m 31,-20 V 0"
             style="stroke:#000000;stroke-width:1"
             id="path32" />
          <g
             font-family="Arial"
             font-size="23px"
             xml:space="preserve"
             fill="#000000"
             text-anchor="middle"
             id="g52"><text
               dy="0.80000001em"
               transform="translate(0,5)"
               id="text34">-40</text><text
               dy="0.80000001em"
               transform="translate(156,5)"
               id="text36">-30</text><text
               dy="0.80000001em"
               transform="translate(312,5)"
               id="text38">-20</text><text
               dy="0.80000001em"
               transform="translate(467,5)"
               id="text40">-10</text><text
               dy="0.80000001em"
               transform="translate(623,5)"
               id="text42">0</text><text
               dy="0.80000001em"
               transform="translate(779,5)"
               id="text44">10</text><text
               dy="0.80000001em"
               transform="translate(935,5)"
               id="text46">20</text><text
               dy="0.80000001em"
               transform="translate(1090,5)"
               id="text48">30</text><text
               dy="0.80000001em"
               transform="translate(1246,5)"
               id="text50">40</text></g>
          <rect
             x="0"
             y="0"
             width="1246"
             height="26"
             style="opacity:0"
             id="rect54" />
          <g
             font-family="Arial"
             font-size="23px"
             xml:space="preserve"
             transform="translate(1246,37)"
             id="g64"><g
               transform="translate(-62,7)"
               id="g62"><text
                 fill="#000000"
                 font-size="23px"
                 id="text56">v</text><text
                 fill="#000000"
                 font-size="14px"
                 transform="translate(12,4)"
                 id="text58">z</text><text
                 fill="#000000"
                 font-size="23px"
                 x="19"
                 id="text60"> (cm)</text></g></g>
        </g>
        <g
           id="g86">
          <path
             d="m 0,0 v 528 m 47,0 H 0 M 24,509 H 0 M 24,489 H 0 M 24,470 H 0 M 24,450 H 0 M 47,431 H 0 M 24,411 H 0 M 24,392 H 0 M 24,372 H 0 M 24,353 H 0 M 47,333 H 0 M 24,314 H 0 M 24,295 H 0 M 24,275 H 0 M 24,256 H 0 M 47,236 H 0 M 24,217 H 0 M 24,197 H 0 M 24,178 H 0 M 24,158 H 0 M 47,139 H 0 M 24,119 H 0 M 24,100 H 0 M 24,81 H 0 M 24,61 H 0 M 47,42 H 0 M 24,22 H 0 M 24,3 H 0"
             style="stroke:#000000;stroke-width:1"
             id="path68" />
          <g
             font-family="Arial"
             font-size="23px"
             xml:space="preserve"
             fill="#000000"
             text-anchor="end"
             id="g82"><text
               dominant-baseline="middle"
               transform="translate(-3,528)"
               id="text70">0</text><text
               dominant-baseline="middle"
               transform="translate(-3,431)"
               id="text72">5000</text><text
               dominant-baseline="middle"
               transform="translate(-3,333)"
               id="text74">10000</text><text
               dominant-baseline="middle"
               transform="translate(-3,236)"
               id="text76">15000</text><text
               dominant-baseline="middle"
               transform="translate(-3,139)"
               id="text78">20000</text><text
               dominant-baseline="middle"
               transform="translate(-3,42)"
               id="text80">25000</text></g>
          <rect
             x="-68"
             y="0"
             width="68"
             height="528"
             style="opacity:0"
             id="rect84" />
        </g>
      </g>
      <path
         d="M 2,2 H 17 V -3 H -3 v 20 h 5 z"
         style="opacity:0"
         id="path90" />
      <path
         d="m 1244,2 h -15 v -5 h 20 v 20 h -5 z"
         style="opacity:0"
         id="path92" />
      <path
         d="m 2,526 h 15 v 5 H -3 v -20 h 5 z"
         style="opacity:0"
         id="path94" />
      <path
         d="m 1244,526 h -15 v 5 h 20 v -20 h -5 z"
         style="opacity:0"
         id="path96" />
      <path
         d="M -3,18 H 2 V 510 H -3 Z"
         style="opacity:0"
         id="path98" />
      <path
         d="m 1249,18 h -5 v 492 h 5 z"
         style="opacity:0"
         id="path100" />
      <path
         d="M 18,-3 V 2 H 1228 V -3 Z"
         style="opacity:0"
         id="path102" />
      <path
         d="m 18,531 v -5 h 1210 v 5 z"
         style="opacity:0"
         id="path104" />
      <style
         id="style106">
.jsroot rect.h1bin { stroke: #4572A7; fill: #4572A7; opacity: 0; }
.jsroot rect.zoom { stroke: steelblue; fill-opacity: 0.1; }
.jsroot path.zoom { stroke: steelblue; fill-opacity: 0.1; }
.jsroot svg:not(:root) { overflow: hidden; }</style>
    </g>
    <g
       transform="translate(813,78)"
       font-family="Arial"
       font-size="24px"
       xml:space="preserve"
       id="g144"><path
         d="M 0,0 H 290 V 119 H 0 Z"
         style="fill:#ffffff;stroke:#000000;stroke-width:1"
         id="path110" /><path
         d="M 9,18 H 64"
         style="stroke:#ff0000;stroke-width:1"
         id="path112" /><text
         fill="#000000"
         text-anchor="start"
         dominant-baseline="middle"
         transform="translate(73,18)"
         id="text114">DC (raw)</text><path
         d="M 9,46 H 64"
         style="stroke:#0000ff;stroke-width:1"
         id="path116" /><text
         fill="#000000"
         text-anchor="start"
         dominant-baseline="middle"
         transform="translate(73,46)"
         id="text118">FMT (raw)</text><path
         d="M 9,73 H 64"
         style="stroke:#990000;stroke-width:1"
         id="path120" /><text
         fill="#000000"
         text-anchor="start"
         dominant-baseline="middle"
         transform="translate(73,74)"
         id="text122">DC (w/ cut)</text><path
         d="M 9,101 H 64"
         style="stroke:#000099;stroke-width:1"
         id="path124" /><text
         fill="#000000"
         text-anchor="start"
         dominant-baseline="middle"
         transform="translate(73,101)"
         id="text126">FMT (w/ cut)</text><path
         d="M 2,2 H 17 V -3 H -3 v 20 h 5 z"
         style="opacity:0"
         id="path128" /><path
         d="m 288,2 h -15 v -5 h 20 v 20 h -5 z"
         style="opacity:0"
         id="path130" /><path
         d="m 2,117 h 15 v 5 H -3 v -20 h 5 z"
         style="opacity:0"
         id="path132" /><path
         d="m 288,117 h -15 v 5 h 20 v -20 h -5 z"
         style="opacity:0"
         id="path134" /><path
         d="m -3,18 h 5 v 83 h -5 z"
         style="opacity:0"
         id="path136" /><path
         d="m 293,18 h -5 v 83 h 5 z"
         style="opacity:0"
         id="path138" /><path
         d="M 18,-3 V 2 H 272 V -3 Z"
         style="opacity:0"
         id="path140" /><path
         d="m 18,122 v -5 h 254 v 5 z"
         style="opacity:0"
         id="path142" /></g>
    <g
       transform="translate(715.94653,23)"
       font-family="Arial"
       font-size="29px"
       xml:space="preserve"
       id="g170"><path
         d="M 0,0 H 70 V 36 H 0 Z"
         style="fill:none"
         id="path146" /><g
         transform="matrix(0.973,0,0,0.973,23,26)"
         id="g152"><text
           fill="#000000"
           font-size="30px"
           id="text148">v </text><text
           fill="#000000"
           font-size="18px"
           transform="translate(15,6)"
           id="text150">z</text></g><path
         d="M 2,2 H 17 V -3 H -3 v 20 h 5 z"
         style="opacity:0"
         id="path154" /><path
         d="M 68,2 H 53 v -5 h 20 v 20 h -5 z"
         style="opacity:0"
         id="path156" /><path
         d="m 2,34 h 15 v 5 H -3 V 19 h 5 z"
         style="opacity:0"
         id="path158" /><path
         d="M 68,34 H 53 v 5 H 73 V 19 h -5 z"
         style="opacity:0"
         id="path160" /><path
         d="m -3,18 h 5 v 0 z"
         style="opacity:0"
         id="path162" /><path
         d="m 73,18 h -5 v 0 z"
         style="opacity:0"
         id="path164" /><path
         d="M 18,-3 V 2 H 52 V -3 Z"
         style="opacity:0"
         id="path166" /><path
         d="m 18,39 v -5 h 34 v 5 z"
         style="opacity:0"
         id="path168" /></g>
  </g>
</svg>
