<?xml version="1.0" encoding="UTF-8" standalone="no"?>
<svg
   width="1894"
   height="1380"
   version="1.1"
   id="svg172"
   sodipodi:docname="10efficiencies.svg"
   xml:space="preserve"
   inkscape:version="1.2.2 (1:1.2.2+202212051552+b0a8486541)"
   inkscape:export-filename="10efficiencies.pdf"
   inkscape:export-xdpi="102.28"
   inkscape:export-ydpi="102.28"
   xmlns:inkscape="http://www.inkscape.org/namespaces/inkscape"
   xmlns:sodipodi="http://sodipodi.sourceforge.net/DTD/sodipodi-0.dtd"
   xmlns="http://www.w3.org/2000/svg"
   xmlns:svg="http://www.w3.org/2000/svg"><defs
     id="defs176" /><sodipodi:namedview
     id="namedview174"
     pagecolor="#ffffff"
     bordercolor="#666666"
     borderopacity="1.0"
     inkscape:showpageshadow="2"
     inkscape:pageopacity="0.0"
     inkscape:pagecheckerboard="0"
     inkscape:deskcolor="#d1d1d1"
     showgrid="false"
     showguides="true"
     inkscape:zoom="0.72122492"
     inkscape:cx="947"
     inkscape:cy="630.87116"
     inkscape:window-width="1920"
     inkscape:window-height="1051"
     inkscape:window-x="1920"
     inkscape:window-y="0"
     inkscape:window-maximized="1"
     inkscape:current-layer="svg172"><sodipodi:guide
       position="917,1380"
       orientation="-1,0"
       id="guide1194"
       inkscape:locked="false"
       inkscape:label=""
       inkscape:color="rgb(0,134,229)" /><sodipodi:guide
       position="0,720"
       orientation="0,1"
       id="guide1196"
       inkscape:locked="false"
       inkscape:label=""
       inkscape:color="rgb(0,134,229)" /><sodipodi:guide
       position="977,1660.8302"
       orientation="-1,0"
       id="guide1198"
       inkscape:locked="false"
       inkscape:label=""
       inkscape:color="rgb(0,134,229)" /><sodipodi:guide
       position="0,660"
       orientation="0,1"
       id="guide1200"
       inkscape:locked="false"
       inkscape:label=""
       inkscape:color="rgb(0,134,229)" /></sodipodi:namedview><path
     style="fill:#ffffff"
     d="M 0,0 H 917 V 660 H 0 Z"
     id="path2" /><g
     id="g170"><g
       transform="translate(92,66)"
       id="g112"><title
         id="title4" /><path
         d="M 0,0 H 734 V 528 H 0 Z"
         style="fill:#ffffff;stroke:#000000;stroke-width:1"
         id="path6" /><g
         id="g12"><path
           d="M 0,0 V 528 M 73,0 V 528 M 147,0 V 528 M 220,0 V 528 M 294,0 V 528 M 367,0 V 528 M 440,0 V 528 M 514,0 V 528 M 587,0 V 528 M 661,0 V 528 M 734,0 v 528"
           style="stroke:#000000;stroke-width:1;stroke-dasharray:1, 2"
           id="path8" /><path
           d="M 0,528 H 734 M 0,475 H 734 M 0,422 H 734 M 0,370 H 734 M 0,317 H 734 M 0,264 H 734 M 0,211 H 734 M 0,158 H 734 M 0,106 H 734 M 0,53 H 734 M 0,0 h 734"
           style="stroke:#000000;stroke-width:1;stroke-dasharray:1, 2"
           id="path10" /></g><svg
         x="0"
         y="0"
         overflow="hidden"
         width="734"
         height="528"
         viewBox="0 0 734 528"
         version="1.1"
         id="svg22"><g
           id="g16"><path
             d="m 0,254 h 4 v -10 h 3 v -7 h 4 v 15 h 4 v -7 h 3 v -2 h 4 v 8 h 4 v 3 h 7 v 4 h 4 v 6 h 3 v 2 h 4 v -11 h 4 v 9 h 3 v -12 h 4 v -1 h 4 v 10 h 3 v 2 h 4 v -7 h 4 v 5 h 3 v 8 h 4 v -9 h 4 v 17 h 3 v -33 h 4 v 19 h 4 v -14 h 3 v 8 h 4 v -4 h 4 v 12 h 3 v -19 h 4 v -2 h 4 v -3 h 3 v 4 h 4 v 15 h 4 v -15 h 7 v 5 h 4 v 3 h 3 v -7 h 4 v -7 h 4 v 11 h 3 v -6 h 8 v 4 h 3 v -9 h 4 v -4 h 4 v 3 h 3 v -2 h 4 v -7 h 4 v 15 h 4 v -12 h 3 v 8 h 4 v -11 h 4 v -5 h 3 v 8 h 4 v -8 h 4 v 7 h 3 v -1 h 4 v -1 h 4 v 6 h 3 v -1 h 4 v -10 h 4 v -4 h 3 v 2 h 4 v -5 h 4 v 10 h 3 v -3 h 4 v 2 h 4 v -15 h 3 v 2 h 4 v 8 h 4 v -6 h 3 v -2 h 4 v 4 h 4 v -8 h 3 v 3 h 4 v 9 h 4 v -4 h 3 v -7 h 4 v 3 h 4 v -5 h 3 v -2 h 4 v -13 h 4 v 15 h 3 v -4 h 4 v -11 h 4 v 15 h 3 v -6 h 4 v 4 h 4 v -4 h 3 v -4 h 4 v 8 h 4 v -3 h 3 v -4 h 4 v -4 h 4 v 13 h 3 v -9 h 4 v -9 h 4 v 10 h 3 v -6 h 4 v -4 h 4 v 5 h 3 v 10 h 4 v -16 h 4 v 12 h 3 v -2 h 4 v -1 h 4 v -2 h 3 v 12 h 4 v -6 h 4 v 3 h 3 v 2 h 4 v -3 h 4 v -7 h 3 v 13 h 4 v -5 h 4 v 4 h 3 v -3 h 4 v 4 h 4 v 1 h 3 v 2 h 4 v 7 h 4 v 1 h 3 v -12 h 4 v 20 h 4 v -14 h 3 v 17 h 4 v -5 h 4 v 11 h 3 v -11 h 4 v 10 h 4 v 3 h 3 v 1 h 4 v 4 h 4 v 2 h 3 v 11 h 4 v -1 h 4 v 9 h 3 v -9 h 4 v 15 h 4 v 11 h 3 v -17 h 4 v 21 h 4 v -5 h 3 v 4 h 4 v 5 h 4 v 9 h 3 v -3 h 4 v 7 h 4 v 16 h 4 v 2 h 3 v -4 h 4 v 7 h 4 v 5 h 3 v -1 h 4 v 16 h 4 v -3 h 3 v 3 h 4 v 1 h 4 v 18 h 3 v -7 h 4 v 17 h 4 v 4 h 3 v 8 h 4 v 2 h 4 v 5 h 3 v 13 h 4 v -2 h 4 v 1 h 3 v 10 h 4 v 8 h 4 v 7 h 3 v -1 h 4 v 15 h 4 v 1 h 3 v 2 h 4 v 8 h 4 v 3 h 3 v 5 h 4 v 13 h 4 v -1 h 3 v 3 h 4 v 2 h 4 v 11 h 3 v 1 h 4 v 5 h 4 v 2 h 3 v 4 h 4 v 5 h 4 v -3 h 3 v 6 h 4 v 2 h 4 v 1 h 7 v 4 h 7 v 3 h 4 v 1 h 4 v 1 h 3 v 1 h 4 v 7 H 0 Z"
             style="fill:none;stroke:#ff0000;stroke-width:1;stroke-linejoin:miter"
             id="path14" /></g><g
           id="g20"><path
             d="m 0,198 h 4 v -13 h 3 v -7 h 4 v 20 h 4 v -4 h 3 v -3 h 4 v 11 h 4 v 4 h 3 v 4 h 4 v 10 h 4 v 6 h 3 v 4 h 4 v -11 h 4 v 9 h 3 v -12 h 4 v 3 h 4 v 12 h 3 v -2 h 4 v -4 h 4 v 6 h 3 v 6 h 4 v -6 h 4 v 19 h 3 v -37 h 4 v 23 h 4 v -15 h 3 v 9 h 4 v -1 h 4 v 12 h 3 v -20 h 8 v -3 h 3 v 4 h 4 v 18 h 4 v -17 h 3 v 1 h 4 v 5 h 4 v 6 h 3 v -10 h 4 v -5 h 4 v 12 h 3 v -5 h 4 v -1 h 4 v 4 h 3 v -8 h 4 v -4 h 4 v 3 h 3 v -2 h 4 v -5 h 4 v 16 h 4 v -14 h 3 v 9 h 4 v -10 h 4 v -5 h 3 v 7 h 4 v -8 h 4 v 9 h 3 v -3 h 4 v 1 h 4 v 8 h 3 v -2 h 4 v -11 h 4 v -3 h 3 v 3 h 4 v -7 h 4 v 12 h 3 v -2 h 4 v 1 h 4 v -15 h 3 v 3 h 4 v 10 h 4 v -8 h 3 v -1 h 4 v 5 h 4 v -9 h 3 v 4 h 4 v 9 h 4 v -4 h 3 v -8 h 4 v 4 h 4 v -3 h 3 v -3 h 4 v -13 h 4 v 15 h 3 v -4 h 4 v -10 h 4 v 15 h 3 v -8 h 4 v 6 h 4 v -4 h 3 v -4 h 4 v 9 h 4 v -3 h 3 v -5 h 4 v -5 h 4 v 14 h 3 v -10 h 4 v -8 h 4 v 9 h 3 v -5 h 4 v -5 h 4 v 6 h 3 v 9 h 4 v -17 h 4 v 12 h 3 v -4 h 4 v 2 h 4 v -5 h 3 v 12 h 4 v -9 h 4 v 3 h 3 v 1 h 4 v -3 h 4 v -8 h 3 v 13 h 4 v -10 h 4 v 3 h 3 v -5 h 4 v 4 h 4 v -1 h 3 v 2 h 4 v 3 h 4 v 1 h 3 v -15 h 4 v 17 h 4 v -15 h 3 v 12 h 4 v -7 h 4 v 8 h 3 v -14 h 4 v 9 h 4 v -2 h 3 v -2 h 8 v -1 h 3 v 11 h 4 v -5 h 4 v 4 h 3 v -15 h 4 v 15 h 4 v 8 h 3 v -26 h 4 v 22 h 4 v -9 h 3 v -4 h 8 v 6 h 3 v -7 h 4 v 4 h 4 v 13 h 4 v -6 h 3 v -8 h 4 v 1 h 4 v 1 h 3 v -7 h 4 v 13 h 4 v -10 h 3 v -4 h 4 v -11 h 4 v 27 h 3 v -20 h 4 v 22 h 4 v -7 h 3 v -4 h 4 v -5 h 4 v -4 h 3 v 31 h 4 v -22 h 4 v -13 h 3 v -6 h 4 v 18 h 4 v 11 h 3 v -24 h 4 v 22 h 4 v 2 h 3 v -21 h 4 v -4 h 4 v -12 h 3 v 9 h 4 v 46 h 4 v -33 h 3 v 8 h 4 v -58 h 4 v 72 h 3 v -41 h 4 v 9 h 4 v 9 h 3 v -4 h 4 v 47 h 4 v -98 h 3 v 44 h 4 v -18 h 4 v 5 h 3 v -25 h 4 v 31 h 4 V 92 h 3 v 79 h 4 v 26 h 4 V 98 h 3 v 173 h 4 V 531 H 0 Z"
             style="fill:none;stroke:#0000ff;stroke-width:1;stroke-linejoin:miter"
             id="path18" /></g></svg><g
         id="g92"><g
           transform="translate(0,528)"
           id="g60"><path
             d="M 0,0 H 734 M 0,-20 V 0 M 15,-10 V 0 M 29,-10 V 0 M 44,-10 V 0 M 59,-10 V 0 M 73,-20 V 0 M 88,-10 V 0 m 15,-10 V 0 m 14,-10 V 0 m 15,-10 V 0 m 15,-20 V 0 m 14,-10 V 0 m 15,-10 V 0 m 15,-10 V 0 m 15,-10 V 0 m 14,-20 V 0 m 15,-10 V 0 m 15,-10 V 0 m 14,-10 V 0 m 15,-10 V 0 m 15,-20 V 0 m 14,-10 V 0 m 15,-10 V 0 m 15,-10 V 0 m 14,-10 V 0 m 15,-20 V 0 m 15,-10 V 0 m 14,-10 V 0 m 15,-10 V 0 m 15,-10 V 0 m 14,-20 V 0 m 15,-10 V 0 m 15,-10 V 0 m 14,-10 V 0 m 15,-10 V 0 m 15,-20 V 0 m 14,-10 V 0 m 15,-10 V 0 m 15,-10 V 0 m 15,-10 V 0 m 14,-20 V 0 m 15,-10 V 0 m 15,-10 V 0 m 14,-10 V 0 m 15,-10 V 0 m 15,-20 V 0 m 14,-10 V 0 m 15,-10 V 0 m 15,-10 V 0 m 14,-10 V 0 m 15,-20 V 0"
             style="stroke:#000000;stroke-width:1"
             id="path24" /><g
             font-family="Arial"
             font-size="23px"
             xml:space="preserve"
             fill="#000000"
             text-anchor="middle"
             id="g48"><text
               dy="0.80000001em"
               transform="translate(0,5)"
               id="text26">-30</text><text
               dy="0.80000001em"
               transform="translate(73,5)"
               id="text28">-25</text><text
               dy="0.80000001em"
               transform="translate(147,5)"
               id="text30">-20</text><text
               dy="0.80000001em"
               transform="translate(220,5)"
               id="text32">-15</text><text
               dy="0.80000001em"
               transform="translate(294,5)"
               id="text34">-10</text><text
               dy="0.80000001em"
               transform="translate(367,5)"
               id="text36">-5</text><text
               dy="0.80000001em"
               transform="translate(440,5)"
               id="text38">0</text><text
               dy="0.80000001em"
               transform="translate(514,5)"
               id="text40">5</text><text
               dy="0.80000001em"
               transform="translate(587,5)"
               id="text42">10</text><text
               dy="0.80000001em"
               transform="translate(661,5)"
               id="text44">15</text><text
               dy="0.80000001em"
               transform="translate(734,5)"
               id="text46">20</text></g><rect
             x="0"
             y="0"
             width="734"
             height="26"
             style="opacity:0"
             id="rect50" /><g
             font-family="Arial"
             font-size="23px"
             xml:space="preserve"
             transform="translate(734,37)"
             id="g58"><g
               transform="translate(-19,7)"
               id="g56"><text
                 fill="#000000"
                 font-size="23px"
                 id="text52">v</text><text
                 fill="#000000"
                 font-size="14px"
                 transform="translate(12,4)"
                 id="text54">z</text></g></g></g><g
           id="g90"><path
             d="m 0,0 v 528 m 28,0 H 0 M 14,517 H 0 M 14,507 H 0 M 14,496 H 0 M 14,486 H 0 M 28,475 H 0 M 14,465 H 0 M 14,454 H 0 M 14,444 H 0 M 14,433 H 0 M 28,422 H 0 M 14,412 H 0 M 14,401 H 0 M 14,391 H 0 M 14,380 H 0 M 28,370 H 0 M 14,359 H 0 M 14,348 H 0 M 14,338 H 0 M 14,327 H 0 M 28,317 H 0 M 14,306 H 0 M 14,296 H 0 M 14,285 H 0 M 14,275 H 0 M 28,264 H 0 M 14,253 H 0 M 14,243 H 0 M 14,232 H 0 M 14,222 H 0 M 28,211 H 0 M 14,201 H 0 M 14,190 H 0 M 14,180 H 0 M 14,169 H 0 M 28,158 H 0 M 14,148 H 0 M 14,137 H 0 M 14,127 H 0 M 14,116 H 0 M 28,106 H 0 M 14,95 H 0 M 14,84 H 0 M 14,74 H 0 M 14,63 H 0 M 28,53 H 0 M 14,42 H 0 M 14,32 H 0 M 14,21 H 0 M 14,11 H 0 M 28,0 H 0"
             style="stroke:#000000;stroke-width:1"
             id="path62" /><g
             font-family="Arial"
             font-size="23px"
             xml:space="preserve"
             fill="#000000"
             text-anchor="end"
             id="g86"><text
               dominant-baseline="middle"
               transform="translate(-3,528)"
               id="text64">0</text><text
               dominant-baseline="middle"
               transform="translate(-3,475)"
               id="text66">0.1</text><text
               dominant-baseline="middle"
               transform="translate(-3,422)"
               id="text68">0.2</text><text
               dominant-baseline="middle"
               transform="translate(-3,370)"
               id="text70">0.3</text><text
               dominant-baseline="middle"
               transform="translate(-3,317)"
               id="text72">0.4</text><text
               dominant-baseline="middle"
               transform="translate(-3,264)"
               id="text74">0.5</text><text
               dominant-baseline="middle"
               transform="translate(-3,211)"
               id="text76">0.6</text><text
               dominant-baseline="middle"
               transform="translate(-3,158)"
               id="text78">0.7</text><text
               dominant-baseline="middle"
               transform="translate(-3,106)"
               id="text80">0.8</text><text
               dominant-baseline="middle"
               transform="translate(-3,53)"
               id="text82">0.9</text><text
               dominant-baseline="middle"
               transform="translate(-3)"
               id="text84">1</text></g><rect
             x="-35"
             y="0"
             width="35"
             height="528"
             style="opacity:0"
             id="rect88" /></g></g><path
         d="M 2,2 H 17 V -3 H -3 v 20 h 5 z"
         style="opacity:0"
         id="path94" /><path
         d="m 732,2 h -15 v -5 h 20 v 20 h -5 z"
         style="opacity:0"
         id="path96" /><path
         d="m 2,526 h 15 v 5 H -3 v -20 h 5 z"
         style="opacity:0"
         id="path98" /><path
         d="m 732,526 h -15 v 5 h 20 v -20 h -5 z"
         style="opacity:0"
         id="path100" /><path
         d="M -3,18 H 2 V 510 H -3 Z"
         style="opacity:0"
         id="path102" /><path
         d="m 737,18 h -5 v 492 h 5 z"
         style="opacity:0"
         id="path104" /><path
         d="M 18,-3 V 2 H 716 V -3 Z"
         style="opacity:0"
         id="path106" /><path
         d="m 18,531 v -5 h 698 v 5 z"
         style="opacity:0"
         id="path108" /><style
         id="style110">
.jsroot rect.h1bin { stroke: #4572A7; fill: #4572A7; opacity: 0; }
.jsroot rect.zoom { stroke: steelblue; fill-opacity: 0.1; }
.jsroot path.zoom { stroke: steelblue; fill-opacity: 0.1; }
.jsroot svg:not(:root) { overflow: hidden; }</style></g><g
       transform="translate(602,79)"
       font-family="Arial"
       font-size="16px"
       xml:space="preserve"
       id="g140"><path
         d="M 0,0 H 211 V 70 H 0 Z"
         style="fill:#ffffff;stroke:#000000;stroke-width:1"
         id="path114" /><path
         d="M 6,19 H 47"
         style="stroke:#ff0000;stroke-width:1"
         id="path116" /><text
         fill="#000000"
         text-anchor="start"
         dominant-baseline="middle"
         transform="translate(53,19)"
         id="text118">Raw</text><path
         d="M 6,52 H 47"
         style="stroke:#0000ff;stroke-width:1"
         id="path120" /><text
         fill="#000000"
         text-anchor="start"
         dominant-baseline="middle"
         transform="translate(53,52)"
         id="text122">Geometry-corrected</text><path
         d="M 2,2 H 17 V -3 H -3 v 20 h 5 z"
         style="opacity:0"
         id="path124" /><path
         d="m 209,2 h -15 v -5 h 20 v 20 h -5 z"
         style="opacity:0"
         id="path126" /><path
         d="m 2,68 h 15 v 5 H -3 V 53 h 5 z"
         style="opacity:0"
         id="path128" /><path
         d="m 209,68 h -15 v 5 h 20 V 53 h -5 z"
         style="opacity:0"
         id="path130" /><path
         d="M -3,18 H 2 V 52 H -3 Z"
         style="opacity:0"
         id="path132" /><path
         d="m 214,18 h -5 v 34 h 5 z"
         style="opacity:0"
         id="path134" /><path
         d="M 18,-3 V 2 H 193 V -3 Z"
         style="opacity:0"
         id="path136" /><path
         d="m 18,73 v -5 h 175 v 5 z"
         style="opacity:0"
         id="path138" /></g><g
       transform="translate(281,3)"
       font-family="Arial"
       font-size="29px"
       xml:space="preserve"
       id="g168"><path
         d="M 0,0 H 356 V 39 H 0 Z"
         style="fill:none"
         id="path142" /><g
         transform="matrix(0.883,0,0,0.883,8,28)"
         id="g150"><text
           fill="#000000"
           font-size="33px"
           id="text144">v</text><text
           fill="#000000"
           font-size="20px"
           transform="translate(17,6)"
           id="text146">z</text><text
           fill="#000000"
           font-size="33px"
           x="27"
           id="text148">  FMT (2 layers) efficiency</text></g><path
         d="M 2,2 H 17 V -3 H -3 v 20 h 5 z"
         style="opacity:0"
         id="path152" /><path
         d="m 354,2 h -15 v -5 h 20 v 20 h -5 z"
         style="opacity:0"
         id="path154" /><path
         d="m 2,37 h 15 v 5 H -3 V 22 h 5 z"
         style="opacity:0"
         id="path156" /><path
         d="m 354,37 h -15 v 5 h 20 V 22 h -5 z"
         style="opacity:0"
         id="path158" /><path
         d="m -3,18 h 5 v 3 h -5 z"
         style="opacity:0"
         id="path160" /><path
         d="m 359,18 h -5 v 3 h 5 z"
         style="opacity:0"
         id="path162" /><path
         d="M 18,-3 V 2 H 338 V -3 Z"
         style="opacity:0"
         id="path164" /><path
         d="m 18,42 v -5 h 320 v 5 z"
         style="opacity:0"
         id="path166" /></g></g><g
     id="g645"
     transform="translate(977,720)"><path
       style="fill:#ffffff"
       d="M 0,0 H 917 V 660 H 0 Z"
       id="path405" /><g
       id="g559"><g
         transform="translate(92,66)"
         id="g505"><title
           id="title407" /><path
           d="M 0,0 H 734 V 528 H 0 Z"
           style="fill:#ffffff;stroke:#000000;stroke-width:1"
           id="path409" /><g
           id="g415"><path
             d="M 17,0 V 528 M 134,0 V 528 M 250,0 V 528 M 367,0 V 528 M 484,0 V 528 M 600,0 V 528 M 717,0 v 528"
             style="stroke:#000000;stroke-width:1;stroke-dasharray:1, 2"
             id="path411" /><path
             d="M 0,528 H 734 M 0,475 H 734 M 0,422 H 734 M 0,370 H 734 M 0,317 H 734 M 0,264 H 734 M 0,211 H 734 M 0,158 H 734 M 0,106 H 734 M 0,53 H 734 M 0,0 h 734"
             style="stroke:#000000;stroke-width:1;stroke-dasharray:1, 2"
             id="path413" /></g><svg
           x="0"
           y="0"
           overflow="hidden"
           width="734"
           height="528"
           viewBox="0 0 734 528"
           version="1.1"
           id="svg425"><g
             id="g419"><path
               d="m 0,338 h 4 v 5 h 7 v -1 h 4 v -12 h 3 v -9 h 4 v 4 h 4 v -8 h 3 v -7 h 4 v -12 h 4 v -3 h 3 v -4 h 4 v -8 h 4 v -5 h 3 v -3 h 4 v -9 h 7 v 1 h 8 v 13 h 3 v 17 h 4 v 57 h 4 v 32 h 3 v 48 h 4 v -27 h 4 v -44 h 3 v -19 h 4 v 1 h 4 v -2 h 3 v -10 h 8 v -2 h 11 v -1 h 3 v 3 h 4 v -1 h 4 v 3 h 3 v -7 h 4 v -5 h 4 v -5 h 7 v -8 h 4 v -1 h 3 v -12 h 4 v 3 h 4 v -10 h 3 v -5 h 4 v -5 h 4 v 4 h 4 v 18 h 3 v 6 h 4 v 22 h 4 v 30 h 3 v 47 h 4 v 31 h 4 v 8 h 3 v -50 h 4 v -20 h 4 v -27 h 3 v -27 h 4 v 3 h 4 v 4 h 3 v 9 h 4 v -8 h 4 v 1 h 3 v -6 h 4 v 13 h 4 v -2 h 3 v -2 h 4 v -6 h 11 v 3 h 4 v -6 h 3 v -3 h 4 v 10 h 4 v -7 h 3 v -6 h 4 v -2 h 4 v -3 h 3 v -7 h 4 v -14 h 4 v -6 h 3 v 10 h 4 v 17 h 4 v 4 h 3 v 10 h 4 v 46 h 4 v 37 h 3 v -17 h 4 v -7 h 4 v -37 h 3 v -8 h 4 v -7 h 4 v -5 h 3 v -6 h 8 v 13 h 3 v 1 h 4 v -6 h 4 v 2 h 3 v 1 h 4 v 2 h 4 v -4 h 3 v -5 h 4 v -7 h 4 v -1 h 3 v 2 h 4 v -1 h 4 v -10 h 3 v -3 h 8 v -12 h 3 v -5 h 4 v -17 h 4 v 1 h 3 v 6 h 4 v -12 h 4 v 25 h 3 v 33 h 4 v 52 h 4 v 30 h 3 v 11 h 4 v -34 h 4 v 2 h 3 v -34 h 4 v -14 h 4 v -3 h 3 v 10 h 4 v 11 h 4 v -10 h 3 v 4 h 4 v -1 h 4 v 4 h 3 v 1 h 4 v -8 h 4 v -12 h 3 v -1 h 4 v -1 h 4 v -5 h 3 v -2 h 4 v -3 h 4 v -3 h 3 v -2 h 4 v -9 h 4 v -13 h 3 v 7 h 4 v -26 h 4 v -5 h 4 v 2 h 3 v 6 h 4 v 9 h 4 v 48 h 3 v 16 h 4 v 38 h 4 v 29 h 3 v -22 h 4 v -29 h 4 v -23 h 3 v -4 h 4 v 10 h 4 v -16 h 3 v -3 h 4 v 5 h 4 v 8 h 3 v -1 h 4 v -8 h 4 v -9 h 3 v 3 h 4 v -5 h 4 v -7 h 3 v -10 h 4 v -4 h 4 v 8 h 3 v -8 h 4 v -14 h 4 v -5 h 3 v 2 h 8 v -7 h 3 v -7 h 4 v 5 h 4 v 19 h 3 v 9 h 4 v 15 h 4 v 47 h 3 v 34 h 4 v 29 h 4 v 20 h 3 v -37 h 4 v -35 h 4 v -21 h 3 v -29 h 4 v -2 h 4 v 2 h 3 v 7 h 4 v 2 h 4 v -4 h 3 v -3 h 4 V 531 H 0 Z"
               style="fill:none;stroke:#ff0000;stroke-width:1;stroke-linejoin:miter"
               id="path417" /></g><g
             id="g423"><path
               d="m 0,206 h 4 v 5 h 3 v 6 h 4 v 15 h 4 v -5 h 3 v -11 h 4 v 6 h 4 v -3 h 3 v -6 h 4 v -12 h 4 v -11 h 3 v -3 h 4 v -6 h 4 v -4 h 3 v -9 h 4 v -10 h 4 v -4 h 11 v 5 h 3 v -20 h 4 v 43 h 4 v -63 h 3 v 117 h 4 v -25 h 4 v -33 h 3 v -6 h 4 v 2 h 4 v 6 h 3 v 8 h 4 v 3 h 4 v 2 h 3 v -3 h 4 v 15 h 4 v 11 h 3 v 11 h 4 v 3 h 11 v 1 h 4 v -12 h 3 v -7 h 4 v -11 h 4 v 2 h 3 v -20 h 4 v -3 h 4 v -15 h 3 v 4 h 4 v -5 h 4 v -7 h 4 v 13 h 3 v -14 h 4 v 14 h 4 v -18 h 3 v 53 h 4 v -29 h 4 v 19 h 3 v -9 h 4 v -8 h 4 v -7 h 3 v -2 h 4 v 12 h 4 v 8 h 3 v 9 h 4 v 6 h 4 v 4 h 3 v -3 h 4 v 12 h 4 v 3 h 3 v -1 h 4 v -4 h 4 v -4 h 3 v -3 h 4 v 13 h 4 v -8 h 3 v -6 h 4 v 7 h 4 v -6 h 3 v -1 h 4 v -8 h 4 v -7 h 3 v -10 h 4 v -1 h 4 v -11 h 3 v 10 h 4 v 19 h 4 v -27 h 3 v 20 h 4 v 8 h 4 v -9 h 3 v 15 h 4 v 33 h 4 v -41 h 3 v -13 h 4 v -8 h 4 v 15 h 3 v 5 h 8 v 9 h 3 v 6 h 4 v 3 h 4 v 6 h 3 v 2 h 4 v 4 h 4 v 5 h 7 v -8 h 4 v -4 h 3 v 2 h 4 v 3 h 4 v -8 h 3 v -3 h 4 v -9 h 4 v -8 h 3 v -2 h 4 v -14 h 4 v 2 h 3 v -3 h 4 v -21 h 4 v 20 h 3 v -13 h 4 v 45 h 4 v -32 h 3 v 54 h 4 v -25 h 4 v 15 h 3 v -27 h 4 v -4 h 4 v -2 h 3 v 13 h 4 v 14 h 4 v -1 h 3 v 11 h 8 v 3 h 3 v 10 h 4 v 1 h 4 v -13 h 3 v -5 h 4 v -5 h 4 v -2 h 3 v 4 h 4 v -6 h 4 v -6 h 3 v -6 h 4 v -5 h 4 v -4 h 3 v 1 h 4 v -20 h 4 v -2 h 4 v -1 h 3 v 4 h 4 v -21 h 4 v 36 h 3 v -14 h 4 v -7 h 4 v 26 h 3 v 3 h 4 v -4 h 4 v -20 h 3 v 3 h 4 v 20 h 4 v -4 h 3 v 1 h 4 v 5 h 4 v 8 h 3 v 2 h 8 v -7 h 3 v 8 h 4 v -1 h 4 v 7 h 3 v -7 h 4 v -4 h 4 v 1 h 3 v -3 h 4 v -13 h 4 v -7 h 3 v -6 h 4 v -1 h 4 v -4 h 3 v -11 h 11 v -13 h 4 v 4 h 4 v 13 h 3 v 33 h 4 v -13 h 4 v 37 h 3 v -33 h 4 v -23 h 4 v -13 h 3 v 2 h 4 v 15 h 4 v 12 h 3 v -1 h 4 v 13 h 4 v 10 h 3 v -5 h 4 V 531 H 0 Z"
               style="fill:none;stroke:#0000ff;stroke-width:1;stroke-linejoin:miter"
               id="path421" /></g></svg><g
           id="g485"><g
             transform="translate(0,528)"
             id="g453"><path
               d="M 0,0 H 734 M 17,-20 V 0 M 41,-10 V 0 M 64,-10 V 0 M 87,-10 V 0 m 24,-10 V 0 m 23,-20 V 0 m 23,-10 V 0 m 24,-10 V 0 m 23,-10 V 0 m 23,-10 V 0 m 23,-20 V 0 m 24,-10 V 0 m 23,-10 V 0 m 23,-10 V 0 m 24,-10 V 0 m 23,-20 V 0 m 23,-10 V 0 m 24,-10 V 0 m 23,-10 V 0 m 23,-10 V 0 m 24,-20 V 0 m 23,-10 V 0 m 23,-10 V 0 m 23,-10 V 0 m 24,-10 V 0 m 23,-20 V 0 m 23,-10 V 0 m 24,-10 V 0 m 23,-10 V 0 m 23,-10 V 0 m 24,-20 V 0"
               style="stroke:#000000;stroke-width:1"
               id="path427" /><g
               font-family="Arial"
               font-size="23px"
               xml:space="preserve"
               fill="#000000"
               text-anchor="middle"
               id="g443"><text
                 dy="0.80000001em"
                 transform="translate(17,5)"
                 id="text429">-3</text><text
                 dy="0.80000001em"
                 transform="translate(134,5)"
                 id="text431">-2</text><text
                 dy="0.80000001em"
                 transform="translate(250,5)"
                 id="text433">-1</text><text
                 dy="0.80000001em"
                 transform="translate(367,5)"
                 id="text435">0</text><text
                 dy="0.80000001em"
                 transform="translate(484,5)"
                 id="text437">1</text><text
                 dy="0.80000001em"
                 transform="translate(600,5)"
                 id="text439">2</text><text
                 dy="0.80000001em"
                 transform="translate(717,5)"
                 id="text441">3</text></g><rect
               x="0"
               y="0"
               width="734"
               height="26"
               style="opacity:0"
               id="rect445" /><g
               font-family="Arial"
               font-size="23px"
               xml:space="preserve"
               transform="translate(734,37)"
               id="g451"><g
                 transform="translate(-15,8)"
                 id="g449"><text
                   fill="#000000"
                   font-size="23px"
                   id="text447">φ</text></g></g></g><g
             id="g483"><path
               d="m 0,0 v 528 m 28,0 H 0 M 14,517 H 0 M 14,507 H 0 M 14,496 H 0 M 14,486 H 0 M 28,475 H 0 M 14,465 H 0 M 14,454 H 0 M 14,444 H 0 M 14,433 H 0 M 28,422 H 0 M 14,412 H 0 M 14,401 H 0 M 14,391 H 0 M 14,380 H 0 M 28,370 H 0 M 14,359 H 0 M 14,348 H 0 M 14,338 H 0 M 14,327 H 0 M 28,317 H 0 M 14,306 H 0 M 14,296 H 0 M 14,285 H 0 M 14,275 H 0 M 28,264 H 0 M 14,253 H 0 M 14,243 H 0 M 14,232 H 0 M 14,222 H 0 M 28,211 H 0 M 14,201 H 0 M 14,190 H 0 M 14,180 H 0 M 14,169 H 0 M 28,158 H 0 M 14,148 H 0 M 14,137 H 0 M 14,127 H 0 M 14,116 H 0 M 28,106 H 0 M 14,95 H 0 M 14,84 H 0 M 14,74 H 0 M 14,63 H 0 M 28,53 H 0 M 14,42 H 0 M 14,32 H 0 M 14,21 H 0 M 14,11 H 0 M 28,0 H 0"
               style="stroke:#000000;stroke-width:1"
               id="path455" /><g
               font-family="Arial"
               font-size="23px"
               xml:space="preserve"
               fill="#000000"
               text-anchor="end"
               id="g479"><text
                 dominant-baseline="middle"
                 transform="translate(-3,528)"
                 id="text457">0</text><text
                 dominant-baseline="middle"
                 transform="translate(-3,475)"
                 id="text459">0.1</text><text
                 dominant-baseline="middle"
                 transform="translate(-3,422)"
                 id="text461">0.2</text><text
                 dominant-baseline="middle"
                 transform="translate(-3,370)"
                 id="text463">0.3</text><text
                 dominant-baseline="middle"
                 transform="translate(-3,317)"
                 id="text465">0.4</text><text
                 dominant-baseline="middle"
                 transform="translate(-3,264)"
                 id="text467">0.5</text><text
                 dominant-baseline="middle"
                 transform="translate(-3,211)"
                 id="text469">0.6</text><text
                 dominant-baseline="middle"
                 transform="translate(-3,158)"
                 id="text471">0.7</text><text
                 dominant-baseline="middle"
                 transform="translate(-3,106)"
                 id="text473">0.8</text><text
                 dominant-baseline="middle"
                 transform="translate(-3,53)"
                 id="text475">0.9</text><text
                 dominant-baseline="middle"
                 transform="translate(-3)"
                 id="text477">1</text></g><rect
               x="-35"
               y="0"
               width="35"
               height="528"
               style="opacity:0"
               id="rect481" /></g></g><path
           d="M 2,2 H 17 V -3 H -3 v 20 h 5 z"
           style="opacity:0"
           id="path487" /><path
           d="m 732,2 h -15 v -5 h 20 v 20 h -5 z"
           style="opacity:0"
           id="path489" /><path
           d="m 2,526 h 15 v 5 H -3 v -20 h 5 z"
           style="opacity:0"
           id="path491" /><path
           d="m 732,526 h -15 v 5 h 20 v -20 h -5 z"
           style="opacity:0"
           id="path493" /><path
           d="M -3,18 H 2 V 510 H -3 Z"
           style="opacity:0"
           id="path495" /><path
           d="m 737,18 h -5 v 492 h 5 z"
           style="opacity:0"
           id="path497" /><path
           d="M 18,-3 V 2 H 716 V -3 Z"
           style="opacity:0"
           id="path499" /><path
           d="m 18,531 v -5 h 698 v 5 z"
           style="opacity:0"
           id="path501" /><style
           id="style503">
.jsroot rect.h1bin { stroke: #4572A7; fill: #4572A7; opacity: 0; }
.jsroot rect.zoom { stroke: steelblue; fill-opacity: 0.1; }
.jsroot path.zoom { stroke: steelblue; fill-opacity: 0.1; }
.jsroot svg:not(:root) { overflow: hidden; }</style></g><g
         transform="translate(582,79)"
         font-family="Arial"
         font-size="17px"
         xml:space="preserve"
         id="g533"><path
           d="M 0,0 H 231 V 70 H 0 Z"
           style="fill:#ffffff;stroke:#000000;stroke-width:1"
           id="path507" /><path
           d="M 7,19 H 51"
           style="stroke:#ff0000;stroke-width:1"
           id="path509" /><text
           fill="#000000"
           text-anchor="start"
           dominant-baseline="middle"
           transform="translate(58,19)"
           id="text511">Raw</text><path
           d="M 7,52 H 51"
           style="stroke:#0000ff;stroke-width:1"
           id="path513" /><text
           fill="#000000"
           text-anchor="start"
           dominant-baseline="middle"
           transform="translate(58,52)"
           id="text515">Geometry-corrected</text><path
           d="M 2,2 H 17 V -3 H -3 v 20 h 5 z"
           style="opacity:0"
           id="path517" /><path
           d="m 229,2 h -15 v -5 h 20 v 20 h -5 z"
           style="opacity:0"
           id="path519" /><path
           d="m 2,68 h 15 v 5 H -3 V 53 h 5 z"
           style="opacity:0"
           id="path521" /><path
           d="m 229,68 h -15 v 5 h 20 V 53 h -5 z"
           style="opacity:0"
           id="path523" /><path
           d="M -3,18 H 2 V 52 H -3 Z"
           style="opacity:0"
           id="path525" /><path
           d="m 234,18 h -5 v 34 h 5 z"
           style="opacity:0"
           id="path527" /><path
           d="M 18,-3 V 2 H 213 V -3 Z"
           style="opacity:0"
           id="path529" /><path
           d="m 18,73 v -5 h 195 v 5 z"
           style="opacity:0"
           id="path531" /></g><g
         transform="translate(285,3)"
         font-family="Arial"
         font-size="28px"
         xml:space="preserve"
         id="g557"><path
           d="M 0,0 H 346 V 39 H 0 Z"
           style="fill:none"
           id="path535" /><g
           transform="matrix(0.851,0,0,0.851,8,29)"
           id="g539"><text
             fill="#000000"
             font-size="33px"
             id="text537">φ  FMT (2 layers) efficiency</text></g><path
           d="M 2,2 H 17 V -3 H -3 v 20 h 5 z"
           style="opacity:0"
           id="path541" /><path
           d="m 344,2 h -15 v -5 h 20 v 20 h -5 z"
           style="opacity:0"
           id="path543" /><path
           d="m 2,37 h 15 v 5 H -3 V 22 h 5 z"
           style="opacity:0"
           id="path545" /><path
           d="m 344,37 h -15 v 5 h 20 V 22 h -5 z"
           style="opacity:0"
           id="path547" /><path
           d="m -3,18 h 5 v 3 h -5 z"
           style="opacity:0"
           id="path549" /><path
           d="m 349,18 h -5 v 3 h 5 z"
           style="opacity:0"
           id="path551" /><path
           d="M 18,-3 V 2 H 328 V -3 Z"
           style="opacity:0"
           id="path553" /><path
           d="m 18,42 v -5 h 310 v 5 z"
           style="opacity:0"
           id="path555" /></g></g></g><g
     id="g947"
     transform="translate(0,720)"><path
       style="fill:#ffffff"
       d="M 0,0 H 917 V 660 H 0 Z"
       id="path701" /><g
       id="g859"><g
         transform="translate(92,66)"
         id="g807"><title
           id="title703" /><path
           d="M 0,0 H 734 V 528 H 0 Z"
           style="fill:#ffffff;stroke:#000000;stroke-width:1"
           id="path705" /><g
           id="g711"><path
             d="M 0,0 V 528 M 73,0 V 528 M 147,0 V 528 M 220,0 V 528 M 294,0 V 528 M 367,0 V 528 M 440,0 V 528 M 514,0 V 528 M 587,0 V 528 M 661,0 V 528 M 734,0 v 528"
             style="stroke:#000000;stroke-width:1;stroke-dasharray:1, 2"
             id="path707" /><path
             d="M 0,528 H 734 M 0,475 H 734 M 0,422 H 734 M 0,370 H 734 M 0,317 H 734 M 0,264 H 734 M 0,211 H 734 M 0,158 H 734 M 0,106 H 734 M 0,53 H 734 M 0,0 h 734"
             style="stroke:#000000;stroke-width:1;stroke-dasharray:1, 2"
             id="path709" /></g><svg
           x="0"
           y="0"
           overflow="hidden"
           width="734"
           height="528"
           viewBox="0 0 734 528"
           version="1.1"
           id="svg721"><g
             id="g715"><path
               d="m 0,528 h 22 v -41 h 4 v -37 h 3 v -29 h 4 v -25 h 4 v -6 h 3 v -3 h 4 v -1 h 4 v -18 h 3 v -2 h 4 v -6 h 4 v -10 h 3 v -3 h 4 v -3 h 4 v 14 h 3 v -1 h 4 v -8 h 4 v 6 h 3 v -6 h 4 v -1 h 4 v -1 h 3 v -8 h 4 v -4 h 4 v -2 h 3 v -5 h 4 v -5 h 4 v -2 h 3 v -3 h 4 v -2 h 4 v -4 h 3 v -1 h 4 v -5 h 4 v 2 h 3 v -2 h 4 v -1 h 4 v -3 h 3 v 2 h 4 v 2 h 4 v 1 h 3 v -6 h 4 v 2 h 7 v 1 h 4 v -3 h 4 v -1 h 4 v 1 h 3 v 1 h 4 v 4 h 4 v -2 h 3 v 1 h 4 v 2 h 4 v -2 h 3 v 1 h 4 v 5 h 4 v -7 h 3 v 3 h 4 v -1 h 4 v 4 h 3 v -3 h 4 v 3 h 4 v 5 h 3 v -7 h 8 v 6 h 11 v 2 h 3 v -5 h 4 v 5 h 4 v 1 h 3 v -2 h 4 v 1 h 4 v 5 h 3 v -2 h 4 v 3 h 4 v -2 h 3 v -1 h 4 v 5 h 4 v 2 h 7 v 2 h 7 v -3 h 4 v 1 h 4 v 3 h 7 v 1 h 4 v -1 h 7 v 3 h 4 v 1 h 3 v 2 h 8 v -5 h 3 v 3 h 4 v 1 h 4 v -1 h 3 v -2 h 4 v 6 h 7 v 3 h 4 v -1 h 4 v -3 h 3 v 6 h 4 v -2 h 4 v 6 h 3 v -2 h 4 v 2 h 4 v -3 h 3 v 4 h 4 v 2 h 11 v -3 h 7 v 1 h 4 v 2 h 7 v -3 h 4 v 4 h 4 v -2 h 3 v 6 h 4 v 1 h 4 v -2 h 3 v 1 h 4 v -2 h 4 v 8 h 3 v -2 h 4 v -2 h 4 v 1 h 3 v 3 h 4 v -7 h 4 v 2 h 3 v 3 h 4 v -1 h 4 v 4 h 3 v -5 h 4 v 3 h 4 v -2 h 3 v 7 h 4 v -3 h 4 v -5 h 3 v 8 h 4 v 1 h 4 v -7 h 4 v 1 h 3 v 2 h 4 v -4 h 4 v 5 h 3 v -4 h 4 v -7 h 4 v 6 h 3 v -6 h 4 v 1 h 4 v 13 h 3 v -30 h 4 v 22 h 4 v 4 h 3 v 167 h 136 v 3 H 0 Z"
               style="fill:none;stroke:#ff0000;stroke-width:1;stroke-linejoin:miter"
               id="path713" /></g><g
             id="g719"><path
               d="m 0,528 h 22 v -75 h 4 V 321 h 3 v -53 h 4 v -47 h 4 v 22 h 3 v -14 h 4 v -1 h 4 v -16 h 3 v 7 h 4 v -1 h 4 v -17 h 3 v -10 h 4 v -1 h 7 v 2 h 4 v -11 h 4 v 5 h 3 v -11 h 4 v 4 h 4 v 3 h 3 v -5 h 4 v -3 h 4 v -2 h 3 v -5 h 4 v 1 h 4 v -1 h 7 v -2 h 4 v -4 h 3 v 6 h 4 v -5 h 4 v 3 h 3 v -1 h 4 v -1 h 4 v 2 h 3 v 5 h 4 v 1 h 4 v -2 h 11 v 1 h 3 v 2 h 4 v -3 h 4 v 2 h 4 v -2 h 3 v 5 h 4 v 2 h 4 v -1 h 3 v 6 h 4 v 2 h 4 v -5 h 3 v 3 h 4 v 4 h 4 v -3 h 7 v 1 h 4 v 7 h 3 v -8 h 4 v 7 h 4 v 5 h 3 v -9 h 4 v 3 h 4 v 8 h 3 v 1 h 4 v -4 h 4 v 6 h 3 v -5 h 4 v 4 h 7 v -3 h 4 v 2 h 4 v 7 h 14 v -1 h 4 v 5 h 4 v 4 h 3 v -2 h 4 v 3 h 7 v -2 h 4 v 1 h 4 v 2 h 3 v 2 h 4 v 3 h 4 v -6 h 3 v 4 h 4 v 2 h 4 v 3 h 3 v -1 h 8 v -5 h 3 v 4 h 4 v 4 h 4 v -3 h 3 v -2 h 4 v 5 h 4 v 2 h 3 v 2 h 4 v 2 h 4 v -5 h 3 v 8 h 4 v -1 h 4 v 6 h 3 v -4 h 11 v 5 h 8 v 1 h 7 v -4 h 4 v -1 h 3 v 3 h 4 v 5 h 4 v -3 h 3 v -3 h 4 v 7 h 4 v -3 h 3 v 5 h 8 v -1 h 3 v 5 h 4 v -6 h 4 v 13 h 3 v -6 h 4 v -1 h 4 v 2 h 3 v 3 h 4 v -8 h 4 v 3 h 3 v 4 h 4 v -1 h 4 v 3 h 3 v 1 h 4 v 3 h 4 v -2 h 3 v 8 h 4 v -4 h 4 v -7 h 3 v 11 h 4 v 2 h 4 v -4 h 4 v 2 h 3 v 3 h 4 v -3 h 4 v 6 h 3 v 2 h 8 v 6 h 3 v -3 h 4 v 12 h 4 v 28 h 3 v -26 h 4 v 43 h 4 v 27 h 3 v 167 h 136 v 3 H 0 Z"
               style="fill:none;stroke:#0000ff;stroke-width:1;stroke-linejoin:miter"
               id="path717" /></g></svg><g
           id="g787"><g
             transform="translate(0,528)"
             id="g755"><path
               d="M 0,0 H 734 M 0,-20 V 0 M 15,-10 V 0 M 29,-10 V 0 M 44,-10 V 0 M 59,-10 V 0 M 73,-20 V 0 M 88,-10 V 0 m 15,-10 V 0 m 14,-10 V 0 m 15,-10 V 0 m 15,-20 V 0 m 14,-10 V 0 m 15,-10 V 0 m 15,-10 V 0 m 15,-10 V 0 m 14,-20 V 0 m 15,-10 V 0 m 15,-10 V 0 m 14,-10 V 0 m 15,-10 V 0 m 15,-20 V 0 m 14,-10 V 0 m 15,-10 V 0 m 15,-10 V 0 m 14,-10 V 0 m 15,-20 V 0 m 15,-10 V 0 m 14,-10 V 0 m 15,-10 V 0 m 15,-10 V 0 m 14,-20 V 0 m 15,-10 V 0 m 15,-10 V 0 m 14,-10 V 0 m 15,-10 V 0 m 15,-20 V 0 m 14,-10 V 0 m 15,-10 V 0 m 15,-10 V 0 m 15,-10 V 0 m 14,-20 V 0 m 15,-10 V 0 m 15,-10 V 0 m 14,-10 V 0 m 15,-10 V 0 m 15,-20 V 0 m 14,-10 V 0 m 15,-10 V 0 m 15,-10 V 0 m 14,-10 V 0 m 15,-20 V 0"
               style="stroke:#000000;stroke-width:1"
               id="path723" /><g
               font-family="Arial"
               font-size="23px"
               xml:space="preserve"
               fill="#000000"
               text-anchor="middle"
               id="g747"><text
                 dy="0.80000001em"
                 transform="translate(0,5)"
                 id="text725">0</text><text
                 dy="0.80000001em"
                 transform="translate(73,5)"
                 id="text727">1</text><text
                 dy="0.80000001em"
                 transform="translate(147,5)"
                 id="text729">2</text><text
                 dy="0.80000001em"
                 transform="translate(220,5)"
                 id="text731">3</text><text
                 dy="0.80000001em"
                 transform="translate(294,5)"
                 id="text733">4</text><text
                 dy="0.80000001em"
                 transform="translate(367,5)"
                 id="text735">5</text><text
                 dy="0.80000001em"
                 transform="translate(440,5)"
                 id="text737">6</text><text
                 dy="0.80000001em"
                 transform="translate(514,5)"
                 id="text739">7</text><text
                 dy="0.80000001em"
                 transform="translate(587,5)"
                 id="text741">8</text><text
                 dy="0.80000001em"
                 transform="translate(661,5)"
                 id="text743">9</text><text
                 dy="0.80000001em"
                 transform="translate(734,5)"
                 id="text745">10</text></g><rect
               x="0"
               y="0"
               width="734"
               height="26"
               style="opacity:0"
               id="rect749" /><g
               font-family="Arial"
               font-size="23px"
               xml:space="preserve"
               transform="translate(734,37)"
               id="g753"><text
                 fill="#000000"
                 text-anchor="end"
                 dominant-baseline="middle"
                 id="text751">p</text></g></g><g
             id="g785"><path
               d="m 0,0 v 528 m 28,0 H 0 M 14,517 H 0 M 14,507 H 0 M 14,496 H 0 M 14,486 H 0 M 28,475 H 0 M 14,465 H 0 M 14,454 H 0 M 14,444 H 0 M 14,433 H 0 M 28,422 H 0 M 14,412 H 0 M 14,401 H 0 M 14,391 H 0 M 14,380 H 0 M 28,370 H 0 M 14,359 H 0 M 14,348 H 0 M 14,338 H 0 M 14,327 H 0 M 28,317 H 0 M 14,306 H 0 M 14,296 H 0 M 14,285 H 0 M 14,275 H 0 M 28,264 H 0 M 14,253 H 0 M 14,243 H 0 M 14,232 H 0 M 14,222 H 0 M 28,211 H 0 M 14,201 H 0 M 14,190 H 0 M 14,180 H 0 M 14,169 H 0 M 28,158 H 0 M 14,148 H 0 M 14,137 H 0 M 14,127 H 0 M 14,116 H 0 M 28,106 H 0 M 14,95 H 0 M 14,84 H 0 M 14,74 H 0 M 14,63 H 0 M 28,53 H 0 M 14,42 H 0 M 14,32 H 0 M 14,21 H 0 M 14,11 H 0 M 28,0 H 0"
               style="stroke:#000000;stroke-width:1"
               id="path757" /><g
               font-family="Arial"
               font-size="23px"
               xml:space="preserve"
               fill="#000000"
               text-anchor="end"
               id="g781"><text
                 dominant-baseline="middle"
                 transform="translate(-3,528)"
                 id="text759">0</text><text
                 dominant-baseline="middle"
                 transform="translate(-3,475)"
                 id="text761">0.1</text><text
                 dominant-baseline="middle"
                 transform="translate(-3,422)"
                 id="text763">0.2</text><text
                 dominant-baseline="middle"
                 transform="translate(-3,370)"
                 id="text765">0.3</text><text
                 dominant-baseline="middle"
                 transform="translate(-3,317)"
                 id="text767">0.4</text><text
                 dominant-baseline="middle"
                 transform="translate(-3,264)"
                 id="text769">0.5</text><text
                 dominant-baseline="middle"
                 transform="translate(-3,211)"
                 id="text771">0.6</text><text
                 dominant-baseline="middle"
                 transform="translate(-3,158)"
                 id="text773">0.7</text><text
                 dominant-baseline="middle"
                 transform="translate(-3,106)"
                 id="text775">0.8</text><text
                 dominant-baseline="middle"
                 transform="translate(-3,53)"
                 id="text777">0.9</text><text
                 dominant-baseline="middle"
                 transform="translate(-3)"
                 id="text779">1</text></g><rect
               x="-35"
               y="0"
               width="35"
               height="528"
               style="opacity:0"
               id="rect783" /></g></g><path
           d="M 2,2 H 17 V -3 H -3 v 20 h 5 z"
           style="opacity:0"
           id="path789" /><path
           d="m 732,2 h -15 v -5 h 20 v 20 h -5 z"
           style="opacity:0"
           id="path791" /><path
           d="m 2,526 h 15 v 5 H -3 v -20 h 5 z"
           style="opacity:0"
           id="path793" /><path
           d="m 732,526 h -15 v 5 h 20 v -20 h -5 z"
           style="opacity:0"
           id="path795" /><path
           d="M -3,18 H 2 V 510 H -3 Z"
           style="opacity:0"
           id="path797" /><path
           d="m 737,18 h -5 v 492 h 5 z"
           style="opacity:0"
           id="path799" /><path
           d="M 18,-3 V 2 H 716 V -3 Z"
           style="opacity:0"
           id="path801" /><path
           d="m 18,531 v -5 h 698 v 5 z"
           style="opacity:0"
           id="path803" /><style
           id="style805">
.jsroot rect.h1bin { stroke: #4572A7; fill: #4572A7; opacity: 0; }
.jsroot rect.zoom { stroke: steelblue; fill-opacity: 0.1; }
.jsroot path.zoom { stroke: steelblue; fill-opacity: 0.1; }
.jsroot svg:not(:root) { overflow: hidden; }</style></g><g
         transform="translate(590,79)"
         font-family="Arial"
         font-size="17px"
         xml:space="preserve"
         id="g835"><path
           d="M 0,0 H 223 V 77 H 0 Z"
           style="fill:#ffffff;stroke:#000000;stroke-width:1"
           id="path809" /><path
           d="M 7,20 H 49"
           style="stroke:#ff0000;stroke-width:1"
           id="path811" /><text
           fill="#000000"
           text-anchor="start"
           dominant-baseline="middle"
           transform="translate(56,20)"
           id="text813">Raw</text><path
           d="M 7,57 H 49"
           style="stroke:#0000ff;stroke-width:1"
           id="path815" /><text
           fill="#000000"
           text-anchor="start"
           dominant-baseline="middle"
           transform="translate(56,57)"
           id="text817">Geometry-corrected</text><path
           d="M 2,2 H 17 V -3 H -3 v 20 h 5 z"
           style="opacity:0"
           id="path819" /><path
           d="m 221,2 h -15 v -5 h 20 v 20 h -5 z"
           style="opacity:0"
           id="path821" /><path
           d="m 2,75 h 15 v 5 H -3 V 60 h 5 z"
           style="opacity:0"
           id="path823" /><path
           d="m 221,75 h -15 v 5 h 20 V 60 h -5 z"
           style="opacity:0"
           id="path825" /><path
           d="M -3,18 H 2 V 59 H -3 Z"
           style="opacity:0"
           id="path827" /><path
           d="m 226,18 h -5 v 41 h 5 z"
           style="opacity:0"
           id="path829" /><path
           d="M 18,-3 V 2 H 205 V -3 Z"
           style="opacity:0"
           id="path831" /><path
           d="m 18,80 v -5 h 187 v 5 z"
           style="opacity:0"
           id="path833" /></g><g
         transform="translate(284,3)"
         font-family="Arial"
         font-size="28px"
         xml:space="preserve"
         id="g857"><path
           d="M 0,0 H 348 V 39 H 0 Z"
           style="fill:none"
           id="path837" /><text
           fill="#000000"
           text-anchor="middle"
           dominant-baseline="middle"
           transform="translate(174,20)"
           id="text839">p  FMT (2 layers) efficiency</text><path
           d="M 2,2 H 17 V -3 H -3 v 20 h 5 z"
           style="opacity:0"
           id="path841" /><path
           d="m 346,2 h -15 v -5 h 20 v 20 h -5 z"
           style="opacity:0"
           id="path843" /><path
           d="m 2,37 h 15 v 5 H -3 V 22 h 5 z"
           style="opacity:0"
           id="path845" /><path
           d="m 346,37 h -15 v 5 h 20 V 22 h -5 z"
           style="opacity:0"
           id="path847" /><path
           d="m -3,18 h 5 v 3 h -5 z"
           style="opacity:0"
           id="path849" /><path
           d="m 351,18 h -5 v 3 h 5 z"
           style="opacity:0"
           id="path851" /><path
           d="M 18,-3 V 2 H 330 V -3 Z"
           style="opacity:0"
           id="path853" /><path
           d="m 18,42 v -5 h 312 v 5 z"
           style="opacity:0"
           id="path855" /></g></g></g><g
     id="g1192"
     transform="translate(977)"><path
       style="fill:#ffffff"
       d="M 0,0 H 917 V 660 H 0 Z"
       id="path949" /><g
       id="g1105"><g
         transform="translate(92,66)"
         id="g1051"><title
           id="title951" /><path
           d="M 0,0 H 734 V 528 H 0 Z"
           style="fill:#ffffff;stroke:#000000;stroke-width:1"
           id="path953" /><g
           id="g959"><path
             d="M 0,0 V 528 M 105,0 V 528 M 210,0 V 528 M 315,0 V 528 M 419,0 V 528 M 524,0 V 528 M 629,0 V 528 M 734,0 v 528"
             style="stroke:#000000;stroke-width:1;stroke-dasharray:1, 2"
             id="path955" /><path
             d="M 0,528 H 734 M 0,475 H 734 M 0,422 H 734 M 0,370 H 734 M 0,317 H 734 M 0,264 H 734 M 0,211 H 734 M 0,158 H 734 M 0,106 H 734 M 0,53 H 734 M 0,0 h 734"
             style="stroke:#000000;stroke-width:1;stroke-dasharray:1, 2"
             id="path957" /></g><svg
           x="0"
           y="0"
           overflow="hidden"
           width="734"
           height="528"
           viewBox="0 0 734 528"
           version="1.1"
           id="svg969"><g
             id="g963"><path
               d="m 0,496 h 4 v 32 H 117 V 380 h 4 v -47 h 4 v -11 h 3 v -1 h 4 v 12 h 7 v 7 h 4 v 3 h 4 v 6 h 3 v -4 h 4 v 1 h 7 v 5 h 4 v -3 h 4 v 1 h 7 v -4 h 4 v 1 h 4 v 2 h 7 v -3 h 7 v -5 h 4 v 1 h 4 v 2 h 3 v -2 h 8 v 2 h 3 v -2 h 4 v -5 h 4 v 4 h 3 v -4 h 4 v -4 h 4 v -3 h 3 v -3 h 4 v -2 h 4 v -2 h 3 v -2 h 4 v -5 h 4 v -2 h 3 v -5 h 4 v -6 h 4 v -2 h 3 v -4 h 8 v -4 h 3 v -3 h 4 v -3 h 4 v -6 h 7 v 2 h 4 v 11 h 3 v 3 h 4 v 5 h 4 v 6 h 3 v 5 h 4 v 2 h 4 v 4 h 3 v -3 h 4 v 5 h 4 v -6 h 3 v -3 h 4 v 3 h 7 v 6 h 8 v 6 h 3 v 7 h 4 v 2 h 4 v 5 h 3 v -1 h 4 v 11 h 4 v -4 h 7 v 4 h 4 v -5 h 3 v 5 h 4 v -10 h 4 v 6 h 3 v -3 h 4 v -6 h 4 v 5 h 3 v -4 h 4 v 3 h 7 v -10 h 8 v 7 h 3 v 2 h 4 v 8 h 4 v -3 h 3 v -6 h 8 v 9 h 3 v -6 h 4 v 2 h 4 v 1 h 3 v -7 h 4 v -4 h 4 v 3 h 3 v -2 h 4 v -3 h 4 v -3 h 3 v 5 h 4 v -3 h 4 v 3 h 3 v 4 h 4 v -9 h 4 v -3 h 3 v 8 h 4 v -4 h 4 v 8 h 3 v -8 h 4 v 3 h 7 v -3 h 4 v -3 h 4 v 10 h 4 v -6 h 3 v 19 h 4 v -24 h 4 v -2 h 3 v 8 h 4 v -6 h 4 v 5 h 3 v 21 h 4 v -21 h 4 v -13 h 3 v 15 h 4 v -12 h 4 v 25 h 3 v -16 h 4 v 6 h 7 v 11 h 4 v -33 h 4 v 33 h 3 v -28 h 4 v 18 h 4 v -11 h 3 v 2 h 4 v 15 h 4 v -3 h 3 v 14 h 4 v -2 h 4 v -18 h 3 v 10 h 4 v 11 h 4 v -4 h 3 v 7 h 4 v -27 h 4 v 25 h 3 v 7 h 8 v -15 h 3 v 51 h 4 v -21 h 4 v 31 h 3 v -29 h 4 v 37 h 4 v -39 h 3 v 33 h 4 v 16 h 4 v -20 h 3 v 10 h 4 v 5 h 4 v 21 h 3 v -1 h 4 v 89 H 0 Z"
               style="fill:none;stroke:#ff0000;stroke-width:1;stroke-linejoin:miter"
               id="path961" /></g><g
             id="g967"><path
               d="M 0,308 H 4 V 528 H 117 V 374 h 4 v -50 h 4 v -23 h 3 v -15 h 4 v 4 h 4 v -9 h 3 v -3 h 4 v -1 h 4 v 1 h 3 v -9 h 4 v -2 h 4 v -6 h 3 v 4 h 4 v -9 h 4 v -2 h 3 v 1 h 4 v -7 h 4 v -1 h 4 v 2 h 3 v -1 h 4 v -5 h 4 v -2 h 3 v -5 h 4 v -4 h 4 v 3 h 3 v -8 h 11 v -2 h 4 v -7 h 4 v 4 h 3 v -3 h 4 v -3 h 4 v -4 h 3 v -1 h 4 v -1 h 4 v -3 h 3 v 2 h 4 v -8 h 4 v -1 h 3 v -5 h 4 v -3 h 4 v -2 h 3 v -1 h 8 v -4 h 3 v -4 h 4 v -2 h 4 v -8 h 3 v -1 h 4 v 2 h 4 v 8 h 3 v -2 h 4 v -3 h 4 v 1 h 3 v 5 h 4 v -5 h 4 v 3 h 3 v -8 h 4 v 7 h 4 v -6 h 3 v -9 h 4 v 3 h 4 v -6 h 3 v 2 h 4 v -4 h 4 v 1 h 3 v 4 h 4 v -8 h 4 v 1 h 3 v -4 h 4 v 6 h 4 v -8 h 3 v -3 h 4 v 4 h 4 v -1 h 3 v 2 h 4 v -7 h 11 v 1 h 4 v 5 h 3 v -4 h 4 v 2 h 4 v -1 h 7 v -16 h 4 v 14 h 3 v -5 h 4 v 11 h 4 v -1 h 3 v -8 h 4 v -1 h 4 v 6 h 3 v -15 h 4 v 13 h 4 v -11 h 3 v 6 h 4 v -1 h 4 v 2 h 3 v 2 h 4 v -9 h 4 v 12 h 3 v -2 h 4 v -14 h 4 v 12 h 3 v -2 h 4 v 1 h 4 v -11 h 3 v 8 h 4 v -10 h 4 v 1 h 3 v -4 h 4 v 1 h 4 v 12 h 3 v -36 h 4 v 30 h 4 v -7 h 4 v -3 h 3 v 24 h 4 v -37 h 4 v 13 h 3 v 2 h 4 v -10 h 4 v -4 h 3 v 37 h 4 v -9 h 4 v -16 h 3 v 12 h 4 v -28 h 4 v 40 h 3 v -26 h 4 v -5 h 4 v 13 h 3 v -12 h 4 V 89 h 4 v 48 h 3 V 81 h 4 v 48 h 4 v 2 h 3 v -13 h 4 v 23 h 4 v -24 h 3 v 28 h 4 v 10 h 4 v -54 h 3 v 26 h 4 v 24 h 4 v -15 h 3 v 2 h 4 v -31 h 4 v 55 h 3 v -19 h 4 v 3 h 4 V 83 h 3 v 127 h 4 v -66 h 4 v 36 h 3 v -40 h 4 v -31 h 4 v 23 h 3 v 62 h 4 v 1 h 4 v 21 h 3 v 24 h 4 v 24 h 4 v -29 h 3 v -59 h 4 V 531 H 0 Z"
               style="fill:none;stroke:#0000ff;stroke-width:1;stroke-linejoin:miter"
               id="path965" /></g></svg><g
           id="g1031"><g
             transform="translate(0,528)"
             id="g999"><path
               d="M 0,0 H 734 M 0,-20 V 0 M 21,-10 V 0 M 42,-10 V 0 M 63,-10 V 0 M 84,-10 V 0 m 21,-20 V 0 m 21,-10 V 0 m 21,-10 V 0 m 21,-10 V 0 m 21,-10 V 0 m 21,-20 V 0 m 21,-10 V 0 m 21,-10 V 0 m 21,-10 V 0 m 21,-10 V 0 m 21,-20 V 0 m 21,-10 V 0 m 21,-10 V 0 m 20,-10 V 0 m 21,-10 V 0 m 21,-20 V 0 m 21,-10 V 0 m 21,-10 V 0 m 21,-10 V 0 m 21,-10 V 0 m 21,-20 V 0 m 21,-10 V 0 m 21,-10 V 0 m 21,-10 V 0 m 21,-10 V 0 m 21,-20 V 0 m 21,-10 V 0 m 21,-10 V 0 m 21,-10 V 0 m 21,-10 V 0 m 21,-20 V 0"
               style="stroke:#000000;stroke-width:1"
               id="path971" /><g
               font-family="Arial"
               font-size="23px"
               xml:space="preserve"
               fill="#000000"
               text-anchor="middle"
               id="g989"><text
                 dy="0.80000001em"
                 transform="translate(0,5)"
                 id="text973">0</text><text
                 dy="0.80000001em"
                 transform="translate(105,5)"
                 id="text975">0.1</text><text
                 dy="0.80000001em"
                 transform="translate(210,5)"
                 id="text977">0.2</text><text
                 dy="0.80000001em"
                 transform="translate(315,5)"
                 id="text979">0.3</text><text
                 dy="0.80000001em"
                 transform="translate(419,5)"
                 id="text981">0.4</text><text
                 dy="0.80000001em"
                 transform="translate(524,5)"
                 id="text983">0.5</text><text
                 dy="0.80000001em"
                 transform="translate(629,5)"
                 id="text985">0.6</text><text
                 dy="0.80000001em"
                 transform="translate(734,5)"
                 id="text987">0.7</text></g><rect
               x="0"
               y="0"
               width="734"
               height="26"
               style="opacity:0"
               id="rect991" /><g
               font-family="Arial"
               font-size="23px"
               xml:space="preserve"
               transform="translate(734,37)"
               id="g997"><g
                 transform="translate(-13,8)"
                 id="g995"><text
                   fill="#000000"
                   font-size="23px"
                   id="text993">θ</text></g></g></g><g
             id="g1029"><path
               d="m 0,0 v 528 m 28,0 H 0 M 14,517 H 0 M 14,507 H 0 M 14,496 H 0 M 14,486 H 0 M 28,475 H 0 M 14,465 H 0 M 14,454 H 0 M 14,444 H 0 M 14,433 H 0 M 28,422 H 0 M 14,412 H 0 M 14,401 H 0 M 14,391 H 0 M 14,380 H 0 M 28,370 H 0 M 14,359 H 0 M 14,348 H 0 M 14,338 H 0 M 14,327 H 0 M 28,317 H 0 M 14,306 H 0 M 14,296 H 0 M 14,285 H 0 M 14,275 H 0 M 28,264 H 0 M 14,253 H 0 M 14,243 H 0 M 14,232 H 0 M 14,222 H 0 M 28,211 H 0 M 14,201 H 0 M 14,190 H 0 M 14,180 H 0 M 14,169 H 0 M 28,158 H 0 M 14,148 H 0 M 14,137 H 0 M 14,127 H 0 M 14,116 H 0 M 28,106 H 0 M 14,95 H 0 M 14,84 H 0 M 14,74 H 0 M 14,63 H 0 M 28,53 H 0 M 14,42 H 0 M 14,32 H 0 M 14,21 H 0 M 14,11 H 0 M 28,0 H 0"
               style="stroke:#000000;stroke-width:1"
               id="path1001" /><g
               font-family="Arial"
               font-size="23px"
               xml:space="preserve"
               fill="#000000"
               text-anchor="end"
               id="g1025"><text
                 dominant-baseline="middle"
                 transform="translate(-3,528)"
                 id="text1003">0</text><text
                 dominant-baseline="middle"
                 transform="translate(-3,475)"
                 id="text1005">0.1</text><text
                 dominant-baseline="middle"
                 transform="translate(-3,422)"
                 id="text1007">0.2</text><text
                 dominant-baseline="middle"
                 transform="translate(-3,370)"
                 id="text1009">0.3</text><text
                 dominant-baseline="middle"
                 transform="translate(-3,317)"
                 id="text1011">0.4</text><text
                 dominant-baseline="middle"
                 transform="translate(-3,264)"
                 id="text1013">0.5</text><text
                 dominant-baseline="middle"
                 transform="translate(-3,211)"
                 id="text1015">0.6</text><text
                 dominant-baseline="middle"
                 transform="translate(-3,158)"
                 id="text1017">0.7</text><text
                 dominant-baseline="middle"
                 transform="translate(-3,106)"
                 id="text1019">0.8</text><text
                 dominant-baseline="middle"
                 transform="translate(-3,53)"
                 id="text1021">0.9</text><text
                 dominant-baseline="middle"
                 transform="translate(-3)"
                 id="text1023">1</text></g><rect
               x="-35"
               y="0"
               width="35"
               height="528"
               style="opacity:0"
               id="rect1027" /></g></g><path
           d="M 2,2 H 17 V -3 H -3 v 20 h 5 z"
           style="opacity:0"
           id="path1033" /><path
           d="m 732,2 h -15 v -5 h 20 v 20 h -5 z"
           style="opacity:0"
           id="path1035" /><path
           d="m 2,526 h 15 v 5 H -3 v -20 h 5 z"
           style="opacity:0"
           id="path1037" /><path
           d="m 732,526 h -15 v 5 h 20 v -20 h -5 z"
           style="opacity:0"
           id="path1039" /><path
           d="M -3,18 H 2 V 510 H -3 Z"
           style="opacity:0"
           id="path1041" /><path
           d="m 737,18 h -5 v 492 h 5 z"
           style="opacity:0"
           id="path1043" /><path
           d="M 18,-3 V 2 H 716 V -3 Z"
           style="opacity:0"
           id="path1045" /><path
           d="m 18,531 v -5 h 698 v 5 z"
           style="opacity:0"
           id="path1047" /><style
           id="style1049">
.jsroot rect.h1bin { stroke: #4572A7; fill: #4572A7; opacity: 0; }
.jsroot rect.zoom { stroke: steelblue; fill-opacity: 0.1; }
.jsroot path.zoom { stroke: steelblue; fill-opacity: 0.1; }
.jsroot svg:not(:root) { overflow: hidden; }</style></g><g
         transform="translate(123,78)"
         font-family="Arial"
         font-size="16px"
         xml:space="preserve"
         id="g1079"><path
           d="M 0,0 H 216 V 70 H 0 Z"
           style="fill:#ffffff;stroke:#000000;stroke-width:1"
           id="path1053" /><path
           d="M 6,19 H 48"
           style="stroke:#ff0000;stroke-width:1"
           id="path1055" /><text
           fill="#000000"
           text-anchor="start"
           dominant-baseline="middle"
           transform="translate(54,19)"
           id="text1057">Raw</text><path
           d="M 6,52 H 48"
           style="stroke:#0000ff;stroke-width:1"
           id="path1059" /><text
           fill="#000000"
           text-anchor="start"
           dominant-baseline="middle"
           transform="translate(54,52)"
           id="text1061">Geometry-corrected</text><path
           d="M 2,2 H 17 V -3 H -3 v 20 h 5 z"
           style="opacity:0"
           id="path1063" /><path
           d="m 214,2 h -15 v -5 h 20 v 20 h -5 z"
           style="opacity:0"
           id="path1065" /><path
           d="m 2,68 h 15 v 5 H -3 V 53 h 5 z"
           style="opacity:0"
           id="path1067" /><path
           d="m 214,68 h -15 v 5 h 20 V 53 h -5 z"
           style="opacity:0"
           id="path1069" /><path
           d="M -3,18 H 2 V 52 H -3 Z"
           style="opacity:0"
           id="path1071" /><path
           d="m 219,18 h -5 v 34 h 5 z"
           style="opacity:0"
           id="path1073" /><path
           d="M 18,-3 V 2 H 198 V -3 Z"
           style="opacity:0"
           id="path1075" /><path
           d="m 18,73 v -5 h 180 v 5 z"
           style="opacity:0"
           id="path1077" /></g><g
         transform="translate(286,3)"
         font-family="Arial"
         font-size="28px"
         xml:space="preserve"
         id="g1103"><path
           d="M 0,0 H 345 V 39 H 0 Z"
           style="fill:none"
           id="path1081" /><g
           transform="matrix(0.856,0,0,0.856,8,29)"
           id="g1085"><text
             fill="#000000"
             font-size="33px"
             id="text1083">θ  FMT (2 layers) efficiency</text></g><path
           d="M 2,2 H 17 V -3 H -3 v 20 h 5 z"
           style="opacity:0"
           id="path1087" /><path
           d="m 343,2 h -15 v -5 h 20 v 20 h -5 z"
           style="opacity:0"
           id="path1089" /><path
           d="m 2,37 h 15 v 5 H -3 V 22 h 5 z"
           style="opacity:0"
           id="path1091" /><path
           d="m 343,37 h -15 v 5 h 20 V 22 h -5 z"
           style="opacity:0"
           id="path1093" /><path
           d="m -3,18 h 5 v 3 h -5 z"
           style="opacity:0"
           id="path1095" /><path
           d="m 348,18 h -5 v 3 h 5 z"
           style="opacity:0"
           id="path1097" /><path
           d="M 18,-3 V 2 H 327 V -3 Z"
           style="opacity:0"
           id="path1099" /><path
           d="m 18,42 v -5 h 309 v 5 z"
           style="opacity:0"
           id="path1101" /></g></g></g></svg>
