<?xml version="1.0" encoding="UTF-8" standalone="no"?>
<svg
   width="1482.1023"
   height="643.90527"
   version="1.1"
   id="svg418"
   sodipodi:docname="14p_efficiency.svg"
   inkscape:export-filename="14p_efficiency.pdf"
   inkscape:export-xdpi="96"
   inkscape:export-ydpi="96"
   inkscape:version="1.2.2 (1:1.2.2+202212051552+b0a8486541)"
   xmlns:inkscape="http://www.inkscape.org/namespaces/inkscape"
   xmlns:sodipodi="http://sodipodi.sourceforge.net/DTD/sodipodi-0.dtd"
   xmlns="http://www.w3.org/2000/svg"
   xmlns:svg="http://www.w3.org/2000/svg">
  <defs
     id="defs422" />
  <sodipodi:namedview
     id="namedview420"
     pagecolor="#ffffff"
     bordercolor="#666666"
     borderopacity="1.0"
     inkscape:showpageshadow="2"
     inkscape:pageopacity="0.0"
     inkscape:pagecheckerboard="0"
     inkscape:deskcolor="#d1d1d1"
     showgrid="false"
     inkscape:zoom="0.70710678"
     inkscape:cx="763.67532"
     inkscape:cy="268.70058"
     inkscape:window-width="1920"
     inkscape:window-height="1051"
     inkscape:window-x="0"
     inkscape:window-y="0"
     inkscape:window-maximized="1"
     inkscape:current-layer="svg418" />
  <g
     transform="translate(32.257325,3)"
     id="g104">
    <title
       id="title8" />
    <path
       d="M 0,0 H 462 V 595 H 0 Z"
       style="fill:#ffffff;stroke:#000000;stroke-width:1"
       id="path10" />
    <svg
       x="0"
       y="0"
       overflow="hidden"
       width="462"
       height="595"
       viewBox="0 0 462 595"
       version="1.1"
       id="svg20">
      <g
         id="g14">
        <path
           d="m 0,595 h 21 v -42 h 10 v -23 h 10 v -29 h 10 v -2 h 11 v -2 H 72 V 355 h 10 v -11 h 10 v -8 h 11 v -1 h 10 v -2 h 10 v -1 h 10 v 6 h 11 v 3 h 10 v 1 h 10 v 4 h 11 v 7 h 10 v 1 h 10 v 6 h 10 v 4 h 11 v 5 h 10 v 3 h 10 v 3 h 10 v 3 h 11 v 1 h 10 v 6 h 10 v 5 h 10 v 5 h 11 v 2 h 20 v 5 h 11 v 4 h 10 v 3 h 10 v -2 h 10 v 4 h 11 v 3 h 10 v 1 h 10 v -3 h 10 v -3 h 11 v -14 h 10 v 200 h 41 v 3 H 0 Z"
           style="fill:none;stroke:#ff0000;stroke-width:1;stroke-linejoin:miter"
           id="path12" />
      </g>
      <g
         id="g18">
        <path
           d="M 0,595 H 21 V 411 h 10 v 8 h 10 v -67 h 10 v 13 h 11 v 15 H 72 V 210 h 10 v -5 h 10 v -1 h 11 v 5 h 10 v 2 h 10 v 1 h 10 v 8 h 11 v 3 h 10 v 3 h 10 v 5 h 11 v 8 h 20 v 6 h 10 v 5 h 11 v 6 h 10 v 3 h 10 v 3 h 10 v 2 h 11 v 3 h 10 v 5 h 10 v 8 h 10 v 2 h 11 v 2 h 10 v 1 h 10 v 5 h 11 v 6 h 10 v 3 h 10 v -2 h 10 v 8 h 11 v 5 h 10 v 5 h 10 v 4 h 10 v 16 h 11 v 21 h 10 v 239 h 41 v 3 H 0 Z"
           style="fill:none;stroke:#0000ff;stroke-width:1;stroke-linejoin:miter"
           id="path16" />
      </g>
    </svg>
    <g
       id="g84">
      <g
         transform="translate(0,595)"
         id="g52">
        <path
           d="M 0,0 H 462 M 0,-22 V 0 M 10,-11 V 0 M 21,-11 V 0 M 31,-11 V 0 M 41,-11 V 0 M 51,-22 V 0 M 62,-11 V 0 M 72,-11 V 0 M 82,-11 V 0 M 92,-11 V 0 m 11,-22 V 0 m 10,-11 V 0 m 10,-11 V 0 m 10,-11 V 0 m 11,-11 V 0 m 10,-22 V 0 m 10,-11 V 0 m 11,-11 V 0 m 10,-11 V 0 m 10,-11 V 0 m 10,-22 V 0 m 11,-11 V 0 m 10,-11 V 0 m 10,-11 V 0 m 10,-11 V 0 m 11,-22 V 0 m 10,-11 V 0 m 10,-11 V 0 m 10,-11 V 0 m 11,-11 V 0 m 10,-22 V 0 m 10,-11 V 0 m 11,-11 V 0 m 10,-11 V 0 m 10,-11 V 0 m 10,-22 V 0 m 11,-11 V 0 m 10,-11 V 0 m 10,-11 V 0 m 10,-11 V 0 m 11,-22 V 0 m 10,-11 V 0 m 10,-11 V 0 m 10,-11 V 0 m 11,-11 V 0 m 10,-22 V 0"
           style="stroke:#000000;stroke-width:1"
           id="path22" />
        <g
           font-family="Arial"
           font-size="20px"
           xml:space="preserve"
           fill="#000000"
           text-anchor="middle"
           id="g44"
           transform="translate(0,1.4648438)"><text
             dy="0.80000001em"
             transform="translate(0,5)"
             id="text24">0</text><text
             dy="0.80000001em"
             transform="translate(51,5)"
             id="text26">1</text><text
             dy="0.80000001em"
             transform="translate(103,5)"
             id="text28">2</text><text
             dy="0.80000001em"
             transform="translate(154,5)"
             id="text30">3</text><text
             dy="0.80000001em"
             transform="translate(205,5)"
             id="text32">4</text><text
             dy="0.80000001em"
             transform="translate(257,5)"
             id="text34">5</text><text
             dy="0.80000001em"
             transform="translate(308,5)"
             id="text36">6</text><text
             dy="0.80000001em"
             transform="translate(359,5)"
             id="text38">7</text><text
             dy="0.80000001em"
             transform="translate(411,5)"
             id="text40">8</text></g>
        <rect
           x="0"
           y="0"
           width="462"
           height="23"
           style="opacity:0"
           id="rect46" />
        <g
           font-family="Arial"
           font-size="20px"
           xml:space="preserve"
           transform="translate(462,36)"
           id="g50"><text
             fill="#000000"
             text-anchor="end"
             dominant-baseline="middle"
             id="text48">p (GeV)</text></g>
      </g>
      <g
         id="g82">
        <path
           d="m 0,0 v 595 m 17,0 H 0 M 9,584 H 0 M 9,572 H 0 M 9,561 H 0 M 9,550 H 0 M 17,538 H 0 M 9,527 H 0 M 9,516 H 0 M 9,504 H 0 M 9,493 H 0 M 17,482 H 0 M 9,470 H 0 M 9,459 H 0 M 9,448 H 0 M 9,436 H 0 M 17,425 H 0 M 9,414 H 0 M 9,402 H 0 M 9,391 H 0 M 9,380 H 0 M 17,368 H 0 M 9,357 H 0 M 9,346 H 0 M 9,334 H 0 M 9,323 H 0 M 17,312 H 0 M 9,300 H 0 M 9,289 H 0 M 9,278 H 0 M 9,266 H 0 M 17,255 H 0 M 9,244 H 0 M 9,232 H 0 M 9,221 H 0 M 9,210 H 0 M 17,198 H 0 M 9,187 H 0 M 9,176 H 0 M 9,164 H 0 M 9,153 H 0 M 17,142 H 0 M 9,130 H 0 M 9,119 H 0 M 9,108 H 0 M 9,96 H 0 M 17,85 H 0 M 9,74 H 0 M 9,62 H 0 M 9,51 H 0 M 9,40 H 0 M 17,28 H 0 M 9,17 H 0 M 9,6 H 0"
           style="stroke:#000000;stroke-width:1"
           id="path54" />
        <rect
           x="-31"
           y="0"
           width="31"
           height="595"
           style="opacity:0"
           id="rect80" />
      </g>
    </g>
    <path
       d="M 2,2 H 17 V -3 H -3 v 20 h 5 z"
       style="opacity:0"
       id="path86" />
    <path
       d="m 460,2 h -15 v -5 h 20 v 20 h -5 z"
       style="opacity:0"
       id="path88" />
    <path
       d="m 2,593 h 15 v 5 H -3 v -20 h 5 z"
       style="opacity:0"
       id="path90" />
    <path
       d="m 460,593 h -15 v 5 h 20 v -20 h -5 z"
       style="opacity:0"
       id="path92" />
    <path
       d="M -3,18 H 2 V 577 H -3 Z"
       style="opacity:0"
       id="path94" />
    <path
       d="m 465,18 h -5 v 559 h 5 z"
       style="opacity:0"
       id="path96" />
    <path
       d="M 18,-3 V 2 H 444 V -3 Z"
       style="opacity:0"
       id="path98" />
    <path
       d="m 18,598 v -5 h 426 v 5 z"
       style="opacity:0"
       id="path100" />
    <style
       id="style102">
.jsroot rect.h1bin { stroke: #4572A7; fill: #4572A7; opacity: 0; }
.jsroot rect.zoom { stroke: steelblue; fill-opacity: 0.1; }
.jsroot path.zoom { stroke: steelblue; fill-opacity: 0.1; }
.jsroot svg:not(:root) { overflow: hidden; }</style>
  </g>
  <text
     fill="#000000"
     text-anchor="middle"
     dominant-baseline="middle"
     id="text108"
     style="font-size:23px;font-family:Arial"
     x="263.22925"
     y="24">p FMT efficiency (pid 11)</text>
  <g
     transform="translate(500.25732,3)"
     id="g232">
    <title
       id="title136" />
    <path
       d="M 0,0 H 486 V 595 H 0 Z"
       style="fill:#ffffff;stroke:#000000;stroke-width:1"
       id="path138" />
    <svg
       x="0"
       y="0"
       overflow="hidden"
       width="486"
       height="595"
       viewBox="0 0 486 595"
       version="1.1"
       id="svg148">
      <g
         id="g142">
        <path
           d="m 0,595 h 11 v -32 h 11 v -37 h 10 v -10 h 11 v -6 h 11 v -2 h 11 v -1 h 11 v -1 h 32 v -1 h 11 v -1 h 11 v 2 h 10 v -1 h 11 v -2 h 11 v -3 h 11 v 2 h 11 v -4 h 10 v 3 h 22 v 1 h 11 v -7 h 11 v 8 h 10 v 7 h 11 v 3 h 11 v -6 h 11 v 3 h 11 v 7 h 10 v 3 h 11 v -7 h 11 v 17 h 11 v -2 h 11 v -7 h 10 v 18 h 11 v -24 h 11 v 15 h 11 v 23 h 11 v -6 h 10 v 21 h 11 v -11 h 11 v 14 h 11 v -11 h 11 v 35 h 10 V 406 h 11 V 28 h 11 V 598 H 0 Z"
           style="fill:none;stroke:#ff0000;stroke-width:1;stroke-linejoin:miter"
           id="path140" />
      </g>
      <g
         id="g146">
        <path
           d="M 0,595 H 11 V 406 h 11 v -4 h 10 v 4 h 11 v -1 h 11 v 3 h 11 v 1 h 11 v 2 h 10 v 3 h 11 v 1 h 11 v 1 h 22 v 2 h 10 v 2 h 11 v -4 h 22 v 6 h 11 v -4 h 10 v 5 h 11 v 1 h 11 v 3 h 11 v -11 h 11 v 8 h 10 v 9 h 11 v 9 h 11 v -8 h 11 v -5 h 11 v 15 h 10 v -1 h 11 v -12 h 11 v 23 h 11 v -3 h 11 v -24 h 10 v 36 h 11 v -58 h 11 v 22 h 11 v 78 h 11 v -58 h 10 v 57 h 11 v -51 h 11 v 48 h 11 v -48 h 11 v 142 h 10 V 406 h 11 v 189 h 11 v 3 H 0 Z"
           style="fill:none;stroke:#0000ff;stroke-width:1;stroke-linejoin:miter"
           id="path144" />
      </g>
    </svg>
    <g
       id="g212">
      <g
         transform="translate(0,595)"
         id="g180">
        <path
           d="M 0,0 H 486 M 0,-22 V 0 M 11,-11 V 0 M 22,-11 V 0 M 32,-11 V 0 M 43,-11 V 0 M 54,-22 V 0 M 65,-11 V 0 M 76,-11 V 0 M 86,-11 V 0 M 97,-11 V 0 m 11,-22 V 0 m 11,-11 V 0 m 11,-11 V 0 m 10,-11 V 0 m 11,-11 V 0 m 11,-22 V 0 m 11,-11 V 0 m 11,-11 V 0 m 10,-11 V 0 m 11,-11 V 0 m 11,-22 V 0 m 11,-11 V 0 m 11,-11 V 0 m 10,-11 V 0 m 11,-11 V 0 m 11,-22 V 0 m 11,-11 V 0 m 11,-11 V 0 m 10,-11 V 0 m 11,-11 V 0 m 11,-22 V 0 m 11,-11 V 0 m 11,-11 V 0 m 10,-11 V 0 m 11,-11 V 0 m 11,-22 V 0 m 11,-11 V 0 m 11,-11 V 0 m 10,-11 V 0 m 11,-11 V 0 m 11,-22 V 0 m 11,-11 V 0 m 11,-11 V 0 m 10,-11 V 0 m 11,-11 V 0 m 11,-22 V 0"
           style="stroke:#000000;stroke-width:1"
           id="path150" />
        <g
           font-family="Arial"
           font-size="21px"
           xml:space="preserve"
           fill="#000000"
           text-anchor="middle"
           id="g172"
           transform="translate(0,1.3630848)"><text
             dy="0.80000001em"
             transform="translate(54,5)"
             id="text154">1</text><text
             dy="0.80000001em"
             transform="translate(108,5)"
             id="text156">2</text><text
             dy="0.80000001em"
             transform="translate(162,5)"
             id="text158">3</text><text
             dy="0.80000001em"
             transform="translate(216,5)"
             id="text160">4</text><text
             dy="0.80000001em"
             transform="translate(270,5)"
             id="text162">5</text><text
             dy="0.80000001em"
             transform="translate(324,5)"
             id="text164">6</text><text
             dy="0.80000001em"
             transform="translate(378,5)"
             id="text166">7</text><text
             dy="0.80000001em"
             transform="translate(432,5)"
             id="text168">8</text></g>
        <rect
           x="0"
           y="0"
           width="486"
           height="24"
           style="opacity:0"
           id="rect174" />
        <g
           font-family="Arial"
           font-size="21px"
           xml:space="preserve"
           transform="translate(486,36)"
           id="g178"><text
             fill="#000000"
             text-anchor="end"
             dominant-baseline="middle"
             id="text176">p (GeV)</text></g>
      </g>
      <g
         id="g210">
        <path
           d="m 0,0 v 595 m 18,0 H 0 M 9,584 H 0 M 9,572 H 0 M 9,561 H 0 M 9,550 H 0 M 18,538 H 0 M 9,527 H 0 M 9,516 H 0 M 9,504 H 0 M 9,493 H 0 M 18,482 H 0 M 9,470 H 0 M 9,459 H 0 M 9,448 H 0 M 9,436 H 0 M 18,425 H 0 M 9,414 H 0 M 9,402 H 0 M 9,391 H 0 M 9,380 H 0 M 18,368 H 0 M 9,357 H 0 M 9,346 H 0 M 9,334 H 0 M 9,323 H 0 M 18,312 H 0 M 9,300 H 0 M 9,289 H 0 M 9,278 H 0 M 9,266 H 0 M 18,255 H 0 M 9,244 H 0 M 9,232 H 0 M 9,221 H 0 M 9,210 H 0 M 18,198 H 0 M 9,187 H 0 M 9,176 H 0 M 9,164 H 0 M 9,153 H 0 M 18,142 H 0 M 9,130 H 0 M 9,119 H 0 M 9,108 H 0 M 9,96 H 0 M 18,85 H 0 M 9,74 H 0 M 9,62 H 0 M 9,51 H 0 M 9,40 H 0 M 18,28 H 0 M 9,17 H 0 M 9,6 H 0"
           style="stroke:#000000;stroke-width:1"
           id="path182" />
        <rect
           x="-33"
           y="0"
           width="33"
           height="595"
           style="opacity:0"
           id="rect208" />
      </g>
    </g>
    <path
       d="M 2,2 H 17 V -3 H -3 v 20 h 5 z"
       style="opacity:0"
       id="path214" />
    <path
       d="m 484,2 h -15 v -5 h 20 v 20 h -5 z"
       style="opacity:0"
       id="path216" />
    <path
       d="m 2,593 h 15 v 5 H -3 v -20 h 5 z"
       style="opacity:0"
       id="path218" />
    <path
       d="m 484,593 h -15 v 5 h 20 v -20 h -5 z"
       style="opacity:0"
       id="path220" />
    <path
       d="M -3,18 H 2 V 577 H -3 Z"
       style="opacity:0"
       id="path222" />
    <path
       d="m 489,18 h -5 v 559 h 5 z"
       style="opacity:0"
       id="path224" />
    <path
       d="M 18,-3 V 2 H 468 V -3 Z"
       style="opacity:0"
       id="path226" />
    <path
       d="m 18,598 v -5 h 450 v 5 z"
       style="opacity:0"
       id="path228" />
    <style
       id="style230">
.jsroot rect.h1bin { stroke: #4572A7; fill: #4572A7; opacity: 0; }
.jsroot rect.zoom { stroke: steelblue; fill-opacity: 0.1; }
.jsroot path.zoom { stroke: steelblue; fill-opacity: 0.1; }
.jsroot svg:not(:root) { overflow: hidden; }</style>
  </g>
  <text
     fill="#000000"
     text-anchor="middle"
     dominant-baseline="middle"
     id="text236"
     style="font-size:22px;font-family:Arial"
     x="743.23047"
     y="24">p FMT efficiency (pid 211)</text>
  <g
     transform="translate(991.25732,3)"
     id="g360">
    <title
       id="title264" />
    <path
       d="M 0,0 H 486 V 595 H 0 Z"
       style="fill:#ffffff;stroke:#000000;stroke-width:1"
       id="path266" />
    <svg
       x="0"
       y="0"
       overflow="hidden"
       width="486"
       height="595"
       viewBox="0 0 486 595"
       version="1.1"
       id="svg276">
      <g
         id="g270">
        <path
           d="m 0,595 h 11 v -7 h 11 v -23 h 10 v -20 h 11 v -16 h 11 v -11 h 11 v -4 h 11 v -9 h 10 v -7 h 11 v -5 h 11 v 1 h 11 v -3 h 11 v 1 h 10 v -7 h 11 v 3 h 11 v -4 h 11 v -2 h 11 v 1 h 10 v -3 h 11 v 8 h 11 v -9 h 11 v 10 h 11 v -4 h 10 v 1 h 11 v 4 h 11 v -4 h 11 v 34 h 11 v -8 h 10 v -1 h 11 v -6 h 11 v -4 h 11 v 24 h 21 v 22 h 11 v 10 h 11 v -2 h 11 v 40 h 21 v -27 h 11 v 27 h 11 V 453 h 11 v 142 h 43 v 3 H 0 Z"
           style="fill:none;stroke:#ff0000;stroke-width:1;stroke-linejoin:miter"
           id="path268" />
      </g>
      <g
         id="g274">
        <path
           d="M 0,595 H 11 V 533 H 22 V 404 h 10 v -23 h 11 v -13 h 11 v -1 h 11 v 16 h 11 v -4 h 10 v -4 h 22 v 7 h 11 v 3 h 11 v 9 h 10 v -6 h 11 v 10 h 11 v -5 h 11 v 1 h 11 v 10 h 10 v -8 h 11 v 7 h 11 v -5 h 11 v 14 h 11 v -10 h 10 v 6 h 11 v 8 h 11 v -17 h 11 v 59 h 11 v -18 h 10 v -32 h 11 v 29 h 11 v -24 h 11 v 24 h 11 v 5 h 10 v 25 h 11 v -7 h 11 v -20 h 11 v 155 h 21 V 482 h 11 v 113 h 11 V 312 h 11 v 283 h 43 v 3 H 0 Z"
           style="fill:none;stroke:#0000ff;stroke-width:1;stroke-linejoin:miter"
           id="path272" />
      </g>
    </svg>
    <g
       id="g340">
      <g
         transform="translate(0,595)"
         id="g308">
        <path
           d="M 0,0 H 486 M 0,-22 V 0 M 11,-11 V 0 M 22,-11 V 0 M 32,-11 V 0 M 43,-11 V 0 M 54,-22 V 0 M 65,-11 V 0 M 76,-11 V 0 M 86,-11 V 0 M 97,-11 V 0 m 11,-22 V 0 m 11,-11 V 0 m 11,-11 V 0 m 10,-11 V 0 m 11,-11 V 0 m 11,-22 V 0 m 11,-11 V 0 m 11,-11 V 0 m 10,-11 V 0 m 11,-11 V 0 m 11,-22 V 0 m 11,-11 V 0 m 11,-11 V 0 m 10,-11 V 0 m 11,-11 V 0 m 11,-22 V 0 m 11,-11 V 0 m 11,-11 V 0 m 10,-11 V 0 m 11,-11 V 0 m 11,-22 V 0 m 11,-11 V 0 m 11,-11 V 0 m 10,-11 V 0 m 11,-11 V 0 m 11,-22 V 0 m 11,-11 V 0 m 11,-11 V 0 m 10,-11 V 0 m 11,-11 V 0 m 11,-22 V 0 m 11,-11 V 0 m 11,-11 V 0 m 10,-11 V 0 m 11,-11 V 0 m 11,-22 V 0"
           style="stroke:#000000;stroke-width:1"
           id="path278" />
        <g
           font-family="Arial"
           font-size="21px"
           xml:space="preserve"
           fill="#000000"
           text-anchor="middle"
           id="g300"
           transform="translate(0,1.3630848)"><text
             dy="0.80000001em"
             transform="translate(54,5)"
             id="text282">1</text><text
             dy="0.80000001em"
             transform="translate(108,5)"
             id="text284">2</text><text
             dy="0.80000001em"
             transform="translate(162,5)"
             id="text286">3</text><text
             dy="0.80000001em"
             transform="translate(216,5)"
             id="text288">4</text><text
             dy="0.80000001em"
             transform="translate(270,5)"
             id="text290">5</text><text
             dy="0.80000001em"
             transform="translate(324,5)"
             id="text292">6</text><text
             dy="0.80000001em"
             transform="translate(378,5)"
             id="text294">7</text><text
             dy="0.80000001em"
             transform="translate(432,5)"
             id="text296">8</text><text
             dy="0.80000001em"
             transform="translate(486,5)"
             id="text298">9</text></g>
        <rect
           x="0"
           y="0"
           width="486"
           height="24"
           style="opacity:0"
           id="rect302" />
        <g
           font-family="Arial"
           font-size="21px"
           xml:space="preserve"
           transform="translate(486,36)"
           id="g306"><text
             fill="#000000"
             text-anchor="end"
             dominant-baseline="middle"
             id="text304">p (GeV)</text></g>
      </g>
      <g
         id="g338">
        <path
           d="m 0,0 v 595 m 18,0 H 0 M 9,584 H 0 M 9,572 H 0 M 9,561 H 0 M 9,550 H 0 M 18,538 H 0 M 9,527 H 0 M 9,516 H 0 M 9,504 H 0 M 9,493 H 0 M 18,482 H 0 M 9,470 H 0 M 9,459 H 0 M 9,448 H 0 M 9,436 H 0 M 18,425 H 0 M 9,414 H 0 M 9,402 H 0 M 9,391 H 0 M 9,380 H 0 M 18,368 H 0 M 9,357 H 0 M 9,346 H 0 M 9,334 H 0 M 9,323 H 0 M 18,312 H 0 M 9,300 H 0 M 9,289 H 0 M 9,278 H 0 M 9,266 H 0 M 18,255 H 0 M 9,244 H 0 M 9,232 H 0 M 9,221 H 0 M 9,210 H 0 M 18,198 H 0 M 9,187 H 0 M 9,176 H 0 M 9,164 H 0 M 9,153 H 0 M 18,142 H 0 M 9,130 H 0 M 9,119 H 0 M 9,108 H 0 M 9,96 H 0 M 18,85 H 0 M 9,74 H 0 M 9,62 H 0 M 9,51 H 0 M 9,40 H 0 M 18,28 H 0 M 9,17 H 0 M 9,6 H 0"
           style="stroke:#000000;stroke-width:1"
           id="path310" />
        <rect
           x="-33"
           y="0"
           width="33"
           height="595"
           style="opacity:0"
           id="rect336" />
      </g>
    </g>
    <path
       d="M 2,2 H 17 V -3 H -3 v 20 h 5 z"
       style="opacity:0"
       id="path342" />
    <path
       d="m 484,2 h -15 v -5 h 20 v 20 h -5 z"
       style="opacity:0"
       id="path344" />
    <path
       d="m 2,593 h 15 v 5 H -3 v -20 h 5 z"
       style="opacity:0"
       id="path346" />
    <path
       d="m 484,593 h -15 v 5 h 20 v -20 h -5 z"
       style="opacity:0"
       id="path348" />
    <path
       d="M -3,18 H 2 V 577 H -3 Z"
       style="opacity:0"
       id="path350" />
    <path
       d="m 489,18 h -5 v 559 h 5 z"
       style="opacity:0"
       id="path352" />
    <path
       d="M 18,-3 V 2 H 468 V -3 Z"
       style="opacity:0"
       id="path354" />
    <path
       d="m 18,598 v -5 h 450 v 5 z"
       style="opacity:0"
       id="path356" />
    <style
       id="style358">
.jsroot rect.h1bin { stroke: #4572A7; fill: #4572A7; opacity: 0; }
.jsroot rect.zoom { stroke: steelblue; fill-opacity: 0.1; }
.jsroot path.zoom { stroke: steelblue; fill-opacity: 0.1; }
.jsroot svg:not(:root) { overflow: hidden; }</style>
  </g>
  <g
     transform="translate(1181.7573,145.00042)"
     font-family="Arial"
     font-size="21px"
     xml:space="preserve"
     id="g388"><path
       d="M 0,0 H 273 V 84 H 0 Z"
       style="fill:#ffffff;stroke:#000000;stroke-width:1"
       id="path362" /><path
       d="M 8,23 H 60"
       style="stroke:#ff0000;stroke-width:1"
       id="path364" /><text
       fill="#000000"
       text-anchor="start"
       dominant-baseline="middle"
       transform="translate(68,23)"
       id="text366">Raw</text><path
       d="M 8,62 H 60"
       style="stroke:#0000ff;stroke-width:1"
       id="path368" /><text
       fill="#000000"
       text-anchor="start"
       dominant-baseline="middle"
       transform="translate(68,62)"
       id="text370">Geometry-corrected</text><path
       d="M 2,2 H 17 V -3 H -3 v 20 h 5 z"
       style="opacity:0"
       id="path372" /><path
       d="m 271,2 h -15 v -5 h 20 v 20 h -5 z"
       style="opacity:0"
       id="path374" /><path
       d="m 2,82 h 15 v 5 H -3 V 67 h 5 z"
       style="opacity:0"
       id="path376" /><path
       d="m 271,82 h -15 v 5 h 20 V 67 h -5 z"
       style="opacity:0"
       id="path378" /><path
       d="M -3,18 H 2 V 66 H -3 Z"
       style="opacity:0"
       id="path380" /><path
       d="m 276,18 h -5 v 48 h 5 z"
       style="opacity:0"
       id="path382" /><path
       d="M 18,-3 V 2 H 255 V -3 Z"
       style="opacity:0"
       id="path384" /><path
       d="m 18,87 v -5 h 237 v 5 z"
       style="opacity:0"
       id="path386" /></g>
  <text
     fill="#000000"
     text-anchor="middle"
     dominant-baseline="middle"
     id="text392"
     style="font-size:22px;font-family:Arial"
     x="1234.2305"
     y="24">p FMT efficiency (pid -211)</text>
  <g
     font-family="Arial"
     font-size="21px"
     xml:space="preserve"
     fill="#000000"
     text-anchor="end"
     id="g206"
     transform="translate(31.372559,3)"><text
       dominant-baseline="middle"
       transform="translate(-3,595)"
       id="text184">0</text><text
       dominant-baseline="middle"
       transform="translate(-3,538)"
       id="text186">0.1</text><text
       dominant-baseline="middle"
       transform="translate(-3,482)"
       id="text188">0.2</text><text
       dominant-baseline="middle"
       transform="translate(-3,425)"
       id="text190">0.3</text><text
       dominant-baseline="middle"
       transform="translate(-3,368)"
       id="text192">0.4</text><text
       dominant-baseline="middle"
       transform="translate(-3,312)"
       id="text194">0.5</text><text
       dominant-baseline="middle"
       transform="translate(-3,255)"
       id="text196">0.6</text><text
       dominant-baseline="middle"
       transform="translate(-3,198)"
       id="text198">0.7</text><text
       dominant-baseline="middle"
       transform="translate(-3,142)"
       id="text200">0.8</text><text
       dominant-baseline="middle"
       transform="translate(-3,85)"
       id="text202">0.9</text><text
       dominant-baseline="middle"
       transform="translate(-3,28)"
       id="text204">1</text></g>
</svg>
