<?xml version="1.0" encoding="UTF-8" standalone="no"?>
<svg
   width="1480.2573"
   height="645.35791"
   version="1.1"
   id="svg412"
   sodipodi:docname="14phi_efficiency.svg"
   inkscape:export-filename="14phi_efficiency.pdf"
   inkscape:export-xdpi="96"
   inkscape:export-ydpi="96"
   inkscape:version="1.2.2 (1:1.2.2+202212051552+b0a8486541)"
   xmlns:inkscape="http://www.inkscape.org/namespaces/inkscape"
   xmlns:sodipodi="http://sodipodi.sourceforge.net/DTD/sodipodi-0.dtd"
   xmlns="http://www.w3.org/2000/svg"
   xmlns:svg="http://www.w3.org/2000/svg">
  <defs
     id="defs416" />
  <sodipodi:namedview
     id="namedview414"
     pagecolor="#ffffff"
     bordercolor="#666666"
     borderopacity="1.0"
     inkscape:showpageshadow="2"
     inkscape:pageopacity="0.0"
     inkscape:pagecheckerboard="0"
     inkscape:deskcolor="#d1d1d1"
     showgrid="false"
     showguides="false"
     inkscape:zoom="0.70710678"
     inkscape:cx="697.20728"
     inkscape:cy="333.7544"
     inkscape:window-width="1920"
     inkscape:window-height="1051"
     inkscape:window-x="0"
     inkscape:window-y="0"
     inkscape:window-maximized="1"
     inkscape:current-layer="svg412" />
  <g
     transform="translate(32.257325,3)"
     id="g100">
    <title
       id="title8" />
    <path
       d="M 0,0 H 462 V 595 H 0 Z"
       style="fill:#ffffff;stroke:#000000;stroke-width:1"
       id="path10" />
    <svg
       x="0"
       y="0"
       overflow="hidden"
       width="462"
       height="595"
       viewBox="0 0 462 595"
       version="1.1"
       id="svg20">
      <g
         id="g14">
        <path
           d="m 0,389 h 6 v -9 h 7 v -16 h 6 v -27 h 7 v -21 h 6 v -27 h 7 v 4 h 6 v 96 h 6 v 69 h 7 v -80 h 6 v -4 h 7 v 3 h 6 v 1 h 6 v 2 h 7 v -17 h 6 v -20 h 7 v -22 h 6 v -19 h 7 v 34 h 6 v 137 h 6 v -43 h 7 v -60 h 6 v 2 h 7 v 1 h 6 v 10 h 6 v -9 h 7 v -3 h 6 v -7 h 7 v -15 h 6 v -26 h 7 v -5 h 6 v 97 h 6 v 20 h 7 v -58 h 6 v -11 h 7 v 13 h 6 v 2 h 6 v 1 h 7 v -15 h 6 v -11 h 7 v -21 h 6 v -28 h 7 v 1 h 6 v 99 h 6 v 28 h 7 v -47 h 6 v -5 h 7 v 10 h 6 v 7 h 6 v -16 h 7 v -12 h 6 v -11 h 7 v -23 h 6 v -25 h 7 v -12 h 6 v 89 h 6 v 45 h 7 v -57 h 6 v -2 h 7 v 11 h 6 v -7 h 6 v -10 h 7 v -19 h 6 v -20 h 7 v -17 h 6 v -17 h 7 v 35 h 6 v 137 h 6 v -22 h 7 v -77 h 6 v -1 h 7 v 10 h 6 V 598 H 0 Z"
           style="fill:none;stroke:#ff0000;stroke-width:1;stroke-linejoin:miter"
           id="path12" />
      </g>
      <g
         id="g18">
        <path
           d="m 0,257 h 6 v 16 h 7 v -6 h 6 v -25 h 7 v -18 h 6 v -25 h 7 v -12 h 6 v -9 h 6 v 94 h 7 v -58 h 6 v 15 h 7 v 10 h 6 v 26 h 6 v 14 h 7 v -9 h 6 v -27 h 7 v -26 h 6 v -18 h 7 v -4 h 6 v 33 h 6 v -9 h 7 v -6 h 6 v 21 h 7 v 17 h 6 v 14 h 6 v -6 h 7 v 2 h 6 v -5 h 7 v -9 h 6 v -23 h 7 v -15 h 6 v 25 h 6 v 35 h 7 v -35 h 6 v 1 h 7 v 16 h 6 v 14 h 6 v 13 h 7 v -7 h 6 v -3 h 7 v -18 h 6 v -20 h 7 v -12 h 6 v 13 h 6 v 28 h 7 v -16 h 6 v 3 h 7 v 22 h 6 v 13 h 6 v -2 h 7 v -14 h 6 v -6 h 7 v -17 h 6 v -17 h 7 v -21 h 12 v 31 h 7 v -14 h 6 v 17 h 7 v 10 h 6 v 4 h 6 v 5 h 7 v -4 h 6 v -15 h 7 v -21 h 6 v -16 h 7 v -19 h 6 v 20 h 6 v 42 h 7 v -48 h 6 v 26 h 7 v 21 h 6 V 598 H 0 Z"
           style="fill:none;stroke:#0000ff;stroke-width:1;stroke-linejoin:miter"
           id="path16" />
      </g>
    </svg>
    <g
       id="g80">
      <g
         transform="translate(0,595)"
         id="g48">
        <path
           d="M 0,0 H 462 M 10,-22 V 0 M 25,-11 V 0 M 40,-11 V 0 M 55,-11 V 0 M 69,-11 V 0 M 84,-22 V 0 M 99,-11 V 0 m 14,-11 V 0 m 15,-11 V 0 m 15,-11 V 0 m 14,-22 V 0 m 15,-11 V 0 m 15,-11 V 0 m 15,-11 V 0 m 14,-11 V 0 m 15,-22 V 0 m 15,-11 V 0 m 14,-11 V 0 m 15,-11 V 0 m 15,-11 V 0 m 15,-22 V 0 m 14,-11 V 0 m 15,-11 V 0 m 15,-11 V 0 m 14,-11 V 0 m 15,-22 V 0 m 15,-11 V 0 m 14,-11 V 0 m 15,-11 V 0 m 15,-11 V 0 m 15,-22 V 0"
           style="stroke:#000000;stroke-width:1"
           id="path22" />
        <g
           font-family="Arial"
           font-size="20px"
           xml:space="preserve"
           fill="#000000"
           text-anchor="middle"
           id="g38"
           transform="translate(0,1.4648438)"><text
             dy="0.80000001em"
             transform="translate(10,5)"
             id="text24">-3</text><text
             dy="0.80000001em"
             transform="translate(84,5)"
             id="text26">-2</text><text
             dy="0.80000001em"
             transform="translate(157,5)"
             id="text28">-1</text><text
             dy="0.80000001em"
             transform="translate(231,5)"
             id="text30">0</text><text
             dy="0.80000001em"
             transform="translate(305,5)"
             id="text32">1</text><text
             dy="0.80000001em"
             transform="translate(378,5)"
             id="text34">2</text><text
             dy="0.80000001em"
             transform="translate(452,5)"
             id="text36">3</text></g>
        <rect
           x="0"
           y="0"
           width="462"
           height="23"
           style="opacity:0"
           id="rect40" />
        <g
           font-family="Arial"
           font-size="20px"
           xml:space="preserve"
           transform="translate(462,36)"
           id="g46"><g
             transform="translate(-62,7)"
             id="g44"><text
               fill="#000000"
               font-size="20px"
               id="text42">φ (rad)</text></g></g>
      </g>
      <g
         id="g78">
        <path
           d="m 0,0 v 595 m 17,0 H 0 M 9,584 H 0 M 9,572 H 0 M 9,561 H 0 M 9,550 H 0 M 17,538 H 0 M 9,527 H 0 M 9,516 H 0 M 9,504 H 0 M 9,493 H 0 M 17,482 H 0 M 9,470 H 0 M 9,459 H 0 M 9,448 H 0 M 9,436 H 0 M 17,425 H 0 M 9,414 H 0 M 9,402 H 0 M 9,391 H 0 M 9,380 H 0 M 17,368 H 0 M 9,357 H 0 M 9,346 H 0 M 9,334 H 0 M 9,323 H 0 M 17,312 H 0 M 9,300 H 0 M 9,289 H 0 M 9,278 H 0 M 9,266 H 0 M 17,255 H 0 M 9,244 H 0 M 9,232 H 0 M 9,221 H 0 M 9,210 H 0 M 17,198 H 0 M 9,187 H 0 M 9,176 H 0 M 9,164 H 0 M 9,153 H 0 M 17,142 H 0 M 9,130 H 0 M 9,119 H 0 M 9,108 H 0 M 9,96 H 0 M 17,85 H 0 M 9,74 H 0 M 9,62 H 0 M 9,51 H 0 M 9,40 H 0 M 17,28 H 0 M 9,17 H 0 M 9,6 H 0"
           style="stroke:#000000;stroke-width:1"
           id="path50" />
        <rect
           x="-31"
           y="0"
           width="31"
           height="595"
           style="opacity:0"
           id="rect76" />
      </g>
    </g>
    <path
       d="M 2,2 H 17 V -3 H -3 v 20 h 5 z"
       style="opacity:0"
       id="path82" />
    <path
       d="m 460,2 h -15 v -5 h 20 v 20 h -5 z"
       style="opacity:0"
       id="path84" />
    <path
       d="m 2,593 h 15 v 5 H -3 v -20 h 5 z"
       style="opacity:0"
       id="path86" />
    <path
       d="m 460,593 h -15 v 5 h 20 v -20 h -5 z"
       style="opacity:0"
       id="path88" />
    <path
       d="M -3,18 H 2 V 577 H -3 Z"
       style="opacity:0"
       id="path90" />
    <path
       d="m 465,18 h -5 v 559 h 5 z"
       style="opacity:0"
       id="path92" />
    <path
       d="M 18,-3 V 2 H 444 V -3 Z"
       style="opacity:0"
       id="path94" />
    <path
       d="m 18,598 v -5 h 426 v 5 z"
       style="opacity:0"
       id="path96" />
    <style
       id="style98">
.jsroot rect.h1bin { stroke: #4572A7; fill: #4572A7; opacity: 0; }
.jsroot rect.zoom { stroke: steelblue; fill-opacity: 0.1; }
.jsroot path.zoom { stroke: steelblue; fill-opacity: 0.1; }
.jsroot svg:not(:root) { overflow: hidden; }</style>
  </g>
  <g
     transform="matrix(0.812,0,0,0.812,129.70553,32)"
     id="g106"
     style="font-size:24px;font-family:Arial">
    <text
       fill="#000000"
       font-size="30px"
       id="text104">φ FMT efficiency (pid 11)</text>
  </g>
  <g
     transform="translate(500.25732,3)"
     id="g226">
    <title
       id="title134" />
    <path
       d="M 0,0 H 486 V 595 H 0 Z"
       style="fill:#ffffff;stroke:#000000;stroke-width:1"
       id="path136" />
    <svg
       x="0"
       y="0"
       overflow="hidden"
       width="486"
       height="595"
       viewBox="0 0 486 595"
       version="1.1"
       id="svg146">
      <g
         id="g140">
        <path
           d="m 0,516 h 7 v -1 h 6 v -3 h 7 v -9 h 7 v -5 h 7 v 5 h 7 v 7 h 6 v 2 h 7 v -4 h 7 v 2 h 7 v 1 h 6 v 1 h 7 v 1 h 7 v 1 h 13 v -11 h 7 v -4 h 7 v 6 h 13 v 4 h 14 v -3 h 7 v 7 h 6 v -1 h 14 v -3 h 13 v -6 h 7 v -11 h 7 v 8 h 7 v 8 h 6 v 1 h 7 v -1 h 7 v -3 h 6 v 2 h 7 v 5 h 7 v -3 h 7 v 6 h 7 v -5 h 6 v -5 h 7 v -9 h 7 v 5 h 7 v 5 h 6 v 2 h 14 v -2 h 7 v 3 h 6 v 7 h 7 v -3 h 7 v -1 h 13 v -11 h 7 v 5 h 7 v -6 h 7 v 10 h 6 v 2 h 7 v -2 h 7 v 2 h 13 v 1 h 7 v -2 h 7 v 4 h 7 v -9 h 6 v -16 h 7 v 3 h 7 v 5 h 7 v 9 h 6 v 3 h 7 v -2 h 7 v 2 h 7 v 5 h 6 v 3 h 7 v 80 H 0 Z"
           style="fill:none;stroke:#ff0000;stroke-width:1;stroke-linejoin:miter"
           id="path138" />
      </g>
      <g
         id="g144">
        <path
           d="m 0,419 h 7 v -3 h 6 v -8 h 7 v -8 h 7 v 4 h 7 v 9 h 7 v 7 h 13 v -14 h 7 v 7 h 7 v -3 h 6 v 3 h 7 v 1 h 7 v -1 h 7 v -3 h 6 v -11 h 7 v 3 h 7 v 12 h 7 v -2 h 6 v 1 h 7 v -2 h 7 v -7 h 7 v 14 h 6 v -3 h 7 v -5 h 7 v -6 h 7 v -5 h 6 v 8 h 7 v -10 h 7 v 11 h 7 v 13 h 6 v -5 h 7 v -4 h 7 v -7 h 6 v -3 h 7 v 9 h 7 v -4 h 7 v -3 h 7 v -3 h 6 v 10 h 7 v -9 h 7 v 9 h 7 v 4 h 6 v -1 h 7 v -3 h 7 v -6 h 7 v 8 h 6 v 11 h 7 v -8 h 7 v -3 h 7 v -1 h 6 v -2 h 7 v 12 h 7 v -12 h 7 v 17 h 6 v -2 h 7 v -10 h 7 v 5 h 7 v -2 h 13 v -10 h 7 v 12 h 7 v -13 h 6 v -23 h 7 v 15 h 7 v 10 h 7 v 12 h 6 v -4 h 7 v -5 h 7 v 4 h 7 v 8 h 6 v 5 h 7 V 598 H 0 Z"
           style="fill:none;stroke:#0000ff;stroke-width:1;stroke-linejoin:miter"
           id="path142" />
      </g>
    </svg>
    <g
       id="g206">
      <g
         transform="translate(0,595)"
         id="g174">
        <path
           d="M 0,0 H 486 M 11,-22 V 0 M 26,-11 V 0 M 42,-11 V 0 M 57,-11 V 0 M 73,-11 V 0 M 88,-22 V 0 m 16,-11 V 0 m 15,-11 V 0 m 16,-11 V 0 m 15,-11 V 0 m 16,-22 V 0 m 15,-11 V 0 m 16,-11 V 0 m 15,-11 V 0 m 16,-11 V 0 m 15,-22 V 0 m 15,-11 V 0 m 16,-11 V 0 m 15,-11 V 0 m 16,-11 V 0 m 15,-22 V 0 m 16,-11 V 0 m 15,-11 V 0 m 16,-11 V 0 m 15,-11 V 0 m 16,-22 V 0 m 15,-11 V 0 m 16,-11 V 0 m 15,-11 V 0 m 16,-11 V 0 m 15,-22 V 0"
           style="stroke:#000000;stroke-width:1"
           id="path148" />
        <g
           font-family="Arial"
           font-size="21px"
           xml:space="preserve"
           fill="#000000"
           text-anchor="middle"
           id="g164"
           transform="translate(0,1.3630848)"><text
             dy="0.80000001em"
             transform="translate(11,5)"
             id="text150">-3</text><text
             dy="0.80000001em"
             transform="translate(88,5)"
             id="text152">-2</text><text
             dy="0.80000001em"
             transform="translate(166,5)"
             id="text154">-1</text><text
             dy="0.80000001em"
             transform="translate(243,5)"
             id="text156">0</text><text
             dy="0.80000001em"
             transform="translate(320,5)"
             id="text158">1</text><text
             dy="0.80000001em"
             transform="translate(398,5)"
             id="text160">2</text><text
             dy="0.80000001em"
             transform="translate(475,5)"
             id="text162">3</text></g>
        <rect
           x="0"
           y="0"
           width="486"
           height="24"
           style="opacity:0"
           id="rect166" />
        <g
           font-family="Arial"
           font-size="21px"
           xml:space="preserve"
           transform="translate(486,36)"
           id="g172"><g
             transform="translate(-65,7)"
             id="g170"><text
               fill="#000000"
               font-size="21px"
               id="text168">φ (rad)</text></g></g>
      </g>
      <g
         id="g204">
        <path
           d="m 0,0 v 595 m 18,0 H 0 M 9,584 H 0 M 9,572 H 0 M 9,561 H 0 M 9,550 H 0 M 18,538 H 0 M 9,527 H 0 M 9,516 H 0 M 9,504 H 0 M 9,493 H 0 M 18,482 H 0 M 9,470 H 0 M 9,459 H 0 M 9,448 H 0 M 9,436 H 0 M 18,425 H 0 M 9,414 H 0 M 9,402 H 0 M 9,391 H 0 M 9,380 H 0 M 18,368 H 0 M 9,357 H 0 M 9,346 H 0 M 9,334 H 0 M 9,323 H 0 M 18,312 H 0 M 9,300 H 0 M 9,289 H 0 M 9,278 H 0 M 9,266 H 0 M 18,255 H 0 M 9,244 H 0 M 9,232 H 0 M 9,221 H 0 M 9,210 H 0 M 18,198 H 0 M 9,187 H 0 M 9,176 H 0 M 9,164 H 0 M 9,153 H 0 M 18,142 H 0 M 9,130 H 0 M 9,119 H 0 M 9,108 H 0 M 9,96 H 0 M 18,85 H 0 M 9,74 H 0 M 9,62 H 0 M 9,51 H 0 M 9,40 H 0 M 18,28 H 0 M 9,17 H 0 M 9,6 H 0"
           style="stroke:#000000;stroke-width:1"
           id="path176" />
        <rect
           x="-33"
           y="0"
           width="33"
           height="595"
           style="opacity:0"
           id="rect202" />
      </g>
    </g>
    <path
       d="M 2,2 H 17 V -3 H -3 v 20 h 5 z"
       style="opacity:0"
       id="path208" />
    <path
       d="m 484,2 h -15 v -5 h 20 v 20 h -5 z"
       style="opacity:0"
       id="path210" />
    <path
       d="m 2,593 h 15 v 5 H -3 v -20 h 5 z"
       style="opacity:0"
       id="path212" />
    <path
       d="m 484,593 h -15 v 5 h 20 v -20 h -5 z"
       style="opacity:0"
       id="path214" />
    <path
       d="M -3,18 H 2 V 577 H -3 Z"
       style="opacity:0"
       id="path216" />
    <path
       d="m 489,18 h -5 v 559 h 5 z"
       style="opacity:0"
       id="path218" />
    <path
       d="M 18,-3 V 2 H 468 V -3 Z"
       style="opacity:0"
       id="path220" />
    <path
       d="m 18,598 v -5 h 450 v 5 z"
       style="opacity:0"
       id="path222" />
    <style
       id="style224">
.jsroot rect.h1bin { stroke: #4572A7; fill: #4572A7; opacity: 0; }
.jsroot rect.zoom { stroke: steelblue; fill-opacity: 0.1; }
.jsroot path.zoom { stroke: steelblue; fill-opacity: 0.1; }
.jsroot svg:not(:root) { overflow: hidden; }</style>
  </g>
  <g
     transform="matrix(0.779,0,0,0.779,608.63448,32)"
     id="g232"
     style="font-size:23px;font-family:Arial">
    <text
       fill="#000000"
       font-size="30px"
       id="text230">φ FMT efficiency (pid 211)</text>
  </g>
  <g
     transform="translate(991.25732,3)"
     id="g352">
    <title
       id="title260" />
    <path
       d="M 0,0 H 486 V 595 H 0 Z"
       style="fill:#ffffff;stroke:#000000;stroke-width:1"
       id="path262" />
    <svg
       x="0"
       y="0"
       overflow="hidden"
       width="486"
       height="595"
       viewBox="0 0 486 595"
       version="1.1"
       id="svg272">
      <g
         id="g266">
        <path
           d="m 0,503 h 7 v 11 h 6 v 1 h 7 v -5 h 7 v 6 h 7 v -7 h 7 v 10 h 6 v 5 h 7 v 7 h 7 v -7 h 7 v 1 h 6 v -9 h 7 v 3 h 7 v -4 h 13 v -3 h 7 v 2 h 7 v 7 h 7 v -4 h 6 v 2 h 7 v 18 h 7 v -12 h 7 v -11 h 6 v -3 h 14 v -4 h 7 v 3 h 6 v 8 h 21 v -5 h 6 v 14 h 7 v 9 h 7 v -8 h 6 v -16 h 7 v -6 h 7 v -1 h 7 v -1 h 7 v 4 h 6 v 6 h 7 v -3 h 7 v 3 h 7 v -3 h 6 v 7 h 7 v 8 h 7 v 5 h 7 v -12 h 6 v -3 h 7 v -1 h 7 v -2 h 7 v -1 h 13 v 10 h 7 v -11 h 7 v 3 h 6 v 11 h 7 v -5 h 7 v 7 h 7 v -6 h 6 v -19 h 7 v 5 h 7 v 7 h 13 v 7 h 7 v -8 h 7 v 6 h 7 v -10 h 6 v 12 h 7 v 7 h 7 v -3 h 7 v -14 h 6 v -7 h 7 v 94 H 0 Z"
           style="fill:none;stroke:#ff0000;stroke-width:1;stroke-linejoin:miter"
           id="path264" />
      </g>
      <g
         id="g270">
        <path
           d="m 0,376 h 7 v 17 h 6 v -1 h 7 v -8 h 7 v 10 h 7 v -16 h 7 v 14 h 6 v -2 h 14 v -20 h 7 v 15 h 6 v 1 h 7 v 12 h 7 v -6 h 13 v -9 h 7 v 9 h 7 v 6 h 7 v -17 h 6 v -18 h 7 v 22 h 7 v -19 h 7 v 3 h 6 v -3 h 7 v 10 h 7 v -1 h 7 v -5 h 6 v 29 h 7 v -3 h 7 v -6 h 7 v -13 h 6 v 6 h 7 v 12 h 7 v -18 h 6 v -15 h 7 v -3 h 7 v 7 h 7 v 7 h 7 v 4 h 6 v 8 h 7 v -4 h 7 v 7 h 7 v -25 h 6 v 5 h 7 v -6 h 7 v 22 h 7 v -11 h 13 v 13 h 7 v 3 h 7 v 4 h 6 v -6 h 7 v 24 h 7 v -26 h 7 v 4 h 6 v 3 h 7 v -37 h 7 v 26 h 7 v 1 h 6 v -22 h 7 v 15 h 7 v 15 h 7 v -2 h 6 v 16 h 7 v -15 h 7 v -4 h 7 v -18 h 6 v 14 h 7 v -20 h 7 v 23 h 7 v -11 h 6 v 2 h 7 V 598 H 0 Z"
           style="fill:none;stroke:#0000ff;stroke-width:1;stroke-linejoin:miter"
           id="path268" />
      </g>
    </svg>
    <g
       id="g332">
      <g
         transform="translate(0,595)"
         id="g300">
        <path
           d="M 0,0 H 486 M 11,-22 V 0 M 26,-11 V 0 M 42,-11 V 0 M 57,-11 V 0 M 73,-11 V 0 M 88,-22 V 0 m 16,-11 V 0 m 15,-11 V 0 m 16,-11 V 0 m 15,-11 V 0 m 16,-22 V 0 m 15,-11 V 0 m 16,-11 V 0 m 15,-11 V 0 m 16,-11 V 0 m 15,-22 V 0 m 15,-11 V 0 m 16,-11 V 0 m 15,-11 V 0 m 16,-11 V 0 m 15,-22 V 0 m 16,-11 V 0 m 15,-11 V 0 m 16,-11 V 0 m 15,-11 V 0 m 16,-22 V 0 m 15,-11 V 0 m 16,-11 V 0 m 15,-11 V 0 m 16,-11 V 0 m 15,-22 V 0"
           style="stroke:#000000;stroke-width:1"
           id="path274" />
        <g
           font-family="Arial"
           font-size="21px"
           xml:space="preserve"
           fill="#000000"
           text-anchor="middle"
           id="g290"
           transform="translate(0,1.3630848)"><text
             dy="0.80000001em"
             transform="translate(11,5)"
             id="text276">-3</text><text
             dy="0.80000001em"
             transform="translate(88,5)"
             id="text278">-2</text><text
             dy="0.80000001em"
             transform="translate(166,5)"
             id="text280">-1</text><text
             dy="0.80000001em"
             transform="translate(243,5)"
             id="text282">0</text><text
             dy="0.80000001em"
             transform="translate(320,5)"
             id="text284">1</text><text
             dy="0.80000001em"
             transform="translate(398,5)"
             id="text286">2</text><text
             dy="0.80000001em"
             transform="translate(475,5)"
             id="text288">3</text></g>
        <rect
           x="0"
           y="0"
           width="486"
           height="24"
           style="opacity:0"
           id="rect292" />
        <g
           font-family="Arial"
           font-size="21px"
           xml:space="preserve"
           transform="translate(486,36)"
           id="g298"><g
             transform="translate(-65,7)"
             id="g296"><text
               fill="#000000"
               font-size="21px"
               id="text294">φ (rad)</text></g></g>
      </g>
      <g
         id="g330">
        <path
           d="m 0,0 v 595 m 18,0 H 0 M 9,584 H 0 M 9,572 H 0 M 9,561 H 0 M 9,550 H 0 M 18,538 H 0 M 9,527 H 0 M 9,516 H 0 M 9,504 H 0 M 9,493 H 0 M 18,482 H 0 M 9,470 H 0 M 9,459 H 0 M 9,448 H 0 M 9,436 H 0 M 18,425 H 0 M 9,414 H 0 M 9,402 H 0 M 9,391 H 0 M 9,380 H 0 M 18,368 H 0 M 9,357 H 0 M 9,346 H 0 M 9,334 H 0 M 9,323 H 0 M 18,312 H 0 M 9,300 H 0 M 9,289 H 0 M 9,278 H 0 M 9,266 H 0 M 18,255 H 0 M 9,244 H 0 M 9,232 H 0 M 9,221 H 0 M 9,210 H 0 M 18,198 H 0 M 9,187 H 0 M 9,176 H 0 M 9,164 H 0 M 9,153 H 0 M 18,142 H 0 M 9,130 H 0 M 9,119 H 0 M 9,108 H 0 M 9,96 H 0 M 18,85 H 0 M 9,74 H 0 M 9,62 H 0 M 9,51 H 0 M 9,40 H 0 M 18,28 H 0 M 9,17 H 0 M 9,6 H 0"
           style="stroke:#000000;stroke-width:1"
           id="path302" />
        <rect
           x="-33"
           y="0"
           width="33"
           height="595"
           style="opacity:0"
           id="rect328" />
      </g>
    </g>
    <path
       d="M 2,2 H 17 V -3 H -3 v 20 h 5 z"
       style="opacity:0"
       id="path334" />
    <path
       d="m 484,2 h -15 v -5 h 20 v 20 h -5 z"
       style="opacity:0"
       id="path336" />
    <path
       d="m 2,593 h 15 v 5 H -3 v -20 h 5 z"
       style="opacity:0"
       id="path338" />
    <path
       d="m 484,593 h -15 v 5 h 20 v -20 h -5 z"
       style="opacity:0"
       id="path340" />
    <path
       d="M -3,18 H 2 V 577 H -3 Z"
       style="opacity:0"
       id="path342" />
    <path
       d="m 489,18 h -5 v 559 h 5 z"
       style="opacity:0"
       id="path344" />
    <path
       d="M 18,-3 V 2 H 468 V -3 Z"
       style="opacity:0"
       id="path346" />
    <path
       d="m 18,598 v -5 h 450 v 5 z"
       style="opacity:0"
       id="path348" />
    <style
       id="style350">
.jsroot rect.h1bin { stroke: #4572A7; fill: #4572A7; opacity: 0; }
.jsroot rect.zoom { stroke: steelblue; fill-opacity: 0.1; }
.jsroot path.zoom { stroke: steelblue; fill-opacity: 0.1; }
.jsroot svg:not(:root) { overflow: hidden; }</style>
  </g>
  <g
     transform="translate(1172.7573,145.00687)"
     font-family="Arial"
     font-size="21px"
     xml:space="preserve"
     id="g380"><path
       d="M 0,0 H 282 V 84 H 0 Z"
       style="fill:#ffffff;stroke:#000000;stroke-width:1"
       id="path354" /><path
       d="M 8,23 H 63"
       style="stroke:#ff0000;stroke-width:1"
       id="path356" /><text
       fill="#000000"
       text-anchor="start"
       dominant-baseline="middle"
       transform="translate(71,23)"
       id="text358">Raw</text><path
       d="M 8,62 H 63"
       style="stroke:#0000ff;stroke-width:1"
       id="path360" /><text
       fill="#000000"
       text-anchor="start"
       dominant-baseline="middle"
       transform="translate(71,62)"
       id="text362">Geometry-corrected</text><path
       d="M 2,2 H 17 V -3 H -3 v 20 h 5 z"
       style="opacity:0"
       id="path364" /><path
       d="m 280,2 h -15 v -5 h 20 v 20 h -5 z"
       style="opacity:0"
       id="path366" /><path
       d="m 2,82 h 15 v 5 H -3 V 67 h 5 z"
       style="opacity:0"
       id="path368" /><path
       d="m 280,82 h -15 v 5 h 20 V 67 h -5 z"
       style="opacity:0"
       id="path370" /><path
       d="M -3,18 H 2 V 66 H -3 Z"
       style="opacity:0"
       id="path372" /><path
       d="m 285,18 h -5 v 48 h 5 z"
       style="opacity:0"
       id="path374" /><path
       d="M 18,-3 V 2 H 264 V -3 Z"
       style="opacity:0"
       id="path376" /><path
       d="m 18,87 v -5 h 246 v 5 z"
       style="opacity:0"
       id="path378" /></g>
  <g
     transform="matrix(0.761,0,0,0.761,1098.9438,32)"
     id="g386"
     style="font-size:22px;font-family:Arial">
    <text
       fill="#000000"
       font-size="30px"
       id="text384">φ FMT efficiency (pid -211)</text>
  </g>
  <g
     font-family="Arial"
     font-size="21px"
     xml:space="preserve"
     fill="#000000"
     text-anchor="end"
     id="g200"
     transform="translate(31.372559,3)"><text
       dominant-baseline="middle"
       transform="translate(-3,595)"
       id="text178">0</text><text
       dominant-baseline="middle"
       transform="translate(-3,538)"
       id="text180">0.1</text><text
       dominant-baseline="middle"
       transform="translate(-3,482)"
       id="text182">0.2</text><text
       dominant-baseline="middle"
       transform="translate(-3,425)"
       id="text184">0.3</text><text
       dominant-baseline="middle"
       transform="translate(-3,368)"
       id="text186">0.4</text><text
       dominant-baseline="middle"
       transform="translate(-3,312)"
       id="text188">0.5</text><text
       dominant-baseline="middle"
       transform="translate(-3,255)"
       id="text190">0.6</text><text
       dominant-baseline="middle"
       transform="translate(-3,198)"
       id="text192">0.7</text><text
       dominant-baseline="middle"
       transform="translate(-3,142)"
       id="text194">0.8</text><text
       dominant-baseline="middle"
       transform="translate(-3,85)"
       id="text196">0.9</text><text
       dominant-baseline="middle"
       transform="translate(-3,28)"
       id="text198">1</text></g>
</svg>
