<?xml version="1.0" encoding="UTF-8" standalone="no"?>
<svg
   width="1492.8591"
   height="650"
   version="1.1"
   id="svg424"
   sodipodi:docname="14theta_efficiency.svg"
   inkscape:export-filename="14theta_efficiency.pdf"
   inkscape:export-xdpi="96"
   inkscape:export-ydpi="96"
   inkscape:version="1.2.2 (1:1.2.2+202212051552+b0a8486541)"
   xmlns:inkscape="http://www.inkscape.org/namespaces/inkscape"
   xmlns:sodipodi="http://sodipodi.sourceforge.net/DTD/sodipodi-0.dtd"
   xmlns="http://www.w3.org/2000/svg"
   xmlns:svg="http://www.w3.org/2000/svg">
  <defs
     id="defs428" />
  <sodipodi:namedview
     id="namedview426"
     pagecolor="#ffffff"
     bordercolor="#666666"
     borderopacity="1.0"
     inkscape:showpageshadow="2"
     inkscape:pageopacity="0.0"
     inkscape:pagecheckerboard="0"
     inkscape:deskcolor="#d1d1d1"
     showgrid="false"
     inkscape:zoom="0.5"
     inkscape:cx="540"
     inkscape:cy="380"
     inkscape:window-width="1920"
     inkscape:window-height="1051"
     inkscape:window-x="0"
     inkscape:window-y="0"
     inkscape:window-maximized="1"
     inkscape:current-layer="g422" />
  <g
     id="g422"
     transform="translate(-7.7426754,-3)">
    <g
       transform="translate(40,6)"
       id="g104">
      <title
         id="title8" />
      <path
         d="M 0,0 H 462 V 595 H 0 Z"
         style="fill:#ffffff;stroke:#000000;stroke-width:1"
         id="path10" />
      <svg
         x="0"
         y="0"
         overflow="hidden"
         width="462"
         height="595"
         viewBox="0 0 462 595"
         version="1.1"
         id="svg20">
        <g
           id="g14">
          <path
             d="M 0,595 H 33 V 383 h 11 v 15 h 11 v 2 h 11 v -4 h 11 v -7 h 11 v -10 h 11 v -17 h 11 v -21 h 11 v -17 h 11 v 15 h 11 v 5 h 11 v 9 h 11 v 16 h 11 v -6 h 11 v -9 h 11 v 7 h 11 v -2 h 11 v -13 h 11 v -9 h 11 v -3 h 11 v -4 h 11 v 5 h 11 v -6 h 11 v 4 h 11 v 10 h 11 v 6 h 11 v 59 h 11 v 126 h 11 v 61 h 22 v -31 h 11 v 31 h 22 V 482 h 11 v 113 h 55 v 3 H 0 Z"
             style="fill:none;stroke:#ff0000;stroke-width:1;stroke-linejoin:miter"
             id="path12" />
        </g>
        <g
           id="g18">
          <path
             d="M 0,595 H 33 V 342 h 11 v -21 h 11 v -18 h 11 v -12 h 11 v -16 h 11 v -13 h 11 v -13 h 11 v -17 h 11 v -16 h 22 v -9 h 11 v -12 h 11 v -8 h 11 v -5 h 11 v -2 h 11 v -2 h 11 v -6 h 22 v -10 h 11 v -7 h 11 v -4 h 33 v -14 h 11 v 15 h 11 v -2 h 11 v 14 h 11 v 136 h 11 v 295 h 22 V 406 h 11 v 189 h 22 V 28 h 11 v 567 h 55 v 3 H 0 Z"
             style="fill:none;stroke:#0000ff;stroke-width:1;stroke-linejoin:miter"
             id="path16" />
        </g>
      </svg>
      <g
         id="g84">
        <g
           transform="translate(0,595)"
           id="g52">
          <path
             d="M 0,0 H 462 M 5,-11 V 0 M 16,-11 V 0 M 27,-22 V 0 M 38,-11 V 0 M 49,-11 V 0 M 60,-11 V 0 M 71,-11 V 0 M 82,-22 V 0 M 92,-11 V 0 m 11,-11 V 0 m 11,-11 V 0 m 11,-11 V 0 m 11,-22 V 0 m 11,-11 V 0 m 11,-11 V 0 m 10,-11 V 0 m 11,-11 V 0 m 11,-22 V 0 m 11,-11 V 0 m 11,-11 V 0 m 11,-11 V 0 m 11,-11 V 0 m 11,-22 V 0 m 10,-11 V 0 m 11,-11 V 0 m 11,-11 V 0 m 11,-11 V 0 m 11,-22 V 0 m 11,-11 V 0 m 11,-11 V 0 m 11,-11 V 0 m 10,-11 V 0 m 11,-22 V 0 m 11,-11 V 0 m 11,-11 V 0 m 11,-11 V 0 m 11,-11 V 0 m 11,-22 V 0 m 11,-11 V 0 m 10,-11 V 0 m 11,-11 V 0 m 11,-11 V 0 m 11,-22 V 0"
             style="stroke:#000000;stroke-width:1"
             id="path22" />
          <g
             font-family="Arial"
             font-size="20px"
             xml:space="preserve"
             fill="#000000"
             text-anchor="middle"
             id="g42"
             transform="translate(0,1.4648438)"><text
               dy="0.80000001em"
               transform="translate(27,5)"
               id="text24">0.1</text><text
               dy="0.80000001em"
               transform="translate(82,5)"
               id="text26">0.2</text><text
               dy="0.80000001em"
               transform="translate(136,5)"
               id="text28">0.3</text><text
               dy="0.80000001em"
               transform="translate(190,5)"
               id="text30">0.4</text><text
               dy="0.80000001em"
               transform="translate(245,5)"
               id="text32">0.5</text><text
               dy="0.80000001em"
               transform="translate(299,5)"
               id="text34">0.6</text><text
               dy="0.80000001em"
               transform="translate(353,5)"
               id="text36">0.7</text><text
               dy="0.80000001em"
               transform="translate(408,5)"
               id="text38">0.8</text></g>
          <rect
             x="0"
             y="0"
             width="462"
             height="23"
             style="opacity:0"
             id="rect44" />
          <g
             font-family="Arial"
             font-size="20px"
             xml:space="preserve"
             transform="translate(462,36)"
             id="g50"><g
               transform="translate(-60,7)"
               id="g48"><text
                 fill="#000000"
                 font-size="20px"
                 id="text46">θ (rad)</text></g></g>
        </g>
        <g
           id="g82">
          <path
             d="m 0,0 v 595 m 17,0 H 0 M 9,584 H 0 M 9,572 H 0 M 9,561 H 0 M 9,550 H 0 M 17,538 H 0 M 9,527 H 0 M 9,516 H 0 M 9,504 H 0 M 9,493 H 0 M 17,482 H 0 M 9,470 H 0 M 9,459 H 0 M 9,448 H 0 M 9,436 H 0 M 17,425 H 0 M 9,414 H 0 M 9,402 H 0 M 9,391 H 0 M 9,380 H 0 M 17,368 H 0 M 9,357 H 0 M 9,346 H 0 M 9,334 H 0 M 9,323 H 0 M 17,312 H 0 M 9,300 H 0 M 9,289 H 0 M 9,278 H 0 M 9,266 H 0 M 17,255 H 0 M 9,244 H 0 M 9,232 H 0 M 9,221 H 0 M 9,210 H 0 M 17,198 H 0 M 9,187 H 0 M 9,176 H 0 M 9,164 H 0 M 9,153 H 0 M 17,142 H 0 M 9,130 H 0 M 9,119 H 0 M 9,108 H 0 M 9,96 H 0 M 17,85 H 0 M 9,74 H 0 M 9,62 H 0 M 9,51 H 0 M 9,40 H 0 M 17,28 H 0 M 9,17 H 0 M 9,6 H 0"
             style="stroke:#000000;stroke-width:1"
             id="path54" />
          <rect
             x="-31"
             y="0"
             width="31"
             height="595"
             style="opacity:0"
             id="rect80" />
        </g>
      </g>
      <path
         d="M 2,2 H 17 V -3 H -3 v 20 h 5 z"
         style="opacity:0"
         id="path86" />
      <path
         d="m 460,2 h -15 v -5 h 20 v 20 h -5 z"
         style="opacity:0"
         id="path88" />
      <path
         d="m 2,593 h 15 v 5 H -3 v -20 h 5 z"
         style="opacity:0"
         id="path90" />
      <path
         d="m 460,593 h -15 v 5 h 20 v -20 h -5 z"
         style="opacity:0"
         id="path92" />
      <path
         d="M -3,18 H 2 V 577 H -3 Z"
         style="opacity:0"
         id="path94" />
      <path
         d="m 465,18 h -5 v 559 h 5 z"
         style="opacity:0"
         id="path96" />
      <path
         d="M 18,-3 V 2 H 444 V -3 Z"
         style="opacity:0"
         id="path98" />
      <path
         d="m 18,598 v -5 h 426 v 5 z"
         style="opacity:0"
         id="path100" />
      <style
         id="style102">
.jsroot rect.h1bin { stroke: #4572A7; fill: #4572A7; opacity: 0; }
.jsroot rect.zoom { stroke: steelblue; fill-opacity: 0.1; }
.jsroot path.zoom { stroke: steelblue; fill-opacity: 0.1; }
.jsroot svg:not(:root) { overflow: hidden; }</style>
    </g>
    <g
       transform="matrix(0.816,0,0,0.816,137.79437,35)"
       id="g110"
       style="font-size:24px;font-family:Arial">
      <text
         fill="#000000"
         font-size="30px"
         id="text108">θ FMT efficiency (pid 11)</text>
    </g>
    <path
       d="m 535,6 h 488 V 653 H 535 Z"
       style="fill:#ffffff"
       id="path136" />
    <g
       transform="translate(508,6)"
       id="g234">
      <title
         id="title138" />
      <path
         d="M 0,0 H 486 V 595 H 0 Z"
         style="fill:#ffffff;stroke:#000000;stroke-width:1"
         id="path140" />
      <svg
         x="0"
         y="0"
         overflow="hidden"
         width="486"
         height="595"
         viewBox="0 0 486 595"
         version="1.1"
         id="svg150">
        <g
           id="g144">
          <path
             d="m 0,595 h 12 v -61 h 11 v 16 h 12 v -5 h 11 v -11 h 12 v -11 h 11 v -9 h 12 v -10 h 12 v -8 h 11 v -6 h 12 v -8 h 11 v -7 h 12 v 2 h 11 v 7 h 12 v 3 h 12 v 7 h 11 v 5 h 12 v 6 h 11 v 9 h 12 v 3 h 11 v 9 h 12 v 5 h 12 v 4 h 11 v 5 h 12 v 2 h 23 v 7 h 11 v 1 h 12 v 7 h 23 v 3 h 12 v 4 h 11 v 5 h 12 v 7 h 11 v -1 h 12 v 2 h 12 v 18 h 69 v 3 H 0 Z"
             style="fill:none;stroke:#ff0000;stroke-width:1;stroke-linejoin:miter"
             id="path142" />
        </g>
        <g
           id="g148">
          <path
             d="m 0,595 h 12 v -96 h 11 v -5 h 12 v -14 h 11 v -9 h 12 v -10 h 11 v -8 h 12 v -13 h 12 v -9 h 11 v -6 h 12 v -9 h 11 v -11 h 12 v -7 h 11 v -5 h 12 v -8 h 12 v -3 h 11 v -6 h 12 v -3 h 11 v 5 h 12 v -6 h 11 v 3 h 12 v 6 h 12 v -11 h 11 v 5 h 12 v -5 h 11 v -12 h 12 v 10 h 11 v -9 h 12 v 18 h 12 v 4 h 11 v 6 h 12 v -21 h 11 v 21 h 12 v 29 h 11 v -79 h 12 V 217 h 12 v 378 h 69 v 3 H 0 Z"
             style="fill:none;stroke:#0000ff;stroke-width:1;stroke-linejoin:miter"
             id="path146" />
        </g>
      </svg>
      <g
         id="g214">
        <g
           transform="translate(0,595)"
           id="g182">
          <path
             d="M 0,0 H 486 M 6,-11 V 0 M 17,-11 V 0 M 29,-22 V 0 M 40,-11 V 0 M 51,-11 V 0 M 63,-11 V 0 M 74,-11 V 0 M 86,-22 V 0 M 97,-11 V 0 m 12,-11 V 0 m 11,-11 V 0 m 12,-11 V 0 m 11,-22 V 0 m 11,-11 V 0 m 12,-11 V 0 m 11,-11 V 0 m 12,-11 V 0 m 11,-22 V 0 m 12,-11 V 0 m 11,-11 V 0 m 11,-11 V 0 m 12,-11 V 0 m 11,-22 V 0 m 12,-11 V 0 m 11,-11 V 0 m 12,-11 V 0 m 11,-11 V 0 m 11,-22 V 0 m 12,-11 V 0 m 11,-11 V 0 m 12,-11 V 0 m 11,-11 V 0 m 12,-22 V 0 m 11,-11 V 0 m 12,-11 V 0 m 11,-11 V 0 m 11,-11 V 0 m 12,-22 V 0 m 11,-11 V 0 m 12,-11 V 0 m 11,-11 V 0 m 12,-11 V 0 m 11,-22 V 0"
             style="stroke:#000000;stroke-width:1"
             id="path152" />
          <g
             font-family="Arial"
             font-size="21px"
             xml:space="preserve"
             fill="#000000"
             text-anchor="middle"
             id="g172"
             transform="translate(0,1.3630848)"><text
               dy="0.80000001em"
               transform="translate(29,5)"
               id="text154">0.1</text><text
               dy="0.80000001em"
               transform="translate(86,5)"
               id="text156">0.2</text><text
               dy="0.80000001em"
               transform="translate(143,5)"
               id="text158">0.3</text><text
               dy="0.80000001em"
               transform="translate(200,5)"
               id="text160">0.4</text><text
               dy="0.80000001em"
               transform="translate(257,5)"
               id="text162">0.5</text><text
               dy="0.80000001em"
               transform="translate(314,5)"
               id="text164">0.6</text><text
               dy="0.80000001em"
               transform="translate(372,5)"
               id="text166">0.7</text><text
               dy="0.80000001em"
               transform="translate(429,5)"
               id="text168">0.8</text></g>
          <rect
             x="0"
             y="0"
             width="486"
             height="24"
             style="opacity:0"
             id="rect174" />
          <g
             font-family="Arial"
             font-size="21px"
             xml:space="preserve"
             transform="translate(486,36)"
             id="g180"><g
               transform="translate(-63,7)"
               id="g178"><text
                 fill="#000000"
                 font-size="21px"
                 id="text176">θ (rad)</text></g></g>
        </g>
        <g
           id="g212">
          <path
             d="m 0,0 v 595 m 18,0 H 0 M 9,584 H 0 M 9,572 H 0 M 9,561 H 0 M 9,550 H 0 M 18,538 H 0 M 9,527 H 0 M 9,516 H 0 M 9,504 H 0 M 9,493 H 0 M 18,482 H 0 M 9,470 H 0 M 9,459 H 0 M 9,448 H 0 M 9,436 H 0 M 18,425 H 0 M 9,414 H 0 M 9,402 H 0 M 9,391 H 0 M 9,380 H 0 M 18,368 H 0 M 9,357 H 0 M 9,346 H 0 M 9,334 H 0 M 9,323 H 0 M 18,312 H 0 M 9,300 H 0 M 9,289 H 0 M 9,278 H 0 M 9,266 H 0 M 18,255 H 0 M 9,244 H 0 M 9,232 H 0 M 9,221 H 0 M 9,210 H 0 M 18,198 H 0 M 9,187 H 0 M 9,176 H 0 M 9,164 H 0 M 9,153 H 0 M 18,142 H 0 M 9,130 H 0 M 9,119 H 0 M 9,108 H 0 M 9,96 H 0 M 18,85 H 0 M 9,74 H 0 M 9,62 H 0 M 9,51 H 0 M 9,40 H 0 M 18,28 H 0 M 9,17 H 0 M 9,6 H 0"
             style="stroke:#000000;stroke-width:1"
             id="path184" />
          <rect
             x="-33"
             y="0"
             width="33"
             height="595"
             style="opacity:0"
             id="rect210" />
        </g>
      </g>
      <path
         d="M 2,2 H 17 V -3 H -3 v 20 h 5 z"
         style="opacity:0"
         id="path216" />
      <path
         d="m 484,2 h -15 v -5 h 20 v 20 h -5 z"
         style="opacity:0"
         id="path218" />
      <path
         d="m 2,593 h 15 v 5 H -3 v -20 h 5 z"
         style="opacity:0"
         id="path220" />
      <path
         d="m 484,593 h -15 v 5 h 20 v -20 h -5 z"
         style="opacity:0"
         id="path222" />
      <path
         d="M -3,18 H 2 V 577 H -3 Z"
         style="opacity:0"
         id="path224" />
      <path
         d="m 489,18 h -5 v 559 h 5 z"
         style="opacity:0"
         id="path226" />
      <path
         d="M 18,-3 V 2 H 468 V -3 Z"
         style="opacity:0"
         id="path228" />
      <path
         d="m 18,598 v -5 h 450 v 5 z"
         style="opacity:0"
         id="path230" />
      <style
         id="style232">
.jsroot rect.h1bin { stroke: #4572A7; fill: #4572A7; opacity: 0; }
.jsroot rect.zoom { stroke: steelblue; fill-opacity: 0.1; }
.jsroot path.zoom { stroke: steelblue; fill-opacity: 0.1; }
.jsroot svg:not(:root) { overflow: hidden; }</style>
    </g>
    <g
       transform="matrix(0.783,0,0,0.783,616.64936,35)"
       id="g240"
       style="font-size:23px;font-family:Arial">
      <text
         fill="#000000"
         font-size="30px"
         id="text238">θ FMT efficiency (pid 211)</text>
    </g>
    <g
       transform="translate(1001,6)"
       id="g364">
      <title
         id="title268" />
      <path
         d="M 0,0 H 486 V 595 H 0 Z"
         style="fill:#ffffff;stroke:#000000;stroke-width:1"
         id="path270" />
      <svg
         x="0"
         y="0"
         overflow="hidden"
         width="486"
         height="595"
         viewBox="0 0 486 595"
         version="1.1"
         id="svg280">
        <g
           id="g274">
          <path
             d="m 0,595 h 35 v -57 h 11 v -16 h 12 v 7 h 11 v -19 h 12 v -15 h 12 v -17 h 11 v 1 h 12 v -11 h 11 v -1 h 12 v 8 h 11 v 4 h 12 v 4 h 12 v 8 h 11 v 9 h 12 v 5 h 11 v 1 h 12 v 10 h 11 v 4 h 12 v 3 h 12 v 4 h 11 v 10 h 23 v 3 h 12 v 5 h 11 v 6 h 12 v 1 h 12 v 4 h 11 v 2 h 12 v 3 h 11 v 7 h 12 v 3 h 11 v 6 h 12 v 4 h 12 v 3 h 11 v 4 h 12 v -1 h 11 v 5 h 12 v 3 h 23 v 3 H 0 Z"
             style="fill:none;stroke:#ff0000;stroke-width:1;stroke-linejoin:miter"
             id="path272" />
        </g>
        <g
           id="g278">
          <path
             d="M 0,595 H 35 V 446 h 11 v -14 h 12 v 34 h 11 v -14 h 12 v -17 h 12 v -24 h 11 v -2 h 12 v -11 h 11 v -5 h 12 v 6 h 11 v -12 h 12 v -9 h 23 v -3 h 12 v -4 h 11 v -5 h 12 v 4 h 23 v -14 h 12 v 5 h 11 v 10 h 12 v -4 h 11 v -10 h 12 v 8 h 11 v 6 h 12 v -15 h 12 v 12 h 11 v 5 h 12 v -17 h 11 v 40 h 12 v -14 h 11 v 35 h 12 v 61 h 12 v -25 h 11 v 43 h 12 v 26 h 11 v 16 h 12 v 57 h 23 v 3 H 0 Z"
             style="fill:none;stroke:#0000ff;stroke-width:1;stroke-linejoin:miter"
             id="path276" />
        </g>
      </svg>
      <g
         id="g344">
        <g
           transform="translate(0,595)"
           id="g312">
          <path
             d="M 0,0 H 486 M 6,-11 V 0 M 17,-11 V 0 M 29,-22 V 0 M 40,-11 V 0 M 51,-11 V 0 M 63,-11 V 0 M 74,-11 V 0 M 86,-22 V 0 M 97,-11 V 0 m 12,-11 V 0 m 11,-11 V 0 m 12,-11 V 0 m 11,-22 V 0 m 11,-11 V 0 m 12,-11 V 0 m 11,-11 V 0 m 12,-11 V 0 m 11,-22 V 0 m 12,-11 V 0 m 11,-11 V 0 m 11,-11 V 0 m 12,-11 V 0 m 11,-22 V 0 m 12,-11 V 0 m 11,-11 V 0 m 12,-11 V 0 m 11,-11 V 0 m 11,-22 V 0 m 12,-11 V 0 m 11,-11 V 0 m 12,-11 V 0 m 11,-11 V 0 m 12,-22 V 0 m 11,-11 V 0 m 12,-11 V 0 m 11,-11 V 0 m 11,-11 V 0 m 12,-22 V 0 m 11,-11 V 0 m 12,-11 V 0 m 11,-11 V 0 m 12,-11 V 0 m 11,-22 V 0"
             style="stroke:#000000;stroke-width:1"
             id="path282" />
          <g
             font-family="Arial"
             font-size="21px"
             xml:space="preserve"
             fill="#000000"
             text-anchor="middle"
             id="g302"
             transform="translate(0,1.3630848)"><text
               dy="0.80000001em"
               transform="translate(29,5)"
               id="text284">0.1</text><text
               dy="0.80000001em"
               transform="translate(86,5)"
               id="text286">0.2</text><text
               dy="0.80000001em"
               transform="translate(143,5)"
               id="text288">0.3</text><text
               dy="0.80000001em"
               transform="translate(200,5)"
               id="text290">0.4</text><text
               dy="0.80000001em"
               transform="translate(257,5)"
               id="text292">0.5</text><text
               dy="0.80000001em"
               transform="translate(314,5)"
               id="text294">0.6</text><text
               dy="0.80000001em"
               transform="translate(372,5)"
               id="text296">0.7</text><text
               dy="0.80000001em"
               transform="translate(429,5)"
               id="text298">0.8</text><text
               dy="0.80000001em"
               transform="translate(486,5)"
               id="text300">0.9</text></g>
          <rect
             x="0"
             y="0"
             width="486"
             height="24"
             style="opacity:0"
             id="rect304" />
          <g
             font-family="Arial"
             font-size="21px"
             xml:space="preserve"
             transform="translate(486,36)"
             id="g310"><g
               transform="translate(-63,7)"
               id="g308"><text
                 fill="#000000"
                 font-size="21px"
                 id="text306">θ (rad)</text></g></g>
        </g>
        <g
           id="g342">
          <path
             d="m 0,0 v 595 m 18,0 H 0 M 9,584 H 0 M 9,572 H 0 M 9,561 H 0 M 9,550 H 0 M 18,538 H 0 M 9,527 H 0 M 9,516 H 0 M 9,504 H 0 M 9,493 H 0 M 18,482 H 0 M 9,470 H 0 M 9,459 H 0 M 9,448 H 0 M 9,436 H 0 M 18,425 H 0 M 9,414 H 0 M 9,402 H 0 M 9,391 H 0 M 9,380 H 0 M 18,368 H 0 M 9,357 H 0 M 9,346 H 0 M 9,334 H 0 M 9,323 H 0 M 18,312 H 0 M 9,300 H 0 M 9,289 H 0 M 9,278 H 0 M 9,266 H 0 M 18,255 H 0 M 9,244 H 0 M 9,232 H 0 M 9,221 H 0 M 9,210 H 0 M 18,198 H 0 M 9,187 H 0 M 9,176 H 0 M 9,164 H 0 M 9,153 H 0 M 18,142 H 0 M 9,130 H 0 M 9,119 H 0 M 9,108 H 0 M 9,96 H 0 M 18,85 H 0 M 9,74 H 0 M 9,62 H 0 M 9,51 H 0 M 9,40 H 0 M 18,28 H 0 M 9,17 H 0 M 9,6 H 0"
             style="stroke:#000000;stroke-width:1"
             id="path314" />
          <rect
             x="-33"
             y="0"
             width="33"
             height="595"
             style="opacity:0"
             id="rect340" />
        </g>
      </g>
      <path
         d="M 2,2 H 17 V -3 H -3 v 20 h 5 z"
         style="opacity:0"
         id="path346" />
      <path
         d="m 484,2 h -15 v -5 h 20 v 20 h -5 z"
         style="opacity:0"
         id="path348" />
      <path
         d="m 2,593 h 15 v 5 H -3 v -20 h 5 z"
         style="opacity:0"
         id="path350" />
      <path
         d="m 484,593 h -15 v 5 h 20 v -20 h -5 z"
         style="opacity:0"
         id="path352" />
      <path
         d="M -3,18 H 2 V 577 H -3 Z"
         style="opacity:0"
         id="path354" />
      <path
         d="m 489,18 h -5 v 559 h 5 z"
         style="opacity:0"
         id="path356" />
      <path
         d="M 18,-3 V 2 H 468 V -3 Z"
         style="opacity:0"
         id="path358" />
      <path
         d="m 18,598 v -5 h 450 v 5 z"
         style="opacity:0"
         id="path360" />
      <style
         id="style362">
.jsroot rect.h1bin { stroke: #4572A7; fill: #4572A7; opacity: 0; }
.jsroot rect.zoom { stroke: steelblue; fill-opacity: 0.1; }
.jsroot path.zoom { stroke: steelblue; fill-opacity: 0.1; }
.jsroot svg:not(:root) { overflow: hidden; }</style>
    </g>
    <g
       transform="translate(1182.5,147.99041)"
       font-family="Arial"
       font-size="21px"
       xml:space="preserve"
       id="g392"><path
         d="M 0,0 H 282 V 82 H 0 Z"
         style="fill:#ffffff;stroke:#000000;stroke-width:1"
         id="path366" /><path
         d="M 8,22 H 63"
         style="stroke:#ff0000;stroke-width:1"
         id="path368" /><text
         fill="#000000"
         text-anchor="start"
         dominant-baseline="middle"
         transform="translate(71,22)"
         id="text370">Raw</text><path
         d="M 8,61 H 63"
         style="stroke:#0000ff;stroke-width:1"
         id="path372" /><text
         fill="#000000"
         text-anchor="start"
         dominant-baseline="middle"
         transform="translate(71,61)"
         id="text374">Geometry-corrected</text><path
         d="M 2,2 H 17 V -3 H -3 v 20 h 5 z"
         style="opacity:0"
         id="path376" /><path
         d="m 280,2 h -15 v -5 h 20 v 20 h -5 z"
         style="opacity:0"
         id="path378" /><path
         d="m 2,80 h 15 v 5 H -3 V 65 h 5 z"
         style="opacity:0"
         id="path380" /><path
         d="m 280,80 h -15 v 5 h 20 V 65 h -5 z"
         style="opacity:0"
         id="path382" /><path
         d="M -3,18 H 2 V 64 H -3 Z"
         style="opacity:0"
         id="path384" /><path
         d="m 285,18 h -5 v 46 h 5 z"
         style="opacity:0"
         id="path386" /><path
         d="M 18,-3 V 2 H 264 V -3 Z"
         style="opacity:0"
         id="path388" /><path
         d="m 18,85 v -5 h 246 v 5 z"
         style="opacity:0"
         id="path390" /></g>
    <g
       transform="matrix(0.765,0,0,0.765,1108.9166,35)"
       id="g398"
       style="font-size:22px;font-family:Arial">
      <text
         fill="#000000"
         font-size="30px"
         id="text396">θ FMT efficiency (pid -211)</text>
    </g>
    <g
       font-family="Arial"
       font-size="21px"
       xml:space="preserve"
       fill="#000000"
       text-anchor="end"
       id="g208"
       transform="translate(39.115234,6)"><text
         dominant-baseline="middle"
         transform="translate(-3,595)"
         id="text186">0</text><text
         dominant-baseline="middle"
         transform="translate(-3,538)"
         id="text188">0.1</text><text
         dominant-baseline="middle"
         transform="translate(-3,482)"
         id="text190">0.2</text><text
         dominant-baseline="middle"
         transform="translate(-3,425)"
         id="text192">0.3</text><text
         dominant-baseline="middle"
         transform="translate(-3,368)"
         id="text194">0.4</text><text
         dominant-baseline="middle"
         transform="translate(-3,312)"
         id="text196">0.5</text><text
         dominant-baseline="middle"
         transform="translate(-3,255)"
         id="text198">0.6</text><text
         dominant-baseline="middle"
         transform="translate(-3,198)"
         id="text200">0.7</text><text
         dominant-baseline="middle"
         transform="translate(-3,142)"
         id="text202">0.8</text><text
         dominant-baseline="middle"
         transform="translate(-3,85)"
         id="text204">0.9</text><text
         dominant-baseline="middle"
         transform="translate(-3,28)"
         id="text206">1</text></g>
  </g>
</svg>
