<?xml version="1.0" encoding="UTF-8" standalone="no"?>
<svg
   width="1490.1162"
   height="644.34766"
   version="1.1"
   id="svg460"
   sodipodi:docname="14vz_efficiency.svg"
   inkscape:export-filename="14vz_efficiency.pdf"
   inkscape:export-xdpi="96"
   inkscape:export-ydpi="96"
   inkscape:version="1.2.2 (1:1.2.2+202212051552+b0a8486541)"
   xmlns:inkscape="http://www.inkscape.org/namespaces/inkscape"
   xmlns:sodipodi="http://sodipodi.sourceforge.net/DTD/sodipodi-0.dtd"
   xmlns="http://www.w3.org/2000/svg"
   xmlns:svg="http://www.w3.org/2000/svg">
  <defs
     id="defs464" />
  <sodipodi:namedview
     id="namedview462"
     pagecolor="#ffffff"
     bordercolor="#666666"
     borderopacity="1.0"
     inkscape:showpageshadow="2"
     inkscape:pageopacity="0.0"
     inkscape:pagecheckerboard="0"
     inkscape:deskcolor="#d1d1d1"
     showgrid="false"
     inkscape:zoom="0.70710678"
     inkscape:cx="865.4987"
     inkscape:cy="313.95541"
     inkscape:window-width="1920"
     inkscape:window-height="1051"
     inkscape:window-x="0"
     inkscape:window-y="0"
     inkscape:window-maximized="1"
     inkscape:current-layer="g458" />
  <g
     id="g458"
     transform="translate(-7.7426761,-3)">
    <g
       transform="translate(40,6)"
       id="g112">
      <title
         id="title8" />
      <path
         d="M 0,0 H 462 V 595 H 0 Z"
         style="fill:#ffffff;stroke:#000000;stroke-width:1"
         id="path10" />
      <svg
         x="0"
         y="0"
         overflow="hidden"
         width="462"
         height="595"
         viewBox="0 0 462 595"
         version="1.1"
         id="svg20">
        <g
           id="g14">
          <path
             d="m 0,271 h 9 v 6 h 9 v 20 h 10 v -4 h 9 v 7 h 9 v 3 h 9 v -7 h 10 v -6 h 18 v -1 h 9 v -1 h 10 v -8 h 9 v -1 h 9 v -8 h 9 v 4 h 10 v -7 h 9 v -1 h 9 v -10 h 9 v -1 h 10 v 2 h 9 v -11 h 9 v -3 h 9 v 2 h 10 v -3 h 9 v -5 h 18 v 4 h 9 v 8 h 10 v -2 h 9 v 8 h 9 v 6 h 9 v 14 h 10 v 10 h 9 v 14 h 9 v 18 h 9 v 20 h 10 v 15 h 9 v 26 h 9 v 19 h 9 v 20 h 10 v 28 h 9 v 26 h 9 v 23 h 9 v 22 h 10 v 21 h 9 v 17 h 9 v 16 h 9 v 9 h 10 v 7 h 9 v 4 h 9 v 7 H 0 Z"
             style="fill:none;stroke:#ff0000;stroke-width:1;stroke-linejoin:miter"
             id="path12" />
        </g>
        <g
           id="g18">
          <path
             d="m 0,231 h 9 v 10 h 9 v 26 h 10 v -1 h 9 v 9 h 9 v 5 h 9 v -4 h 10 v -5 h 9 v 3 h 18 v 1 h 10 v -8 h 9 v 1 h 9 v -8 h 9 v 5 h 10 v -6 h 18 v -9 h 19 v 2 h 9 v -10 h 9 v -2 h 9 v 2 h 10 v -3 h 9 v -6 h 9 v -1 h 9 v 2 h 9 v 4 h 10 v -7 h 9 v -1 h 18 v 1 h 10 v -2 h 9 v -1 h 9 v 4 h 9 v 4 h 10 v -8 h 9 v 7 h 9 v -3 h 9 v -4 h 10 v 8 h 9 v -4 h 9 v -8 h 9 v -2 h 10 v -8 h 9 v 2 h 9 v -4 h 9 v -16 h 10 v -32 h 9 v 17 h 9 V 598 H 0 Z"
             style="fill:none;stroke:#0000ff;stroke-width:1;stroke-linejoin:miter"
             id="path16" />
        </g>
      </svg>
      <g
         id="g92">
        <g
           transform="translate(0,595)"
           id="g60">
          <path
             d="M 0,0 H 462 M 0,-22 V 0 M 9,-11 V 0 m 9,-11 V 0 M 28,-11 V 0 m 9,-11 V 0 m 9,-22 V 0 m 9,-11 V 0 M 65,-11 V 0 m 9,-11 V 0 m 9,-11 V 0 m 9,-22 V 0 m 10,-11 V 0 m 9,-11 V 0 m 9,-11 V 0 m 9,-11 V 0 m 10,-22 V 0 m 9,-11 V 0 m 9,-11 V 0 m 9,-11 V 0 m 10,-11 V 0 m 9,-22 V 0 m 9,-11 V 0 m 9,-11 V 0 m 10,-11 V 0 m 9,-11 V 0 m 9,-22 V 0 m 9,-11 V 0 m 9,-11 V 0 m 10,-11 V 0 m 9,-11 V 0 m 9,-22 V 0 m 9,-11 V 0 m 10,-11 V 0 m 9,-11 V 0 m 9,-11 V 0 m 9,-22 V 0 m 10,-11 V 0 m 9,-11 V 0 m 9,-11 V 0 m 9,-11 V 0 m 10,-22 V 0 m 9,-11 V 0 m 9,-11 V 0 m 9,-11 V 0 m 10,-11 V 0 m 9,-22 V 0 m 9,-11 V 0 m 9,-11 V 0 m 10,-11 V 0 m 9,-11 V 0 m 9,-22 V 0"
             style="stroke:#000000;stroke-width:1"
             id="path22" />
          <rect
             x="0"
             y="0"
             width="462"
             height="23"
             style="opacity:0"
             id="rect48" />
          <g
             font-family="Arial"
             font-size="20px"
             xml:space="preserve"
             transform="translate(462,36)"
             id="g58"><g
               transform="translate(-57,5)"
               id="g56"><text
                 fill="#000000"
                 font-size="20px"
                 id="text50">v</text><text
                 fill="#000000"
                 font-size="12px"
                 transform="translate(10,4)"
                 id="text52">z</text><text
                 fill="#000000"
                 font-size="20px"
                 x="16"
                 id="text54"> (cm)</text></g></g>
        </g>
      </g>
      <path
         d="M 2,2 H 17 V -3 H -3 v 20 h 5 z"
         style="opacity:0"
         id="path94" />
      <path
         d="m 460,2 h -15 v -5 h 20 v 20 h -5 z"
         style="opacity:0"
         id="path96" />
      <path
         d="m 2,593 h 15 v 5 H -3 v -20 h 5 z"
         style="opacity:0"
         id="path98" />
      <path
         d="m 460,593 h -15 v 5 h 20 v -20 h -5 z"
         style="opacity:0"
         id="path100" />
      <path
         d="M -3,18 H 2 V 577 H -3 Z"
         style="opacity:0"
         id="path102" />
      <path
         d="m 465,18 h -5 v 559 h 5 z"
         style="opacity:0"
         id="path104" />
      <path
         d="M 18,-3 V 2 H 444 V -3 Z"
         style="opacity:0"
         id="path106" />
      <path
         d="m 18,598 v -5 h 426 v 5 z"
         style="opacity:0"
         id="path108" />
      <style
         id="style110">
.jsroot rect.h1bin { stroke: #4572A7; fill: #4572A7; opacity: 0; }
.jsroot rect.zoom { stroke: steelblue; fill-opacity: 0.1; }
.jsroot path.zoom { stroke: steelblue; fill-opacity: 0.1; }
.jsroot svg:not(:root) { overflow: hidden; }</style>
      <g
         font-family="Arial"
         font-size="20px"
         xml:space="preserve"
         fill="#000000"
         text-anchor="middle"
         id="g46"
         transform="translate(-3.2000001e-7,596.46484)"><text
           dy="0.80000001em"
           transform="translate(0,5)"
           id="text24">-30</text><text
           dy="0.80000001em"
           transform="translate(46,5)"
           id="text26">-25</text><text
           dy="0.80000001em"
           transform="translate(92,5)"
           id="text28">-20</text><text
           dy="0.80000001em"
           transform="translate(139,5)"
           id="text30">-15</text><text
           dy="0.80000001em"
           transform="translate(185,5)"
           id="text32">-10</text><text
           dy="0.80000001em"
           transform="translate(231,5)"
           id="text34">-5</text><text
           dy="0.80000001em"
           transform="translate(277,5)"
           id="text36">0</text><text
           dy="0.80000001em"
           transform="translate(323,5)"
           id="text38">5</text><text
           dy="0.80000001em"
           transform="translate(370,5)"
           id="text40">10</text><text
           dy="0.80000001em"
           transform="translate(416,5)"
           id="text42">15</text></g>
    </g>
    <g
       transform="matrix(0.827,0,0,0.827,134.01994,34)"
       id="g122"
       style="font-size:24px;font-family:Arial">
      <text
         fill="#000000"
         font-size="30px"
         id="text116">v</text>
      <text
         fill="#000000"
         font-size="18px"
         transform="translate(15,6)"
         id="text118">z</text>
      <text
         fill="#000000"
         font-size="30px"
         x="31.255136"
         id="text120">FMT efficiency (pid 11)</text>
    </g>
    <g
       transform="translate(508,6)"
       id="g254">
      <title
         id="title150" />
      <path
         d="M 0,0 H 486 V 595 H 0 Z"
         style="fill:#ffffff;stroke:#000000;stroke-width:1"
         id="path152" />
      <svg
         x="0"
         y="0"
         overflow="hidden"
         width="486"
         height="595"
         viewBox="0 0 486 595"
         version="1.1"
         id="svg162">
        <g
           id="g156">
          <path
             d="m 0,518 h 10 v -2 h 9 v 2 h 10 v -9 h 10 v 4 h 10 v -9 h 9 v -6 h 10 v 2 h 10 v -3 h 9 v -6 h 10 v -2 h 10 v -6 h 10 v 2 h 9 v -12 h 20 v -2 h 10 v -4 h 9 v -7 h 10 v -2 h 10 v 1 h 9 v -11 h 10 v 5 h 10 v -6 h 10 v -3 h 9 v -5 h 10 v -1 h 19 v -3 h 10 v 7 h 10 v -4 h 10 v 2 h 9 v 6 h 10 v 6 h 10 v 14 h 9 v 4 h 10 v 11 h 10 v 8 h 10 v 18 h 9 v 14 h 10 v 9 h 10 v 12 h 10 v 13 h 9 v 6 h 10 v 13 h 10 v 4 h 9 v 8 h 10 v 3 h 10 v 3 h 10 v 2 h 19 v 4 H 0 Z"
             style="fill:none;stroke:#ff0000;stroke-width:1;stroke-linejoin:miter"
             id="path154" />
        </g>
        <g
           id="g160">
          <path
             d="m 0,443 h 10 v 5 h 9 v 10 h 10 v -17 h 10 v 9 h 10 v -11 h 9 v -2 h 10 v 3 h 10 v 3 h 9 v -7 h 20 v -6 h 10 v 6 h 9 v -18 h 10 v 6 h 10 v -2 h 10 v 1 h 9 v -8 h 10 v 1 h 10 v 3 h 9 v -12 h 10 v 8 h 10 v -8 h 10 v -1 h 9 v -6 h 10 v -4 h 10 v 1 h 9 v -9 h 10 v 8 h 10 v -12 h 10 v -5 h 9 v 2 h 10 v -3 h 10 v 9 h 9 v -6 h 10 v -1 h 10 v -9 h 10 v 11 h 9 v 3 h 10 v -17 h 10 v 4 h 10 v 8 h 9 v -25 h 10 v 21 h 10 v -12 h 9 v 19 h 10 v 15 h 10 v 2 h 10 v 50 h 9 v -77 h 10 V 598 H 0 Z"
             style="fill:none;stroke:#0000ff;stroke-width:1;stroke-linejoin:miter"
             id="path158" />
        </g>
      </svg>
      <g
         id="g234">
        <g
           transform="translate(0,595)"
           id="g202">
          <path
             d="M 0,0 H 486 M 0,-22 V 0 M 10,-11 V 0 m 9,-11 V 0 M 29,-11 V 0 M 39,-11 V 0 M 49,-22 V 0 m 9,-11 V 0 M 68,-11 V 0 M 78,-11 V 0 m 9,-11 V 0 M 97,-22 V 0 m 10,-11 V 0 m 10,-11 V 0 m 9,-11 V 0 m 10,-11 V 0 m 10,-22 V 0 m 10,-11 V 0 m 9,-11 V 0 m 10,-11 V 0 m 10,-11 V 0 m 9,-22 V 0 m 10,-11 V 0 m 10,-11 V 0 m 10,-11 V 0 m 9,-11 V 0 m 10,-22 V 0 m 10,-11 V 0 m 9,-11 V 0 m 10,-11 V 0 m 10,-11 V 0 m 10,-22 V 0 m 9,-11 V 0 m 10,-11 V 0 m 10,-11 V 0 m 9,-11 V 0 m 10,-22 V 0 m 10,-11 V 0 m 10,-11 V 0 m 9,-11 V 0 m 10,-11 V 0 m 10,-22 V 0 m 10,-11 V 0 m 9,-11 V 0 m 10,-11 V 0 m 10,-11 V 0 m 9,-22 V 0 m 10,-11 V 0 m 10,-11 V 0 m 10,-11 V 0 m 9,-11 V 0 m 10,-22 V 0"
             style="stroke:#000000;stroke-width:1"
             id="path164" />
          <g
             font-family="Arial"
             font-size="21px"
             xml:space="preserve"
             fill="#000000"
             text-anchor="middle"
             id="g188"
             transform="translate(0,1.3630848)"><text
               dy="0.80000001em"
               transform="translate(49,5)"
               id="text168">-25</text><text
               dy="0.80000001em"
               transform="translate(97,5)"
               id="text170">-20</text><text
               dy="0.80000001em"
               transform="translate(146,5)"
               id="text172">-15</text><text
               dy="0.80000001em"
               transform="translate(194,5)"
               id="text174">-10</text><text
               dy="0.80000001em"
               transform="translate(243,5)"
               id="text176">-5</text><text
               dy="0.80000001em"
               transform="translate(292,5)"
               id="text178">0</text><text
               dy="0.80000001em"
               transform="translate(340,5)"
               id="text180">5</text><text
               dy="0.80000001em"
               transform="translate(389,5)"
               id="text182">10</text><text
               dy="0.80000001em"
               transform="translate(437,5)"
               id="text184">15</text></g>
          <rect
             x="0"
             y="0"
             width="486"
             height="24"
             style="opacity:0"
             id="rect190" />
          <g
             font-family="Arial"
             font-size="21px"
             xml:space="preserve"
             transform="translate(486,36)"
             id="g200"><g
               transform="translate(-61,6)"
               id="g198"><text
                 fill="#000000"
                 font-size="21px"
                 id="text192">v</text><text
                 fill="#000000"
                 font-size="13px"
                 transform="translate(11,4)"
                 id="text194">z</text><text
                 fill="#000000"
                 font-size="21px"
                 x="18"
                 id="text196"> (cm)</text></g></g>
        </g>
        <path
           d="m -467.99328,0 v 595 m 18,0 h -18 m 9,-11 h -9 m 9,-12 h -9 m 9,-11 h -9 m 9,-11 h -9 m 18,-12 h -18 m 9,-11 h -9 m 9,-11 h -9 m 9,-12 h -9 m 9,-11 h -9 m 18,-11 h -18 m 9,-12 h -9 m 9,-11 h -9 m 9,-11 h -9 m 9,-12 h -9 m 18,-11 h -18 m 9,-11 h -9 m 9,-12 h -9 m 9,-11 h -9 m 9,-11 h -9 m 18,-12 h -18 m 9,-11 h -9 m 9,-11 h -9 m 9,-12 h -9 m 9,-11 h -9 m 18,-11 h -18 m 9,-12 h -9 m 9,-11 h -9 m 9,-11 h -9 m 9,-12 h -9 m 18,-11 h -18 m 9,-11 h -9 m 9,-12 h -9 m 9,-11 h -9 m 9,-11 h -9 m 18,-12 h -18 m 9,-11 h -9 m 9,-11 h -9 m 9,-12 h -9 m 9,-11 h -9 m 18,-11 h -18 m 9,-12 h -9 m 9,-11 h -9 m 9,-11 h -9 m 9,-12 h -9 m 18,-11 h -18 m 9,-11 h -9 m 9,-12 h -9 m 9,-11 h -9 m 9,-11 h -9 m 18,-12 h -18 m 9,-11 h -9 m 9,-11 h -9"
           style="stroke:#000000;stroke-width:1"
           id="path204" />
        <path
           d="M 0.00202403,0.00646952 V 595.00647 m 17.99999997,0 H 0.00202403 m 8.99999997,-11 H 0.00202403 m 8.99999997,-12 H 0.00202403 m 8.99999997,-11 H 0.00202403 m 8.99999997,-11 H 0.00202403 m 17.99999997,-12 H 0.00202403 m 8.99999997,-11 H 0.00202403 m 8.99999997,-11 H 0.00202403 m 8.99999997,-12 H 0.00202403 m 8.99999997,-11 H 0.00202403 m 17.99999997,-11 H 0.00202403 m 8.99999997,-12 H 0.00202403 m 8.99999997,-11 H 0.00202403 m 8.99999997,-11 H 0.00202403 m 8.99999997,-12 H 0.00202403 m 17.99999997,-11 H 0.00202403 m 8.99999997,-11 H 0.00202403 m 8.99999997,-12 H 0.00202403 m 8.99999997,-11 H 0.00202403 m 8.99999997,-11 H 0.00202403 m 17.99999997,-12 H 0.00202403 m 8.99999997,-11 H 0.00202403 m 8.99999997,-11 H 0.00202403 m 8.99999997,-12 H 0.00202403 m 8.99999997,-11 H 0.00202403 m 17.99999997,-11 H 0.00202403 m 8.99999997,-12 H 0.00202403 m 8.99999997,-11 H 0.00202403 m 8.99999997,-11 H 0.00202403 m 8.99999997,-12 H 0.00202403 m 17.99999997,-11 H 0.00202403 m 8.99999997,-11 H 0.00202403 m 8.99999997,-12 H 0.00202403 m 8.99999997,-11 H 0.00202403 m 8.99999997,-11 H 0.00202403 m 17.99999997,-12 H 0.00202403 m 8.99999997,-11 H 0.00202403 m 8.99999997,-11 H 0.00202403 m 8.99999997,-12 H 0.00202403 m 8.99999997,-11 H 0.00202403 m 17.99999997,-11 H 0.00202403 m 8.99999997,-12 H 0.00202403 m 8.99999997,-11 H 0.00202403 m 8.99999997,-11 H 0.00202403 m 8.99999997,-12 H 0.00202403 m 17.99999997,-11 H 0.00202403 m 8.99999997,-11 H 0.00202403 m 8.99999997,-12 H 0.00202403 m 8.99999997,-11 H 0.00202403 m 8.99999997,-11 H 0.00202403 m 17.99999997,-12 H 0.00202403 m 8.99999997,-11 H 0.00202403 M 9.002024,6.0064695 H 0.00202403"
           style="stroke:#000000;stroke-width:1"
           id="path204-3" />
        <rect
           x="-33"
           y="0"
           width="33"
           height="595"
           style="opacity:0"
           id="rect230" />
      </g>
      <path
         d="M 2,2 H 17 V -3 H -3 v 20 h 5 z"
         style="opacity:0"
         id="path236" />
      <path
         d="m 484,2 h -15 v -5 h 20 v 20 h -5 z"
         style="opacity:0"
         id="path238" />
      <path
         d="m 2,593 h 15 v 5 H -3 v -20 h 5 z"
         style="opacity:0"
         id="path240" />
      <path
         d="m 484,593 h -15 v 5 h 20 v -20 h -5 z"
         style="opacity:0"
         id="path242" />
      <path
         d="M -3,18 H 2 V 577 H -3 Z"
         style="opacity:0"
         id="path244" />
      <path
         d="m 489,18 h -5 v 559 h 5 z"
         style="opacity:0"
         id="path246" />
      <path
         d="M 18,-3 V 2 H 468 V -3 Z"
         style="opacity:0"
         id="path248" />
      <path
         d="m 18,598 v -5 h 450 v 5 z"
         style="opacity:0"
         id="path250" />
      <style
         id="style252">
.jsroot rect.h1bin { stroke: #4572A7; fill: #4572A7; opacity: 0; }
.jsroot rect.zoom { stroke: steelblue; fill-opacity: 0.1; }
.jsroot path.zoom { stroke: steelblue; fill-opacity: 0.1; }
.jsroot svg:not(:root) { overflow: hidden; }</style>
    </g>
    <g
       transform="matrix(0.792,0,0,0.792,613.08311,33)"
       id="g264"
       style="font-size:23px;font-family:Arial">
      <text
         fill="#000000"
         font-size="30px"
         id="text258">v</text>
      <text
         fill="#000000"
         font-size="18px"
         transform="translate(15,6)"
         id="text260">z</text>
      <text
         fill="#000000"
         font-size="30px"
         x="31.57576"
         id="text262">FMT efficiency (pid 211)</text>
    </g>
    <g
       transform="translate(1001,6)"
       id="g396">
      <title
         id="title292" />
      <path
         d="M 0,0 H 486 V 595 H 0 Z"
         style="fill:#ffffff;stroke:#000000;stroke-width:1"
         id="path294" />
      <svg
         x="0"
         y="0"
         overflow="hidden"
         width="486"
         height="595"
         viewBox="0 0 486 595"
         version="1.1"
         id="svg304">
        <g
           id="g298">
          <path
             d="m 0,553 h 10 v -4 h 9 v 3 h 10 v -10 h 10 v -8 h 10 v -7 h 9 v -1 h 10 v -6 h 10 v -1 h 9 v -4 h 10 v -6 h 10 v -1 h 10 v -1 h 9 v -2 h 10 v -10 h 10 v -4 h 10 v -9 h 9 v -11 h 10 v 12 h 10 v -12 h 9 v -3 h 10 v -16 h 10 v 4 h 10 v -17 h 9 v 3 h 10 v -15 h 10 v 4 h 9 v -2 h 10 v -5 h 10 v -5 h 10 v 2 h 9 v 2 h 10 v -1 h 10 v 11 h 9 v -5 h 10 v 14 h 10 v 14 h 10 v 6 h 9 v 14 h 10 v 8 h 10 v 23 h 10 v 20 h 9 v 14 h 10 v 13 h 10 v 7 h 9 v 13 h 10 v 9 h 10 v 2 h 10 v 5 h 9 v 1 h 10 v 7 H 0 Z"
             style="fill:none;stroke:#ff0000;stroke-width:1;stroke-linejoin:miter"
             id="path296" />
        </g>
        <g
           id="g302">
          <path
             d="m 0,417 h 10 v 12 h 9 v 24 h 10 v -33 h 10 v -8 h 10 v 6 h 9 v 4 h 10 v -20 h 10 v 5 h 9 v 1 h 10 v -2 h 10 v 4 h 10 v 6 h 9 v -5 h 10 v -6 h 10 v -3 h 10 v -10 h 9 v -13 h 10 v 27 h 10 v -13 h 9 v 7 h 10 v -24 h 10 v 21 h 10 v -23 h 9 v 10 h 10 v -17 h 10 v 4 h 9 v 8 h 10 v -5 h 10 v -11 h 10 v 8 h 9 v -3 h 10 v -9 h 10 v 14 h 9 v -20 h 10 v 9 h 10 v 9 h 10 v -10 h 19 v -10 h 10 v 11 h 10 v 9 h 9 v 9 h 10 v 2 h 10 v -31 h 9 v 43 h 10 v 13 h 10 v 14 h 10 v 18 h 9 v 27 h 10 V 598 H 0 Z"
             style="fill:none;stroke:#0000ff;stroke-width:1;stroke-linejoin:miter"
             id="path300" />
        </g>
      </svg>
      <g
         id="g376">
        <g
           transform="translate(0,595)"
           id="g344">
          <path
             d="M 0,0 H 486 M 0,-22 V 0 M 10,-11 V 0 m 9,-11 V 0 M 29,-11 V 0 M 39,-11 V 0 M 49,-22 V 0 m 9,-11 V 0 M 68,-11 V 0 M 78,-11 V 0 m 9,-11 V 0 M 97,-22 V 0 m 10,-11 V 0 m 10,-11 V 0 m 9,-11 V 0 m 10,-11 V 0 m 10,-22 V 0 m 10,-11 V 0 m 9,-11 V 0 m 10,-11 V 0 m 10,-11 V 0 m 9,-22 V 0 m 10,-11 V 0 m 10,-11 V 0 m 10,-11 V 0 m 9,-11 V 0 m 10,-22 V 0 m 10,-11 V 0 m 9,-11 V 0 m 10,-11 V 0 m 10,-11 V 0 m 10,-22 V 0 m 9,-11 V 0 m 10,-11 V 0 m 10,-11 V 0 m 9,-11 V 0 m 10,-22 V 0 m 10,-11 V 0 m 10,-11 V 0 m 9,-11 V 0 m 10,-11 V 0 m 10,-22 V 0 m 10,-11 V 0 m 9,-11 V 0 m 10,-11 V 0 m 10,-11 V 0 m 9,-22 V 0 m 10,-11 V 0 m 10,-11 V 0 m 10,-11 V 0 m 9,-11 V 0 m 10,-22 V 0"
             style="stroke:#000000;stroke-width:1"
             id="path306" />
          <g
             font-family="Arial"
             font-size="21px"
             xml:space="preserve"
             fill="#000000"
             text-anchor="middle"
             id="g330"
             transform="translate(0,1.3630848)"><text
               dy="0.80000001em"
               transform="translate(49,5)"
               id="text310">-25</text><text
               dy="0.80000001em"
               transform="translate(97,5)"
               id="text312">-20</text><text
               dy="0.80000001em"
               transform="translate(146,5)"
               id="text314">-15</text><text
               dy="0.80000001em"
               transform="translate(194,5)"
               id="text316">-10</text><text
               dy="0.80000001em"
               transform="translate(243,5)"
               id="text318">-5</text><text
               dy="0.80000001em"
               transform="translate(292,5)"
               id="text320">0</text><text
               dy="0.80000001em"
               transform="translate(340,5)"
               id="text322">5</text><text
               dy="0.80000001em"
               transform="translate(389,5)"
               id="text324">10</text><text
               dy="0.80000001em"
               transform="translate(437,5)"
               id="text326">15</text><text
               dy="0.80000001em"
               transform="translate(486,5)"
               id="text328">20</text></g>
          <rect
             x="0"
             y="0"
             width="486"
             height="24"
             style="opacity:0"
             id="rect332" />
          <g
             font-family="Arial"
             font-size="21px"
             xml:space="preserve"
             transform="translate(486,36)"
             id="g342"><g
               transform="translate(-61,6)"
               id="g340"><text
                 fill="#000000"
                 font-size="21px"
                 id="text334">v</text><text
                 fill="#000000"
                 font-size="13px"
                 transform="translate(11,4)"
                 id="text336">z</text><text
                 fill="#000000"
                 font-size="21px"
                 x="18"
                 id="text338"> (cm)</text></g></g>
        </g>
      </g>
      <path
         d="M 2,2 H 17 V -3 H -3 v 20 h 5 z"
         style="opacity:0"
         id="path378" />
      <path
         d="m 484,2 h -15 v -5 h 20 v 20 h -5 z"
         style="opacity:0"
         id="path380" />
      <path
         d="m 2,593 h 15 v 5 H -3 v -20 h 5 z"
         style="opacity:0"
         id="path382" />
      <path
         d="m 484,593 h -15 v 5 h 20 v -20 h -5 z"
         style="opacity:0"
         id="path384" />
      <path
         d="M -3,18 H 2 V 577 H -3 Z"
         style="opacity:0"
         id="path386" />
      <path
         d="m 489,18 h -5 v 559 h 5 z"
         style="opacity:0"
         id="path388" />
      <path
         d="M 18,-3 V 2 H 468 V -3 Z"
         style="opacity:0"
         id="path390" />
      <path
         d="m 18,598 v -5 h 450 v 5 z"
         style="opacity:0"
         id="path392" />
      <style
         id="style394">
.jsroot rect.h1bin { stroke: #4572A7; fill: #4572A7; opacity: 0; }
.jsroot rect.zoom { stroke: steelblue; fill-opacity: 0.1; }
.jsroot path.zoom { stroke: steelblue; fill-opacity: 0.1; }
.jsroot svg:not(:root) { overflow: hidden; }</style>
    </g>
    <g
       transform="translate(1184.5,148.003)"
       font-family="Arial"
       font-size="21px"
       xml:space="preserve"
       id="g424"><path
         d="M 0,0 H 280 V 86 H 0 Z"
         style="fill:#ffffff;stroke:#000000;stroke-width:1"
         id="path398" /><path
         d="M 8,23 H 62"
         style="stroke:#ff0000;stroke-width:1"
         id="path400" /><text
         fill="#000000"
         text-anchor="start"
         dominant-baseline="middle"
         transform="translate(70,23)"
         id="text402">Raw</text><path
         d="M 8,63 H 62"
         style="stroke:#0000ff;stroke-width:1"
         id="path404" /><text
         fill="#000000"
         text-anchor="start"
         dominant-baseline="middle"
         transform="translate(70,63)"
         id="text406">Geometry-corrected</text><path
         d="M 2,2 H 17 V -3 H -3 v 20 h 5 z"
         style="opacity:0"
         id="path408" /><path
         d="m 278,2 h -15 v -5 h 20 v 20 h -5 z"
         style="opacity:0"
         id="path410" /><path
         d="m 2,84 h 15 v 5 H -3 V 69 h 5 z"
         style="opacity:0"
         id="path412" /><path
         d="m 278,84 h -15 v 5 h 20 V 69 h -5 z"
         style="opacity:0"
         id="path414" /><path
         d="M -3,18 H 2 V 68 H -3 Z"
         style="opacity:0"
         id="path416" /><path
         d="m 283,18 h -5 v 50 h 5 z"
         style="opacity:0"
         id="path418" /><path
         d="M 18,-3 V 2 H 262 V -3 Z"
         style="opacity:0"
         id="path420" /><path
         d="m 18,89 v -5 h 244 v 5 z"
         style="opacity:0"
         id="path422" /></g>
    <g
       transform="matrix(0.774,0,0,0.774,1105.2832,33)"
       id="g434"
       style="font-size:23px;font-family:Arial">
      <text
         fill="#000000"
         font-size="30px"
         id="text428">v</text>
      <text
         fill="#000000"
         font-size="18px"
         transform="translate(15,6)"
         id="text430">z</text>
      <text
         fill="#000000"
         font-size="30px"
         x="31.751936"
         id="text432">FMT efficiency (pid -211)</text>
    </g>
    <path
       d="M 1001.0101,6.0005082 V 601.00051 m 18,0 h -18 m 9,-11 h -9 m 9,-12 h -9 m 9,-11 h -9 m 9,-11 h -9 m 18,-12 h -18 m 9,-11 h -9 m 9,-11 h -9 m 9,-12 h -9 m 9,-11 h -9 m 18,-11 h -18 m 9,-12 h -9 m 9,-11 h -9 m 9,-11 h -9 m 9,-12 h -9 m 18,-11 h -18 m 9,-11 h -9 m 9,-12 h -9 m 9,-11 h -9 m 9,-11 h -9 m 18,-12 h -18 m 9,-11 h -9 m 9,-11 h -9 m 9,-12 h -9 m 9,-11 h -9 m 18,-11 h -18 m 9,-12 h -9 m 9,-11 h -9 m 9,-11 h -9 m 9,-12 h -9 m 18,-11 h -18 m 9,-11 h -9 m 9,-12 h -9 m 9,-11 h -9 m 9,-11 h -9 m 18,-12 h -18 m 9,-11 h -9 m 9,-11 h -9 m 9,-12 h -9 m 9,-11 h -9 m 18,-11 h -18 m 9,-12 h -9 m 9,-11 h -9 m 9,-11 h -9 m 9,-12 h -9 m 18,-11.000002 h -18 m 9,-11 h -9 m 9,-12 h -9 m 9,-11 h -9 m 9,-11 h -9 m 18,-12 h -18 m 9,-11 h -9 m 9,-11.000001 h -9"
       style="stroke:#000000;stroke-width:1"
       id="path204-3-6" />
  </g>
  <g
     font-family="Arial"
     font-size="21px"
     xml:space="preserve"
     fill="#000000"
     text-anchor="end"
     id="g228"
     transform="translate(31.372559,3)"><text
       dominant-baseline="middle"
       transform="translate(-3,595)"
       id="text206">0</text><text
       dominant-baseline="middle"
       transform="translate(-3,538)"
       id="text208">0.1</text><text
       dominant-baseline="middle"
       transform="translate(-3,482)"
       id="text210">0.2</text><text
       dominant-baseline="middle"
       transform="translate(-3,425)"
       id="text212">0.3</text><text
       dominant-baseline="middle"
       transform="translate(-3,368)"
       id="text214">0.4</text><text
       dominant-baseline="middle"
       transform="translate(-3,312)"
       id="text216">0.5</text><text
       dominant-baseline="middle"
       transform="translate(-3,255)"
       id="text218">0.6</text><text
       dominant-baseline="middle"
       transform="translate(-3,198)"
       id="text220">0.7</text><text
       dominant-baseline="middle"
       transform="translate(-3,142)"
       id="text222">0.8</text><text
       dominant-baseline="middle"
       transform="translate(-3,85)"
       id="text224">0.9</text><text
       dominant-baseline="middle"
       transform="translate(-3,28)"
       id="text226">1</text></g>
</svg>
