<?xml version="1.0" encoding="UTF-8" standalone="no"?>
<svg
   width="1284"
   height="580.76172"
   version="1.1"
   id="svg260"
   sodipodi:docname="21nu_acc.svg"
   inkscape:version="1.2.2 (1:1.2.2+202305151914+b0a8486541)"
   inkscape:export-filename="21nu_acc.pdf"
   inkscape:export-xdpi="96"
   inkscape:export-ydpi="96"
   xmlns:inkscape="http://www.inkscape.org/namespaces/inkscape"
   xmlns:sodipodi="http://sodipodi.sourceforge.net/DTD/sodipodi-0.dtd"
   xmlns="http://www.w3.org/2000/svg"
   xmlns:svg="http://www.w3.org/2000/svg">
  <defs
     id="defs264" />
  <sodipodi:namedview
     id="namedview262"
     pagecolor="#ffffff"
     bordercolor="#666666"
     borderopacity="1.0"
     inkscape:showpageshadow="2"
     inkscape:pageopacity="0.0"
     inkscape:pagecheckerboard="0"
     inkscape:deskcolor="#d1d1d1"
     showgrid="false"
     inkscape:zoom="0.71515151"
     inkscape:cx="495"
     inkscape:cy="128.64407"
     inkscape:window-width="1920"
     inkscape:window-height="1051"
     inkscape:window-x="0"
     inkscape:window-y="0"
     inkscape:window-maximized="1"
     inkscape:current-layer="svg260" />
  <g
     transform="translate(35,3)"
     id="g178">
    <title
       id="title4" />
    <path
       d="M 0,0 H 1246 V 528 H 0 Z"
       style="fill:#ffffff;stroke:#000000;stroke-width:1"
       id="path6" />
    <g
       id="g12">
      <path
         d="M 104,0 V 528 M 252,0 V 528 M 401,0 V 528 M 549,0 V 528 M 697,0 V 528 M 846,0 V 528 M 994,0 V 528 M 1142,0 v 528"
         style="stroke:#000000;stroke-width:1;stroke-dasharray:1, 2"
         id="path8" />
      <path
         d="M 0,528 H 1246 M 0,438 H 1246 M 0,347 H 1246 M 0,257 H 1246 M 0,166 H 1246 M 0,76 h 1246"
         style="stroke:#000000;stroke-width:1;stroke-dasharray:1, 2"
         id="path10" />
    </g>
    <svg
       x="0"
       y="0"
       overflow="hidden"
       width="1246"
       height="528"
       viewBox="0 0 1246 528"
       version="1.1"
       id="svg106">
      <g
         id="g58">
        <g
           transform="translate(169,516)"
           id="g18">
          <path
             d="M -65,1 H 83 V -1 H -65 Z"
             style="fill:none"
             id="path14" />
          <path
             d="m 0,0 h -65 m 0,3 V -3 M 0,0 h 83 m 0,3 V -3 M 0,0 V 1 M 3,1 H -3 M 0,0 v -1 m 3,0 h -6"
             style="fill:none;stroke:#000000;stroke-width:1"
             id="path16" />
        </g>
        <g
           transform="translate(317,459)"
           id="g24">
          <path
             d="M -65,3 H 83 V -3 H -65 Z"
             style="fill:none"
             id="path20" />
          <path
             d="m 0,0 h -65 m 0,3 V -3 M 0,0 h 83 m 0,3 V -3 M 0,0 V 3 M 3,3 H -3 M 0,0 v -3 m 3,0 h -6"
             style="fill:none;stroke:#000000;stroke-width:1"
             id="path22" />
        </g>
        <g
           transform="translate(465,391)"
           id="g30">
          <path
             d="M -65,5 H 83 V -5 H -65 Z"
             style="fill:none"
             id="path26" />
          <path
             d="m 0,0 h -65 m 0,3 V -3 M 0,0 h 83 m 0,3 V -3 M 0,0 V 5 M 3,5 H -3 M 0,0 v -5 m 3,0 h -6"
             style="fill:none;stroke:#000000;stroke-width:1"
             id="path28" />
        </g>
        <g
           transform="translate(614,304)"
           id="g36">
          <path
             d="M -65,7 H 83 V -7 H -65 Z"
             style="fill:none"
             id="path32" />
          <path
             d="m 0,0 h -65 m 0,3 V -3 M 0,0 h 83 m 0,3 V -3 M 0,0 V 7 M 3,7 H -3 M 0,0 v -7 m 3,0 h -6"
             style="fill:none;stroke:#000000;stroke-width:1"
             id="path34" />
        </g>
        <g
           transform="translate(762,187)"
           id="g42">
          <path
             d="M -65,8 H 83 V -8 H -65 Z"
             style="fill:none"
             id="path38" />
          <path
             d="m 0,0 h -65 m 0,3 V -3 M 0,0 h 83 m 0,3 V -3 M 0,0 V 8 M 3,8 H -3 M 0,0 v -8 m 3,0 h -6"
             style="fill:none;stroke:#000000;stroke-width:1"
             id="path40" />
        </g>
        <g
           transform="translate(910,115)"
           id="g48">
          <path
             d="M -65,9 H 83 V -9 H -65 Z"
             style="fill:none"
             id="path44" />
          <path
             d="m 0,0 h -65 m 0,3 V -3 M 0,0 h 83 m 0,3 V -3 M 0,0 V 9 M 3,9 H -3 M 0,0 v -9 m 3,0 h -6"
             style="fill:none;stroke:#000000;stroke-width:1"
             id="path46" />
        </g>
        <g
           transform="translate(1059,58)"
           id="g54">
          <path
             d="M -65,10 H 83 V -10 H -65 Z"
             style="fill:none"
             id="path50" />
          <path
             d="m 0,0 h -65 m 0,3 V -3 M 0,0 h 83 m 0,3 V -3 M 0,0 v 10 m 3,0 H -3 M 0,0 v -10 m 3,0 h -6"
             style="fill:none;stroke:#000000;stroke-width:1"
             id="path52" />
        </g>
        <path
           d="m 165,512 v 8 h 8 v -8 z m 148,-57 v 8 h 8 v -8 z m 148,-68 v 8 h 8 v -8 z m 149,-87 v 8 h 8 v -8 z M 758,183 v 8 h 8 v -8 z m 148,-72 v 8 h 8 v -8 z m 149,-57 v 8 h 8 v -8 z"
           style="fill:#ff0000;stroke:#ff0000"
           id="path56" />
      </g>
      <g
         id="g104">
        <g
           transform="translate(187,516)"
           id="g64">
          <path
             d="M -83,1 H 65 V -1 H -83 Z"
             style="fill:none"
             id="path60" />
          <path
             d="m 0,0 h -83 m 0,3 V -3 M 0,0 h 65 m 0,3 V -3 M 0,0 V 1 M 3,1 H -3 M 0,0 v -1 m 3,0 h -6"
             style="fill:none;stroke:#000000;stroke-width:1"
             id="path62" />
        </g>
        <g
           transform="translate(336,462)"
           id="g70">
          <path
             d="M -83,3 H 65 V -3 H -83 Z"
             style="fill:none"
             id="path66" />
          <path
             d="m 0,0 h -83 m 0,3 V -3 M 0,0 h 65 m 0,3 V -3 M 0,0 V 3 M 3,3 H -3 M 0,0 v -3 m 3,0 h -6"
             style="fill:none;stroke:#000000;stroke-width:1"
             id="path68" />
        </g>
        <g
           transform="translate(484,399)"
           id="g76">
          <path
             d="M -83,5 H 65 V -5 H -83 Z"
             style="fill:none"
             id="path72" />
          <path
             d="m 0,0 h -83 m 0,3 V -3 M 0,0 h 65 m 0,3 V -3 M 0,0 V 5 M 3,5 H -3 M 0,0 v -5 m 3,0 h -6"
             style="fill:none;stroke:#000000;stroke-width:1"
             id="path74" />
        </g>
        <g
           transform="translate(632,320)"
           id="g82">
          <path
             d="M -83,6 H 65 V -6 H -83 Z"
             style="fill:none"
             id="path78" />
          <path
             d="m 0,0 h -83 m 0,3 V -3 M 0,0 h 65 m 0,3 V -3 M 0,0 V 6 M 3,6 H -3 M 0,0 v -6 m 3,0 h -6"
             style="fill:none;stroke:#000000;stroke-width:1"
             id="path80" />
        </g>
        <g
           transform="translate(781,217)"
           id="g88">
          <path
             d="M -83,8 H 65 V -8 H -83 Z"
             style="fill:none"
             id="path84" />
          <path
             d="m 0,0 h -83 m 0,3 V -3 M 0,0 h 65 m 0,3 V -3 M 0,0 V 8 M 3,8 H -3 M 0,0 v -8 m 3,0 h -6"
             style="fill:none;stroke:#000000;stroke-width:1"
             id="path86" />
        </g>
        <g
           transform="translate(929,170)"
           id="g94">
          <path
             d="M -83,9 H 65 V -9 H -83 Z"
             style="fill:none"
             id="path90" />
          <path
             d="m 0,0 h -83 m 0,3 V -3 M 0,0 h 65 m 0,3 V -3 M 0,0 V 9 M 3,9 H -3 M 0,0 v -9 m 3,0 h -6"
             style="fill:none;stroke:#000000;stroke-width:1"
             id="path92" />
        </g>
        <g
           transform="translate(1077,164)"
           id="g100">
          <path
             d="M -83,9 H 65 V -9 H -83 Z"
             style="fill:none"
             id="path96" />
          <path
             d="m 0,0 h -83 m 0,3 V -3 M 0,0 h 65 m 0,3 V -3 M 0,0 V 9 M 3,9 H -3 M 0,0 v -9 m 3,0 h -6"
             style="fill:none;stroke:#000000;stroke-width:1"
             id="path98" />
        </g>
        <path
           d="m 183,512 v 8 h 8 v -8 z m 149,-54 v 8 h 8 v -8 z m 148,-63 v 8 h 8 v -8 z m 148,-79 v 8 h 8 v -8 z M 777,213 v 8 h 8 v -8 z m 148,-47 v 8 h 8 v -8 z m 148,-6 v 8 h 8 v -8 z"
           style="fill:#0000ff;stroke:#0000ff"
           id="path102" />
      </g>
    </svg>
    <g
       id="g158">
      <g
         transform="translate(0,528)"
         id="g136">
        <path
           d="M 0,0 H 1246 M 15,-10 V 0 M 45,-10 V 0 M 74,-10 V 0 m 30,-20 V 0 m 30,-10 V 0 m 29,-10 V 0 m 30,-10 V 0 m 30,-10 V 0 m 29,-20 V 0 m 30,-10 V 0 m 30,-10 V 0 m 29,-10 V 0 m 30,-10 V 0 m 30,-20 V 0 m 29,-10 V 0 m 30,-10 V 0 m 30,-10 V 0 m 29,-10 V 0 m 30,-20 V 0 m 30,-10 V 0 m 29,-10 V 0 m 30,-10 V 0 m 30,-10 V 0 m 29,-20 V 0 m 30,-10 V 0 m 30,-10 V 0 m 29,-10 V 0 m 30,-10 V 0 m 30,-20 V 0 m 29,-10 V 0 m 30,-10 V 0 m 30,-10 V 0 m 29,-10 V 0 m 30,-20 V 0 m 30,-10 V 0 m 29,-10 V 0 m 30,-10 V 0 m 30,-10 V 0 m 29,-20 V 0 m 30,-10 V 0 m 30,-10 V 0 m 29,-10 V 0"
           style="stroke:#000000;stroke-width:1"
           id="path108" />
        <g
           font-family="Arial"
           font-size="23px"
           xml:space="preserve"
           fill="#000000"
           text-anchor="middle"
           id="g126"><text
             dy="0.80000001em"
             transform="translate(104,5)"
             id="text110">2</text><text
             dy="0.80000001em"
             transform="translate(252,5)"
             id="text112">3</text><text
             dy="0.80000001em"
             transform="translate(401,5)"
             id="text114">4</text><text
             dy="0.80000001em"
             transform="translate(549,5)"
             id="text116">5</text><text
             dy="0.80000001em"
             transform="translate(697,5)"
             id="text118">6</text><text
             dy="0.80000001em"
             transform="translate(846,5)"
             id="text120">7</text><text
             dy="0.80000001em"
             transform="translate(994,5)"
             id="text122">8</text><text
             dy="0.80000001em"
             transform="translate(1142,5)"
             id="text124">9</text></g>
        <rect
           x="0"
           y="0"
           width="1246"
           height="26"
           style="opacity:0"
           id="rect128" />
        <g
           font-family="Arial"
           font-size="23px"
           xml:space="preserve"
           transform="translate(1246,37)"
           id="g134"><g
             transform="translate(-80,8)"
             id="g132"><text
               fill="#000000"
               font-size="23px"
               id="text130">ν (GeV)</text></g></g>
      </g>
      <g
         id="g156">
        <path
           d="m 0,0 v 528 m 47,0 H 0 M 24,510 H 0 M 24,492 H 0 M 24,474 H 0 M 24,456 H 0 M 47,438 H 0 M 24,419 H 0 M 24,401 H 0 M 24,383 H 0 M 24,365 H 0 M 47,347 H 0 M 24,329 H 0 M 24,311 H 0 M 24,293 H 0 M 24,275 H 0 M 47,257 H 0 M 24,238 H 0 M 24,220 H 0 M 24,202 H 0 M 24,184 H 0 M 47,166 H 0 M 24,148 H 0 M 24,130 H 0 M 24,112 H 0 M 24,94 H 0 M 47,76 H 0 M 24,57 H 0 M 24,39 H 0 M 24,21 H 0 M 24,3 H 0"
           style="stroke:#000000;stroke-width:1"
           id="path138" />
        <g
           font-family="Arial"
           font-size="23px"
           xml:space="preserve"
           fill="#000000"
           text-anchor="end"
           id="g152"><text
             dominant-baseline="middle"
             transform="translate(-3,528)"
             id="text140">0</text><text
             dominant-baseline="middle"
             transform="translate(-3,438)"
             id="text142">0.1</text><text
             dominant-baseline="middle"
             transform="translate(-3,347)"
             id="text144">0.2</text><text
             dominant-baseline="middle"
             transform="translate(-3,257)"
             id="text146">0.3</text><text
             dominant-baseline="middle"
             transform="translate(-3,166)"
             id="text148">0.4</text><text
             dominant-baseline="middle"
             transform="translate(-3,76)"
             id="text150">0.5</text></g>
        <rect
           x="-35"
           y="0"
           width="35"
           height="528"
           style="opacity:0"
           id="rect154" />
      </g>
    </g>
    <path
       d="M 2,2 H 17 V -3 H -3 v 20 h 5 z"
       style="opacity:0"
       id="path160" />
    <path
       d="m 1244,2 h -15 v -5 h 20 v 20 h -5 z"
       style="opacity:0"
       id="path162" />
    <path
       d="m 2,526 h 15 v 5 H -3 v -20 h 5 z"
       style="opacity:0"
       id="path164" />
    <path
       d="m 1244,526 h -15 v 5 h 20 v -20 h -5 z"
       style="opacity:0"
       id="path166" />
    <path
       d="M -3,18 H 2 V 510 H -3 Z"
       style="opacity:0"
       id="path168" />
    <path
       d="m 1249,18 h -5 v 492 h 5 z"
       style="opacity:0"
       id="path170" />
    <path
       d="M 18,-3 V 2 H 1228 V -3 Z"
       style="opacity:0"
       id="path172" />
    <path
       d="m 18,531 v -5 h 1210 v 5 z"
       style="opacity:0"
       id="path174" />
    <style
       id="style176">
.jsroot rect.h1bin { stroke: #4572A7; fill: #4572A7; opacity: 0; }
.jsroot rect.zoom { stroke: steelblue; fill-opacity: 0.1; }
.jsroot path.zoom { stroke: steelblue; fill-opacity: 0.1; }
.jsroot svg:not(:root) { overflow: hidden; }</style>
  </g>
  <g
     transform="translate(98,18)"
     font-family="Arial"
     font-size="49px"
     xml:space="preserve"
     id="g210"><path
       d="M 0,0 H 290 V 119 H 0 Z"
       style="fill:#ffffff;stroke:#000000;stroke-width:1"
       id="path180" /><path
       d="M 9,32 H 64"
       style="stroke:#000000;stroke-width:1"
       id="path182" /><path
       d="m 33,28 v 8 h 8 v -8 z"
       style="fill:#ff0000;stroke:#ff0000"
       id="path184" /><text
       fill="#000000"
       text-anchor="start"
       dominant-baseline="middle"
       transform="translate(73,32)"
       id="text186">DC</text><path
       d="M 9,87 H 64"
       style="stroke:#000000;stroke-width:1"
       id="path188" /><path
       d="m 33,83 v 8 h 8 v -8 z"
       style="fill:#0000ff;stroke:#0000ff"
       id="path190" /><text
       fill="#000000"
       text-anchor="start"
       dominant-baseline="middle"
       transform="translate(73,88)"
       id="text192">FMT</text><path
       d="M 2,2 H 17 V -3 H -3 v 20 h 5 z"
       style="opacity:0"
       id="path194" /><path
       d="m 288,2 h -15 v -5 h 20 v 20 h -5 z"
       style="opacity:0"
       id="path196" /><path
       d="m 2,117 h 15 v 5 H -3 v -20 h 5 z"
       style="opacity:0"
       id="path198" /><path
       d="m 288,117 h -15 v 5 h 20 v -20 h -5 z"
       style="opacity:0"
       id="path200" /><path
       d="m -3,18 h 5 v 83 h -5 z"
       style="opacity:0"
       id="path202" /><path
       d="m 293,18 h -5 v 83 h 5 z"
       style="opacity:0"
       id="path204" /><path
       d="M 18,-3 V 2 H 272 V -3 Z"
       style="opacity:0"
       id="path206" /><path
       d="m 18,122 v -5 h 254 v 5 z"
       style="opacity:0"
       id="path208" /></g>
</svg>
