<?xml version="1.0" encoding="UTF-8" standalone="no"?>
<svg
   width="567.429"
   height="608.262"
   viewBox="0 0 567.429 608.262"
   shape-rendering="crispEdges"
   version="1.1"
   id="svg496"
   sodipodi:docname="21nu_acc.svg"
   inkscape:version="1.2.2 (1:1.2.2+202305151914+b0a8486541)"
   inkscape:export-filename="21nu_acc.pdf"
   inkscape:export-xdpi="96"
   inkscape:export-ydpi="96"
   xmlns:inkscape="http://www.inkscape.org/namespaces/inkscape"
   xmlns:sodipodi="http://sodipodi.sourceforge.net/DTD/sodipodi-0.dtd"
   xmlns="http://www.w3.org/2000/svg"
   xmlns:svg="http://www.w3.org/2000/svg">
  <sodipodi:namedview
     id="namedview498"
     pagecolor="#ffffff"
     bordercolor="#666666"
     borderopacity="1.0"
     inkscape:showpageshadow="2"
     inkscape:pageopacity="0.0"
     inkscape:pagecheckerboard="0"
     inkscape:deskcolor="#d1d1d1"
     showgrid="false"
     inkscape:zoom="0.8511266"
     inkscape:cx="83.418847"
     inkscape:cy="291.37851"
     inkscape:window-width="1920"
     inkscape:window-height="1051"
     inkscape:window-x="0"
     inkscape:window-y="0"
     inkscape:window-maximized="1"
     inkscape:current-layer="svg496" />
  <title
     id="title2">
/home/twig/code/rge-analysis/macros/21nu_acc_11.svg
</title>
  <desc
     id="desc4">
Creator: ROOT Version 6.28/00
CreationDate: Thu Jun 22 15:07:59 2023</desc>
  <defs
     id="defs6" />
  <rect
     x="0.5"
     y="0"
     width="566.929"
     height="607.762"
     fill="white"
     id="rect8" />
  <rect
     x="57.1929"
     y="60.7762"
     width="453.543"
     height="486.21"
     fill="white"
     id="rect10" />
  <rect
     x="57.1929"
     y="60.7762"
     width="453.543"
     height="486.21"
     fill="none"
     stroke="black"
     id="rect12" />
  <rect
     x="57.1929"
     y="60.7762"
     width="453.543"
     height="486.21"
     fill="white"
     id="rect14" />
  <rect
     x="57.1929"
     y="60.7762"
     width="453.543"
     height="486.21"
     fill="none"
     stroke="black"
     id="rect16" />
  <path
     d="M57.1929,546.986h 453.543"
     fill="none"
     stroke="black"
     id="path18" />
  <path
     d="M94.9882,60.7762v 486.21"
     fill="none"
     stroke="black"
     stroke-dasharray=" 1, 2"
     id="path20" />
  <path
     d="M148.981,60.7762v 486.21"
     fill="none"
     stroke="black"
     stroke-dasharray=" 1, 2"
     id="path22" />
  <path
     d="M202.975,60.7762v 486.21"
     fill="none"
     stroke="black"
     stroke-dasharray=" 1, 2"
     id="path24" />
  <path
     d="M256.968,60.7762v 486.21"
     fill="none"
     stroke="black"
     stroke-dasharray=" 1, 2"
     id="path26" />
  <path
     d="M310.961,60.7762v 486.21"
     fill="none"
     stroke="black"
     stroke-dasharray=" 1, 2"
     id="path28" />
  <path
     d="M364.954,60.7762v 486.21"
     fill="none"
     stroke="black"
     stroke-dasharray=" 1, 2"
     id="path30" />
  <path
     d="M418.948,60.7762v 486.21"
     fill="none"
     stroke="black"
     stroke-dasharray=" 1, 2"
     id="path32" />
  <path
     d="M472.941,60.7762v 486.21"
     fill="none"
     stroke="black"
     stroke-dasharray=" 1, 2"
     id="path34" />
  <path
     d="M94.9882,60.7762v 486.21"
     fill="none"
     stroke="black"
     stroke-dasharray=" 1, 2"
     id="path36" />
  <path
     d="M472.941,60.7762v 486.21"
     fill="none"
     stroke="black"
     stroke-dasharray=" 1, 2"
     id="path38" />
  <path
     d="M57.1929,546.986v -486.21"
     fill="none"
     stroke="black"
     id="path40" />
  <path
     d="M510.736,546.986h -453.543"
     fill="none"
     stroke="black"
     stroke-dasharray=" 1, 2"
     id="path42" />
  <path
     d="M510.736,462.082h -453.543"
     fill="none"
     stroke="black"
     stroke-dasharray=" 1, 2"
     id="path44" />
  <path
     d="M510.736,377.178h -453.543"
     fill="none"
     stroke="black"
     stroke-dasharray=" 1, 2"
     id="path46" />
  <path
     d="M510.736,292.275h -453.543"
     fill="none"
     stroke="black"
     stroke-dasharray=" 1, 2"
     id="path48" />
  <path
     d="M510.736,207.371h -453.543"
     fill="none"
     stroke="black"
     stroke-dasharray=" 1, 2"
     id="path50" />
  <path
     d="M510.736,122.467h -453.543"
     fill="none"
     stroke="black"
     stroke-dasharray=" 1, 2"
     id="path52" />
  <path
     d="M510.736,122.467h -453.543"
     fill="none"
     stroke="black"
     stroke-dasharray=" 1, 2"
     id="path54" />
  <path
     d="M57.1929,546.986h 453.543"
     fill="none"
     stroke="black"
     id="path56" />
  <path
     d="M94.9882,532.4v 14.5863"
     fill="none"
     stroke="black"
     id="path58" />
  <path
     d="M105.787,539.693v 7.29315"
     fill="none"
     stroke="black"
     id="path60" />
  <path
     d="M116.585,539.693v 7.29315"
     fill="none"
     stroke="black"
     id="path62" />
  <path
     d="M127.384,539.693v 7.29315"
     fill="none"
     stroke="black"
     id="path64" />
  <path
     d="M138.183,539.693v 7.29315"
     fill="none"
     stroke="black"
     id="path66" />
  <path
     d="M148.981,532.4v 14.5863"
     fill="none"
     stroke="black"
     id="path68" />
  <path
     d="M159.78,539.693v 7.29315"
     fill="none"
     stroke="black"
     id="path70" />
  <path
     d="M170.579,539.693v 7.29315"
     fill="none"
     stroke="black"
     id="path72" />
  <path
     d="M181.377,539.693v 7.29315"
     fill="none"
     stroke="black"
     id="path74" />
  <path
     d="M192.176,539.693v 7.29315"
     fill="none"
     stroke="black"
     id="path76" />
  <path
     d="M202.975,532.4v 14.5863"
     fill="none"
     stroke="black"
     id="path78" />
  <path
     d="M213.773,539.693v 7.29315"
     fill="none"
     stroke="black"
     id="path80" />
  <path
     d="M224.572,539.693v 7.29315"
     fill="none"
     stroke="black"
     id="path82" />
  <path
     d="M235.371,539.693v 7.29315"
     fill="none"
     stroke="black"
     id="path84" />
  <path
     d="M246.169,539.693v 7.29315"
     fill="none"
     stroke="black"
     id="path86" />
  <path
     d="M256.968,532.4v 14.5863"
     fill="none"
     stroke="black"
     id="path88" />
  <path
     d="M267.767,539.693v 7.29315"
     fill="none"
     stroke="black"
     id="path90" />
  <path
     d="M278.565,539.693v 7.29315"
     fill="none"
     stroke="black"
     id="path92" />
  <path
     d="M289.364,539.693v 7.29315"
     fill="none"
     stroke="black"
     id="path94" />
  <path
     d="M300.163,539.693v 7.29315"
     fill="none"
     stroke="black"
     id="path96" />
  <path
     d="M310.961,532.4v 14.5863"
     fill="none"
     stroke="black"
     id="path98" />
  <path
     d="M321.76,539.693v 7.29315"
     fill="none"
     stroke="black"
     id="path100" />
  <path
     d="M332.559,539.693v 7.29315"
     fill="none"
     stroke="black"
     id="path102" />
  <path
     d="M343.357,539.693v 7.29315"
     fill="none"
     stroke="black"
     id="path104" />
  <path
     d="M354.156,539.693v 7.29315"
     fill="none"
     stroke="black"
     id="path106" />
  <path
     d="M364.954,532.4v 14.5863"
     fill="none"
     stroke="black"
     id="path108" />
  <path
     d="M375.753,539.693v 7.29315"
     fill="none"
     stroke="black"
     id="path110" />
  <path
     d="M386.552,539.693v 7.29315"
     fill="none"
     stroke="black"
     id="path112" />
  <path
     d="M397.35,539.693v 7.29315"
     fill="none"
     stroke="black"
     id="path114" />
  <path
     d="M408.149,539.693v 7.29315"
     fill="none"
     stroke="black"
     id="path116" />
  <path
     d="M418.948,532.4v 14.5863"
     fill="none"
     stroke="black"
     id="path118" />
  <path
     d="M429.746,539.693v 7.29315"
     fill="none"
     stroke="black"
     id="path120" />
  <path
     d="M440.545,539.693v 7.29315"
     fill="none"
     stroke="black"
     id="path122" />
  <path
     d="M451.344,539.693v 7.29315"
     fill="none"
     stroke="black"
     id="path124" />
  <path
     d="M462.142,539.693v 7.29315"
     fill="none"
     stroke="black"
     id="path126" />
  <path
     d="M472.941,532.4v 14.5863"
     fill="none"
     stroke="black"
     id="path128" />
  <path
     d="M94.9882,532.4v 14.5863"
     fill="none"
     stroke="black"
     id="path130" />
  <path
     d="M84.1895,539.693v 7.29315"
     fill="none"
     stroke="black"
     id="path132" />
  <path
     d="M73.3909,539.693v 7.29315"
     fill="none"
     stroke="black"
     id="path134" />
  <path
     d="M62.5922,539.693v 7.29315"
     fill="none"
     stroke="black"
     id="path136" />
  <path
     d="M472.941,532.4v 14.5863"
     fill="none"
     stroke="black"
     id="path138" />
  <path
     d="M483.74,539.693v 7.29315"
     fill="none"
     stroke="black"
     id="path140" />
  <path
     d="M494.538,539.693v 7.29315"
     fill="none"
     stroke="black"
     id="path142" />
  <path
     d="M505.337,539.693v 7.29315"
     fill="none"
     stroke="black"
     id="path144" />
  <text
     xml:space="preserve"
     x="89.8594"
     y="566.929"
     fill="black"
     font-size="18.7041"
     font-family="Helvetica"
     id="text146">2</text>
  <text
     xml:space="preserve"
     x="143.712"
     y="566.929"
     fill="black"
     font-size="18.7041"
     font-family="Helvetica"
     id="text148">3</text>
  <text
     xml:space="preserve"
     x="197.564"
     y="566.929"
     fill="black"
     font-size="18.7041"
     font-family="Helvetica"
     id="text150">4</text>
  <text
     xml:space="preserve"
     x="252.008"
     y="566.929"
     fill="black"
     font-size="18.7041"
     font-family="Helvetica"
     id="text152">5</text>
  <text
     xml:space="preserve"
     x="305.861"
     y="566.929"
     fill="black"
     font-size="18.7041"
     font-family="Helvetica"
     id="text154">6</text>
  <text
     xml:space="preserve"
     x="359.121"
     y="566.929"
     fill="black"
     font-size="18.7041"
     font-family="Helvetica"
     id="text156">7</text>
  <text
     xml:space="preserve"
     x="414.157"
     y="566.929"
     fill="black"
     font-size="18.7041"
     font-family="Helvetica"
     id="text158">8</text>
  <text
     xml:space="preserve"
     x="468.009"
     y="566.929"
     fill="black"
     font-size="18.7041"
     font-family="Helvetica"
     id="text160">9</text>
  <text
     xml:space="preserve"
     x="457.949"
     y="585.866"
     fill="black"
     font-size="18.7041"
     font-family="Helvetica"
     id="text162"> (GeV)</text>
  <text
     xml:space="preserve"
     x="448.481"
     y="585.866"
     fill="black"
     font-size="18.7041"
     font-family="Times"
     id="text164">ν</text>
  <path
     d="M57.1929,546.986v -486.21"
     fill="none"
     stroke="black"
     id="path166" />
  <path
     d="M70.7992,546.986h -13.6063"
     fill="none"
     stroke="black"
     id="path168" />
  <path
     d="M63.9961,530.005h -6.80315"
     fill="none"
     stroke="black"
     id="path170" />
  <path
     d="M63.9961,513.024h -6.80315"
     fill="none"
     stroke="black"
     id="path172" />
  <path
     d="M63.9961,496.044h -6.80315"
     fill="none"
     stroke="black"
     id="path174" />
  <path
     d="M63.9961,479.063h -6.80315"
     fill="none"
     stroke="black"
     id="path176" />
  <path
     d="M70.7992,462.082h -13.6063"
     fill="none"
     stroke="black"
     id="path178" />
  <path
     d="M63.9961,445.101h -6.80315"
     fill="none"
     stroke="black"
     id="path180" />
  <path
     d="M63.9961,428.121h -6.80315"
     fill="none"
     stroke="black"
     id="path182" />
  <path
     d="M63.9961,411.14h -6.80315"
     fill="none"
     stroke="black"
     id="path184" />
  <path
     d="M63.9961,394.159h -6.80315"
     fill="none"
     stroke="black"
     id="path186" />
  <path
     d="M70.7992,377.178h -13.6063"
     fill="none"
     stroke="black"
     id="path188" />
  <path
     d="M63.9961,360.198h -6.80315"
     fill="none"
     stroke="black"
     id="path190" />
  <path
     d="M63.9961,343.217h -6.80315"
     fill="none"
     stroke="black"
     id="path192" />
  <path
     d="M63.9961,326.236h -6.80315"
     fill="none"
     stroke="black"
     id="path194" />
  <path
     d="M63.9961,309.255h -6.80315"
     fill="none"
     stroke="black"
     id="path196" />
  <path
     d="M70.7992,292.275h -13.6063"
     fill="none"
     stroke="black"
     id="path198" />
  <path
     d="M63.9961,275.294h -6.80315"
     fill="none"
     stroke="black"
     id="path200" />
  <path
     d="M63.9961,258.313h -6.80315"
     fill="none"
     stroke="black"
     id="path202" />
  <path
     d="M63.9961,241.332h -6.80315"
     fill="none"
     stroke="black"
     id="path204" />
  <path
     d="M63.9961,224.352h -6.80315"
     fill="none"
     stroke="black"
     id="path206" />
  <path
     d="M70.7992,207.371h -13.6063"
     fill="none"
     stroke="black"
     id="path208" />
  <path
     d="M63.9961,190.39h -6.80315"
     fill="none"
     stroke="black"
     id="path210" />
  <path
     d="M63.9961,173.409h -6.80315"
     fill="none"
     stroke="black"
     id="path212" />
  <path
     d="M63.9961,156.428h -6.80315"
     fill="none"
     stroke="black"
     id="path214" />
  <path
     d="M63.9961,139.448h -6.80315"
     fill="none"
     stroke="black"
     id="path216" />
  <path
     d="M70.7992,122.467h -13.6063"
     fill="none"
     stroke="black"
     id="path218" />
  <path
     d="M70.7992,122.467h -13.6063"
     fill="none"
     stroke="black"
     id="path220" />
  <path
     d="M63.9961,105.486h -6.80315"
     fill="none"
     stroke="black"
     id="path222" />
  <path
     d="M63.9961,88.5054h -6.80315"
     fill="none"
     stroke="black"
     id="path224" />
  <path
     d="M63.9961,71.5247h -6.80315"
     fill="none"
     stroke="black"
     id="path226" />
  <text
     xml:space="preserve"
     x="44.8838"
     y="553.318"
     fill="black"
     font-size="18.7041"
     font-family="Helvetica"
     id="text228">0</text>
  <text
     xml:space="preserve"
     x="32.4563"
     y="468.101"
     fill="black"
     font-size="18.7041"
     font-family="Helvetica"
     id="text230">0.1</text>
  <text
     xml:space="preserve"
     x="29.4974"
     y="383.476"
     fill="black"
     font-size="18.7041"
     font-family="Helvetica"
     id="text232">0.2</text>
  <text
     xml:space="preserve"
     x="29.4974"
     y="298.259"
     fill="black"
     font-size="18.7041"
     font-family="Helvetica"
     id="text234">0.3</text>
  <text
     xml:space="preserve"
     x="29.4974"
     y="213.634"
     fill="black"
     font-size="18.7041"
     font-family="Helvetica"
     id="text236">0.4</text>
  <text
     xml:space="preserve"
     x="29.4974"
     y="128.417"
     fill="black"
     font-size="18.7041"
     font-family="Helvetica"
     id="text238">0.5</text>
  <g
     fill="#ff0000"
     id="g254">
    <rect
       x="112.869"
       y="532.947"
       width="4.73427"
       height="4.73427"
       id="rect240" />
    <rect
       x="166.862"
       y="480.004"
       width="4.73427"
       height="4.73427"
       id="rect242" />
    <rect
       x="220.855"
       y="416.209"
       width="4.73427"
       height="4.73427"
       id="rect244" />
    <rect
       x="274.848"
       y="334.824"
       width="4.73427"
       height="4.73427"
       id="rect246" />
    <rect
       x="328.842"
       y="224.709"
       width="4.73427"
       height="4.73427"
       id="rect248" />
    <rect
       x="382.835"
       y="157.49"
       width="4.73427"
       height="4.73427"
       id="rect250" />
    <rect
       x="436.828"
       y="103.452"
       width="4.73427"
       height="4.73427"
       id="rect252" />
  </g>
  <path
     d="M112.869,535.314h -17.8803"
     fill="none"
     stroke="black"
     id="path256" />
  <path
     d="M94.9882,536.497v -2.36714"
     fill="none"
     stroke="black"
     id="path258" />
  <path
     d="M117.603,535.314h 31.3786"
     fill="none"
     stroke="black"
     id="path260" />
  <path
     d="M148.981,536.497v -2.36714"
     fill="none"
     stroke="black"
     id="path262" />
  <path
     d="M166.862,482.371h -17.8803"
     fill="none"
     stroke="black"
     id="path264" />
  <path
     d="M148.981,483.555v -2.36714"
     fill="none"
     stroke="black"
     id="path266" />
  <path
     d="M171.596,482.371h 31.3786"
     fill="none"
     stroke="black"
     id="path268" />
  <path
     d="M202.975,483.555v -2.36714"
     fill="none"
     stroke="black"
     id="path270" />
  <path
     d="M220.855,418.576h -17.8803"
     fill="none"
     stroke="black"
     id="path272" />
  <path
     d="M202.975,419.76v -2.36714"
     fill="none"
     stroke="black"
     id="path274" />
  <path
     d="M225.589,418.576h 31.3786"
     fill="none"
     stroke="black"
     id="path276" />
  <path
     d="M256.968,419.76v -2.36714"
     fill="none"
     stroke="black"
     id="path278" />
  <path
     d="M274.848,337.192h -17.8803"
     fill="none"
     stroke="black"
     id="path280" />
  <path
     d="M256.968,338.375v -2.36714"
     fill="none"
     stroke="black"
     id="path282" />
  <path
     d="M279.583,337.192h 31.3786"
     fill="none"
     stroke="black"
     id="path284" />
  <path
     d="M310.961,338.375v -2.36714"
     fill="none"
     stroke="black"
     id="path286" />
  <path
     d="M328.842,227.076h -17.8803"
     fill="none"
     stroke="black"
     id="path288" />
  <path
     d="M310.961,228.259v -2.36714"
     fill="none"
     stroke="black"
     id="path290" />
  <path
     d="M333.576,227.076h 31.3786"
     fill="none"
     stroke="black"
     id="path292" />
  <path
     d="M364.954,228.259v -2.36714"
     fill="none"
     stroke="black"
     id="path294" />
  <path
     d="M382.835,159.857h -17.8803"
     fill="none"
     stroke="black"
     id="path296" />
  <path
     d="M364.954,161.041v -2.36714"
     fill="none"
     stroke="black"
     id="path298" />
  <path
     d="M387.569,159.857h 31.3786"
     fill="none"
     stroke="black"
     id="path300" />
  <path
     d="M418.948,161.041v -2.36714"
     fill="none"
     stroke="black"
     id="path302" />
  <path
     d="M436.828,105.82h -17.8803"
     fill="none"
     stroke="black"
     id="path304" />
  <path
     d="M418.948,107.003v -2.36714"
     fill="none"
     stroke="black"
     id="path306" />
  <path
     d="M441.562,105.82h 31.3786"
     fill="none"
     stroke="black"
     id="path308" />
  <path
     d="M472.941,107.003v -2.36714"
     fill="none"
     stroke="black"
     id="path310" />
  <path
     d="M119.618,535.307h -24.6295"
     fill="none"
     stroke="black"
     id="path312" />
  <path
     d="M94.9882,536.491v -2.36714"
     fill="none"
     stroke="black"
     id="path314" />
  <path
     d="M124.352,535.307h 24.6295"
     fill="none"
     stroke="black"
     id="path316" />
  <path
     d="M148.981,536.491v -2.36714"
     fill="none"
     stroke="black"
     id="path318" />
  <path
     d="M173.611,485.061h -24.6295"
     fill="none"
     stroke="black"
     id="path320" />
  <path
     d="M148.981,486.244v -2.36714"
     fill="none"
     stroke="black"
     id="path322" />
  <path
     d="M178.345,485.061h 24.6295"
     fill="none"
     stroke="black"
     id="path324" />
  <path
     d="M202.975,486.244v -2.36714"
     fill="none"
     stroke="black"
     id="path326" />
  <path
     d="M227.604,426.161h -24.6295"
     fill="none"
     stroke="black"
     id="path328" />
  <path
     d="M202.975,427.345v -2.36714"
     fill="none"
     stroke="black"
     id="path330" />
  <path
     d="M232.338,426.161h 24.6295"
     fill="none"
     stroke="black"
     id="path332" />
  <path
     d="M256.968,427.345v -2.36714"
     fill="none"
     stroke="black"
     id="path334" />
  <path
     d="M281.597,352.297h -24.6295"
     fill="none"
     stroke="black"
     id="path336" />
  <path
     d="M256.968,353.48v -2.36714"
     fill="none"
     stroke="black"
     id="path338" />
  <path
     d="M286.332,352.297h 24.6295"
     fill="none"
     stroke="black"
     id="path340" />
  <path
     d="M310.961,353.48v -2.36714"
     fill="none"
     stroke="black"
     id="path342" />
  <path
     d="M335.591,255.064h -24.6295"
     fill="none"
     stroke="black"
     id="path344" />
  <path
     d="M310.961,256.247v -2.36714"
     fill="none"
     stroke="black"
     id="path346" />
  <path
     d="M340.325,255.064h 24.6295"
     fill="none"
     stroke="black"
     id="path348" />
  <path
     d="M364.954,256.247v -2.36714"
     fill="none"
     stroke="black"
     id="path350" />
  <path
     d="M389.584,210.801h -24.6295"
     fill="none"
     stroke="black"
     id="path352" />
  <path
     d="M364.954,211.984v -2.36714"
     fill="none"
     stroke="black"
     id="path354" />
  <path
     d="M394.318,210.801h 24.6295"
     fill="none"
     stroke="black"
     id="path356" />
  <path
     d="M418.948,211.984v -2.36714"
     fill="none"
     stroke="black"
     id="path358" />
  <path
     d="M443.577,205.378h -24.6295"
     fill="none"
     stroke="black"
     id="path360" />
  <path
     d="M418.948,206.561v -2.36714"
     fill="none"
     stroke="black"
     id="path362" />
  <path
     d="M448.311,205.378h 24.6295"
     fill="none"
     stroke="black"
     id="path364" />
  <path
     d="M472.941,206.561v -2.36714"
     fill="none"
     stroke="black"
     id="path366" />
  <g
     fill="#0000ff"
     id="g382">
    <rect
       x="119.618"
       y="532.94"
       width="4.73427"
       height="4.73427"
       id="rect368" />
    <rect
       x="173.611"
       y="482.694"
       width="4.73427"
       height="4.73427"
       id="rect370" />
    <rect
       x="227.604"
       y="423.794"
       width="4.73427"
       height="4.73427"
       id="rect372" />
    <rect
       x="281.597"
       y="349.93"
       width="4.73427"
       height="4.73427"
       id="rect374" />
    <rect
       x="335.591"
       y="252.697"
       width="4.73427"
       height="4.73427"
       id="rect376" />
    <rect
       x="389.584"
       y="208.434"
       width="4.73427"
       height="4.73427"
       id="rect378" />
    <rect
       x="443.577"
       y="203.01"
       width="4.73427"
       height="4.73427"
       id="rect380" />
  </g>
  <path
     d="M126.367,536.078h -31.3786"
     fill="none"
     stroke="black"
     id="path384" />
  <path
     d="M94.9882,537.261v -2.36714"
     fill="none"
     stroke="black"
     id="path386" />
  <path
     d="M131.101,536.078h 17.8803"
     fill="none"
     stroke="black"
     id="path388" />
  <path
     d="M148.981,537.261v -2.36714"
     fill="none"
     stroke="black"
     id="path390" />
  <path
     d="M180.36,490.43h -31.3786"
     fill="none"
     stroke="black"
     id="path392" />
  <path
     d="M148.981,491.613v -2.36714"
     fill="none"
     stroke="black"
     id="path394" />
  <path
     d="M185.094,490.43h 17.8803"
     fill="none"
     stroke="black"
     id="path396" />
  <path
     d="M202.975,491.613v -2.36714"
     fill="none"
     stroke="black"
     id="path398" />
  <path
     d="M234.353,439.017h -31.3786"
     fill="none"
     stroke="black"
     id="path400" />
  <path
     d="M202.975,440.201v -2.36714"
     fill="none"
     stroke="black"
     id="path402" />
  <path
     d="M239.088,439.017h 17.8803"
     fill="none"
     stroke="black"
     id="path404" />
  <path
     d="M256.968,440.201v -2.36714"
     fill="none"
     stroke="black"
     id="path406" />
  <path
     d="M288.347,376.747h -31.3786"
     fill="none"
     stroke="black"
     id="path408" />
  <path
     d="M256.968,377.931v -2.36714"
     fill="none"
     stroke="black"
     id="path410" />
  <path
     d="M293.081,376.747h 17.8803"
     fill="none"
     stroke="black"
     id="path412" />
  <path
     d="M310.961,377.931v -2.36714"
     fill="none"
     stroke="black"
     id="path414" />
  <path
     d="M342.34,299.704h -31.3786"
     fill="none"
     stroke="black"
     id="path416" />
  <path
     d="M310.961,300.887v -2.36714"
     fill="none"
     stroke="black"
     id="path418" />
  <path
     d="M347.074,299.704h 17.8803"
     fill="none"
     stroke="black"
     id="path420" />
  <path
     d="M364.954,300.887v -2.36714"
     fill="none"
     stroke="black"
     id="path422" />
  <path
     d="M396.333,283.37h -31.3786"
     fill="none"
     stroke="black"
     id="path424" />
  <path
     d="M364.954,284.553v -2.36714"
     fill="none"
     stroke="black"
     id="path426" />
  <path
     d="M401.067,283.37h 17.8803"
     fill="none"
     stroke="black"
     id="path428" />
  <path
     d="M418.948,284.553v -2.36714"
     fill="none"
     stroke="black"
     id="path430" />
  <path
     d="M450.326,327.402h -31.3786"
     fill="none"
     stroke="black"
     id="path432" />
  <path
     d="M418.948,328.585v -2.36714"
     fill="none"
     stroke="black"
     id="path434" />
  <path
     d="M455.061,327.402h 17.8803"
     fill="none"
     stroke="black"
     id="path436" />
  <path
     d="M472.941,328.585v -2.36714"
     fill="none"
     stroke="black"
     id="path438" />
  <g
     fill="#00ff00"
     id="g454">
    <rect
       x="126.367"
       y="533.711"
       width="4.73427"
       height="4.73427"
       id="rect440" />
    <rect
       x="180.36"
       y="488.062"
       width="4.73427"
       height="4.73427"
       id="rect442" />
    <rect
       x="234.353"
       y="436.65"
       width="4.73427"
       height="4.73427"
       id="rect444" />
    <rect
       x="288.347"
       y="374.38"
       width="4.73427"
       height="4.73427"
       id="rect446" />
    <rect
       x="342.34"
       y="297.337"
       width="4.73427"
       height="4.73427"
       id="rect448" />
    <rect
       x="396.333"
       y="281.003"
       width="4.73427"
       height="4.73427"
       id="rect450" />
    <rect
       x="450.326"
       y="325.035"
       width="4.73427"
       height="4.73427"
       id="rect452" />
  </g>
  <rect
     x="70.3305"
     y="73.3812"
     width="169.842"
     height="60.362"
     fill="white"
     id="rect456" />
  <path
     d="M70.3305,133.743h 169.842"
     fill="none"
     stroke="black"
     id="path458" />
  <path
     d="M240.173,133.743v -60.362"
     fill="none"
     stroke="black"
     id="path460" />
  <path
     d="M240.173,73.3812h -169.842"
     fill="none"
     stroke="black"
     id="path462" />
  <path
     d="M70.3305,73.3812v 60.362"
     fill="none"
     stroke="black"
     id="path464" />
  <text
     xml:space="preserve"
     x="112.347"
     y="87.584"
     fill="black"
     font-size="13.6676"
     font-family="Helvetica"
     id="text466">DC</text>
  <path
     d="M76.6996,83.4416h 29.7224"
     fill="none"
     stroke="black"
     id="path468" />
  <g
     fill="#ff0000"
     id="g472">
    <rect
       x="89.1936"
       y="81.0744"
       width="4.73427"
       height="4.73427"
       id="rect470" />
  </g>
  <text
     xml:space="preserve"
     x="112.347"
     y="107.705"
     fill="black"
     font-size="13.6676"
     font-family="Helvetica"
     id="text474">FMT - 2 layers</text>
  <path
     d="M76.6996,103.562h 29.7224"
     fill="none"
     stroke="black"
     id="path476" />
  <g
     fill="#0000ff"
     id="g480">
    <rect
       x="89.1936"
       y="101.195"
       width="4.73427"
       height="4.73427"
       id="rect478" />
  </g>
  <text
     xml:space="preserve"
     x="112.347"
     y="127.825"
     fill="black"
     font-size="13.6676"
     font-family="Helvetica"
     id="text482">FMT - 3 layers</text>
  <path
     d="M76.6996,123.683h 29.7224"
     fill="none"
     stroke="black"
     id="path484" />
  <g
     fill="#00ff00"
     id="g488">
    <rect
       x="89.1936"
       y="121.316"
       width="4.73427"
       height="4.73427"
       id="rect486" />
  </g>
  <g
     id="g635"
     transform="translate(3.1841446)">
    <text
       xml:space="preserve"
       x="223.82509"
       y="35.507"
       fill="#000000"
       font-size="13.8618px"
       font-family="Helvetica"
       font-weight="bold"
       id="text492"> (GeV) acceptance</text>
    <text
       xml:space="preserve"
       x="217.235"
       y="35.507"
       fill="#000000"
       font-size="13.8618px"
       font-family="Times"
       id="text494">ν</text>
  </g>
</svg>
