<?xml version="1.0" encoding="UTF-8" standalone="no"?>
<svg
   width="1284"
   height="580.76172"
   version="1.1"
   id="svg260"
   sodipodi:docname="21nu_acc.svg"
   inkscape:version="1.2.2 (1:1.2.2+202305151914+b0a8486541)"
   inkscape:export-filename="21nu_acc.pdf"
   inkscape:export-xdpi="96"
   inkscape:export-ydpi="96"
   xmlns:inkscape="http://www.inkscape.org/namespaces/inkscape"
   xmlns:sodipodi="http://sodipodi.sourceforge.net/DTD/sodipodi-0.dtd"
   xmlns="http://www.w3.org/2000/svg"
   xmlns:svg="http://www.w3.org/2000/svg">
  <defs
     id="defs264" />
  <sodipodi:namedview
     id="namedview262"
     pagecolor="#ffffff"
     bordercolor="#666666"
     borderopacity="1.0"
     inkscape:showpageshadow="2"
     inkscape:pageopacity="0.0"
     inkscape:pagecheckerboard="0"
     inkscape:deskcolor="#d1d1d1"
     showgrid="false"
     inkscape:zoom="0.71515151"
     inkscape:cx="708.94068"
     inkscape:cy="124.44915"
     inkscape:window-width="1920"
     inkscape:window-height="1051"
     inkscape:window-x="0"
     inkscape:window-y="0"
     inkscape:window-maximized="1"
     inkscape:current-layer="svg260" />
  <g
     transform="translate(35,3)"
     id="g178">
    <title
       id="title4" />
    <path
       d="M 0,0 H 1246 V 528 H 0 Z"
       style="fill:#ffffff;stroke:#000000;stroke-width:1"
       id="path6" />
    <g
       id="g12">
      <path
         d="M 104,0 V 528 M 252,0 V 528 M 401,0 V 528 M 549,0 V 528 M 697,0 V 528 M 846,0 V 528 M 994,0 V 528 M 1142,0 v 528"
         style="stroke:#000000;stroke-width:1;stroke-dasharray:1, 2"
         id="path8" />
      <path
         d="M 0,528 H 1246 M 0,436 H 1246 M 0,343 H 1246 M 0,251 H 1246 M 0,159 H 1246 M 0,67 h 1246"
         style="stroke:#000000;stroke-width:1;stroke-dasharray:1, 2"
         id="path10" />
    </g>
    <svg
       x="0"
       y="0"
       overflow="hidden"
       width="1246"
       height="528"
       viewBox="0 0 1246 528"
       version="1.1"
       id="svg106">
      <g
         id="g58">
        <g
           transform="translate(169,515)"
           id="g18">
          <path
             d="M -65,0 H 83 v 0 z"
             style="fill:none"
             id="path14" />
          <path
             d="m 0,0 h -65 m 0,3 V -3 M 0,0 h 83 m 0,3 V -3 M 0,0 m 3,0 h -6 m 3,0 m 3,0 h -6"
             style="fill:none;stroke:#000000;stroke-width:1"
             id="path16" />
        </g>
        <g
           transform="translate(317,458)"
           id="g24">
          <path
             d="M -65,0 H 83 v 0 z"
             style="fill:none"
             id="path20" />
          <path
             d="m 0,0 h -65 m 0,3 V -3 M 0,0 h 83 m 0,3 V -3 M 0,0 m 3,0 h -6 m 3,0 m 3,0 h -6"
             style="fill:none;stroke:#000000;stroke-width:1"
             id="path22" />
        </g>
        <g
           transform="translate(465,388)"
           id="g30">
          <path
             d="M -65,0 H 83 v 0 z"
             style="fill:none"
             id="path26" />
          <path
             d="m 0,0 h -65 m 0,3 V -3 M 0,0 h 83 m 0,3 V -3 M 0,0 m 3,0 h -6 m 3,0 m 3,0 h -6"
             style="fill:none;stroke:#000000;stroke-width:1"
             id="path28" />
        </g>
        <g
           transform="translate(614,300)"
           id="g36">
          <path
             d="M -65,0 H 83 v 0 z"
             style="fill:none"
             id="path32" />
          <path
             d="m 0,0 h -65 m 0,3 V -3 M 0,0 h 83 m 0,3 V -3 M 0,0 m 3,0 h -6 m 3,0 m 3,0 h -6"
             style="fill:none;stroke:#000000;stroke-width:1"
             id="path34" />
        </g>
        <g
           transform="translate(762,180)"
           id="g42">
          <path
             d="M -65,0 H 83 v 0 z"
             style="fill:none"
             id="path38" />
          <path
             d="m 0,0 h -65 m 0,3 V -3 M 0,0 h 83 m 0,3 V -3 M 0,0 m 3,0 h -6 m 3,0 m 3,0 h -6"
             style="fill:none;stroke:#000000;stroke-width:1"
             id="path40" />
        </g>
        <g
           transform="translate(910,107)"
           id="g48">
          <path
             d="M -65,0 H 83 v 0 z"
             style="fill:none"
             id="path44" />
          <path
             d="m 0,0 h -65 m 0,3 V -3 M 0,0 h 83 m 0,3 V -3 M 0,0 m 3,0 h -6 m 3,0 m 3,0 h -6"
             style="fill:none;stroke:#000000;stroke-width:1"
             id="path46" />
        </g>
        <g
           transform="translate(1059,49)"
           id="g54">
          <path
             d="M -65,1 H 83 V -1 H -65 Z"
             style="fill:none"
             id="path50" />
          <path
             d="m 0,0 h -65 m 0,3 V -3 M 0,0 h 83 m 0,3 V -3 M 0,0 V 1 M 3,1 H -3 M 0,0 v -1 m 3,0 h -6"
             style="fill:none;stroke:#000000;stroke-width:1"
             id="path52" />
        </g>
        <path
           d="m 165,511 v 8 h 8 v -8 z m 148,-57 v 8 h 8 v -8 z m 148,-70 v 8 h 8 v -8 z m 149,-88 v 8 h 8 v -8 z M 758,176 v 8 h 8 v -8 z m 148,-73 v 8 h 8 v -8 z m 149,-58 v 8 h 8 v -8 z"
           style="fill:#ff0000;stroke:#ff0000"
           id="path56" />
      </g>
      <g
         id="g104">
        <g
           transform="translate(187,515)"
           id="g64">
          <path
             d="M -83,0 H 65 v 0 z"
             style="fill:none"
             id="path60" />
          <path
             d="m 0,0 h -83 m 0,3 V -3 M 0,0 h 65 m 0,3 V -3 M 0,0 m 3,0 h -6 m 3,0 m 3,0 h -6"
             style="fill:none;stroke:#000000;stroke-width:1"
             id="path62" />
        </g>
        <g
           transform="translate(336,461)"
           id="g70">
          <path
             d="M -83,0 H 65 v 0 z"
             style="fill:none"
             id="path66" />
          <path
             d="m 0,0 h -83 m 0,3 V -3 M 0,0 h 65 m 0,3 V -3 M 0,0 m 3,0 h -6 m 3,0 m 3,0 h -6"
             style="fill:none;stroke:#000000;stroke-width:1"
             id="path68" />
        </g>
        <g
           transform="translate(484,397)"
           id="g76">
          <path
             d="M -83,0 H 65 v 0 z"
             style="fill:none"
             id="path72" />
          <path
             d="m 0,0 h -83 m 0,3 V -3 M 0,0 h 65 m 0,3 V -3 M 0,0 m 3,0 h -6 m 3,0 m 3,0 h -6"
             style="fill:none;stroke:#000000;stroke-width:1"
             id="path74" />
        </g>
        <g
           transform="translate(632,316)"
           id="g82">
          <path
             d="M -83,0 H 65 v 0 z"
             style="fill:none"
             id="path78" />
          <path
             d="m 0,0 h -83 m 0,3 V -3 M 0,0 h 65 m 0,3 V -3 M 0,0 m 3,0 h -6 m 3,0 m 3,0 h -6"
             style="fill:none;stroke:#000000;stroke-width:1"
             id="path80" />
        </g>
        <g
           transform="translate(781,211)"
           id="g88">
          <path
             d="M -83,0 H 65 v 0 z"
             style="fill:none"
             id="path84" />
          <path
             d="m 0,0 h -83 m 0,3 V -3 M 0,0 h 65 m 0,3 V -3 M 0,0 m 3,0 h -6 m 3,0 m 3,0 h -6"
             style="fill:none;stroke:#000000;stroke-width:1"
             id="path86" />
        </g>
        <g
           transform="translate(929,163)"
           id="g94">
          <path
             d="M -83,0 H 65 v 0 z"
             style="fill:none"
             id="path90" />
          <path
             d="m 0,0 h -83 m 0,3 V -3 M 0,0 h 65 m 0,3 V -3 M 0,0 m 3,0 h -6 m 3,0 m 3,0 h -6"
             style="fill:none;stroke:#000000;stroke-width:1"
             id="path92" />
        </g>
        <g
           transform="translate(1077,157)"
           id="g100">
          <path
             d="M -83,1 H 65 V -1 H -83 Z"
             style="fill:none"
             id="path96" />
          <path
             d="m 0,0 h -83 m 0,3 V -3 M 0,0 h 65 m 0,3 V -3 M 0,0 V 1 M 3,1 H -3 M 0,0 v -1 m 3,0 h -6"
             style="fill:none;stroke:#000000;stroke-width:1"
             id="path98" />
        </g>
        <path
           d="m 183,511 v 8 h 8 v -8 z m 149,-54 v 8 h 8 v -8 z m 148,-64 v 8 h 8 v -8 z m 148,-81 v 8 h 8 v -8 z M 777,207 v 8 h 8 v -8 z m 148,-48 v 8 h 8 v -8 z m 148,-6 v 8 h 8 v -8 z"
           style="fill:#0000ff;stroke:#0000ff"
           id="path102" />
      </g>
    </svg>
    <g
       id="g158">
      <g
         transform="translate(0,528)"
         id="g136">
        <path
           d="M 0,0 H 1246 M 15,-10 V 0 M 45,-10 V 0 M 74,-10 V 0 m 30,-20 V 0 m 30,-10 V 0 m 29,-10 V 0 m 30,-10 V 0 m 30,-10 V 0 m 29,-20 V 0 m 30,-10 V 0 m 30,-10 V 0 m 29,-10 V 0 m 30,-10 V 0 m 30,-20 V 0 m 29,-10 V 0 m 30,-10 V 0 m 30,-10 V 0 m 29,-10 V 0 m 30,-20 V 0 m 30,-10 V 0 m 29,-10 V 0 m 30,-10 V 0 m 30,-10 V 0 m 29,-20 V 0 m 30,-10 V 0 m 30,-10 V 0 m 29,-10 V 0 m 30,-10 V 0 m 30,-20 V 0 m 29,-10 V 0 m 30,-10 V 0 m 30,-10 V 0 m 29,-10 V 0 m 30,-20 V 0 m 30,-10 V 0 m 29,-10 V 0 m 30,-10 V 0 m 30,-10 V 0 m 29,-20 V 0 m 30,-10 V 0 m 30,-10 V 0 m 29,-10 V 0"
           style="stroke:#000000;stroke-width:1"
           id="path108" />
        <g
           font-family="Arial"
           font-size="23px"
           xml:space="preserve"
           fill="#000000"
           text-anchor="middle"
           id="g126"><text
             dy="0.80000001em"
             transform="translate(104,5)"
             id="text110">2</text><text
             dy="0.80000001em"
             transform="translate(252,5)"
             id="text112">3</text><text
             dy="0.80000001em"
             transform="translate(401,5)"
             id="text114">4</text><text
             dy="0.80000001em"
             transform="translate(549,5)"
             id="text116">5</text><text
             dy="0.80000001em"
             transform="translate(697,5)"
             id="text118">6</text><text
             dy="0.80000001em"
             transform="translate(846,5)"
             id="text120">7</text><text
             dy="0.80000001em"
             transform="translate(994,5)"
             id="text122">8</text><text
             dy="0.80000001em"
             transform="translate(1142,5)"
             id="text124">9</text></g>
        <rect
           x="0"
           y="0"
           width="1246"
           height="26"
           style="opacity:0"
           id="rect128" />
        <g
           font-family="Arial"
           font-size="23px"
           xml:space="preserve"
           transform="translate(1246,37)"
           id="g134"><g
             transform="translate(-80,8)"
             id="g132"><text
               fill="#000000"
               font-size="23px"
               id="text130">ν (GeV)</text></g></g>
      </g>
      <g
         id="g156">
        <path
           d="m 0,0 v 528 m 47,0 H 0 M 24,510 H 0 M 24,491 H 0 M 24,473 H 0 M 24,454 H 0 M 47,436 H 0 M 24,417 H 0 M 24,399 H 0 M 24,380 H 0 M 24,362 H 0 M 47,343 H 0 M 24,325 H 0 M 24,307 H 0 M 24,288 H 0 M 24,270 H 0 M 47,251 H 0 M 24,233 H 0 M 24,214 H 0 M 24,196 H 0 M 24,177 H 0 M 47,159 H 0 M 24,140 H 0 M 24,122 H 0 M 24,104 H 0 M 24,85 H 0 M 47,67 H 0 M 24,48 H 0 M 24,30 H 0 M 24,11 H 0"
           style="stroke:#000000;stroke-width:1"
           id="path138" />
        <g
           font-family="Arial"
           font-size="23px"
           xml:space="preserve"
           fill="#000000"
           text-anchor="end"
           id="g152"><text
             dominant-baseline="middle"
             transform="translate(-3,528)"
             id="text140">0</text><text
             dominant-baseline="middle"
             transform="translate(-3,436)"
             id="text142">0.1</text><text
             dominant-baseline="middle"
             transform="translate(-3,343)"
             id="text144">0.2</text><text
             dominant-baseline="middle"
             transform="translate(-3,251)"
             id="text146">0.3</text><text
             dominant-baseline="middle"
             transform="translate(-3,159)"
             id="text148">0.4</text><text
             dominant-baseline="middle"
             transform="translate(-3,67)"
             id="text150">0.5</text></g>
        <rect
           x="-35"
           y="0"
           width="35"
           height="528"
           style="opacity:0"
           id="rect154" />
      </g>
    </g>
    <path
       d="M 2,2 H 17 V -3 H -3 v 20 h 5 z"
       style="opacity:0"
       id="path160" />
    <path
       d="m 1244,2 h -15 v -5 h 20 v 20 h -5 z"
       style="opacity:0"
       id="path162" />
    <path
       d="m 2,526 h 15 v 5 H -3 v -20 h 5 z"
       style="opacity:0"
       id="path164" />
    <path
       d="m 1244,526 h -15 v 5 h 20 v -20 h -5 z"
       style="opacity:0"
       id="path166" />
    <path
       d="M -3,18 H 2 V 510 H -3 Z"
       style="opacity:0"
       id="path168" />
    <path
       d="m 1249,18 h -5 v 492 h 5 z"
       style="opacity:0"
       id="path170" />
    <path
       d="M 18,-3 V 2 H 1228 V -3 Z"
       style="opacity:0"
       id="path172" />
    <path
       d="m 18,531 v -5 h 1210 v 5 z"
       style="opacity:0"
       id="path174" />
    <style
       id="style176">
.jsroot rect.h1bin { stroke: #4572A7; fill: #4572A7; opacity: 0; }
.jsroot rect.zoom { stroke: steelblue; fill-opacity: 0.1; }
.jsroot path.zoom { stroke: steelblue; fill-opacity: 0.1; }
.jsroot svg:not(:root) { overflow: hidden; }</style>
  </g>
  <g
     transform="translate(89.37236,15)"
     font-family="Arial"
     font-size="23px"
     xml:space="preserve"
     id="g210"><path
       d="M 0,0 H 169 V 56 H 0 Z"
       style="fill:#ffffff;stroke:#000000;stroke-width:1"
       id="path180" /><path
       d="M 5,15 H 37"
       style="stroke:#000000;stroke-width:1"
       id="path182" /><path
       d="m 17,11 v 8 h 8 v -8 z"
       style="fill:#ff0000;stroke:#ff0000"
       id="path184" /><text
       fill="#000000"
       text-anchor="start"
       dominant-baseline="middle"
       transform="translate(42,15)"
       id="text186">DC</text><path
       d="M 5,41 H 37"
       style="stroke:#000000;stroke-width:1"
       id="path188" /><path
       d="m 17,37 v 8 h 8 v -8 z"
       style="fill:#0000ff;stroke:#0000ff"
       id="path190" /><text
       fill="#000000"
       text-anchor="start"
       dominant-baseline="middle"
       transform="translate(42,41)"
       id="text192">FMT</text><path
       d="M 2,2 H 17 V -3 H -3 v 20 h 5 z"
       style="opacity:0"
       id="path194" /><path
       d="m 167,2 h -15 v -5 h 20 v 20 h -5 z"
       style="opacity:0"
       id="path196" /><path
       d="m 2,54 h 15 v 5 H -3 V 39 h 5 z"
       style="opacity:0"
       id="path198" /><path
       d="m 167,54 h -15 v 5 h 20 V 39 h -5 z"
       style="opacity:0"
       id="path200" /><path
       d="M -3,18 H 2 V 38 H -3 Z"
       style="opacity:0"
       id="path202" /><path
       d="m 172,18 h -5 v 20 h 5 z"
       style="opacity:0"
       id="path204" /><path
       d="M 18,-3 V 2 H 151 V -3 Z"
       style="opacity:0"
       id="path206" /><path
       d="m 18,59 v -5 h 133 v 5 z"
       style="opacity:0"
       id="path208" /></g>
</svg>
