<?xml version="1.0" encoding="UTF-8" standalone="no"?>
<svg
   width="1557"
   height="660"
   version="1.1"
   id="svg210"
   sodipodi:docname="21phi_theta_neg.svg"
   inkscape:version="1.2.2 (1:1.2.2+202305151914+b0a8486541)"
   inkscape:export-filename="21phi_theta_neg.pdf"
   inkscape:export-xdpi="96"
   inkscape:export-ydpi="96"
   xmlns:inkscape="http://www.inkscape.org/namespaces/inkscape"
   xmlns:sodipodi="http://sodipodi.sourceforge.net/DTD/sodipodi-0.dtd"
   xmlns="http://www.w3.org/2000/svg"
   xmlns:svg="http://www.w3.org/2000/svg">
  <defs
     id="defs214" />
  <sodipodi:namedview
     id="namedview212"
     pagecolor="#ffffff"
     bordercolor="#666666"
     borderopacity="1.0"
     inkscape:showpageshadow="2"
     inkscape:pageopacity="0.0"
     inkscape:pagecheckerboard="0"
     inkscape:deskcolor="#d1d1d1"
     showgrid="false"
     inkscape:zoom="0.71515151"
     inkscape:cx="711.73729"
     inkscape:cy="271.27119"
     inkscape:window-width="1920"
     inkscape:window-height="1051"
     inkscape:window-x="0"
     inkscape:window-y="0"
     inkscape:window-maximized="1"
     inkscape:current-layer="g136" />
  <g
     id="g208">
    <g
       transform="translate(156,66)"
       id="g136"
       inkscape:export-filename="21phi_theta_neg.pdf"
       inkscape:export-xdpi="96"
       inkscape:export-ydpi="96">
      <title
         id="title4" />
      <path
         d="M0,0H1246V528H0Z"
         style="fill:none;stroke:rgb(0, 0, 0);stroke-width:1;pointer-events:visiblefill"
         id="path6"
         inkscape:export-filename="21phi_theta_neg.pdf"
         inkscape:export-xdpi="96"
         inkscape:export-ydpi="96" />
      <svg
         x="0"
         y="0"
         overflow="hidden"
         width="1246"
         height="528"
         viewBox="0 0 1246 528"
         style="pointer-events: visiblefill;"
         version="1.1"
         id="svg50">
        <g
           id="g48">
          <path
             fill="#263da8"
             d="M0,95h6v3h-6zm0,24h6v2h-6zm0,5h6v3h-6zm0,13h6v3h-6zm0,11h6v2h-6zm0,5h6v3h-6zm0,8h6v11h-6zm0,13h6v3h-6zm0,6h6v7h-6zm0,13h6v18h-6zm0,21h6v90h-6zm0,92h6v6h-6zm0,11h6v2h-6zM0,462h6v3h-6zM6,77h6v5h-6zM6,98h6v2h-6zm0,10h6v3h-6zm0,32h6v8h-6zm0,18h6v3h-6zm0,6h6v5h-6zm0,13h6v5h-6zm0,10h6v53h-6zm0,56h6v74h-6zM6,462h6v5h-6zM12,121h7v3h-7zm0,8h7v6h-7zm0,8h7v6h-7zm0,11h7v2h-7zm0,5h7v5h-7zm0,8h7v3h-7zm0,5h7v8h-7zm0,11h7v5h-7zm0,13h7v127h-7zm0,275h7v2h-7zM19,45h6v3h-6zm0,21h6v3h-6zm0,69h6v2h-6zm0,8h6v5h-6zm0,21h6v10h-6zm0,16h6v2h-6zm0,5h6v5h-6zm0,10h6v16h-6zm0,21h6v93h-6zm0,96h6v5h-6zm0,153h6v2h-6zM25,58h6v3h-6zm0,50h6v3h-6zm0,16h6v3h-6zm0,11h6v2h-6zm0,5h6v3h-6zm0,8h6v2h-6zm0,13h6v3h-6zm0,5h6v21h-6zm0,24h6v5h-6zm0,11h6v116h-6zm0,121h6v3h-6zm0,140h6v3h-6zM31,121h6v3h-6zm0,11h6v3h-6zm0,32h6v5h-6zm0,13h6v3h-6zm0,5h6v5h-6zm0,8h6v5h-6zm0,8h6v3h-6zm0,5h6v19h-6zm0,21h6v80h-6zm0,82h6v3h-6zm0,6h6v2h-6zm0,5h6v5h-6zm0,142h6v3h-6zM37,79h7v3h-7zm0,50h7v3h-7zm0,14h7v2h-7zm0,13h7v8h-7zm0,13h7v5h-7zm0,13h7v40h-7zm0,42h7v88h-7zm0,90h7v3h-7zm0,5h7v3h-7zm0,138h7v2h-7zM44,77h6v2h-6zm0,47h6v3h-6zm0,5h6v3h-6zm0,11h6v5h-6zm0,13h6v8h-6zm0,11h6v2h-6zm0,16h6v2h-6zm0,5h6v2h-6zm0,5h6v114h-6zm0,116h6v6h-6zm0,8h6v5h-6zm0,137h6v11h-6zM50,129h6v3h-6zm0,8h6v8h-6zm0,13h6v6h-6zm0,11h6v11h-6zm0,16h6v3h-6zm0,5h6v5h-6zm0,8h6v11h-6zm0,13h6v106h-6zm0,109h6v7h-6zm0,134h6v5h-6zM56,79h6v3h-6zm0,5h6v3h-6zm0,43h6v2h-6zm0,5h6v3h-6zm0,11h6v5h-6zm0,7h6v8h-6zm0,11h6v3h-6zm0,8h6v11h-6zm0,13h6v130h-6zm0,140h6v3h-6zm0,122h6v5h-6zm0,7h6v3h-6zm0,6h6v2h-6zM62,106h7v2h-7zm0,21h7v2h-7zm0,13h7v3h-7zm0,18h7v3h-7zm0,8h7v3h-7zm0,6h7v5h-7zm0,8h7v2h-7zm0,10h7v132h-7zm0,135h7v5h-7zm0,113h7v6h-7zm0,11h7v2h-7zM69,74h6v3h-6zm0,50h6v3h-6zm0,13h6v3h-6zm0,8h6v5h-6zm0,8h6v40h-6zm0,42h6v6h-6zm0,8h6v103h-6zm0,109h6v2h-6zm0,5h6v2h-6zm0,8h6v2h-6zm0,108h6v3h-6zm0,8h6v5h-6zM75,63h6v3h-6zm0,24h6v3h-6zm0,42h6v3h-6zm0,11h6v3h-6zm0,16h6v2h-6zm0,5h6v3h-6zm0,16h6v39h-6zm0,42h6v98h-6zm0,108h6v3h-6zm0,98h6v8h-6zM81,95h6v3h-6zm0,21h6v5h-6zm0,8h6v3h-6zm0,8h6v3h-6zm0,24h6v2h-6zm0,10h6v3h-6zm0,14h6v5h-6zm0,7h6v22h-6zm0,24h6v90h-6zm0,93h6v5h-6zm0,15h6v3h-6zm0,98h6v11h-6zm0,13h6v3h-6zM87,92h6v3h-6zm0,43h6v2h-6zm0,5h6v5h-6zm0,16h6v8h-6zm0,10h6v16h-6zm0,21h6v6h-6zm0,8h6v6h-6zm0,11h6v3h-6zm0,5h6v95h-6zm0,98h6v3h-6zm0,5h6v3h-6zm0,5h6v3h-6zm0,90h6v11h-6zm0,13h6v3h-6zM93,95h7v3h-7zm0,26h7v3h-7zm0,6h7v2h-7zm0,8h7v2h-7zm0,8h7v2h-7zm0,7h7v11h-7zm0,19h7v8h-7zm0,11h7v18h-7zm0,21h7v105h-7zm0,108h7v5h-7zm0,8h7v5h-7zm0,84h7v13h-7zm0,16h7v3h-7zM100,87h6v3h-6zm0,21h6v3h-6zm0,6h6v2h-6zm0,29h6v2h-6zm0,5h6v2h-6zm0,5h6v3h-6zm0,5h6v3h-6zm0,11h6v3h-6zm0,5h6v6h-6zm0,8h6v8h-6zm0,11h6v116h-6zm0,119h6v7h-6zm0,15h6v3h-6zm0,69h6v13h-6zm6,-280h6v3h-6zm0,5h6v6h-6zm0,8h6v14h-6zm0,16h6v3h-6zm0,8h6v3h-6zm0,8h6v3h-6zm0,8h6v8h-6zm0,11h6v10h-6zm0,13h6v119h-6zm0,121h6v8h-6zm0,11h6v2h-6zm0,66h6v13h-6zM112,37h6v3h-6zm0,53h6v2h-6zm0,47h6v3h-6zm0,8h6v3h-6zm0,5h6v3h-6zm0,19h6v3h-6zm0,5h6v8h-6zm0,13h6v8h-6zm0,11h6v145h-6zm0,150h6v3h-6zm0,40h6v8h-6zm0,24h6v2h-6zM118,32h7v2h-7zm0,29h7v2h-7zm0,60h7v3h-7zm0,8h7v3h-7zm0,6h7v2h-7zm0,10h7v3h-7zm0,5h7v3h-7zm0,8h7v3h-7zm0,6h7v2h-7zm0,5h7v3h-7zm0,5h7v3h-7zm0,6h7v5h-7zm0,7h7v27h-7zm0,29h7v11h-7zm0,14h7v134h-7zm0,150h7v11h-7zm0,13h7v3h-7zm7,-269h6v3h-6zm0,5h6v3h-6zm0,19h6v2h-6zm0,8h6v2h-6zm0,5h6v3h-6zm0,5h6v6h-6zm0,8h6v3h-6zm0,6h6v10h-6zm0,13h6v16h-6zm0,18h6v16h-6zm0,19h6v158h-6zM131,8h6v3h-6zm0,113h6v3h-6zm0,6h6v2h-6zm0,5h6v3h-6zm0,8h6v5h-6zm0,8h6v8h-6zm0,16h6v8h-6zm0,16h6v10h-6zm0,15h6v8h-6zm0,11h6v3h-6zm0,5h6v174h-6zm6,-82h6v6h-6zm0,19h6v5h-6zm0,10h6v3h-6zm0,6h6v5h-6zm0,10h6v13h-6zm0,16h6v3h-6zm0,11h6v2h-6zm0,5h6v172h-6zm0,174h6v3h-6zm0,5h6v3h-6zM143,87h7v3h-7zm0,8h7v3h-7zm0,11h7v2h-7zm0,13h7v5h-7zm0,21h7v3h-7zm0,5h7v8h-7zm0,11h7v26h-7zm0,31h7v14h-7zm0,19h7v195h-7zM150,87h6v3h-6zm0,19h6v2h-6zm0,15h6v3h-6zm0,16h6v8h-6zm0,13h6v3h-6zm0,6h6v5h-6zm0,10h6v3h-6zm0,6h6v5h-6zm0,8h6v7h-6zm0,10h6v29h-6zm0,32h6v5h-6zm0,8h6v16h-6zm0,18h6v169h-6zm0,174h6v3h-6zm0,11h6v3h-6zm6,-333h6v3h-6zm0,8h6v6h-6zm0,11h6v2h-6zm0,8h6v2h-6zm0,5h6v3h-6zm0,5h6v8h-6zm0,13h6v6h-6zm0,8h6v3h-6zm0,6h6v2h-6zm0,5h6v3h-6zm0,5h6v8h-6zm0,11h6v2h-6zm0,13h6v161h-6zm0,164h6v2h-6zm0,5h6v3h-6zm0,45h6v18h-6zm0,24h6v2h-6zm6,-330h6v2h-6zm0,15h6v6h-6zm0,19h6v3h-6zm0,8h6v2h-6zm0,5h6v5h-6zm0,8h6v3h-6zm0,5h6v6h-6zm0,8h6v169h-6zm0,174h6v3h-6zm0,80h6v5h-6zm0,8h6v2h-6zm0,5h6v5h-6zm6,-322h6v2h-6zm0,16h6v5h-6zm0,13h6v8h-6zm0,10h6v3h-6zm0,11h6v3h-6zm0,5h6v11h-6zm0,13h6v16h-6zm0,19h6v124h-6zm0,129h6v3h-6zm0,6h6v5h-6zm0,92h6v8h-6zm0,16h6v2h-6zM174,84h7v3h-7zm0,19h7v3h-7zm0,16h7v5h-7zm0,10h7v3h-7zm0,14h7v2h-7zm0,10h7v3h-7zm0,5h7v3h-7zm0,8h7v21h-7zm0,24h7v5h-7zm0,11h7v126h-7zm0,129h7v5h-7zm0,111h7v8h-7zm0,10h7v3h-7zm0,6h7v2h-7zM181,90h6v2h-6zm0,45h6v5h-6zm0,10h6v3h-6zm0,24h6v8h-6zm0,11h6v2h-6zm0,5h6v2h-6zm0,5h6v24h-6zm0,26h6v109h-6zm0,228h6v13h-6zm6,-312h6v3h-6zm0,11h6v2h-6zm0,15h6v3h-6zm0,14h6v8h-6zm0,10h6v8h-6zm0,11h6v29h-6zm0,31h6v90h-6zm0,98h6v3h-6zm0,129h6v8h-6zm6,-314h6v8h-6zm0,13h6v3h-6zm0,6h6v2h-6zm0,5h6v3h-6zm0,5h6v3h-6zm0,11h6v5h-6zm0,8h6v2h-6zm0,5h6v3h-6zm0,5h6v21h-6zm0,24h6v98h-6zm0,238h6v2h-6zM199,92h7v3h-7zm0,27h7v2h-7zm0,5h7v3h-7zm0,13h7v3h-7zm0,11h7v2h-7zm0,8h7v5h-7zm0,8h7v10h-7zm0,18h7v13h-7zm0,16h7v121h-7zm0,124h7v3h-7zm0,137h7v6h-7zM206,63h6v3h-6zm0,14h6v2h-6zm0,5h6v2h-6zm0,21h6v3h-6zm0,16h6v2h-6zm0,10h6v3h-6zm0,6h6v2h-6zm0,10h6v5h-6zm0,19h6v2h-6zm0,18h6v3h-6zm0,11h6v16h-6zm0,18h6v74h-6zm0,77h6v31h-6zm0,174h6v3h-6zM212,74h6v3h-6zm0,21h6v3h-6zm0,32h6v2h-6zm0,5h6v3h-6zm0,13h6v5h-6zm0,16h6v3h-6zm0,8h6v3h-6zm0,5h6v3h-6zm0,6h6v2h-6zm0,5h6v2h-6zm0,5h6v8h-6zm0,11h6v5h-6zm0,8h6v97h-6zm0,100h6v5h-6zm0,8h6v5h-6zm0,148h6v5h-6zM218,98h6v2h-6zm0,23h6v3h-6zm0,19h6v3h-6zm0,16h6v2h-6zm0,5h6v3h-6zm0,5h6v3h-6zm0,6h6v5h-6zm0,13h6v113h-6zm0,116h6v5h-6zm0,166h6v3h-6zM224,82h7v2h-7zm0,16h7v2h-7zm0,31h7v3h-7zm0,6h7v5h-7zm0,10h7v3h-7zm0,8h7v3h-7zm0,13h7v3h-7zm0,6h7v8h-7zm0,10h7v135h-7zm0,283h7v2h-7zM231,69h6v2h-6zm0,23h6v6h-6zm0,40h6v8h-6zm0,13h6v5h-6zm0,13h6v3h-6zm0,11h6v148h-6zm0,153h6v3h-6zm0,140h6v3h-6zM237,90h6v2h-6zm0,42h6v3h-6zm0,16h6v5h-6zm0,8h6v2h-6zm0,5h6v3h-6zm0,5h6v6h-6zm0,8h6v19h-6zm0,21h6v3h-6zm0,8h6v6h-6zm0,8h6v95h-6zm0,98h6v3h-6zm0,10h6v6h-6zm0,140h6v3h-6zm6,-343h6v3h-6zm0,11h6v2h-6zm0,21h6v2h-6zm0,8h6v5h-6zm0,10h6v40h-6zm0,43h6v103h-6zm0,110h6v3h-6zm0,135h6v8h-6zM249,71h6v3h-6zm0,64h6v2h-6zm0,18h6v3h-6zm0,8h6v3h-6zm0,13h6v3h-6zm0,8h6v3h-6zm0,5h6v16h-6zm0,19h6v5h-6zm0,8h6v105h-6zm0,237h6v8h-6zM255,55h7v3h-7zm0,43h7v2h-7zm0,10h7v3h-7zm0,24h7v3h-7zm0,13h7v3h-7zm0,5h7v3h-7zm0,6h7v8h-7zm0,10h7v3h-7zm0,6h7v5h-7zm0,13h7v2h-7zm0,8h7v5h-7zm0,8h7v5h-7zm0,10h7v11h-7zm0,13h7v93h-7zm0,98h7v3h-7zm0,124h7v5h-7zm0,16h7v3h-7zM262,55h6v3h-6zm0,72h6v2h-6zm0,18h6v3h-6zm0,24h6v3h-6zm0,8h6v5h-6zm0,8h6v119h-6zm0,121h6v8h-6zm0,11h6v5h-6zm0,124h6v10h-6zm0,13h6v3h-6zm0,5h6v3h-6zm6,-353h6v2h-6zm0,29h6v5h-6zm0,8h6v2h-6zm0,5h6v2h-6zm0,8h6v2h-6zm0,8h6v2h-6zm0,5h6v8h-6zm0,13h6v122h-6zm0,124h6v3h-6zm0,6h6v5h-6zm0,124h6v5h-6zm0,8h6v2h-6zm0,7h6v6h-6zM274,87h6v3h-6zm0,69h6v2h-6zm0,8h6v10h-6zm0,18h6v13h-6zm0,16h6v111h-6zm0,114h6v5h-6zm0,118h6v8h-6zm0,11h6v3h-6zM280,66h7v3h-7zm0,21h7v3h-7zm0,13h7v3h-7zm0,29h7v3h-7zm0,11h7v8h-7zm0,10h7v6h-7zm0,8h7v3h-7zm0,6h7v10h-7zm0,13h7v5h-7zm0,10h7v6h-7zm0,8h7v117h-7zm0,122h7v2h-7zm0,10h7v3h-7zm0,95h7v16h-7zm0,22h7v2h-7zm7,-330h6v2h-6zm0,15h6v3h-6zm0,6h6v2h-6zm0,10h6v5h-6zm0,16h6v13h-6zm0,19h6v2h-6zm0,5h6v121h-6zm0,124h6v3h-6zm0,8h6v8h-6zm0,97h6v16h-6zm6,-311h6v3h-6zm0,13h6v3h-6zm0,5h6v3h-6zm0,22h6v2h-6zm0,7h6v3h-6zm0,8h6v3h-6zm0,6h6v5h-6zm0,10h6v3h-6zm0,8h6v24h-6zm0,27h6v5h-6zm0,7h6v98h-6zm0,106h6v3h-6zm0,79h6v3h-6zm0,6h6v13h-6zm0,15h6v3h-6zm0,6h6v5h-6zm6,-304h6v3h-6zm0,19h6v2h-6zm0,13h6v2h-6zm0,8h6v2h-6zm0,5h6v5h-6zm0,11h6v5h-6zm0,7h6v106h-6zm0,109h6v13h-6zm0,16h6v5h-6zm0,10h6v3h-6zm0,74h6v16h-6zm0,18h6v6h-6zm6,-295h7v8h-7zm0,16h7v5h-7zm0,15h7v3h-7zm0,8h7v3h-7zm0,6h7v5h-7zm0,8h7v2h-7zm0,5h7v3h-7zm0,5h7v29h-7zm0,32h7v98h-7zm0,100h7v3h-7zm0,8h7v3h-7zm0,69h7v18h-7zM312,34h6v3h-6zm0,29h6v3h-6zm0,27h6v2h-6zm0,29h6v2h-6zm0,18h6v3h-6zm0,6h6v2h-6zm0,7h6v3h-6zm0,6h6v2h-6zm0,5h6v11h-6zm0,13h6v6h-6zm0,8h6v137h-6zm0,140h6v3h-6zm0,5h6v6h-6zm0,8h6v3h-6zm0,8h6v3h-6zm0,5h6v6h-6zm0,8h6v3h-6zm0,27h6v21h-6zm0,24h6v2h-6zm0,5h6v2h-6zM318,87h6v3h-6zm0,27h6v2h-6zm0,5h6v2h-6zm0,10h6v6h-6zm0,8h6v6h-6zm0,11h6v5h-6zm0,10h6v6h-6zm0,16h6v3h-6zm0,6h6v2h-6zm0,7h6v37h-6zm0,40h6v145h-6zm0,151h6v15h-6zm0,23h6v3h-6zM324,71h6v3h-6zm0,29h6v3h-6zm0,24h6v3h-6zm0,8h6v5h-6zm0,11h6v2h-6zm0,7h6v3h-6zm0,6h6v2h-6zm0,5h6v5h-6zm0,11h6v10h-6zm0,13h6v211h-6zM330,66h6v3h-6zm0,61h6v2h-6zm0,10h6v3h-6zm0,6h6v5h-6zm0,7h6v14h-6zm0,16h6v6h-6zm0,8h6v11h-6zm0,13h6v14h-6zm0,16h6v180h-6zm0,182h6v8h-6zm6,-256h7v3h-7zm0,11h7v3h-7zm0,13h7v3h-7zm0,8h7v13h-7zm0,19h7v7h-7zm0,10h7v24h-7zm0,29h7v164h-7zM343,5h6v3h-6zm0,58h6v3h-6zm0,19h6v2h-6zm0,42h6v3h-6zm0,8h6v3h-6zm0,5h6v6h-6zm0,8h6v3h-6zm0,5h6v3h-6zm0,6h6v2h-6zm0,5h6v11h-6zm0,13h6v3h-6zm0,6h6v2h-6zm0,7h6v8h-6zm0,16h6v11h-6zm0,13h6v16h-6zm0,19h6v24h-6zm0,26h6v111h-6zm0,114h6v10h-6zm0,13h6v5h-6zM349,90h6v2h-6zm0,21h6v3h-6zm0,10h6v3h-6zm0,11h6v5h-6zm0,21h6v3h-6zm0,5h6v6h-6zm0,11h6v8h-6zm0,18h6v24h-6zm0,27h6v90h-6zm0,92h6v93h-6zm0,95h6v6h-6zM355,48h6v2h-6zm0,23h6v3h-6zm0,24h6v3h-6zm0,13h6v3h-6zm0,32h6v5h-6zm0,16h6v2h-6zm0,8h6v2h-6zm0,5h6v18h-6zm0,21h6v29h-6zm0,32h6v132h-6zm0,134h6v29h-6zm0,37h6v24h-6zM361,95h7v3h-7zm0,32h7v8h-7zm0,10h7v6h-7zm0,8h7v24h-7zm0,32h7v3h-7zm0,5h7v8h-7zm0,11h7v5h-7zm0,10h7v24h-7zm0,27h7v2h-7zm0,5h7v116h-7zm0,132h7v3h-7zm0,47h7v16h-7zM368,77h6v2h-6zm0,31h6v3h-6zm0,6h6v2h-6zm0,5h6v2h-6zm0,16h6v5h-6zm0,8h6v2h-6zm0,15h6v3h-6zm0,11h6v5h-6zm0,8h6v16h-6zm0,18h6v148h-6zm0,151h6v2h-6zm0,82h6v10h-6zm6,-320h6v3h-6zm0,19h6v2h-6zm0,5h6v3h-6zm0,5h6v3h-6zm0,8h6v5h-6zm0,8h6v3h-6zm0,21h6v11h-6zm0,13h6v27h-6zm0,29h6v98h-6zm0,101h6v13h-6zm0,119h6v5h-6zM380,79h6v3h-6zm0,8h6v3h-6zm0,34h6v3h-6zm0,6h6v2h-6zm0,5h6v3h-6zm0,21h6v3h-6zm0,16h6v5h-6zm0,11h6v2h-6zm0,5h6v2h-6zm0,5h6v3h-6zm0,5h6v14h-6zm0,16h6v3h-6zm0,5h6v101h-6zm0,103h6v8h-6zm0,122h6v10h-6zm6,-335h6v2h-6zm0,8h6v2h-6zm0,13h6v2h-6zm0,8h6v5h-6zm0,8h6v2h-6zm0,10h6v3h-6zm0,5h6v6h-6zm0,11h6v5h-6zm0,8h6v5h-6zm0,8h6v5h-6zm0,13h6v121h-6zm0,137h6v3h-6zm0,111h6v5h-6zm0,8h6v3h-6zM392,16h7v2h-7zm0,92h7v3h-7zm0,8h7v3h-7zm0,5h7v6h-7zm0,8h7v3h-7zm0,6h7v2h-7zm0,13h7v2h-7zm0,13h7v3h-7zm0,13h7v3h-7zm0,8h7v8h-7zm0,11h7v2h-7zm0,5h7v5h-7zm0,8h7v45h-7zm0,47h7v74h-7zm0,198h7v6h-7zM399,66h6v3h-6zm0,16h6v2h-6zm0,34h6v3h-6zm0,8h6v3h-6zm0,5h6v3h-6zm0,6h6v5h-6zm0,8h6v2h-6zm0,5h6v2h-6zm0,13h6v3h-6zm0,26h6v3h-6zm0,6h6v2h-6zm0,5h6v8h-6zm0,11h6v100h-6zm0,103h6v10h-6zm0,142h6v5h-6zm6,-346h6v3h-6zm0,35h6v5h-6zm0,13h6v13h-6zm0,18h6v6h-6zm0,8h6v34h-6zm0,37h6v21h-6zm0,24h6v71h-6zm0,216h6v6h-6zm6,-359h6v3h-6zm0,27h6v2h-6zm0,16h6v5h-6zm0,13h6v2h-6zm0,5h6v19h-6zm0,21h6v3h-6zm0,5h6v11h-6zm0,14h6v116h-6zm0,124h6v2h-6zm0,140h6v2h-6zM417,45h7v3h-7zm0,42h7v5h-7zm0,29h7v5h-7zm0,11h7v2h-7zm0,8h7v10h-7zm0,18h7v3h-7zm0,5h7v8h-7zm0,14h7v2h-7zm0,5h7v3h-7zm0,10h7v138h-7zm0,278h7v2h-7zM424,66h6v3h-6zm0,34h6v3h-6zm0,16h6v5h-6zm0,11h6v2h-6zm0,23h6v8h-6zm0,14h6v5h-6zm0,8h6v5h-6zm0,8h6v7h-6zm0,13h6v124h-6zm0,132h6v2h-6zm0,142h6v3h-6zM430,92h6v6h-6zm0,32h6v3h-6zm0,11h6v2h-6zm0,10h6v3h-6zm0,5h6v6h-6zm0,14h6v2h-6zm0,10h6v3h-6zm0,8h6v3h-6zm0,5h6v11h-6zm0,14h6v37h-6zm0,39h6v72h-6zm0,74h6v3h-6zm0,151h6v5h-6zM436,87h6v3h-6zm0,19h6v2h-6zm0,10h6v3h-6zm0,11h6v2h-6zm0,10h6v6h-6zm0,8h6v3h-6zm0,16h6v8h-6zm0,11h6v2h-6zm0,10h6v5h-6zm0,8h6v3h-6zm0,8h6v116h-6zm0,121h6v3h-6zm0,143h6v5h-6zM442,61h7v2h-7zm0,66h7v2h-7zm0,5h7v3h-7zm0,8h7v3h-7zm0,5h7v5h-7zm0,8h7v3h-7zm0,11h7v5h-7zm0,10h7v3h-7zm0,6h7v7h-7zm0,10h7v19h-7zm0,21h7v98h-7zm0,248h7v6h-7zm7,-345h6v2h-6zm0,15h6v6h-6zm0,27h6v2h-6zm0,18h6v11h-6zm0,13h6v22h-6zm0,24h6v90h-6zm0,93h6v10h-6zm0,13h6v2h-6zm0,140h6v2h-6zM455,48h6v2h-6zm0,66h6v2h-6zm0,26h6v3h-6zm0,10h6v3h-6zm0,16h6v3h-6zm0,6h6v5h-6zm0,8h6v5h-6zm0,7h6v3h-6zm0,8h6v29h-6zm0,32h6v82h-6zm0,85h6v5h-6zm0,15h6v3h-6zm0,127h6v3h-6zM461,48h6v2h-6zm0,58h6v2h-6zm0,5h6v3h-6zm0,21h6v3h-6zm0,5h6v3h-6zm0,21h6v3h-6zm0,6h6v5h-6zm0,8h6v2h-6zm0,8h6v5h-6zm0,7h6v3h-6zm0,6h6v5h-6zm0,8h6v105h-6zm0,248h6v8h-6zM467,69h6v2h-6zm0,31h6v3h-6zm0,21h6v3h-6zm0,11h6v3h-6zm0,8h6v3h-6zm0,8h6v2h-6zm0,5h6v3h-6zm0,13h6v8h-6zm0,19h6v5h-6zm0,8h6v119h-6zm0,253h6v5h-6zm0,8h6v3h-6zm6,-338h7v3h-7zm0,5h7v3h-7zm0,27h7v2h-7zm0,10h7v3h-7zm0,8h7v6h-7zm0,8h7v6h-7zm0,13h7v8h-7zm0,11h7v111h-7zm0,114h7v2h-7zm0,13h7v2h-7zm0,116h7v8h-7zm0,13h7v3h-7zM480,13h6v3h-6zm0,90h6v3h-6zm0,8h6v3h-6zm0,10h6v3h-6zm0,6h6v2h-6zm0,18h6v3h-6zm0,8h6v8h-6zm0,19h6v2h-6zm0,5h6v3h-6zm0,5h6v5h-6zm0,8h6v13h-6zm0,16h6v103h-6zm0,106h6v13h-6zm0,124h6v5h-6zm0,10h6v3h-6zm0,5h6v3h-6zm6,-343h6v3h-6zm0,40h6v2h-6zm0,5h6v3h-6zm0,5h6v6h-6zm0,8h6v3h-6zm0,11h6v3h-6zm0,10h6v14h-6zm0,16h6v109h-6zm0,114h6v2h-6zm0,113h6v6h-6zm0,11h6v5h-6zM492,11h6v2h-6zm0,108h6v2h-6zm0,10h6v6h-6zm0,19h6v24h-6zm0,26h6v3h-6zm0,6h6v10h-6zm0,13h6v111h-6zm0,113h6v8h-6zm0,114h6v10h-6zm0,13h6v8h-6zM498,79h7v3h-7zm0,56h7v2h-7zm0,10h7v3h-7zm0,8h7v13h-7zm0,16h7v5h-7zm0,8h7v5h-7zm0,10h7v11h-7zm0,14h7v29h-7zm0,31h7v77h-7zm0,80h7v2h-7zm0,7h7v3h-7zm0,90h7v19h-7zM505,53h6v2h-6zm0,8h6v2h-6zm0,21h6v2h-6zm0,16h6v2h-6zm0,5h6v3h-6zm0,8h6v5h-6zm0,13h6v3h-6zm0,11h6v5h-6zm0,8h6v2h-6zm0,15h6v3h-6zm0,8h6v3h-6zm0,6h6v2h-6zm0,5h6v16h-6zm0,18h6v114h-6zm0,117h6v5h-6zm0,89h6v16h-6zm0,19h6v2h-6zm0,5h6v3h-6zm6,-301h6v3h-6zm0,5h6v19h-6zm0,21h6v6h-6zm0,11h6v3h-6zm0,8h6v11h-6zm0,16h6v5h-6zm0,8h6v5h-6zm0,8h6v8h-6zm0,10h6v98h-6zm0,111h6v3h-6zm0,71h6v16h-6zM517,82h6v2h-6zm0,26h6v3h-6zm0,42h6v19h-6zm0,22h6v18h-6zm0,21h6v124h-6zm0,198h6v10h-6zm0,13h6v3h-6zm0,5h6v3h-6zm6,-309h7v8h-7zm0,27h7v5h-7zm0,13h7v3h-7zm0,10h7v3h-7zm0,16h7v3h-7zm0,6h7v140h-7zm0,142h7v5h-7zm0,8h7v11h-7zm0,69h7v8h-7zm7,-256h6v5h-6zm0,18h6v8h-6zm0,19h6v5h-6zm0,8h6v2h-6zm0,5h6v5h-6zm0,8h6v2h-6zm0,5h6v124h-6zm0,127h6v2h-6zm0,5h6v18h-6zm0,24h6v2h-6zm0,31h6v8h-6zM536,87h6v3h-6zm0,8h6v3h-6zm0,19h6v5h-6zm0,21h6v2h-6zm0,5h6v5h-6zm0,8h6v2h-6zm0,5h6v5h-6zm0,8h6v3h-6zm0,5h6v3h-6zm0,6h6v2h-6zm0,5h6v5h-6zm0,8h6v5h-6zm0,10h6v19h-6zm0,21h6v175h-6zm0,177h6v6h-6zM542,69h6v2h-6zm0,34h6v3h-6zm0,13h6v3h-6zm0,13h6v3h-6zm0,6h6v2h-6zm0,15h6v6h-6zm0,14h6v18h-6zm0,21h6v2h-6zm0,5h6v3h-6zm0,5h6v3h-6zm0,6h6v184h-6zm0,187h6v5h-6zm6,-264h6v3h-6zm0,5h6v3h-6zm0,6h6v2h-6zm0,15h6v3h-6zm0,8h6v3h-6zm0,6h6v2h-6zm0,5h6v13h-6zm0,18h6v3h-6zm0,8h6v6h-6zm0,8h6v3h-6zm0,6h6v29h-6zm0,31h6v143h-6zM554,98h7v2h-7zm0,18h7v3h-7zm0,16h7v3h-7zm0,8h7v3h-7zm0,8h7v2h-7zm0,5h7v3h-7zm0,5h7v6h-7zm0,11h7v5h-7zm0,11h7v5h-7zm0,7h7v8h-7zm0,11h7v5h-7zm0,8h7v10h-7zm0,13h7v58h-7zm0,61h7v121h-7zM561,92h6v3h-6zm0,11h6v5h-6zm0,8h6v3h-6zm0,5h6v8h-6zm0,27h6v2h-6zm0,5h6v13h-6zm0,26h6v19h-6zm0,21h6v32h-6zm0,35h6v184h-6zm6,-119h6v5h-6zm0,13h6v3h-6zm0,5h6v3h-6zm0,6h6v8h-6zm0,21h6v2h-6zm0,8h6v5h-6zm0,8h6v2h-6zm0,8h6v15h-6zm0,18h6v11h-6zm0,13h6v135h-6zm0,137h6v6h-6zm0,69h6v13h-6zm6,-293h6v3h-6zm0,19h6v2h-6zm0,5h6v5h-6zm0,8h6v5h-6zm0,10h6v8h-6zm0,14h6v13h-6zm0,15h6v8h-6zm0,11h6v13h-6zm0,16h6v100h-6zm0,103h6v16h-6zm0,103h6v10h-6zm6,-325h7v3h-7zm0,29h7v3h-7zm0,11h7v5h-7zm0,13h7v2h-7zm0,5h7v3h-7zm0,8h7v3h-7zm0,5h7v6h-7zm0,8h7v29h-7zm0,32h7v34h-7zm0,37h7v79h-7zm0,82h7v2h-7zm0,103h7v8h-7zM586,87h6v3h-6zm0,34h6v3h-6zm0,14h6v2h-6zm0,34h6v3h-6zm0,5h6v3h-6zm0,8h6v3h-6zm0,5h6v14h-6zm0,16h6v6h-6zm0,8h6v101h-6zm0,103h6v13h-6zm0,16h6v3h-6zm0,5h6v3h-6zm0,106h6v5h-6zm6,-320h6v3h-6zm0,16h6v6h-6zm0,11h6v8h-6zm0,10h6v3h-6zm0,16h6v3h-6zm0,6h6v36h-6zm0,39h6v90h-6zm0,93h6v13h-6zm0,134h6v8h-6zM598,82h6v5h-6zm0,18h6v3h-6zm0,11h6v3h-6zm0,18h6v6h-6zm0,8h6v3h-6zm0,11h6v2h-6zm0,5h6v3h-6zm0,11h6v8h-6zm0,10h6v29h-6zm0,32h6v5h-6zm0,8h6v105h-6zm0,237h6v3h-6zm0,6h6v2h-6zM604,61h7v2h-7zm0,13h7v3h-7zm0,29h7v3h-7zm0,11h7v2h-7zm0,5h7v2h-7zm0,13h7v5h-7zm0,29h7v3h-7zm0,13h7v3h-7zm0,13h7v6h-7zm0,8h7v119h-7zm0,122h7v8h-7zm0,137h7v8h-7zM611,55h6v3h-6zm0,56h6v3h-6zm0,24h6v2h-6zm0,10h6v8h-6zm0,11h6v2h-6zm0,5h6v8h-6zm0,16h6v3h-6zm0,5h6v5h-6zm0,8h6v3h-6zm0,5h6v8h-6zm0,11h6v3h-6zm0,5h6v93h-6zm0,95h6v11h-6zm0,16h6v3h-6zm0,5h6v3h-6zm0,132h6v3h-6zm6,-338h6v3h-6zm0,16h6v3h-6zm0,8h6v3h-6zm0,5h6v6h-6zm0,8h6v8h-6zm0,22h6v2h-6zm0,5h6v2h-6zm0,5h6v5h-6zm0,8h6v111h-6zm0,114h6v5h-6zm0,7h6v8h-6zm0,143h6v5h-6zM623,98h6v2h-6zm0,18h6v3h-6zm0,21h6v6h-6zm0,11h6v2h-6zm0,8h6v2h-6zm0,5h6v3h-6zm0,8h6v3h-6zm0,11h6v2h-6zm0,5h6v2h-6zm0,5h6v3h-6zm0,5h6v11h-6zm0,14h6v5h-6zm0,7h6v90h-6zm0,93h6v5h-6zm0,13h6v3h-6zm0,143h6v5h-6zM629,84h6v3h-6zm0,8h6v3h-6zm0,11h6v3h-6zm0,24h6v2h-6zm0,5h6v5h-6zm0,8h6v3h-6zm0,16h6v2h-6zm0,5h6v3h-6zm0,5h6v8h-6zm0,19h6v18h-6zm0,24h6v103h-6zm0,105h6v5h-6zm0,151h6v5h-6zM635,87h7v3h-7zm0,8h7v3h-7zm0,37h7v3h-7zm0,11h7v5h-7zm0,21h7v2h-7zm0,5h7v148h-7zm0,150h7v3h-7zm0,146h7v2h-7zM642,98h6v2h-6zm0,23h6v6h-6zm0,14h6v2h-6zm0,5h6v3h-6zm0,18h6v3h-6zm0,14h6v2h-6zm0,8h6v2h-6zm0,7h6v3h-6zm0,6h6v5h-6zm0,8h6v10h-6zm0,13h6v16h-6zm0,18h6v85h-6zm0,87h6v3h-6zm0,146h6v2h-6zM648,34h6v3h-6zm0,58h6v3h-6zm0,14h6v2h-6zm0,8h6v2h-6zm0,15h6v3h-6zm0,27h6v2h-6zm0,10h6v6h-6zm0,14h6v2h-6zm0,5h6v13h-6zm0,16h6v103h-6zm0,108h6v10h-6zm0,153h6v3h-6zM654,95h6v3h-6zm0,40h6v5h-6zm0,8h6v5h-6zm0,7h6v3h-6zm0,11h6v5h-6zm0,13h6v6h-6zm0,11h6v5h-6zm0,8h6v119h-6zm0,266h6v6h-6zM660,58h7v3h-7zm0,42h7v3h-7zm0,21h7v6h-7zm0,19h7v5h-7zm0,18h7v6h-7zm0,8h7v11h-7zm0,27h7v100h-7zm0,103h7v8h-7zm0,13h7v3h-7zm0,8h7v5h-7zm0,10h7v3h-7zm0,127h7v8h-7zm7,-343h6v3h-6zm0,37h6v2h-6zm0,13h6v3h-6zm0,5h6v6h-6zm0,8h6v6h-6zm0,8h6v116h-6zm0,119h6v5h-6zm0,8h6v8h-6zm0,142h6v3h-6zm6,-327h6v3h-6zm0,26h6v8h-6zm0,14h6v5h-6zm0,8h6v2h-6zm0,5h6v8h-6zm0,10h6v6h-6zm0,8h6v3h-6zm0,6h6v13h-6zm0,15h6v93h-6zm0,230h6v5h-6zm0,11h6v5h-6zM679,84h6v6h-6zm0,53h6v3h-6zm0,8h6v3h-6zm0,5h6v3h-6zm0,11h6v3h-6zm0,16h6v3h-6zm0,5h6v130h-6zm0,135h6v2h-6zm0,127h6v7h-6zM685,53h7v2h-7zm0,21h7v3h-7zm0,21h7v3h-7zm0,21h7v5h-7zm0,13h7v3h-7zm0,8h7v8h-7zm0,11h7v5h-7zm0,8h7v5h-7zm0,10h7v140h-7zm0,143h7v3h-7zm0,5h7v3h-7zm0,124h7v6h-7zm7,-319h6v2h-6zm0,10h6v3h-6zm0,19h6v5h-6zm0,16h6v2h-6zm0,13h6v10h-6zm0,13h6v11h-6zm0,16h6v100h-6zm0,106h6v2h-6zm0,7h6v3h-6zm0,111h6v8h-6zm0,14h6v5h-6zM698,55h6v3h-6zm0,45h6v3h-6zm0,6h6v2h-6zm0,39h6v3h-6zm0,13h6v3h-6zm0,14h6v2h-6zm0,5h6v16h-6zm0,18h6v16h-6zm0,19h6v105h-6zm0,208h6v8h-6zM704,87h6v3h-6zm0,37h6v3h-6zm0,13h6v3h-6zm0,8h6v5h-6zm0,8h6v5h-6zm0,11h6v2h-6zm0,10h6v3h-6zm0,6h6v7h-6zm0,10h6v114h-6zm0,116h6v6h-6zm0,8h6v3h-6zm0,103h6v11h-6zm0,16h6v3h-6zm0,5h6v3h-6zM710,66h6v3h-6zm0,53h6v2h-6zm0,8h6v2h-6zm0,18h6v5h-6zm0,11h6v2h-6zm0,5h6v8h-6zm0,13h6v6h-6zm0,8h6v3h-6zm0,5h6v11h-6zm0,14h6v45h-6zm0,47h6v58h-6zm0,66h6v3h-6zm0,95h6v11h-6zm0,13h6v3h-6zM716,84h7v6h-7zm0,35h7v2h-7zm0,26h7v3h-7zm0,8h7v13h-7zm0,21h7v3h-7zm0,8h7v5h-7zm0,11h7v124h-7zm0,211h7v13h-7zm0,26h7v3h-7zM723,90h6v2h-6zm0,18h6v3h-6zm0,11h6v2h-6zm0,5h6v3h-6zm0,11h6v2h-6zm0,10h6v3h-6zm0,8h6v5h-6zm0,11h6v2h-6zm0,5h6v5h-6zm0,8h6v3h-6zm0,5h6v3h-6zm0,8h6v11h-6zm0,13h6v109h-6zm0,114h6v2h-6zm0,5h6v3h-6zm0,8h6v3h-6zm0,69h6v8h-6zm0,10h6v3h-6zM729,55h6v3h-6zm0,45h6v3h-6zm0,16h6v3h-6zm0,8h6v5h-6zm0,8h6v5h-6zm0,11h6v5h-6zm0,13h6v2h-6zm0,5h6v3h-6zm0,5h6v6h-6zm0,8h6v3h-6zm0,6h6v2h-6zm0,5h6v2h-6zm0,10h6v11h-6zm0,14h6v113h-6zm0,116h6v2h-6zm0,8h6v5h-6zm0,58h6v13h-6zm6,-267h6v5h-6zm0,21h6v5h-6zm0,11h6v10h-6zm0,18h6v11h-6zm0,13h6v8h-6zm0,14h6v126h-6zm0,129h6v5h-6zm0,18h6v6h-6zm0,11h6v8h-6zm0,21h6v19h-6zm0,24h6v3h-6zM741,32h7v2h-7zm0,87h7v2h-7zm0,10h7v8h-7zm0,11h7v5h-7zm0,8h7v5h-7zm0,10h7v3h-7zm0,11h7v11h-7zm0,13h7v185h-7zm0,188h7v8h-7zm0,10h7v13h-7zm7,-269h6v3h-6zm0,16h6v2h-6zm0,5h6v5h-6zm0,11h6v2h-6zm0,7h6v3h-6zm0,19h6v3h-6zm0,5h6v8h-6zm0,13h6v6h-6zm0,8h6v3h-6zm0,6h6v171h-6zm0,177h6v13h-6zM754,69h6v2h-6zm0,23h6v3h-6zm0,35h6v2h-6zm0,18h6v5h-6zm0,11h6v2h-6zm0,8h6v5h-6zm0,8h6v2h-6zm0,5h6v3h-6zm0,5h6v8h-6zm0,11h6v187h-6zm0,195h6v3h-6zm0,16h6v3h-6zm6,-296h6v3h-6zm0,19h6v2h-6zm0,5h6v3h-6zm0,5h6v6h-6zm0,19h6v2h-6zm0,5h6v5h-6zm0,8h6v5h-6zm0,18h6v3h-6zm0,6h6v16h-6zm0,18h6v32h-6zm0,37h6v71h-6zm0,74h6v63h-6zm0,66h6v3h-6zm0,8h6v3h-6zM766,98h7v2h-7zm0,13h7v5h-7zm0,24h7v2h-7zm0,8h7v2h-7zm0,7h7v6h-7zm0,8h7v3h-7zm0,6h7v2h-7zm0,5h7v8h-7zm0,11h7v36h-7zm0,39h7v19h-7zm0,21h7v177h-7zm7,-119h6v6h-6zm0,8h6v6h-6zm0,11h6v3h-6zm0,5h6v16h-6zm0,19h6v5h-6zm0,8h6v2h-6zm0,8h6v2h-6zm0,5h6v2h-6zm0,5h6v19h-6zm0,21h6v8h-6zm0,11h6v129h-6zm0,142h6v3h-6zm0,48h6v18h-6zM779,92h6v6h-6zm0,22h6v2h-6zm0,7h6v3h-6zm0,8h6v3h-6zm0,11h6v3h-6zm0,10h6v3h-6zm0,6h6v8h-6zm0,13h6v3h-6zm0,8h6v16h-6zm0,18h6v148h-6zm0,151h6v8h-6zm0,82h6v8h-6zm0,16h6v2h-6zM785,82h6v2h-6zm0,29h6v3h-6zm0,10h6v3h-6zm0,8h6v6h-6zm0,14h6v21h-6zm0,23h6v8h-6zm0,14h6v2h-6zm0,5h6v24h-6zm0,26h6v124h-6zm0,225h6v8h-6zm6,-293h6v2h-6zm0,10h6v3h-6zm0,5h6v8h-6zm0,16h6v13h-6zm0,16h6v3h-6zm0,5h6v124h-6zm0,127h6v5h-6zm0,119h6v8h-6zm6,-317h7v3h-7zm0,11h7v2h-7zm0,10h7v3h-7zm0,11h7v8h-7zm0,10h7v6h-7zm0,8h7v3h-7zm0,8h7v11h-7zm0,13h7v16h-7zm0,19h7v103h-7zm0,105h7v3h-7zm0,127h7v5h-7zm7,-343h6v3h-6zm0,42h6v3h-6zm0,5h6v3h-6zm0,11h6v3h-6zm0,5h6v3h-6zm0,6h6v10h-6zm0,15h6v16h-6zm0,19h6v13h-6zm0,18h6v90h-6zm0,93h6v2h-6zm0,5h6v3h-6zm0,129h6v3h-6zM810,48h6v2h-6zm0,81h6v3h-6zm0,19h6v8h-6zm0,10h6v3h-6zm0,6h6v8h-6zm0,13h6v8h-6zm0,10h6v6h-6zm0,8h6v16h-6zm0,19h6v103h-6zm0,105h6v6h-6zm0,135h6v5h-6zM816,87h6v3h-6zm0,37h6v3h-6zm0,11h6v2h-6zm0,10h6v3h-6zm0,5h6v3h-6zm0,6h6v2h-6zm0,5h6v3h-6zm0,11h6v5h-6zm0,8h6v18h-6zm0,23h6v19h-6zm0,21h6v95h-6zm0,235h6v8h-6zm6,-345h7v2h-7zm0,36h7v3h-7zm0,8h7v3h-7zm0,6h7v2h-7zm0,5h7v8h-7zm0,18h7v24h-7zm0,27h7v98h-7zm0,103h7v2h-7zm0,145h7v5h-7zM829,92h6v3h-6zm0,16h6v3h-6zm0,13h6v6h-6zm0,8h6v3h-6zm0,43h6v2h-6zm0,5h6v5h-6zm0,13h6v124h-6zm0,127h6v8h-6zm0,148h6v5h-6zM835,87h6v3h-6zm0,8h6v3h-6zm0,19h6v2h-6zm0,7h6v8h-6zm0,14h6v5h-6zm0,10h6v3h-6zm0,5h6v3h-6zm0,8h6v3h-6zm0,6h6v2h-6zm0,5h6v8h-6zm0,13h6v3h-6zm0,11h6v18h-6zm0,21h6v92h-6zm0,95h6v3h-6zm0,5h6v8h-6zm0,153h6v3h-6zM841,45h6v3h-6zm0,76h6v3h-6zm0,8h6v3h-6zm0,16h6v3h-6zm0,11h6v2h-6zm0,5h6v5h-6zm0,11h6v5h-6zm0,8h6v5h-6zm0,10h6v5h-6zm0,8h6v16h-6zm0,18h6v27h-6zm0,30h6v60h-6zm0,63h6v5h-6zm0,8h6v2h-6zm0,8h6v2h-6zm0,142h6v3h-6zM847,48h7v2h-7zm0,73h7v3h-7zm0,16h7v3h-7zm0,6h7v7h-7zm0,15h7v3h-7zm0,6h7v10h-7zm0,13h7v3h-7zm0,5h7v16h-7zm0,21h7v109h-7zm0,114h7v8h-7zm0,150h7v3h-7zM854,5h6v3h-6zm0,135h6v3h-6zm0,10h6v3h-6zm0,6h6v5h-6zm0,10h6v3h-6zm0,6h6v2h-6zm0,5h6v3h-6zm0,5h6v3h-6zm0,5h6v27h-6zm0,29h6v6h-6zm0,8h6v82h-6zm0,85h6v5h-6zm0,156h6v2h-6zM860,87h6v3h-6zm0,40h6v2h-6zm0,8h6v2h-6zm0,10h6v3h-6zm0,11h6v10h-6zm0,21h6v5h-6zm0,8h6v5h-6zm0,8h6v2h-6zm0,5h6v5h-6zm0,8h6v108h-6zm0,113h6v3h-6zm0,140h6v8h-6zm6,-327h6v5h-6zm0,16h6v2h-6zm0,5h6v13h-6zm0,19h6v10h-6zm0,15h6v14h-6zm0,19h6v10h-6zm0,13h6v95h-6zm0,100h6v6h-6zm0,138h6v5h-6zm6,-325h6v3h-6zm0,16h6v2h-6zm0,16h6v8h-6zm0,13h6v13h-6zm0,16h6v5h-6zm0,10h6v103h-6zm0,106h6v5h-6zm0,10h6v3h-6zm0,132h6v6h-6zm0,8h6v3h-6zM878,95h7v5h-7zm0,8h7v3h-7zm0,16h7v2h-7zm0,18h7v6h-7zm0,11h7v2h-7zm0,5h7v5h-7zm0,11h7v2h-7zm0,5h7v3h-7zm0,8h7v5h-7zm0,13h7v24h-7zm0,26h7v98h-7zm0,106h7v3h-7zm0,124h7v8h-7zM885,82h6v2h-6zm0,58h6v3h-6zm0,5h6v3h-6zm0,8h6v3h-6zm0,5h6v3h-6zm0,6h6v2h-6zm0,16h6v7h-6zm0,10h6v34h-6zm0,37h6v79h-6zm0,87h6v5h-6zm0,130h6v5h-6zM891,74h6v3h-6zm0,29h6v3h-6zm0,8h6v3h-6zm0,10h6v6h-6zm0,40h6v3h-6zm0,8h6v16h-6zm0,26h6v114h-6zm0,117h6v2h-6zm0,7h6v3h-6zm0,119h6v8h-6zM897,69h6v2h-6zm0,42h6v3h-6zm0,16h6v2h-6zm0,16h6v2h-6zm0,10h6v5h-6zm0,13h6v8h-6zm0,11h6v140h-6zm0,145h6v3h-6zm0,111h6v5h-6zm0,8h6v5h-6zM903,34h7v3h-7zm0,74h7v3h-7zm0,21h7v3h-7zm0,21h7v6h-7zm0,8h7v6h-7zm0,8h7v6h-7zm0,11h7v5h-7zm0,8h7v2h-7zm0,5h7v5h-7zm0,8h7v11h-7zm0,13h7v98h-7zm0,101h7v5h-7zm0,13h7v5h-7zm0,105h7v6h-7zM910,34h6v3h-6zm0,50h6v3h-6zm0,6h6v2h-6zm0,8h6v2h-6zm0,8h6v2h-6zm0,15h6v3h-6zm0,6h6v5h-6zm0,18h6v3h-6zm0,5h6v3h-6zm0,8h6v3h-6zm0,11h6v13h-6zm0,16h6v2h-6zm0,5h6v8h-6zm0,11h6v23h-6zm0,26h6v82h-6zm0,98h6v2h-6zm0,95h6v13h-6zm0,24h6v2h-6zM916,71h6v3h-6zm0,45h6v5h-6zm0,16h6v3h-6zm0,11h6v7h-6zm0,10h6v3h-6zm0,19h6v10h-6zm0,13h6v2h-6zm0,5h6v3h-6zm0,5h6v119h-6zm0,124h6v6h-6zm0,95h6v11h-6zM922,24h6v2h-6zm0,53h6v2h-6zm0,44h6v6h-6zm0,8h6v6h-6zm0,16h6v3h-6zm0,5h6v3h-6zm0,24h6v6h-6zm0,8h6v11h-6zm0,13h6v124h-6zm0,127h6v3h-6zm0,85h6v15h-6zm6,-288h7v2h-7zm0,10h7v3h-7zm0,14h7v2h-7zm0,7h7v16h-7zm0,19h7v11h-7zm0,16h7v121h-7zm0,124h7v13h-7zm0,16h7v2h-7zm0,74h7v13h-7zM935,92h6v3h-6zm0,27h6v2h-6zm0,13h6v5h-6zm0,8h6v3h-6zm0,8h6v2h-6zm0,5h6v5h-6zm0,11h6v2h-6zm0,5h6v3h-6zm0,5h6v24h-6zm0,27h6v5h-6zm0,8h6v108h-6zm0,116h6v2h-6zm0,10h6v6h-6zm0,58h6v14h-6zm6,-282h6v3h-6zm0,13h6v3h-6zm0,13h6v3h-6zm0,16h6v3h-6zm0,16h6v8h-6zm0,11h6v153h-6zm0,158h6v3h-6zm0,53h6v16h-6zM947,37h6v3h-6zm0,77h6v5h-6zm0,13h6v2h-6zm0,5h6v3h-6zm0,5h6v3h-6zm0,6h6v2h-6zm0,21h6v2h-6zm0,5h6v5h-6zm0,11h6v7h-6zm0,13h6v145h-6zm0,148h6v29h-6zm0,44h6v8h-6zM953,92h6v3h-6zm0,27h6v2h-6zm0,8h6v2h-6zm0,16h6v2h-6zm0,5h6v2h-6zm0,8h6v5h-6zm0,8h6v10h-6zm0,13h6v3h-6zm0,5h6v16h-6zm0,19h6v2h-6zm0,8h6v10h-6zm0,13h6v10h-6zm0,13h6v161h-6zm0,164h6v2h-6zM959,90h7v2h-7zm0,21h7v3h-7zm0,13h7v3h-7zm0,11h7v2h-7zm0,5h7v3h-7zm0,5h7v3h-7zm0,5h7v3h-7zm0,6h7v2h-7zm0,5h7v5h-7zm0,8h7v63h-7zm0,66h7v153h-7zm7,-92h6v5h-6zm0,10h6v3h-6zm0,5h6v3h-6zm0,14h6v2h-6zm0,5h6v26h-6zm0,29h6v10h-6zm0,16h6v8h-6zm0,10h6v6h-6zm0,8h6v135h-6zm0,138h6v5h-6zM972,63h6v3h-6zm0,48h6v3h-6zm0,16h6v2h-6zm0,10h6v3h-6zm0,16h6v3h-6zm0,5h6v3h-6zm0,8h6v3h-6zm0,6h6v5h-6zm0,8h6v5h-6zm0,7h6v3h-6zm0,8h6v3h-6zm0,6h6v10h-6zm0,13h6v16h-6zm0,21h6v5h-6zm0,8h6v148h-6zm0,153h6v3h-6zm6,-285h6v3h-6zm0,32h6v2h-6zm0,10h6v3h-6zm0,5h6v6h-6zm0,11h6v8h-6zm0,11h6v13h-6zm0,15h6v3h-6zm0,6h6v208h-6zm0,211h6v5h-6zm6,-267h7v3h-7zm0,24h7v5h-7zm0,11h7v10h-7zm0,13h7v10h-7zm0,16h7v153h-7zm0,190h7v2h-7zm0,5h7v21h-7zm0,24h7v2h-7zm0,13h7v3h-7zm7,-322h6v2h-6zm0,5h6v3h-6zm0,16h6v3h-6zm0,10h6v3h-6zm0,14h6v10h-6zm0,13h6v5h-6zm0,8h6v2h-6zm0,5h6v3h-6zm0,8h6v132h-6zm0,135h6v13h-6zm0,87h6v13h-6zm0,16h6v2h-6zm0,5h6v3h-6zm0,8h6v2h-6zm6,-338h6v3h-6zm0,16h6v2h-6zm0,29h6v2h-6zm0,5h6v8h-6zm0,11h6v10h-6zm0,13h6v150h-6zm0,156h6v2h-6zm0,89h6v19h-6zm6,-348h6v2h-6zm0,29h6v5h-6zm0,16h6v2h-6zm0,23h6v6h-6zm0,8h6v3h-6zm0,6h6v8h-6zm0,13h6v8h-6zm0,10h6v122h-6zm0,125h6v15h-6zm0,124h6v8h-6zm0,10h6v3h-6zm0,5h6v3h-6zm6,-340h6v3h-6zm0,42h6v3h-6zm0,11h6v5h-6zm0,8h6v5h-6zm0,8h6v13h-6zm0,15h6v29h-6zm0,32h6v100h-6zm0,106h6v2h-6zm0,111h6v7h-6zm0,13h6v2h-6zm6,-439h7v3h-7zm0,114h7v3h-7zm0,11h7v2h-7zm0,5h7v2h-7zm0,13h7v5h-7zm0,13h7v6h-7zm0,8h7v132h-7zm0,135h7v2h-7zm0,132h7v5h-7zm7,-412h6v3h-6zm0,32h6v2h-6zm0,39h6v3h-6zm0,8h6v5h-6zm0,11h6v5h-6zm0,18h6v5h-6zm0,8h6v3h-6zm0,5h6v8h-6zm0,11h6v5h-6zm0,11h6v2h-6zm0,5h6v121h-6zm0,124h6v5h-6zm0,8h6v2h-6zm0,5h6v5h-6zm0,132h6v3h-6zm0,8h6v3h-6zm6,-343h6v2h-6zm0,8h6v2h-6zm0,23h6v3h-6zm0,8h6v3h-6zm0,6h6v2h-6zm0,5h6v8h-6zm0,21h6v5h-6zm0,8h6v121h-6zm0,124h6v3h-6zm0,137h6v3h-6zm6,-411h6v2h-6zm0,58h6v2h-6zm0,13h6v2h-6zm0,18h6v3h-6zm0,8h6v3h-6zm0,5h6v3h-6zm0,8h6v6h-6zm0,19h6v3h-6zm0,5h6v3h-6zm0,8h6v119h-6zm0,124h6v5h-6zm0,148h6v3h-6zm6,-319h7v2h-7zm0,5h7v2h-7zm0,8h7v2h-7zm0,13h7v13h-7zm0,18h7v19h-7zm0,22h7v5h-7zm0,7h7v82h-7zm0,85h7v13h-7zm0,16h7v2h-7zm0,148h7v2h-7zm7,-351h6v2h-6zm0,10h6v5h-6zm0,24h6v8h-6zm0,10h6v6h-6zm0,11h6v3h-6zm0,8h6v3h-6zm0,8h6v5h-6zm0,8h6v2h-6zm0,5h6v3h-6zm0,5h6v98h-6zm0,103h6v11h-6zm0,159h6v5h-6zm6,-365h6v3h-6zm0,8h6v3h-6zm0,21h6v3h-6zm0,8h6v3h-6zm0,6h6v5h-6zm0,7h6v6h-6zm0,11h6v3h-6zm0,5h6v14h-6zm0,16h6v3h-6zm0,5h6v6h-6zm0,8h6v3h-6zm0,6h6v100h-6zm0,103h6v2h-6zm0,8h6v2h-6zm0,150h6v5h-6zm6,-343h6v2h-6zm0,8h6v2h-6zm0,18h6v3h-6zm0,5h6v3h-6zm0,8h6v24h-6zm0,27h6v8h-6zm0,10h6v119h-6zm0,122h6v8h-6zm0,10h6v3h-6zm0,135h6v5h-6zm6,-333h7v3h-7zm0,8h7v3h-7zm0,6h7v2h-7zm0,7h7v3h-7zm0,6h7v2h-7zm0,8h7v5h-7zm0,10h7v3h-7zm0,6h7v5h-7zm0,10h7v3h-7zm0,5h7v103h-7zm0,106h7v5h-7zm0,21h7v3h-7zm0,137h7v3h-7zm7,-348h6v3h-6zm0,16h6v2h-6zm0,5h6v3h-6zm0,5h6v6h-6zm0,11h6v2h-6zm0,8h6v2h-6zm0,10h6v6h-6zm0,11h6v3h-6zm0,5h6v16h-6zm0,19h6v34h-6zm0,37h6v2h-6zm0,5h6v53h-6zm0,55h6v11h-6zm0,14h6v5h-6zm0,142h6v5h-6zm6,-362h6v3h-6zm0,27h6v2h-6zm0,31h6v3h-6zm0,11h6v3h-6zm0,5h6v8h-6zm0,14h6v2h-6zm0,5h6v24h-6zm0,26h6v98h-6zm0,108h6v3h-6zm0,132h6v11h-6zm6,-435h6v2h-6zm0,84h6v3h-6zm0,6h6v2h-6zm0,10h6v3h-6zm0,11h6v2h-6zm0,5h6v3h-6zm0,13h6v3h-6zm0,5h6v6h-6zm0,16h6v6h-6zm0,8h6v3h-6zm0,8h6v5h-6zm0,8h6v8h-6zm0,11h6v116h-6zm0,245h6v5h-6zm0,8h6v5h-6zm6,-377h6v2h-6zm0,23h6v3h-6zm0,19h6v2h-6zm0,26h6v5h-6zm0,8h6v5h-6zm0,11h6v2h-6zm0,5h6v3h-6zm0,8h6v8h-6zm0,10h6v122h-6zm0,125h6v2h-6zm0,5h6v2h-6zm0,124h6v5h-6zm6,-359h7v2h-7zm0,34h7v3h-7zm0,11h7v5h-7zm0,8h7v2h-7zm0,8h7v2h-7zm0,7h7v3h-7zm0,11h7v8h-7zm0,11h7v15h-7zm0,18h7v5h-7zm0,8h7v111h-7zm0,240h7v6h-7zm0,16h7v5h-7zm7,-325h6v3h-6zm0,6h6v2h-6zm0,13h6v5h-6zm0,8h6v2h-6zm0,10h6v24h-6zm0,27h6v21h-6zm0,23h6v90h-6zm0,93h6v5h-6zm0,124h6v13h-6zm6,-306h6v2h-6zm0,13h6v3h-6zm0,8h6v16h-6zm0,18h6v3h-6zm0,6h6v15h-6zm0,18h6v42h-6zm0,45h6v77h-6zm0,79h6v3h-6zm0,114h6v13h-6zm0,23h6v3h-6zm6,-337h6v2h-6zm0,10h6v3h-6zm0,5h6v8h-6zm0,19h6v5h-6zm0,16h6v8h-6zm0,10h6v29h-6zm0,35h6v100h-6zm0,103h6v2h-6zm0,7h6v6h-6zm0,98h6v13h-6zm6,-314h7v3h-7zm0,11h7v5h-7zm0,7h7v3h-7zm0,19h7v5h-7zm0,13h7v8h-7zm0,11h7v2h-7zm0,8h7v5h-7zm0,10h7v3h-7zm0,5h7v3h-7zm0,6h7v126h-7zm0,214h7v15h-7zm0,23h7v3h-7zm7,-338h6v3h-6zm0,35h6v10h-6zm0,18h6v5h-6zm0,19h6v2h-6zm0,5h6v13h-6zm0,16h6v129h-6zm0,134h6v3h-6zm0,85h6v16h-6zm6,-330h6v3h-6zm0,84h6v3h-6zm0,16h6v3h-6zm0,6h6v5h-6zm0,7h6v24h-6zm0,27h6v92h-6zm0,95h6v8h-6zm0,84h6v3h-6zm0,6h6v13h-6zm0,15h6v6h-6zm6,-287h6v5h-6zm0,8h6v2h-6zm0,8h6v5h-6zm0,7h6v3h-6zm0,16h6v6h-6zm0,14h6v5h-6zm0,7h6v11h-6zm0,14h6v5h-6zm0,10h6v106h-6zm0,108h6v8h-6zm0,16h6v3h-6zm0,53h6v16h-6zm0,19h6v5h-6zm6,-293h7v2h-7zm0,5h7v5h-7zm0,16h7v8h-7zm0,10h7v3h-7zm0,13h7v6h-7zm0,8h7v11h-7zm0,16h7v5h-7zm0,8h7v137h-7zm0,140h7v18h-7zm0,21h7v16h-7zm0,19h7v2h-7zm0,8h7v26h-7zm7,-272h6v2h-6zm0,8h6v2h-6zm0,10h6v3h-6zm0,5h6v3h-6zm0,6h6v2h-6zm0,21h6v2h-6zm0,10h6v6h-6zm0,8h6v6h-6zm0,8h6v61h-6zm0,64h6v13h-6zm0,15h6v132h-6zm6,-153h6v3h-6zm0,13h6v6h-6zm0,8h6v3h-6zm0,6h6v5h-6zm0,18h6v3h-6zm0,5h6v3h-6zm0,6h6v2h-6zm0,8h6v219h-6zm0,221h6v3h-6zm6,-345h6v2h-6zm0,44h6v3h-6zm0,6h6v2h-6zm0,16h6v7h-6zm0,21h6v2h-6zm0,8h6v2h-6zm0,5h6v2h-6zm0,5h6v3h-6zm0,5h6v8h-6zm0,11h6v13h-6zm0,24h6v23h-6zm0,26h6v3h-6zm0,5h6v164h-6zm6,-163h6v2h-6zm0,58h6v2h-6zm0,10h6v3h-6zm0,16h6v3h-6zm0,11h6v2h-6zm0,13h6v3h-6zm0,5h6v8h-6zm0,11h6v2h-6zm0,5h6v16h-6zm0,19h6v42h-6zm0,44h6v135h-6zm6,-129h7v3h-7zm0,16h7v3h-7zm0,5h7v8h-7zm0,11h7v2h-7zm0,8h7v2h-7zm0,5h7v3h-7zm0,13h7v3h-7zm0,8h7v3h-7zm0,5h7v3h-7zm0,8h7v6h-7zm0,8h7v11h-7zm0,13h7v3h-7zm0,6h7v10h-7zm0,13h7v5h-7zm0,8h7v132h-7zm0,134h7v6h-7zm7,-274h6v3h-6zm0,5h6v3h-6zm0,37h6v3h-6zm0,5h6v3h-6zm0,6h6v8h-6zm0,13h6v8h-6zm0,10h6v3h-6zm0,6h6v13h-6zm0,16h6v37h-6zm0,39h6v159h-6zm0,161h6v3h-6zm0,5h6v3h-6zm0,6h6v2h-6zm6,-343h6v2h-6zm0,23h6v6h-6zm0,21h6v3h-6zm0,8h6v3h-6zm0,6h6v2h-6zm0,26h6v5h-6zm0,8h6v3h-6zm0,5h6v3h-6zm0,6h6v7h-6zm0,13h6v5h-6zm0,8h6v18h-6zm0,21h6v10h-6zm0,13h6v137h-6zm0,140h6v3h-6zm0,5h6v5h-6zm0,11h6v31h-6zm0,45h6v2h-6zm6,-352h6v3h-6zm0,16h6v3h-6zm0,14h6v10h-6zm0,21h6v8h-6zm0,10h6v5h-6zm0,8h6v5h-6zm0,8h6v3h-6zm0,8h6v5h-6zm0,18h6v3h-6zm0,6h6v2h-6zm0,5h6v156h-6zm0,161h6v3h-6zm0,55h6v16h-6zm0,24h6v3h-6zm6,-338h7v3h-7zm0,40h7v3h-7zm0,18h7v3h-7zm0,8h7v14h-7zm0,16h7v8h-7zm0,11h7v5h-7zm0,8h7v26h-7zm0,29h7v5h-7zm0,8h7v81h-7zm0,84h7v3h-7zm0,5h7v6h-7zm0,21h7v3h-7zm0,77h7v8h-7zm0,13h7v6h-7zm7,-401h6v3h-6zm0,34h6v3h-6zm0,32h6v3h-6zm0,5h6v3h-6zm0,19h6v2h-6zm0,5h6v3h-6zm0,8h6v3h-6zm0,8h6v8h-6zm0,16h6v8h-6zm0,13h6v8h-6zm0,13h6v8h-6zm0,13h6v3h-6zm0,8h6v106h-6zm0,111h6v8h-6zm0,11h6v2h-6zm0,100h6v5h-6zm0,11h6v2h-6zm0,5h6v5h-6zm6,-375h6v3h-6zm0,50h6v3h-6zm0,5h6v3h-6zm0,8h6v3h-6zm0,8h6v5h-6zm0,11h6v5h-6zm0,8h6v2h-6zm0,10h6v3h-6zm0,8h6v3h-6zm0,5h6v3h-6zm0,8h6v114h-6zm0,124h6v6h-6zm0,122h6v3h-6zm0,5h6v5h-6zm0,11h6v2h-6zm0,8h6v2h-6zm6,-399h6v3h-6zm0,66h6v3h-6zm0,13h6v5h-6zm0,16h6v5h-6zm0,13h6v6h-6zm0,11h6v21h-6zm0,24h6v26h-6zm0,29h6v66h-6zm0,68h6v3h-6zm0,6h6v13h-6zm0,132h6v5h-6zm0,13h6v2h-6zm6,-417h7v2h-7zm0,39h7v3h-7zm0,13h7v3h-7zm0,29h7v3h-7zm0,6h7v8h-7zm0,10h7v3h-7zm0,6h7v2h-7zm0,10h7v3h-7zm0,5h7v3h-7zm0,11h7v3h-7zm0,8h7v3h-7zm0,8h7v8h-7zm0,10h7v124h-7zm0,127h7v5h-7zm0,127h7v8h-7zm7,-417h6v2h-6zm0,42h6v3h-6zm0,13h6v3h-6zm0,13h6v3h-6zm0,16h6v3h-6zm0,19h6v5h-6zm0,8h6v10h-6zm0,15h6v3h-6zm0,6h6v5h-6zm0,8h6v13h-6zm0,15h6v6h-6zm0,8h6v27h-6zm0,29h6v6h-6zm0,8h6v82h-6zm0,222h6v13h-6zm6,-391h6v3h-6zm0,16h6v3h-6zm0,53h6v3h-6zm0,11h6v2h-6zm0,13h6v2h-6zm0,5h6v5h-6zm0,8h6v5h-6zm0,16h6v8h-6zm0,10h6v3h-6zm0,6h6v23h-6zm0,26h6v79h-6zm0,85h6v2h-6zm0,10h6v3h-6zm0,135h6v8h-6z"
             id="path8" />
          <path
             fill="#1652cc"
             d="M0,304h6v2h-6zm0,8h6v5h-6zm0,7h6v22h-6zm0,24h6v3h-6zM0,459h6v3h-6zM6,317h6v31h-6zm6,0h7v31h-7zm7,-8h6v3h-6zm0,8h6v31h-6zm0,145h6v3h-6zM25,317h6v5h-6zm0,8h6v13h-6zm0,18h6v3h-6zm6,-39h6v2h-6zm0,5h6v3h-6zm0,5h6v3h-6zm0,8h6v24h-6zm6,-10h7v2h-7zm0,5h7v2h-7zm0,5h7v26h-7zm0,132h7v3h-7zM44,304h6v2h-6zm0,8h6v2h-6zm0,7h6v19h-6zm0,22h6v5h-6zm0,7h6v3h-6zm6,-39h6v3h-6zm0,10h6v24h-6zm0,27h6v2h-6zm6,-34h6v10h-6zm0,13h6v21h-6zm0,116h6v3h-6zM62,322h7v3h-7zm0,8h7v16h-7zm0,18h7v3h-7zm0,88h7v2h-7zM69,306h6v6h-6zm0,8h6v3h-6zm0,5h6v6h-6zm0,8h6v8h-6zm0,14h6v7h-6zm0,89h6v3h-6zM75,317h6v10h-6zm0,13h6v5h-6zm0,11h6v5h-6zm0,81h6v3h-6zM81,301h6v3h-6zm0,8h6v10h-6zm0,13h6v16h-6zm0,19h6v2h-6zm0,5h6v2h-6zm0,68h6v3h-6zM87,306h6v3h-6zm0,6h6v2h-6zm0,5h6v2h-6zm0,5h6v24h-6zm0,85h6v2h-6zM93,306h7v3h-7zm0,8h7v3h-7zm0,8h7v24h-7zm0,26h7v3h-7zm0,48h7v5h-7zm7,-87h6v3h-6zm0,10h6v8h-6zm0,11h6v24h-6zm0,58h6v8h-6zm6,-76h6v2h-6zm0,10h6v3h-6zm0,5h6v32h-6zm0,35h6v2h-6zm0,23h6v6h-6zm6,-42h6v5h-6zm0,8h6v21h-6zm0,24h6v3h-6zm0,5h6v8h-6zm6,-16h7v16h-7zm38,-5h6v3h-6zm0,5h6v3h-6zm0,6h6v42h-6zm6,-27h6v5h-6zm0,8h6v19h-6zm0,66h6v11h-6zm6,-87h6v5h-6zm0,8h6v3h-6zm0,8h6v21h-6zm0,24h6v2h-6zm0,58h6v5h-6zm6,-101h7v3h-7zm0,8h7v29h-7zm0,95h7v3h-7zm0,8h7v3h-7zm7,-113h6v29h-6zm0,31h6v6h-6zm0,85h6v3h-6zm6,-127h6v8h-6zm0,11h6v21h-6zm0,23h6v6h-6zm6,-31h6v29h-6zm0,137h6v3h-6zm6,-135h7v3h-7zm0,6h7v21h-7zm0,26h7v3h-7zm7,-66h6v3h-6zm0,34h6v29h-6zm6,-13h6v3h-6zm0,8h6v3h-6zm0,8h6v24h-6zm6,-24h6v3h-6zm0,8h6v40h-6zm0,159h6v2h-6zm6,-148h7v26h-7zm7,0h6v5h-6zm0,8h6v18h-6zm0,21h6v2h-6zm6,-40h6v3h-6zm0,6h6v7h-6zm0,13h6v18h-6zm6,-13h6v7h-6zm0,10h6v26h-6zm6,-3h6v24h-6zm0,27h6v2h-6zm0,103h6v2h-6zm6,-132h7v5h-7zm0,8h7v18h-7zm0,119h7v2h-7zm7,-140h6v2h-6zm0,10h6v3h-6zm0,8h6v21h-6zm0,29h6v3h-6zm0,87h6v3h-6zm6,-134h6v2h-6zm0,5h6v3h-6zm0,8h6v29h-6zm0,116h6v3h-6zm6,-124h6v3h-6zm0,8h6v26h-6zm0,29h6v2h-6zm0,79h6v5h-6zm6,-113h7v5h-7zm0,7h7v8h-7zm0,11h7v13h-7zm0,16h7v2h-7zm0,68h7v8h-7zm7,-108h6v3h-6zm0,6h6v5h-6zm0,13h6v23h-6zm0,82h6v7h-6zm6,-93h6v8h-6zm0,11h6v16h-6zm0,21h6v2h-6zm0,53h6v2h-6zm0,5h6v3h-6zm6,-111h6v3h-6zm0,16h6v3h-6zm0,8h6v5h-6zm0,8h6v10h-6zm0,13h6v13h-6zm0,53h6v5h-6zm6,-79h7v2h-7zm0,5h7v5h-7zm0,8h7v26h-7zm0,29h7v10h-7zm0,29h7v8h-7zm7,-64h6v3h-6zm0,6h6v2h-6zm0,8h6v2h-6zm0,5h6v5h-6zm0,8h6v2h-6zm0,8h6v2h-6zm0,5h6v24h-6zm6,13h6v6h-6zm37,-18h6v2h-6zm0,31h6v8h-6zm6,-34h7v16h-7zm0,19h7v44h-7zm7,-27h6v3h-6zm0,5h6v19h-6zm0,74h6v6h-6zm6,-108h6v3h-6zm0,16h6v21h-6zm0,24h6v2h-6zm6,-37h6v2h-6zm0,10h6v21h-6zm0,24h6v3h-6zm6,-32h6v16h-6zm0,19h6v10h-6zm0,13h6v3h-6zm6,-24h7v19h-7zm0,21h7v3h-7zm0,101h7v2h-7zm7,-140h6v3h-6zm0,13h6v26h-6zm6,-8h6v32h-6zm0,143h6v2h-6zm6,-140h6v8h-6zm0,10h6v14h-6zm0,135h6v3h-6zm6,-137h7v21h-7zm7,-8h6v8h-6zm0,10h6v19h-6zm0,138h6v2h-6zm6,-153h6v2h-6zm0,5h6v29h-6zm6,-3h6v5h-6zm0,8h6v19h-6zm0,21h6v3h-6zm6,-34h7v32h-7zm0,34h7v3h-7zm0,114h7v2h-7zm7,-156h6v3h-6zm0,13h6v3h-6zm0,5h6v27h-6zm0,135h6v3h-6zm6,-145h6v3h-6zm0,8h6v10h-6zm0,13h6v16h-6zm0,121h6v3h-6zm6,-145h6v32h-6zm0,37h6v3h-6zm6,-31h6v21h-6zm0,23h6v11h-6zm0,109h6v2h-6zm6,-135h7v3h-7zm0,5h7v11h-7zm0,13h7v16h-7zm0,111h7v3h-7zm7,-129h6v3h-6zm0,16h6v18h-6zm0,108h6v3h-6zm6,-121h6v5h-6zm0,7h6v29h-6zm0,109h6v2h-6zm6,-124h6v2h-6zm0,10h6v32h-6zm0,103h6v3h-6zm6,-108h7v3h-7zm0,5h7v5h-7zm0,8h7v26h-7zm0,82h7v5h-7zm7,-95h6v3h-6zm0,8h6v34h-6zm0,79h6v5h-6zm6,-87h6v13h-6zm0,16h6v16h-6zm0,21h6v5h-6zm0,42h6v5h-6zm6,-71h6v29h-6zm0,31h6v6h-6zm0,8h6v3h-6zm0,29h6v6h-6zm6,-73h7v2h-7zm0,7h7v3h-7zm0,14h7v29h-7zm0,31h7v3h-7zm0,14h7v13h-7zm7,-56h6v3h-6zm0,5h6v3h-6zm0,21h6v6h-6zm0,8h6v29h-6zm37,-10h6v2h-6zm0,8h6v21h-6zm0,29h6v2h-6zm0,5h6v3h-6zm0,5h6v3h-6zm0,6h6v18h-6zm6,-77h6v3h-6zm0,19h6v21h-6zm0,23h6v6h-6zm0,58h6v6h-6zm6,-92h7v3h-7zm0,5h7v24h-7zm0,98h7v3h-7zm7,-121h6v2h-6zm0,15h6v3h-6zm0,6h6v2h-6zm0,5h6v16h-6zm0,18h6v3h-6zm0,82h6v3h-6zm6,-129h6v3h-6zm0,16h6v29h-6zm6,-6h6v24h-6zm0,27h6v5h-6zm0,103h6v2h-6zm6,-135h7v3h-7zm0,11h7v16h-7zm0,18h7v8h-7zm0,108h7v3h-7zm7,-147h6v2h-6zm0,13h6v5h-6zm0,8h6v2h-6zm0,5h6v18h-6zm0,127h6v2h-6zm6,-148h6v3h-6zm0,8h6v2h-6zm0,10h6v14h-6zm0,16h6v3h-6zm0,116h6v3h-6zm6,-153h6v3h-6zm0,8h6v8h-6zm0,11h6v23h-6zm0,137h6v3h-6zm6,-150h6v2h-6zm0,7h6v24h-6zm0,143h6v3h-6zm6,-145h7v2h-7zm0,5h7v24h-7zm7,-5h6v2h-6zm0,5h6v21h-6zm0,140h6v3h-6zm6,-158h6v5h-6zm0,15h6v19h-6zm0,22h6v2h-6zm0,5h6v2h-6zm0,113h6v3h-6zm6,-147h6v23h-6zm0,26h6v5h-6zm0,119h6v2h-6zm6,-164h7v3h-7zm0,11h7v5h-7zm0,8h7v5h-7zm0,10h7v5h-7zm0,8h7v13h-7zm7,-32h6v3h-6zm0,8h6v3h-6zm0,11h6v21h-6zm0,24h6v2h-6zm0,108h6v2h-6zm6,-140h6v34h-6zm0,37h6v2h-6zm6,-34h6v5h-6zm0,7h6v22h-6zm0,29h6v3h-6zm0,93h6v3h-6zm6,-135h7v3h-7zm0,6h7v2h-7zm0,5h7v26h-7zm0,119h7v2h-7zm7,-130h6v6h-6zm0,8h6v5h-6zm0,8h6v21h-6zm6,-3h6v24h-6zm0,101h6v2h-6zm6,-116h6v2h-6zm0,8h6v2h-6zm0,5h6v16h-6zm0,18h6v8h-6zm0,77h6v5h-6zm6,-106h6v8h-6zm0,11h6v10h-6zm0,13h6v5h-6zm0,16h6v2h-6zm0,58h6v5h-6zm6,-87h7v31h-7zm0,82h7v5h-7zm7,-87h6v5h-6zm0,7h6v3h-6zm0,6h6v5h-6zm0,8h6v13h-6zm0,15h6v3h-6zm0,45h6v6h-6zm6,-71h6v3h-6zm0,5h6v6h-6zm0,11h6v34h-6zm0,42h6v3h-6zm0,5h6v6h-6zm6,-58h6v3h-6zm0,8h6v13h-6zm0,19h6v5h-6zm0,13h6v13h-6zm6,0h7v3h-7zm0,11h7v2h-7zm7,-6h6v6h-6zm25,-21h6v13h-6zm0,16h6v45h-6zm6,-24h6v3h-6zm0,11h6v24h-6zm0,63h6v3h-6zm0,5h6v6h-6zm6,-87h6v29h-6zm0,32h6v3h-6zm0,66h6v3h-6zm6,-114h6v3h-6zm0,8h6v27h-6zm0,111h6v3h-6zm6,-121h7v2h-7zm0,5h7v26h-7zm0,122h7v2h-7zm7,-130h6v3h-6zm0,5h6v3h-6zm0,6h6v23h-6zm0,124h6v2h-6zm6,-132h6v2h-6zm0,8h6v31h-6zm0,126h6v3h-6zm6,-132h6v19h-6zm0,138h6v2h-6zm6,-145h7v5h-7zm0,7h7v27h-7zm0,29h7v3h-7zm7,-34h6v3h-6zm0,11h6v16h-6zm6,-19h6v3h-6zm0,6h6v2h-6zm0,10h6v21h-6zm6,-16h6v3h-6zm0,8h6v3h-6zm0,5h6v6h-6zm0,8h6v19h-6zm6,-15h7v5h-7zm0,13h7v16h-7zm7,-19h6v3h-6zm0,8h6v29h-6zm0,148h6v3h-6zm6,-148h6v5h-6zm0,8h6v21h-6zm0,135h6v2h-6zm6,-143h6v5h-6zm0,11h6v21h-6zm0,23h6v3h-6zm0,106h6v3h-6zm6,-148h6v3h-6zm0,8h6v5h-6zm0,8h6v26h-6zm0,127h6v2h-6zm6,-135h7v8h-7zm0,11h7v10h-7zm0,13h7v5h-7zm7,-32h6v8h-6zm0,13h6v27h-6zm0,122h6v3h-6zm6,-132h6v3h-6zm0,5h6v5h-6zm0,8h6v21h-6zm0,26h6v3h-6zm0,88h6v2h-6zm6,-119h6v5h-6zm0,8h6v18h-6zm0,26h6v3h-6zm0,79h6v3h-6zm6,-121h7v3h-7zm0,8h7v8h-7zm0,13h7v13h-7zm0,16h7v2h-7zm0,79h7v5h-7zm7,-116h6v16h-6zm0,18h6v11h-6zm0,19h6v2h-6zm6,-32h6v5h-6zm0,11h6v23h-6zm0,87h6v2h-6zm6,-93h6v3h-6zm0,6h6v23h-6zm0,26h6v3h-6zm0,48h6v8h-6zm6,-93h7v3h-7zm0,16h7v3h-7zm0,5h7v32h-7zm0,66h7v6h-7zm7,-76h6v8h-6zm0,10h6v8h-6zm0,14h6v26h-6zm0,42h6v10h-6zm6,-50h6v5h-6zm0,8h6v29h-6zm0,39h6v11h-6zm6,-42h6v3h-6zm0,32h6v15h-6zm37,-8h7v37h-7zm0,39h7v3h-7zm7,-71h6v3h-6zm0,16h6v32h-6zm0,34h6v3h-6zm0,32h6v8h-6zm6,-77h6v6h-6zm0,8h6v21h-6zm0,77h6v2h-6zm0,5h6v5h-6zm6,-116h6v3h-6zm0,18h6v37h-6zm0,40h6v3h-6zm0,66h6v3h-6zm6,-106h6v6h-6zm0,8h6v16h-6zm0,19h6v2h-6zm0,5h6v3h-6zm0,82h6v3h-6zm6,-127h7v3h-7zm0,5h7v29h-7zm0,127h7v3h-7zm7,-140h6v3h-6zm0,8h6v3h-6zm0,5h6v3h-6zm0,8h6v16h-6zm0,19h6v2h-6zm0,105h6v3h-6zm6,-132h6v3h-6zm0,6h6v21h-6zm0,132h6v2h-6zm6,-148h6v5h-6zm0,10h6v27h-6zm0,29h6v6h-6zm0,111h6v3h-6zm6,-161h7v3h-7zm0,16h7v3h-7zm0,5h7v27h-7zm0,143h7v3h-7zm7,-161h6v5h-6zm0,16h6v26h-6zm6,-16h6v3h-6zm0,5h6v6h-6zm0,8h6v32h-6zm6,0h6v3h-6zm0,11h6v2h-6zm0,5h6v13h-6zm0,21h6v3h-6zm0,108h6v3h-6zm6,-161h7v3h-7zm0,8h7v16h-7zm0,19h7v13h-7zm0,16h7v7h-7zm0,116h7v2h-7zm7,-161h6v2h-6zm0,13h6v3h-6zm0,8h6v29h-6zm6,-8h6v10h-6zm0,13h6v26h-6zm6,-5h6v26h-6zm6,-8h6v3h-6zm0,5h6v3h-6zm0,5h6v27h-6zm0,29h6v3h-6zm6,-39h7v37h-7zm0,124h7v5h-7zm7,-127h6v3h-6zm0,8h6v29h-6zm0,116h6v3h-6zm6,-118h6v2h-6zm0,5h6v24h-6zm0,105h6v6h-6zm6,-113h6v3h-6zm0,5h6v5h-6zm0,11h6v26h-6zm0,87h6v5h-6zm6,-93h7v19h-7zm0,85h7v3h-7zm7,-90h6v5h-6zm0,8h6v19h-6zm0,21h6v5h-6zm0,53h6v8h-6zm6,-90h6v3h-6zm0,11h6v29h-6zm0,31h6v3h-6zm0,6h6v5h-6zm0,31h6v8h-6zm0,11h6v3h-6zm6,-79h6v2h-6zm0,10h6v8h-6zm0,11h6v29h-6zm0,40h6v2h-6zm0,5h6v5h-6zm6,-56h7v3h-7zm0,21h7v3h-7zm0,19h7v3h-7zm0,5h7v6h-7zm44,0h6v3h-6zm0,6h6v2h-6zm0,7h6v6h-6zm6,-31h6v5h-6zm0,8h6v26h-6zm0,31h6v3h-6zm0,8h6v3h-6zm0,6h6v7h-6zm6,-88h7v3h-7zm0,6h7v2h-7zm0,8h7v15h-7zm0,18h7v13h-7zm0,71h7v3h-7zm7,-105h6v5h-6zm0,13h6v3h-6zm0,5h6v16h-6zm0,24h6v3h-6zm0,71h6v3h-6zm6,-121h6v10h-6zm0,16h6v29h-6zm0,113h6v3h-6zm6,-134h6v2h-6zm0,5h6v3h-6zm0,16h6v23h-6zm0,26h6v3h-6zm6,-32h7v3h-7zm0,8h7v14h-7zm0,16h7v3h-7zm7,-29h6v27h-6zm0,137h6v3h-6zm6,-145h6v6h-6zm0,8h6v8h-6zm0,11h6v18h-6zm0,21h6v2h-6z"
             id="path10" />
          <path
             fill="#1063db"
             d="M0,341h6v2h-6zm0,5h6v13h-6zm6,2h6v14h-6zm6,0h7v8h-7zm0,11h7v3h-7zm0,103h7v3h-7zM19,348h6v8h-6zm6,-10h6v5h-6zm0,8h6v8h-6zm0,10h6v3h-6zm6,-10h6v13h-6zm0,111h6v2h-6zM37,348h7v8h-7zm0,14h7v2h-7zm7,-24h6v3h-6zm0,8h6v2h-6zm0,5h6v8h-6zm0,98h6v2h-6zM50,343h6v3h-6zm0,5h6v8h-6zm0,11h6v3h-6zm6,-13h6v16h-6zm6,0h7v2h-7zm0,5h7v3h-7zm0,5h7v3h-7zm0,77h7v3h-7zm7,-98h6v6h-6zm0,13h6v14h-6zm6,-13h6v6h-6zm0,11h6v10h-6zm0,74h6v2h-6zm6,-82h6v3h-6zm0,5h6v3h-6zm0,5h6v8h-6zm0,64h6v2h-6zm6,-66h6v16h-6zm0,55h6v6h-6zm6,-55h7v2h-7zm0,5h7v16h-7zm0,37h7v8h-7zm7,-34h6v16h-6zm0,26h6v8h-6zm6,-21h6v3h-6zm0,5h6v11h-6zm0,14h6v7h-6zm6,-6h6v3h-6zm0,6h6v2h-6zm50,-8h6v31h-6zm0,34h6v13h-6zm6,-37h6v3h-6zm0,5h6v19h-6zm0,45h6v11h-6zm6,-53h7v21h-7zm0,64h7v2h-7zm0,5h7v5h-7zm7,-79h6v2h-6zm0,8h6v8h-6zm0,10h6v3h-6zm0,66h6v3h-6zm6,-92h6v2h-6zm0,8h6v8h-6zm0,10h6v3h-6zm0,80h6v7h-6zm6,-98h6v16h-6zm6,0h7v5h-7zm0,8h7v5h-7zm0,103h7v2h-7zm7,-109h6v14h-6zm6,-2h6v10h-6zm0,116h6v3h-6zm6,-116h6v13h-6zm6,-3h7v19h-7zm0,119h7v3h-7zm7,-119h6v3h-6zm0,5h6v14h-6zm0,111h6v3h-6zm6,-116h6v13h-6zm0,16h6v3h-6zm0,98h6v2h-6zm6,-109h6v8h-6zm6,-5h6v3h-6zm0,5h6v8h-6zm6,-5h7v19h-7zm0,98h7v3h-7zm7,-98h6v8h-6zm0,13h6v3h-6zm0,80h6v2h-6zm6,-90h6v5h-6zm0,8h6v2h-6zm0,76h6v3h-6zm6,-87h6v3h-6zm0,5h6v11h-6zm0,74h6v3h-6zm6,-79h7v3h-7zm0,5h7v16h-7zm0,64h7v2h-7zm7,-64h6v14h-6zm0,53h6v6h-6zm6,-60h6v5h-6zm0,7h6v8h-6zm0,11h6v3h-6zm0,34h6v6h-6zm6,-58h6v3h-6zm0,16h6v11h-6zm0,34h6v6h-6zm6,-34h7v3h-7zm0,13h7v8h-7zm0,11h7v8h-7zm63,-8h6v34h-6zm0,47h6v8h-6zm6,-63h6v3h-6zm0,5h6v11h-6zm0,14h6v5h-6zm0,63h6v3h-6zm6,-85h6v3h-6zm0,6h6v13h-6zm0,84h6v3h-6zm6,-90h6v3h-6zm0,6h6v10h-6zm0,90h6v2h-6zm6,-98h7v2h-7zm0,5h7v13h-7zm7,-3h6v8h-6zm0,16h6v3h-6zm0,87h6v3h-6zm6,-105h6v8h-6zm0,13h6v3h-6zm6,-18h6v13h-6zm0,15h6v3h-6zm0,6h6v2h-6zm0,97h6v3h-6zm6,-113h7v13h-7zm7,0h6v13h-6zm0,16h6v2h-6zm6,-16h6v13h-6zm0,116h6v3h-6zm6,-121h6v2h-6zm0,5h6v8h-6zm0,113h6v3h-6zm6,-118h7v2h-7zm0,5h7v8h-7zm7,0h6v13h-6zm6,0h6v5h-6zm0,8h6v5h-6zm6,-16h6v5h-6zm0,8h6v10h-6zm0,100h6v3h-6zm6,-113h6v2h-6zm0,13h6v13h-6zm6,-3h7v11h-7zm0,13h7v6h-7zm0,80h7v2h-7zm7,-93h6v13h-6zm0,16h6v3h-6zm0,71h6v3h-6zm6,-82h6v3h-6zm0,6h6v5h-6zm0,71h6v3h-6zm6,-79h6v13h-6zm0,66h6v5h-6zm6,-64h7v6h-7zm0,8h7v6h-7zm0,43h7v2h-7zm7,-48h6v8h-6zm0,42h6v3h-6zm6,-52h6v5h-6zm0,10h6v13h-6zm0,16h6v3h-6zm0,16h6v5h-6zm6,-37h6v2h-6zm0,8h6v2h-6zm0,5h6v13h-6zm0,19h6v7h-6zm6,-16h7v2h-7zm0,5h7v11h-7zm44,8h6v8h-6zm0,10h6v3h-6zm0,6h6v2h-6zm0,5h6v3h-6zm6,-34h6v2h-6zm0,8h6v26h-6zm0,39h6v3h-6zm0,5h6v8h-6zm6,-55h7v19h-7zm0,71h7v3h-7zm7,-76h6v2h-6zm0,5h6v19h-6zm6,-5h6v13h-6zm0,90h6v2h-6zm6,-101h6v3h-6zm0,8h6v8h-6zm0,95h6v3h-6zm6,-105h7v2h-7zm0,10h7v5h-7zm7,-3h6v14h-6zm6,-7h6v2h-6zm0,5h6v13h-6zm6,2h6v11h-6zm6,-5h6v13h-6zm6,3h7v8h-7zm0,116h7v3h-7zm7,-119h6v11h-6zm6,-5h6v3h-6zm0,5h6v3h-6zm0,5h6v11h-6zm6,-13h6v3h-6zm0,8h6v11h-6zm0,13h6v3h-6zm6,-13h7v13h-7zm0,108h7v3h-7zm7,-113h6v3h-6zm0,5h6v13h-6zm6,0h6v3h-6zm0,5h6v11h-6zm0,96h6v2h-6zm6,-103h6v7h-6zm0,10h6v5h-6zm6,-8h7v8h-7zm0,16h7v3h-7zm7,-16h6v11h-6zm0,85h6v2h-6zm6,-85h6v13h-6zm0,74h6v3h-6zm6,-84h6v2h-6zm0,10h6v13h-6zm0,16h6v3h-6zm0,50h6v3h-6zm6,-82h6v3h-6zm0,8h6v11h-6zm0,13h6v6h-6zm0,53h6v3h-6zm6,-53h7v11h-7zm0,48h7v3h-7zm7,-50h6v2h-6zm0,5h6v16h-6zm0,32h6v10h-6zm6,-11h6v8h-6zm0,11h6v2h-6zm50,-5h6v15h-6zm0,18h6v5h-6zm0,11h6v10h-6zm0,13h6v2h-6zm6,-56h6v3h-6zm0,6h6v18h-6zm6,-16h6v18h-6zm6,-6h7v16h-7zm7,0h6v16h-6zm6,11h6v3h-6zm6,-21h6v21h-6zm6,8h7v2h-7zm0,5h7v8h-7zm0,108h7v3h-7zm7,-118h6v13h-6zm6,2h6v16h-6zm0,122h6v2h-6zm6,-119h6v10h-6zm0,119h6v2h-6zm6,-124h7v18h-7zm0,124h7v2h-7zm7,-122h6v11h-6zm0,116h6v3h-6zm6,-116h6v8h-6zm0,11h6v2h-6zm6,-8h6v2h-6zm0,5h6v11h-6zm0,100h6v3h-6zm6,-103h6v11h-6zm6,-13h7v3h-7zm0,8h7v13h-7zm0,101h7v2h-7zm7,-98h6v8h-6zm0,10h6v3h-6zm6,-13h6v5h-6zm0,8h6v11h-6zm6,-8h6v8h-6zm0,11h6v8h-6zm6,-11h7v3h-7zm0,5h7v14h-7zm0,74h7v3h-7zm7,-84h6v8h-6zm0,10h6v11h-6zm0,66h6v6h-6zm6,-66h6v8h-6zm0,11h6v3h-6zm0,45h6v8h-6zm6,-56h6v3h-6zm0,6h6v10h-6zm0,13h6v3h-6zm0,24h6v2h-6zm0,5h6v3h-6zm6,-37h7v16h-7zm0,26h7v8h-7zm7,-18h6v16h-6zm6,3h6v10h-6zm50,8h6v2h-6zm0,5h6v29h-6zm6,-19h6v24h-6zm0,27h6v2h-6zm0,31h6v3h-6zm6,-58h6v3h-6zm0,6h6v5h-6zm0,8h6v10h-6zm0,50h6v5h-6zm6,-77h6v3h-6zm0,5h6v3h-6zm0,6h6v8h-6zm0,10h6v3h-6zm0,66h6v3h-6zm6,-90h7v16h-7zm0,96h7v2h-7zm7,-101h6v3h-6zm0,5h6v14h-6zm6,-2h6v16h-6zm0,108h6v3h-6zm6,-108h6v2h-6zm0,8h6v8h-6zm6,-8h7v10h-7zm0,13h7v3h-7zm7,-16h6v11h-6zm0,13h6v6h-6zm0,106h6v3h-6zm6,-116h6v8h-6zm0,10h6v3h-6zm6,-13h6v8h-6zm0,11h6v8h-6zm6,-16h7v3h-7zm0,10h7v8h-7zm0,11h7v3h-7zm7,-13h6v10h-6zm6,2h6v11h-6zm0,101h6v2h-6zm6,-106h6v13h-6zm0,98h6v5h-6zm6,-95h6v2h-6zm0,5h6v8h-6zm0,87h6v3h-6zm6,-92h7v10h-7zm0,84h7v3h-7zm7,-87h6v16h-6zm0,85h6v2h-6zm6,-87h6v15h-6zm0,73h6v3h-6zm0,6h6v2h-6zm6,-69h6v8h-6zm0,56h6v5h-6zm6,-69h7v21h-7zm0,55h7v3h-7zm0,6h7v5h-7zm7,-58h6v2h-6zm0,7h6v14h-6zm0,16h6v3h-6zm0,24h6v8h-6zm6,-42h6v2h-6zm0,5h6v3h-6zm0,8h6v3h-6zm0,11h6v2h-6zm0,8h6v2h-6zm6,-11h6v11h-6zm0,13h6v3h-6zm56,8h6v5h-6zm0,8h6v5h-6zm0,8h6v3h-6zm6,-40h7v14h-7zm0,19h7v2h-7zm0,34h7v5h-7zm7,-66h6v8h-6zm0,11h6v5h-6zm0,8h6v2h-6zm0,58h6v2h-6zm6,-74h6v10h-6zm0,13h6v3h-6zm6,-19h6v3h-6zm0,6h6v10h-6zm0,87h6v3h-6zm6,-100h7v2h-7zm0,5h7v13h-7zm0,16h7v2h-7zm0,84h7v3h-7zm7,-105h6v18h-6zm6,2h6v3h-6zm0,5h6v6h-6zm0,11h6v3h-6zm0,95h6v3h-6z"
             id="path12" />
          <path
             fill="#1171d8"
             d="M0,359h6v3h-6zm0,98h6v2h-6zM6,362h6v5h-6zm6,-6h7v3h-7zm0,6h7v5h-7zm7,-6h6v6h-6zm6,-2h6v2h-6zm0,5h6v3h-6zm0,5h6v3h-6zm0,95h6v3h-6zM31,359h6v11h-6zm6,-3h7v6h-7zm0,8h7v6h-7zm0,87h7v3h-7zm7,-92h6v8h-6zm6,-3h6v3h-6zm0,88h6v2h-6zm6,-82h6v2h-6zm0,76h6v3h-6zm6,-84h7v2h-7zm0,5h7v8h-7zm7,5h6v3h-6zm0,64h6v2h-6zm6,-72h6v6h-6zm6,0h6v3h-6zm0,6h6v2h-6zm0,47h6v3h-6zm6,-47h6v8h-6zm0,37h6v2h-6zm6,-29h7v5h-7zm0,10h7v3h-7zm0,5h7v3h-7zm7,-15h6v10h-6zm6,5h6v3h-6zm56,26h6v3h-6zm6,-10h6v26h-6zm6,-6h7v8h-7zm0,11h7v3h-7zm0,18h7v3h-7zm7,-44h6v2h-6zm0,5h6v10h-6zm6,-13h6v2h-6zm0,5h6v5h-6zm0,74h6v3h-6zm6,-79h6v10h-6zm0,89h6v3h-6zm6,-92h7v11h-7zm0,16h7v3h-7zm7,-13h6v2h-6zm0,5h6v3h-6zm0,92h6v3h-6zm6,-103h6v14h-6zm6,3h6v3h-6zm0,103h6v3h-6zm6,-100h7v5h-7zm7,0h6v2h-6zm6,-6h6v3h-6zm0,6h6v2h-6zm0,5h6v3h-6zm6,-11h6v8h-6zm0,95h6v3h-6zm6,-95h6v11h-6zm0,90h6v3h-6zm6,-84h7v2h-7zm7,-8h6v2h-6zm0,5h6v8h-6zm0,11h6v2h-6zm6,-19h6v3h-6zm0,5h6v11h-6zm0,72h6v2h-6zm6,-69h6v5h-6zm0,8h6v3h-6zm0,53h6v2h-6zm6,-56h7v6h-7zm0,43h7v5h-7zm7,-45h6v2h-6zm0,37h6v2h-6zm6,-43h6v3h-6zm0,6h6v8h-6zm0,21h6v10h-6zm6,-21h6v10h-6zm0,16h6v7h-6zm6,-6h7v3h-7zm63,29h6v13h-6zm6,-34h6v3h-6zm0,8h6v8h-6zm0,55h6v3h-6zm6,-63h6v5h-6zm0,11h6v5h-6zm6,-14h6v8h-6zm6,0h7v8h-7zm7,-8h6v8h-6zm0,11h6v3h-6zm6,-13h6v5h-6zm0,8h6v2h-6zm0,92h6v3h-6zm6,-100h6v2h-6zm0,5h6v3h-6zm6,0h7v8h-7zm0,103h7v3h-7zm7,-103h6v3h-6zm0,8h6v3h-6zm0,95h6v3h-6zm6,-103h6v8h-6zm6,-5h6v10h-6zm6,0h7v10h-7zm7,5h6v8h-6zm6,-8h6v3h-6zm0,8h6v8h-6zm0,90h6v2h-6zm6,-93h6v8h-6zm6,3h6v5h-6zm0,8h6v3h-6zm0,74h6v3h-6zm6,-87h7v2h-7zm0,8h7v5h-7zm7,-6h6v3h-6zm0,6h6v8h-6zm0,66h6v2h-6zm6,-77h6v3h-6zm0,8h6v5h-6zm0,61h6v5h-6zm6,-58h6v2h-6zm0,5h6v5h-6zm0,42h6v3h-6zm6,-55h7v2h-7zm0,8h7v8h-7zm0,34h7v3h-7zm0,5h7v3h-7zm7,-42h6v13h-6zm0,26h6v8h-6zm6,-21h6v3h-6zm0,6h6v13h-6zm6,2h6v6h-6zm56,24h6v13h-6zm0,16h6v2h-6zm6,-34h7v18h-7zm0,29h7v2h-7zm0,7h7v3h-7zm0,8h7v3h-7zm0,6h7v2h-7zm7,-50h6v10h-6zm0,13h6v2h-6zm0,5h6v3h-6zm0,40h6v2h-6zm6,-69h6v16h-6zm0,18h6v3h-6zm6,-26h6v11h-6zm6,-3h7v6h-7zm0,8h7v3h-7zm0,85h7v2h-7zm7,-87h6v2h-6zm0,92h6v3h-6zm6,-95h6v8h-6zm6,0h6v8h-6zm6,-3h6v6h-6zm6,-2h7v8h-7zm0,10h7v3h-7zm7,-10h6v10h-6zm6,5h6v5h-6zm6,-5h6v2h-6zm0,5h6v5h-6zm6,-3h7v6h-7zm7,0h6v11h-6zm6,3h6v5h-6zm6,-3h6v6h-6zm0,8h6v3h-6zm0,74h6v3h-6zm6,-87h7v8h-7zm0,11h7v5h-7zm0,71h7v3h-7zm7,-79h6v13h-6zm0,71h6v3h-6zm6,-69h6v11h-6zm0,58h6v3h-6zm6,-58h6v3h-6zm0,6h6v8h-6zm0,45h6v2h-6zm6,-53h6v8h-6zm0,42h6v5h-6zm6,-37h7v11h-7zm0,29h7v8h-7zm7,-21h6v16h-6zm56,26h6v3h-6zm0,8h6v6h-6zm6,-13h6v8h-6zm0,13h6v6h-6zm0,27h6v5h-6zm6,-56h6v6h-6zm0,64h6v2h-6zm6,-72h7v6h-7zm0,77h7v3h-7zm7,-77h6v8h-6zm0,11h6v3h-6zm6,-19h6v3h-6zm0,6h6v13h-6zm0,18h6v3h-6zm6,-21h6v11h-6zm0,95h6v3h-6zm6,-95h7v5h-7zm7,-5h6v10h-6zm0,13h6v3h-6zm6,-8h6v5h-6zm6,-3h6v8h-6zm6,3h7v5h-7zm0,103h7v3h-7zm7,-108h6v8h-6zm6,-3h6v3h-6zm0,5h6v8h-6zm0,98h6v3h-6zm6,-92h6v2h-6zm0,5h6v3h-6zm6,-8h6v3h-6zm0,5h6v6h-6zm6,-8h7v11h-7zm0,85h7v3h-7zm7,-87h6v2h-6zm0,5h6v5h-6zm0,8h6v3h-6zm0,71h6v3h-6zm6,-76h6v2h-6zm0,71h6v3h-6zm6,-71h6v5h-6zm0,8h6v2h-6zm0,58h6v2h-6zm6,-66h7v8h-7zm0,58h7v2h-7zm7,-61h6v8h-6zm0,53h6v2h-6zm6,-56h6v3h-6zm0,6h6v5h-6zm0,10h6v3h-6zm0,27h6v5h-6zm6,-35h6v3h-6zm0,6h6v5h-6zm0,8h6v2h-6zm0,5h6v8h-6zm0,10h6v3h-6zm6,-18h7v5h-7zm0,8h7v2h-7zm69,5h6v3h-6zm0,5h6v27h-6zm6,-18h6v3h-6zm0,13h6v16h-6zm0,24h6v2h-6zm0,5h6v5h-6zm0,8h6v3h-6zm6,-55h6v2h-6zm0,5h6v8h-6zm0,10h6v6h-6zm0,51h6v2h-6zm6,-72h7v8h-7zm0,77h7v3h-7zm7,-79h6v8h-6zm0,13h6v3h-6zm0,74h6v2h-6zm6,-87h6v10h-6zm6,0h6v8h-6zm6,-6h7v3h-7zm0,6h7v5h-7zm7,-8h6v2h-6zm0,8h6v5h-6zm6,-8h6v2h-6zm0,5h6v3h-6zm0,5h6v3h-6zm6,-2h6v5h-6zm6,-6h7v3h-7zm0,6h7v5h-7zm0,92h7v3h-7zm7,-98h6v8h-6zm0,95h6v3h-6zm6,-92h6v8h-6zm6,-3h6v11h-6zm6,3h6v5h-6zm0,77h6v2h-6zm6,-80h7v11h-7zm7,3h6v5h-6zm0,66h6v3h-6zm6,-69h6v11h-6zm0,61h6v3h-6zm6,-58h6v8h-6zm0,40h6v8h-6zm6,-40h7v11h-7zm0,26h7v3h-7zm0,6h7v2h-7zm0,5h7v3h-7zm7,-34h6v2h-6zm0,10h6v16h-6zm6,-10h6v8h-6zm0,10h6v6h-6zm0,8h6v5h-6zm68,-2h7v5h-7zm0,7h7v32h-7zm7,-18h6v3h-6zm0,5h6v8h-6zm0,13h6v3h-6zm0,40h6v3h-6zm6,-61h6v3h-6zm0,19h6v2h-6zm0,53h6v2h-6zm6,-72h6v6h-6zm0,8h6v3h-6zm6,-13h7v3h-7zm0,5h7v14h-7zm7,-5h6v8h-6zm6,-5h6v5h-6z"
             id="path14" />
          <path
             fill="#1380d5"
             d="M0,362h6v8h-6zm6,5h6v3h-6zm0,92h6v3h-6zm6,-92h7v5h-7zm0,8h7v3h-7zm7,-13h6v13h-6zm6,0h6v2h-6zm0,5h6v3h-6zm6,3h6v2h-6zm6,0h7v2h-7zm7,-3h6v5h-6zm0,79h6v3h-6zm6,-84h6v8h-6zm6,2h6v6h-6zm6,3h7v5h-7zm7,-5h6v2h-6zm0,5h6v3h-6zm0,58h6v3h-6zm6,-63h6v10h-6zm0,55h6v3h-6zm6,-58h6v3h-6zm0,5h6v3h-6zm0,6h6v2h-6zm0,34h6v5h-6zm6,-34h6v2h-6zm0,18h6v3h-6zm0,5h6v6h-6zm6,-26h7v3h-7zm0,8h7v5h-7zm0,8h7v2h-7zm81,10h7v3h-7zm0,6h7v15h-7zm0,18h7v11h-7zm7,-32h6v6h-6zm0,48h6v5h-6zm6,-61h6v6h-6zm0,11h6v2h-6zm6,-11h6v11h-6zm6,-2h7v5h-7zm0,8h7v13h-7zm0,76h7v3h-7zm7,-90h6v3h-6zm0,6h6v8h-6zm6,0h6v2h-6zm6,-8h6v8h-6zm6,5h7v5h-7zm7,-3h6v6h-6zm0,8h6v3h-6zm0,85h6v2h-6zm6,-93h6v3h-6zm0,6h6v2h-6zm0,84h6v3h-6zm6,-90h6v6h-6zm6,3h6v5h-6zm0,77h6v2h-6zm6,-80h7v8h-7zm0,74h7v3h-7zm7,-71h6v3h-6zm0,5h6v3h-6zm6,-5h6v5h-6zm6,-3h6v3h-6zm0,53h6v3h-6zm6,-47h7v2h-7zm0,31h7v6h-7zm7,-37h6v11h-6zm0,14h6v2h-6zm0,5h6v16h-6zm6,-13h6v10h-6zm6,2h6v6h-6zm75,11h6v10h-6zm0,13h6v18h-6zm0,24h6v10h-6zm6,-48h6v6h-6zm0,11h6v2h-6zm0,8h6v8h-6zm0,45h6v2h-6zm6,-64h6v11h-6zm0,13h6v3h-6zm0,8h6v3h-6zm0,6h6v2h-6zm0,42h6v3h-6zm6,-69h7v13h-7zm0,21h7v6h-7zm0,53h7v3h-7zm7,-76h6v10h-6zm6,-6h6v8h-6zm6,0h6v8h-6zm0,93h6v2h-6zm6,-87h7v2h-7zm7,-6h6v3h-6zm0,6h6v2h-6zm6,-3h6v5h-6zm6,-3h6v3h-6zm6,0h7v6h-7zm7,3h6v5h-6zm6,0h6v8h-6zm0,11h6v2h-6zm6,-14h6v8h-6zm0,80h6v2h-6zm6,-80h6v3h-6zm0,6h6v2h-6zm0,68h6v3h-6zm6,-71h7v5h-7zm0,66h7v3h-7zm7,-63h6v5h-6zm6,-6h6v11h-6zm0,53h6v3h-6zm6,-58h6v3h-6zm0,5h6v3h-6zm0,8h6v6h-6zm0,35h6v2h-6zm6,-37h7v2h-7zm0,23h7v3h-7zm7,-21h6v13h-6zm74,24h7v11h-7zm0,13h7v5h-7zm0,8h7v5h-7zm0,8h7v3h-7zm7,-37h6v3h-6zm0,5h6v3h-6zm0,6h6v10h-6zm0,13h6v2h-6zm0,21h6v3h-6zm6,-50h6v2h-6zm0,5h6v3h-6zm0,5h6v6h-6zm0,48h6v3h-6zm6,-71h6v2h-6zm0,5h6v3h-6zm6,-13h7v2h-7zm0,5h7v5h-7zm7,-3h6v8h-6zm6,3h6v3h-6zm0,5h6v6h-6zm6,-5h6v5h-6zm6,-5h6v8h-6zm0,10h6v3h-6zm6,-10h7v2h-7zm7,2h6v6h-6zm6,0h6v6h-6zm0,93h6v2h-6zm6,-93h6v6h-6zm0,90h6v3h-6zm6,-92h7v8h-7zm7,5h6v3h-6zm0,79h6v3h-6zm6,-82h6v6h-6zm0,8h6v3h-6zm0,69h6v3h-6zm6,-79h6v2h-6zm0,5h6v3h-6zm6,0h7v3h-7zm7,0h6v3h-6zm0,55h6v3h-6zm6,-55h6v8h-6zm0,45h6v2h-6zm6,-42h6v5h-6zm0,34h6v3h-6zm6,-42h6v10h-6zm0,29h6v5h-6zm6,-13h7v2h-7zm0,5h7v5h-7zm69,13h6v5h-6zm0,11h6v5h-6zm0,7h6v14h-6zm6,-36h6v13h-6zm0,18h6v5h-6zm0,37h6v3h-6zm6,-63h7v10h-7zm0,13h7v5h-7zm7,-11h6v3h-6zm0,6h6v5h-6zm0,68h6v3h-6zm6,-68h6v2h-6zm0,5h6v5h-6zm0,8h6v2h-6zm0,58h6v2h-6zm6,-79h6v8h-6zm0,10h6v3h-6zm6,-16h7v6h-7zm0,11h7v3h-7zm0,82h7v2h-7zm7,-93h6v3h-6zm0,98h6v3h-6zm6,-98h6v3h-6zm0,6h6v2h-6zm6,-6h6v14h-6zm6,0h7v6h-7zm7,-2h6v8h-6zm6,2h6v6h-6zm6,0h6v3h-6zm0,6h6v5h-6zm0,79h6v2h-6zm6,-87h6v2h-6zm0,8h6v2h-6zm0,8h6v2h-6zm0,68h6v3h-6zm6,-76h7v2h-7zm7,-6h6v3h-6zm0,11h6v3h-6zm6,-11h6v11h-6zm0,66h6v3h-6zm6,-63h6v3h-6zm0,5h6v6h-6zm0,50h6v6h-6zm6,-52h7v2h-7zm0,5h7v3h-7zm0,42h7v3h-7zm7,-50h6v5h-6zm0,40h6v5h-6zm6,-40h6v5h-6zm0,11h6v2h-6zm0,15h6v6h-6zm6,-18h6v3h-6zm0,5h6v3h-6zm6,0h7v3h-7zm75,24h6v8h-6zm0,10h6v3h-6zm0,8h6v3h-6zm6,-39h6v2h-6zm0,8h6v8h-6zm0,37h6v2h-6zm0,5h6v3h-6zm6,-61h7v3h-7zm0,8h7v3h-7zm7,-10h6v5h-6zm0,15h6v3h-6zm6,-13h6v8h-6zm0,16h6v3h-6zm6,-18h6v5h-6zm0,8h6v7h-6zm0,13h6v2h-6zm0,66h6v2h-6zm6,-90h7v5h-7zm0,11h7v2h-7zm0,81h7v3h-7zm7,-92h6v5h-6zm0,8h6v3h-6zm0,84h6v3h-6zm6,-97h6v2h-6zm0,5h6v3h-6zm0,92h6v3h-6zm6,-92h6v8h-6zm0,90h6v2h-6zm6,-90h7v5h-7zm7,-3h6v6h-6zm6,3h6v3h-6zm0,79h6v3h-6zm6,-79h6v5h-6zm6,-3h6v8h-6zm6,3h7v5h-7zm0,61h7v2h-7zm7,-64h6v8h-6zm0,58h6v3h-6zm6,-55h6v3h-6zm0,40h6v7h-6zm6,-40h6v5h-6zm0,18h6v3h-6zm0,6h6v8h-6zm6,-21h7v15h-7zm0,18h7v3h-7zm7,-21h6v5h-6zm81,13h6v5h-6zm0,8h6v16h-6zm0,21h6v5h-6zm0,11h6v5h-6zm6,-50h6v13h-6zm0,18h6v3h-6zm0,42h6v6h-6zm6,-60h6v2h-6zm0,5h6v3h-6zm0,5h6v8h-6zm0,13h6v3h-6zm6,-15h7v10h-7zm7,-11h6v5h-6zm0,11h6v2h-6zm0,71h6v2h-6zm6,-87h6v2h-6zm0,5h6v3h-6z"
             id="path16" />
          <path
             fill="#0e8ed0"
             d="M0,370h6v8h-6zm6,0h6v10h-6zm6,2h7v3h-7zm0,6h7v2h-7zm0,7h7v3h-7zm0,11h7v3h-7zm7,-21h6v3h-6zm0,5h6v3h-6zm6,-10h6v5h-6zm6,2h6v6h-6zm0,82h6v3h-6zm6,-82h7v3h-7zm0,6h7v5h-7zm7,-6h6v6h-6zm6,-2h6v8h-6zm0,71h6v3h-6zm6,-71h6v5h-6zm6,2h7v6h-7zm0,58h7v3h-7zm7,-60h6v5h-6zm6,44h6v3h-6zm6,-47h6v3h-6zm6,5h6v6h-6zm0,8h6v8h-6zm0,11h6v2h-6zm94,0h6v18h-6zm0,39h6v3h-6zm6,-52h6v5h-6zm0,7h6v3h-6zm0,6h6v5h-6zm0,10h6v3h-6zm0,37h6v3h-6zm6,-55h6v13h-6zm0,66h6v2h-6zm6,-58h7v5h-7zm0,13h7v3h-7zm7,-26h6v15h-6zm6,-6h6v11h-6zm6,-2h6v5h-6zm6,2h7v3h-7zm0,87h7v3h-7zm7,-89h6v2h-6zm0,5h6v13h-6zm0,18h6v3h-6zm6,-21h6v8h-6zm6,-2h6v8h-6zm0,79h6v2h-6zm6,-77h6v8h-6zm0,69h6v3h-6zm6,-69h7v3h-7zm0,6h7v2h-7zm7,-3h6v8h-6zm0,55h6v6h-6zm6,-58h6v3h-6zm0,11h6v2h-6zm0,42h6v3h-6zm6,-55h6v8h-6zm0,42h6v5h-6zm6,-40h7v11h-7zm0,16h7v3h-7zm0,5h7v8h-7zm7,-18h6v3h-6zm0,5h6v3h-6zm6,0h6v3h-6zm81,13h6v3h-6zm0,21h6v6h-6zm6,-29h6v6h-6zm0,14h6v15h-6zm0,21h6v2h-6zm0,13h6v3h-6zm6,-50h6v2h-6zm0,5h6v5h-6zm0,8h6v3h-6zm0,5h6v6h-6zm0,8h6v5h-6zm6,-24h7v8h-7zm0,14h7v8h-7zm0,10h7v3h-7zm7,-24h6v8h-6zm0,11h6v5h-6zm0,53h6v2h-6zm6,-77h6v3h-6zm0,13h6v3h-6zm0,11h6v3h-6zm6,-24h6v3h-6zm0,29h6v3h-6zm6,-34h7v3h-7zm0,5h7v3h-7zm0,6h7v5h-7zm0,18h7v3h-7zm0,8h7v3h-7zm7,-32h6v8h-6zm0,19h6v2h-6zm6,-16h6v5h-6zm0,16h6v2h-6zm0,68h6v3h-6zm6,-92h6v8h-6zm6,3h7v2h-7zm0,84h7v3h-7zm7,-82h6v8h-6zm0,19h6v2h-6zm0,60h6v3h-6zm6,-76h6v3h-6zm0,5h6v5h-6zm0,66h6v3h-6zm6,-74h6v11h-6zm0,13h6v3h-6zm0,14h6v2h-6zm6,-27h6v6h-6zm0,27h6v5h-6zm6,-24h7v5h-7zm0,8h7v2h-7zm0,8h7v2h-7zm0,13h7v3h-7zm0,26h7v3h-7zm7,-55h6v10h-6zm0,13h6v3h-6zm0,5h6v3h-6zm6,-18h6v13h-6zm0,26h6v3h-6zm0,8h6v8h-6zm6,-31h6v2h-6zm0,5h6v2h-6zm0,5h6v3h-6zm0,13h6v6h-6zm6,-29h7v21h-7zm88,37h6v3h-6zm0,5h6v11h-6zm0,14h6v5h-6zm6,-37h6v2h-6zm0,8h6v2h-6zm0,8h6v2h-6zm0,31h6v3h-6zm6,-66h6v3h-6zm0,6h6v15h-6zm0,66h6v2h-6zm6,-72h7v3h-7zm0,6h7v2h-7zm0,5h7v5h-7zm7,-11h6v16h-6zm6,-2h6v2h-6zm0,8h6v10h-6zm0,79h6v2h-6zm6,-85h6v6h-6zm0,87h6v3h-6zm6,-89h6v2h-6zm6,-3h7v5h-7zm7,3h6v10h-6zm0,89h6v3h-6zm6,-89h6v8h-6zm6,0h6v5h-6zm6,0h7v2h-7zm0,5h7v3h-7zm0,74h7v2h-7zm7,-79h6v5h-6zm6,0h6v2h-6zm0,5h6v5h-6zm6,-5h6v10h-6zm6,0h7v5h-7zm0,60h7v3h-7zm7,-60h6v8h-6zm0,50h6v2h-6zm6,-45h6v3h-6zm0,32h6v5h-6zm6,-32h6v5h-6zm0,26h6v3h-6zm6,-29h6v3h-6zm0,8h6v5h-6zm0,8h6v3h-6zm6,-18h7v8h-7zm0,10h7v3h-7zm69,32h6v2h-6zm6,-21h6v5h-6zm0,10h6v8h-6zm0,11h6v5h-6zm0,18h6v3h-6zm6,-50h7v3h-7zm0,8h7v13h-7zm0,50h7v3h-7zm7,-53h6v6h-6zm0,8h6v3h-6zm0,8h6v3h-6zm6,-26h6v3h-6zm0,13h6v3h-6zm0,5h6v6h-6zm6,-15h6v2h-6zm0,5h6v10h-6zm6,-13h7v5h-7zm0,15h7v3h-7zm7,-15h6v8h-6zm6,-3h6v3h-6zm0,5h6v6h-6zm0,8h6v5h-6zm0,13h6v3h-6zm0,69h6v3h-6zm6,-82h6v3h-6zm0,82h6v3h-6zm6,-92h7v10h-7zm7,0h6v5h-6zm0,87h6v2h-6zm6,-87h6v5h-6zm6,5h6v5h-6zm6,-3h6v6h-6zm0,8h6v3h-6zm0,64h6v2h-6zm6,-77h7v3h-7zm0,5h7v8h-7zm7,-2h6v5h-6zm0,66h6v2h-6zm6,-61h6v8h-6zm0,13h6v3h-6zm0,40h6v2h-6zm6,-50h6v2h-6zm0,7h6v6h-6zm0,35h6v2h-6zm6,-48h7v3h-7zm0,6h7v2h-7zm0,5h7v5h-7zm0,10h7v3h-7zm0,21h7v3h-7zm7,-42h6v3h-6zm0,6h6v2h-6zm0,21h6v2h-6zm0,5h6v3h-6zm6,-29h6v3h-6zm0,5h6v13h-6zm93,19h6v15h-6zm0,18h6v5h-6zm0,13h6v3h-6zm6,-55h7v5h-7zm0,8h7v18h-7zm0,55h7v3h-7zm7,-60h6v5h-6zm0,10h6v3h-6zm0,8h6v3h-6zm0,13h6v3h-6zm0,37h6v3h-6zm6,-66h6v8h-6zm0,11h6v2h-6zm0,5h6v5h-6zm0,55h6v3h-6zm6,-76h6v3h-6zm0,13h6v3h-6zm0,5h6v3h-6zm6,-21h7v3h-7zm0,8h7v5h-7zm7,-8h6v3h-6zm0,11h6v2h-6zm6,-13h6v5h-6zm0,8h6v7h-6zm6,-3h6v3h-6zm0,5h6v3h-6zm6,-8h7v13h-7zm7,-2h6v8h-6zm6,0h6v5h-6zm0,74h6v2h-6zm6,-72h6v11h-6zm0,66h6v3h-6zm6,-66h6v6h-6zm0,8h6v3h-6zm0,53h6v3h-6zm6,-61h7v3h-7zm7,0h6v3h-6zm0,45h6v5h-6zm6,-47h6v2h-6zm0,5h6v3h-6zm0,26h6v6h-6zm6,-29h6v13h-6zm0,16h6v3h-6zm94,16h6v5h-6zm0,10h6v6h-6zm6,-29h6v3h-6zm0,6h6v13h-6zm0,16h6v2h-6zm6,-29h6v2h-6zm0,10h6v5h-6zm0,8h6v16h-6zm0,42h6v3h-6zm6,-50h7v16h-7zm0,56h7v2h-7zm7,-72h6v6h-6zm0,8h6v3h-6zm0,5h6v8h-6zm6,-21h6v3h-6zm0,6h6v2h-6zm0,5h6v5h-6zm0,76h6v3h-6z"
             id="path18" />
          <path
             fill="#089dcc"
             d="M0,378h6v13h-6zm0,21h6v2h-6zM6,380h6v19h-6zm0,21h6v3h-6zm6,-21h7v5h-7zm0,8h7v8h-7zm0,11h7v5h-7zm7,-21h6v2h-6zm0,7h6v11h-6zm0,74h6v3h-6zm6,-84h6v3h-6zm0,5h6v3h-6zm6,-2h6v7h-6zm6,-3h7v3h-7zm0,8h7v5h-7zm0,10h7v3h-7zm7,-15h6v5h-6zm6,0h6v7h-6zm6,-3h6v3h-6zm0,5h6v3h-6zm0,56h6v2h-6zm6,-58h7v7h-7zm0,50h7v2h-7zm7,-53h6v10h-6zm0,47h6v3h-6zm6,-50h6v3h-6zm0,6h6v2h-6zm0,31h6v5h-6zm6,-37h6v6h-6zm0,11h6v2h-6zm0,13h6v8h-6zm6,-18h6v2h-6zm94,31h6v11h-6zm0,13h6v8h-6zm6,-34h6v3h-6zm0,8h6v5h-6zm0,8h6v8h-6zm0,32h6v2h-6zm6,-40h6v5h-6zm0,11h6v2h-6zm6,-11h7v8h-7zm0,11h7v2h-7zm7,-14h6v8h-6zm6,-10h6v8h-6zm0,13h6v3h-6zm0,63h6v3h-6zm6,-84h6v13h-6zm6,0h7v8h-7zm0,10h7v6h-7zm7,3h6v5h-6zm0,11h6v5h-6zm6,-19h6v11h-6zm0,71h6v3h-6zm6,-73h6v2h-6zm0,5h6v5h-6zm6,0h6v5h-6zm6,-8h7v3h-7zm0,5h7v13h-7zm0,16h7v3h-7zm0,40h7v2h-7zm7,-53h6v16h-6zm6,-8h6v8h-6zm0,10h6v6h-6zm0,8h6v6h-6zm0,8h6v3h-6zm0,8h6v16h-6zm6,-31h6v5h-6zm0,10h6v3h-6zm0,5h6v3h-6zm0,6h6v13h-6zm6,-16h7v5h-7zm0,8h7v2h-7zm100,23h6v6h-6zm0,11h6v8h-6zm6,-18h6v2h-6zm0,7h6v3h-6zm0,6h6v2h-6zm0,18h6v3h-6zm6,-31h7v2h-7zm0,7h7v6h-7zm7,-34h6v5h-6zm0,13h6v3h-6zm0,8h6v3h-6zm6,-26h6v8h-6zm0,13h6v8h-6zm0,13h6v3h-6zm0,50h6v3h-6zm6,-76h6v3h-6zm0,8h6v5h-6zm0,13h6v3h-6zm6,-21h7v3h-7zm0,8h7v10h-7zm0,76h7v3h-7zm7,-79h6v11h-6zm0,13h6v11h-6zm6,-21h6v3h-6zm0,8h6v11h-6zm0,13h6v3h-6zm0,6h6v2h-6zm6,-24h6v5h-6zm0,10h6v6h-6zm0,72h6v2h-6zm6,-85h7v13h-7zm0,19h7v5h-7zm0,10h7v6h-7zm7,-21h6v11h-6zm0,16h6v5h-6zm0,8h6v3h-6zm6,-19h6v11h-6zm0,14h6v8h-6zm6,-16h6v2h-6zm0,5h6v3h-6zm0,5h6v6h-6zm0,8h6v6h-6zm6,-23h6v10h-6zm0,13h6v8h-6zm6,-19h7v3h-7zm0,8h7v3h-7zm0,5h7v6h-7zm0,8h7v11h-7zm0,14h7v5h-7zm7,-22h6v3h-6zm0,6h6v2h-6zm0,5h6v24h-6zm0,26h6v6h-6zm6,-34h6v13h-6zm0,16h6v5h-6zm6,-24h6v3h-6zm0,5h6v3h-6zm0,6h6v2h-6zm0,5h6v5h-6zm94,29h6v3h-6zm6,-24h6v6h-6zm0,8h6v5h-6zm0,11h6v2h-6zm6,-27h6v11h-6zm0,14h6v2h-6zm6,-32h7v3h-7zm0,5h7v3h-7zm0,8h7v8h-7zm0,58h7v3h-7zm7,-58h6v11h-6zm0,13h6v3h-6zm0,50h6v3h-6zm6,-63h6v11h-6zm0,13h6v3h-6zm6,-23h6v7h-6zm6,-3h6v10h-6zm0,13h6v5h-6zm6,-16h7v8h-7zm7,8h6v8h-6zm6,0h6v3h-6zm6,-5h6v5h-6zm13,0h6v8h-6zm0,69h6v2h-6zm6,-64h6v5h-6zm0,58h6v3h-6zm6,-58h6v3h-6zm0,5h6v3h-6zm0,51h6v2h-6zm6,-58h7v7h-7zm7,0h6v7h-6zm0,34h6v2h-6zm0,5h6v3h-6zm6,-39h6v7h-6zm0,26h6v3h-6zm6,-24h6v8h-6zm0,13h6v8h-6zm6,-18h6v5h-6zm0,10h6v3h-6zm81,24h6v3h-6zm0,8h6v3h-6zm0,11h6v2h-6zm6,-27h7v8h-7zm7,-18h6v2h-6zm0,8h6v2h-6zm0,8h6v2h-6zm0,5h6v5h-6zm0,40h6v2h-6zm6,-45h6v8h-6zm6,0h6v5h-6zm0,52h6v3h-6zm6,-73h7v7h-7zm7,0h6v7h-6zm0,81h6v3h-6zm6,-81h6v2h-6zm0,7h6v3h-6zm0,19h6v3h-6zm6,-26h6v2h-6zm0,5h6v18h-6zm6,-3h7v5h-7zm0,8h7v5h-7zm0,71h7v3h-7zm7,-84h6v8h-6zm0,13h6v3h-6zm6,-13h6v8h-6zm0,13h6v5h-6zm0,63h6v3h-6zm6,-71h6v8h-6zm6,3h6v13h-6zm0,16h6v2h-6zm6,-19h7v13h-7zm0,58h7v3h-7zm7,-60h6v10h-6zm0,13h6v2h-6zm6,-8h6v2h-6zm0,10h6v3h-6zm6,-13h6v5h-6zm0,11h6v5h-6zm0,8h6v8h-6zm0,10h6v11h-6zm6,-29h7v3h-7zm0,8h7v5h-7zm0,11h7v8h-7zm0,10h7v5h-7zm7,-34h6v3h-6zm0,5h6v11h-6zm0,13h6v6h-6zm0,8h6v3h-6zm99,13h6v3h-6zm0,8h6v6h-6zm6,-21h7v11h-7zm0,19h7v2h-7zm7,-37h6v2h-6zm0,8h6v5h-6zm0,8h6v2h-6zm0,15h6v3h-6zm0,30h6v2h-6zm6,-51h6v3h-6zm0,8h6v6h-6zm6,-16h6v3h-6zm0,11h6v8h-6zm0,13h6v3h-6zm0,45h6v3h-6zm6,-79h7v3h-7zm0,10h7v16h-7zm7,-7h6v5h-6zm0,7h6v3h-6zm6,-10h6v3h-6zm6,3h6v2h-6zm0,5h6v5h-6zm0,8h6v2h-6zm0,5h6v3h-6zm6,-11h7v11h-7zm7,-7h6v5h-6zm0,7h6v6h-6zm0,64h6v2h-6zm6,-74h6v3h-6zm0,5h6v3h-6zm6,5h6v3h-6zm6,-7h6v2h-6zm0,5h6v13h-6zm0,47h6v3h-6zm6,-55h7v10h-7zm0,13h7v3h-7zm0,37h7v3h-7zm7,-50h6v5h-6zm0,8h6v2h-6zm0,8h6v2h-6zm0,21h6v5h-6zm6,-40h6v3h-6zm0,6h6v10h-6zm0,13h6v10h-6zm106,13h6v3h-6zm0,5h6v13h-6zm0,16h6v5h-6zm6,-13h6v5h-6zm0,21h6v5h-6zm6,-29h7v5h-7zm0,8h7v2h-7zm7,-29h6v2h-6zm0,13h6v8h-6zm0,50h6v3h-6zm6,-74h6v3h-6zm0,8h6v3h-6zm0,8h6v3h-6zm0,5h6v6h-6zm0,8h6v3h-6z"
             id="path20" />
          <path
             fill="#0da7c2"
             d="M0,391h6v2h-6zm0,5h6v3h-6zm0,8h6v3h-6zm6,-5h6v2h-6zm0,5h6v5h-6zm6,0h7v3h-7zm0,55h7v3h-7zm7,-76h6v2h-6zm0,13h6v5h-6zm6,-18h6v2h-6zm0,5h6v18h-6zm0,74h6v2h-6zm6,-72h6v16h-6zm6,3h7v5h-7zm0,8h7v5h-7zm7,-13h6v2h-6zm0,5h6v8h-6zm0,11h6v2h-6zm0,45h6v2h-6zm6,-59h6v6h-6zm0,14h6v2h-6zm6,-21h6v2h-6zm0,5h6v2h-6zm0,16h6v2h-6zm6,-14h7v11h-7zm0,16h7v3h-7zm0,8h7v3h-7zm7,-24h6v11h-6zm0,14h6v2h-6zm0,18h6v5h-6zm6,-42h6v3h-6zm0,5h6v16h-6zm6,-2h6v5h-6zm0,7h6v11h-6zm100,35h6v2h-6zm6,-8h6v8h-6zm0,10h6v3h-6zm0,8h6v6h-6zm6,-29h6v6h-6zm0,8h6v11h-6zm0,32h6v8h-6zm6,-32h7v8h-7zm0,42h7v3h-7zm7,-50h6v11h-6zm0,56h6v2h-6zm6,-66h6v5h-6zm0,8h6v5h-6zm6,-3h6v3h-6zm0,63h6v3h-6zm6,-76h7v2h-7zm0,8h7v2h-7zm0,5h7v5h-7zm7,0h6v3h-6zm0,8h6v3h-6zm6,-13h6v2h-6zm0,5h6v8h-6zm6,-16h6v3h-6zm0,8h6v5h-6zm0,8h6v3h-6zm0,5h6v3h-6zm6,-21h6v3h-6zm0,8h6v8h-6zm0,11h6v5h-6zm6,-6h7v3h-7zm0,6h7v2h-7zm0,5h7v3h-7zm0,8h7v2h-7zm0,21h7v3h-7zm7,-34h6v13h-6zm0,29h6v2h-6zm6,-37h6v2h-6zm0,8h6v2h-6zm0,8h6v2h-6zm6,-24h6v5h-6zm0,8h6v2h-6zm0,5h6v3h-6zm106,26h6v3h-6zm6,-5h6v3h-6zm0,16h6v5h-6zm6,-21h7v2h-7zm0,8h7v2h-7zm0,21h7v5h-7zm7,-37h6v8h-6zm0,10h6v3h-6zm6,-31h6v2h-6zm0,16h6v2h-6zm0,5h6v5h-6zm0,8h6v5h-6zm6,-34h6v5h-6zm0,10h6v8h-6zm0,11h6v2h-6zm0,8h6v2h-6zm6,-14h7v3h-7zm0,6h7v5h-7zm0,8h7v2h-7zm7,-3h6v5h-6zm0,55h6v3h-6zm6,-63h6v3h-6zm0,5h6v6h-6zm6,-18h6v2h-6zm0,8h6v16h-6zm6,-6h7v6h-7zm0,11h7v5h-7zm7,-3h6v3h-6zm0,8h6v3h-6zm0,6h6v5h-6zm6,-11h6v3h-6zm0,11h6v5h-6zm6,-16h6v2h-6zm0,16h6v2h-6zm0,34h6v3h-6zm6,-53h6v3h-6zm0,16h6v10h-6zm0,32h6v2h-6zm6,-24h7v8h-7zm0,13h7v5h-7zm7,-5h6v2h-6zm12,-27h6v3h-6zm100,21h6v6h-6zm0,19h6v5h-6zm6,-29h6v3h-6zm0,5h6v3h-6zm0,32h6v3h-6zm6,-45h7v5h-7zm0,8h7v3h-7zm0,5h7v3h-7zm7,-10h6v2h-6zm0,5h6v10h-6zm6,-5h6v2h-6zm0,8h6v2h-6zm6,-22h6v11h-6zm0,14h6v2h-6zm6,-14h6v3h-6zm0,14h6v2h-6zm0,60h6v3h-6zm6,-79h7v13h-7zm0,16h7v3h-7zm0,63h7v3h-7zm7,-68h6v8h-6zm6,-13h6v2h-6zm0,5h6v8h-6zm0,18h6v3h-6zm6,-21h6v5h-6zm0,13h6v3h-6zm0,58h6v3h-6zm6,-79h7v3h-7zm0,6h7v10h-7zm7,5h6v8h-6zm0,13h6v3h-6zm6,-11h6v6h-6zm0,11h6v3h-6zm6,-13h6v2h-6zm0,5h6v5h-6zm6,-13h7v3h-7zm0,10h7v6h-7zm0,8h7v3h-7zm0,35h7v2h-7zm7,-43h6v8h-6zm0,16h6v3h-6zm6,-16h6v19h-6zm6,3h6v5h-6zm87,34h6v3h-6zm6,-13h7v8h-7zm0,27h7v2h-7zm7,-40h6v3h-6zm0,13h6v3h-6zm0,32h6v3h-6zm6,-34h6v7h-6zm0,39h6v3h-6zm6,-53h6v6h-6zm0,11h6v8h-6zm6,-16h7v13h-7zm0,66h7v3h-7zm7,-69h6v8h-6zm6,3h6v5h-6zm0,8h6v8h-6zm0,11h6v2h-6zm6,-6h6v3h-6zm6,-16h7v3h-7zm0,8h7v11h-7zm7,-10h6v5h-6zm0,8h6v5h-6zm6,-8h6v5h-6zm0,10h6v3h-6zm0,8h6v3h-6zm0,48h6v2h-6zm6,-61h6v13h-6zm0,16h6v3h-6zm0,42h6v3h-6zm6,-50h6v3h-6zm0,5h6v3h-6zm0,8h6v3h-6zm6,-16h7v3h-7zm0,6h7v5h-7zm7,-11h6v3h-6zm0,5h6v8h-6zm0,11h6v3h-6zm0,29h6v3h-6zm6,-48h6v3h-6zm0,6h6v2h-6zm0,5h6v8h-6zm0,16h6v2h-6zm0,13h6v3h-6zm6,-29h6v3h-6zm0,11h6v2h-6zm6,-11h7v3h-7zm7,-5h6v2h-6zm105,23h7v3h-7zm0,14h7v2h-7zm0,8h7v2h-7zm7,-35h6v8h-6zm0,11h6v2h-6zm0,5h6v3h-6zm0,24h6v3h-6zm6,-34h6v10h-6zm0,42h6v2h-6zm6,-45h6v5h-6zm0,8h6v2h-6zm6,-11h7v3h-7zm0,56h7v2h-7zm7,-69h6v11h-6zm0,69h6v2h-6zm6,-72h6v11h-6zm0,14h6v2h-6zm0,58h6v2h-6zm6,-69h6v3h-6zm0,5h6v3h-6zm0,6h6v5h-6zm0,55h6v3h-6zm6,-58h7v5h-7zm0,8h7v3h-7zm0,47h7v3h-7zm7,-68h6v2h-6zm0,8h6v8h-6zm6,-13h6v2h-6zm0,5h6v8h-6zm0,13h6v5h-6zm0,45h6v3h-6zm6,-58h6v2h-6zm0,5h6v13h-6zm6,8h6v8h-6zm0,18h6v3h-6zm0,6h6v2h-6zm0,8h6v2h-6zm6,-43h7v3h-7zm0,8h7v3h-7zm0,6h7v2h-7zm0,5h7v3h-7zm0,5h7v8h-7zm0,11h7v5h-7zm7,-40h6v3h-6zm0,5h6v6h-6zm0,8h6v6h-6zm0,8h6v11h-6zm6,-13h6v3h-6zm106,34h6v3h-6zm6,-5h6v3h-6zm0,5h6v6h-6zm0,8h6v3h-6zm6,-21h7v3h-7zm0,5h7v11h-7zm0,27h7v3h-7zm7,-48h6v3h-6zm0,14h6v2h-6zm6,-24h6v5h-6zm0,8h6v2h-6zm0,13h6v5h-6z"
             id="path22" />
          <path
             fill="#1dafb3"
             d="M0,393h6v3h-6zm0,8h6v3h-6zm0,6h6v7h-6zm0,47h6v3h-6zM6,409h6v5h-6zm6,-2h7v7h-7zm7,-6h6v11h-6zm6,0h6v3h-6zm6,3h6v3h-6zm6,-3h7v6h-7zm0,8h7v3h-7zm0,40h7v2h-7zm7,-64h6v3h-6zm0,11h6v3h-6zm0,5h6v3h-6zm6,-8h6v6h-6zm0,45h6v3h-6zm6,-53h6v8h-6zm0,11h6v3h-6zm0,11h6v2h-6zm0,26h6v3h-6zm6,-37h7v5h-7zm0,11h7v2h-7zm0,7h7v6h-7zm0,8h7v6h-7zm7,-26h6v3h-6zm0,5h6v3h-6zm0,11h6v5h-6zm6,-13h6v10h-6zm112,21h6v2h-6zm0,5h6v3h-6zm6,-5h6v8h-6zm0,18h6v3h-6zm6,-21h7v5h-7zm0,32h7v2h-7zm7,-37h6v8h-6zm6,-8h6v8h-6zm6,-16h6v8h-6zm0,11h6v5h-6zm0,8h6v5h-6zm6,-14h7v3h-7zm0,8h7v8h-7zm0,11h7v2h-7zm0,45h7v2h-7zm7,-48h6v5h-6zm0,8h6v3h-6zm0,37h6v3h-6zm6,-61h6v3h-6zm0,11h6v8h-6zm6,-5h6v2h-6zm0,5h6v3h-6zm0,42h6v3h-6zm6,-50h6v3h-6zm0,11h6v5h-6zm0,31h6v3h-6zm6,-37h7v3h-7zm0,6h7v5h-7zm0,7h7v6h-7zm0,16h7v3h-7zm7,-18h6v16h-6zm6,-8h6v3h-6zm118,18h6v11h-6zm13,-10h6v2h-6zm0,5h6v5h-6zm0,27h6v5h-6zm6,-35h6v3h-6zm6,-5h6v3h-6zm0,5h6v3h-6zm0,5h6v3h-6zm0,40h6v3h-6zm6,-45h7v11h-7zm7,0h6v5h-6zm6,-2h6v5h-6zm6,-27h6v3h-6zm0,27h6v7h-6zm6,0h7v5h-7zm0,7h7v3h-7zm7,-2h6v8h-6zm0,37h6v2h-6zm6,-5h6v2h-6zm6,-35h6v8h-6zm6,5h6v3h-6zm6,6h7v5h-7zm119,2h6v3h-6zm0,6h6v5h-6zm6,-16h6v8h-6zm6,-11h7v3h-7zm0,6h7v2h-7zm0,5h7v2h-7zm0,32h7v2h-7zm7,-27h6v8h-6zm0,32h6v2h-6zm6,-45h6v3h-6zm0,5h6v5h-6zm0,45h6v3h-6zm6,-58h6v3h-6zm0,5h6v3h-6zm6,-8h6v6h-6zm0,8h6v3h-6zm0,6h6v2h-6zm6,-14h7v3h-7zm0,8h7v3h-7zm7,-13h6v3h-6zm0,11h6v5h-6zm0,58h6v2h-6zm6,-66h6v10h-6zm0,13h6v3h-6zm0,5h6v3h-6zm6,-24h6v6h-6zm0,14h6v5h-6zm6,-11h7v8h-7zm0,13h7v3h-7zm7,-10h6v5h-6zm0,8h6v5h-6zm0,10h6v3h-6zm6,-18h6v5h-6zm0,8h6v10h-6zm0,15h6v3h-6zm6,-21h6v14h-6zm0,19h6v2h-6zm6,-21h7v2h-7zm0,5h7v5h-7zm0,8h7v5h-7zm0,13h7v3h-7zm0,8h7v3h-7zm7,-32h6v8h-6zm0,14h6v5h-6zm0,7h6v3h-6zm99,6h6v2h-6zm0,5h6v3h-6zm6,-8h7v3h-7zm0,16h7v3h-7zm7,-21h6v8h-6zm0,26h6v3h-6zm6,-24h6v6h-6zm6,-2h6v2h-6zm0,37h6v2h-6zm6,-48h7v3h-7zm7,-8h6v11h-6zm6,66h6v3h-6zm6,-55h6v8h-6zm0,55h6v3h-6zm6,-2h7v2h-7zm7,-61h6v11h-6zm0,58h6v3h-6zm6,-58h6v5h-6zm0,8h6v8h-6zm6,-3h6v3h-6zm0,6h6v7h-6zm6,-3h6v5h-6zm0,37h6v3h-6zm6,-45h7v3h-7zm0,8h7v8h-7zm0,32h7v2h-7zm7,-29h6v2h-6zm0,5h6v2h-6zm0,5h6v3h-6zm6,-10h6v5h-6zm0,7h6v6h-6zm0,8h6v3h-6zm12,-15h7v2h-7zm112,5h7v2h-7zm0,5h7v3h-7zm0,5h7v6h-7zm0,8h7v6h-7zm7,-8h6v3h-6zm0,16h6v3h-6zm6,-21h6v8h-6zm6,-3h6v8h-6zm0,37h6v3h-6zm6,-47h7v8h-7zm7,-5h6v13h-6zm6,-3h6v3h-6zm0,5h6v6h-6zm0,11h6v2h-6zm0,42h6v3h-6zm6,-50h6v3h-6zm0,5h6v5h-6zm6,-8h7v3h-7zm0,8h7v3h-7zm7,-10h6v5h-6zm0,8h6v2h-6zm6,-16h6v5h-6zm0,10h6v6h-6zm6,0h6v8h-6zm0,32h6v5h-6zm6,-26h6v7h-6zm0,10h6v3h-6zm0,8h6v3h-6zm6,-34h7v2h-7zm0,5h7v3h-7zm0,5h7v3h-7zm0,6h7v2h-7zm0,10h7v3h-7zm7,-18h6v2h-6zm118,21h6v2h-6zm6,18h7v3h-7zm7,-34h6v3h-6zm0,5h6v5h-6zm0,35h6v2h-6zm6,-45h6v2h-6z"
             id="path24" />
          <path
             fill="#2db7a3"
             d="M0,451h6v3h-6zM6,414h6v6h-6zm0,43h6v2h-6zm6,-40h7v3h-7zm7,-3h6v3h-6zm6,-10h6v5h-6zm0,8h6v2h-6zm6,-11h6v3h-6zm0,6h6v7h-6zm0,44h6v3h-6zm6,-44h7v2h-7zm0,5h7v5h-7zm7,-8h6v3h-6zm6,-13h6v2h-6zm0,10h6v3h-6zm0,6h6v2h-6zm6,-14h6v3h-6zm0,8h6v3h-6zm6,3h7v3h-7zm0,8h7v2h-7zm0,8h7v2h-7zm7,-16h6v8h-6zm6,-8h6v3h-6zm112,32h6v2h-6zm6,2h6v3h-6zm0,6h6v2h-6zm6,-14h7v6h-7zm7,32h6v3h-6zm12,-50h6v3h-6zm6,5h7v3h-7zm0,5h7v3h-7zm7,-7h6v2h-6zm6,5h6v2h-6zm6,-19h6v3h-6zm0,14h6v5h-6zm0,37h6v2h-6zm6,-40h6v3h-6zm0,8h6v2h-6zm6,8h7v8h-7zm137,2h7v8h-7zm0,11h7v3h-7zm0,5h7v3h-7zm13,-21h6v3h-6zm6,-5h6v2h-6zm13,2h6v6h-6zm6,-2h6v5h-6zm0,45h6v2h-6zm6,-40h6v3h-6zm0,37h6v3h-6zm6,-42h7v2h-7zm0,39h7v3h-7zm7,-31h6v2h-6zm6,-8h6v8h-6zm6,5h6v3h-6zm0,21h6v3h-6zm6,-21h6v3h-6zm0,13h6v6h-6zm125,-5h6v3h-6zm6,-5h6v5h-6zm0,18h6v3h-6zm6,-24h7v8h-7zm0,27h7v3h-7zm7,-27h6v3h-6zm12,-10h6v13h-6zm0,53h6v2h-6zm6,-53h6v3h-6zm0,5h6v5h-6zm6,-10h7v2h-7zm0,5h7v5h-7zm7,0h6v5h-6zm0,8h6v2h-6zm6,-5h6v2h-6zm0,5h6v2h-6zm6,-21h6v2h-6zm0,5h6v3h-6zm0,8h6v3h-6zm6,-8h7v5h-7zm0,8h7v3h-7zm0,42h7v3h-7zm7,-42h6v5h-6zm0,8h6v2h-6zm0,5h6v3h-6zm0,24h6v3h-6zm6,-32h6v5h-6zm0,8h6v3h-6zm0,19h6v2h-6zm6,-27h6v3h-6zm0,24h6v3h-6zm6,-32h7v3h-7zm0,8h7v8h-7zm0,11h7v5h-7zm7,-16h6v3h-6zm105,16h7v13h-7zm7,0h6v5h-6zm0,16h6v2h-6zm6,5h6v3h-6zm6,-27h6v3h-6zm0,6h6v2h-6zm6,-16h7v8h-7zm0,47h7v3h-7zm7,-47h6v8h-6zm0,53h6v2h-6zm6,-48h6v8h-6zm6,3h6v2h-6zm6,-8h7v13h-7zm7,3h6v5h-6zm6,5h6v5h-6zm6,2h6v3h-6zm0,6h6v2h-6zm0,24h6v2h-6zm6,-32h6v5h-6zm0,26h6v3h-6zm6,-26h7v5h-7zm7,-11h6v3h-6zm0,8h6v3h-6zm0,5h6v3h-6zm0,16h6v3h-6zm6,-26h6v3h-6zm0,16h6v2h-6zm131,0h6v2h-6zm0,5h6v3h-6zm0,11h6v2h-6zm6,-11h6v3h-6zm0,5h6v3h-6zm0,14h6v5h-6zm6,-22h6v3h-6zm6,-5h7v3h-7zm0,37h7v3h-7zm7,-42h6v2h-6zm0,42h6v3h-6zm6,-47h6v5h-6zm0,10h6v3h-6zm6,-10h6v2h-6zm0,7h6v3h-6zm6,-7h7v2h-7zm0,5h7v2h-7zm7,-8h6v3h-6zm0,5h6v3h-6zm0,37h6v3h-6zm6,-37h6v5h-6zm6,3h6v8h-6zm0,16h6v5h-6zm6,-24h6v3h-6zm0,18h6v3h-6zm131,6h6v2h-6zm6,-3h7v5h-7zm0,8h7v5h-7zm7,-19h6v6h-6zm0,27h6v3h-6zm6,-32h6v8h-6zm0,40h6v2h-6z"
             id="path26" />
          <path
             fill="#52ba91"
             d="M0,414h6v8h-6zm12,0h7v3h-7zm7,-2h6v2h-6zm6,-3h6v3h-6zm0,5h6v3h-6zm19,-7h6v5h-6zm0,7h6v3h-6zm6,-10h6v3h-6zm0,5h6v3h-6zm6,-5h6v3h-6zm0,5h6v5h-6zm0,21h6v3h-6zm137,-2h6v2h-6zm0,5h6v3h-6zm6,-5h7v8h-7zm0,16h7v5h-7zm7,-24h6v2h-6zm0,31h6v3h-6zm6,-39h6v8h-6zm0,45h6v2h-6zm6,-45h6v2h-6zm0,8h6v2h-6zm13,-6h6v3h-6zm6,0h6v3h-6zm0,35h6v2h-6zm6,-37h6v5h-6zm6,2h6v6h-6zm0,22h6v2h-6zm6,-8h7v2h-7zm137,2h7v3h-7zm0,6h7v2h-7zm7,-14h6v3h-6zm6,-2h6v2h-6zm0,29h6v2h-6zm6,-32h6v3h-6zm0,34h6v3h-6zm6,-31h7v2h-7zm0,37h7v2h-7zm7,-37h6v2h-6zm12,-6h6v3h-6zm6,3h7v3h-7zm7,27h6v5h-6zm6,-24h6v5h-6zm6,0h6v5h-6zm6,0h6v5h-6zm131,5h6v3h-6zm0,8h6v5h-6zm6,-8h7v3h-7zm7,0h6v3h-6zm6,-11h6v8h-6zm6,3h6v3h-6zm12,-8h7v8h-7zm7,0h6v3h-6zm0,5h6v6h-6zm6,0h6v3h-6zm0,40h6v3h-6zm6,-47h6v5h-6zm0,10h6v3h-6zm6,-10h7v7h-7zm7,7h6v3h-6zm0,6h6v2h-6zm6,0h6v8h-6zm6,-13h6v2h-6zm0,7h6v3h-6zm0,6h6v5h-6zm0,8h6v5h-6zm125,-3h6v8h-6zm6,-5h6v10h-6zm0,16h6v2h-6zm0,8h6v2h-6zm6,-27h6v3h-6zm0,29h6v3h-6zm6,-34h7v8h-7zm7,0h6v5h-6zm6,5h6v3h-6zm6,-3h6v3h-6zm13,-2h6v8h-6zm0,39h6v3h-6zm12,-34h6v3h-6zm0,5h6v6h-6zm6,-5h6v5h-6zm6,0h7v3h-7zm0,16h7v3h-7zm7,-13h6v10h-6zm137,8h6v8h-6zm6,0h6v2h-6zm0,5h6v3h-6zm0,8h6v3h-6zm6,-16h6v5h-6zm6,-13h7v5h-7zm7,2h6v3h-6zm0,6h6v2h-6zm6,-6h6v3h-6zm0,6h6v2h-6zm6,-3h6v5h-6zm6,-3h7v3h-7zm7,-2h6v2h-6zm6,-5h6v2h-6zm0,31h6v3h-6zm6,-29h6v3h-6zm0,11h6v2h-6zm0,5h6v3h-6zm143,5h7v3h-7zm7,-8h6v3h-6z"
             id="path28" />
          <path
             fill="#73bd80"
             d="M6,420h6v5h-6zm0,34h6v3h-6zm6,-34h7v2h-7zm0,37h7v2h-7zm7,-40h6v3h-6zm6,37h6v3h-6zm6,-40h6v6h-6zm6,3h7v5h-7zm0,29h7v3h-7zm7,-34h6v2h-6zm6,0h6v2h-6zm0,5h6v3h-6zm0,19h6v2h-6zm6,-22h6v8h-6zm0,14h6v2h-6zm143,8h7v8h-7zm7,-14h6v3h-6zm6,-2h6v5h-6zm6,-6h6v3h-6zm0,43h6v2h-6zm6,-40h7v8h-7zm0,37h7v3h-7zm7,-34h6v5h-6zm0,31h6v3h-6zm6,-31h6v2h-6zm6,-3h6v3h-6zm6,3h6v8h-6zm150,5h6v3h-6zm0,16h6v3h-6zm6,-19h6v6h-6zm0,24h6v3h-6zm6,-26h6v5h-6zm6,2h7v3h-7zm0,29h7v6h-7zm7,6h6v2h-6zm6,-40h6v5h-6zm12,3h7v2h-7zm7,2h6v3h-6zm6,14h6v2h-6zm0,5h6v3h-6zm6,-5h6v2h-6zm6,-11h6v3h-6zm131,3h6v5h-6zm6,-6h7v3h-7zm0,14h7v2h-7zm7,-6h6v3h-6zm0,11h6v3h-6zm0,5h6v3h-6zm6,-24h6v3h-6zm0,29h6v3h-6zm6,-31h6v5h-6zm6,-6h6v3h-6zm0,6h6v2h-6zm0,37h6v2h-6zm6,0h7v2h-7zm7,-35h6v3h-6zm6,-5h6v5h-6zm6,-5h6v5h-6zm0,37h6v2h-6zm6,-35h7v3h-7zm0,6h7v2h-7zm0,24h7v2h-7zm7,-22h6v3h-6zm0,14h6v2h-6zm6,-8h6v8h-6zm6,-11h6v3h-6zm0,8h6v3h-6zm125,8h6v3h-6zm6,5h6v3h-6zm6,6h6v2h-6zm6,-24h7v2h-7zm0,29h7v2h-7zm7,-32h6v3h-6zm0,34h6v6h-6zm6,-31h6v5h-6zm0,37h6v2h-6zm6,-40h6v8h-6zm0,40h6v2h-6zm6,-40h7v5h-7zm0,37h7v3h-7zm13,-37h6v5h-6zm0,29h6v3h-6zm6,-18h6v2h-6zm12,-8h7v2h-7zm0,10h7v3h-7zm150,6h6v5h-6zm6,-6h6v6h-6zm0,19h6v2h-6zm6,-29h7v10h-7zm0,31h7v3h-7zm7,-34h6v3h-6zm0,34h6v3h-6zm6,-29h6v3h-6zm0,29h6v3h-6zm6,-26h6v3h-6zm0,26h6v3h-6zm6,-34h7v5h-7zm0,32h7v2h-7zm7,-35h6v6h-6zm6,0h6v6h-6zm0,8h6v3h-6zm6,0h6v3h-6zm150,-2h6v2h-6zm0,5h6v3h-6zm0,11h6v5h-6zm6,-19h6v8h-6zm0,29h6v3h-6z"
             id="path30" />
          <path
             fill="#94be71"
             d="M0,422h6v3h-6zm0,27h6v2h-6zM6,425h6v3h-6zm6,-3h7v3h-7zm7,35h6v2h-6zm6,-40h6v3h-6zm6,3h6v2h-6zm6,2h7v3h-7zm7,-5h6v5h-6zm0,24h6v3h-6zm6,-27h6v3h-6zm6,8h6v6h-6zm150,3h6v3h-6zm0,5h6v6h-6zm0,19h6v2h-6zm6,5h6v3h-6zm6,-37h6v3h-6zm6,8h7v3h-7zm7,0h6v3h-6zm6,-8h6v3h-6zm0,29h6v3h-6zm6,-26h6v5h-6zm0,21h6v3h-6zm6,-13h6v2h-6zm0,5h6v3h-6zm150,-5h6v2h-6zm0,5h6v8h-6zm6,11h6v2h-6zm6,5h6v2h-6zm6,-24h7v3h-7zm7,0h6v3h-6zm0,29h6v3h-6zm6,0h6v3h-6zm6,-34h6v2h-6zm6,5h7v3h-7zm0,24h7v2h-7zm7,-24h6v8h-6zm0,11h6v8h-6zm6,-11h6v3h-6zm0,13h6v3h-6zm6,-13h6v11h-6zm6,3h6v2h-6zm137,0h7v5h-7zm0,10h7v3h-7zm7,-10h6v2h-6zm0,5h6v8h-6zm0,11h6v2h-6zm6,-19h6v3h-6zm6,29h6v3h-6zm6,-37h6v3h-6zm0,5h6v3h-6zm6,-5h7v5h-7zm7,3h6v2h-6zm0,8h6v2h-6zm0,26h6v3h-6zm6,-3h6v3h-6zm6,-31h6v2h-6zm6,-3h7v3h-7zm0,5h7v3h-7zm7,6h6v2h-6zm0,5h6v3h-6zm0,5h6v3h-6zm143,-8h6v6h-6zm6,-8h6v6h-6zm13,-2h6v2h-6zm6,34h6v3h-6zm12,-3h7v3h-7zm7,-2h6v2h-6zm12,-19h6v6h-6zm0,8h6v6h-6zm6,-13h6v5h-6zm0,8h6v5h-6zm6,-11h7v8h-7zm156,16h6v6h-6zm0,8h6v3h-6zm6,-16h7v3h-7zm7,-8h6v3h-6zm0,27h6v2h-6zm6,-24h6v5h-6zm6,3h6v2h-6zm6,-6h7v3h-7zm7,-2h6v2h-6zm0,24h6v2h-6zm6,-24h6v2h-6zm0,10h6v3h-6zm156,-2h6v8h-6zm6,-3h6v3h-6zm0,5h6v3h-6zm0,8h6v8h-6z"
             id="path32" />
          <path
             fill="#b2bc65"
             d="M0,425h6v3h-6zm0,5h6v3h-6zm0,16h6v3h-6zM6,428h6v5h-6zm0,10h6v3h-6zM19,420h6v2h-6zm6,0h6v2h-6zm6,2h6v6h-6zm0,27h6v2h-6zm6,-24h7v3h-7zm13,-3h6v3h-6zm0,11h6v3h-6zm156,-5h6v2h-6zm0,10h6v11h-6zm6,-13h6v5h-6zm0,26h6v3h-6zm6,-29h6v3h-6zm0,6h6v2h-6zm0,26h6v3h-6zm6,-26h7v2h-7zm7,0h6v2h-6zm0,18h6v5h-6zm6,-24h6v3h-6zm6,3h6v3h-6zm0,13h6v3h-6zm6,-8h6v3h-6zm156,-2h6v2h-6zm0,10h6v6h-6zm6,8h6v3h-6zm6,-18h7v2h-7zm0,16h7v7h-7zm7,-22h6v3h-6zm6,0h6v6h-6zm0,29h6v3h-6zm6,-29h6v3h-6zm0,27h6v5h-6zm6,-27h7v3h-7zm0,8h7v3h-7zm0,11h7v8h-7zm13,-11h6v6h-6zm149,3h7v3h-7zm13,-5h6v2h-6zm6,-3h6v5h-6zm6,0h6v5h-6zm6,-3h7v6h-7zm7,3h6v3h-6zm0,8h6v3h-6zm6,-11h6v6h-6zm12,19h7v3h-7zm7,-16h6v3h-6zm0,5h6v3h-6zm149,-2h6v5h-6zm0,13h6v3h-6zm6,-19h7v3h-7zm0,24h7v3h-7zm7,-24h6v6h-6zm6,8h6v3h-6zm6,21h6v6h-6zm6,-29h7v3h-7zm7,-2h6v5h-6zm6,2h6v3h-6zm6,14h6v2h-6zm6,-14h6v3h-6zm162,14h6v2h-6zm0,8h6v2h-6zm6,-11h7v3h-7zm0,13h7v5h-7zm7,-21h6v5h-6zm6,24h6v2h-6zm6,-27h6v3h-6zm0,8h6v3h-6zm6,-5h7v3h-7zm7,3h6v2h-6zm0,13h6v3h-6zm6,-16h6v5h-6zm0,8h6v5h-6z"
             id="path34" />
          <path
             fill="#d0ba59"
             d="M0,428h6v2h-6zm0,5h6v5h-6zm0,8h6v5h-6zm6,-8h6v3h-6zm0,18h6v3h-6zm6,-26h7v3h-7zm0,29h7v3h-7zm7,-32h6v6h-6zm6,0h6v3h-6zm12,19h7v5h-7zm7,-16h6v3h-6zm0,11h6v5h-6zm6,-16h6v2h-6zm0,5h6v3h-6zm0,5h6v3h-6zm156,6h6v2h-6zm6,-6h6v6h-6zm6,-5h6v3h-6zm0,5h6v3h-6zm0,16h6v3h-6zm0,5h6v3h-6zm6,-21h7v3h-7zm0,6h7v2h-7zm0,15h7v3h-7zm7,-21h6v6h-6zm0,14h6v2h-6zm6,-19h6v3h-6zm0,5h6v6h-6zm0,14h6v2h-6zm6,-16h6v2h-6zm0,8h6v2h-6zm156,-6h6v3h-6zm6,0h6v8h-6zm6,-5h6v11h-6zm0,16h6v5h-6zm6,-8h7v5h-7zm7,-5h6v2h-6zm0,13h6v3h-6zm0,5h6v8h-6zm6,-18h6v5h-6zm0,18h6v5h-6zm6,-8h6v8h-6zm6,-10h7v2h-7zm0,8h7v5h-7zm7,-3h6v3h-6zm6,-5h6v2h-6zm162,2h6v21h-6zm6,0h6v3h-6zm12,-2h7v2h-7zm13,0h6v2h-6zm6,-6h6v6h-6zm0,24h6v3h-6zm6,-21h7v3h-7zm0,5h7v3h-7zm0,6h7v2h-7zm156,-3h6v5h-6zm6,-8h7v3h-7zm0,19h7v2h-7zm7,5h6v2h-6zm6,-24h6v5h-6zm0,26h6v3h-6zm6,-26h6v5h-6zm0,24h6v2h-6zm13,-21h6v2h-6zm6,-3h6v3h-6zm0,8h6v3h-6zm0,8h6v5h-6zm12,-11h6v3h-6zm168,8h7v8h-7zm7,-8h6v8h-6zm6,0h6v6h-6zm0,16h6v3h-6zm6,-13h6v3h-6zm0,16h6v2h-6zm6,-21h7v2h-7zm0,18h7v3h-7zm7,-21h6v3h-6zm0,5h6v3h-6zm168,-2h6v2h-6zm0,5h6v5h-6z"
             id="path36" />
          <path
             fill="#e1bf4a"
             d="M0,438h6v3h-6zm6,-2h6v2h-6zm6,-8h7v5h-7zm0,23h7v3h-7zm7,3h6v3h-6zM31,428h6v5h-6zm6,0h7v2h-7zm0,10h7v3h-7zm7,-16h6v3h-6zm0,6h6v2h-6zm0,5h6v3h-6zm6,-5h6v2h-6zm162,13h6v8h-6zm6,-8h6v5h-6zm6,0h7v3h-7zm0,5h7v3h-7zm0,8h7v3h-7zm7,-10h6v2h-6zm6,-8h6v2h-6zm0,13h6v3h-6zm6,-11h6v6h-6zm168,6h6v5h-6zm6,-6h7v3h-7zm0,8h7v6h-7zm7,-8h6v3h-6zm0,14h6v2h-6zm6,-3h6v3h-6zm6,-16h6v8h-6zm0,11h6v2h-6zm0,10h6v3h-6zm6,-13h7v3h-7zm181,0h6v8h-6zm0,16h6v5h-6zm6,-19h6v8h-6zm0,24h6v3h-6zm6,0h7v3h-7zm7,-24h6v3h-6zm0,6h6v5h-6zm0,15h6v3h-6zm6,-18h6v3h-6zm0,16h6v2h-6zm6,-21h6v2h-6zm0,16h6v2h-6zm6,-11h7v3h-7zm0,5h7v3h-7zm156,0h6v3h-6zm6,3h7v3h-7zm7,-13h6v2h-6zm6,21h6v2h-6zm6,-19h6v6h-6zm6,-5h7v5h-7zm0,24h7v2h-7zm7,-24h6v3h-6zm0,5h6v3h-6zm0,16h6v3h-6zm6,-18h6v2h-6zm0,8h6v2h-6zm187,5h6v3h-6zm6,0h6v3h-6zm12,-11h7v3h-7zm0,14h7v2h-7zm7,-22h6v3h-6zm0,11h6v8h-6z"
             id="path38" />
          <path
             fill="#f4c53a"
             d="M6,441h6v8h-6zm6,3h7v2h-7zm7,-16h6v2h-6zm0,23h6v3h-6zm6,-26h6v5h-6zm0,26h6v3h-6zm6,-18h6v3h-6zm0,5h6v3h-6zm0,6h6v2h-6zm6,-8h7v2h-7zm7,-6h6v3h-6zm168,6h6v5h-6zm0,13h6v2h-6zm6,-8h6v5h-6zm0,8h6v2h-6zm6,-8h7v5h-7zm0,8h7v2h-7zm7,-11h6v6h-6zm6,-2h6v5h-6zm187,-3h6v8h-6zm6,3h6v5h-6zm0,8h6v2h-6zm193,0h6v2h-6zm6,-3h6v3h-6zm0,10h6v3h-6zm6,-21h7v8h-7zm0,14h7v2h-7zm13,-14h6v3h-6zm0,6h6v2h-6zm0,8h6v5h-6zm6,-11h6v11h-6zm6,-5h7v2h-7zm162,0h7v10h-7zm7,16h6v5h-6zm6,-11h6v3h-6zm0,5h6v6h-6zm12,-5h7v3h-7zm0,8h7v8h-7zm7,0h6v3h-6zm6,-11h6v3h-6zm0,8h6v3h-6zm180,-2h7v2h-7zm7,2h6v3h-6zm0,6h6v5h-6zm6,-6h6v3h-6zm6,-2h6v2h-6zm0,8h6v5h-6zm6,-11h7v3h-7zm0,5h7v6h-7z"
             id="path40" />
          <path
             fill="#fcd12b"
             d="M6,449h6v2h-6zm6,-16h7v8h-7zm0,13h7v5h-7zm7,-16h6v6h-6zm0,14h6v2h-6zm6,-14h6v6h-6zm0,8h6v3h-6zm6,-2h6v2h-6zm0,10h6v3h-6zm6,-16h7v6h-7zm181,8h6v3h-6zm212,-5h6v3h-6zm6,0h6v3h-6zm187,8h6v3h-6zm6,-3h6v3h-6zm0,6h6v5h-6zm6,-6h7v3h-7zm7,3h6v3h-6zm0,8h6v2h-6zm6,-8h6v3h-6zm6,-11h6v3h-6zm168,8h7v3h-7zm7,-8h6v14h-6zm6,6h6v2h-6zm0,8h6v2h-6zm6,-8h6v2h-6zm0,5h6v3h-6zm13,-8h6v5h-6zm0,11h6v2h-6zm199,-8h6v2h-6zm0,8h6v2h-6zm6,-6h6v6h-6z"
             id="path42" />
          <path
             fill="#fae61c"
             d="M12,441h7v3h-7zm7,-5h6v5h-6zm0,10h6v5h-6zm6,-10h6v2h-6zm0,13h6v2h-6zm6,-8h6v3h-6zm592,5h6v3h-6zm6,3h6v2h-6zm6,-8h7v3h-7zm0,5h7v8h-7zm7,-2h6v5h-6zm193,2h6v3h-6zm6,-8h6v3h-6zm0,6h6v5h-6zm6,-14h7v3h-7zm0,6h7v2h-7zm7,2h6v3h-6zm211,-2h7v2h-7z"
             id="path44" />
          <path
             fill="#f9f90e"
             d="M19,441h6v3h-6zm6,0h6v8h-6zm623,-3h6v3h-6zm199,0h7v3h-7z"
             id="path46" />
        </g>
      </svg>
      <g
         id="g116">
        <g
           transform="translate(0,528)"
           id="g78">
          <path
             d="M0,0h1246M28,-20V0M68,-10V0M107,-10V0M147,-10V0M187,-10V0M226,-20V0M266,-10V0M306,-10V0M345,-10V0M385,-10V0M425,-20V0M464,-10V0M504,-10V0M544,-10V0M583,-10V0M623,-20V0M663,-10V0M702,-10V0M742,-10V0M782,-10V0M821,-20V0M861,-10V0M901,-10V0M940,-10V0M980,-10V0M1020,-20V0M1059,-10V0M1099,-10V0M1139,-10V0M1178,-10V0M1218,-20V0"
             style="stroke: rgb(0, 0, 0); stroke-width: 1;"
             id="path52" />
          <g
             font-family="Arial"
             font-size="23"
             xml:space="preserve"
             fill="#000000"
             text-anchor="middle"
             id="g68"><text
               dy=".8em"
               transform="translate(28,5)"
               id="text54">-3</text><text
               dy=".8em"
               transform="translate(226,5)"
               id="text56">-2</text><text
               dy=".8em"
               transform="translate(425,5)"
               id="text58">-1</text><text
               dy=".8em"
               transform="translate(623,5)"
               id="text60">0</text><text
               dy=".8em"
               transform="translate(821,5)"
               id="text62">1</text><text
               dy=".8em"
               transform="translate(1020,5)"
               id="text64">2</text><text
               dy=".8em"
               transform="translate(1218,5)"
               id="text66">3</text></g>
          <rect
             x="0"
             y="0"
             width="1246"
             height="26"
             style="opacity: 0; cursor: crosshair;"
             id="rect70" />
          <g
             font-family="Arial"
             font-size="23"
             xml:space="preserve"
             style="cursor: move;"
             transform="translate(1246,37)"
             id="g76"><g
               transform="translate(-71,8)"
               id="g74"><text
                 fill="#000000"
                 font-size="23"
                 id="text72"> (rad)</text></g></g>
        </g>
        <g
           id="g114">
          <path
             d="M0,0v528M47,528H0M24,517H0M24,507H0M24,496H0M24,486H0M47,475H0M24,465H0M24,454H0M24,444H0M24,433H0M47,422H0M24,412H0M24,401H0M24,391H0M24,380H0M47,370H0M24,359H0M24,348H0M24,338H0M24,327H0M47,317H0M24,306H0M24,296H0M24,285H0M24,275H0M47,264H0M24,253H0M24,243H0M24,232H0M24,222H0M47,211H0M24,201H0M24,190H0M24,180H0M24,169H0M47,158H0M24,148H0M24,137H0M24,127H0M24,116H0M47,106H0M24,95H0M24,84H0M24,74H0M24,63H0M47,53H0M24,42H0M24,32H0M24,21H0M24,11H0M47,0H0"
             style="stroke: rgb(0, 0, 0); stroke-width: 1;"
             id="path80" />
          <g
             font-family="Arial"
             font-size="23"
             xml:space="preserve"
             fill="#000000"
             text-anchor="end"
             id="g104"><text
               dominant-baseline="middle"
               transform="translate(-3,528)"
               id="text82">0</text><text
               dominant-baseline="middle"
               transform="translate(-3,475)"
               id="text84">0.1</text><text
               dominant-baseline="middle"
               transform="translate(-3,422)"
               id="text86">0.2</text><text
               dominant-baseline="middle"
               transform="translate(-3,370)"
               id="text88">0.3</text><text
               dominant-baseline="middle"
               transform="translate(-3,317)"
               id="text90">0.4</text><text
               dominant-baseline="middle"
               transform="translate(-3,264)"
               id="text92">0.5</text><text
               dominant-baseline="middle"
               transform="translate(-3,211)"
               id="text94">0.6</text><text
               dominant-baseline="middle"
               transform="translate(-3,158)"
               id="text96">0.7</text><text
               dominant-baseline="middle"
               transform="translate(-3,106)"
               id="text98">0.8</text><text
               dominant-baseline="middle"
               transform="translate(-3,53)"
               id="text100">0.9</text><text
               dominant-baseline="middle"
               transform="translate(-3)"
               id="text102">1</text></g>
          <rect
             x="-35"
             y="0"
             width="35"
             height="528"
             style="opacity: 0; cursor: crosshair;"
             id="rect106" />
          <g
             font-family="Arial"
             font-size="23"
             xml:space="preserve"
             style="cursor: move;"
             transform="translate(-55,0)"
             id="g112"><g
               transform=" rotate(270) translate(-69,8)"
               id="g110"><text
                 fill="#000000"
                 font-size="23"
                 id="text108"> (rad)</text></g></g>
        </g>
      </g>
      <path
         d="M2,2h15v-5h-20v20h5Z"
         style="opacity: 0; cursor: nw-resize;"
         id="path118" />
      <path
         d="M1244,2h-15v-5h20v20h-5 Z"
         style="opacity: 0; cursor: ne-resize;"
         id="path120" />
      <path
         d="M2,526h15v5h-20v-20h5Z"
         style="opacity: 0; cursor: sw-resize;"
         id="path122" />
      <path
         d="M1244,526h-15v5h20v-20h-5Z"
         style="opacity: 0; cursor: se-resize;"
         id="path124" />
      <path
         d="M-3,18h5v492h-5Z"
         style="opacity: 0; cursor: w-resize;"
         id="path126" />
      <path
         d="M1249,18h-5v492h5Z"
         style="opacity: 0; cursor: e-resize;"
         id="path128" />
      <path
         d="M18,-3v5h1210v-5Z"
         style="opacity: 0; cursor: n-resize;"
         id="path130" />
      <path
         d="M18,531v-5h1210v5Z"
         style="opacity: 0; cursor: s-resize;"
         id="path132" />
      <style
         id="style134">
.jsroot rect.h1bin { stroke: #4572A7; fill: #4572A7; opacity: 0; }
.jsroot rect.zoom { stroke: steelblue; fill-opacity: 0.1; }
.jsroot path.zoom { stroke: steelblue; fill-opacity: 0.1; }
.jsroot svg:not(:root) { overflow: hidden; }</style>
    </g>
    <g
       transform="matrix(1.073,0,0,1.073,694.07812,38)"
       id="g142"
       style="font-size:37px;font-family:Arial">
      <text
         fill="#000000"
         font-size="37px"
         id="text140"> vs </text>
    </g>
  </g>
</svg>
