<?xml version="1.0" encoding="UTF-8" standalone="no"?>
<svg
   width="1557"
   height="660"
   version="1.1"
   id="svg210"
   sodipodi:docname="21phi_theta_neg.svg"
   inkscape:version="1.2.2 (1:1.2.2+202305151914+b0a8486541)"
   xmlns:inkscape="http://www.inkscape.org/namespaces/inkscape"
   xmlns:sodipodi="http://sodipodi.sourceforge.net/DTD/sodipodi-0.dtd"
   xmlns="http://www.w3.org/2000/svg"
   xmlns:svg="http://www.w3.org/2000/svg">
  <defs
     id="defs214" />
  <sodipodi:namedview
     id="namedview212"
     pagecolor="#ffffff"
     bordercolor="#666666"
     borderopacity="1.0"
     inkscape:showpageshadow="2"
     inkscape:pageopacity="0.0"
     inkscape:pagecheckerboard="0"
     inkscape:deskcolor="#d1d1d1"
     showgrid="false"
     inkscape:zoom="0.71515151"
     inkscape:cx="630.63559"
     inkscape:cy="300.63559"
     inkscape:window-width="1920"
     inkscape:window-height="1051"
     inkscape:window-x="0"
     inkscape:window-y="0"
     inkscape:window-maximized="1"
     inkscape:current-layer="g208" />
  <g
     id="g208">
    <g
       transform="translate(156,66)"
       id="g136"
       inkscape:export-filename="21phi_theta_neg.pdf"
       inkscape:export-xdpi="96"
       inkscape:export-ydpi="96">
      <title
         id="title4" />
      <path
         d="M0,0H1246V528H0Z"
         style="fill:none;stroke:rgb(0, 0, 0);stroke-width:1;pointer-events:visiblefill"
         id="path6" />
      <svg
         x="0"
         y="0"
         overflow="hidden"
         width="1246"
         height="528"
         viewBox="0 0 1246 528"
         style="pointer-events: visiblefill;"
         version="1.1"
         id="svg50">
        <g
           id="g48">
          <path
             fill="#263da8"
             d="M0,114h6v198h-6zM0,467h6v6h-6zM6,124h6v188h-6zM6,467h6v6h-6zm0,35h6v2h-6zM12,129h7v175h-7zm0,185h7v3h-7zm0,153h7v6h-7zm0,24h7v3h-7zM19,140h6v169h-6zm0,327h6v6h-6zM25,143h6v169h-6zm0,171h6v3h-6zm0,151h6v10h-6zm0,23h6v3h-6zM31,148h6v158h-6zm0,161h6v5h-6zm0,153h6v16h-6zm0,18h6v3h-6zM37,153h7v148h-7zm0,151h7v8h-7zm0,10h7v3h-7zm0,145h7v16h-7zm0,24h7v3h-7zM44,161h6v148h-6zm0,293h6v19h-6zM50,164h6v137h-6zm0,140h6v2h-6zm0,145h6v24h-6zM56,169h6v135h-6zm0,275h6v23h-6zm0,31h6v3h-6zM62,174h7v130h-7zm0,135h7v3h-7zm0,127h7v34h-7zM69,180h6v118h-6zm0,121h6v3h-6zm0,129h6v29h-6zM75,180h6v118h-6zm0,242h6v24h-6zm0,27h6v2h-6zm0,10h6v3h-6zM81,185h6v108h-6zm0,111h6v5h-6zm0,118h6v32h-6zm0,35h6v5h-6zm0,8h6v2h-6zm0,5h6v5h-6zM87,187h6v117h-6zm0,220h6v29h-6zm0,31h6v13h-6zm0,16h6v3h-6zm0,5h6v3h-6zm0,8h6v3h-6zm0,6h6v2h-6zM93,190h7v114h-7zm0,206h7v40h-7zm0,45h7v3h-7zm0,10h7v3h-7zm0,29h7v3h-7zm7,-287h6v116h-6zm0,119h6v2h-6zm0,76h6v37h-6zm0,66h6v5h-6zm0,16h6v3h-6zm0,8h6v5h-6zm6,-283h6v117h-6zm0,119h6v3h-6zm0,5h6v3h-6zm0,66h6v43h-6zm0,45h6v3h-6zm0,8h6v3h-6zm0,16h6v3h-6zm0,19h6v5h-6zm6,-278h6v130h-6zm0,132h6v6h-6zm0,8h6v8h-6zm0,13h6v8h-6zm0,11h6v3h-6zm0,16h6v3h-6zm0,5h6v45h-6zm0,48h6v2h-6zm0,5h6v5h-6zm0,13h6v3h-6zm0,11h6v2h-6zm0,5h6v3h-6zm0,26h6v3h-6zm6,-290h7v174h-7zm0,177h7v24h-7zm0,26h7v8h-7zm0,24h7v3h-7zm0,5h7v3h-7zm0,6h7v2h-7zm0,8h7v2h-7zm0,7h7v3h-7zm0,6h7v2h-7zm7,-256h6v208h-6zm0,211h6v5h-6zm0,34h6v3h-6zm0,34h6v3h-6zm6,-279h6v198h-6zm0,200h6v3h-6zm0,6h6v10h-6zm0,15h6v3h-6zm0,16h6v3h-6zm0,8h6v3h-6zm0,8h6v3h-6zm0,8h6v3h-6zm0,11h6v2h-6zm6,-272h6v216h-6zm0,219h6v5h-6zm0,8h6v23h-6zm0,45h6v2h-6zm0,21h6v2h-6zm6,-293h7v243h-7zm0,245h7v11h-7zm0,16h7v5h-7zm7,-261h6v258h-6zm0,261h6v3h-6zm6,-261h6v166h-6zm0,219h6v45h-6zm0,47h6v3h-6zm6,-266h6v147h-6zm0,155h6v3h-6zm0,77h6v29h-6zm0,32h6v2h-6zm0,5h6v5h-6zm6,-269h6v137h-6zm0,140h6v2h-6zm0,5h6v2h-6zm0,95h6v29h-6zm6,-240h7v126h-7zm0,129h7v5h-7zm0,116h7v27h-7zm0,32h7v2h-7zm0,8h7v2h-7zm7,-288h6v108h-6zm0,111h6v10h-6zm0,13h6v3h-6zm0,132h6v19h-6zm6,-256h6v103h-6zm0,108h6v8h-6zm0,153h6v16h-6zm6,-264h6v109h-6zm0,117h6v2h-6zm0,150h6v11h-6zm0,16h6v2h-6zm6,-283h7v103h-7zm0,106h7v3h-7zm0,164h7v10h-7zm7,-272h6v103h-6zm0,105h6v8h-6zm0,172h6v5h-6zm6,-280h6v111h-6zm0,283h6v2h-6zm6,-286h6v109h-6zm0,286h6v2h-6zm6,-288h7v113h-7zm0,121h7v3h-7zm0,164h7v5h-7zm0,10h7v6h-7zm7,-300h6v118h-6zm0,287h6v8h-6zm0,13h6v3h-6zm6,-303h6v119h-6zm0,124h6v3h-6zm0,164h6v8h-6zm6,-291h6v119h-6zm0,127h6v3h-6zm0,158h6v14h-6zm6,-287h6v126h-6zm0,132h6v2h-6zm0,153h6v16h-6zm0,18h6v3h-6zm6,-311h7v132h-7zm0,137h7v3h-7zm0,148h7v26h-7zm7,-288h6v132h-6zm0,135h6v2h-6zm0,148h6v29h-6zm6,-288h6v140h-6zm0,282h6v35h-6zm0,37h6v3h-6zm6,-325h6v138h-6zm0,143h6v5h-6zm0,137h6v35h-6zm0,40h6v3h-6zm6,-327h7v137h-7zm0,139h7v3h-7zm0,6h7v2h-7zm0,5h7v3h-7zm0,124h7v29h-7zm0,32h7v10h-7zm0,16h7v2h-7zm7,-330h6v161h-6zm0,272h6v39h-6zm0,42h6v2h-6zm0,5h6v3h-6zm0,5h6v6h-6zm0,14h6v2h-6zm6,-344h6v164h-6zm0,272h6v40h-6zm0,43h6v2h-6zm0,5h6v8h-6zm0,13h6v3h-6zm0,16h6v2h-6zm6,-357h6v172h-6zm0,177h6v3h-6zm0,93h6v37h-6zm0,39h6v6h-6zm0,14h6v2h-6zm0,7h6v3h-6zm0,6h6v2h-6zm0,10h6v3h-6zm0,8h6v3h-6zm0,13h6v3h-6zm6,-374h7v184h-7zm0,190h7v2h-7zm0,79h7v45h-7zm0,53h7v2h-7zm0,5h7v3h-7zm0,37h7v2h-7zm7,-372h6v2h-6zm0,5h6v190h-6zm0,193h6v2h-6zm0,52h6v3h-6zm0,19h6v55h-6zm0,61h6v2h-6zm0,5h6v3h-6zm0,5h6v5h-6zm0,21h6v3h-6zM318,95h6v214h-6zm0,222h6v5h-6zm0,10h6v6h-6zm0,8h6v82h-6zm0,90h6v11h-6zm0,16h6v5h-6zm0,10h6v3h-6zm0,11h6v8h-6zm0,11h6v5h-6zm0,7h6v3h-6zM324,90h6v243h-6zm0,245h6v77h-6zm0,87h6v3h-6zm0,6h6v2h-6zm0,21h6v2h-6zm0,5h6v3h-6zm0,5h6v6h-6zm0,8h6v3h-6zm0,6h6v2h-6zm0,52h6v3h-6zM330,82h6v314h-6zm0,317h6v2h-6zm0,8h6v2h-6zm0,7h6v3h-6zm0,6h6v2h-6zm0,8h6v2h-6zm0,5h6v3h-6zm0,13h6v3h-6zm0,11h6v8h-6zm0,21h6v2h-6zm0,47h6v3h-6zM336,71h7v354h-7zm0,357h7v2h-7zm0,5h7v5h-7zm0,13h7v3h-7zm0,11h7v2h-7zm0,5h7v3h-7zm0,63h7v3h-7zM343,55h6v6h-6zm0,8h6v357h-6zm0,359h6v8h-6zm0,16h6v3h-6zm0,6h6v5h-6zm0,7h6v3h-6zm0,74h6v3h-6zM349,45h6v409h-6zm0,414h6v3h-6zm0,8h6v3h-6zm0,8h6v3h-6zm0,50h6v3h-6zM355,32h6v351h-6zm0,359h6v53h-6zm0,55h6v11h-6zm0,13h6v11h-6zm0,66h6v3h-6zM361,13h7v3h-7zm0,11h7v330h-7zm0,393h7v37h-7zm0,40h7v2h-7zm0,5h7v3h-7zm0,8h7v3h-7zm0,55h7v3h-7zM368,5h6v3h-6zm0,6h6v47h-6zm0,50h6v272h-6zm0,274h6v3h-6zm0,6h6v2h-6zm0,92h6v29h-6zm0,92h6v3h-6zM374,3h6v8h-6zm0,10h6v8h-6zm0,11h6v306h-6zm0,417h6v24h-6zm0,84h6v3h-6zM380,3h6v5h-6zm0,8h6v2h-6zm0,5h6v8h-6zm0,10h6v6h-6zm0,8h6v283h-6zm0,285h6v8h-6zm0,127h6v19h-6zm0,29h6v3h-6zm0,16h6v3h-6zm0,34h6v3h-6zM386,3h6v8h-6zm0,10h6v3h-6zm0,11h6v10h-6zm0,13h6v26h-6zm0,29h6v253h-6zm0,385h6v19h-6zm0,74h6v3h-6zM392,3h7v2h-7zm0,5h7v18h-7zm0,21h7v285h-7zm0,428h7v10h-7zm0,18h7v3h-7zm0,50h7v3h-7zM399,0h6v3h-6zm0,5h6v3h-6zm0,8h6v5h-6zm0,8h6v5h-6zm0,11h6v13h-6zm0,16h6v269h-6zm0,414h6v13h-6zm0,63h6v3h-6zM405,0h6v11h-6zm0,13h6v21h-6zm0,24h6v8h-6zm0,11h6v15h-6zm0,18h6v238h-6zm0,240h6v3h-6zm0,159h6v8h-6zm0,23h6v3h-6zm0,37h6v3h-6zM411,0h6v11h-6zm0,13h6v293h-6zm0,299h6v2h-6zm0,155h6v6h-6zm0,21h6v3h-6zm0,37h6v3h-6zM417,3h7v15h-7zm0,18h7v34h-7zm0,37h7v246h-7zm0,248h7v3h-7zm0,164h7v3h-7zm0,5h7v3h-7zm0,19h7v2h-7zm0,31h7v3h-7zM424,3h6v23h-6zm0,26h6v275h-6zm0,280h6v5h-6zm0,161h6v5h-6zm0,55h6v3h-6zM430,3h6v2h-6zm0,5h6v293h-6zm0,296h6v5h-6zm0,163h6v8h-6zm0,11h6v2h-6zm0,47h6v3h-6zM436,0h6v18h-6zm0,21h6v24h-6zm0,27h6v253h-6zm0,258h6v3h-6zm0,159h6v8h-6zm0,23h6v3h-6zm0,37h6v3h-6zM442,3h7v8h-7zm0,10h7v35h-7zm0,37h7v248h-7zm0,251h7v5h-7zm0,161h7v11h-7zm0,63h7v3h-7zM449,0h6v24h-6zm0,26h6v3h-6zm0,6h6v13h-6zm0,16h6v256h-6zm0,411h6v11h-6zm0,66h6v3h-6zM455,0h6v37h-6zm0,40h6v261h-6zm0,417h6v18h-6zm0,29h6v2h-6zm0,39h6v3h-6zM461,0h6v66h-6zm0,69h6v224h-6zm0,227h6v5h-6zm0,155h6v19h-6zm0,24h6v3h-6zm0,19h6v2h-6zm0,31h6v3h-6zM467,5h6v3h-6zm0,6h6v39h-6zm0,42h6v8h-6zm0,10h6v233h-6zm0,235h6v3h-6zm0,151h6v21h-6zm0,29h6v5h-6zm0,47h6v3h-6zM473,3h7v37h-7zm0,39h7v3h-7zm0,6h7v7h-7zm0,10h7v238h-7zm0,240h7v3h-7zm0,146h7v26h-7zm0,29h7v5h-7zm0,52h7v3h-7zM480,0h6v8h-6zm0,13h6v285h-6zm0,423h6v29h-6zm0,31h6v3h-6zm0,6h6v2h-6zm0,13h6v2h-6zm0,39h6v3h-6zM486,0h6v5h-6zm0,11h6v285h-6zm0,419h6v24h-6zm0,27h6v8h-6zm0,13h6v5h-6zm0,16h6v2h-6zm0,39h6v3h-6zM492,5h6v3h-6zm0,6h6v23h-6zm0,26h6v3h-6zm0,5h6v13h-6zm0,16h6v238h-6zm0,362h6v34h-6zm0,37h6v8h-6zm0,10h6v3h-6zm0,58h6v3h-6zM498,3h7v5h-7zm0,8h7v23h-7zm0,26h7v264h-7zm0,367h7v34h-7zm0,40h7v7h-7zm0,21h7v2h-7zm0,5h7v3h-7zm0,55h7v3h-7zM505,0h6v301h-6zm0,396h6v53h-6zm0,55h6v3h-6zm0,8h6v6h-6zm0,16h6v3h-6zm0,50h6v3h-6zM511,0h6v3h-6zm0,13h6v24h-6zm0,27h6v23h-6zm0,26h6v235h-6zm0,322h6v34h-6zm0,37h6v8h-6zm0,19h6v2h-6zm0,5h6v2h-6zm0,5h6v3h-6zm0,5h6v3h-6zm0,24h6v3h-6zm0,42h6v3h-6zM517,8h6v16h-6zm0,21h6v5h-6zm0,8h6v11h-6zm0,13h6v248h-6zm0,251h6v3h-6zm0,5h6v6h-6zm0,79h6v37h-6zm0,40h6v3h-6zm0,5h6v3h-6zm0,14h6v5h-6zm0,13h6v2h-6zm0,16h6v2h-6zM523,8h7v3h-7zm0,5h7v8h-7zm0,11h7v10h-7zm0,16h7v266h-7zm0,269h7v3h-7zm0,5h7v3h-7zm0,66h7v27h-7zm0,29h7v16h-7zm0,53h7v5h-7zM530,3h6v10h-6zm0,13h6v2h-6zm0,8h6v5h-6zm0,10h6v8h-6zm0,11h6v269h-6zm0,298h6v3h-6zm0,11h6v2h-6zm0,5h6v3h-6zm0,5h6v3h-6zm0,11h6v37h-6zm0,39h6v11h-6zm0,19h6v5h-6zm0,18h6v3h-6zm0,6h6v5h-6zM536,0h6v3h-6zm0,8h6v16h-6zm0,18h6v373h-6zm0,375h6v6h-6zm0,8h6v5h-6zm0,16h6v3h-6zm0,5h6v3h-6zM542,0h6v3h-6zm0,5h6v6h-6zm0,8h6v24h-6zm0,27h6v8h-6zm0,10h6v357h-6zm0,359h6v3h-6zm0,5h6v8h-6zm0,24h6v6h-6zm0,21h6v6h-6zm0,53h6v3h-6zm0,13h6v3h-6zM548,0h6v3h-6zm0,5h6v6h-6zm0,13h6v35h-6zm0,37h6v362h-6zm0,365h6v5h-6zm0,8h6v2h-6zm0,8h6v5h-6zm0,8h6v2h-6zm0,5h6v2h-6zm0,13h6v8h-6zm0,11h6v5h-6zm0,52h6v3h-6zM554,3h7v2h-7zm0,5h7v3h-7zm0,8h7v21h-7zm0,24h7v2h-7zm0,5h7v404h-7zm0,406h7v3h-7zm0,8h7v6h-7zm0,27h7v2h-7zM561,0h6v11h-6zm0,13h6v3h-6zm0,5h6v441h-6zm0,444h6v3h-6zM567,0h6v71h-6zm0,74h6v10h-6zm0,13h6v267h-6zm0,272h6v5h-6zm0,61h6v39h-6zM573,0h6v5h-6zm0,13h6v11h-6zm0,13h6v11h-6zm0,14h6v5h-6zm0,8h6v23h-6zm0,26h6v261h-6zm0,264h6v5h-6zm0,8h6v5h-6zm0,8h6v2h-6zm0,76h6v29h-6zm0,32h6v3h-6zM579,0h7v5h-7zm0,8h7v3h-7zm0,5h7v13h-7zm0,16h7v301h-7zm0,304h7v2h-7zm0,8h7v2h-7zm0,7h7v3h-7zm0,90h7v27h-7zM586,0h6v8h-6zm0,11h6v2h-6zm0,5h6v13h-6zm0,16h6v280h-6zm0,282h6v13h-6zm0,16h6v3h-6zm0,5h6v3h-6zm0,111h6v21h-6zm0,79h6v3h-6zM592,3h6v8h-6zm0,10h6v16h-6zm0,19h6v287h-6zm0,419h6v19h-6zm0,37h6v3h-6zM598,0h6v3h-6zm0,5h6v3h-6zm0,6h6v5h-6zm0,7h6v291h-6zm0,299h6v2h-6zm0,137h6v13h-6zM604,3h7v5h-7zm0,10h7v5h-7zm0,8h7v37h-7zm0,40h7v251h-7zm0,398h7v14h-7zM611,0h6v3h-6zm0,5h6v309h-6zm0,460h6v8h-6zM617,0h6v8h-6zm0,11h6v29h-6zm0,31h6v267h-6zm0,270h6v5h-6zm0,10h6v3h-6zm0,145h6v6h-6zm0,16h6v3h-6zM623,0h6v8h-6zm0,11h6v2h-6zm0,5h6v8h-6zm0,10h6v6h-6zm0,8h6v37h-6zm0,40h6v235h-6zm0,238h6v2h-6zm0,155h6v6h-6zm0,21h6v3h-6zM629,0h6v8h-6zm0,13h6v45h-6zm0,48h6v251h-6zm0,256h6v2h-6zm0,150h6v6h-6zm0,11h6v2h-6zM635,0h7v26h-7zm0,29h7v280h-7zm0,283h7v2h-7zm0,155h7v8h-7zm0,16h7v3h-7zM642,3h6v37h-6zm0,39h6v267h-6zm0,270h6v5h-6zm0,7h6v3h-6zm0,148h6v6h-6zM648,3h6v13h-6zm0,15h6v288h-6zm0,291h6v5h-6zm0,156h6v5h-6zm0,8h6v2h-6zm0,5h6v2h-6zM654,3h6v15h-6zm0,18h6v16h-6zm0,19h6v5h-6zm0,8h6v10h-6zm0,13h6v23h-6zm0,26h6v222h-6zm0,375h6v11h-6zM660,0h7v13h-7zm0,16h7v47h-7zm0,50h7v227h-7zm0,230h7v2h-7zm0,5h7v3h-7zm0,5h7v3h-7zm0,151h7v16h-7zM667,5h6v293h-6zm0,296h6v5h-6zm0,8h6v5h-6zm0,142h6v22h-6zM673,0h6v3h-6zm0,5h6v3h-6zm0,6h6v15h-6zm0,18h6v40h-6zm0,42h6v230h-6zm0,233h6v2h-6zm0,145h6v18h-6zM679,0h6v5h-6zm0,8h6v5h-6zm0,10h6v22h-6zm0,24h6v259h-6zm0,262h6v2h-6zm0,5h6v3h-6zm0,132h6v32h-6zM685,0h7v58h-7zm0,61h7v240h-7zm0,377h7v19h-7zm0,21h7v6h-7zm0,11h7v3h-7zm0,13h7v3h-7zM692,0h6v8h-6zm0,11h6v5h-6zm0,7h6v8h-6zm0,11h6v42h-6zm0,45h6v224h-6zm0,356h6v32h-6zm0,35h6v2h-6zm0,18h6v3h-6zM698,0h6v5h-6zm0,8h6v8h-6zm0,10h6v3h-6zm0,6h6v29h-6zm0,31h6v6h-6zm0,8h6v6h-6zm0,8h6v227h-6zm0,230h6v3h-6zm0,119h6v31h-6zm0,45h6v2h-6zm0,31h6v3h-6zM704,3h6v13h-6zm0,15h6v16h-6zm0,19h6v8h-6zm0,13h6v13h-6zm0,16h6v230h-6zm0,238h6v5h-6zm0,108h6v29h-6zm0,32h6v2h-6zm0,5h6v2h-6zm0,5h6v3h-6zm0,32h6v2h-6zM710,0h6v3h-6zm0,5h6v6h-6zm0,8h6v3h-6zm0,5h6v280h-6zm0,283h6v5h-6zm0,103h6v32h-6zm0,37h6v3h-6zm0,5h6v3h-6zm0,8h6v3h-6zm0,11h6v2h-6zM716,3h7v2h-7zm0,5h7v3h-7zm0,5h7v5h-7zm0,13h7v16h-7zm0,19h7v256h-7zm0,259h7v5h-7zm0,95h7v29h-7zm0,31h7v11h-7zm0,16h7v5h-7zm0,37h7v5h-7zM723,3h6v2h-6zm0,5h6v3h-6zm0,5h6v8h-6zm0,13h6v6h-6zm0,8h6v8h-6zm0,11h6v267h-6zm0,348h6v35h-6zm0,37h6v3h-6zm0,8h6v3h-6zm0,29h6v3h-6zM729,0h6v13h-6zm0,16h6v21h-6zm0,24h6v274h-6zm0,277h6v8h-6zm0,63h6v45h-6zm0,61h6v3h-6zm0,24h6v2h-6zm0,5h6v3h-6zm0,10h6v3h-6zM735,3h6v5h-6zm0,8h6v2h-6zm0,5h6v8h-6zm0,10h6v11h-6zm0,14h6v290h-6zm0,295h6v8h-6zm0,11h6v26h-6zm0,29h6v42h-6zm0,45h6v10h-6zm0,34h6v3h-6zm0,11h6v2h-6zm0,13h6v2h-6zm0,8h6v2h-6zM741,0h7v34h-7zm0,37h7v375h-7zm0,377h7v6h-7zm0,8h7v6h-7zm0,8h7v3h-7zm0,8h7v6h-7zm0,24h7v3h-7zM748,11h6v10h-6zm0,13h6v10h-6zm0,13h6v370h-6zm0,372h6v21h-6zm0,27h6v5h-6zm0,8h6v7h-6zm0,13h6v5h-6zm0,8h6v2h-6zM754,0h6v3h-6zm0,8h6v10h-6zm0,13h6v3h-6zm0,8h6v8h-6zm0,11h6v396h-6zm0,398h6v3h-6zm0,6h6v13h-6zm0,31h6v3h-6zM760,0h6v3h-6zm0,11h6v2h-6zm0,5h6v29h-6zm0,32h6v414h-6zm0,425h6v2h-6zM766,0h7v16h-7zm0,18h7v22h-7zm0,24h7v343h-7zm0,354h7v3h-7zm0,5h7v64h-7zm0,66h7v6h-7zm0,13h7v3h-7zM773,0h6v11h-6zm0,16h6v8h-6zm0,10h6v14h-6zm0,16h6v8h-6zm0,11h6v293h-6zm0,295h6v6h-6zm0,8h6v6h-6zm0,8h6v3h-6zm0,61h6v45h-6zm0,53h6v2h-6zM779,3h6v10h-6zm0,13h6v2h-6zm0,5h6v16h-6zm0,19h6v10h-6zm0,13h6v301h-6zm0,383h6v34h-6zm0,37h6v5h-6zm0,10h6v3h-6zM785,0h6v13h-6zm0,16h6v319h-6zm0,322h6v3h-6zm0,106h6v29h-6zm0,36h6v3h-6zM791,3h6v13h-6zm0,15h6v3h-6zm0,6h6v301h-6zm0,425h6v26h-6zM797,5h7v309h-7zm0,449h7v24h-7zM804,0h6v29h-6zm0,32h6v50h-6zm0,52h6v3h-6zm0,6h6v224h-6zm0,369h6v19h-6zm0,29h6v3h-6zM810,0h6v11h-6zm0,24h6v5h-6zm0,8h6v285h-6zm0,287h6v3h-6zm0,143h6v11h-6zm0,13h6v3h-6zM816,0h6v3h-6zm0,5h6v6h-6zm0,8h6v8h-6zm0,11h6v13h-6zm0,16h6v261h-6zm0,264h6v8h-6zm0,10h6v3h-6zm0,153h6v8h-6zM822,0h7v18h-7zm0,21h7v288h-7zm0,291h7v2h-7zm0,158h7v5h-7zM829,0h6v8h-6zm0,13h6v35h-6zm0,37h6v254h-6zm0,256h6v3h-6zm0,6h6v2h-6zm0,161h6v5h-6zM835,0h6v3h-6zm0,5h6v6h-6zm0,8h6v3h-6zm0,11h6v288h-6zm0,449h6v2h-6zM841,0h6v13h-6zm0,18h6v19h-6zm0,24h6v13h-6zm0,16h6v246h-6zm0,415h6v5h-6zm0,26h6v3h-6zM847,5h7v48h-7zm0,50h7v251h-7zm0,418h7v2h-7zM854,5h6v56h-6zm0,58h6v243h-6zm0,407h6v8h-6zM860,0h6v18h-6zm0,21h6v27h-6zm0,29h6v254h-6zm0,262h6v2h-6zm0,155h6v6h-6zM866,3h6v2h-6zm0,8h6v23h-6zm0,26h6v267h-6zm0,272h6v3h-6zm0,153h6v16h-6zM872,0h6v5h-6zm0,8h6v3h-6zm0,5h6v8h-6zm0,11h6v8h-6zm0,10h6v19h-6zm0,21h6v251h-6zm0,402h6v18h-6zM878,0h7v11h-7zm0,13h7v19h-7zm0,21h7v262h-7zm0,264h7v3h-7zm0,153h7v24h-7zM885,0h6v11h-6zm0,13h6v11h-6zm0,13h6v14h-6zm0,16h6v11h-6zm0,13h6v241h-6zm0,243h6v3h-6zm0,148h6v27h-6zm0,29h6v3h-6zM891,0h6v5h-6zm0,11h6v5h-6zm0,7h6v3h-6zm0,8h6v8h-6zm0,11h6v3h-6zm0,5h6v251h-6zm0,254h6v2h-6zm0,5h6v3h-6zm0,140h6v34h-6zm0,37h6v2h-6zM897,0h6v296h-6zm0,298h6v6h-6zm0,135h6v40h-6zm0,42h6v3h-6zM903,5h7v3h-7zm0,8h7v5h-7zm0,16h7v48h-7zm0,50h7v217h-7zm0,227h7v3h-7zm0,122h7v23h-7zm0,29h7v5h-7zm0,10h7v3h-7zM910,3h6v13h-6zm0,15h6v14h-6zm0,16h6v3h-6zm0,6h6v37h-6zm0,39h6v219h-6zm0,341h6v39h-6zm0,45h6v2h-6zM916,0h6v8h-6zm0,13h6v5h-6zm0,13h6v6h-6zm0,8h6v6h-6zm0,8h6v246h-6zm0,248h6v3h-6zm0,19h6v3h-6zm0,103h6v39h-6zm0,45h6v5h-6zm0,16h6v2h-6zm0,10h6v3h-6zM922,3h6v5h-6zm0,8h6v2h-6zm0,5h6v16h-6zm0,18h6v27h-6zm0,29h6v238h-6zm0,249h6v2h-6zm0,87h6v29h-6zm0,37h6v2h-6zm0,47h6v3h-6zM928,5h7v11h-7zm0,13h7v40h-7zm0,43h7v243h-7zm0,256h7v2h-7zm0,74h7v39h-7zm0,42h7v3h-7zm0,16h7v2h-7zm0,10h7v3h-7zm0,19h7v2h-7zM935,5h6v24h-6zm0,27h6v5h-6zm0,13h6v16h-6zm0,21h6v246h-6zm0,319h6v43h-6zm0,48h6v8h-6zm0,13h6v3h-6zm0,13h6v6h-6zM941,0h6v18h-6zm0,21h6v8h-6zm0,13h6v6h-6zm0,8h6v19h-6zm0,21h6v6h-6zm0,8h6v235h-6zm0,238h6v8h-6zm0,10h6v3h-6zm0,35h6v5h-6zm0,13h6v3h-6zm0,13h6v48h-6zm0,56h6v2h-6zm0,5h6v3h-6zm0,5h6v3h-6zm0,16h6v3h-6zm0,5h6v3h-6zM947,3h6v10h-6zm0,15h6v3h-6zm0,6h6v5h-6zm0,8h6v8h-6zm0,10h6v35h-6zm0,37h6v256h-6zm0,262h6v73h-6zm0,76h6v5h-6zm0,11h6v2h-6zm0,10h6v3h-6zm0,11h6v8h-6zm0,18h6v6h-6zm0,11h6v2h-6zM953,11h6v2h-6zm0,7h6v11h-6zm0,14h6v375h-6zm0,377h6v8h-6zm0,16h6v5h-6zm0,29h6v3h-6zm0,21h6v3h-6zM959,0h7v5h-7zm0,8h7v10h-7zm0,13h7v5h-7zm0,11h7v8h-7zm0,10h7v13h-7zm0,16h7v362h-7zm0,364h7v6h-7zm0,8h7v3h-7zm0,6h7v2h-7zm0,8h7v5h-7zm0,15h7v3h-7zm0,6h7v2h-7zM966,5h6v3h-6zm0,6h6v26h-6zm0,29h6v2h-6zm0,5h6v5h-6zm0,8h6v2h-6zm0,5h6v364h-6zm0,367h6v8h-6zm0,11h6v8h-6zm0,13h6v5h-6zm0,8h6v2h-6zm0,5h6v3h-6zm0,5h6v3h-6zm0,6h6v5h-6zm0,7h6v6h-6zM972,0h6v5h-6zm0,8h6v5h-6zm0,13h6v13h-6zm0,16h6v13h-6zm0,18h6v396h-6zm0,399h6v8h-6zm0,19h6v2h-6zM978,8h6v3h-6zm0,13h6v8h-6zm0,11h6v23h-6zm0,26h6v3h-6zm0,5h6v388h-6zm0,391h6v5h-6zm0,11h6v2h-6zM984,3h7v31h-7zm0,37h7v2h-7zm0,5h7v8h-7zm0,10h7v307h-7zm0,309h7v3h-7zm0,21h7v3h-7zm0,29h7v45h-7zM991,0h6v16h-6zm0,21h6v13h-6zm0,16h6v309h-6zm0,314h6v5h-6zm0,77h6v37h-6zm0,42h6v3h-6zm0,8h6v2h-6zM997,0h6v346h-6zm0,438h6v27h-6zm0,29h6v3h-6zm0,58h6v3h-6zM1003,0h6v13h-6zm0,16h6v5h-6zm0,8h6v295h-6zm0,298h6v5h-6zm0,11h6v2h-6zm0,113h6v24h-6zm0,27h6v5h-6zM1009,3h6v26h-6zm0,29h6v29h-6zm0,34h6v246h-6zm0,248h6v8h-6zm0,11h6v2h-6zm0,129h6v16h-6zM1015,0h7v3h-7zm0,5h7v3h-7zm0,6h7v13h-7zm0,15h7v14h-7zm0,16h7v11h-7zm0,13h7v257h-7zm0,259h7v3h-7zm0,143h7v13h-7zm0,18h7v3h-7zM1022,0h6v13h-6zm0,16h6v50h-6zm0,53h6v237h-6zm0,253h6v3h-6zm0,140h6v8h-6zm0,63h6v3h-6zM1028,0h6v24h-6zm0,26h6v278h-6zm0,280h6v3h-6zm0,159h6v8h-6zM1034,0h6v3h-6zm0,5h6v299h-6zm0,462h6v8h-6zm0,58h6v3h-6zM1040,0h7v16h-7zm0,18h7v6h-7zm0,8h7v278h-7zm0,280h7v6h-7zm0,164h7v5h-7zm0,10h7v3h-7zm0,11h7v3h-7zm0,34h7v3h-7zM1047,0h6v13h-6zm0,16h6v285h-6zm0,454h6v5h-6zM1053,0h6v5h-6zm0,8h6v10h-6zm0,13h6v275h-6zm0,277h6v6h-6zm0,172h6v5h-6zm0,8h6v2h-6zm0,47h6v3h-6zM1059,0h6v8h-6zm0,11h6v7h-6zm0,10h6v13h-6zm0,16h6v11h-6zm0,13h6v246h-6zm0,248h6v3h-6zm0,6h6v2h-6zm0,5h6v3h-6zm0,158h6v8h-6zM1065,0h7v11h-7zm0,13h7v19h-7zm0,21h7v264h-7zm0,267h7v3h-7zm0,161h7v13h-7zM1072,0h6v13h-6zm0,16h6v5h-6zm0,8h6v13h-6zm0,18h6v254h-6zm0,256h6v3h-6zm0,6h6v5h-6zm0,155h6v19h-6zM1078,0h6v293h-6zm0,296h6v2h-6zm0,158h6v21h-6zM1084,0h6v3h-6zm0,5h6v6h-6zm0,8h6v11h-6zm0,13h6v270h-6zm0,425h6v22h-6zM1090,0h6v8h-6zm0,11h6v2h-6zm0,5h6v280h-6zm0,282h6v3h-6zm0,146h6v29h-6zM1096,0h7v40h-7zm0,42h7v251h-7zm0,399h7v32h-7zm0,84h7v3h-7zm7,-514h6v2h-6zm0,10h6v19h-6zm0,21h6v8h-6zm0,11h6v16h-6zm0,18h6v214h-6zm0,227h6v3h-6zm0,135h6v34h-6zm0,45h6v2h-6zm0,47h6v3h-6zM1109,3h6v15h-6zm0,18h6v11h-6zm0,13h6v3h-6zm0,6h6v8h-6zm0,10h6v243h-6zm0,375h6v32h-6zm0,37h6v8h-6zm0,24h6v2h-6zm0,39h6v3h-6zM1115,3h6v13h-6zm0,18h6v19h-6zm0,21h6v254h-6zm0,256h6v3h-6zm0,116h6v32h-6zm0,37h6v6h-6zm0,8h6v8h-6zm0,66h6v3h-6zM1121,0h7v5h-7zm0,8h7v3h-7zm0,10h7v14h-7zm0,16h7v14h-7zm0,16h7v8h-7zm0,11h7v232h-7zm0,343h7v32h-7zm0,34h7v3h-7zm0,6h7v5h-7zm0,15h7v3h-7zm0,6h7v2h-7zm0,60h7v3h-7zM1128,0h6v29h-6zm0,32h6v10h-6zm0,16h6v242h-6zm0,348h6v29h-6zm0,32h6v13h-6zm0,16h6v2h-6zm0,66h6v2h-6zm0,15h6v3h-6zM1134,3h6v10h-6zm0,13h6v2h-6zm0,5h6v277h-6zm0,364h6v45h-6zm0,59h6v2h-6zm0,18h6v3h-6zm0,5h6v3h-6zm0,13h6v3h-6zm0,45h6v3h-6zM1140,5h6v11h-6zm0,16h6v3h-6zm0,8h6v3h-6zm0,5h6v6h-6zm0,8h6v19h-6zm0,21h6v235h-6zm0,238h6v5h-6zm0,77h6v2h-6zm0,5h6v37h-6zm0,39h6v3h-6zm0,6h6v5h-6zm0,13h6v3h-6zm0,5h6v5h-6zm0,8h6v5h-6zm0,71h6v3h-6zM1146,8h7v5h-7zm0,8h7v2h-7zm0,5h7v3h-7zm0,5h7v3h-7zm0,6h7v8h-7zm0,10h7v277h-7zm0,283h7v2h-7zm0,5h7v3h-7zm0,16h7v2h-7zm0,5h7v69h-7zm0,74h7v3h-7zm0,5h7v6h-7zm0,16h7v3h-7zm0,8h7v3h-7zm0,5h7v3h-7zm0,14h7v2h-7zm0,5h7v5h-7zm0,47h7v3h-7zM1153,0h6v5h-6zm0,8h6v3h-6zm0,5h6v8h-6zm0,19h6v79h-6zm0,82h6v192h-6zm0,195h6v29h-6zm0,32h6v63h-6zm0,68h6v5h-6zm0,8h6v5h-6zm0,16h6v3h-6zm0,32h6v5h-6zm0,8h6v2h-6zm0,52h6v3h-6zM1159,5h6v13h-6zm0,16h6v16h-6zm0,19h6v2h-6zm0,5h6v8h-6zm0,10h6v14h-6zm0,16h6v328h-6zm0,336h6v7h-6zm0,15h6v3h-6zm0,8h6v3h-6zm0,8h6v3h-6zm0,27h6v5h-6zm0,13h6v2h-6zm0,8h6v2h-6zm0,39h6v3h-6zM1165,5h6v3h-6zm0,6h6v2h-6zm0,5h6v5h-6zm0,10h6v3h-6zm0,6h6v367h-6zm0,369h6v13h-6zm0,19h6v2h-6zm0,24h6v2h-6zm0,10h6v3h-6zm0,13h6v3h-6zm0,58h6v3h-6zM1171,0h6v11h-6zm0,16h6v13h-6zm0,16h6v375h-6zm0,382h6v14h-6zm0,19h6v3h-6zm0,5h6v11h-6zm0,16h6v5h-6zm0,11h6v2h-6zm0,8h6v2h-6zm0,52h6v3h-6zM1177,3h7v8h-7zm0,13h7v5h-7zm0,8h7v8h-7zm0,10h7v14h-7zm0,16h7v383h-7zm0,386h7v2h-7zm0,5h7v3h-7zm0,10h7v3h-7zm0,74h7v3h-7zm7,-512h6v5h-6zm0,8h6v3h-6zm0,5h6v3h-6zm0,6h6v2h-6zm0,5h6v3h-6zm0,8h6v3h-6zm0,5h6v383h-6zm0,386h6v15h-6zm0,18h6v5h-6zm0,24h6v2h-6zm0,47h6v3h-6zm6,-507h6v3h-6zm0,6h6v13h-6zm0,16h6v335h-6zm0,340h6v5h-6zm0,11h6v5h-6zm0,8h6v60h-6zm0,66h6v5h-6zm0,60h6v3h-6zm6,-496h6v3h-6zm0,5h6v309h-6zm0,312h6v5h-6zm0,71h6v37h-6zm0,42h6v8h-6zm0,66h6v3h-6zm6,-483h7v3h-7zm0,6h7v271h-7zm0,277h7v8h-7zm0,10h7v3h-7zm0,6h7v2h-7zm0,89h7v40h-7zm0,48h7v5h-7zm0,47h7v3h-7zm7,-472h6v2h-6zm0,5h6v259h-6zm0,261h6v3h-6zm0,6h6v2h-6zm0,5h6v3h-6zm0,108h6v35h-6zm0,87h6v3h-6zm6,-459h6v253h-6zm0,378h6v23h-6zm0,66h6v2h-6zm0,15h6v3h-6zm6,-446h6v230h-6zm0,233h6v7h-6zm0,137h6v21h-6zm0,26h6v3h-6zm0,5h6v3h-6zm0,24h6v3h-6zm0,21h6v3h-6zm6,-435h7v227h-7zm0,229h7v3h-7zm0,135h7v19h-7zm0,29h7v3h-7zm7,-383h6v209h-6zm0,359h6v14h-6zm0,16h6v3h-6zm6,-369h6v203h-6zm0,356h6v8h-6zm0,11h6v2h-6z"
             id="path8" />
          <path
             fill="#1652cc"
             d="M0,312h6v34h-6zM0,465h6v2h-6zM6,312h6v39h-6zm6,-8h7v10h-7zm0,13h7v34h-7zm7,-8h6v39h-6zm6,3h6v2h-6zm0,5h6v24h-6zm0,26h6v5h-6zm6,-37h6v3h-6zm0,8h6v40h-6zm0,145h6v3h-6zM37,301h7v3h-7zm0,11h7v2h-7zm0,5h7v34h-7zm0,137h7v5h-7zM44,309h6v42h-6zm0,142h6v3h-6zM50,301h6v3h-6zm0,5h6v42h-6zm0,140h6v3h-6zM56,304h6v44h-6zm0,137h6v3h-6zM62,304h7v5h-7zm0,8h7v39h-7zm0,121h7v3h-7zM69,298h6v3h-6zm0,6h6v34h-6zm0,37h6v13h-6zm0,84h6v5h-6zM75,298h6v56h-6zm0,119h6v5h-6zM81,293h6v3h-6zm0,8h6v50h-6zm0,108h6v5h-6zM87,304h6v44h-6zm0,50h6v2h-6zm0,39h6v14h-6zm6,-89h7v50h-7zm0,52h7v3h-7zm0,6h7v2h-7zm0,16h7v5h-7zm0,7h7v11h-7zm7,-76h6v3h-6zm0,5h6v74h-6zm6,-2h6v2h-6zm0,5h6v2h-6zm0,5h6v63h-6zm6,3h6v2h-6zm0,8h6v2h-6zm0,10h6v5h-6zm0,13h6v3h-6zm0,6h6v13h-6zm0,16h6v2h-6zm6,-6h7v3h-7zm38,-5h6v53h-6zm6,-19h6v8h-6zm0,11h6v40h-6zm0,63h6v11h-6zm6,-84h6v3h-6zm0,5h6v3h-6zm0,5h6v30h-6zm0,32h6v3h-6zm0,53h6v8h-6zm6,-106h7v3h-7zm0,8h7v40h-7zm0,106h7v5h-7zm7,-135h6v3h-6zm0,13h6v3h-6zm0,6h6v42h-6zm0,126h6v3h-6zm6,-150h6v5h-6zm0,13h6v48h-6zm0,143h6v2h-6zm6,-153h6v8h-6zm0,10h6v40h-6zm0,42h6v3h-6zm6,-58h7v3h-7zm0,6h7v52h-7zm7,-8h6v2h-6zm0,10h6v48h-6zm0,50h6v3h-6zm0,111h6v3h-6zm6,-166h6v40h-6zm0,45h6v2h-6zm0,124h6v3h-6zm6,-174h6v47h-6zm0,174h6v3h-6zm6,-172h7v8h-7zm0,11h7v32h-7zm0,42h7v3h-7zm0,116h7v3h-7zm7,-169h6v43h-6zm0,45h6v3h-6zm0,122h6v2h-6zm6,-169h6v5h-6zm0,8h6v42h-6zm0,44h6v3h-6zm0,114h6v3h-6zm6,-169h6v8h-6zm0,11h6v37h-6zm0,42h6v2h-6zm0,111h6v2h-6zm6,-159h6v6h-6zm0,8h6v29h-6zm0,37h6v3h-6zm0,111h6v3h-6zm6,-158h7v5h-7zm0,8h7v37h-7zm0,140h7v5h-7zm7,-151h6v3h-6zm0,5h6v50h-6zm0,143h6v3h-6zm6,-145h6v39h-6zm0,42h6v3h-6zm0,5h6v3h-6zm0,87h6v8h-6zm6,-142h6v5h-6zm0,10h6v50h-6zm0,122h6v10h-6zm6,-140h7v2h-7zm0,5h7v3h-7zm0,5h7v3h-7zm0,6h7v42h-7zm0,45h7v2h-7zm0,5h7v2h-7zm0,5h7v3h-7zm0,58h7v8h-7zm7,-113h6v45h-6zm0,47h6v5h-6zm0,53h6v11h-6zm6,-103h6v48h-6zm0,50h6v5h-6zm0,40h6v18h-6zm6,-90h6v5h-6zm0,8h6v55h-6zm0,58h6v5h-6zm0,8h6v3h-6zm0,11h6v13h-6zm6,-80h7v6h-7zm0,8h7v77h-7zm0,219h7v3h-7zm7,-224h6v3h-6zm0,5h6v50h-6zm0,53h6v16h-6zm0,166h6v3h-6zm6,-216h6v8h-6zm0,13h6v5h-6zm0,11h6v2h-6zm0,192h6v3h-6zm6,-192h6v2h-6zm31,50h6v8h-6zm6,-29h7v63h-7zm7,-21h6v2h-6zm0,5h6v3h-6zm0,5h6v35h-6zm0,37h6v3h-6zm0,8h6v3h-6zm0,37h6v8h-6zm6,-95h6v34h-6zm0,106h6v5h-6zm6,-119h6v2h-6zm0,10h6v32h-6zm0,37h6v3h-6zm0,80h6v2h-6zm6,-125h6v40h-6zm0,130h6v2h-6zm6,-135h7v40h-7zm0,42h7v3h-7zm0,98h7v3h-7zm7,-137h6v37h-6zm0,142h6v3h-6zm6,-155h6v2h-6zm0,5h6v39h-6zm0,153h6v3h-6zm6,-156h6v6h-6zm0,8h6v27h-6zm6,-10h7v2h-7zm0,5h7v37h-7zm0,158h7v3h-7zm7,-163h6v5h-6zm0,10h6v29h-6zm0,153h6v3h-6zm6,-166h6v3h-6zm0,8h6v29h-6zm0,32h6v5h-6zm6,-40h6v5h-6zm0,8h6v29h-6zm6,-11h7v3h-7zm0,8h7v29h-7zm0,32h7v3h-7zm0,5h7v3h-7zm7,-39h6v31h-6zm0,39h6v3h-6zm6,-42h6v40h-6zm0,42h6v3h-6zm0,111h6v3h-6zm6,-161h6v3h-6zm0,8h6v34h-6zm0,37h6v3h-6zm0,5h6v3h-6zm6,-47h6v2h-6zm0,5h6v29h-6zm0,145h6v3h-6zm6,-150h7v2h-7zm0,5h7v29h-7zm0,32h7v2h-7zm0,105h7v6h-7zm7,-140h6v43h-6zm0,135h6v3h-6zm6,-137h6v37h-6zm0,39h6v6h-6zm0,87h6v8h-6zm6,-126h6v39h-6zm0,47h6v3h-6zm0,66h6v11h-6zm6,-108h7v34h-7zm0,40h7v2h-7zm0,5h7v2h-7zm0,50h7v8h-7zm7,-95h6v34h-6zm0,37h6v8h-6zm0,47h6v11h-6zm6,-84h6v50h-6zm0,55h6v11h-6zm0,14h6v18h-6zm6,-72h6v3h-6zm0,6h6v2h-6zm0,8h6v73h-6zm6,-6h7v3h-7zm0,6h7v2h-7zm0,5h7v63h-7zm7,-3h6v29h-6zm0,32h6v8h-6zm0,10h6v3h-6zm0,6h6v2h-6zm0,5h6v8h-6zm37,-13h6v5h-6zm0,10h6v56h-6zm6,-29h6v3h-6zm0,8h6v3h-6zm0,8h6v3h-6zm0,5h6v29h-6zm0,32h6v3h-6zm0,34h6v8h-6zm6,-92h7v3h-7zm0,5h7v6h-7zm0,8h7v5h-7zm0,8h7v21h-7zm0,82h7v5h-7zm7,-121h6v2h-6zm0,15h6v3h-6zm0,6h6v2h-6zm0,5h6v29h-6zm0,32h6v5h-6zm0,74h6v2h-6zm6,-125h6v40h-6zm0,43h6v2h-6zm0,87h6v2h-6zm6,-140h6v8h-6zm0,10h6v40h-6zm0,132h6v3h-6zm6,-139h7v44h-7zm0,145h7v2h-7zm7,-143h6v45h-6zm0,148h6v3h-6zm6,-153h6v3h-6zm0,8h6v5h-6zm0,8h6v31h-6zm0,34h6v3h-6zm0,106h6v2h-6zm6,-156h6v3h-6zm0,5h6v42h-6zm6,-2h6v5h-6zm0,7h6v32h-6zm6,-10h7v3h-7zm0,5h7v34h-7zm7,-5h6v3h-6zm0,8h6v2h-6zm0,5h6v32h-6zm0,143h6v2h-6zm6,-159h6v3h-6zm0,8h6v37h-6zm0,148h6v3h-6zm6,-153h6v29h-6zm0,32h6v5h-6zm0,7h6v3h-6zm0,111h6v3h-6zm6,-166h7v3h-7zm0,5h7v3h-7zm0,6h7v2h-7zm0,5h7v39h-7zm0,145h7v3h-7zm7,-156h6v3h-6zm0,8h6v3h-6zm0,8h6v34h-6zm0,135h6v2h-6zm6,-148h6v3h-6zm0,5h6v37h-6zm0,40h6v2h-6zm0,98h6v5h-6zm6,-143h6v3h-6zm0,5h6v3h-6zm0,6h6v31h-6zm0,39h6v3h-6zm6,-50h7v45h-7zm0,132h7v5h-7zm7,-135h6v45h-6zm0,48h6v5h-6zm0,79h6v5h-6zm6,-127h6v3h-6zm0,6h6v42h-6zm0,44h6v3h-6zm0,64h6v8h-6zm6,-116h6v8h-6zm0,13h6v34h-6zm0,37h6v8h-6zm0,58h6v8h-6zm6,-106h6v3h-6zm0,8h6v42h-6zm0,87h6v11h-6zm6,-92h7v3h-7zm0,8h7v53h-7zm0,76h7v14h-7zm7,-73h6v81h-6zm6,2h6v3h-6zm0,11h6v55h-6zm6,5h6v5h-6zm0,13h6v3h-6zm0,29h6v3h-6zm31,13h7v11h-7zm0,14h7v2h-7zm7,-53h6v2h-6zm0,8h6v2h-6zm0,8h6v2h-6zm0,5h6v58h-6zm6,-13h6v31h-6zm0,74h6v8h-6zm6,-93h6v3h-6zm0,6h6v31h-6zm0,97h6v6h-6zm6,-113h6v34h-6zm0,37h6v2h-6zm0,84h6v3h-6zm6,-132h7v48h-7zm0,137h7v3h-7zm7,-137h6v34h-6zm0,42h6v3h-6zm0,101h6v2h-6zm6,-140h6v2h-6zm0,5h6v26h-6zm0,29h6v3h-6zm6,-50h6v3h-6zm0,11h6v2h-6zm0,5h6v24h-6zm0,26h6v3h-6zm0,122h6v2h-6zm6,-156h7v3h-7zm0,5h7v29h-7zm7,-10h6v2h-6zm0,5h6v3h-6zm0,5h6v24h-6zm0,156h6v3h-6zm6,-158h6v26h-6zm0,29h6v2h-6zm0,129h6v3h-6zm6,-166h6v37h-6zm0,166h6v3h-6zm6,-164h7v35h-7zm0,164h7v3h-7zm7,-164h6v29h-6zm0,32h6v3h-6zm0,129h6v3h-6zm6,-163h6v8h-6zm0,10h6v19h-6zm0,151h6v2h-6zm6,-161h6v5h-6zm0,8h6v29h-6zm0,147h6v3h-6zm6,-153h6v32h-6zm0,35h6v2h-6zm0,113h6v3h-6zm6,-158h7v2h-7zm0,5h7v32h-7zm0,37h7v3h-7zm0,111h7v2h-7zm7,-153h6v2h-6zm0,5h6v37h-6zm0,143h6v2h-6zm6,-151h6v3h-6zm0,5h6v3h-6zm0,6h6v37h-6zm0,132h6v5h-6zm6,-140h6v2h-6zm0,8h6v34h-6zm0,126h6v3h-6zm6,-134h7v10h-7zm0,13h7v29h-7zm0,37h7v2h-7zm0,74h7v8h-7zm7,-122h6v37h-6zm0,43h6v5h-6zm0,71h6v8h-6zm6,-124h6v2h-6zm0,5h6v16h-6zm0,19h6v31h-6zm0,36h6v3h-6zm0,51h6v13h-6zm6,-98h6v11h-6zm0,13h6v40h-6zm0,42h6v3h-6zm0,27h6v16h-6zm6,-79h7v13h-7zm0,15h7v72h-7zm7,-7h6v73h-6zm6,-6h6v3h-6zm0,11h6v2h-6zm0,5h6v32h-6zm0,37h6v8h-6zm0,11h6v10h-6zm6,-35h6v6h-6zm37,27h7v2h-7zm0,5h7v18h-7zm0,21h7v26h-7zm7,-42h6v5h-6zm0,10h6v35h-6zm0,45h6v3h-6zm0,16h6v11h-6zm6,-71h6v26h-6zm0,29h6v3h-6zm0,5h6v5h-6zm0,53h6v5h-6zm6,-114h6v3h-6zm0,8h6v6h-6zm0,8h6v40h-6zm0,45h6v3h-6zm0,61h6v5h-6zm6,-129h6v2h-6zm0,10h6v3h-6zm0,5h6v37h-6zm0,122h6v5h-6zm6,-137h7v2h-7zm0,5h7v45h-7zm0,137h7v3h-7zm7,-148h6v16h-6zm0,19h6v34h-6zm0,134h6v3h-6zm6,-155h6v2h-6zm0,5h6v47h-6zm0,50h6v3h-6zm6,-55h6v55h-6zm6,0h7v2h-7zm0,8h7v44h-7zm7,-11h6v50h-6zm6,-5h6v2h-6zm0,8h6v47h-6zm0,163h6v3h-6zm6,-171h6v2h-6zm0,5h6v3h-6zm0,5h6v3h-6zm0,6h6v36h-6zm0,39h6v5h-6zm0,114h6v2h-6zm6,-167h7v3h-7zm0,6h7v47h-7zm7,-8h6v2h-6zm0,5h6v3h-6zm0,8h6v45h-6zm0,148h6v2h-6zm6,-164h6v3h-6zm0,5h6v40h-6zm0,43h6v7h-6zm6,-45h6v37h-6zm0,39h6v13h-6zm0,111h6v5h-6zm6,-150h6v2h-6zm0,5h6v53h-6zm0,140h6v3h-6zm6,-148h7v58h-7zm0,140h7v8h-7zm7,-148h6v13h-6zm0,16h6v42h-6zm0,47h6v3h-6zm0,80h6v5h-6zm6,-135h6v48h-6zm0,50h6v3h-6zm0,71h6v11h-6zm6,-118h6v2h-6zm0,5h6v42h-6zm0,45h6v2h-6zm0,53h6v15h-6zm6,-106h7v50h-7zm0,53h7v8h-7zm0,42h7v16h-7zm7,-98h6v72h-6zm0,74h6v3h-6zm0,14h6v18h-6zm6,-80h6v87h-6zm6,0h6v3h-6zm0,8h6v72h-6zm0,74h6v3h-6zm6,-61h7v6h-7zm0,8h7v3h-7zm0,6h7v13h-7zm0,15h7v3h-7zm7,-42h6v3h-6zm0,32h6v3h-6zm37,37h6v5h-6zm0,10h6v6h-6zm0,11h6v3h-6zm6,-53h6v3h-6zm0,8h6v66h-6zm6,-32h7v6h-7zm0,14h7v2h-7zm0,5h7v3h-7zm0,5h7v29h-7zm0,32h7v3h-7zm0,50h7v5h-7zm7,-108h6v2h-6zm0,5h6v3h-6zm0,5h6v3h-6zm0,6h6v34h-6zm0,100h6v5h-6zm6,-114h6v43h-6zm0,122h6v3h-6zm6,-132h6v3h-6zm0,10h6v29h-6zm0,32h6v5h-6zm0,8h6v3h-6zm0,87h6v3h-6zm6,-129h7v2h-7zm0,5h7v32h-7zm0,129h7v3h-7zm0,74h7v3h-7zm7,-216h6v42h-6zm0,47h6v3h-6zm0,101h6v2h-6zm0,68h6v3h-6zm6,-216h6v39h-6zm0,216h6v3h-6z"
             id="path10" />
          <path
             fill="#1063db"
             d="M0,346h6v21h-6zM0,525h6v3h-6zM6,351h6v16h-6zM6,525h6v3h-6zM12,351h7v16h-7zm0,174h7v3h-7zM19,348h6v14h-6zm0,16h6v3h-6zm0,101h6v2h-6zm0,60h6v3h-6zM25,341h6v2h-6zm0,7h6v16h-6zm0,114h6v3h-6zM31,354h6v10h-6zm6,-3h7v16h-7zm7,0h6v16h-6zm0,98h6v2h-6zM50,348h6v14h-6zm0,16h6v3h-6zm0,80h6v2h-6zm6,-96h6v14h-6zm0,90h6v3h-6zm6,-87h7v13h-7zm0,79h7v3h-7zm7,-92h6v3h-6zm0,16h6v8h-6zm0,10h6v3h-6zm0,58h6v3h-6zm6,-68h6v8h-6zm0,55h6v8h-6zm6,-58h6v16h-6zm0,45h6v13h-6zm6,-48h6v6h-6zm0,8h6v16h-6zm0,22h6v15h-6zm6,-24h7v2h-7zm0,5h7v3h-7zm0,5h7v14h-7zm0,19h7v2h-7zm69,16h6v23h-6zm6,-21h6v2h-6zm0,5h6v29h-6zm0,31h6v19h-6zm6,-39h7v26h-7zm0,63h7v3h-7zm7,-71h6v24h-6zm0,79h6v5h-6zm6,-84h6v16h-6zm0,21h6v2h-6zm0,71h6v3h-6zm6,-100h6v2h-6zm0,5h6v13h-6zm0,100h6v3h-6zm6,-103h7v16h-7zm0,19h7v5h-7zm7,-21h6v2h-6zm0,5h6v13h-6zm6,-18h6v5h-6zm0,7h6v19h-6zm6,-5h6v24h-6zm6,-2h7v10h-7zm0,13h7v13h-7zm7,-13h6v2h-6zm0,5h6v18h-6zm6,0h6v2h-6zm0,5h6v13h-6zm0,16h6v3h-6zm0,92h6v3h-6zm6,-118h6v5h-6zm0,7h6v16h-6zm6,-13h6v8h-6zm0,11h6v13h-6zm0,16h6v5h-6zm0,87h6v5h-6zm6,-108h7v23h-7zm0,100h7v3h-7zm7,-93h6v19h-6zm0,88h6v5h-6zm6,-101h6v3h-6zm0,6h6v2h-6zm0,5h6v18h-6zm0,82h6v2h-6zm6,-80h6v14h-6zm0,64h6v8h-6zm6,-74h7v3h-7zm0,5h7v3h-7zm0,5h7v3h-7zm0,6h7v8h-7zm0,34h7v3h-7zm0,11h7v10h-7zm0,126h7v3h-7zm7,-184h6v2h-6zm0,7h6v16h-6zm0,32h6v16h-6zm0,145h6v3h-6zm6,-184h6v2h-6zm0,7h6v35h-6zm0,177h6v3h-6zm6,-169h6v3h-6zm0,8h6v3h-6zm0,6h6v8h-6zm0,155h6v3h-6zM368,378h6v2h-6zm0,5h6v5h-6zm0,8h6v34h-6zm6,-27h6v32h-6zm0,69h6v3h-6zm6,-74h6v5h-6zm0,8h6v16h-6zm0,24h6v2h-6zm0,50h6v3h-6zm6,-82h6v19h-6zm0,87h6v3h-6zm6,-92h7v2h-7zm0,5h7v13h-7zm0,16h7v3h-7zm7,-21h6v16h-6zm0,103h6v2h-6zm6,-109h6v16h-6zm6,-7h6v23h-6zm0,124h6v2h-6zm6,-119h7v16h-7zm0,18h7v3h-7zm7,-21h6v16h-6zm0,19h6v5h-6zm6,-24h6v3h-6zm0,8h6v16h-6zm0,119h6v2h-6zm6,-127h6v26h-6zm0,124h6v3h-6zm6,-127h7v3h-7zm0,6h7v2h-7zm0,5h7v16h-7zm0,113h7v3h-7zm7,-124h6v8h-6zm0,11h6v13h-6zm0,16h6v2h-6zm0,95h6v2h-6zm6,-116h6v2h-6zm0,5h6v18h-6zm0,105h6v3h-6zm6,-116h6v3h-6zm0,6h6v2h-6zm0,5h6v13h-6zm0,16h6v2h-6zm0,87h6v2h-6zm6,-119h6v32h-6zm0,111h6v5h-6zm6,-111h7v3h-7zm0,5h7v27h-7zm0,101h7v2h-7zm7,-95h6v21h-6zm0,87h6v5h-6zm6,-95h6v2h-6zm0,8h6v21h-6zm0,71h6v2h-6zm0,5h6v5h-6zm6,-82h6v8h-6zm0,11h6v13h-6zm0,53h6v10h-6zm6,-64h7v6h-7zm0,8h7v3h-7zm0,5h7v19h-7zm0,22h7v2h-7zm0,10h7v16h-7zm7,-45h6v3h-6zm0,11h6v39h-6zm6,5h6v5h-6zm0,16h6v3h-6zm62,18h6v3h-6zm0,6h6v31h-6zm6,-19h7v32h-7zm0,56h7v5h-7zm7,-61h6v3h-6zm0,8h6v18h-6zm0,21h6v3h-6zm0,42h6v6h-6zm6,-79h6v3h-6zm0,5h6v24h-6zm0,82h6v3h-6zm6,-87h6v13h-6zm0,16h6v5h-6zm6,-19h7v19h-7zm0,98h7v3h-7zm7,-95h6v13h-6zm0,100h6v3h-6zm6,-103h6v3h-6zm0,6h6v8h-6zm0,13h6v3h-6zm6,-19h6v16h-6zm0,109h6v2h-6zm6,-114h6v13h-6zm6,-3h7v16h-7zm7,6h6v13h-6zm6,-3h6v11h-6zm6,-13h6v3h-6zm0,8h6v2h-6zm0,5h6v13h-6zm6,-3h7v14h-7zm7,0h6v16h-6zm6,-5h6v3h-6zm0,5h6v11h-6zm0,14h6v2h-6zm6,-19h6v8h-6zm0,11h6v10h-6zm0,84h6v3h-6zm6,-92h7v16h-7zm0,84h7v3h-7zm7,-87h6v3h-6zm0,8h6v8h-6zm0,66h6v8h-6zm6,-71h6v2h-6zm0,5h6v13h-6zm0,53h6v8h-6zm6,-61h6v3h-6zm0,11h6v10h-6zm0,13h6v3h-6zm0,26h6v11h-6zm6,-45h6v45h-6zm6,14h7v23h-7zm63,23h6v35h-6zm0,37h6v6h-6zm6,-50h6v19h-6zm0,21h6v3h-6zm0,40h6v5h-6zm6,-74h6v3h-6zm0,5h6v19h-6zm0,80h6v2h-6zm6,-82h7v18h-7zm0,87h7v2h-7zm7,-101h6v8h-6zm0,11h6v19h-6zm0,95h6v3h-6zm6,-106h6v3h-6zm0,6h6v18h-6zm0,24h6v2h-6zm0,81h6v3h-6zm6,-118h6v2h-6zm0,5h6v24h-6zm6,-3h7v21h-7zm0,124h7v3h-7zm7,-129h6v24h-6zm6,0h6v3h-6zm0,5h6v19h-6zm6,-2h6v21h-6zm6,0h7v13h-7zm0,15h7v3h-7zm7,-21h6v3h-6zm0,6h6v18h-6zm6,-8h6v18h-6zm0,129h6v3h-6zm6,-121h6v18h-6zm0,116h6v2h-6zm6,-119h6v3h-6zm0,5h6v11h-6zm0,13h6v3h-6zm0,95h6v3h-6zm6,-118h7v5h-7zm0,8h7v18h-7zm0,23h7v3h-7zm0,82h7v3h-7zm7,-108h6v16h-6zm0,18h6v6h-6zm0,85h6v3h-6zm6,-100h6v21h-6zm0,92h6v3h-6zm6,-95h6v26h-6zm0,87h6v5h-6zm6,-87h7v8h-7zm0,10h7v19h-7zm0,69h7v3h-7zm7,-82h6v6h-6zm0,11h6v21h-6zm0,53h6v2h-6zm0,5h6v8h-6zm6,-61h6v5h-6zm0,8h6v16h-6zm0,19h6v5h-6zm0,8h6v2h-6zm0,5h6v16h-6zm6,-29h6v2h-6zm0,5h6v24h-6zm69,32h6v10h-6zm0,13h6v13h-6zm6,-32h6v3h-6zm0,6h6v2h-6zm0,7h6v19h-6zm0,22h6v5h-6zm0,7h6v19h-6zm6,-39h6v5h-6zm0,8h6v18h-6zm0,53h6v5h-6zm6,-72h6v27h-6zm0,80h6v5h-6zm6,-82h7v13h-7zm7,-3h6v19h-6zm6,-3h6v3h-6zm0,6h6v10h-6zm0,13h6v3h-6zm0,87h6v3h-6zm6,-103h6v11h-6zm6,-3h7v16h-7zm0,22h7v2h-7zm0,89h7v3h-7zm7,-116h6v16h-6zm0,116h6v3h-6zm6,-116h6v16h-6zm6,-3h6v3h-6zm0,8h6v14h-6zm6,-5h7v16h-7zm0,108h7v3h-7zm7,-105h6v10h-6zm6,-16h6v3h-6zm0,10h6v19h-6zm0,103h6v3h-6zm6,-118h6v2h-6zm0,15h6v22h-6zm0,96h6v2h-6zm6,-90h6v8h-6zm0,84h6v3h-6zm6,-87h7v16h-7zm0,79h7v3h-7zm7,-87h6v5h-6zm0,8h6v13h-6zm0,69h6v8h-6zm6,-79h6v2h-6zm0,5h6v18h-6zm0,58h6v10h-6zm6,-61h6v3h-6zm0,5h6v19h-6zm0,22h6v2h-6zm0,10h6v19h-6zm6,-37h7v3h-7zm0,11h7v34h-7zm7,8h6v2h-6zm0,5h6v11h-6zm74,5h7v3h-7zm0,6h7v47h-7zm7,-11h6v26h-6zm0,63h6v3h-6zm6,-68h6v16h-6zm0,21h6v2h-6zm0,55h6v3h-6zm6,-90h6v3h-6zm0,8h6v3h-6zm0,6h6v8h-6zm0,10h6v6h-6zm0,8h6v3h-6zm6,-26h7v26h-7zm0,29h7v2h-7zm7,-32h6v5h-6zm0,8h6v11h-6zm6,-11h6v16h-6zm0,19h6v3h-6zm0,92h6v3h-6z"
             id="path12" />
          <path
             fill="#1171d8"
             d="M0,367h6v16h-6zm0,18h6v6h-6zM6,367h6v18h-6zm6,0h7v24h-7zm7,-5h6v2h-6zm0,5h6v16h-6zm0,21h6v3h-6zm6,-24h6v11h-6zm0,161h6v3h-6zM31,364h6v19h-6zm0,93h6v2h-6zm0,68h6v3h-6zM37,367h7v21h-7zm0,84h7v3h-7zm0,74h7v3h-7zM44,367h6v11h-6zm0,13h6v3h-6zm0,66h6v3h-6zm0,79h6v3h-6zM50,362h6v2h-6zm0,5h6v11h-6zm0,74h6v3h-6zm0,84h6v3h-6zM56,362h6v16h-6zm0,74h6v2h-6zm6,-72h7v14h-7zm0,19h7v2h-7zm0,42h7v5h-7zm7,-63h6v2h-6zm0,5h6v13h-6zm0,16h6v2h-6zm0,29h6v10h-6zm6,-50h6v18h-6zm0,21h6v5h-6zm0,8h6v5h-6zm0,8h6v10h-6zm6,-32h6v29h-6zm6,5h6v6h-6zm81,40h6v2h-6zm6,-11h7v13h-7zm0,27h7v10h-7zm7,-37h6v18h-6zm0,50h6v5h-6zm6,-63h6v5h-6zm0,7h6v11h-6zm6,-13h6v24h-6zm6,0h7v3h-7zm0,8h7v13h-7zm0,82h7v3h-7zm7,-90h6v21h-6zm6,-5h6v18h-6zm0,100h6v3h-6zm6,-100h6v11h-6zm0,13h6v3h-6zm0,87h6v3h-6zm6,-100h7v8h-7zm0,11h7v5h-7zm7,-14h6v19h-6zm0,21h6v3h-6zm0,8h6v3h-6zm0,69h6v3h-6zm6,-98h6v3h-6zm0,6h6v10h-6zm6,-6h6v16h-6zm0,90h6v3h-6zm6,-95h6v3h-6zm0,8h6v11h-6zm0,18h6v3h-6zm0,61h6v3h-6zm6,-82h7v16h-7zm0,19h7v2h-7zm0,55h7v3h-7zm0,87h7v3h-7zm7,-158h6v11h-6zm0,63h6v6h-6zm0,95h6v3h-6zm6,-161h6v16h-6zm0,19h6v2h-6zm0,29h6v16h-6zm0,113h6v3h-6zm6,-163h6v16h-6zm0,18h6v3h-6zm0,8h6v3h-6zm0,5h6v3h-6zm0,6h6v13h-6zm0,126h6v3h-6zm6,-163h7v26h-7zm0,29h7v8h-7zm7,-27h6v16h-6zm87,32h6v37h-6zm6,-13h6v8h-6zm0,10h6v16h-6zm0,45h6v3h-6zm6,-60h6v29h-6zm0,34h6v2h-6zm6,-40h7v3h-7zm0,6h7v26h-7zm0,73h7v3h-7zm7,-81h6v29h-6zm6,-6h6v27h-6zm0,32h6v3h-6zm6,-32h6v14h-6zm0,19h6v2h-6zm6,-21h7v2h-7zm0,5h7v13h-7zm0,16h7v2h-7zm0,8h7v2h-7zm7,-32h6v3h-6zm0,8h6v13h-6zm0,18h6v3h-6zm6,-23h6v10h-6zm0,13h6v5h-6zm6,-11h6v6h-6zm0,8h6v8h-6zm6,-10h7v10h-7zm7,-3h6v3h-6zm0,5h6v16h-6zm0,90h6v3h-6zm6,-90h6v19h-6zm6,-5h6v3h-6zm0,5h6v8h-6zm0,11h6v3h-6zm0,71h6v3h-6zm6,-84h6v13h-6zm0,76h6v3h-6zm6,-76h7v10h-7zm0,13h7v3h-7zm0,8h7v2h-7zm0,47h7v6h-7zm7,-68h6v21h-6zm0,26h6v3h-6zm0,21h6v19h-6zm6,-47h6v23h-6zm0,26h6v3h-6zm0,11h6v13h-6zm0,15h6v3h-6zm6,-55h6v40h-6zm6,8h7v3h-7zm0,5h7v8h-7zm81,32h7v24h-7zm7,-11h6v3h-6zm0,6h6v10h-6zm0,13h6v2h-6zm0,24h6v2h-6zm6,-48h6v13h-6zm0,56h6v2h-6zm6,-72h6v3h-6zm0,8h6v13h-6zm0,16h6v5h-6zm0,53h6v2h-6zm6,-74h7v21h-7zm7,-3h6v21h-6zm0,24h6v3h-6zm0,5h6v3h-6zm6,-31h6v5h-6zm0,8h6v10h-6zm0,15h6v3h-6zm0,69h6v3h-6zm6,-90h6v16h-6zm6,-8h6v19h-6zm6,0h7v16h-7zm0,101h7v2h-7zm7,-98h6v18h-6zm6,-5h6v10h-6zm0,13h6v3h-6zm0,84h6v3h-6zm6,-95h6v16h-6zm0,93h6v2h-6zm6,-95h7v10h-7zm0,13h7v3h-7zm0,76h7v3h-7zm7,-87h6v16h-6zm0,82h6v3h-6zm6,-87h6v3h-6zm0,5h6v16h-6zm0,77h6v3h-6zm6,-77h6v8h-6zm0,14h6v2h-6zm0,58h6v2h-6zm6,-74h7v10h-7zm0,18h7v3h-7zm0,45h7v5h-7zm7,-66h6v24h-6zm0,53h6v5h-6zm6,-48h6v11h-6zm0,14h6v7h-6zm0,10h6v16h-6zm6,-24h6v3h-6zm0,6h6v23h-6zm75,50h6v2h-6zm6,-29h6v2h-6zm0,5h6v11h-6zm0,13h6v3h-6zm0,5h6v3h-6zm0,16h6v3h-6zm6,-47h6v16h-6zm0,58h6v3h-6zm6,-61h7v13h-7zm0,16h7v3h-7zm7,-18h6v13h-6zm0,15h6v3h-6zm6,-21h6v6h-6zm0,8h6v13h-6zm6,-10h6v18h-6zm0,92h6v3h-6zm6,-98h7v16h-7zm7,-2h6v16h-6zm6,0h6v23h-6zm6,0h6v16h-6zm0,18h6v3h-6zm6,-26h7v2h-7zm0,5h7v16h-7zm0,19h7v2h-7zm7,-19h6v13h-6zm0,19h6v2h-6zm0,87h6v2h-6zm6,-114h6v21h-6zm0,108h6v3h-6zm6,-100h6v19h-6zm0,95h6v3h-6zm6,-100h6v2h-6zm0,5h6v21h-6zm0,90h6v2h-6zm6,-90h7v5h-7zm0,8h7v13h-7zm0,77h7v2h-7zm7,-90h6v2h-6zm0,8h6v8h-6zm0,10h6v6h-6zm0,66h6v3h-6zm6,-76h6v18h-6zm0,66h6v5h-6zm6,-64h6v14h-6zm0,21h6v3h-6zm0,32h6v8h-6zm6,-50h7v11h-7zm0,16h7v5h-7zm0,10h7v3h-7zm0,6h7v8h-7zm0,10h7v8h-7zm7,-42h6v32h-6zm0,34h6v3h-6zm6,-34h6v3h-6zm0,8h6v3h-6zm0,5h6v3h-6zm81,24h6v3h-6zm0,8h6v2h-6zm6,-11h6v19h-6zm0,24h6v11h-6zm6,-34h6v16h-6zm6,-16h7v26h-7zm0,76h7v3h-7zm7,-73h6v13h-6zm0,18h6v3h-6zm0,61h6v2h-6zm6,-85h6v3h-6zm0,6h6v13h-6zm6,-8h6v26h-6zm0,95h6v2h-6zm6,-93h7v6h-7zm0,8h7v11h-7zm7,-13h6v18h-6zm6,0h6v18h-6zm0,98h6v2h-6zm6,-95h6v18h-6zm0,92h6v3h-6zm6,-95h7v21h-7zm7,-3h6v14h-6zm0,16h6v3h-6zm0,5h6v6h-6zm0,69h6v3h-6zm6,-87h6v11h-6zm0,13h6v3h-6zm0,69h6v2h-6zm6,-79h6v13h-6zm0,71h6v3h-6zm6,-79h6v16h-6zm0,18h6v3h-6zm0,53h6v5h-6zm6,-66h7v13h-7zm0,16h7v2h-7zm0,42h7v5h-7zm7,-61h6v16h-6zm0,19h6v13h-6zm0,26h6v11h-6zm6,-45h6v40h-6zm6,3h6v3h-6zm0,5h6v8h-6zm94,21h6v21h-6zm0,24h6v13h-6zm6,-39h6v5h-6zm0,7h6v19h-6zm0,22h6v2h-6zm6,-37h6v2h-6zm0,8h6v2h-6zm0,5h6v13h-6zm0,16h6v2h-6zm0,45h6v2h-6zm6,-64h7v3h-7zm0,5h7v14h-7zm0,64h7v2h-7zm7,-79h6v23h-6zm0,84h6v3h-6zm6,-90h6v3h-6zm0,6h6v13h-6zm0,18h6v3h-6z"
             id="path14" />
          <path
             fill="#1380d5"
             d="M0,383h6v2h-6zm0,8h6v2h-6zm0,5h6v5h-6zm0,8h6v3h-6zm0,58h6v3h-6zM6,385h6v19h-6zm0,80h6v2h-6zm6,-74h7v13h-7zm0,74h7v2h-7zm7,-82h6v5h-6zm0,8h6v10h-6zm6,-16h6v26h-6zm6,8h6v18h-6zm6,5h7v13h-7zm7,-10h6v2h-6zm0,5h6v18h-6zm6,-5h6v15h-6zm0,18h6v5h-6zm0,42h6v3h-6zm6,-60h6v15h-6zm0,18h6v5h-6zm0,37h6v3h-6zm0,92h6v3h-6zM62,378h7v5h-7zm0,7h7v19h-7zm0,22h7v18h-7zm0,118h7v3h-7zM69,380h6v3h-6zm0,5h6v27h-6zm0,140h6v3h-6zM75,380h6v3h-6zm0,8h6v3h-6zm0,8h6v3h-6zm0,129h6v3h-6zm12,0h6v3h-6zM174,414h7v14h-7zm7,-2h6v8h-6zm0,26h6v3h-6zm6,-42h6v16h-6zm0,55h6v3h-6zm6,-55h6v13h-6zm0,61h6v2h-6zm6,-64h7v14h-7zm7,0h6v11h-6zm0,72h6v2h-6zm6,-80h6v16h-6zm6,-7h6v2h-6zm0,5h6v16h-6zm6,-8h7v3h-7zm0,8h7v13h-7zm0,16h7v2h-7zm0,66h7v2h-7zm7,-82h6v2h-6zm0,5h6v5h-6zm0,11h6v5h-6zm6,-19h6v19h-6zm0,77h6v2h-6zm0,68h6v3h-6zm6,-145h6v13h-6zm0,145h6v3h-6zm6,-147h6v7h-6zm0,10h6v5h-6zm0,56h6v2h-6zm0,81h6v3h-6zm6,-145h7v3h-7zm0,5h7v14h-7zm0,51h7v2h-7zm7,-58h6v29h-6zm0,31h6v3h-6zm0,5h6v3h-6zm0,11h6v5h-6zm6,-45h6v3h-6zm0,5h6v27h-6zm6,-7h6v2h-6zm0,5h6v5h-6zm0,8h6v2h-6zm0,5h6v3h-6zm106,13h6v13h-6zm0,24h6v5h-6zm6,-26h6v5h-6zm0,7h6v3h-6zm0,30h6v2h-6zm6,-40h7v8h-7zm0,45h7v2h-7zm7,-50h6v8h-6zm0,10h6v3h-6zm6,-18h6v5h-6zm0,8h6v10h-6zm0,60h6v3h-6zm6,-81h6v5h-6zm0,7h6v19h-6zm6,-5h7v3h-7zm0,5h7v6h-7zm0,8h7v8h-7zm0,11h7v3h-7zm0,61h7v2h-7zm7,-85h6v5h-6zm0,8h6v13h-6zm0,77h6v2h-6zm6,-93h6v3h-6zm0,8h6v16h-6zm0,19h6v2h-6zm6,-29h6v2h-6zm0,10h6v13h-6zm0,16h6v3h-6zm6,-24h7v24h-7zm0,85h7v2h-7zm7,-77h6v21h-6zm6,3h6v13h-6zm0,16h6v2h-6zm0,50h6v2h-6zm6,-77h6v3h-6zm0,6h6v23h-6zm0,26h6v3h-6zm0,40h6v2h-6zm6,-69h6v29h-6zm6,-3h7v3h-7zm0,6h7v5h-7zm0,7h7v22h-7zm0,24h7v5h-7zm0,16h7v5h-7zm7,-42h6v5h-6zm0,8h6v18h-6zm6,-6h6v3h-6zm0,6h6v8h-6zm100,18h6v3h-6zm0,5h6v22h-6zm6,-13h6v13h-6zm6,-8h6v3h-6zm0,8h6v8h-6zm0,45h6v3h-6zm6,-50h7v11h-7zm0,55h7v3h-7zm7,-58h6v3h-6zm0,6h6v2h-6zm0,5h6v3h-6zm0,53h6v2h-6zm6,-69h6v5h-6zm0,8h6v8h-6zm6,-8h6v16h-6zm6,-5h6v18h-6zm0,82h6v2h-6zm6,-85h7v19h-7zm7,5h6v14h-6zm0,77h6v3h-6zm6,-90h6v3h-6zm0,6h6v18h-6zm6,2h6v11h-6zm0,13h6v3h-6zm0,6h6v2h-6zm6,-27h7v3h-7zm0,6h7v13h-7zm0,15h7v3h-7zm0,56h7v2h-7zm7,-69h6v13h-6zm0,16h6v3h-6zm0,48h6v2h-6zm6,-64h6v19h-6zm0,21h6v3h-6zm0,37h6v3h-6zm6,-66h6v6h-6zm0,8h6v16h-6zm0,53h6v3h-6zm6,-61h7v8h-7zm0,11h7v13h-7zm0,29h7v13h-7zm7,-29h6v29h-6zm6,-8h6v3h-6zm0,10h6v3h-6zm87,22h6v2h-6zm0,5h6v2h-6zm0,5h6v13h-6zm6,-18h6v13h-6zm0,15h6v3h-6zm0,24h6v3h-6zm6,-45h7v3h-7zm0,6h7v2h-7zm0,5h7v3h-7zm0,42h7v3h-7zm7,-55h6v2h-6zm0,5h6v8h-6zm0,55h6v3h-6zm6,-58h6v8h-6zm0,64h6v2h-6zm6,-69h6v5h-6zm0,8h6v3h-6zm6,-16h7v11h-7zm7,-2h6v13h-6zm6,7h6v6h-6zm0,8h6v3h-6zm6,-15h6v2h-6zm0,5h6v13h-6zm6,-8h7v3h-7zm0,5h7v16h-7zm0,87h7v3h-7zm7,-95h6v6h-6zm0,8h6v11h-6zm6,-8h6v11h-6zm0,13h6v8h-6zm6,-7h6v13h-6zm0,18h6v3h-6zm6,-16h6v16h-6zm0,66h6v3h-6zm6,-66h7v13h-7zm0,61h7v3h-7zm7,-71h6v2h-6zm0,8h6v10h-6zm0,13h6v2h-6zm0,5h6v3h-6zm0,40h6v2h-6zm6,-56h6v21h-6zm0,45h6v3h-6zm6,-47h6v7h-6zm0,10h6v29h-6zm6,-10h7v5h-7zm0,10h7v5h-7zm0,8h7v3h-7zm0,11h7v2h-7zm100,13h6v5h-6zm6,-13h6v13h-6zm0,31h6v6h-6zm6,-37h7v11h-7zm0,48h7v2h-7zm7,-58h6v5h-6zm0,8h6v8h-6zm0,10h6v3h-6zm6,-18h6v16h-6zm0,68h6v3h-6zm6,-63h6v8h-6zm6,-5h7v10h-7zm7,-6h6v11h-6zm6,0h6v11h-6zm6,3h6v11h-6zm6,0h7v8h-7zm0,69h7v2h-7zm7,-79h6v2h-6zm0,5h6v2h-6zm0,8h6v5h-6zm6,-13h6v2h-6zm0,5h6v10h-6zm0,13h6v3h-6zm0,50h6v3h-6zm6,-63h6v13h-6zm0,55h6v3h-6zm6,-60h6v2h-6zm0,5h6v21h-6zm0,47h6v3h-6zm6,-50h7v3h-7zm0,5h7v40h-7zm7,-5h6v3h-6zm0,16h6v13h-6zm106,18h6v3h-6zm6,-10h6v3h-6zm0,5h6v11h-6zm0,21h6v8h-6zm6,-34h6v3h-6zm0,5h6v11h-6zm0,40h6v3h-6zm6,-42h7v10h-7zm0,47h7v3h-7zm7,-53h6v11h-6zm6,-10h6v5h-6zm0,8h6v13h-6z"
             id="path16" />
          <path
             fill="#0e8ed0"
             d="M0,393h6v3h-6zm0,8h6v3h-6zm0,11h6v2h-6zm6,-8h6v5h-6zm6,0h7v5h-7zm7,-3h6v8h-6zm6,0h6v6h-6zm0,58h6v3h-6zm6,-58h6v11h-6zm0,53h6v3h-6zm6,-53h7v6h-7zm0,8h7v3h-7zm0,40h7v2h-7zm7,-48h6v8h-6zm0,43h6v2h-6zm6,-51h6v3h-6zm0,8h6v11h-6zm6,-8h6v3h-6zm0,8h6v13h-6zm0,27h6v5h-6zm6,-24h7v3h-7zM81,525h6v3h-6zm12,0h7v3h-7zm7,0h6v3h-6zm6,0h6v3h-6zm6,0h6v3h-6zm6,0h7v3h-7zm7,0h6v3h-6zm6,0h6v3h-6zm6,0h6v3h-6zm13,0h6v3h-6zm12,0h6v3h-6zm6,0h6v3h-6zm6,0h7v3h-7zm7,-116h6v3h-6zm0,11h6v8h-6zm0,13h6v5h-6zm6,-21h6v8h-6zm0,32h6v7h-6zm0,81h6v3h-6zm6,-116h6v8h-6zm0,116h6v3h-6zm6,-118h7v5h-7zm0,118h7v3h-7zm7,-121h6v8h-6zm0,121h6v3h-6zm6,-124h6v8h-6zm0,124h6v3h-6zm6,-126h6v5h-6zm0,126h6v3h-6zm6,-129h7v3h-7zm0,5h7v6h-7zm0,124h7v3h-7zm7,-129h6v3h-6zm0,8h6v3h-6zm0,121h6v3h-6zm6,-126h6v8h-6zm6,-6h6v14h-6zm0,58h6v3h-6zm6,-58h6v19h-6zm0,48h6v3h-6zm6,-42h7v15h-7zm0,18h7v3h-7zm0,13h7v6h-7zm7,-23h6v2h-6zm0,5h6v2h-6zm0,5h6v8h-6zm118,5h6v11h-6zm6,-5h6v8h-6zm0,24h6v3h-6zm6,-29h7v10h-7zm7,-5h6v2h-6zm0,5h6v5h-6zm0,42h6v3h-6zm6,-45h6v5h-6zm6,-5h6v8h-6zm0,58h6v3h-6zm6,-61h7v3h-7zm0,6h7v2h-7zm7,-6h6v8h-6zm6,-5h6v3h-6zm0,5h6v8h-6zm0,61h6v3h-6zm6,-69h6v3h-6zm0,6h6v8h-6zm0,60h6v3h-6zm6,-63h7v13h-7zm7,5h6v11h-6zm0,50h6v3h-6zm6,-55h6v3h-6zm0,5h6v11h-6zm0,45h6v3h-6zm6,-45h6v3h-6zm0,6h6v5h-6zm0,34h6v3h-6zm6,-37h6v10h-6zm0,29h6v5h-6zm6,-26h7v2h-7zm0,7h7v11h-7zm119,0h6v11h-6zm0,24h6v6h-6zm6,-29h6v11h-6zm6,-2h7v7h-7zm7,0h6v10h-6zm6,-3h6v10h-6zm6,0h6v5h-6zm6,-3h6v8h-6zm6,-2h7v10h-7zm7,0h6v8h-6zm6,-3h6v13h-6zm6,-5h6v2h-6zm0,5h6v3h-6zm0,5h6v6h-6zm0,53h6v3h-6zm6,-63h7v2h-7zm0,5h7v11h-7zm7,-3h6v3h-6zm0,6h6v13h-6zm0,42h6v3h-6zm6,-42h6v2h-6zm0,5h6v8h-6zm0,10h6v3h-6zm0,22h6v2h-6zm6,-40h6v18h-6zm0,24h6v2h-6zm0,8h6v5h-6zm6,-32h7v16h-7zm106,16h6v2h-6zm0,5h6v3h-6zm0,5h6v3h-6zm0,8h6v8h-6zm6,-29h7v3h-7zm0,6h7v7h-7zm0,37h7v2h-7zm7,-40h6v8h-6zm6,-3h6v8h-6zm6,-8h6v3h-6zm0,6h6v5h-6zm6,-8h7v13h-7zm0,74h7v2h-7zm7,-74h6v8h-6zm0,10h6v3h-6zm0,66h6v3h-6zm6,-76h6v2h-6zm0,5h6v11h-6zm0,71h6v3h-6zm6,-71h6v8h-6zm0,71h6v3h-6zm6,-71h7v8h-7zm7,-5h6v13h-6zm0,71h6v3h-6zm6,-79h6v2h-6zm0,10h6v14h-6zm0,64h6v2h-6zm6,-66h6v5h-6zm0,8h6v8h-6zm0,52h6v3h-6zm6,-55h6v8h-6zm6,-3h7v11h-7zm0,14h7v2h-7zm0,31h7v3h-7zm7,-50h6v3h-6zm0,5h6v3h-6zm0,6h6v2h-6zm0,5h6v5h-6zm0,29h6v3h-6zm6,-32h6v8h-6zm0,11h6v13h-6zm118,8h6v5h-6zm0,8h6v5h-6zm0,8h6v2h-6zm6,-24h7v5h-7zm7,-5h6v2h-6zm0,5h6v5h-6zm0,42h6v3h-6zm6,-47h6v7h-6zm6,-3h6v8h-6zm6,-3h7v8h-7zm0,64h7v2h-7zm7,-69h6v8h-6zm0,69h6v2h-6zm6,-69h6v8h-6zm6,3h6v5h-6zm6,-3h7v11h-7zm7,0h6v8h-6zm0,55h6v3h-6zm6,-58h6v3h-6zm0,6h6v8h-6zm0,45h6v2h-6zm6,-48h6v13h-6zm0,40h6v2h-6zm6,-32h6v26h-6zm125,16h6v10h-6zm6,-8h6v10h-6zm0,26h6v3h-6zm6,-29h7v8h-7zm7,-5h6v10h-6zm0,47h6v3h-6zm6,-47h6v8h-6zm0,53h6v2h-6z"
             id="path18" />
          <path
             fill="#089dcc"
             d="M0,407h6v5h-6zm6,2h6v8h-6zm6,0h7v5h-7zm7,0h6v3h-6zm0,5h6v3h-6zm0,48h6v3h-6zm6,-55h6v7h-6zm6,5h6v2h-6zm6,-5h7v2h-7zm0,5h7v5h-7zm7,-3h6v5h-6zm6,27h6v2h-6zm6,-22h6v14h-6zm87,111h7v3h-7zm13,0h6v3h-6zm25,-97h6v5h-6zm0,97h6v3h-6zm6,-105h6v5h-6zm0,21h6v3h-6zm6,-24h6v5h-6zm0,37h6v3h-6zm6,-42h7v8h-7zm0,47h7v3h-7zm7,-47h6v5h-6zm6,-3h6v3h-6zm6,-5h6v8h-6zm6,3h7v5h-7zm7,0h6v7h-6zm0,52h6v3h-6zm6,-52h6v7h-6zm6,0h6v5h-6zm0,42h6v2h-6zm6,-37h6v8h-6zm0,26h6v3h-6zm6,-24h7v3h-7zm0,6h7v10h-7zm131,5h6v16h-6zm6,-3h7v3h-7zm0,24h7v3h-7zm7,-29h6v5h-6zm0,34h6v3h-6zm6,-37h6v6h-6zm0,43h6v2h-6zm6,-45h6v8h-6zm6,-3h7v11h-7zm7,0h6v5h-6zm6,0h6v3h-6zm6,-2h6v7h-6zm6,2h7v3h-7zm0,5h7v3h-7zm7,-2h6v5h-6zm6,0h6v8h-6zm6,0h6v8h-6zm0,26h6v3h-6zm6,-24h6v19h-6zm125,11h6v13h-6zm6,-5h6v2h-6zm0,24h6v2h-6zm6,-30h7v8h-7zm7,3h6v3h-6zm6,42h6v3h-6zm6,-50h6v8h-6zm0,53h6v3h-6zm6,-53h6v5h-6zm6,0h7v3h-7zm7,-2h6v7h-6zm6,2h6v5h-6zm0,48h6v2h-6zm6,-50h6v7h-6zm6,0h7v7h-7zm0,39h7v3h-7zm7,-34h6v8h-6zm6,0h6v2h-6zm0,5h6v8h-6zm0,13h6v6h-6zm6,-16h6v6h-6zm0,8h6v6h-6zm112,-2h6v2h-6zm0,5h6v5h-6zm6,-11h7v6h-7zm0,27h7v3h-7zm7,-29h6v8h-6zm0,37h6v2h-6zm6,-40h6v5h-6zm6,-5h6v8h-6zm0,55h6v3h-6zm6,-55h7v3h-7zm7,-5h6v2h-6zm0,5h6v3h-6zm6,3h6v2h-6zm6,-3h6v8h-6zm6,0h7v3h-7zm7,0h6v5h-6zm6,3h6v5h-6zm6,0h6v7h-6zm0,42h6v2h-6zm6,-45h6v8h-6zm0,40h6v2h-6zm6,-40h7v3h-7zm0,5h7v5h-7zm0,27h7v2h-7zm7,-35h6v3h-6zm0,8h6v16h-6zm0,19h6v5h-6zm6,-19h6v3h-6zm118,16h6v3h-6zm0,8h6v3h-6zm6,-16h7v8h-7zm0,27h7v5h-7zm7,-27h6v3h-6zm6,-3h6v3h-6zm6,-2h6v5h-6zm0,50h6v3h-6zm6,-53h7v3h-7zm7,-5h6v8h-6zm6,0h6v8h-6zm0,58h6v3h-6zm6,-58h6v10h-6zm0,55h6v3h-6zm6,-52h7v5h-7zm7,-3h6v5h-6zm6,3h6v7h-6zm0,34h6v3h-6zm6,-32h6v11h-6zm0,16h6v11h-6zm137,-3h6v6h-6zm0,8h6v8h-6zm6,-13h7v8h-7zm0,27h7v2h-7zm7,-30h6v6h-6zm6,-2h6v5h-6z"
             id="path20" />
          <path
             fill="#0da7c2"
             d="M0,414h6v8h-6zm0,45h6v3h-6zM6,417h6v5h-6zm6,-3h7v6h-7zm7,-2h6v2h-6zm6,2h6v6h-6zm6,0h6v6h-6zm6,3h7v5h-7zm0,29h7v3h-7zm7,-32h6v6h-6zm0,27h6v3h-6zm6,-29h6v10h-6zm0,18h6v6h-6zm137,-5h6v16h-6zm6,-3h6v6h-6zm6,-2h7v2h-7zm7,-3h6v3h-6zm0,45h6v3h-6zm6,-50h6v8h-6zm0,53h6v2h-6zm6,-53h6v5h-6zm6,0h7v5h-7zm7,2h6v6h-6zm6,0h6v3h-6zm0,40h6v3h-6zm6,-42h6v8h-6zm0,34h6v3h-6zm6,-26h6v5h-6zm0,8h6v2h-6zm0,8h6v2h-6zM392,425h7v5h-7zm0,19h7v2h-7zm7,-22h6v3h-6zm6,-2h6v2h-6zm6,0h6v2h-6zm6,0h7v2h-7zm7,-6h6v8h-6zm6,-2h6v5h-6zm6,2h6v6h-6zm6,-2h7v2h-7zm0,5h7v3h-7zm0,37h7v3h-7zm7,-37h6v5h-6zm0,32h6v2h-6zm6,-29h6v5h-6zm0,24h6v2h-6zm6,-24h6v5h-6zm0,16h6v2h-6zM598,422h6v6h-6zm0,19h6v3h-6zm6,-19h7v3h-7zm0,27h7v2h-7zm7,-29h6v5h-6zm0,34h6v3h-6zm6,-40h6v8h-6zm6,3h6v5h-6zm6,-3h6v6h-6zm6,-2h7v5h-7zm7,2h6v6h-6zm6,0h6v6h-6zm6,0h6v6h-6zm0,37h6v3h-6zm6,-37h7v6h-7zm0,30h7v2h-7zm7,-24h6v2h-6zm0,16h6v5h-6zm6,-11h6v5h-6zm124,-5h7v8h-7zm0,13h7v8h-7zm7,-13h6v2h-6zm6,-6h6v6h-6zm0,40h6v3h-6zm6,-42h6v5h-6zm6,-5h7v7h-7zm7,0h6v10h-6zm6,2h6v8h-6zm6,3h6v2h-6zm6,-5h7v10h-7zm0,58h7v2h-7zm7,-56h6v5h-6zm6,3h6v5h-6zm0,42h6v3h-6zm6,-40h6v3h-6zm0,6h6v2h-6zm6,-8h6v8h-6zm0,26h6v6h-6zm6,-24h7v8h-7zm0,16h7v6h-7zm7,-5h6v3h-6zm130,0h7v8h-7zm0,16h7v3h-7zm7,-21h6v2h-6zm6,-3h6v5h-6zm0,40h6v2h-6zm6,-40h6v3h-6zm6,-5h7v5h-7zm7,0h6v2h-6zm6,0h6v8h-6zm12,0h7v5h-7zm0,42h7v3h-7zm7,-45h6v8h-6zm0,40h6v2h-6zm6,-35h6v3h-6zm0,24h6v3h-6zm6,-18h6v5h-6zm137,8h6v2h-6zm6,-3h7v3h-7zm0,16h7v3h-7zm7,-21h6v2h-6zm0,5h6v3h-6zm0,24h6v2h-6zm6,-32h6v5h-6zm0,37h6v3h-6z"
             id="path22" />
          <path
             fill="#1dafb3"
             d="M6,422h6v3h-6zm0,40h6v3h-6zm6,-42h7v2h-7zm7,-3h6v5h-6zm6,3h6v2h-6zm0,37h6v2h-6zm6,-37h6v2h-6zm0,31h6v3h-6zm6,-29h7v3h-7zm0,22h7v2h-7zm7,-24h6v2h-6zm0,5h6v3h-6zm0,8h6v8h-6zm6,-11h6v8h-6zm143,6h6v2h-6zm0,23h6v3h-6zm6,-29h7v6h-7zm7,-2h6v2h-6zm6,0h6v2h-6zm6,-3h6v5h-6zm0,48h6v2h-6zm6,-48h7v5h-7zm0,45h7v3h-7zm7,-42h6v2h-6zm6,-3h6v5h-6zm6,3h6v5h-6zm0,24h6v2h-6zm6,-19h6v3h-6zm0,8h6v3h-6zm143,-3h7v14h-7zm7,-5h6v3h-6zm0,24h6v2h-6zm6,-27h6v6h-6zm0,32h6v3h-6zm6,-32h6v3h-6zm0,37h6v3h-6zm6,-37h7v3h-7zm7,40h6v3h-6zm6,-45h6v5h-6zm6,3h6v2h-6zm0,37h6v2h-6zm6,-37h7v2h-7zm7,2h6v3h-6zm0,24h6v3h-6zm6,-21h6v3h-6zm0,16h6v3h-6zm6,-16h6v11h-6zm137,3h6v13h-6zm6,-3h7v5h-7zm0,21h7v3h-7zm7,-21h6v3h-6zm6,-3h6v3h-6zm6,0h6v3h-6zm6,-2h6v5h-6zm0,42h6v3h-6zm6,-45h7v5h-7zm0,45h7v3h-7zm7,-42h6v5h-6zm0,39h6v3h-6zm6,-39h6v2h-6zm6,0h6v2h-6zm0,29h6v2h-6zm6,-29h7v5h-7zm0,21h7v3h-7zm7,-19h6v14h-6zm130,6h7v5h-7zm7,-6h6v8h-6zm0,24h6v3h-6zm6,-26h6v5h-6zm6,-3h6v5h-6zm6,-3h7v8h-7zm13,3h6v3h-6zm6,-3h6v6h-6zm6,3h7v3h-7zm7,-3h6v6h-6zm0,45h6v3h-6zm6,-42h6v3h-6zm6,0h6v3h-6zm0,5h6v6h-6zm0,24h6v3h-6zm6,-26h6v2h-6zm0,5h6v3h-6zm6,-3h7v8h-7zm137,11h7v8h-7zm7,-11h6v6h-6zm0,29h6v3h-6zm6,-29h6v3h-6zm6,-2h6v2h-6zm6,-3h7v3h-7zm7,-3h6v8h-6zm12,0h6v8h-6zm0,43h6v2h-6zm6,-40h7v5h-7zm7,0h6v3h-6zm0,29h6v3h-6zm6,-29h6v8h-6zm0,19h6v2h-6zm149,-8h7v13h-7zm7,-6h6v3h-6zm0,6h6v2h-6zm0,18h6v3h-6zm6,-24h6v3h-6z"
             id="path24" />
          <path
             fill="#2db7a3"
             d="M0,422h6v6h-6zm6,3h6v3h-6zm6,-3h7v6h-7zm0,40h7v3h-7zm7,-40h6v3h-6zm6,0h6v3h-6zm6,0h6v6h-6zm6,3h7v3h-7zm0,16h7v3h-7zm7,-19h6v3h-6zm0,6h6v5h-6zm149,2h6v21h-6zm6,-2h7v8h-7zm0,29h7v2h-7zm7,-35h6v6h-6zm6,0h6v3h-6zm6,0h6v3h-6zm6,0h7v3h-7zm7,0h6v3h-6zm0,35h6v2h-6zm6,-6h6v3h-6zm6,-26h6v3h-6zm0,13h6v6h-6zm6,-8h6v3h-6zm150,-2h6v2h-6zm0,5h6v3h-6zm0,11h6v5h-6zm6,-16h6v2h-6zm6,-3h6v3h-6zm6,0h7v3h-7zm0,37h7v3h-7zm7,-40h6v6h-6zm6,0h6v3h-6zm0,37h6v3h-6zm6,-37h6v3h-6zm6,0h7v6h-7zm7,3h6v5h-6zm0,19h6v2h-6zm6,-16h6v13h-6zm149,2h7v8h-7zm0,11h7v5h-7zm7,-13h6v5h-6zm0,23h6v3h-6zm6,-26h6v3h-6zm6,0h6v3h-6zm6,0h6v3h-6zm6,-3h7v3h-7zm7,6h6v2h-6zm6,-6h6v3h-6zm0,32h6v3h-6zm6,-32h6v3h-6zm6,3h7v3h-7zm0,5h7v3h-7zm144,0h6v16h-6zm6,-5h6v5h-6zm0,26h6v3h-6zm6,-29h6v6h-6zm0,35h6v2h-6zm6,-35h7v3h-7zm0,40h7v3h-7zm7,-45h6v5h-6zm6,3h6v5h-6zm6,0h6v5h-6zm6,0h7v2h-7zm7,0h6v2h-6zm0,37h6v2h-6zm6,-37h6v5h-6zm0,31h6v3h-6zm6,-23h6v5h-6zm0,13h6v5h-6zm6,-19h6v3h-6zm0,6h6v10h-6zm150,0h6v8h-6zm0,21h6v2h-6zm6,-24h6v8h-6zm6,-3h6v6h-6zm6,-2h7v5h-7zm0,42h7v3h-7zm13,-42h6v5h-6zm0,39h6v3h-6zm12,-37h7v3h-7zm0,29h7v3h-7zm7,-31h6v2h-6zm6,5h6v11h-6zm156,5h6v8h-6zm0,11h6v5h-6zm6,-16h6v3h-6zm0,5h6v3h-6zm0,21h6v3h-6z"
             id="path26" />
          <path
             fill="#52ba91"
             d="M0,428h6v5h-6zm0,29h6v2h-6zM6,428h6v5h-6zm6,0h7v2h-7zm7,-3h6v3h-6zm0,34h6v3h-6zm6,-34h6v3h-6zm0,29h6v3h-6zm6,-26h6v5h-6zm0,21h6v2h-6zm6,-21h7v2h-7zm0,5h7v8h-7zm162,21h7v3h-7zm7,-26h6v5h-6zm6,-3h6v3h-6zm6,0h6v5h-6zm6,0h7v3h-7zm7,0h6v3h-6zm6,-3h6v8h-6zm6,6h6v10h-6zm156,2h6v3h-6zm0,6h6v8h-6zm6,-6h6v6h-6zm0,21h6v3h-6zm6,-23h6v8h-6zm0,29h6v2h-6zm6,-29h7v2h-7zm13,-3h6v3h-6zm6,0h6v3h-6zm6,3h7v5h-7zm0,23h7v3h-7zm7,-21h6v11h-6zm155,8h7v3h-7zm7,-5h6v3h-6zm6,-5h6v5h-6zm0,29h6v2h-6zm6,-29h6v5h-6zm6,0h6v2h-6zm6,-3h7v3h-7zm7,0h6v3h-6zm0,32h6v2h-6zm6,-32h6v5h-6zm6,0h6v3h-6zm6,3h7v2h-7zm0,5h7v8h-7zm150,-3h6v8h-6zm0,19h6v2h-6zm6,-21h6v2h-6zm13,-6h6v3h-6zm0,43h6v2h-6zm12,0h6v2h-6zm6,-43h7v6h-7zm0,40h7v3h-7zm7,-40h6v3h-6zm6,3h6v5h-6zm0,24h6v2h-6zm6,-16h6v8h-6zm156,3h6v8h-6zm0,10h6v3h-6zm6,-13h6v3h-6zm0,21h6v3h-6zm6,-26h6v2h-6zm0,31h6v3h-6zm6,-34h7v3h-7zm7,-3h6v3h-6zm0,40h6v3h-6zm6,-37h6v3h-6zm6,-3h6v8h-6zm6,3h7v3h-7zm7,-3h6v11h-6zm0,19h6v5h-6zm162,-3h6v3h-6zm6,-10h6v2h-6zm0,5h6v3h-6zm0,16h6v2h-6z"
             id="path28" />
          <path
             fill="#73bd80"
             d="M0,433h6v3h-6zm6,0h6v3h-6zm13,-5h6v2h-6zm6,0h6v5h-6zm6,5h6v5h-6zm0,13h6v3h-6zm6,-16h7v3h-7zm162,6h7v10h-7zm0,15h7v3h-7zm7,8h6v3h-6zm6,-31h6v5h-6zm12,0h7v2h-7zm0,31h7v3h-7zm7,-31h6v5h-6zm0,26h6v3h-6zm6,-24h6v3h-6zm0,14h6v7h-6zm168,-8h6v2h-6zm0,8h6v7h-6zm12,-14h7v3h-7zm0,29h7v3h-7zm7,-31h6v2h-6zm6,0h6v5h-6zm6,0h6v2h-6zm0,26h6v3h-6zm6,-21h7v3h-7zm0,13h7v5h-7zm7,-5h6v3h-6zm162,-5h6v8h-6zm0,13h6v2h-6zm6,-16h6v3h-6zm6,0h6v3h-6zm0,26h6v3h-6zm6,-29h6v6h-6zm6,-2h7v2h-7zm0,31h7v3h-7zm7,-26h6v3h-6zm6,18h6v3h-6zm6,-23h6v5h-6zm0,16h6v5h-6zm156,-6h6v6h-6zm0,8h6v3h-6zm6,-16h6v3h-6zm0,24h6v3h-6zm6,-29h7v5h-7zm7,0h6v5h-6zm6,0h6v5h-6zm0,40h6v2h-6zm6,-40h6v5h-6zm6,3h7v2h-7zm7,-3h6v5h-6zm0,29h6v3h-6zm6,-24h6v8h-6zm162,14h6v2h-6zm6,-8h6v5h-6zm6,-6h6v6h-6zm6,-2h7v5h-7zm7,-3h6v3h-6zm6,3h6v2h-6zm6,26h6v3h-6zm6,-26h7v5h-7zm7,5h6v8h-6zm168,3h6v8h-6zm0,10h6v3h-6z"
             id="path30" />
          <path
             fill="#94be71"
             d="M0,436h6v2h-6zm0,15h6v6h-6zM6,436h6v5h-6zm0,23h6v3h-6zm6,-29h7v6h-7zm7,0h6v6h-6zm6,3h6v3h-6zm0,18h6v3h-6zm6,-13h6v8h-6zm168,8h7v5h-7zm7,-13h6v3h-6zm0,8h6v3h-6zm6,-8h6v3h-6zm0,29h6v3h-6zm6,-32h6v3h-6zm0,32h6v3h-6zm6,-32h7v8h-7zm7,3h6v5h-6zm6,0h6v11h-6zm168,5h6v6h-6zm6,-2h6v5h-6zm0,8h6v2h-6zm0,10h6v3h-6zm6,-21h7v5h-7zm7,-3h6v6h-6zm0,29h6v3h-6zm6,-26h6v3h-6zm0,24h6v2h-6zm6,-27h6v3h-6zm0,8h6v3h-6zm0,13h6v3h-6zm6,-15h7v5h-7zm0,8h7v2h-7zm169,0h6v5h-6zm6,-8h6v8h-6zm0,18h6v3h-6zm6,-18h6v2h-6zm6,0h6v2h-6zm6,-6h7v6h-7zm7,0h6v3h-6zm0,6h6v2h-6zm6,-6h6v8h-6zm6,3h6v11h-6zm156,11h6v2h-6zm6,-11h6v5h-6zm6,-3h7v3h-7zm0,29h7v3h-7zm13,-29h6v3h-6zm6,0h6v3h-6zm13,0h6v3h-6zm6,8h6v11h-6zm168,6h6v2h-6zm0,7h6v3h-6zm6,6h6v2h-6zm6,2h7v3h-7zm7,-31h6v5h-6zm0,31h6v3h-6zm6,-29h6v3h-6zm0,27h6v2h-6zm6,-27h6v6h-6zm6,3h7v3h-7zm0,13h7v5h-7zm175,-2h6v2h-6z"
             id="path32" />
          <path
             fill="#b2bc65"
             d="M0,438h6v6h-6zm0,8h6v5h-6zM12,436h7v2h-7zm0,23h7v3h-7zm7,-23h6v2h-6zm0,21h6v2h-6zm6,-21h6v5h-6zm0,13h6v2h-6zM206,436h6v5h-6zm0,8h6v2h-6zm6,-3h6v3h-6zm6,-8h6v5h-6zm6,5h7v3h-7zm0,19h7v2h-7zm7,-19h6v16h-6zm180,3h6v3h-6zm0,5h6v8h-6zm6,-8h7v3h-7zm0,6h7v5h-7zm0,13h7v2h-7zm7,-21h6v2h-6zm6,0h6v2h-6zm0,18h6v3h-6zm6,-21h6v5h-6zm0,11h6v7h-6zm6,-3h7v3h-7zm175,10h6v3h-6zm6,-13h6v3h-6zm0,19h6v2h-6zm6,2h6v3h-6zm6,-23h7v2h-7zm7,2h6v3h-6zm0,16h6v3h-6zm6,-16h6v8h-6zm0,11h6v2h-6zM816,438h6v16h-6zm6,-5h7v3h-7zm7,-3h6v6h-6zm0,32h6v3h-6zm6,-29h6v3h-6zm6,0h6v3h-6zm6,-3h7v6h-7zm7,3h6v5h-6zm0,18h6v3h-6zm174,-10h6v3h-6zm0,5h6v5h-6zm6,-10h6v5h-6zm6,-3h7v3h-7zm7,0h6v5h-6zm0,24h6v2h-6zm6,-24h6v3h-6zm12,3h7v10h-7z"
             id="path34" />
          <path
             fill="#d0ba59"
             d="M0,444h6v2h-6zm6,-3h6v8h-6zm0,10h6v3h-6zm0,6h6v2h-6zm6,-19h7v3h-7zm0,19h7v2h-7zm7,-19h6v3h-6zm0,13h6v6h-6zm6,-10h6v8h-6zm181,5h6v13h-6zm6,-10h6v5h-6zm6,5h6v3h-6zm6,0h7v8h-7zm0,13h7v3h-7zM417,441h7v3h-7zm0,8h7v8h-7zm7,-11h6v21h-6zm6,0h6v16h-6zm6,3h6v3h-6zm181,3h6v5h-6zm6,10h6v3h-6zm6,-16h6v6h-6zm0,19h6v2h-6zm6,-19h7v3h-7zm0,19h7v2h-7zm7,-16h6v3h-6zm6,5h6v3h-6zM822,436h7v2h-7zm0,21h7v2h-7zm7,-19h6v3h-6zm6,-2h6v2h-6zm6,0h6v2h-6zm0,26h6v3h-6zm6,-26h7v2h-7zm0,23h7v3h-7zm7,-21h6v6h-6zm0,8h6v5h-6zm180,-5h6v3h-6zm0,13h6v3h-6zm6,-18h7v8h-7zm0,21h7v2h-7zm13,-21h6v2h-6zm0,18h6v3h-6zm6,-18h6v5h-6zm0,15h6v3h-6z"
             id="path36" />
          <path
             fill="#e1bf4a"
             d="M6,449h6v2h-6zm0,5h6v3h-6zm6,-13h7v16h-7zm7,0h6v10h-6zm193,3h6v5h-6zm0,15h6v3h-6zm6,-21h6v3h-6zm0,6h6v5h-6zm6,5h7v5h-7zm393,0h6v2h-6zm6,-8h6v5h-6zm0,10h6v3h-6zm12,-10h7v3h-7zm0,13h7v3h-7zm7,-10h6v2h-6zm0,5h6v5h-6zM822,438h7v6h-7zm0,8h7v3h-7zm7,-10h6v2h-6zm6,2h6v3h-6zm0,24h6v3h-6zm6,-24h6v3h-6zm6,0h7v8h-7zm0,19h7v2h-7zm7,-13h6v2h-6zm180,0h6v2h-6zm0,5h6v5h-6zm13,-11h6v6h-6zm6,0h6v3h-6zm6,3h6v10h-6z"
             id="path38" />
          <path
             fill="#f4c53a"
             d="M212,449h6v10h-6zm6,0h6v5h-6zm0,10h6v3h-6zM623,446h6v5h-6zm6,-2h6v5h-6zm0,10h6v3h-6zm6,-10h7v2h-7zm7,2h6v3h-6zm180,-2h7v2h-7zm0,5h7v8h-7zm7,-8h6v3h-6zm0,18h6v3h-6zm6,-18h6v3h-6zm6,0h6v3h-6zm6,13h7v3h-7zm187,-8h6v3h-6zm6,-2h7v5h-7zm0,10h7v3h-7zm7,0h6v3h-6zm6,-13h6v13h-6z"
             id="path40" />
          <path
             fill="#fcd12b"
             d="M218,454h6v5h-6zm411,-5h6v5h-6zm6,-3h7v8h-7zm194,-2h6v2h-6zm0,5h6v2h-6zm6,-5h6v2h-6zm6,0h6v2h-6zm0,15h6v3h-6zm6,-13h7v8h-7zm193,5h7v3h-7zm7,-7h6v10h-6z"
             id="path42" />
          <path
             fill="#fae61c"
             d="M829,446h6v3h-6zm0,5h6v8h-6zm6,-5h6v5h-6zm0,13h6v3h-6zm6,-13h6v8h-6zm199,3h7v2h-7z"
             id="path44" />
          <path
             fill="#f9f90e"
             d="M835,451h6v8h-6zm6,3h6v5h-6z"
             id="path46" />
        </g>
      </svg>
      <g
         id="g116">
        <g
           transform="translate(0,528)"
           id="g78">
          <path
             d="M0,0h1246M28,-20V0M68,-10V0M107,-10V0M147,-10V0M187,-10V0M226,-20V0M266,-10V0M306,-10V0M345,-10V0M385,-10V0M425,-20V0M464,-10V0M504,-10V0M544,-10V0M583,-10V0M623,-20V0M663,-10V0M702,-10V0M742,-10V0M782,-10V0M821,-20V0M861,-10V0M901,-10V0M940,-10V0M980,-10V0M1020,-20V0M1059,-10V0M1099,-10V0M1139,-10V0M1178,-10V0M1218,-20V0"
             style="stroke: rgb(0, 0, 0); stroke-width: 1;"
             id="path52" />
          <g
             font-family="Arial"
             font-size="23"
             xml:space="preserve"
             fill="#000000"
             text-anchor="middle"
             id="g68"><text
               dy=".8em"
               transform="translate(28,5)"
               id="text54">-3</text><text
               dy=".8em"
               transform="translate(226,5)"
               id="text56">-2</text><text
               dy=".8em"
               transform="translate(425,5)"
               id="text58">-1</text><text
               dy=".8em"
               transform="translate(623,5)"
               id="text60">0</text><text
               dy=".8em"
               transform="translate(821,5)"
               id="text62">1</text><text
               dy=".8em"
               transform="translate(1020,5)"
               id="text64">2</text><text
               dy=".8em"
               transform="translate(1218,5)"
               id="text66">3</text></g>
          <rect
             x="0"
             y="0"
             width="1246"
             height="26"
             style="opacity: 0; cursor: crosshair;"
             id="rect70" />
          <g
             font-family="Arial"
             font-size="23"
             xml:space="preserve"
             style="cursor: move;"
             transform="translate(1246,37)"
             id="g76"><g
               transform="translate(-71,8)"
               id="g74"><text
                 fill="#000000"
                 font-size="23"
                 id="text72"> (rad)</text></g></g>
        </g>
        <g
           id="g114">
          <path
             d="M0,0v528M47,528H0M24,517H0M24,507H0M24,496H0M24,486H0M47,475H0M24,465H0M24,454H0M24,444H0M24,433H0M47,422H0M24,412H0M24,401H0M24,391H0M24,380H0M47,370H0M24,359H0M24,348H0M24,338H0M24,327H0M47,317H0M24,306H0M24,296H0M24,285H0M24,275H0M47,264H0M24,253H0M24,243H0M24,232H0M24,222H0M47,211H0M24,201H0M24,190H0M24,180H0M24,169H0M47,158H0M24,148H0M24,137H0M24,127H0M24,116H0M47,106H0M24,95H0M24,84H0M24,74H0M24,63H0M47,53H0M24,42H0M24,32H0M24,21H0M24,11H0M47,0H0"
             style="stroke: rgb(0, 0, 0); stroke-width: 1;"
             id="path80" />
          <g
             font-family="Arial"
             font-size="23"
             xml:space="preserve"
             fill="#000000"
             text-anchor="end"
             id="g104"><text
               dominant-baseline="middle"
               transform="translate(-3,528)"
               id="text82">0</text><text
               dominant-baseline="middle"
               transform="translate(-3,475)"
               id="text84">0.1</text><text
               dominant-baseline="middle"
               transform="translate(-3,422)"
               id="text86">0.2</text><text
               dominant-baseline="middle"
               transform="translate(-3,370)"
               id="text88">0.3</text><text
               dominant-baseline="middle"
               transform="translate(-3,317)"
               id="text90">0.4</text><text
               dominant-baseline="middle"
               transform="translate(-3,264)"
               id="text92">0.5</text><text
               dominant-baseline="middle"
               transform="translate(-3,211)"
               id="text94">0.6</text><text
               dominant-baseline="middle"
               transform="translate(-3,158)"
               id="text96">0.7</text><text
               dominant-baseline="middle"
               transform="translate(-3,106)"
               id="text98">0.8</text><text
               dominant-baseline="middle"
               transform="translate(-3,53)"
               id="text100">0.9</text><text
               dominant-baseline="middle"
               transform="translate(-3)"
               id="text102">1</text></g>
          <rect
             x="-35"
             y="0"
             width="35"
             height="528"
             style="opacity: 0; cursor: crosshair;"
             id="rect106" />
          <g
             font-family="Arial"
             font-size="23"
             xml:space="preserve"
             style="cursor: move;"
             transform="translate(-55,0)"
             id="g112"><g
               transform=" rotate(270) translate(-69,8)"
               id="g110"><text
                 fill="#000000"
                 font-size="23"
                 id="text108"> (rad)</text></g></g>
        </g>
      </g>
      <path
         d="M2,2h15v-5h-20v20h5Z"
         style="opacity: 0; cursor: nw-resize;"
         id="path118" />
      <path
         d="M1244,2h-15v-5h20v20h-5 Z"
         style="opacity: 0; cursor: ne-resize;"
         id="path120" />
      <path
         d="M2,526h15v5h-20v-20h5Z"
         style="opacity: 0; cursor: sw-resize;"
         id="path122" />
      <path
         d="M1244,526h-15v5h20v-20h-5Z"
         style="opacity: 0; cursor: se-resize;"
         id="path124" />
      <path
         d="M-3,18h5v492h-5Z"
         style="opacity: 0; cursor: w-resize;"
         id="path126" />
      <path
         d="M1249,18h-5v492h5Z"
         style="opacity: 0; cursor: e-resize;"
         id="path128" />
      <path
         d="M18,-3v5h1210v-5Z"
         style="opacity: 0; cursor: n-resize;"
         id="path130" />
      <path
         d="M18,531v-5h1210v5Z"
         style="opacity: 0; cursor: s-resize;"
         id="path132" />
      <style
         id="style134">
.jsroot rect.h1bin { stroke: #4572A7; fill: #4572A7; opacity: 0; }
.jsroot rect.zoom { stroke: steelblue; fill-opacity: 0.1; }
.jsroot path.zoom { stroke: steelblue; fill-opacity: 0.1; }
.jsroot svg:not(:root) { overflow: hidden; }</style>
    </g>
    <g
       transform="matrix(1.073,0,0,1.073,694.07812,38)"
       id="g142"
       style="font-size:37px;font-family:Arial">
      <text
         fill="#000000"
         font-size="37px"
         id="text140"> vs </text>
    </g>
  </g>
</svg>
