<?xml version="1.0" encoding="UTF-8" standalone="no"?>
<svg
   width="1292.6348"
   height="581.76172"
   version="1.1"
   id="svg312"
   sodipodi:docname="21q2_acc.svg"
   inkscape:version="1.2.2 (1:1.2.2+202305151914+b0a8486541)"
   inkscape:export-filename="21q2_acc.pdf"
   inkscape:export-xdpi="96"
   inkscape:export-ydpi="96"
   xmlns:inkscape="http://www.inkscape.org/namespaces/inkscape"
   xmlns:sodipodi="http://sodipodi.sourceforge.net/DTD/sodipodi-0.dtd"
   xmlns="http://www.w3.org/2000/svg"
   xmlns:svg="http://www.w3.org/2000/svg">
  <defs
     id="defs316" />
  <sodipodi:namedview
     id="namedview314"
     pagecolor="#ffffff"
     bordercolor="#666666"
     borderopacity="1.0"
     inkscape:showpageshadow="2"
     inkscape:pageopacity="0.0"
     inkscape:pagecheckerboard="0"
     inkscape:deskcolor="#d1d1d1"
     showgrid="false"
     inkscape:zoom="0.50568849"
     inkscape:cx="583.36309"
     inkscape:cy="264.98527"
     inkscape:window-width="1920"
     inkscape:window-height="1051"
     inkscape:window-x="0"
     inkscape:window-y="0"
     inkscape:window-maximized="1"
     inkscape:current-layer="svg312" />
  <g
     transform="translate(35,3)"
     id="g222">
    <title
       id="title4" />
    <path
       d="M 0,0 H 1246 V 528 H 0 Z"
       style="fill:#ffffff;stroke:#000000;stroke-width:1"
       id="path6" />
    <g
       id="g12">
      <path
         d="M 0,0 V 528 M 208,0 V 528 M 415,0 V 528 M 623,0 V 528 M 831,0 V 528 M 1038,0 V 528 M 1246,0 v 528"
         style="stroke:#000000;stroke-width:1;stroke-dasharray:1, 2"
         id="path8" />
      <path
         d="M 0,528 H 1246 M 0,450 H 1246 M 0,372 H 1246 M 0,294 H 1246 M 0,217 H 1246 M 0,139 H 1246 M 0,61 h 1246"
         style="stroke:#000000;stroke-width:1;stroke-dasharray:1, 2"
         id="path10" />
    </g>
    <svg
       x="0"
       y="0"
       overflow="hidden"
       width="1246"
       height="528"
       viewBox="0 0 1246 528"
       version="1.1"
       id="svg142">
      <g
         id="g76">
        <g
           transform="translate(149,432)"
           id="g18">
          <path
             d="M -45,0 H 58 v 0 z"
             style="fill:none"
             id="path14" />
          <path
             d="m 0,0 h -45 m 0,3 V -3 M 0,0 h 58 m 0,3 V -3 M 0,0 m 3,0 h -6 m 3,0 m 3,0 h -6"
             style="fill:none;stroke:#000000;stroke-width:1"
             id="path16" />
        </g>
        <g
           transform="translate(253,178)"
           id="g24">
          <path
             d="M -45,0 H 58 v 0 z"
             style="fill:none"
             id="path20" />
          <path
             d="m 0,0 h -45 m 0,3 V -3 M 0,0 h 58 m 0,3 V -3 M 0,0 m 3,0 h -6 m 3,0 m 3,0 h -6"
             style="fill:none;stroke:#000000;stroke-width:1"
             id="path22" />
        </g>
        <g
           transform="translate(357,76)"
           id="g30">
          <path
             d="M -45,1 H 58 V -1 H -45 Z"
             style="fill:none"
             id="path26" />
          <path
             d="m 0,0 h -45 m 0,3 V -3 M 0,0 h 58 m 0,3 V -3 M 0,0 V 1 M 3,1 H -3 M 0,0 v -1 m 3,0 h -6"
             style="fill:none;stroke:#000000;stroke-width:1"
             id="path28" />
        </g>
        <g
           transform="translate(461,49)"
           id="g36">
          <path
             d="M -45,1 H 58 V -1 H -45 Z"
             style="fill:none"
             id="path32" />
          <path
             d="m 0,0 h -45 m 0,3 V -3 M 0,0 h 58 m 0,3 V -3 M 0,0 V 1 M 3,1 H -3 M 0,0 v -1 m 3,0 h -6"
             style="fill:none;stroke:#000000;stroke-width:1"
             id="path34" />
        </g>
        <g
           transform="translate(565,72)"
           id="g42">
          <path
             d="M -45,1 H 58 V -1 H -45 Z"
             style="fill:none"
             id="path38" />
          <path
             d="m 0,0 h -45 m 0,3 V -3 M 0,0 h 58 m 0,3 V -3 M 0,0 V 1 M 3,1 H -3 M 0,0 v -1 m 3,0 h -6"
             style="fill:none;stroke:#000000;stroke-width:1"
             id="path40" />
        </g>
        <g
           transform="translate(668,119)"
           id="g48">
          <path
             d="M -45,2 H 58 V -2 H -45 Z"
             style="fill:none"
             id="path44" />
          <path
             d="m 0,0 h -45 m 0,3 V -3 M 0,0 h 58 m 0,3 V -3 M 0,0 V 2 M 3,2 H -3 M 0,0 v -2 m 3,0 h -6"
             style="fill:none;stroke:#000000;stroke-width:1"
             id="path46" />
        </g>
        <g
           transform="translate(772,172)"
           id="g54">
          <path
             d="M -45,3 H 58 V -3 H -45 Z"
             style="fill:none"
             id="path50" />
          <path
             d="m 0,0 h -45 m 0,3 V -3 M 0,0 h 58 m 0,3 V -3 M 0,0 V 3 M 3,3 H -3 M 0,0 v -3 m 3,0 h -6"
             style="fill:none;stroke:#000000;stroke-width:1"
             id="path52" />
        </g>
        <g
           transform="translate(876,276)"
           id="g60">
          <path
             d="M -45,4 H 58 V -4 H -45 Z"
             style="fill:none"
             id="path56" />
          <path
             d="m 0,0 h -45 m 0,3 V -3 M 0,0 h 58 m 0,3 V -3 M 0,0 V 4 M 3,4 H -3 M 0,0 v -4 m 3,0 h -6"
             style="fill:none;stroke:#000000;stroke-width:1"
             id="path58" />
        </g>
        <g
           transform="translate(980,338)"
           id="g66">
          <path
             d="M -45,6 H 58 V -6 H -45 Z"
             style="fill:none"
             id="path62" />
          <path
             d="m 0,0 h -45 m 0,3 V -3 M 0,0 h 58 m 0,3 V -3 M 0,0 V 6 M 3,6 H -3 M 0,0 v -6 m 3,0 h -6"
             style="fill:none;stroke:#000000;stroke-width:1"
             id="path64" />
        </g>
        <g
           transform="translate(1084,423)"
           id="g72">
          <path
             d="M -45,9 H 58 V -9 H -45 Z"
             style="fill:none"
             id="path68" />
          <path
             d="m 0,0 h -45 m 0,3 V -3 M 0,0 h 58 m 0,3 V -3 M 0,0 V 9 M 3,9 H -3 M 0,0 v -9 m 3,0 h -6"
             style="fill:none;stroke:#000000;stroke-width:1"
             id="path70" />
        </g>
        <path
           d="m 145,428 v 8 h 8 v -8 z M 249,174 v 8 h 8 v -8 z M 353,72 v 8 h 8 V 72 Z M 457,45 v 8 h 8 v -8 z m 104,23 v 8 h 8 v -8 z m 103,47 v 8 h 8 v -8 z m 104,53 v 8 h 8 v -8 z m 104,104 v 8 h 8 v -8 z m 104,62 v 8 h 8 v -8 z m 104,85 v 8 h 8 v -8 z"
           style="fill:#ff0000;stroke:#ff0000"
           id="path74" />
      </g>
      <g
         id="g140">
        <g
           transform="translate(162,440)"
           id="g82">
          <path
             d="M -58,0 H 45 v 0 z"
             style="fill:none"
             id="path78" />
          <path
             d="m 0,0 h -58 m 0,3 V -3 M 0,0 h 45 m 0,3 V -3 M 0,0 m 3,0 h -6 m 3,0 m 3,0 h -6"
             style="fill:none;stroke:#000000;stroke-width:1"
             id="path80" />
        </g>
        <g
           transform="translate(266,213)"
           id="g88">
          <path
             d="M -58,0 H 45 v 0 z"
             style="fill:none"
             id="path84" />
          <path
             d="m 0,0 h -58 m 0,3 V -3 M 0,0 h 45 m 0,3 V -3 M 0,0 m 3,0 h -6 m 3,0 m 3,0 h -6"
             style="fill:none;stroke:#000000;stroke-width:1"
             id="path86" />
        </g>
        <g
           transform="translate(370,136)"
           id="g94">
          <path
             d="M -58,1 H 45 V -1 H -58 Z"
             style="fill:none"
             id="path90" />
          <path
             d="m 0,0 h -58 m 0,3 V -3 M 0,0 h 45 m 0,3 V -3 M 0,0 V 1 M 3,1 H -3 M 0,0 v -1 m 3,0 h -6"
             style="fill:none;stroke:#000000;stroke-width:1"
             id="path92" />
        </g>
        <g
           transform="translate(474,148)"
           id="g100">
          <path
             d="M -58,1 H 45 V -1 H -58 Z"
             style="fill:none"
             id="path96" />
          <path
             d="m 0,0 h -58 m 0,3 V -3 M 0,0 h 45 m 0,3 V -3 M 0,0 V 1 M 3,1 H -3 M 0,0 v -1 m 3,0 h -6"
             style="fill:none;stroke:#000000;stroke-width:1"
             id="path98" />
        </g>
        <g
           transform="translate(578,212)"
           id="g106">
          <path
             d="M -58,1 H 45 V -1 H -58 Z"
             style="fill:none"
             id="path102" />
          <path
             d="m 0,0 h -58 m 0,3 V -3 M 0,0 h 45 m 0,3 V -3 M 0,0 V 1 M 3,1 H -3 M 0,0 v -1 m 3,0 h -6"
             style="fill:none;stroke:#000000;stroke-width:1"
             id="path104" />
        </g>
        <g
           transform="translate(681,290)"
           id="g112">
          <path
             d="M -58,2 H 45 V -2 H -58 Z"
             style="fill:none"
             id="path108" />
          <path
             d="m 0,0 h -58 m 0,3 V -3 M 0,0 h 45 m 0,3 V -3 M 0,0 V 2 M 3,2 H -3 M 0,0 v -2 m 3,0 h -6"
             style="fill:none;stroke:#000000;stroke-width:1"
             id="path110" />
        </g>
        <g
           transform="translate(785,369)"
           id="g118">
          <path
             d="M -58,2 H 45 V -2 H -58 Z"
             style="fill:none"
             id="path114" />
          <path
             d="m 0,0 h -58 m 0,3 V -3 M 0,0 h 45 m 0,3 V -3 M 0,0 V 2 M 3,2 H -3 M 0,0 v -2 m 3,0 h -6"
             style="fill:none;stroke:#000000;stroke-width:1"
             id="path116" />
        </g>
        <g
           transform="translate(889,440)"
           id="g124">
          <path
             d="M -58,3 H 45 V -3 H -58 Z"
             style="fill:none"
             id="path120" />
          <path
             d="m 0,0 h -58 m 0,3 V -3 M 0,0 h 45 m 0,3 V -3 M 0,0 V 3 M 3,3 H -3 M 0,0 v -3 m 3,0 h -6"
             style="fill:none;stroke:#000000;stroke-width:1"
             id="path122" />
        </g>
        <g
           transform="translate(993,478)"
           id="g130">
          <path
             d="M -58,3 H 45 V -3 H -58 Z"
             style="fill:none"
             id="path126" />
          <path
             d="m 0,0 h -58 m 0,3 V -3 M 0,0 h 45 m 0,3 V -3 M 0,0 V 3 M 3,3 H -3 M 0,0 v -3 m 3,0 h -6"
             style="fill:none;stroke:#000000;stroke-width:1"
             id="path128" />
        </g>
        <g
           transform="translate(1097,517)"
           id="g136">
          <path
             d="M -58,3 H 45 V -3 H -58 Z"
             style="fill:none"
             id="path132" />
          <path
             d="m 0,0 h -58 m 0,3 V -3 M 0,0 h 45 m 0,3 V -3 M 0,0 V 3 M 3,3 H -3 M 0,0 v -3 m 3,0 h -6"
             style="fill:none;stroke:#000000;stroke-width:1"
             id="path134" />
        </g>
        <path
           d="m 158,436 v 8 h 8 v -8 z M 262,209 v 8 h 8 v -8 z m 104,-77 v 8 h 8 v -8 z m 104,12 v 8 h 8 v -8 z m 104,64 v 8 h 8 v -8 z m 103,78 v 8 h 8 v -8 z m 104,79 v 8 h 8 v -8 z m 104,71 v 8 h 8 v -8 z m 104,38 v 8 h 8 v -8 z m 104,39 v 8 h 8 v -8 z"
           style="fill:#0000ff;stroke:#0000ff"
           id="path138" />
      </g>
    </svg>
    <g
       id="g202">
      <g
         transform="translate(0,528)"
         id="g178">
        <path
           d="M 0,0 H 1246 M 0,-20 V 0 M 52,-10 V 0 m 52,-10 V 0 m 52,-10 V 0 m 52,-20 V 0 m 52,-10 V 0 m 52,-10 V 0 m 51,-10 V 0 m 52,-20 V 0 m 52,-10 V 0 m 52,-10 V 0 m 52,-10 V 0 m 52,-20 V 0 m 52,-10 V 0 m 52,-10 V 0 m 52,-10 V 0 m 52,-20 V 0 m 52,-10 V 0 m 52,-10 V 0 m 51,-10 V 0 m 52,-20 V 0 m 52,-10 V 0 m 52,-10 V 0 m 52,-10 V 0 m 52,-20 V 0"
           style="stroke:#000000;stroke-width:1"
           id="path144" />
        <g
           font-family="Arial"
           font-size="23px"
           xml:space="preserve"
           fill="#000000"
           text-anchor="middle"
           id="g160"><text
             dy="0.80000001em"
             transform="translate(0,5)"
             id="text146">0</text><text
             dy="0.80000001em"
             transform="translate(208,5)"
             id="text148">2</text><text
             dy="0.80000001em"
             transform="translate(415,5)"
             id="text150">4</text><text
             dy="0.80000001em"
             transform="translate(623,5)"
             id="text152">6</text><text
             dy="0.80000001em"
             transform="translate(831,5)"
             id="text154">8</text><text
             dy="0.80000001em"
             transform="translate(1038,5)"
             id="text156">10</text><text
             dy="0.80000001em"
             transform="translate(1246,5)"
             id="text158">12</text></g>
        <rect
           x="0"
           y="0"
           width="1246"
           height="26"
           style="opacity:0"
           id="rect162" />
        <g
           font-family="Arial"
           font-size="23px"
           xml:space="preserve"
           transform="translate(1246,37)"
           id="g176"><g
             transform="translate(-97,9)"
             id="g174"><text
               fill="#000000"
               font-size="23px"
               id="text164">Q</text><text
               fill="#000000"
               font-size="14px"
               transform="translate(18,-10)"
               id="text166">2</text><text
               fill="#000000"
               font-size="23px"
               x="26"
               id="text168"> (GeV</text><text
               fill="#000000"
               font-size="14px"
               id="text170"
               x="87"
               y="-10">2</text><text
               fill="#000000"
               font-size="23px"
               x="95"
               id="text172">)</text></g></g>
      </g>
      <g
         id="g200">
        <path
           d="m 0,0 v 528 m 47,0 H 0 M 24,512 H 0 M 24,497 H 0 M 24,481 H 0 M 24,466 H 0 M 47,450 H 0 M 24,435 H 0 M 24,419 H 0 M 24,403 H 0 M 24,388 H 0 M 47,372 H 0 M 24,357 H 0 M 24,341 H 0 M 24,326 H 0 M 24,310 H 0 M 47,294 H 0 M 24,279 H 0 M 24,263 H 0 M 24,248 H 0 M 24,232 H 0 M 47,217 H 0 M 24,201 H 0 M 24,186 H 0 M 24,170 H 0 M 24,154 H 0 M 47,139 H 0 M 24,123 H 0 M 24,108 H 0 M 24,92 H 0 M 24,77 H 0 M 47,61 H 0 M 24,45 H 0 M 24,30 H 0 M 24,14 H 0"
           style="stroke:#000000;stroke-width:1"
           id="path180" />
        <g
           font-family="Arial"
           font-size="23px"
           xml:space="preserve"
           fill="#000000"
           text-anchor="end"
           id="g196"><text
             dominant-baseline="middle"
             transform="translate(-3,528)"
             id="text182">0</text><text
             dominant-baseline="middle"
             transform="translate(-3,450)"
             id="text184">0.1</text><text
             dominant-baseline="middle"
             transform="translate(-3,372)"
             id="text186">0.2</text><text
             dominant-baseline="middle"
             transform="translate(-3,294)"
             id="text188">0.3</text><text
             dominant-baseline="middle"
             transform="translate(-3,217)"
             id="text190">0.4</text><text
             dominant-baseline="middle"
             transform="translate(-3,139)"
             id="text192">0.5</text><text
             dominant-baseline="middle"
             transform="translate(-3,61)"
             id="text194">0.6</text></g>
        <rect
           x="-35"
           y="0"
           width="35"
           height="528"
           style="opacity:0"
           id="rect198" />
      </g>
    </g>
    <path
       d="M 2,2 H 17 V -3 H -3 v 20 h 5 z"
       style="opacity:0"
       id="path204" />
    <path
       d="m 1244,2 h -15 v -5 h 20 v 20 h -5 z"
       style="opacity:0"
       id="path206" />
    <path
       d="m 2,526 h 15 v 5 H -3 v -20 h 5 z"
       style="opacity:0"
       id="path208" />
    <path
       d="m 1244,526 h -15 v 5 h 20 v -20 h -5 z"
       style="opacity:0"
       id="path210" />
    <path
       d="M -3,18 H 2 V 510 H -3 Z"
       style="opacity:0"
       id="path212" />
    <path
       d="m 1249,18 h -5 v 492 h 5 z"
       style="opacity:0"
       id="path214" />
    <path
       d="M 18,-3 V 2 H 1228 V -3 Z"
       style="opacity:0"
       id="path216" />
    <path
       d="m 18,531 v -5 h 1210 v 5 z"
       style="opacity:0"
       id="path218" />
    <style
       id="style220">
.jsroot rect.h1bin { stroke: #4572A7; fill: #4572A7; opacity: 0; }
.jsroot rect.zoom { stroke: steelblue; fill-opacity: 0.1; }
.jsroot path.zoom { stroke: steelblue; fill-opacity: 0.1; }
.jsroot svg:not(:root) { overflow: hidden; }</style>
  </g>
  <g
     transform="translate(1092,16)"
     font-family="Arial"
     font-size="23px"
     xml:space="preserve"
     id="g254"><path
       d="M 0,0 H 167 V 56 H 0 Z"
       style="fill:#ffffff;stroke:#000000;stroke-width:1"
       id="path224" /><path
       d="M 5,15 H 37"
       style="stroke:#000000;stroke-width:1"
       id="path226" /><path
       d="m 17,11 v 8 h 8 v -8 z"
       style="fill:#ff0000;stroke:#ff0000"
       id="path228" /><text
       fill="#000000"
       text-anchor="start"
       dominant-baseline="middle"
       transform="translate(42,15)"
       id="text230">DC</text><path
       d="M 5,41 H 37"
       style="stroke:#000000;stroke-width:1"
       id="path232" /><path
       d="m 17,37 v 8 h 8 v -8 z"
       style="fill:#0000ff;stroke:#0000ff"
       id="path234" /><text
       fill="#000000"
       text-anchor="start"
       dominant-baseline="middle"
       transform="translate(42,41)"
       id="text236">FMT</text><path
       d="M 2,2 H 17 V -3 H -3 v 20 h 5 z"
       style="opacity:0"
       id="path238" /><path
       d="m 165,2 h -15 v -5 h 20 v 20 h -5 z"
       style="opacity:0"
       id="path240" /><path
       d="m 2,54 h 15 v 5 H -3 V 39 h 5 z"
       style="opacity:0"
       id="path242" /><path
       d="m 165,54 h -15 v 5 h 20 V 39 h -5 z"
       style="opacity:0"
       id="path244" /><path
       d="M -3,18 H 2 V 38 H -3 Z"
       style="opacity:0"
       id="path246" /><path
       d="m 170,18 h -5 v 20 h 5 z"
       style="opacity:0"
       id="path248" /><path
       d="M 18,-3 V 2 H 149 V -3 Z"
       style="opacity:0"
       id="path250" /><path
       d="m 18,59 v -5 h 131 v 5 z"
       style="opacity:0"
       id="path252" /></g>
</svg>
