<?xml version="1.0" encoding="UTF-8" standalone="no"?>
<svg
   width="567.429"
   height="608.262"
   viewBox="0 0 567.429 608.262"
   shape-rendering="crispEdges"
   version="1.1"
   id="svg642"
   sodipodi:docname="21q2_acc.svg"
   inkscape:version="1.2.2 (1:1.2.2+202212051552+b0a8486541)"
   inkscape:export-filename="21q2_acc.pdf"
   inkscape:export-xdpi="96"
   inkscape:export-ydpi="96"
   xmlns:inkscape="http://www.inkscape.org/namespaces/inkscape"
   xmlns:sodipodi="http://sodipodi.sourceforge.net/DTD/sodipodi-0.dtd"
   xmlns="http://www.w3.org/2000/svg"
   xmlns:svg="http://www.w3.org/2000/svg">
  <sodipodi:namedview
     id="namedview644"
     pagecolor="#ffffff"
     bordercolor="#666666"
     borderopacity="1.0"
     inkscape:showpageshadow="2"
     inkscape:pageopacity="0.0"
     inkscape:pagecheckerboard="0"
     inkscape:deskcolor="#d1d1d1"
     showgrid="false"
     inkscape:zoom="1.2036748"
     inkscape:cx="94.709968"
     inkscape:cy="317.36147"
     inkscape:window-width="1920"
     inkscape:window-height="1051"
     inkscape:window-x="0"
     inkscape:window-y="0"
     inkscape:window-maximized="1"
     inkscape:current-layer="svg642" />
  <title
     id="title2">
/home/twig/code/rge-analysis/macros/21q2_acc.svg
</title>
  <desc
     id="desc4">
Creator: ROOT Version 6.28/00
CreationDate: Mon Jun 19 16:18:26 2023</desc>
  <defs
     id="defs6" />
  <rect
     x="0.5"
     y="0"
     width="566.929"
     height="607.762"
     fill="white"
     id="rect8" />
  <rect
     x="57.1929"
     y="60.7762"
     width="453.543"
     height="486.21"
     fill="white"
     id="rect10" />
  <rect
     x="57.1929"
     y="60.7762"
     width="453.543"
     height="486.21"
     fill="none"
     stroke="black"
     id="rect12" />
  <rect
     x="57.1929"
     y="60.7762"
     width="453.543"
     height="486.21"
     fill="white"
     id="rect14" />
  <rect
     x="57.1929"
     y="60.7762"
     width="453.543"
     height="486.21"
     fill="none"
     stroke="black"
     id="rect16" />
  <path
     d="M57.1929,546.986h 453.543"
     fill="none"
     stroke="black"
     id="path18" />
  <path
     d="M57.1929,60.7762v 486.21"
     fill="none"
     stroke="black"
     stroke-dasharray=" 1, 2"
     id="path20" />
  <path
     d="M132.783,60.7762v 486.21"
     fill="none"
     stroke="black"
     stroke-dasharray=" 1, 2"
     id="path22" />
  <path
     d="M208.374,60.7762v 486.21"
     fill="none"
     stroke="black"
     stroke-dasharray=" 1, 2"
     id="path24" />
  <path
     d="M283.965,60.7762v 486.21"
     fill="none"
     stroke="black"
     stroke-dasharray=" 1, 2"
     id="path26" />
  <path
     d="M359.555,60.7762v 486.21"
     fill="none"
     stroke="black"
     stroke-dasharray=" 1, 2"
     id="path28" />
  <path
     d="M435.146,60.7762v 486.21"
     fill="none"
     stroke="black"
     stroke-dasharray=" 1, 2"
     id="path30" />
  <path
     d="M510.736,60.7762v 486.21"
     fill="none"
     stroke="black"
     stroke-dasharray=" 1, 2"
     id="path32" />
  <path
     d="M510.736,60.7762v 486.21"
     fill="none"
     stroke="black"
     stroke-dasharray=" 1, 2"
     id="path34" />
  <path
     d="M57.1929,546.986v -486.21"
     fill="none"
     stroke="black"
     id="path36" />
  <path
     d="M510.736,546.986h -453.543"
     fill="none"
     stroke="black"
     stroke-dasharray=" 1, 2"
     id="path38" />
  <path
     d="M510.736,475.435h -453.543"
     fill="none"
     stroke="black"
     stroke-dasharray=" 1, 2"
     id="path40" />
  <path
     d="M510.736,403.883h -453.543"
     fill="none"
     stroke="black"
     stroke-dasharray=" 1, 2"
     id="path42" />
  <path
     d="M510.736,332.332h -453.543"
     fill="none"
     stroke="black"
     stroke-dasharray=" 1, 2"
     id="path44" />
  <path
     d="M510.736,260.78h -453.543"
     fill="none"
     stroke="black"
     stroke-dasharray=" 1, 2"
     id="path46" />
  <path
     d="M510.736,189.229h -453.543"
     fill="none"
     stroke="black"
     stroke-dasharray=" 1, 2"
     id="path48" />
  <path
     d="M510.736,117.677h -453.543"
     fill="none"
     stroke="black"
     stroke-dasharray=" 1, 2"
     id="path50" />
  <path
     d="M510.736,117.677h -453.543"
     fill="none"
     stroke="black"
     stroke-dasharray=" 1, 2"
     id="path52" />
  <path
     d="M57.1929,546.986h 453.543"
     fill="none"
     stroke="black"
     id="path54" />
  <path
     d="M57.1929,532.4v 14.5863"
     fill="none"
     stroke="black"
     id="path56" />
  <path
     d="M76.0906,539.693v 7.29315"
     fill="none"
     stroke="black"
     id="path58" />
  <path
     d="M94.9882,539.693v 7.29315"
     fill="none"
     stroke="black"
     id="path60" />
  <path
     d="M113.886,539.693v 7.29315"
     fill="none"
     stroke="black"
     id="path62" />
  <path
     d="M132.783,532.4v 14.5863"
     fill="none"
     stroke="black"
     id="path64" />
  <path
     d="M151.681,539.693v 7.29315"
     fill="none"
     stroke="black"
     id="path66" />
  <path
     d="M170.579,539.693v 7.29315"
     fill="none"
     stroke="black"
     id="path68" />
  <path
     d="M189.476,539.693v 7.29315"
     fill="none"
     stroke="black"
     id="path70" />
  <path
     d="M208.374,532.4v 14.5863"
     fill="none"
     stroke="black"
     id="path72" />
  <path
     d="M227.272,539.693v 7.29315"
     fill="none"
     stroke="black"
     id="path74" />
  <path
     d="M246.169,539.693v 7.29315"
     fill="none"
     stroke="black"
     id="path76" />
  <path
     d="M265.067,539.693v 7.29315"
     fill="none"
     stroke="black"
     id="path78" />
  <path
     d="M283.965,532.4v 14.5863"
     fill="none"
     stroke="black"
     id="path80" />
  <path
     d="M302.862,539.693v 7.29315"
     fill="none"
     stroke="black"
     id="path82" />
  <path
     d="M321.76,539.693v 7.29315"
     fill="none"
     stroke="black"
     id="path84" />
  <path
     d="M340.657,539.693v 7.29315"
     fill="none"
     stroke="black"
     id="path86" />
  <path
     d="M359.555,532.4v 14.5863"
     fill="none"
     stroke="black"
     id="path88" />
  <path
     d="M378.453,539.693v 7.29315"
     fill="none"
     stroke="black"
     id="path90" />
  <path
     d="M397.35,539.693v 7.29315"
     fill="none"
     stroke="black"
     id="path92" />
  <path
     d="M416.248,539.693v 7.29315"
     fill="none"
     stroke="black"
     id="path94" />
  <path
     d="M435.146,532.4v 14.5863"
     fill="none"
     stroke="black"
     id="path96" />
  <path
     d="M454.043,539.693v 7.29315"
     fill="none"
     stroke="black"
     id="path98" />
  <path
     d="M472.941,539.693v 7.29315"
     fill="none"
     stroke="black"
     id="path100" />
  <path
     d="M491.839,539.693v 7.29315"
     fill="none"
     stroke="black"
     id="path102" />
  <path
     d="M510.736,532.4v 14.5863"
     fill="none"
     stroke="black"
     id="path104" />
  <path
     d="M510.736,532.4v 14.5863"
     fill="none"
     stroke="black"
     id="path106" />
  <text
     xml:space="preserve"
     x="51.9852"
     y="566.929"
     fill="black"
     font-size="18.7041"
     font-family="Helvetica"
     id="text108">0</text>
  <text
     xml:space="preserve"
     x="127.734"
     y="566.929"
     fill="black"
     font-size="18.7041"
     font-family="Helvetica"
     id="text110">2</text>
  <text
     xml:space="preserve"
     x="202.89"
     y="566.929"
     fill="black"
     font-size="18.7041"
     font-family="Helvetica"
     id="text112">4</text>
  <text
     xml:space="preserve"
     x="279.23"
     y="566.929"
     fill="black"
     font-size="18.7041"
     font-family="Helvetica"
     id="text114">6</text>
  <text
     xml:space="preserve"
     x="354.387"
     y="566.929"
     fill="black"
     font-size="18.7041"
     font-family="Helvetica"
     id="text116">8</text>
  <text
     xml:space="preserve"
     x="424.809"
     y="566.929"
     fill="black"
     font-size="18.7041"
     font-family="Helvetica"
     id="text118">10</text>
  <text
     xml:space="preserve"
     x="500.558"
     y="566.929"
     fill="black"
     font-size="18.7041"
     font-family="Helvetica"
     id="text120">12</text>
  <text
     xml:space="preserve"
     x="505.884"
     y="587.05"
     fill="black"
     font-size="18.7041"
     font-family="Helvetica"
     id="text122">)</text>
  <text
     xml:space="preserve"
     x="499.374"
     y="579.357"
     fill="black"
     font-size="12.6361"
     font-family="Helvetica"
     id="text124">2</text>
  <text
     xml:space="preserve"
     x="451.439"
     y="587.05"
     fill="black"
     font-size="18.7041"
     font-family="Helvetica"
     id="text126"> (GeV</text>
  <text
     xml:space="preserve"
     x="444.93"
     y="579.357"
     fill="black"
     font-size="12.6361"
     font-family="Helvetica"
     id="text128">2</text>
  <text
     xml:space="preserve"
     x="431.319"
     y="587.05"
     fill="black"
     font-size="18.7041"
     font-family="Helvetica"
     id="text130">Q</text>
  <path
     d="M57.1929,546.986v -486.21"
     fill="none"
     stroke="black"
     id="path132" />
  <path
     d="M70.7992,546.986h -13.6063"
     fill="none"
     stroke="black"
     id="path134" />
  <path
     d="M63.9961,532.676h -6.80315"
     fill="none"
     stroke="black"
     id="path136" />
  <path
     d="M63.9961,518.365h -6.80315"
     fill="none"
     stroke="black"
     id="path138" />
  <path
     d="M63.9961,504.055h -6.80315"
     fill="none"
     stroke="black"
     id="path140" />
  <path
     d="M63.9961,489.745h -6.80315"
     fill="none"
     stroke="black"
     id="path142" />
  <path
     d="M70.7992,475.435h -13.6063"
     fill="none"
     stroke="black"
     id="path144" />
  <path
     d="M63.9961,461.124h -6.80315"
     fill="none"
     stroke="black"
     id="path146" />
  <path
     d="M63.9961,446.814h -6.80315"
     fill="none"
     stroke="black"
     id="path148" />
  <path
     d="M63.9961,432.504h -6.80315"
     fill="none"
     stroke="black"
     id="path150" />
  <path
     d="M63.9961,418.193h -6.80315"
     fill="none"
     stroke="black"
     id="path152" />
  <path
     d="M70.7992,403.883h -13.6063"
     fill="none"
     stroke="black"
     id="path154" />
  <path
     d="M63.9961,389.573h -6.80315"
     fill="none"
     stroke="black"
     id="path156" />
  <path
     d="M63.9961,375.263h -6.80315"
     fill="none"
     stroke="black"
     id="path158" />
  <path
     d="M63.9961,360.952h -6.80315"
     fill="none"
     stroke="black"
     id="path160" />
  <path
     d="M63.9961,346.642h -6.80315"
     fill="none"
     stroke="black"
     id="path162" />
  <path
     d="M70.7992,332.332h -13.6063"
     fill="none"
     stroke="black"
     id="path164" />
  <path
     d="M63.9961,318.021h -6.80315"
     fill="none"
     stroke="black"
     id="path166" />
  <path
     d="M63.9961,303.711h -6.80315"
     fill="none"
     stroke="black"
     id="path168" />
  <path
     d="M63.9961,289.401h -6.80315"
     fill="none"
     stroke="black"
     id="path170" />
  <path
     d="M63.9961,275.09h -6.80315"
     fill="none"
     stroke="black"
     id="path172" />
  <path
     d="M70.7992,260.78h -13.6063"
     fill="none"
     stroke="black"
     id="path174" />
  <path
     d="M63.9961,246.47h -6.80315"
     fill="none"
     stroke="black"
     id="path176" />
  <path
     d="M63.9961,232.16h -6.80315"
     fill="none"
     stroke="black"
     id="path178" />
  <path
     d="M63.9961,217.849h -6.80315"
     fill="none"
     stroke="black"
     id="path180" />
  <path
     d="M63.9961,203.539h -6.80315"
     fill="none"
     stroke="black"
     id="path182" />
  <path
     d="M70.7992,189.229h -13.6063"
     fill="none"
     stroke="black"
     id="path184" />
  <path
     d="M63.9961,174.918h -6.80315"
     fill="none"
     stroke="black"
     id="path186" />
  <path
     d="M63.9961,160.608h -6.80315"
     fill="none"
     stroke="black"
     id="path188" />
  <path
     d="M63.9961,146.298h -6.80315"
     fill="none"
     stroke="black"
     id="path190" />
  <path
     d="M63.9961,131.988h -6.80315"
     fill="none"
     stroke="black"
     id="path192" />
  <path
     d="M70.7992,117.677h -13.6063"
     fill="none"
     stroke="black"
     id="path194" />
  <path
     d="M70.7992,117.677h -13.6063"
     fill="none"
     stroke="black"
     id="path196" />
  <path
     d="M63.9961,103.367h -6.80315"
     fill="none"
     stroke="black"
     id="path198" />
  <path
     d="M63.9961,89.0567h -6.80315"
     fill="none"
     stroke="black"
     id="path200" />
  <path
     d="M63.9961,74.7464h -6.80315"
     fill="none"
     stroke="black"
     id="path202" />
  <text
     xml:space="preserve"
     x="44.8838"
     y="553.318"
     fill="black"
     font-size="18.7041"
     font-family="Helvetica"
     id="text204">0</text>
  <text
     xml:space="preserve"
     x="32.4563"
     y="481.712"
     fill="black"
     font-size="18.7041"
     font-family="Helvetica"
     id="text206">0.1</text>
  <text
     xml:space="preserve"
     x="29.4974"
     y="410.106"
     fill="black"
     font-size="18.7041"
     font-family="Helvetica"
     id="text208">0.2</text>
  <text
     xml:space="preserve"
     x="29.4974"
     y="338.5"
     fill="black"
     font-size="18.7041"
     font-family="Helvetica"
     id="text210">0.3</text>
  <text
     xml:space="preserve"
     x="29.4974"
     y="266.895"
     fill="black"
     font-size="18.7041"
     font-family="Helvetica"
     id="text212">0.4</text>
  <text
     xml:space="preserve"
     x="29.4974"
     y="195.289"
     fill="black"
     font-size="18.7041"
     font-family="Helvetica"
     id="text214">0.5</text>
  <text
     xml:space="preserve"
     x="29.4974"
     y="123.683"
     fill="black"
     font-size="18.7041"
     font-family="Helvetica"
     id="text216">0.6</text>
  <g
     fill="#ff0000"
     id="g238">
    <rect
       x="106.794"
       y="456.365"
       width="4.73427"
       height="4.73427"
       id="rect218" />
    <rect
       x="144.59"
       y="222.436"
       width="4.73427"
       height="4.73427"
       id="rect220" />
    <rect
       x="182.385"
       y="128.979"
       width="4.73427"
       height="4.73427"
       id="rect222" />
    <rect
       x="220.18"
       y="104.197"
       width="4.73427"
       height="4.73427"
       id="rect224" />
    <rect
       x="257.975"
       y="125.371"
       width="4.73427"
       height="4.73427"
       id="rect226" />
    <rect
       x="295.771"
       y="169.185"
       width="4.73427"
       height="4.73427"
       id="rect228" />
    <rect
       x="333.566"
       y="217.973"
       width="4.73427"
       height="4.73427"
       id="rect230" />
    <rect
       x="371.361"
       y="314.146"
       width="4.73427"
       height="4.73427"
       id="rect232" />
    <rect
       x="409.156"
       y="370.389"
       width="4.73427"
       height="4.73427"
       id="rect234" />
    <rect
       x="446.952"
       y="448.517"
       width="4.73427"
       height="4.73427"
       id="rect236" />
  </g>
  <path
     d="M106.794,458.732h -11.8061"
     fill="none"
     stroke="black"
     id="path240" />
  <path
     d="M94.9882,459.916v -2.36714"
     fill="none"
     stroke="black"
     id="path242" />
  <path
     d="M111.529,458.732h 21.2549"
     fill="none"
     stroke="black"
     id="path244" />
  <path
     d="M132.783,459.916v -2.36714"
     fill="none"
     stroke="black"
     id="path246" />
  <path
     d="M144.59,224.803h -11.8061"
     fill="none"
     stroke="black"
     id="path248" />
  <path
     d="M132.783,225.986v -2.36714"
     fill="none"
     stroke="black"
     id="path250" />
  <path
     d="M149.324,224.803h 21.2549"
     fill="none"
     stroke="black"
     id="path252" />
  <path
     d="M170.579,225.986v -2.36714"
     fill="none"
     stroke="black"
     id="path254" />
  <path
     d="M182.385,131.346h -11.8061"
     fill="none"
     stroke="black"
     id="path256" />
  <path
     d="M170.579,132.529v -2.36714"
     fill="none"
     stroke="black"
     id="path258" />
  <path
     d="M187.119,131.346h 21.2549"
     fill="none"
     stroke="black"
     id="path260" />
  <path
     d="M208.374,132.529v -2.36714"
     fill="none"
     stroke="black"
     id="path262" />
  <path
     d="M220.18,106.564h -11.8061"
     fill="none"
     stroke="black"
     id="path264" />
  <path
     d="M208.374,107.747v -2.36714"
     fill="none"
     stroke="black"
     id="path266" />
  <path
     d="M224.914,106.564h 21.2549"
     fill="none"
     stroke="black"
     id="path268" />
  <path
     d="M246.169,107.747v -2.36714"
     fill="none"
     stroke="black"
     id="path270" />
  <path
     d="M257.975,127.738h -11.8061"
     fill="none"
     stroke="black"
     id="path272" />
  <path
     d="M246.169,128.922v -2.36714"
     fill="none"
     stroke="black"
     id="path274" />
  <path
     d="M262.71,127.738h 21.2549"
     fill="none"
     stroke="black"
     id="path276" />
  <path
     d="M283.965,128.922v -2.36714"
     fill="none"
     stroke="black"
     id="path278" />
  <path
     d="M295.771,171.552h -11.8061"
     fill="none"
     stroke="black"
     id="path280" />
  <path
     d="M283.965,172.736v -2.36714"
     fill="none"
     stroke="black"
     id="path282" />
  <path
     d="M300.505,171.552h 21.2549"
     fill="none"
     stroke="black"
     id="path284" />
  <path
     d="M321.76,172.736v -2.36714"
     fill="none"
     stroke="black"
     id="path286" />
  <path
     d="M298.138,169.185v -0.884486"
     fill="none"
     stroke="black"
     id="path288" />
  <path
     d="M296.954,168.301h 2.36714"
     fill="none"
     stroke="black"
     id="path290" />
  <path
     d="M298.138,173.92v 0.884486"
     fill="none"
     stroke="black"
     id="path292" />
  <path
     d="M296.954,174.804h 2.36714"
     fill="none"
     stroke="black"
     id="path294" />
  <path
     d="M333.566,220.34h -11.8061"
     fill="none"
     stroke="black"
     id="path296" />
  <path
     d="M321.76,221.523v -2.36714"
     fill="none"
     stroke="black"
     id="path298" />
  <path
     d="M338.3,220.34h 21.2549"
     fill="none"
     stroke="black"
     id="path300" />
  <path
     d="M359.555,221.523v -2.36714"
     fill="none"
     stroke="black"
     id="path302" />
  <path
     d="M335.933,217.973v -2.10827"
     fill="none"
     stroke="black"
     id="path304" />
  <path
     d="M334.75,215.864h 2.36714"
     fill="none"
     stroke="black"
     id="path306" />
  <path
     d="M335.933,222.707v 2.10827"
     fill="none"
     stroke="black"
     id="path308" />
  <path
     d="M334.75,224.815h 2.36714"
     fill="none"
     stroke="black"
     id="path310" />
  <path
     d="M371.361,316.514h -11.8061"
     fill="none"
     stroke="black"
     id="path312" />
  <path
     d="M359.555,317.697v -2.36714"
     fill="none"
     stroke="black"
     id="path314" />
  <path
     d="M376.095,316.514h 21.2549"
     fill="none"
     stroke="black"
     id="path316" />
  <path
     d="M397.35,317.697v -2.36714"
     fill="none"
     stroke="black"
     id="path318" />
  <path
     d="M373.728,314.146v -2.97803"
     fill="none"
     stroke="black"
     id="path320" />
  <path
     d="M372.545,311.168h 2.36714"
     fill="none"
     stroke="black"
     id="path322" />
  <path
     d="M373.728,318.881v 2.97803"
     fill="none"
     stroke="black"
     id="path324" />
  <path
     d="M372.545,321.859h 2.36714"
     fill="none"
     stroke="black"
     id="path326" />
  <path
     d="M409.156,372.756h -11.8061"
     fill="none"
     stroke="black"
     id="path328" />
  <path
     d="M397.35,373.939v -2.36714"
     fill="none"
     stroke="black"
     id="path330" />
  <path
     d="M413.891,372.756h 21.2549"
     fill="none"
     stroke="black"
     id="path332" />
  <path
     d="M435.146,373.939v -2.36714"
     fill="none"
     stroke="black"
     id="path334" />
  <path
     d="M411.524,370.389v -4.68509"
     fill="none"
     stroke="black"
     id="path336" />
  <path
     d="M410.34,365.704h 2.36714"
     fill="none"
     stroke="black"
     id="path338" />
  <path
     d="M411.524,375.123v 4.68509"
     fill="none"
     stroke="black"
     id="path340" />
  <path
     d="M410.34,379.808h 2.36714"
     fill="none"
     stroke="black"
     id="path342" />
  <path
     d="M446.952,450.884h -11.8061"
     fill="none"
     stroke="black"
     id="path344" />
  <path
     d="M435.146,452.068v -2.36714"
     fill="none"
     stroke="black"
     id="path346" />
  <path
     d="M451.686,450.884h 21.2549"
     fill="none"
     stroke="black"
     id="path348" />
  <path
     d="M472.941,452.068v -2.36714"
     fill="none"
     stroke="black"
     id="path350" />
  <path
     d="M449.319,448.517v -7.01549"
     fill="none"
     stroke="black"
     id="path352" />
  <path
     d="M448.135,441.502h 2.36714"
     fill="none"
     stroke="black"
     id="path354" />
  <path
     d="M449.319,453.251v 7.01549"
     fill="none"
     stroke="black"
     id="path356" />
  <path
     d="M448.135,460.267h 2.36714"
     fill="none"
     stroke="black"
     id="path358" />
  <path
     d="M111.519,465.947h -16.5305"
     fill="none"
     stroke="black"
     id="path360" />
  <path
     d="M94.9882,467.13v -2.36714"
     fill="none"
     stroke="black"
     id="path362" />
  <path
     d="M116.253,465.947h 16.5305"
     fill="none"
     stroke="black"
     id="path364" />
  <path
     d="M132.783,467.13v -2.36714"
     fill="none"
     stroke="black"
     id="path366" />
  <path
     d="M149.314,257.313h -16.5305"
     fill="none"
     stroke="black"
     id="path368" />
  <path
     d="M132.783,258.496v -2.36714"
     fill="none"
     stroke="black"
     id="path370" />
  <path
     d="M154.048,257.313h 16.5305"
     fill="none"
     stroke="black"
     id="path372" />
  <path
     d="M170.579,258.496v -2.36714"
     fill="none"
     stroke="black"
     id="path374" />
  <path
     d="M187.109,187.089h -16.5305"
     fill="none"
     stroke="black"
     id="path376" />
  <path
     d="M170.579,188.272v -2.36714"
     fill="none"
     stroke="black"
     id="path378" />
  <path
     d="M191.844,187.089h 16.5305"
     fill="none"
     stroke="black"
     id="path380" />
  <path
     d="M208.374,188.272v -2.36714"
     fill="none"
     stroke="black"
     id="path382" />
  <path
     d="M224.905,198.221h -16.5305"
     fill="none"
     stroke="black"
     id="path384" />
  <path
     d="M208.374,199.405v -2.36714"
     fill="none"
     stroke="black"
     id="path386" />
  <path
     d="M229.639,198.221h 16.5305"
     fill="none"
     stroke="black"
     id="path388" />
  <path
     d="M246.169,199.405v -2.36714"
     fill="none"
     stroke="black"
     id="path390" />
  <path
     d="M262.7,256.805h -16.5305"
     fill="none"
     stroke="black"
     id="path392" />
  <path
     d="M246.169,257.989v -2.36714"
     fill="none"
     stroke="black"
     id="path394" />
  <path
     d="M267.434,256.805h 16.5305"
     fill="none"
     stroke="black"
     id="path396" />
  <path
     d="M283.965,257.989v -2.36714"
     fill="none"
     stroke="black"
     id="path398" />
  <path
     d="M300.495,328.811h -16.5305"
     fill="none"
     stroke="black"
     id="path400" />
  <path
     d="M283.965,329.995v -2.36714"
     fill="none"
     stroke="black"
     id="path402" />
  <path
     d="M305.229,328.811h 16.5305"
     fill="none"
     stroke="black"
     id="path404" />
  <path
     d="M321.76,329.995v -2.36714"
     fill="none"
     stroke="black"
     id="path406" />
  <path
     d="M338.29,400.902h -16.5305"
     fill="none"
     stroke="black"
     id="path408" />
  <path
     d="M321.76,402.086v -2.36714"
     fill="none"
     stroke="black"
     id="path410" />
  <path
     d="M343.025,400.902h 16.5305"
     fill="none"
     stroke="black"
     id="path412" />
  <path
     d="M359.555,402.086v -2.36714"
     fill="none"
     stroke="black"
     id="path414" />
  <path
     d="M340.657,398.535v -0.354184"
     fill="none"
     stroke="black"
     id="path416" />
  <path
     d="M339.474,398.181h 2.36714"
     fill="none"
     stroke="black"
     id="path418" />
  <path
     d="M340.657,403.27v 0.354184"
     fill="none"
     stroke="black"
     id="path420" />
  <path
     d="M339.474,403.624h 2.36714"
     fill="none"
     stroke="black"
     id="path422" />
  <path
     d="M376.086,466.63h -16.5305"
     fill="none"
     stroke="black"
     id="path424" />
  <path
     d="M359.555,467.814v -2.36714"
     fill="none"
     stroke="black"
     id="path426" />
  <path
     d="M380.82,466.63h 16.5305"
     fill="none"
     stroke="black"
     id="path428" />
  <path
     d="M397.35,467.814v -2.36714"
     fill="none"
     stroke="black"
     id="path430" />
  <path
     d="M378.453,464.263v -0.527802"
     fill="none"
     stroke="black"
     id="path432" />
  <path
     d="M377.269,463.735h 2.36714"
     fill="none"
     stroke="black"
     id="path434" />
  <path
     d="M378.453,468.997v 0.527802"
     fill="none"
     stroke="black"
     id="path436" />
  <path
     d="M377.269,469.525h 2.36714"
     fill="none"
     stroke="black"
     id="path438" />
  <path
     d="M413.881,501.535h -16.5305"
     fill="none"
     stroke="black"
     id="path440" />
  <path
     d="M397.35,502.718v -2.36714"
     fill="none"
     stroke="black"
     id="path442" />
  <path
     d="M418.615,501.535h 16.5305"
     fill="none"
     stroke="black"
     id="path444" />
  <path
     d="M435.146,502.718v -2.36714"
     fill="none"
     stroke="black"
     id="path446" />
  <path
     d="M416.248,499.168v -0.963963"
     fill="none"
     stroke="black"
     id="path448" />
  <path
     d="M415.064,498.204h 2.36714"
     fill="none"
     stroke="black"
     id="path450" />
  <path
     d="M416.248,503.902v 0.963963"
     fill="none"
     stroke="black"
     id="path452" />
  <path
     d="M415.064,504.866h 2.36714"
     fill="none"
     stroke="black"
     id="path454" />
  <path
     d="M451.676,536.487h -16.5305"
     fill="none"
     stroke="black"
     id="path456" />
  <path
     d="M435.146,537.671v -2.36714"
     fill="none"
     stroke="black"
     id="path458" />
  <path
     d="M456.41,536.487h 16.5305"
     fill="none"
     stroke="black"
     id="path460" />
  <path
     d="M472.941,537.671v -2.36714"
     fill="none"
     stroke="black"
     id="path462" />
  <path
     d="M454.043,534.12v -0.565913"
     fill="none"
     stroke="black"
     id="path464" />
  <path
     d="M452.86,533.554h 2.36714"
     fill="none"
     stroke="black"
     id="path466" />
  <path
     d="M454.043,538.855v 0.565913"
     fill="none"
     stroke="black"
     id="path468" />
  <path
     d="M452.86,539.421h 2.36714"
     fill="none"
     stroke="black"
     id="path470" />
  <g
     fill="#0000ff"
     id="g492">
    <rect
       x="111.519"
       y="463.579"
       width="4.73427"
       height="4.73427"
       id="rect472" />
    <rect
       x="149.314"
       y="254.946"
       width="4.73427"
       height="4.73427"
       id="rect474" />
    <rect
       x="187.109"
       y="184.721"
       width="4.73427"
       height="4.73427"
       id="rect476" />
    <rect
       x="224.905"
       y="195.854"
       width="4.73427"
       height="4.73427"
       id="rect478" />
    <rect
       x="262.7"
       y="254.438"
       width="4.73427"
       height="4.73427"
       id="rect480" />
    <rect
       x="300.495"
       y="326.444"
       width="4.73427"
       height="4.73427"
       id="rect482" />
    <rect
       x="338.29"
       y="398.535"
       width="4.73427"
       height="4.73427"
       id="rect484" />
    <rect
       x="376.086"
       y="464.263"
       width="4.73427"
       height="4.73427"
       id="rect486" />
    <rect
       x="413.881"
       y="499.168"
       width="4.73427"
       height="4.73427"
       id="rect488" />
    <rect
       x="451.676"
       y="534.12"
       width="4.73427"
       height="4.73427"
       id="rect490" />
  </g>
  <path
     d="M116.243,477.112h -21.2549"
     fill="none"
     stroke="black"
     id="path494" />
  <path
     d="M94.9882,478.296v -2.36714"
     fill="none"
     stroke="black"
     id="path496" />
  <path
     d="M120.977,477.112h 11.8061"
     fill="none"
     stroke="black"
     id="path498" />
  <path
     d="M132.783,478.296v -2.36714"
     fill="none"
     stroke="black"
     id="path500" />
  <path
     d="M154.038,306.651h -21.2549"
     fill="none"
     stroke="black"
     id="path502" />
  <path
     d="M132.783,307.834v -2.36714"
     fill="none"
     stroke="black"
     id="path504" />
  <path
     d="M158.773,306.651h 11.8061"
     fill="none"
     stroke="black"
     id="path506" />
  <path
     d="M170.579,307.834v -2.36714"
     fill="none"
     stroke="black"
     id="path508" />
  <path
     d="M191.834,272.4h -21.2549"
     fill="none"
     stroke="black"
     id="path510" />
  <path
     d="M170.579,273.583v -2.36714"
     fill="none"
     stroke="black"
     id="path512" />
  <path
     d="M196.568,272.4h 11.8061"
     fill="none"
     stroke="black"
     id="path514" />
  <path
     d="M208.374,273.583v -2.36714"
     fill="none"
     stroke="black"
     id="path516" />
  <path
     d="M229.629,315.792h -21.2549"
     fill="none"
     stroke="black"
     id="path518" />
  <path
     d="M208.374,316.976v -2.36714"
     fill="none"
     stroke="black"
     id="path520" />
  <path
     d="M234.363,315.792h 11.8061"
     fill="none"
     stroke="black"
     id="path522" />
  <path
     d="M246.169,316.976v -2.36714"
     fill="none"
     stroke="black"
     id="path524" />
  <path
     d="M267.424,398.346h -21.2549"
     fill="none"
     stroke="black"
     id="path526" />
  <path
     d="M246.169,399.53v -2.36714"
     fill="none"
     stroke="black"
     id="path528" />
  <path
     d="M272.158,398.346h 11.8061"
     fill="none"
     stroke="black"
     id="path530" />
  <path
     d="M283.965,399.53v -2.36714"
     fill="none"
     stroke="black"
     id="path532" />
  <path
     d="M305.219,470.628h -21.2549"
     fill="none"
     stroke="black"
     id="path534" />
  <path
     d="M283.965,471.812v -2.36714"
     fill="none"
     stroke="black"
     id="path536" />
  <path
     d="M309.954,470.628h 11.8061"
     fill="none"
     stroke="black"
     id="path538" />
  <path
     d="M321.76,471.812v -2.36714"
     fill="none"
     stroke="black"
     id="path540" />
  <path
     d="M343.015,518.738h -21.2549"
     fill="none"
     stroke="black"
     id="path542" />
  <path
     d="M321.76,519.921v -2.36714"
     fill="none"
     stroke="black"
     id="path544" />
  <path
     d="M347.749,518.738h 11.8061"
     fill="none"
     stroke="black"
     id="path546" />
  <path
     d="M359.555,519.921v -2.36714"
     fill="none"
     stroke="black"
     id="path548" />
  <path
     d="M380.81,537.61h -21.2549"
     fill="none"
     stroke="black"
     id="path550" />
  <path
     d="M359.555,538.793v -2.36714"
     fill="none"
     stroke="black"
     id="path552" />
  <path
     d="M385.544,537.61h 11.8061"
     fill="none"
     stroke="black"
     id="path554" />
  <path
     d="M397.35,538.793v -2.36714"
     fill="none"
     stroke="black"
     id="path556" />
  <path
     d="M418.605,543.543h -21.2549"
     fill="none"
     stroke="black"
     id="path558" />
  <path
     d="M397.35,544.726v -2.36714"
     fill="none"
     stroke="black"
     id="path560" />
  <path
     d="M423.34,543.543h 11.8061"
     fill="none"
     stroke="black"
     id="path562" />
  <path
     d="M435.146,544.726v -2.36714"
     fill="none"
     stroke="black"
     id="path564" />
  <path
     d="M456.401,546.178h -21.2549"
     fill="none"
     stroke="black"
     id="path566" />
  <path
     d="M435.146,546.986v -1.99115"
     fill="none"
     stroke="black"
     id="path568" />
  <path
     d="M461.135,546.178h 11.8061"
     fill="none"
     stroke="black"
     id="path570" />
  <path
     d="M472.941,546.986v -1.99115"
     fill="none"
     stroke="black"
     id="path572" />
  <g
     fill="#00ff00"
     id="g594">
    <rect
       x="116.243"
       y="474.745"
       width="4.73427"
       height="4.73427"
       id="rect574" />
    <rect
       x="154.038"
       y="304.284"
       width="4.73427"
       height="4.73427"
       id="rect576" />
    <rect
       x="191.834"
       y="270.033"
       width="4.73427"
       height="4.73427"
       id="rect578" />
    <rect
       x="229.629"
       y="313.425"
       width="4.73427"
       height="4.73427"
       id="rect580" />
    <rect
       x="267.424"
       y="395.979"
       width="4.73427"
       height="4.73427"
       id="rect582" />
    <rect
       x="305.219"
       y="468.261"
       width="4.73427"
       height="4.73427"
       id="rect584" />
    <rect
       x="343.015"
       y="516.37"
       width="4.73427"
       height="4.73427"
       id="rect586" />
    <rect
       x="380.81"
       y="535.242"
       width="4.73427"
       height="4.73427"
       id="rect588" />
    <rect
       x="418.605"
       y="541.176"
       width="4.73427"
       height="4.73427"
       id="rect590" />
    <rect
       x="456.401"
       y="543.811"
       width="4.73427"
       height="4.73427"
       id="rect592" />
  </g>
  <rect
     x="332.491"
     y="72.7894"
     width="169.842"
     height="60.362"
     fill="white"
     id="rect596" />
  <path
     d="M332.491,133.151h 169.842"
     fill="none"
     stroke="black"
     id="path598" />
  <path
     d="M502.333,133.151v -60.362"
     fill="none"
     stroke="black"
     id="path600" />
  <path
     d="M502.333,72.7894h -169.842"
     fill="none"
     stroke="black"
     id="path602" />
  <path
     d="M332.491,72.7894v 60.362"
     fill="none"
     stroke="black"
     id="path604" />
  <text
     xml:space="preserve"
     x="374.508"
     y="86.9923"
     fill="black"
     font-size="13.6676"
     font-family="Helvetica"
     id="text606">DC</text>
  <path
     d="M338.86,82.8498h 29.7224"
     fill="none"
     stroke="black"
     id="path608" />
  <g
     fill="#ff0000"
     id="g612">
    <rect
       x="351.354"
       y="80.4826"
       width="4.73427"
       height="4.73427"
       id="rect610" />
  </g>
  <text
     xml:space="preserve"
     x="374.508"
     y="107.113"
     fill="black"
     font-size="13.6676"
     font-family="Helvetica"
     id="text614">FMT - 2 layers</text>
  <path
     d="M338.86,102.97h 29.7224"
     fill="none"
     stroke="black"
     id="path616" />
  <g
     fill="#0000ff"
     id="g620">
    <rect
       x="351.354"
       y="100.603"
       width="4.73427"
       height="4.73427"
       id="rect618" />
  </g>
  <text
     xml:space="preserve"
     x="374.508"
     y="127.234"
     fill="black"
     font-size="13.6676"
     font-family="Helvetica"
     id="text622">FMT - 3 layers</text>
  <path
     d="M338.86,123.091h 29.7224"
     fill="none"
     stroke="black"
     id="path624" />
  <g
     fill="#00ff00"
     id="g628">
    <rect
       x="351.354"
       y="120.724"
       width="4.73427"
       height="4.73427"
       id="rect626" />
  </g>
  <g
     id="g932"
     transform="translate(26.937636)">
    <text
       xml:space="preserve"
       x="245.49899"
       y="34.323502"
       fill="#000000"
       font-size="11.0008px"
       font-family="Helvetica"
       font-weight="bold"
       id="text632">) acceptance</text>
    <text
       xml:space="preserve"
       x="241.356"
       y="29.589199"
       fill="#000000"
       font-size="7.50056px"
       font-family="Helvetica"
       font-weight="bold"
       id="text634">2</text>
    <text
       xml:space="preserve"
       x="213.54201"
       y="34.323502"
       fill="#000000"
       font-size="11.0008px"
       font-family="Helvetica"
       font-weight="bold"
       id="text636"> (GeV</text>
    <text
       xml:space="preserve"
       x="209.39999"
       y="29.589199"
       fill="#000000"
       font-size="7.50056px"
       font-family="Helvetica"
       font-weight="bold"
       id="text638">2</text>
    <text
       xml:space="preserve"
       x="201.11501"
       y="34.323502"
       fill="#000000"
       font-size="11.0008px"
       font-family="Helvetica"
       font-weight="bold"
       id="text640">Q</text>
  </g>
</svg>
