<?xml version="1.0" encoding="UTF-8" standalone="no"?>
<svg
   width="766.52441"
   height="606.4209"
   version="1.1"
   id="svg344"
   sodipodi:docname="22phipq_acc_-211.svg"
   inkscape:version="1.2.2 (1:1.2.2+202305151914+b0a8486541)"
   inkscape:export-filename="22phipq_acc_-211.pdf"
   inkscape:export-xdpi="96"
   inkscape:export-ydpi="96"
   xmlns:inkscape="http://www.inkscape.org/namespaces/inkscape"
   xmlns:sodipodi="http://sodipodi.sourceforge.net/DTD/sodipodi-0.dtd"
   xmlns="http://www.w3.org/2000/svg"
   xmlns:svg="http://www.w3.org/2000/svg">
  <defs
     id="defs348" />
  <sodipodi:namedview
     id="namedview346"
     pagecolor="#ffffff"
     bordercolor="#666666"
     borderopacity="1.0"
     inkscape:showpageshadow="2"
     inkscape:pageopacity="0.0"
     inkscape:pagecheckerboard="0"
     inkscape:deskcolor="#d1d1d1"
     showgrid="false"
     inkscape:zoom="0.71515151"
     inkscape:cx="342.58475"
     inkscape:cy="142.62712"
     inkscape:window-width="1920"
     inkscape:window-height="1051"
     inkscape:window-x="0"
     inkscape:window-y="0"
     inkscape:window-maximized="1"
     inkscape:current-layer="svg344" />
  <g
     transform="translate(29,27.775391)"
     id="g258">
    <title
       id="title4" />
    <path
       d="M 0,0 H 734 V 528 H 0 Z"
       style="fill:#ffffff;stroke:#000000;stroke-width:1"
       id="path6" />
    <g
       id="g12">
      <path
         d="M 75,0 V 528 M 172,0 V 528 M 270,0 V 528 M 367,0 V 528 M 464,0 V 528 M 562,0 V 528 M 659,0 v 528"
         style="stroke:#000000;stroke-width:1;stroke-dasharray:1, 2"
         id="path8" />
      <path
         d="M 0,528 H 734 M 0,425 H 734 M 0,322 H 734 M 0,219 H 734 M 0,117 H 734 M 0,14 h 734"
         style="stroke:#000000;stroke-width:1;stroke-dasharray:1, 2"
         id="path10" />
    </g>
    <svg
       x="0"
       y="0"
       overflow="hidden"
       width="734"
       height="528"
       viewBox="0 0 734 528"
       version="1.1"
       id="svg178">
      <g
         id="g94">
        <g
           transform="translate(82,52)"
           id="g18">
          <path
             d="M -21,4 H 26 V -4 H -21 Z"
             style="fill:none"
             id="path14" />
          <path
             d="m 0,0 h -21 m 0,3 V -3 M 0,0 h 26 m 0,3 V -3 M 0,0 V 4 M 3,4 H -3 M 0,0 v -4 m 3,0 h -6"
             style="fill:none;stroke:#000000;stroke-width:1"
             id="path16" />
        </g>
        <g
           transform="translate(129,116)"
           id="g24">
          <path
             d="M -21,4 H 26 V -4 H -21 Z"
             style="fill:none"
             id="path20" />
          <path
             d="m 0,0 h -21 m 0,3 V -3 M 0,0 h 26 m 0,3 V -3 M 0,0 V 4 M 3,4 H -3 M 0,0 v -4 m 3,0 h -6"
             style="fill:none;stroke:#000000;stroke-width:1"
             id="path22" />
        </g>
        <g
           transform="translate(176,187)"
           id="g30">
          <path
             d="M -21,3 H 26 V -3 H -21 Z"
             style="fill:none"
             id="path26" />
          <path
             d="m 0,0 h -21 m 0,3 V -3 M 0,0 h 26 m 0,3 V -3 M 0,0 V 3 M 3,3 H -3 M 0,0 v -3 m 3,0 h -6"
             style="fill:none;stroke:#000000;stroke-width:1"
             id="path28" />
        </g>
        <g
           transform="translate(223,259)"
           id="g36">
          <path
             d="M -21,3 H 26 V -3 H -21 Z"
             style="fill:none"
             id="path32" />
          <path
             d="m 0,0 h -21 m 0,3 V -3 M 0,0 h 26 m 0,3 V -3 M 0,0 V 3 M 3,3 H -3 M 0,0 v -3 m 3,0 h -6"
             style="fill:none;stroke:#000000;stroke-width:1"
             id="path34" />
        </g>
        <g
           transform="translate(270,365)"
           id="g42">
          <path
             d="M -21,2 H 26 V -2 H -21 Z"
             style="fill:none"
             id="path38" />
          <path
             d="m 0,0 h -21 m 0,3 V -3 M 0,0 h 26 m 0,3 V -3 M 0,0 V 2 M 3,2 H -3 M 0,0 v -2 m 3,0 h -6"
             style="fill:none;stroke:#000000;stroke-width:1"
             id="path40" />
        </g>
        <g
           transform="translate(317,431)"
           id="g48">
          <path
             d="M -21,2 H 26 V -2 H -21 Z"
             style="fill:none"
             id="path44" />
          <path
             d="m 0,0 h -21 m 0,3 V -3 M 0,0 h 26 m 0,3 V -3 M 0,0 V 2 M 3,2 H -3 M 0,0 v -2 m 3,0 h -6"
             style="fill:none;stroke:#000000;stroke-width:1"
             id="path46" />
        </g>
        <g
           transform="translate(364,465)"
           id="g54">
          <path
             d="M -21,1 H 26 V -1 H -21 Z"
             style="fill:none"
             id="path50" />
          <path
             d="m 0,0 h -21 m 0,3 V -3 M 0,0 h 26 m 0,3 V -3 M 0,0 V 1 M 3,1 H -3 M 0,0 v -1 m 3,0 h -6"
             style="fill:none;stroke:#000000;stroke-width:1"
             id="path52" />
        </g>
        <g
           transform="translate(411,455)"
           id="g60">
          <path
             d="M -21,1 H 26 V -1 H -21 Z"
             style="fill:none"
             id="path56" />
          <path
             d="m 0,0 h -21 m 0,3 V -3 M 0,0 h 26 m 0,3 V -3 M 0,0 V 1 M 3,1 H -3 M 0,0 v -1 m 3,0 h -6"
             style="fill:none;stroke:#000000;stroke-width:1"
             id="path58" />
        </g>
        <g
           transform="translate(458,384)"
           id="g66">
          <path
             d="M -21,2 H 26 V -2 H -21 Z"
             style="fill:none"
             id="path62" />
          <path
             d="m 0,0 h -21 m 0,3 V -3 M 0,0 h 26 m 0,3 V -3 M 0,0 V 2 M 3,2 H -3 M 0,0 v -2 m 3,0 h -6"
             style="fill:none;stroke:#000000;stroke-width:1"
             id="path64" />
        </g>
        <g
           transform="translate(505,288)"
           id="g72">
          <path
             d="M -21,3 H 26 V -3 H -21 Z"
             style="fill:none"
             id="path68" />
          <path
             d="m 0,0 h -21 m 0,3 V -3 M 0,0 h 26 m 0,3 V -3 M 0,0 V 3 M 3,3 H -3 M 0,0 v -3 m 3,0 h -6"
             style="fill:none;stroke:#000000;stroke-width:1"
             id="path70" />
        </g>
        <g
           transform="translate(552,191)"
           id="g78">
          <path
             d="M -21,3 H 26 V -3 H -21 Z"
             style="fill:none"
             id="path74" />
          <path
             d="m 0,0 h -21 m 0,3 V -3 M 0,0 h 26 m 0,3 V -3 M 0,0 V 3 M 3,3 H -3 M 0,0 v -3 m 3,0 h -6"
             style="fill:none;stroke:#000000;stroke-width:1"
             id="path76" />
        </g>
        <g
           transform="translate(599,147)"
           id="g84">
          <path
             d="M -21,3 H 26 V -3 H -21 Z"
             style="fill:none"
             id="path80" />
          <path
             d="m 0,0 h -21 m 0,3 V -3 M 0,0 h 26 m 0,3 V -3 M 0,0 V 3 M 3,3 H -3 M 0,0 v -3 m 3,0 h -6"
             style="fill:none;stroke:#000000;stroke-width:1"
             id="path82" />
        </g>
        <g
           transform="translate(646,92)"
           id="g90">
          <path
             d="M -21,4 H 26 V -4 H -21 Z"
             style="fill:none"
             id="path86" />
          <path
             d="m 0,0 h -21 m 0,3 V -3 M 0,0 h 26 m 0,3 V -3 M 0,0 V 4 M 3,4 H -3 M 0,0 v -4 m 3,0 h -6"
             style="fill:none;stroke:#000000;stroke-width:1"
             id="path88" />
        </g>
        <path
           d="m 78,48 v 8 h 8 v -8 z m 47,64 v 8 h 8 v -8 z m 47,71 v 8 h 8 v -8 z m 47,72 v 8 h 8 v -8 z m 47,106 v 8 h 8 v -8 z m 47,66 v 8 h 8 v -8 z m 47,34 v 8 h 8 v -8 z m 47,-10 v 8 h 8 v -8 z m 47,-71 v 8 h 8 v -8 z m 47,-96 v 8 h 8 v -8 z m 47,-97 v 8 h 8 v -8 z m 47,-44 v 8 h 8 v -8 z m 47,-55 v 8 h 8 v -8 z"
           style="fill:#ff0000;stroke:#ff0000"
           id="path92" />
      </g>
      <g
         id="g176">
        <g
           transform="translate(88,213)"
           id="g100">
          <path
             d="M -26,3 H 21 V -3 H -26 Z"
             style="fill:none"
             id="path96" />
          <path
             d="m 0,0 h -26 m 0,3 V -3 M 0,0 h 21 m 0,3 V -3 M 0,0 V 3 M 3,3 H -3 M 0,0 v -3 m 3,0 h -6"
             style="fill:none;stroke:#000000;stroke-width:1"
             id="path98" />
        </g>
        <g
           transform="translate(135,269)"
           id="g106">
          <path
             d="M -26,3 H 21 V -3 H -26 Z"
             style="fill:none"
             id="path102" />
          <path
             d="m 0,0 h -26 m 0,3 V -3 M 0,0 h 21 m 0,3 V -3 M 0,0 V 3 M 3,3 H -3 M 0,0 v -3 m 3,0 h -6"
             style="fill:none;stroke:#000000;stroke-width:1"
             id="path104" />
        </g>
        <g
           transform="translate(182,317)"
           id="g112">
          <path
             d="M -26,3 H 21 V -3 H -26 Z"
             style="fill:none"
             id="path108" />
          <path
             d="m 0,0 h -26 m 0,3 V -3 M 0,0 h 21 m 0,3 V -3 M 0,0 V 3 M 3,3 H -3 M 0,0 v -3 m 3,0 h -6"
             style="fill:none;stroke:#000000;stroke-width:1"
             id="path110" />
        </g>
        <g
           transform="translate(229,374)"
           id="g118">
          <path
             d="M -26,2 H 21 V -2 H -26 Z"
             style="fill:none"
             id="path114" />
          <path
             d="m 0,0 h -26 m 0,3 V -3 M 0,0 h 21 m 0,3 V -3 M 0,0 V 2 M 3,2 H -3 M 0,0 v -2 m 3,0 h -6"
             style="fill:none;stroke:#000000;stroke-width:1"
             id="path116" />
        </g>
        <g
           transform="translate(276,440)"
           id="g124">
          <path
             d="M -26,2 H 21 V -2 H -26 Z"
             style="fill:none"
             id="path120" />
          <path
             d="m 0,0 h -26 m 0,3 V -3 M 0,0 h 21 m 0,3 V -3 M 0,0 V 2 M 3,2 H -3 M 0,0 v -2 m 3,0 h -6"
             style="fill:none;stroke:#000000;stroke-width:1"
             id="path122" />
        </g>
        <g
           transform="translate(323,480)"
           id="g130">
          <path
             d="M -26,1 H 21 V -1 H -26 Z"
             style="fill:none"
             id="path126" />
          <path
             d="m 0,0 h -26 m 0,3 V -3 M 0,0 h 21 m 0,3 V -3 M 0,0 V 1 M 3,1 H -3 M 0,0 v -1 m 3,0 h -6"
             style="fill:none;stroke:#000000;stroke-width:1"
             id="path128" />
        </g>
        <g
           transform="translate(370,496)"
           id="g136">
          <path
             d="M -26,1 H 21 V -1 H -26 Z"
             style="fill:none"
             id="path132" />
          <path
             d="m 0,0 h -26 m 0,3 V -3 M 0,0 h 21 m 0,3 V -3 M 0,0 V 1 M 3,1 H -3 M 0,0 v -1 m 3,0 h -6"
             style="fill:none;stroke:#000000;stroke-width:1"
             id="path134" />
        </g>
        <g
           transform="translate(417,488)"
           id="g142">
          <path
             d="M -26,1 H 21 V -1 H -26 Z"
             style="fill:none"
             id="path138" />
          <path
             d="m 0,0 h -26 m 0,3 V -3 M 0,0 h 21 m 0,3 V -3 M 0,0 V 1 M 3,1 H -3 M 0,0 v -1 m 3,0 h -6"
             style="fill:none;stroke:#000000;stroke-width:1"
             id="path140" />
        </g>
        <g
           transform="translate(464,443)"
           id="g148">
          <path
             d="M -26,2 H 21 V -2 H -26 Z"
             style="fill:none"
             id="path144" />
          <path
             d="m 0,0 h -26 m 0,3 V -3 M 0,0 h 21 m 0,3 V -3 M 0,0 V 2 M 3,2 H -3 M 0,0 v -2 m 3,0 h -6"
             style="fill:none;stroke:#000000;stroke-width:1"
             id="path146" />
        </g>
        <g
           transform="translate(511,381)"
           id="g154">
          <path
             d="M -26,2 H 21 V -2 H -26 Z"
             style="fill:none"
             id="path150" />
          <path
             d="m 0,0 h -26 m 0,3 V -3 M 0,0 h 21 m 0,3 V -3 M 0,0 V 2 M 3,2 H -3 M 0,0 v -2 m 3,0 h -6"
             style="fill:none;stroke:#000000;stroke-width:1"
             id="path152" />
        </g>
        <g
           transform="translate(558,310)"
           id="g160">
          <path
             d="M -26,3 H 21 V -3 H -26 Z"
             style="fill:none"
             id="path156" />
          <path
             d="m 0,0 h -26 m 0,3 V -3 M 0,0 h 21 m 0,3 V -3 M 0,0 V 3 M 3,3 H -3 M 0,0 v -3 m 3,0 h -6"
             style="fill:none;stroke:#000000;stroke-width:1"
             id="path158" />
        </g>
        <g
           transform="translate(605,292)"
           id="g166">
          <path
             d="M -26,3 H 21 V -3 H -26 Z"
             style="fill:none"
             id="path162" />
          <path
             d="m 0,0 h -26 m 0,3 V -3 M 0,0 h 21 m 0,3 V -3 M 0,0 V 3 M 3,3 H -3 M 0,0 v -3 m 3,0 h -6"
             style="fill:none;stroke:#000000;stroke-width:1"
             id="path164" />
        </g>
        <g
           transform="translate(652,238)"
           id="g172">
          <path
             d="M -26,3 H 21 V -3 H -26 Z"
             style="fill:none"
             id="path168" />
          <path
             d="m 0,0 h -26 m 0,3 V -3 M 0,0 h 21 m 0,3 V -3 M 0,0 V 3 M 3,3 H -3 M 0,0 v -3 m 3,0 h -6"
             style="fill:none;stroke:#000000;stroke-width:1"
             id="path170" />
        </g>
        <path
           d="m 84,209 v 8 h 8 v -8 z m 47,56 v 8 h 8 v -8 z m 47,48 v 8 h 8 v -8 z m 47,57 v 8 h 8 v -8 z m 47,66 v 8 h 8 v -8 z m 47,40 v 8 h 8 v -8 z m 47,16 v 8 h 8 v -8 z m 47,-8 v 8 h 8 v -8 z m 47,-45 v 8 h 8 v -8 z m 47,-62 v 8 h 8 v -8 z m 47,-71 v 8 h 8 v -8 z m 47,-18 v 8 h 8 v -8 z m 47,-54 v 8 h 8 v -8 z"
           style="fill:#0000ff;stroke:#0000ff"
           id="path174" />
      </g>
    </svg>
    <g
       id="g238">
      <g
         transform="translate(0,528)"
         id="g210">
        <path
           d="M 0,0 H 734 M 17,-10 V 0 M 36,-10 V 0 M 55,-10 V 0 M 75,-20 V 0 M 94,-10 V 0 m 20,-10 V 0 m 19,-10 V 0 m 20,-10 V 0 m 19,-20 V 0 m 20,-10 V 0 m 19,-10 V 0 m 20,-10 V 0 m 19,-10 V 0 m 20,-20 V 0 m 19,-10 V 0 m 20,-10 V 0 m 19,-10 V 0 m 20,-10 V 0 m 19,-20 V 0 m 19,-10 V 0 m 20,-10 V 0 m 19,-10 V 0 m 20,-10 V 0 m 19,-20 V 0 m 20,-10 V 0 m 19,-10 V 0 m 20,-10 V 0 m 19,-10 V 0 m 20,-20 V 0 m 19,-10 V 0 m 20,-10 V 0 m 19,-10 V 0 m 20,-10 V 0 m 19,-20 V 0 m 20,-10 V 0 m 19,-10 V 0 m 19,-10 V 0"
           style="stroke:#000000;stroke-width:1"
           id="path180" />
        <g
           font-family="Arial"
           font-size="23px"
           xml:space="preserve"
           fill="#000000"
           text-anchor="middle"
           id="g196"><text
             dy="0.80000001em"
             transform="translate(75,5)"
             id="text182">-3</text><text
             dy="0.80000001em"
             transform="translate(172,5)"
             id="text184">-2</text><text
             dy="0.80000001em"
             transform="translate(270,5)"
             id="text186">-1</text><text
             dy="0.80000001em"
             transform="translate(367,5)"
             id="text188">0</text><text
             dy="0.80000001em"
             transform="translate(464,5)"
             id="text190">1</text><text
             dy="0.80000001em"
             transform="translate(562,5)"
             id="text192">2</text><text
             dy="0.80000001em"
             transform="translate(659,5)"
             id="text194">3</text></g>
        <rect
           x="0"
           y="0"
           width="734"
           height="26"
           style="opacity:0"
           id="rect198" />
        <g
           font-family="Arial"
           font-size="23px"
           xml:space="preserve"
           transform="translate(734,37)"
           id="g208"><g
             transform="translate(-85,7)"
             id="g206"><text
               fill="#000000"
               font-size="23px"
               id="text200">φ</text><text
               fill="#000000"
               font-size="14px"
               transform="translate(15,4)"
               id="text202">PQ</text><text
               fill="#000000"
               font-size="23px"
               x="35"
               id="text204"> (rad)</text></g></g>
      </g>
      <g
         id="g236">
        <path
           d="m 0,0 v 528 m 28,0 H 0 M 14,507 H 0 M 14,487 H 0 M 14,466 H 0 M 14,446 H 0 M 28,425 H 0 M 14,405 H 0 M 14,384 H 0 M 14,363 H 0 M 14,343 H 0 M 28,322 H 0 M 14,302 H 0 M 14,281 H 0 M 14,261 H 0 M 14,240 H 0 M 28,219 H 0 M 14,199 H 0 M 14,178 H 0 M 14,158 H 0 M 14,137 H 0 M 28,117 H 0 M 14,96 H 0 M 14,75 H 0 M 14,55 H 0 M 14,34 H 0 M 28,14 H 0"
           style="stroke:#000000;stroke-width:1"
           id="path212" />
        <g
           font-family="Arial"
           font-size="23px"
           xml:space="preserve"
           id="g232"><text
             fill="#000000"
             text-anchor="end"
             dominant-baseline="middle"
             transform="translate(-3,528)"
             id="text214">0</text><text
             fill="#000000"
             text-anchor="end"
             dominant-baseline="middle"
             transform="translate(-3,425)"
             id="text216">5</text><text
             fill="#000000"
             text-anchor="end"
             dominant-baseline="middle"
             transform="translate(-3,322)"
             id="text218">10</text><text
             fill="#000000"
             text-anchor="end"
             dominant-baseline="middle"
             transform="translate(-3,219)"
             id="text220">15</text><text
             fill="#000000"
             text-anchor="end"
             dominant-baseline="middle"
             transform="translate(-3,117)"
             id="text222">20</text><text
             fill="#000000"
             text-anchor="end"
             dominant-baseline="middle"
             transform="translate(-3,14)"
             id="text224">25</text><g
             transform="translate(5,-8)"
             id="g230"><text
               fill="#000000"
               font-size="23px"
               id="text226">×10</text><text
               fill="#000000"
               font-size="14px"
               transform="translate(39,-10)"
               id="text228">-3</text></g></g>
        <rect
           x="-29"
           y="0"
           width="29"
           height="528"
           style="opacity:0"
           id="rect234" />
      </g>
    </g>
    <path
       d="M 2,2 H 17 V -3 H -3 v 20 h 5 z"
       style="opacity:0"
       id="path240" />
    <path
       d="m 732,2 h -15 v -5 h 20 v 20 h -5 z"
       style="opacity:0"
       id="path242" />
    <path
       d="m 2,526 h 15 v 5 H -3 v -20 h 5 z"
       style="opacity:0"
       id="path244" />
    <path
       d="m 732,526 h -15 v 5 h 20 v -20 h -5 z"
       style="opacity:0"
       id="path246" />
    <path
       d="M -3,18 H 2 V 510 H -3 Z"
       style="opacity:0"
       id="path248" />
    <path
       d="m 737,18 h -5 v 492 h 5 z"
       style="opacity:0"
       id="path250" />
    <path
       d="M 18,-3 V 2 H 716 V -3 Z"
       style="opacity:0"
       id="path252" />
    <path
       d="m 18,531 v -5 h 698 v 5 z"
       style="opacity:0"
       id="path254" />
    <style
       id="style256">
.jsroot rect.h1bin { stroke: #4572A7; fill: #4572A7; opacity: 0; }
.jsroot rect.zoom { stroke: steelblue; fill-opacity: 0.1; }
.jsroot path.zoom { stroke: steelblue; fill-opacity: 0.1; }
.jsroot svg:not(:root) { overflow: hidden; }</style>
  </g>
  <g
     transform="translate(658,40.775391)"
     font-family="Arial"
     font-size="27px"
     xml:space="preserve"
     id="g290"><path
       d="M 0,0 H 91 V 65 H 0 Z"
       style="fill:#ffffff;stroke:#000000;stroke-width:1"
       id="path260" /><path
       d="M 3,17 H 20"
       style="stroke:#000000;stroke-width:1"
       id="path262" /><path
       d="m 8,13 v 8 h 8 v -8 z"
       style="fill:#ff0000;stroke:#ff0000"
       id="path264" /><text
       fill="#000000"
       text-anchor="start"
       dominant-baseline="middle"
       transform="translate(23,17)"
       id="text266">DC</text><path
       d="M 3,48 H 20"
       style="stroke:#000000;stroke-width:1"
       id="path268" /><path
       d="m 8,44 v 8 h 8 v -8 z"
       style="fill:#0000ff;stroke:#0000ff"
       id="path270" /><text
       fill="#000000"
       text-anchor="start"
       dominant-baseline="middle"
       transform="translate(23,48)"
       id="text272">FMT</text><path
       d="M 2,2 H 17 V -3 H -3 v 20 h 5 z"
       style="opacity:0"
       id="path274" /><path
       d="M 89,2 H 74 v -5 h 20 v 20 h -5 z"
       style="opacity:0"
       id="path276" /><path
       d="m 2,63 h 15 v 5 H -3 V 48 h 5 z"
       style="opacity:0"
       id="path278" /><path
       d="M 89,63 H 74 v 5 H 94 V 48 h -5 z"
       style="opacity:0"
       id="path280" /><path
       d="M -3,18 H 2 V 47 H -3 Z"
       style="opacity:0"
       id="path282" /><path
       d="m 94,18 h -5 v 29 h 5 z"
       style="opacity:0"
       id="path284" /><path
       d="M 18,-3 V 2 H 73 V -3 Z"
       style="opacity:0"
       id="path286" /><path
       d="m 18,68 v -5 h 55 v 5 z"
       style="opacity:0"
       id="path288" /></g>
</svg>
