<?xml version="1.0" encoding="UTF-8" standalone="no"?>
<svg
   width="1557"
   height="660"
   version="1.1"
   id="svg208"
   sodipodi:docname="22phi_theta_pos.svg"
   inkscape:version="1.2.2 (1:1.2.2+202305151914+b0a8486541)"
   xmlns:inkscape="http://www.inkscape.org/namespaces/inkscape"
   xmlns:sodipodi="http://sodipodi.sourceforge.net/DTD/sodipodi-0.dtd"
   xmlns="http://www.w3.org/2000/svg"
   xmlns:svg="http://www.w3.org/2000/svg">
  <defs
     id="defs212" />
  <sodipodi:namedview
     id="namedview210"
     pagecolor="#ffffff"
     bordercolor="#666666"
     borderopacity="1.0"
     inkscape:showpageshadow="2"
     inkscape:pageopacity="0.0"
     inkscape:pagecheckerboard="0"
     inkscape:deskcolor="#d1d1d1"
     showgrid="false"
     showguides="false"
     inkscape:zoom="0.71515151"
     inkscape:cx="725.72034"
     inkscape:cy="306.22881"
     inkscape:window-width="1920"
     inkscape:window-height="1051"
     inkscape:window-x="0"
     inkscape:window-y="0"
     inkscape:window-maximized="1"
     inkscape:current-layer="g134" />
  <g
     id="g206">
    <g
       transform="translate(156,66)"
       id="g134">
      <title
         id="title4" />
      <path
         d="M0,0H1246V528H0Z"
         style="fill:none;stroke:rgb(0, 0, 0);stroke-width:1;pointer-events:visiblefill"
         id="path6"
         inkscape:export-filename="22phi_theta_pos.pdf"
         inkscape:export-xdpi="96"
         inkscape:export-ydpi="96" />
      <svg
         x="0"
         y="0"
         overflow="hidden"
         width="1246"
         height="528"
         viewBox="0 0 1246 528"
         style="pointer-events: visiblefill;"
         version="1.1"
         id="svg48">
        <g
           id="g46">
          <path
             fill="#263da8"
             d="M0,116h6v82h-6zm0,85h6v26h-6zm0,29h6v5h-6zm0,8h6v5h-6zM0,473h6v15h-6zm0,18h6v3h-6zm0,5h6v3h-6zm0,8h6v3h-6zm0,8h6v3h-6zM6,121h6v101h-6zM6,224h6v3h-6zm0,11h6v3h-6zM6,470h6v29h-6zM12,129h7v90h-7zm0,95h7v3h-7zm0,6h7v8h-7zm0,237h7v32h-7zm0,35h7v2h-7zM19,137h6v85h-6zm0,87h6v14h-6zm0,241h6v23h-6zm0,26h6v11h-6zm0,29h6v3h-6zM25,143h6v71h-6zm0,73h6v14h-6zm0,16h6v6h-6zm0,227h6v35h-6zm0,37h6v8h-6zm0,14h6v2h-6zM31,148h6v58h-6zm0,61h6v18h-6zm0,21h6v2h-6zm0,227h6v37h-6zm0,42h6v3h-6zm0,5h6v3h-6zm0,6h6v2h-6zm0,5h6v2h-6zM37,156h7v60h-7zm0,63h7v5h-7zm0,11h7v2h-7zm0,5h7v3h-7zm0,216h7v48h-7zm0,53h7v3h-7zm0,6h7v2h-7zm0,7h7v8h-7zM44,158h6v66h-6zm0,103h6v3h-6zm0,185h6v61h-6zm0,64h6v2h-6zm0,7h6v3h-6zM50,164h6v66h-6zm0,71h6v5h-6zm0,201h6v58h-6zm0,60h6v8h-6zM56,169h6v47h-6zm0,55h6v3h-6zm0,193h6v3h-6zm0,8h6v71h-6zm0,74h6v8h-6zM62,174h7v24h-7zm0,27h7v10h-7zm0,13h7v5h-7zm0,13h7v3h-7zm0,8h7v3h-7zm0,5h7v3h-7zm0,185h7v79h-7zm0,82h7v3h-7zm0,13h7v3h-7zM69,177h6v34h-6zm0,47h6v3h-6zm0,16h6v3h-6zm0,185h6v3h-6zm0,5h6v66h-6zm0,77h6v3h-6zM75,180h6v34h-6zm0,39h6v3h-6zm0,209h6v5h-6zm0,10h6v53h-6zm0,56h6v2h-6zm0,5h6v3h-6zm0,5h6v8h-6zM81,185h6v24h-6zm0,37h6v2h-6zm0,5h6v3h-6zm0,214h6v5h-6zm0,8h6v55h-6zm0,58h6v5h-6zm0,10h6v3h-6zM87,187h6v6h-6zm0,8h6v8h-6zm0,262h6v29h-6zm0,31h6v11h-6zm0,14h6v2h-6zm0,8h6v5h-6zm0,7h6v3h-6zM93,190h7v5h-7zm0,256h7v3h-7zm0,8h7v3h-7zm0,5h7v37h-7zm0,40h7v11h-7zm7,-306h6v8h-6zm0,16h6v2h-6zm0,7h6v6h-6zm0,243h6v40h-6zm0,43h6v2h-6zm0,5h6v5h-6zm6,-312h6v3h-6zm0,6h6v2h-6zm0,5h6v3h-6zm0,256h6v3h-6zm0,8h6v34h-6zm0,37h6v3h-6zm0,5h6v5h-6zm6,-317h6v8h-6zm0,11h6v3h-6zm0,261h6v27h-6zm0,29h6v14h-6zm6,-298h7v3h-7zm0,5h7v3h-7zm0,270h7v23h-7zm0,26h7v11h-7zm0,16h7v2h-7zm7,-317h6v3h-6zm0,11h6v2h-6zm0,264h6v29h-6zm0,31h6v3h-6zm0,6h6v2h-6zm6,-309h6v5h-6zm0,10h6v5h-6zm0,264h6v27h-6zm0,35h6v2h-6zm0,7h6v3h-6zm6,-316h6v8h-6zm0,274h6v29h-6zm6,-274h7v2h-7zm0,274h7v27h-7zm0,32h7v3h-7zm7,-306h6v2h-6zm0,5h6v3h-6zm0,269h6v19h-6zm0,24h6v5h-6zm0,18h6v3h-6zm0,6h6v2h-6zm6,-322h6v2h-6zm0,5h6v3h-6zm0,272h6v24h-6zm6,-277h6v5h-6zm0,272h6v21h-6zm0,23h6v11h-6zm6,-295h6v2h-6zm0,277h6v10h-6zm0,13h6v3h-6zm0,8h6v3h-6zm6,-298h7v2h-7zm0,274h7v24h-7zm0,27h7v5h-7zm0,18h7v3h-7zm7,-322h6v3h-6zm0,277h6v16h-6zm0,19h6v2h-6zm0,10h6v3h-6zm6,-306h6v3h-6zm0,277h6v8h-6zm0,11h6v2h-6zm0,13h6v3h-6zm6,-304h6v3h-6zm0,6h6v2h-6zm0,8h6v2h-6zm0,266h6v13h-6zm0,16h6v5h-6zm6,-296h7v6h-7zm0,278h7v21h-7zm0,23h7v3h-7zm0,8h7v3h-7zm0,6h7v2h-7zm7,-317h6v16h-6zm0,21h6v2h-6zm0,256h6v26h-6zm0,42h6v3h-6zm6,-322h6v5h-6zm0,8h6v11h-6zm0,18h6v3h-6zm0,251h6v24h-6zm0,27h6v2h-6zm6,-307h6v14h-6zm0,19h6v3h-6zm0,8h6v2h-6zm0,259h6v18h-6zm0,21h6v5h-6zm0,10h6v3h-6zm0,6h6v2h-6zm6,-325h7v18h-7zm0,21h7v8h-7zm0,10h7v3h-7zm0,251h7v21h-7zm0,24h7v3h-7zm0,5h7v3h-7zm0,8h7v3h-7zm0,6h7v2h-7zm7,-330h6v36h-6zm0,42h6v2h-6zm0,237h6v3h-6zm0,6h6v21h-6zm0,23h6v8h-6zm0,11h6v3h-6zm0,8h6v3h-6zm6,-330h6v32h-6zm0,34h6v3h-6zm0,5h6v3h-6zm0,22h6v2h-6zm0,221h6v32h-6zm0,35h6v2h-6zm0,10h6v3h-6zm0,11h6v2h-6zm6,-343h6v26h-6zm0,29h6v5h-6zm0,8h6v5h-6zm0,10h6v3h-6zm0,11h6v2h-6zm0,224h6v3h-6zm0,5h6v35h-6zm0,40h6v5h-6zm0,16h6v2h-6zm0,8h6v2h-6zm6,-354h6v63h-6zm0,77h6v2h-6zm0,200h6v8h-6zm0,11h6v37h-6zm0,39h6v14h-6zm6,-332h7v47h-7zm0,79h7v3h-7zm0,198h7v55h-7zm0,58h7v8h-7zm7,-338h6v53h-6zm0,55h6v6h-6zm0,8h6v3h-6zm0,6h6v2h-6zm0,203h6v66h-6zm6,-280h6v61h-6zm0,63h6v6h-6zm0,22h6v2h-6zm0,184h6v11h-6zm0,14h6v76h-6zm0,81h6v3h-6zm6,-369h6v53h-6zm0,55h6v3h-6zm0,6h6v2h-6zm0,5h6v2h-6zm0,8h6v2h-6zm0,8h6v5h-6zm0,187h6v3h-6zm0,5h6v8h-6zm0,14h6v52h-6zm0,55h6v11h-6zm0,13h6v3h-6zm0,8h6v3h-6zm0,8h6v3h-6zm6,-377h7v60h-7zm0,63h7v8h-7zm0,224h7v16h-7zm0,19h7v39h-7zm0,42h7v11h-7zm0,13h7v3h-7zm7,-369h6v60h-6zm0,63h6v8h-6zm0,238h6v10h-6zm0,13h6v45h-6zm0,47h6v3h-6zm6,-367h6v61h-6zm0,64h6v16h-6zm0,256h6v2h-6zm0,8h6v58h-6zm0,60h6v6h-6zm6,-393h6v69h-6zm0,71h6v6h-6zm0,256h6v3h-6zm0,6h6v45h-6zm0,50h6v8h-6zm6,-393h7v2h-7zm0,5h7v84h-7zm0,338h7v2h-7zm0,8h7v2h-7zm0,5h7v40h-7zm7,-364h6v89h-6zm0,92h6v8h-6zm0,256h6v3h-6zm0,8h6v3h-6zm0,5h6v29h-6zm0,32h6v5h-6zm0,8h6v5h-6zm0,8h6v2h-6zm0,10h6v3h-6zM318,98h6v13h-6zm0,16h6v60h-6zm0,63h6v21h-6zm0,24h6v2h-6zm0,5h6v3h-6zm0,264h6v26h-6zm0,29h6v3h-6zm0,26h6v3h-6zM324,90h6v18h-6zm0,21h6v84h-6zm0,87h6v3h-6zm0,16h6v2h-6zm0,253h6v35h-6zm0,37h6v6h-6zm0,8h6v3h-6zm0,5h6v3h-6zm0,8h6v3h-6zM330,82h6v8h-6zm0,13h6v8h-6zm0,11h6v97h-6zm0,105h6v3h-6zm0,262h6v26h-6zm0,52h6v3h-6zM336,69h7v8h-7zm0,10h7v5h-7zm0,8h7v8h-7zm0,11h7v5h-7zm0,8h7v81h-7zm0,84h7v3h-7zm0,5h7v3h-7zm0,8h7v3h-7zm0,270h7v34h-7zm0,39h7v3h-7zm0,13h7v3h-7zM343,53h6v2h-6zm0,10h6v3h-6zm0,11h6v16h-6zm0,18h6v6h-6zm0,8h6v8h-6zm0,11h6v84h-6zm0,87h6v3h-6zm0,8h6v3h-6zm0,269h6v13h-6zm0,16h6v13h-6zm0,19h6v2h-6zm0,15h6v3h-6zM349,50h6v5h-6zm0,8h6v3h-6zm0,8h6v3h-6zm0,5h6v3h-6zm0,6h6v2h-6zm0,5h6v24h-6zm0,26h6v87h-6zm0,90h6v5h-6zm0,8h6v3h-6zm0,269h6v32h-6zm0,50h6v3h-6zM355,34h6v3h-6zm0,6h6v10h-6zm0,13h6v2h-6zm0,13h6v3h-6zm0,8h6v24h-6zm0,26h6v6h-6zm0,8h6v85h-6zm0,87h6v3h-6zm0,280h6v27h-6zm0,32h6v5h-6zm0,18h6v3h-6zM361,24h7v2h-7zm0,5h7v8h-7zm0,11h7v15h-7zm0,18h7v11h-7zm0,13h7v16h-7zm0,19h7v18h-7zm0,21h7v79h-7zm0,82h7v8h-7zm0,10h7v3h-7zm0,272h7v19h-7zm0,21h7v6h-7zm0,8h7v3h-7zm0,6h7v5h-7zm0,15h7v3h-7zM368,29h6v3h-6zm0,5h6v3h-6zm0,11h6v3h-6zm0,5h6v3h-6zm0,5h6v16h-6zm0,24h6v3h-6zm0,8h6v93h-6zm0,95h6v11h-6zm0,16h6v8h-6zm0,13h6v5h-6zm0,267h6v18h-6zm0,26h6v3h-6zm0,11h6v2h-6zm0,10h6v3h-6zM374,13h6v5h-6zm0,32h6v5h-6zm0,10h6v3h-6zm0,14h6v132h-6zm0,406h6v19h-6zm0,24h6v11h-6zm0,16h6v2h-6zm0,10h6v3h-6zM380,5h6v3h-6zm0,16h6v3h-6zm0,5h6v3h-6zm0,6h6v2h-6zm0,16h6v5h-6zm0,10h6v3h-6zm0,5h6v3h-6zm0,6h6v2h-6zm0,5h6v5h-6zm0,16h6v16h-6zm0,18h6v87h-6zm0,90h6v3h-6zm0,8h6v3h-6zm0,269h6v16h-6zm0,21h6v3h-6zm0,6h6v2h-6zm0,23h6v3h-6zM386,3h6v2h-6zm0,10h6v3h-6zm0,5h6v3h-6zm0,11h6v3h-6zm0,5h6v3h-6zm0,11h6v5h-6zm0,10h6v3h-6zm0,6h6v5h-6zm0,8h6v2h-6zm0,5h6v3h-6zm0,10h6v24h-6zm0,27h6v76h-6zm0,79h6v3h-6zm0,5h6v3h-6zm0,6h6v2h-6zm0,274h6v21h-6zm0,40h6v8h-6zm0,10h6v3h-6zM392,5h7v3h-7zm0,11h7v2h-7zm0,10h7v8h-7zm0,11h7v3h-7zm0,5h7v3h-7zm0,6h7v5h-7zm0,7h7v6h-7zm0,14h7v10h-7zm0,13h7v5h-7zm0,8h7v16h-7zm0,18h7v85h-7zm0,90h7v3h-7zm0,5h7v6h-7zm0,11h7v2h-7zm0,259h7v21h-7zm0,23h7v3h-7zm0,24h7v3h-7zm0,5h7v3h-7zM399,3h6v2h-6zm0,18h6v3h-6zm0,8h6v3h-6zm0,5h6v3h-6zm0,8h6v6h-6zm0,16h6v13h-6zm0,19h6v7h-6zm0,10h6v27h-6zm0,29h6v71h-6zm0,74h6v5h-6zm0,11h6v2h-6zm0,13h6v2h-6zm0,261h6v13h-6zm0,16h6v8h-6zm0,34h6v3h-6zM405,11h6v2h-6zm0,7h6v3h-6zm0,6h6v2h-6zm0,16h6v5h-6zm0,10h6v3h-6zm0,5h6v6h-6zm0,8h6v3h-6zm0,8h6v19h-6zm0,24h6v108h-6zm0,116h6v3h-6zm0,262h6v15h-6zm0,18h6v3h-6zm0,5h6v3h-6zm0,8h6v3h-6zm0,21h6v3h-6zM411,0h6v3h-6zm0,16h6v8h-6zm0,26h6v6h-6zm0,24h6v16h-6zm0,18h6v6h-6zm0,8h6v111h-6zm0,378h6v24h-6zm0,37h6v5h-6zm0,8h6v2h-6zm0,10h6v3h-6zM417,0h7v3h-7zm0,26h7v3h-7zm0,14h7v2h-7zm0,8h7v2h-7zm0,7h7v3h-7zm0,6h7v2h-7zm0,5h7v3h-7zm0,5h7v8h-7zm0,13h7v106h-7zm0,109h7v23h-7zm0,280h7v15h-7zm0,18h7v3h-7zm0,11h7v5h-7zm0,10h7v3h-7zm0,13h7v3h-7zM424,3h6v2h-6zm0,8h6v2h-6zm0,10h6v3h-6zm0,5h6v6h-6zm0,8h6v8h-6zm0,19h6v8h-6zm0,10h6v3h-6zm0,8h6v3h-6zm0,6h6v5h-6zm0,18h6v3h-6zm0,5h6v114h-6zm0,116h6v3h-6zm0,254h6v24h-6zm0,37h6v3h-6zm0,13h6v3h-6zM430,3h6v5h-6zm0,8h6v5h-6zm0,10h6v21h-6zm0,27h6v5h-6zm0,10h6v5h-6zm0,11h6v2h-6zm0,5h6v3h-6zm0,10h6v3h-6zm0,6h6v13h-6zm0,16h6v105h-6zm0,361h6v21h-6zm0,24h6v11h-6zm0,13h6v6h-6zm0,11h6v2h-6zm0,10h6v3h-6zM436,13h6v16h-6zm0,29h6v6h-6zm0,8h6v3h-6zm0,5h6v6h-6zm0,8h6v8h-6zm0,11h6v5h-6zm0,8h6v5h-6zm0,8h6v121h-6zm0,124h6v8h-6zm0,256h6v13h-6zm0,16h6v16h-6zm0,26h6v5h-6zM442,3h7v10h-7zm0,55h7v3h-7zm0,5h7v8h-7zm0,11h7v8h-7zm0,10h7v3h-7zm0,6h7v5h-7zm0,8h7v121h-7zm0,124h7v2h-7zm0,5h7v5h-7zm0,232h7v3h-7zm0,6h7v31h-7zm0,37h7v5h-7zm0,8h7v5h-7zm0,7h7v3h-7zM449,24h6v2h-6zm0,18h6v3h-6zm0,8h6v5h-6zm0,13h6v3h-6zm0,6h6v2h-6zm0,10h6v3h-6zm0,8h6v137h-6zm0,140h6v3h-6zm0,5h6v3h-6zm0,227h6v32h-6zm0,37h6v3h-6zm0,6h6v5h-6zm0,18h6v3h-6zM455,8h6v8h-6zm0,10h6v3h-6zm0,11h6v3h-6zm0,5h6v11h-6zm0,19h6v2h-6zm0,5h6v3h-6zm0,11h6v8h-6zm0,10h6v5h-6zm0,8h6v132h-6zm0,364h6v35h-6zm0,37h6v14h-6zm0,35h6v5h-6zM461,0h6v3h-6zm0,13h6v3h-6zm0,5h6v3h-6zm0,16h6v3h-6zm0,21h6v8h-6zm0,14h6v2h-6zm0,8h6v5h-6zm0,7h6v11h-6zm0,14h6v121h-6zm0,126h6v6h-6zm0,14h6v2h-6zm0,206h6v63h-6zm0,66h6v2h-6zm0,5h6v2h-6zM467,3h6v2h-6zm0,13h6v2h-6zm0,13h6v3h-6zm0,8h6v3h-6zm0,5h6v6h-6zm0,8h6v8h-6zm0,16h6v3h-6zm0,5h6v3h-6zm0,8h6v3h-6zm0,8h6v5h-6zm0,8h6v11h-6zm0,13h6v116h-6zm0,122h6v2h-6zm0,16h6v2h-6zm0,21h6v2h-6zm0,163h6v3h-6zm0,8h6v50h-6zm0,53h6v5h-6zm0,8h6v3h-6zm0,5h6v3h-6zm0,6h6v2h-6zm0,15h6v3h-6zM473,8h7v3h-7zm0,10h7v3h-7zm0,11h7v3h-7zm0,26h7v3h-7zm0,19h7v5h-7zm0,8h7v2h-7zm0,8h7v140h-7zm0,142h7v8h-7zm0,196h7v79h-7zm0,84h7v5h-7zM480,21h6v8h-6zm0,19h6v2h-6zm0,10h6v5h-6zm0,11h6v5h-6zm0,8h6v5h-6zm0,15h6v3h-6zm0,6h6v5h-6zm0,10h6v119h-6zm0,122h6v2h-6zm0,5h6v8h-6zm0,11h6v2h-6zm0,179h6v3h-6zm0,8h6v5h-6zm0,8h6v5h-6zm0,8h6v61h-6zm0,66h6v13h-6zM486,37h6v8h-6zm0,16h6v2h-6zm0,13h6v148h-6zm0,153h6v11h-6zm0,214h6v5h-6zm0,11h6v58h-6zm0,63h6v8h-6zM492,11h6v7h-6zm0,21h6v2h-6zm0,23h6v3h-6zm0,16h6v6h-6zm0,8h6v3h-6zm0,8h6v11h-6zm0,16h6v5h-6zm0,8h6v116h-6zm0,124h6v3h-6zm0,206h6v3h-6zm0,5h6v53h-6zm0,58h6v3h-6zm0,19h6v2h-6zM498,5h7v3h-7zm0,6h7v2h-7zm0,23h7v3h-7zm0,14h7v5h-7zm0,10h7v8h-7zm0,16h7v8h-7zm0,10h7v6h-7zm0,8h7v11h-7zm0,14h7v110h-7zm0,113h7v3h-7zm0,232h7v45h-7zm0,48h7v11h-7zm0,13h7v3h-7zM505,5h6v3h-6zm0,16h6v3h-6zm0,8h6v5h-6zm0,32h6v2h-6zm0,5h6v5h-6zm0,8h6v3h-6zm0,13h6v3h-6zm0,8h6v5h-6zm0,8h6v5h-6zm0,8h6v90h-6zm0,92h6v13h-6zm0,16h6v5h-6zm0,232h6v3h-6zm0,8h6v45h-6zm0,48h6v5h-6zm0,10h6v3h-6zm0,6h6v2h-6zM511,3h6v5h-6zm0,10h6v5h-6zm0,32h6v3h-6zm0,8h6v2h-6zm0,8h6v2h-6zm0,8h6v5h-6zm0,10h6v11h-6zm0,13h6v3h-6zm0,6h6v5h-6zm0,10h6v106h-6zm0,108h6v3h-6zm0,243h6v37h-6zm0,40h6v3h-6zm0,5h6v6h-6zM517,16h6v8h-6zm0,42h6v5h-6zm0,11h6v2h-6zm0,13h6v2h-6zm0,5h6v11h-6zm0,16h6v11h-6zm0,13h6v90h-6zm0,93h6v7h-6zm0,10h6v3h-6zm0,243h6v3h-6zm0,5h6v50h-6zM523,3h7v2h-7zm0,23h7v3h-7zm0,19h7v3h-7zm0,5h7v3h-7zm0,11h7v18h-7zm0,21h7v8h-7zm0,10h7v6h-7zm0,8h7v11h-7zm0,14h7v95h-7zm0,97h7v3h-7zm0,5h7v3h-7zm0,251h7v37h-7zm0,43h7v2h-7zm0,5h7v2h-7zM530,0h6v5h-6zm0,11h6v5h-6zm0,18h6v5h-6zm0,8h6v3h-6zm0,16h6v2h-6zm0,10h6v3h-6zm0,11h6v3h-6zm0,5h6v29h-6zm0,32h6v103h-6zm0,359h6v32h-6zm0,34h6v3h-6zm0,8h6v3h-6zM536,16h6v5h-6zm0,24h6v5h-6zm0,18h6v3h-6zm0,8h6v5h-6zm0,8h6v21h-6zm0,24h6v2h-6zm0,5h6v103h-6zm0,106h6v2h-6zm0,7h6v3h-6zm0,254h6v24h-6zm0,26h6v6h-6zm0,8h6v6h-6zM542,5h6v6h-6zm0,16h6v3h-6zm0,5h6v3h-6zm0,11h6v3h-6zm0,5h6v13h-6zm0,16h6v3h-6zm0,5h6v3h-6zm0,8h6v6h-6zm0,13h6v11h-6zm0,16h6v101h-6zm0,103h6v8h-6zm0,272h6v35h-6zM548,26h6v3h-6zm0,19h6v3h-6zm0,8h6v2h-6zm0,10h6v3h-6zm0,14h6v7h-6zm0,15h6v16h-6zm0,19h6v92h-6zm0,95h6v5h-6zm0,8h6v2h-6zm0,5h6v3h-6zm0,256h6v29h-6zm0,48h6v2h-6zM554,13h7v5h-7zm0,8h7v3h-7zm0,5h7v3h-7zm0,8h7v3h-7zm0,6h7v2h-7zm0,5h7v3h-7zm0,5h7v3h-7zm0,5h7v6h-7zm0,8h7v8h-7zm0,11h7v5h-7zm0,16h7v16h-7zm0,21h7v98h-7zm0,367h7v24h-7zm0,26h7v3h-7zm0,8h7v3h-7zM561,3h6v5h-6zm0,26h6v3h-6zm0,8h6v5h-6zm0,13h6v8h-6zm0,11h6v5h-6zm0,8h6v5h-6zm0,10h6v3h-6zm0,5h6v6h-6zm0,8h6v8h-6zm0,11h6v100h-6zm0,111h6v2h-6zm0,5h6v3h-6zm0,5h6v3h-6zm0,8h6v6h-6zm0,246h6v21h-6zm0,34h6v5h-6zM567,0h6v3h-6zm0,21h6v3h-6zm0,5h6v3h-6zm0,11h6v5h-6zm0,11h6v5h-6zm0,15h6v3h-6zm0,8h6v3h-6zm0,8h6v5h-6zm0,8h6v11h-6zm0,16h6v98h-6zm0,103h6v3h-6zm0,8h6v5h-6zm0,261h6v32h-6zm0,35h6v2h-6zm0,7h6v3h-6zM573,11h6v2h-6zm0,15h6v6h-6zm0,8h6v3h-6zm0,6h6v10h-6zm0,15h6v3h-6zm0,6h6v2h-6zm0,8h6v5h-6zm0,8h6v5h-6zm0,7h6v3h-6zm0,6h6v121h-6zm0,385h6v21h-6zm0,24h6v3h-6zm0,5h6v3h-6zm0,6h6v2h-6zM579,0h7v3h-7zm0,11h7v2h-7zm0,23h7v6h-7zm0,11h7v5h-7zm0,10h7v3h-7zm0,6h7v8h-7zm0,10h7v6h-7zm0,8h7v5h-7zm0,19h7v16h-7zm0,18h7v95h-7zm0,98h7v5h-7zm0,261h7v24h-7zm0,40h7v2h-7zM586,11h6v2h-6zm0,10h6v3h-6zm0,21h6v6h-6zm0,8h6v5h-6zm0,16h6v3h-6zm0,8h6v3h-6zm0,5h6v5h-6zm0,8h6v3h-6zm0,8h6v19h-6zm0,21h6v82h-6zm0,85h6v10h-6zm0,21h6v2h-6zm0,253h6v24h-6zM592,0h6v3h-6zm0,18h6v6h-6zm0,19h6v3h-6zm0,21h6v8h-6zm0,11h6v2h-6zm0,5h6v3h-6zm0,5h6v5h-6zm0,11h6v13h-6zm0,16h6v100h-6zm0,103h6v5h-6zm0,10h6v3h-6zm0,5h6v6h-6zm0,251h6v24h-6zm0,32h6v3h-6zm0,5h6v5h-6zm0,8h6v3h-6zM598,13h6v5h-6zm0,11h6v5h-6zm0,13h6v3h-6zm0,5h6v3h-6zm0,6h6v2h-6zm0,10h6v3h-6zm0,5h6v6h-6zm0,11h6v8h-6zm0,10h6v3h-6zm0,11h6v111h-6zm0,119h6v2h-6zm0,8h6v2h-6zm0,253h6v19h-6zm0,21h6v11h-6zM604,5h7v3h-7zm0,13h7v3h-7zm0,6h7v2h-7zm0,5h7v8h-7zm0,16h7v3h-7zm0,5h7v3h-7zm0,8h7v8h-7zm0,13h7v13h-7zm0,19h7v16h-7zm0,18h7v3h-7zm0,6h7v89h-7zm0,92h7v3h-7zm0,10h7v6h-7zm0,257h7v13h-7zm0,15h7v8h-7zm0,11h7v11h-7zm0,13h7v3h-7zM611,3h6v5h-6zm0,8h6v13h-6zm0,15h6v6h-6zm0,11h6v3h-6zm0,5h6v3h-6zm0,6h6v5h-6zm0,23h6v3h-6zm0,8h6v24h-6zm0,29h6v3h-6zm0,6h6v89h-6zm0,92h6v18h-6zm0,269h6v24h-6zm0,29h6v3h-6zm0,8h6v3h-6zM617,26h6v3h-6zm0,24h6v11h-6zm0,13h6v3h-6zm0,6h6v5h-6zm0,8h6v5h-6zm0,10h6v3h-6zm0,5h6v19h-6zm0,22h6v97h-6zm0,100h6v2h-6zm0,259h6v23h-6zm0,26h6v3h-6zm0,11h6v2h-6zm0,5h6v2h-6zM623,0h6v3h-6zm0,5h6v3h-6zm0,16h6v11h-6zm0,16h6v3h-6zm0,5h6v3h-6zm0,6h6v5h-6zm0,7h6v11h-6zm0,14h6v5h-6zm0,13h6v5h-6zm0,8h6v119h-6zm0,121h6v8h-6zm0,11h6v2h-6zm0,5h6v3h-6zm0,246h6v18h-6zm0,21h6v5h-6zm0,8h6v2h-6zm0,10h6v3h-6zM629,8h6v3h-6zm0,5h6v3h-6zm0,11h6v2h-6zm0,5h6v5h-6zm0,13h6v6h-6zm0,8h6v11h-6zm0,19h6v13h-6zm0,18h6v5h-6zm0,8h6v108h-6zm0,111h6v3h-6zm0,5h6v3h-6zm0,8h6v3h-6zm0,13h6v3h-6zm0,238h6v21h-6zm0,26h6v6h-6zm0,11h6v3h-6zM635,8h7v3h-7zm0,8h7v2h-7zm0,10h7v3h-7zm0,11h7v5h-7zm0,8h7v3h-7zm0,8h7v29h-7zm0,31h7v19h-7zm0,22h7v2h-7zm0,5h7v92h-7zm0,95h7v10h-7zm0,13h7v3h-7zm0,248h7v21h-7zm0,24h7v3h-7zm0,5h7v3h-7zm0,8h7v3h-7zm0,11h7v2h-7zM642,11h6v10h-6zm0,13h6v2h-6zm0,18h6v3h-6zm0,8h6v3h-6zm0,11h6v2h-6zm0,13h6v3h-6zm0,5h6v8h-6zm0,11h6v5h-6zm0,8h6v2h-6zm0,5h6v103h-6zm0,106h6v2h-6zm0,7h6v3h-6zm0,6h6v2h-6zm0,5h6v3h-6zm0,238h6v31h-6zm0,34h6v5h-6zM648,11h6v2h-6zm0,13h6v2h-6zm0,10h6v3h-6zm0,16h6v3h-6zm0,11h6v2h-6zm0,10h6v11h-6zm0,13h6v11h-6zm0,14h6v111h-6zm0,116h6v2h-6zm0,5h6v5h-6zm0,13h6v6h-6zm0,233h6v31h-6zm0,37h6v5h-6zm0,15h6v3h-6zM654,5h6v3h-6zm0,16h6v3h-6zm0,19h6v2h-6zm0,8h6v2h-6zm0,5h6v2h-6zm0,8h6v5h-6zm0,10h6v8h-6zm0,13h6v16h-6zm0,19h6v121h-6zm0,359h6v37h-6zm0,40h6v2h-6zm0,10h6v5h-6zM660,11h7v2h-7zm0,15h7v3h-7zm0,6h7v8h-7zm0,13h7v5h-7zm0,8h7v10h-7zm0,16h7v2h-7zm0,13h7v129h-7zm0,132h7v2h-7zm0,5h7v3h-7zm0,11h7v2h-7zm0,10h7v3h-7zm0,8h7v3h-7zm0,203h7v3h-7zm0,6h7v42h-7zm0,45h7v2h-7zm0,5h7v3h-7zm0,13h7v3h-7zM667,0h6v3h-6zm0,21h6v5h-6zm0,13h6v3h-6zm0,11h6v3h-6zm0,10h6v16h-6zm0,19h6v10h-6zm0,13h6v3h-6zm0,5h6v14h-6zm0,16h6v122h-6zm0,132h6v3h-6zm0,11h6v2h-6zm0,190h6v63h-6zm0,66h6v5h-6zm0,8h6v2h-6zM673,16h6v5h-6zm0,8h6v8h-6zm0,13h6v11h-6zm0,18h6v3h-6zm0,8h6v8h-6zm0,11h6v40h-6zm0,42h6v103h-6zm0,106h6v5h-6zm0,8h6v2h-6zm0,8h6v2h-6zm0,192h6v77h-6zm0,80h6v2h-6zm0,10h6v3h-6zM679,3h6v2h-6zm0,29h6v5h-6zm0,10h6v13h-6zm0,16h6v16h-6zm0,19h6v10h-6zm0,13h6v5h-6zm0,8h6v21h-6zm0,23h6v95h-6zm0,98h6v8h-6zm0,13h6v6h-6zm0,14h6v2h-6zm0,163h6v5h-6zm0,16h6v74h-6zm0,77h6v2h-6zm0,5h6v3h-6zm0,13h6v3h-6zM685,29h7v5h-7zm0,8h7v3h-7zm0,8h7v5h-7zm0,8h7v2h-7zm0,8h7v2h-7zm0,8h7v2h-7zm0,10h7v8h-7zm0,13h7v11h-7zm0,16h7v103h-7zm0,106h7v8h-7zm0,16h7v2h-7zm0,5h7v3h-7zm0,13h7v3h-7zm0,174h7v77h-7zm0,80h7v5h-7zm0,13h7v2h-7zM692,21h6v3h-6zm0,8h6v5h-6zm0,8h6v3h-6zm0,8h6v5h-6zm0,10h6v3h-6zm0,6h6v5h-6zm0,8h6v5h-6zm0,10h6v11h-6zm0,13h6v117h-6zm0,119h6v5h-6zm0,8h6v3h-6zm0,8h6v5h-6zm0,8h6v3h-6zm0,177h6v2h-6zm0,8h6v2h-6zm0,8h6v74h-6zm0,79h6v3h-6zM698,8h6v3h-6zm0,16h6v2h-6zm0,18h6v8h-6zm0,11h6v5h-6zm0,8h6v5h-6zm0,8h6v2h-6zm0,5h6v3h-6zm0,5h6v5h-6zm0,16h6v116h-6zm0,119h6v8h-6zm0,10h6v3h-6zm0,201h6v3h-6zm0,5h6v3h-6zm0,8h6v74h-6zM704,0h6v3h-6zm0,16h6v2h-6zm0,10h6v6h-6zm0,22h6v15h-6zm0,31h6v3h-6zm0,5h6v3h-6zm0,6h6v5h-6zm0,10h6v6h-6zm0,8h6v6h-6zm0,8h6v98h-6zm0,100h6v6h-6zm0,16h6v3h-6zm0,196h6v2h-6zm0,10h6v6h-6zm0,8h6v42h-6zm0,45h6v8h-6zm0,13h6v6h-6zm0,11h6v2h-6zM710,0h6v3h-6zm0,37h6v3h-6zm0,8h6v3h-6zm0,8h6v5h-6zm0,8h6v2h-6zm0,16h6v5h-6zm0,7h6v6h-6zm0,8h6v3h-6zm0,6h6v29h-6zm0,31h6v93h-6zm0,312h6v3h-6zm0,5h6v8h-6zm0,11h6v47h-6zm0,53h6v2h-6zm0,7h6v3h-6zM716,3h7v5h-7zm0,15h7v3h-7zm0,11h7v3h-7zm0,13h7v3h-7zm0,8h7v3h-7zm0,5h7v3h-7zm0,6h7v8h-7zm0,16h7v18h-7zm0,21h7v2h-7zm0,8h7v8h-7zm0,13h7v87h-7zm0,90h7v7h-7zm0,10h7v3h-7zm0,8h7v3h-7zm0,8h7v3h-7zm0,216h7v53h-7zm0,59h7v5h-7zm0,10h7v3h-7zM723,0h6v5h-6zm0,16h6v2h-6zm0,5h6v3h-6zm0,5h6v3h-6zm0,8h6v3h-6zm0,6h6v5h-6zm0,15h6v6h-6zm0,8h6v16h-6zm0,19h6v2h-6zm0,5h6v5h-6zm0,8h6v5h-6zm0,8h6v3h-6zm0,5h6v3h-6zm0,6h6v7h-6zm0,10h6v71h-6zm0,77h6v10h-6zm0,15h6v3h-6zm0,6h6v2h-6zm0,235h6v2h-6zm0,8h6v31h-6zm0,34h6v5h-6zm0,8h6v5h-6zM729,3h6v2h-6zm0,10h6v3h-6zm0,21h6v3h-6zm0,6h6v5h-6zm0,23h6v8h-6zm0,11h6v16h-6zm0,18h6v11h-6zm0,14h6v8h-6zm0,10h6v82h-6zm0,85h6v5h-6zm0,261h6v5h-6zm0,8h6v29h-6zm0,42h6v5h-6zM735,0h6v8h-6zm0,11h6v5h-6zm0,31h6v3h-6zm0,8h6v11h-6zm0,13h6v24h-6zm0,29h6v6h-6zm0,8h6v14h-6zm0,16h6v5h-6zm0,8h6v82h-6zm0,95h6v3h-6zm0,251h6v26h-6zm0,29h6v5h-6zm0,11h6v2h-6zM741,3h7v5h-7zm0,10h7v11h-7zm0,16h7v5h-7zm0,11h7v2h-7zm0,13h7v8h-7zm0,13h7v3h-7zm0,5h7v3h-7zm0,6h7v2h-7zm0,5h7v5h-7zm0,10h7v109h-7zm0,111h7v3h-7zm0,8h7v3h-7zm0,262h7v26h-7zm0,29h7v10h-7zm0,13h7v2h-7zM748,3h6v8h-6zm0,18h6v3h-6zm0,5h6v3h-6zm0,19h6v3h-6zm0,5h6v3h-6zm0,19h6v8h-6zm0,10h6v5h-6zm0,8h6v5h-6zm0,11h6v2h-6zm0,5h6v98h-6zm0,111h6v2h-6zm0,261h6v27h-6zm0,29h6v3h-6zm0,11h6v2h-6zM754,16h6v2h-6zm0,13h6v3h-6zm0,5h6v6h-6zm0,8h6v8h-6zm0,13h6v11h-6zm0,19h6v5h-6zm0,10h6v6h-6zm0,11h6v3h-6zm0,5h6v8h-6zm0,11h6v103h-6zm0,362h6v23h-6zm0,26h6v8h-6zM760,3h6v5h-6zm0,15h6v3h-6zm0,6h6v5h-6zm0,10h6v6h-6zm0,11h6v5h-6zm0,16h6v2h-6zm0,10h6v3h-6zm0,6h6v7h-6zm0,10h6v29h-6zm0,32h6v71h-6zm0,74h6v10h-6zm0,13h6v3h-6zm0,269h6v35h-6zm0,37h6v3h-6zM766,11h7v7h-7zm0,13h7v5h-7zm0,13h7v3h-7zm0,5h7v3h-7zm0,6h7v2h-7zm0,5h7v2h-7zm0,8h7v2h-7zm0,10h7v8h-7zm0,13h7v3h-7zm0,11h7v3h-7zm0,11h7v2h-7zm0,5h7v82h-7zm0,84h7v3h-7zm0,6h7v8h-7zm0,13h7v2h-7zm0,261h7v16h-7zm0,24h7v8h-7zm0,16h7v2h-7zM773,3h6v8h-6zm0,13h6v2h-6zm0,5h6v11h-6zm0,16h6v3h-6zm0,8h6v3h-6zm0,10h6v16h-6zm0,19h6v8h-6zm0,10h6v16h-6zm0,19h6v5h-6zm0,8h6v90h-6zm0,92h6v6h-6zm0,272h6v35h-6zM779,3h6v2h-6zm0,21h6v8h-6zm0,18h6v11h-6zm0,19h6v10h-6zm0,16h6v10h-6zm0,13h6v16h-6zm0,21h6v3h-6zm0,5h6v82h-6zm0,85h6v5h-6zm0,8h6v2h-6zm0,269h6v18h-6zm0,24h6v5h-6zm0,15h6v3h-6zM785,8h6v8h-6zm0,18h6v6h-6zm0,8h6v3h-6zm0,8h6v13h-6zm0,16h6v5h-6zm0,11h6v5h-6zm0,8h6v7h-6zm0,10h6v106h-6zm0,111h6v3h-6zm0,5h6v3h-6zm0,6h6v7h-6zm0,266h6v21h-6zM791,0h6v8h-6zm0,13h6v3h-6zm0,5h6v3h-6zm0,8h6v8h-6zm0,19h6v5h-6zm0,8h6v13h-6zm0,18h6v19h-6zm0,21h6v109h-6zm0,111h6v8h-6zm0,275h6v21h-6zm0,39h6v3h-6zM797,0h7v3h-7zm0,11h7v5h-7zm0,10h7v3h-7zm0,11h7v2h-7zm0,8h7v5h-7zm0,8h7v2h-7zm0,5h7v2h-7zm0,5h7v8h-7zm0,11h7v134h-7zm0,137h7v3h-7zm0,272h7v16h-7zm0,24h7v2h-7zm0,8h7v2h-7zm0,5h7v2h-7zM804,18h6v3h-6zm0,11h6v3h-6zm0,5h6v8h-6zm0,16h6v5h-6zm0,13h6v14h-6zm0,16h6v3h-6zm0,5h6v119h-6zm0,122h6v3h-6zm0,5h6v3h-6zm0,5h6v3h-6zm0,257h6v21h-6zm0,26h6v3h-6zM810,11h6v2h-6zm0,10h6v3h-6zm0,16h6v11h-6zm0,21h6v3h-6zm0,16h6v3h-6zm0,5h6v3h-6zm0,5h6v22h-6zm0,24h6v93h-6zm0,370h6v16h-6zM816,0h6v3h-6zm0,5h6v3h-6zm0,11h6v2h-6zm0,8h6v5h-6zm0,8h6v2h-6zm0,5h6v16h-6zm0,21h6v3h-6zm0,5h6v11h-6zm0,14h6v13h-6zm0,15h6v3h-6zm0,6h6v8h-6zm0,10h6v95h-6zm0,98h6v3h-6zm0,5h6v3h-6zm0,8h6v5h-6zm0,256h6v19h-6zm0,21h6v3h-6zm0,8h6v3h-6zm0,13h6v3h-6zM822,0h7v3h-7zm0,11h7v5h-7zm0,7h7v3h-7zm0,8h7v3h-7zm0,14h7v2h-7zm0,10h7v3h-7zm0,5h7v143h-7zm0,146h7v13h-7zm0,15h7v3h-7zm0,257h7v15h-7zm0,26h7v3h-7zm0,5h7v8h-7zm0,11h7v2h-7zM829,13h6v3h-6zm0,5h6v3h-6zm0,14h6v2h-6zm0,13h6v5h-6zm0,8h6v2h-6zm0,5h6v19h-6zm0,21h6v122h-6zm0,124h6v13h-6zm0,270h6v29h-6zm0,37h6v5h-6zM835,11h6v2h-6zm0,5h6v2h-6zm0,8h6v2h-6zm0,5h6v3h-6zm0,5h6v11h-6zm0,14h6v5h-6zm0,10h6v5h-6zm0,8h6v5h-6zm0,8h6v8h-6zm0,10h6v109h-6zm0,111h6v21h-6zm0,275h6v21h-6zm0,26h6v3h-6zm0,11h6v3h-6zM841,0h6v3h-6zm0,11h6v5h-6zm0,15h6v8h-6zm0,14h6v5h-6zm0,13h6v2h-6zm0,5h6v19h-6zm0,21h6v11h-6zm0,13h6v114h-6zm0,119h6v3h-6zm0,259h6v24h-6zm0,26h6v3h-6zm0,11h6v5h-6zm0,10h6v3h-6zM847,0h7v3h-7zm0,21h7v3h-7zm0,5h7v3h-7zm0,6h7v8h-7zm0,16h7v5h-7zm0,15h7v6h-7zm0,11h7v132h-7zm0,135h7v13h-7zm0,15h7v3h-7zm0,243h7v19h-7zm0,21h7v8h-7zm0,19h7v5h-7zm0,10h7v3h-7zm0,6h7v2h-7zM854,3h6v5h-6zm0,13h6v2h-6zm0,8h6v8h-6zm0,10h6v3h-6zm0,11h6v5h-6zm0,13h6v5h-6zm0,8h6v11h-6zm0,13h6v130h-6zm0,132h6v5h-6zm0,8h6v8h-6zm0,246h6v31h-6zm0,34h6v3h-6zm0,8h6v8h-6zM860,5h6v6h-6zm0,8h6v3h-6zm0,8h6v3h-6zm0,5h6v3h-6zm0,6h6v5h-6zm0,10h6v8h-6zm0,11h6v5h-6zm0,8h6v18h-6zm0,21h6v137h-6zm0,140h6v5h-6zm0,8h6v5h-6zm0,232h6v37h-6zM866,21h6v3h-6zm0,5h6v3h-6zm0,8h6v19h-6zm0,24h6v5h-6zm0,8h6v5h-6zm0,8h6v21h-6zm0,26h6v6h-6zm0,8h6v3h-6zm0,6h6v102h-6zm0,105h6v3h-6zm0,5h6v3h-6zm0,6h6v2h-6zm0,221h6v3h-6zm0,6h6v39h-6zm0,47h6v3h-6zm0,6h6v2h-6zm0,7h6v3h-6zM872,16h6v2h-6zm0,5h6v3h-6zm0,13h6v6h-6zm0,11h6v5h-6zm0,8h6v5h-6zm0,8h6v10h-6zm0,16h6v10h-6zm0,13h6v2h-6zm0,8h6v113h-6zm0,116h6v8h-6zm0,237h6v48h-6zm0,51h6v2h-6zm0,10h6v3h-6zm0,8h6v3h-6zM878,11h7v2h-7zm0,10h7v3h-7zm0,13h7v3h-7zm0,6h7v2h-7zm0,8h7v2h-7zm0,5h7v13h-7zm0,18h7v6h-7zm0,8h7v3h-7zm0,8h7v132h-7zm0,137h7v3h-7zm0,222h7v61h-7zm0,64h7v5h-7zM885,3h6v2h-6zm0,10h6v3h-6zm0,5h6v3h-6zm0,8h6v6h-6zm0,27h6v26h-6zm0,31h6v24h-6zm0,27h6v98h-6zm0,100h6v8h-6zm0,11h6v2h-6zm0,13h6v5h-6zm0,11h6v5h-6zm0,174h6v2h-6zm0,8h6v2h-6zm0,5h6v69h-6zm0,71h6v3h-6zM891,5h6v3h-6zm0,16h6v5h-6zm0,16h6v3h-6zm0,11h6v2h-6zm0,7h6v3h-6zm0,6h6v2h-6zm0,16h6v2h-6zm0,7h6v8h-6zm0,11h6v3h-6zm0,5h6v122h-6zm0,124h6v6h-6zm0,14h6v2h-6zm0,184h6v3h-6zm0,6h6v2h-6zm0,5h6v3h-6zm0,5h6v74h-6zM897,0h6v3h-6zm0,5h6v3h-6zm0,6h6v2h-6zm0,13h6v5h-6zm0,10h6v3h-6zm0,6h6v2h-6zm0,5h6v3h-6zm0,8h6v2h-6zm0,5h6v3h-6zm0,5h6v3h-6zm0,6h6v2h-6zm0,5h6v5h-6zm0,8h6v26h-6zm0,29h6v10h-6zm0,13h6v87h-6zm0,90h6v2h-6zm0,5h6v3h-6zm0,5h6v3h-6zm0,6h6v2h-6zm0,5h6v3h-6zm0,16h6v2h-6zm0,163h6v3h-6zm0,6h6v2h-6zm0,5h6v11h-6zm0,13h6v58h-6zm0,61h6v5h-6zm0,8h6v5h-6zM903,0h7v3h-7zm0,26h7v3h-7zm0,8h7v3h-7zm0,19h7v13h-7zm0,21h7v3h-7zm0,5h7v3h-7zm0,8h7v3h-7zm0,5h7v8h-7zm0,11h7v111h-7zm0,116h7v3h-7zm0,5h7v3h-7zm0,209h7v3h-7zm0,8h7v58h-7zm0,66h7v5h-7zM910,5h6v3h-6zm0,8h6v3h-6zm0,24h6v3h-6zm0,11h6v2h-6zm0,7h6v8h-6zm0,14h6v2h-6zm0,8h6v10h-6zm0,15h6v111h-6zm0,114h6v3h-6zm0,13h6v3h-6zm0,5h6v3h-6zm0,11h6v3h-6zm0,209h6v2h-6zm0,5h6v5h-6zm0,8h6v42h-6zm0,45h6v2h-6zm0,23h6v3h-6zM916,3h6v2h-6zm0,5h6v3h-6zm0,24h6v2h-6zm0,10h6v3h-6zm0,21h6v8h-6zm0,11h6v5h-6zm0,8h6v2h-6zm0,8h6v116h-6zm0,119h6v2h-6zm0,7h6v6h-6zm0,233h6v2h-6zm0,5h6v3h-6zm0,5h6v43h-6zm0,45h6v3h-6zm0,11h6v5h-6zM922,0h6v3h-6zm0,5h6v3h-6zm0,16h6v8h-6zm0,11h6v2h-6zm0,8h6v2h-6zm0,8h6v2h-6zm0,13h6v2h-6zm0,10h6v3h-6zm0,6h6v7h-6zm0,10h6v8h-6zm0,11h6v16h-6zm0,18h6v74h-6zm0,77h6v10h-6zm0,18h6v3h-6zm0,11h6v2h-6zm0,229h6v3h-6zm0,6h6v2h-6zm0,5h6v42h-6zm0,53h6v2h-6zM928,0h7v3h-7zm0,11h7v2h-7zm0,5h7v2h-7zm0,5h7v3h-7zm0,16h7v5h-7zm0,13h7v3h-7zm0,11h7v8h-7zm0,13h7v8h-7zm0,13h7v3h-7zm0,5h7v22h-7zm0,24h7v79h-7zm0,82h7v8h-7zm0,13h7v3h-7zm0,8h7v3h-7zm0,13h7v3h-7zm0,230h7v3h-7zm0,5h7v48h-7zM935,8h6v3h-6zm0,5h6v3h-6zm0,8h6v3h-6zm0,21h6v3h-6zm0,11h6v2h-6zm0,5h6v5h-6zm0,8h6v3h-6zm0,5h6v11h-6zm0,16h6v19h-6zm0,21h6v8h-6zm0,13h6v80h-6zm0,82h6v13h-6zm0,16h6v3h-6zm0,246h6v29h-6zm0,31h6v3h-6zm0,14h6v2h-6zm0,5h6v2h-6zM941,26h6v3h-6zm0,16h6v3h-6zm0,11h6v2h-6zm0,10h6v3h-6zm0,8h6v3h-6zm0,8h6v8h-6zm0,11h6v24h-6zm0,26h6v93h-6zm0,95h6v3h-6zm0,8h6v3h-6zm0,254h6v26h-6zm0,34h6v3h-6zm0,5h6v3h-6zm0,5h6v3h-6zm0,6h6v2h-6zM947,16h6v2h-6zm0,8h6v2h-6zm0,10h6v3h-6zm0,6h6v2h-6zm0,8h6v7h-6zm0,13h6v5h-6zm0,10h6v11h-6zm0,13h6v8h-6zm0,14h6v10h-6zm0,13h6v87h-6zm0,90h6v2h-6zm0,5h6v3h-6zm0,5h6v3h-6zm0,8h6v3h-6zm0,254h6v21h-6zm0,23h6v3h-6zm0,6h6v2h-6zm0,5h6v3h-6zM953,18h6v3h-6zm0,6h6v2h-6zm0,8h6v5h-6zm0,13h6v8h-6zm0,16h6v2h-6zm0,5h6v11h-6zm0,13h6v5h-6zm0,8h6v3h-6zm0,8h6v11h-6zm0,13h6v87h-6zm0,90h6v8h-6zm0,13h6v3h-6zm0,5h6v3h-6zm0,257h6v23h-6zm0,29h6v13h-6zM959,18h7v6h-7zm0,30h7v2h-7zm0,7h7v8h-7zm0,11h7v5h-7zm0,8h7v3h-7zm0,5h7v8h-7zm0,11h7v5h-7zm0,8h7v5h-7zm0,8h7v100h-7zm0,105h7v5h-7zm0,262h7v2h-7zm0,5h7v16h-7zm0,18h7v14h-7zm0,16h7v3h-7zM966,0h6v5h-6zm0,8h6v3h-6zm0,5h6v3h-6zm0,27h6v8h-6zm0,10h6v3h-6zm0,11h6v2h-6zm0,8h6v5h-6zm0,8h6v5h-6zm0,7h6v14h-6zm0,19h6v92h-6zm0,95h6v5h-6zm0,8h6v3h-6zm0,5h6v3h-6zm0,267h6v13h-6zm0,16h6v10h-6zm0,13h6v3h-6zm0,13h6v3h-6zM972,3h6v2h-6zm0,5h6v3h-6zm0,5h6v3h-6zm0,8h6v3h-6zm0,11h6v2h-6zm0,8h6v5h-6zm0,8h6v2h-6zm0,7h6v6h-6zm0,14h6v8h-6zm0,10h6v21h-6zm0,24h6v95h-6zm0,98h6v2h-6zm0,5h6v5h-6zm0,272h6v24h-6zm0,34h6v3h-6zm0,8h6v3h-6zM978,3h6v2h-6zm0,5h6v3h-6zm0,5h6v3h-6zm0,8h6v5h-6zm0,8h6v8h-6zm0,16h6v3h-6zm0,5h6v3h-6zm0,5h6v6h-6zm0,16h6v8h-6zm0,13h6v3h-6zm0,6h6v2h-6zm0,5h6v3h-6zm0,5h6v90h-6zm0,93h6v10h-6zm0,18h6v5h-6zm0,8h6v3h-6zm0,256h6v19h-6zm0,21h6v8h-6zm0,11h6v3h-6zm0,10h6v6h-6zM984,11h7v2h-7zm0,5h7v2h-7zm0,21h7v3h-7zm0,8h7v3h-7zm0,5h7v5h-7zm0,13h7v6h-7zm0,11h7v13h-7zm0,21h7v3h-7zm0,5h7v6h-7zm0,8h7v6h-7zm0,8h7v85h-7zm0,90h7v3h-7zm0,5h7v5h-7zm0,267h7v24h-7zm0,32h7v2h-7zM991,37h6v5h-6zm0,11h6v5h-6zm0,7h6v8h-6zm0,14h6v2h-6zm0,8h6v5h-6zm0,7h6v119h-6zm0,122h6v3h-6zm0,272h6v24h-6zm0,34h6v3h-6zM997,8h6v5h-6zm0,10h6v3h-6zm0,6h6v2h-6zm0,5h6v3h-6zm0,11h6v2h-6zm0,5h6v3h-6zm0,5h6v3h-6zm0,11h6v2h-6zm0,5h6v5h-6zm0,8h6v10h-6zm0,16h6v5h-6zm0,8h6v5h-6zm0,13h6v84h-6zm0,87h6v8h-6zm0,13h6v5h-6zm0,11h6v2h-6zm0,253h6v16h-6zm0,27h6v2h-6zm0,18h6v3h-6zM1003,5h6v3h-6zm0,11h6v10h-6zm0,13h6v3h-6zm0,11h6v2h-6zm0,5h6v3h-6zm0,5h6v3h-6zm0,11h6v2h-6zm0,5h6v8h-6zm0,18h6v125h-6zm0,132h6v3h-6zm0,14h6v2h-6zm0,8h6v2h-6zm0,237h6v27h-6zm0,29h6v3h-6zm6,-475h6v5h-6zm0,11h6v2h-6zm0,5h6v3h-6zm0,5h6v3h-6zm0,5h6v19h-6zm0,22h6v2h-6zm0,7h6v8h-6zm0,11h6v11h-6zm0,13h6v85h-6zm0,87h6v11h-6zm0,19h6v2h-6zm0,10h6v3h-6zm0,251h6v16h-6zm0,21h6v3h-6zm0,6h6v2h-6zm0,10h6v3h-6zM1015,8h7v3h-7zm0,5h7v8h-7zm0,11h7v2h-7zm0,5h7v3h-7zm0,11h7v42h-7zm0,47h7v19h-7zm0,21h7v95h-7zm0,98h7v8h-7zm0,18h7v3h-7zm0,249h7v2h-7zm0,5h7v10h-7zm0,13h7v3h-7zm0,8h7v5h-7zm0,11h7v2h-7zm7,-492h6v3h-6zm0,6h6v5h-6zm0,8h6v10h-6zm0,18h6v8h-6zm0,13h6v6h-6zm0,11h6v8h-6zm0,16h6v2h-6zm0,5h6v8h-6zm0,13h6v85h-6zm0,90h6v3h-6zm0,5h6v6h-6zm0,11h6v10h-6zm0,256h6v18h-6zm0,24h6v2h-6zm0,16h6v2h-6zM1028,0h6v5h-6zm0,8h6v3h-6zm0,10h6v3h-6zm0,6h6v2h-6zm0,18h6v3h-6zm0,6h6v5h-6zm0,7h6v6h-6zm0,8h6v3h-6zm0,14h6v5h-6zm0,7h6v6h-6zm0,11h6v108h-6zm0,114h6v2h-6zm0,5h6v2h-6zm0,5h6v3h-6zm0,5h6v3h-6zm0,251h6v13h-6zm0,19h6v2h-6zm0,5h6v3h-6zm0,8h6v3h-6zm6,-494h6v3h-6zm0,21h6v8h-6zm0,21h6v3h-6zm0,6h6v10h-6zm0,13h6v3h-6zm0,5h6v16h-6zm0,19h6v5h-6zm0,8h6v97h-6zm0,100h6v5h-6zm0,8h6v5h-6zm0,8h6v2h-6zm0,5h6v5h-6zm0,19h6v2h-6zm0,224h6v26h-6zm0,32h6v5h-6zM1040,8h7v3h-7zm0,5h7v3h-7zm0,5h7v8h-7zm0,11h7v3h-7zm0,8h7v3h-7zm0,8h7v3h-7zm0,5h7v3h-7zm0,27h7v10h-7zm0,13h7v132h-7zm0,145h7v3h-7zm0,235h7v24h-7zm0,32h7v2h-7zm0,15h7v3h-7zM1047,5h6v3h-6zm0,6h6v2h-6zm0,21h6v2h-6zm0,10h6v6h-6zm0,16h6v3h-6zm0,5h6v6h-6zm0,8h6v6h-6zm0,8h6v145h-6zm0,148h6v3h-6zm0,240h6v29h-6zm0,40h6v3h-6zM1053,0h6v3h-6zm0,5h6v6h-6zm0,11h6v5h-6zm0,8h6v5h-6zm0,16h6v5h-6zm0,10h6v5h-6zm0,8h6v3h-6zm0,8h6v3h-6zm0,8h6v3h-6zm0,5h6v32h-6zm0,35h6v110h-6zm0,113h6v5h-6zm0,8h6v3h-6zm0,16h6v2h-6zm0,214h6v29h-6zm0,31h6v3h-6zm0,6h6v5h-6zM1059,3h6v5h-6zm0,10h6v5h-6zm0,11h6v2h-6zm0,5h6v3h-6zm0,8h6v18h-6zm0,24h6v2h-6zm0,8h6v5h-6zm0,8h6v5h-6zm0,7h6v3h-6zm0,8h6v135h-6zm0,138h6v8h-6zm0,237h6v24h-6zm0,27h6v10h-6zM1065,0h7v3h-7zm0,24h7v2h-7zm0,8h7v2h-7zm0,5h7v5h-7zm0,11h7v2h-7zm0,5h7v2h-7zm0,5h7v3h-7zm0,8h7v13h-7zm0,18h7v143h-7zm0,156h7v6h-7zm0,222h7v34h-7zm0,37h7v8h-7zM1072,0h6v8h-6zm0,18h6v3h-6zm0,6h6v5h-6zm0,21h6v3h-6zm0,5h6v3h-6zm0,5h6v3h-6zm0,6h6v2h-6zm0,5h6v26h-6zm0,32h6v158h-6zm0,353h6v6h-6zm0,8h6v43h-6zm0,45h6v3h-6zM1078,3h6v2h-6zm0,5h6v5h-6zm0,13h6v3h-6zm0,8h6v3h-6zm0,5h6v6h-6zm0,29h6v3h-6zm0,11h6v29h-6zm0,34h6v140h-6zm0,343h6v40h-6zm0,43h6v5h-6zm0,13h6v3h-6zm0,8h6v2h-6zm0,5h6v3h-6zm6,-509h6v2h-6zm0,5h6v2h-6zm0,5h6v3h-6zm0,16h6v5h-6zm0,8h6v8h-6zm0,13h6v3h-6zm0,5h6v6h-6zm0,16h6v3h-6zm0,5h6v8h-6zm0,11h6v3h-6zm0,5h6v148h-6zm0,151h6v2h-6zm0,5h6v5h-6zm0,11h6v2h-6zm0,177h6v55h-6zm0,60h6v6h-6zm0,11h6v2h-6zM1090,8h6v8h-6zm0,10h6v3h-6zm0,8h6v3h-6zm0,8h6v8h-6zm0,11h6v3h-6zm0,5h6v5h-6zm0,11h6v2h-6zm0,8h6v2h-6zm0,8h6v5h-6zm0,7h6v16h-6zm0,19h6v116h-6zm0,124h6v19h-6zm0,21h6v5h-6zm0,188h6v74h-6zm0,81h6v3h-6zM1096,5h7v3h-7zm0,6h7v2h-7zm0,5h7v5h-7zm0,16h7v10h-7zm0,16h7v15h-7zm0,18h7v3h-7zm0,8h7v8h-7zm0,10h7v19h-7zm0,24h7v145h-7zm0,153h7v3h-7zm0,167h7v2h-7zm0,5h7v69h-7zm0,77h7v2h-7zm0,5h7v2h-7zm0,5h7v3h-7zM1103,0h6v3h-6zm0,5h6v3h-6zm0,11h6v2h-6zm0,24h6v5h-6zm0,8h6v7h-6zm0,13h6v5h-6zm0,8h6v5h-6zm0,8h6v2h-6zm0,7h6v3h-6zm0,6h6v161h-6zm0,177h6v2h-6zm0,158h6v8h-6zm0,11h6v58h-6zm0,60h6v8h-6zm0,14h6v2h-6zm0,15h6v3h-6zM1109,5h6v3h-6zm0,11h6v10h-6zm0,13h6v3h-6zm0,5h6v6h-6zm0,14h6v2h-6zm0,5h6v8h-6zm0,10h6v3h-6zm0,6h6v2h-6zm0,8h6v2h-6zm0,5h6v16h-6zm0,18h6v130h-6zm0,132h6v16h-6zm0,19h6v2h-6zm0,185h6v66h-6zm0,71h6v3h-6zM1115,5h6v3h-6zm0,6h6v2h-6zm0,7h6v3h-6zm0,6h6v2h-6zm0,13h6v3h-6zm0,5h6v3h-6zm0,8h6v5h-6zm0,8h6v8h-6zm0,11h6v2h-6zm0,5h6v5h-6zm0,8h6v2h-6zm0,10h6v3h-6zm0,6h6v5h-6zm0,8h6v110h-6zm0,116h6v26h-6zm0,222h6v60h-6zm0,66h6v2h-6zm6,-499h7v5h-7zm0,15h7v3h-7zm0,6h7v2h-7zm0,16h7v2h-7zm0,13h7v18h-7zm0,21h7v127h-7zm0,132h7v13h-7zm0,16h7v8h-7zm0,13h7v3h-7zm0,208h7v45h-7zm0,51h7v5h-7zm0,8h7v5h-7zM1128,5h6v6h-6zm0,11h6v2h-6zm0,5h6v3h-6zm0,13h6v8h-6zm0,21h6v3h-6zm0,6h6v5h-6zm0,8h6v10h-6zm0,15h6v3h-6zm0,11h6v5h-6zm0,8h6v8h-6zm0,11h6v87h-6zm0,89h6v3h-6zm0,6h6v2h-6zm0,5h6v2h-6zm0,10h6v3h-6zm0,6h6v5h-6zm0,216h6v11h-6zm0,13h6v6h-6zm0,8h6v32h-6zm0,35h6v2h-6zm0,8h6v7h-6zm0,15h6v3h-6zm6,-509h6v2h-6zm0,5h6v3h-6zm0,11h6v5h-6zm0,8h6v5h-6zm0,10h6v3h-6zm0,13h6v3h-6zm0,11h6v3h-6zm0,8h6v2h-6zm0,5h6v8h-6zm0,11h6v108h-6zm0,111h6v2h-6zm0,7h6v3h-6zm0,8h6v3h-6zm0,6h6v13h-6zm0,232h6v26h-6zm0,29h6v5h-6zm0,8h6v8h-6zm0,11h6v2h-6zm0,7h6v3h-6zM1140,3h6v2h-6zm0,8h6v5h-6zm0,13h6v2h-6zm0,5h6v3h-6zm0,5h6v6h-6zm0,19h6v24h-6zm0,26h6v5h-6zm0,8h6v11h-6zm0,16h6v90h-6zm0,92h6v6h-6zm0,8h6v8h-6zm0,13h6v6h-6zm0,8h6v8h-6zm0,11h6v3h-6zm0,227h6v3h-6zm0,5h6v27h-6zm0,29h6v3h-6zm0,6h6v2h-6zm0,5h6v3h-6zm0,18h6v3h-6zm6,-504h7v3h-7zm0,5h7v3h-7zm0,6h7v2h-7zm0,5h7v5h-7zm0,8h7v3h-7zm0,8h7v2h-7zm0,5h7v8h-7zm0,13h7v3h-7zm0,6h7v10h-7zm0,13h7v2h-7zm0,5h7v3h-7zm0,5h7v111h-7zm0,119h7v3h-7zm0,11h7v10h-7zm0,240h7v32h-7zm0,37h7v5h-7zm0,13h7v3h-7zm0,5h7v3h-7zM1153,3h6v5h-6zm0,13h6v10h-6zm0,13h6v3h-6zm0,16h6v3h-6zm0,8h6v5h-6zm0,8h6v5h-6zm0,8h6v10h-6zm0,13h6v2h-6zm0,5h6v19h-6zm0,21h6v6h-6zm0,8h6v85h-6zm0,87h6v3h-6zm0,8h6v29h-6zm0,264h6v24h-6zm0,27h6v2h-6zm0,8h6v2h-6zm0,7h6v3h-6zm0,8h6v3h-6zM1159,3h6v5h-6zm0,13h6v8h-6zm0,13h6v3h-6zm0,5h6v3h-6zm0,6h6v2h-6zm0,5h6v3h-6zm0,5h6v11h-6zm0,13h6v6h-6zm0,8h6v19h-6zm0,21h6v16h-6zm0,19h6v79h-6zm0,82h6v18h-6zm0,34h6v8h-6zm0,246h6v31h-6zm0,34h6v3h-6zm0,18h6v3h-6zm6,-496h6v8h-6zm0,11h6v5h-6zm0,21h6v16h-6zm0,18h6v3h-6zm0,5h6v24h-6zm0,27h6v79h-6zm0,82h6v5h-6zm0,8h6v10h-6zm0,13h6v2h-6zm0,8h6v5h-6zm0,8h6v8h-6zm0,248h6v34h-6zm0,37h6v2h-6zm0,10h6v3h-6zM1171,3h6v5h-6zm0,10h6v3h-6zm0,8h6v11h-6zm0,16h6v5h-6zm0,11h6v7h-6zm0,10h6v8h-6zm0,19h6v5h-6zm0,7h6v106h-6zm0,109h6v13h-6zm0,29h6v5h-6zm0,8h6v5h-6zm0,8h6v2h-6zm0,5h6v3h-6zm0,232h6v27h-6zm0,32h6v3h-6zm0,18h6v3h-6zm6,-499h7v3h-7zm0,6h7v10h-7zm0,16h7v2h-7zm0,7h7v11h-7zm0,14h7v5h-7zm0,10h7v3h-7zm0,8h7v5h-7zm0,8h7v11h-7zm0,13h7v82h-7zm0,85h7v8h-7zm0,16h7v10h-7zm0,13h7v2h-7zm0,5h7v3h-7zm0,5h7v3h-7zm0,6h7v2h-7zm0,240h7v18h-7zm0,21h7v5h-7zm0,21h7v8h-7zM1184,8h6v3h-6zm0,8h6v2h-6zm0,13h6v5h-6zm0,8h6v5h-6zm0,8h6v5h-6zm0,16h6v5h-6zm0,8h6v2h-6zm0,5h6v16h-6zm0,18h6v6h-6zm0,8h6v6h-6zm0,8h6v85h-6zm0,87h6v6h-6zm0,16h6v5h-6zm0,8h6v8h-6zm0,11h6v5h-6zm0,248h6v18h-6zm0,21h6v3h-6zm0,8h6v3h-6zm0,8h6v2h-6zm0,5h6v3h-6zm0,5h6v3h-6zm6,-485h6v2h-6zm0,5h6v5h-6zm0,8h6v2h-6zm0,8h6v2h-6zm0,8h6v8h-6zm0,13h6v13h-6zm0,16h6v8h-6zm0,10h6v82h-6zm0,85h6v8h-6zm0,10h6v6h-6zm0,8h6v3h-6zm0,5h6v16h-6zm0,19h6v3h-6zm0,240h6v24h-6zm0,27h6v5h-6zm0,8h6v5h-6zm0,15h6v3h-6zm6,-488h6v5h-6zm0,8h6v18h-6zm0,21h6v8h-6zm0,13h6v111h-6zm0,114h6v5h-6zm0,8h6v8h-6zm0,13h6v2h-6zm0,5h6v13h-6zm0,16h6v5h-6zm0,243h6v34h-6zm0,47h6v3h-6zm6,-477h7v7h-7zm0,10h7v5h-7zm0,11h7v5h-7zm0,8h7v21h-7zm0,23h7v101h-7zm0,103h7v3h-7zm0,11h7v2h-7zm0,8h7v5h-7zm0,8h7v5h-7zm0,248h7v13h-7zm0,16h7v5h-7zm0,8h7v2h-7zm0,5h7v5h-7zm0,8h7v2h-7zm0,10h7v3h-7zm7,-470h6v3h-6zm0,6h6v2h-6zm0,5h6v3h-6zm0,5h6v3h-6zm0,13h6v3h-6zm0,6h6v2h-6zm0,5h6v85h-6zm0,87h6v19h-6zm0,21h6v8h-6zm0,11h6v2h-6zm0,5h6v8h-6zm0,256h6v13h-6zm0,16h6v3h-6zm0,5h6v6h-6zm0,14h6v2h-6zm0,5h6v2h-6zm0,10h6v3h-6zm6,-451h6v3h-6zm0,5h6v5h-6zm0,8h6v5h-6zm0,8h6v5h-6zm0,8h6v90h-6zm0,92h6v6h-6zm0,11h6v3h-6zm0,10h6v3h-6zm0,6h6v2h-6zm0,5h6v13h-6zm0,248h6v19h-6zm0,21h6v6h-6zm0,29h6v3h-6zm6,-446h6v5h-6zm0,11h6v10h-6zm0,13h6v87h-6zm0,90h6v2h-6zm0,5h6v3h-6zm0,8h6v3h-6zm0,5h6v19h-6zm0,24h6v3h-6zm0,238h6v2h-6zm0,5h6v13h-6zm0,29h6v3h-6zm0,18h6v3h-6zm6,-438h7v3h-7zm0,5h7v3h-7zm0,6h7v103h-7zm0,105h7v6h-7zm0,11h7v10h-7zm0,13h7v3h-7zm0,8h7v8h-7zm0,240h7v16h-7zm0,21h7v3h-7zm0,6h7v5h-7zm0,8h7v2h-7zm0,7h7v3h-7zm0,8h7v3h-7zm7,-425h6v106h-6zm0,109h6v18h-6zm0,34h6v3h-6zm0,227h6v24h-6zm0,26h6v3h-6zm0,8h6v3h-6zm0,21h6v3h-6zm6,-419h6v89h-6zm0,92h6v26h-6zm0,29h6v8h-6zm0,246h6v23h-6zm0,26h6v3h-6z"
             id="path8" />
          <path
             fill="#1652cc"
             d="M0,198h6v3h-6zm0,29h6v3h-6zm0,8h6v3h-6zm0,8h6v21h-6zm0,24h6v8h-6zm0,10h6v11h-6zm0,13h6v3h-6zm0,14h6v2h-6zm0,29h6v2h-6zM0,438h6v3h-6zm0,11h6v24h-6zm0,76h6v3h-6zM6,222h6v2h-6zm0,5h6v8h-6zm0,11h6v50h-6zm0,52h6v3h-6zm0,6h6v2h-6zm0,5h6v3h-6zm0,11h6v2h-6zM6,451h6v19h-6zm0,74h6v3h-6zM12,219h7v5h-7zm0,8h7v3h-7zm0,11h7v39h-7zm0,42h7v13h-7zm0,16h7v2h-7zm0,8h7v2h-7zm0,10h7v3h-7zm0,124h7v6h-7zm0,8h7v21h-7zM19,222h6v2h-6zm0,16h6v39h-6zm0,42h6v13h-6zm0,24h6v10h-6zm0,42h6v2h-6zm0,82h6v2h-6zm0,16h6v21h-6zM25,214h6v2h-6zm0,16h6v2h-6zm0,8h6v50h-6zm0,55h6v3h-6zm0,8h6v5h-6zm0,8h6v3h-6zm0,24h6v2h-6zm0,29h6v2h-6zm0,60h6v3h-6zm0,8h6v6h-6zm0,8h6v3h-6zm0,6h6v15h-6zM31,206h6v3h-6zm0,21h6v3h-6zm0,5h6v53h-6zm0,56h6v10h-6zm0,13h6v3h-6zm0,8h6v3h-6zm0,8h6v5h-6zm0,31h6v3h-6zm0,11h6v3h-6zm0,21h6v3h-6zm0,8h6v3h-6zm0,29h6v40h-6zM37,216h7v3h-7zm0,8h7v6h-7zm0,8h7v3h-7zm0,6h7v63h-7zm0,68h7v11h-7zm0,13h7v6h-7zm0,8h7v6h-7zm0,8h7v3h-7zm0,6h7v2h-7zm0,10h7v3h-7zm0,8h7v3h-7zm0,5h7v3h-7zm0,14h7v7h-7zm0,10h7v3h-7zm0,13h7v8h-7zm0,11h7v2h-7zm0,5h7v34h-7zM44,224h6v37h-6zm0,40h6v13h-6zm0,16h6v21h-6zm0,26h6v8h-6zm0,11h6v2h-6zm0,10h6v14h-6zm0,19h6v8h-6zm0,10h6v3h-6zm0,11h6v3h-6zm0,5h6v8h-6zm0,11h6v2h-6zm0,8h6v2h-6zm0,8h6v13h-6zm0,15h6v32h-6zM50,230h6v5h-6zm0,10h6v66h-6zm0,69h6v34h-6zm0,39h6v6h-6zm0,8h6v80h-6zM56,216h6v8h-6zm0,11h6v121h-6zm0,124h6v66h-6zm0,69h6v5h-6zM62,198h7v3h-7zm0,13h7v3h-7zm0,8h7v8h-7zm0,11h7v5h-7zm0,8h7v2h-7zm0,5h7v87h-7zm0,90h7v92h-7zM69,211h6v13h-6zm0,16h6v13h-6zm0,16h6v79h-6zm0,84h6v3h-6zm0,6h6v8h-6zm0,10h6v5h-6zm0,11h6v71h-6zm0,74h6v2h-6zM75,214h6v5h-6zm0,8h6v71h-6zm0,74h6v10h-6zm0,13h6v10h-6zm0,13h6v3h-6zm0,21h6v3h-6zm0,8h6v8h-6zm0,13h6v3h-6zm0,6h6v10h-6zm0,13h6v45h-6zm0,50h6v5h-6zM81,209h6v13h-6zm0,15h6v3h-6zm0,6h6v52h-6zm0,55h6v8h-6zm0,13h6v3h-6zm0,6h6v2h-6zm0,21h6v2h-6zm0,26h6v3h-6zm0,13h6v6h-6zm0,8h6v6h-6zm0,13h6v56h-6zm0,61h6v3h-6zM87,193h6v2h-6zm0,10h6v64h-6zm0,66h6v6h-6zm0,8h6v5h-6zm0,8h6v3h-6zm0,8h6v3h-6zm0,5h6v3h-6zm0,40h6v3h-6zm0,58h6v3h-6zm0,8h6v5h-6zm0,8h6v5h-6zm0,8h6v37h-6zM93,195h7v74h-7zm0,77h7v5h-7zm0,8h7v5h-7zm0,10h7v3h-7zm0,6h7v2h-7zm0,111h7v2h-7zm0,21h7v18h-7zm0,21h7v5h-7zm0,8h7v2h-7zm7,-256h6v8h-6zm0,10h6v5h-6zm0,11h6v39h-6zm0,60h6v3h-6zm0,132h6v3h-6zm0,16h6v3h-6zm0,8h6v21h-6zm6,-240h6v3h-6zm0,5h6v3h-6zm0,6h6v52h-6zm0,55h6v3h-6zm0,8h6v3h-6zm0,5h6v3h-6zm0,153h6v3h-6zm0,8h6v6h-6zm0,8h6v5h-6zm0,8h6v8h-6zm0,11h6v5h-6zm6,-262h6v3h-6zm0,6h6v52h-6zm0,55h6v3h-6zm0,5h6v3h-6zm0,6h6v5h-6zm0,169h6v5h-6zm0,7h6v16h-6zm6,-250h7v2h-7zm0,5h7v47h-7zm0,50h7v8h-7zm0,11h7v5h-7zm0,182h7v24h-7zm7,-248h6v8h-6zm0,10h6v56h-6zm0,58h6v3h-6zm0,21h6v3h-6zm0,167h6v16h-6zm6,-251h6v5h-6zm0,10h6v53h-6zm0,59h6v5h-6zm0,184h6v3h-6zm0,6h6v10h-6zm6,-256h6v34h-6zm0,37h6v15h-6zm0,29h6v2h-6zm0,179h6v3h-6zm0,5h6v3h-6zm0,6h6v10h-6zm6,-262h7v53h-7zm0,58h7v3h-7zm0,11h7v3h-7zm0,8h7v2h-7zm0,185h7v10h-7zm7,-262h6v3h-6zm0,6h6v47h-6zm0,50h6v2h-6zm0,5h6v11h-6zm0,16h6v2h-6zm0,179h6v6h-6zm0,8h6v8h-6zm6,-264h6v3h-6zm0,6h6v42h-6zm0,52h6v3h-6zm0,6h6v5h-6zm0,10h6v8h-6zm0,182h6v3h-6zm0,6h6v13h-6zm6,-259h6v42h-6zm0,45h6v2h-6zm0,5h6v3h-6zm0,5h6v3h-6zm0,6h6v5h-6zm0,15h6v3h-6zm0,172h6v3h-6zm0,13h6v6h-6zm6,-264h6v58h-6zm0,61h6v8h-6zm0,16h6v2h-6zm0,182h6v16h-6zm6,-259h7v40h-7zm0,43h7v2h-7zm0,5h7v16h-7zm0,21h7v5h-7zm0,8h7v2h-7zm0,10h7v3h-7zm0,164h7v21h-7zm7,-253h6v37h-6zm0,39h6v6h-6zm0,8h6v21h-6zm0,48h6v2h-6zm0,161h6v2h-6zm0,8h6v10h-6zm6,-264h6v55h-6zm0,58h6v8h-6zm0,18h6v3h-6zm0,8h6v3h-6zm0,172h6v18h-6zm6,-259h6v3h-6zm0,5h6v6h-6zm0,8h6v45h-6zm0,48h6v5h-6zm0,8h6v2h-6zm0,5h6v3h-6zm0,34h6v3h-6zm0,143h6v2h-6zm0,10h6v3h-6zm0,6h6v10h-6zm6,-264h7v68h-7zm0,84h7v3h-7zm0,11h7v2h-7zm0,155h7v3h-7zm0,6h7v16h-7zm7,-248h6v5h-6zm0,7h6v40h-6zm0,43h6v16h-6zm0,23h6v6h-6zm0,14h6v2h-6zm0,148h6v2h-6zm0,13h6v13h-6zm6,-262h6v3h-6zm0,14h6v7h-6zm0,10h6v61h-6zm0,66h6v3h-6zm0,164h6v2h-6zm0,8h6v10h-6zm6,-256h6v5h-6zm0,8h6v5h-6zm0,7h6v48h-6zm0,51h6v2h-6zm0,5h6v5h-6zm0,10h6v3h-6zm0,6h6v2h-6zm0,148h6v2h-6zm0,5h6v3h-6zm0,8h6v24h-6zm6,-246h7v3h-7zm0,11h7v2h-7zm0,5h7v53h-7zm0,56h7v13h-7zm0,18h7v3h-7zm0,5h7v3h-7zm0,143h7v26h-7zm7,-225h6v6h-6zm0,8h6v53h-6zm0,56h6v10h-6zm0,18h6v3h-6zm0,124h6v3h-6zm0,16h6v21h-6zm0,24h6v3h-6zm6,-253h6v2h-6zm0,5h6v2h-6zm0,5h6v19h-6zm0,21h6v50h-6zm0,53h6v3h-6zm0,5h6v6h-6zm0,19h6v2h-6zm0,16h6v5h-6zm0,15h6v3h-6zm0,66h6v3h-6zm0,19h6v3h-6zm0,5h6v21h-6zm6,-240h6v3h-6zm0,8h6v3h-6zm0,8h6v5h-6zm0,8h6v8h-6zm0,10h6v58h-6zm0,61h6v13h-6zm0,21h6v3h-6zm0,24h6v3h-6zm0,16h6v2h-6zm0,53h6v5h-6zm0,15h6v3h-6zm0,6h6v26h-6zm0,29h6v2h-6zm6,-225h6v14h-6zm0,16h6v58h-6zm0,61h6v16h-6zm0,21h6v3h-6zm0,5h6v11h-6zm0,50h6v6h-6zm0,11h6v3h-6zm0,5h6v3h-6zm0,6h6v2h-6zm0,10h6v29h-6zm0,37h6v3h-6zm6,-243h7v32h-7zm0,35h7v44h-7zm0,47h7v32h-7zm0,34h7v14h-7zm0,16h7v3h-7zm0,8h7v8h-7zm0,13h7v6h-7zm0,8h7v3h-7zm0,13h7v6h-7zm0,11h7v8h-7zm0,11h7v34h-7zm7,-193h6v2h-6zm0,8h6v2h-6zm0,5h6v3h-6zm0,5h6v87h-6zm0,90h6v3h-6zm0,5h6v19h-6zm0,27h6v16h-6zm0,18h6v16h-6zm0,19h6v8h-6zm0,10h6v32h-6zm6,-187h6v2h-6zm0,8h6v16h-6zm0,18h6v61h-6zm0,64h6v2h-6zm0,5h6v8h-6zm0,10h6v22h-6zm0,24h6v3h-6zm0,5h6v14h-6zm0,16h6v58h-6zm0,69h6v3h-6zm6,-232h6v2h-6zm0,5h6v3h-6zm0,5h6v3h-6zm0,5h6v6h-6zm0,8h6v6h-6zm0,11h6v58h-6zm0,61h6v34h-6zm0,37h6v21h-6zm0,23h6v3h-6zm0,6h6v10h-6zm0,13h6v42h-6zm0,45h6v2h-6zm0,10h6v6h-6zm6,-227h7v3h-7zm0,11h7v74h-7zm0,76h7v8h-7zm0,14h7v2h-7zm0,5h7v3h-7zm0,8h7v8h-7zm0,10h7v3h-7zm0,11h7v5h-7zm0,10h7v6h-7zm0,11h7v8h-7zm0,13h7v58h-7zm0,74h7v3h-7zm7,-251h6v3h-6zm0,11h6v76h-6zm0,79h6v3h-6zm0,5h6v8h-6zm0,11h6v5h-6zm0,11h6v2h-6zm0,7h6v3h-6zm0,45h6v8h-6zm0,11h6v3h-6zm0,8h6v2h-6zm0,5h6v13h-6zm0,16h6v32h-6zm0,42h6v3h-6zm0,79h6v3h-6zm6,-335h6v3h-6zm0,19h6v47h-6zm0,50h6v5h-6zm0,8h6v10h-6zm0,15h6v3h-6zm0,22h6v2h-6zm0,89h6v3h-6zm0,6h6v10h-6zm0,13h6v37h-6zm0,39h6v6h-6zm0,74h6v3h-6zm6,-332h6v2h-6zm0,8h6v60h-6zm0,66h6v2h-6zm0,5h6v3h-6zm0,10h6v3h-6zm0,11h6v3h-6zm0,55h6v3h-6zm0,51h6v5h-6zm0,23h6v29h-6zm0,32h6v3h-6zm0,71h6v3h-6zm6,-322h7v61h-7zm0,79h7v3h-7zm0,143h7v32h-7zm0,34h7v6h-7zm0,8h7v3h-7zm0,58h7v3h-7zm7,-330h6v3h-6zm0,11h6v42h-6zm0,45h6v2h-6zm0,5h6v5h-6zm0,8h6v3h-6zm0,5h6v6h-6zm0,11h6v2h-6zm0,153h6v21h-6zm0,24h6v5h-6zm0,8h6v2h-6zm6,-291h6v3h-6zm0,24h6v3h-6zm0,5h6v3h-6zm0,6h6v42h-6zm0,44h6v6h-6zm0,14h6v8h-6zm0,21h6v2h-6zm0,153h6v29h-6zm6,-246h6v3h-6zm0,6h6v13h-6zm0,15h6v48h-6zm0,51h6v2h-6zm0,8h6v2h-6zm0,7h6v3h-6zm0,154h6v2h-6zm0,18h6v13h-6zm6,-251h6v8h-6zm0,11h6v45h-6zm0,47h6v6h-6zm0,196h6v2h-6zm0,5h6v11h-6zm6,-275h7v3h-7zm0,6h7v2h-7zm0,5h7v5h-7zm0,8h7v55h-7zm0,61h7v2h-7zm0,5h7v5h-7zm0,187h7v14h-7zm7,-264h6v3h-6zm0,6h6v5h-6zm0,8h6v50h-6zm0,55h6v3h-6zm0,11h6v2h-6zm0,10h6v3h-6zm0,177h6v13h-6zm6,-267h6v3h-6zm0,8h6v3h-6zm0,6h6v50h-6zm0,52h6v14h-6zm0,16h6v3h-6zm0,188h6v10h-6zm6,-272h6v2h-6zm0,5h6v45h-6zm0,48h6v10h-6zm0,15h6v8h-6zm0,206h6v8h-6zm6,-277h7v3h-7zm0,11h7v2h-7zm0,5h7v47h-7zm0,50h7v11h-7zm0,24h7v2h-7zm0,8h7v2h-7zm0,179h7v8h-7zm7,-287h6v2h-6zm0,13h6v5h-6zm0,13h6v5h-6zm0,10h6v45h-6zm0,51h6v8h-6zm0,190h6v2h-6zm0,8h6v13h-6zm6,-264h6v71h-6zm0,81h6v3h-6zm0,183h6v10h-6zm6,-270h6v3h-6zm0,6h6v5h-6zm0,8h6v50h-6zm0,52h6v8h-6zm0,24h6v3h-6zm0,166h6v3h-6zm0,6h6v5h-6zm0,8h6v10h-6zm6,-278h6v3h-6zm0,6h6v2h-6zm0,5h6v3h-6zm0,5h6v58h-6zm0,64h6v5h-6zm0,10h6v3h-6zm0,8h6v3h-6zm0,174h6v3h-6zm0,6h6v10h-6zm6,-272h7v5h-7zm0,8h7v2h-7zm0,8h7v5h-7zm0,7h7v51h-7zm0,53h7v6h-7zm0,13h7v3h-7zm0,180h7v11h-7zm7,-275h6v3h-6zm0,8h6v6h-6zm0,8h6v11h-6zm0,13h6v64h-6zm0,74h6v3h-6zm0,16h6v6h-6zm0,151h6v18h-6zm6,-254h6v8h-6zm0,11h6v68h-6zm0,71h6v3h-6zm0,8h6v3h-6zm0,158h6v3h-6zm0,6h6v16h-6zm6,-254h6v43h-6zm0,45h6v29h-6zm0,32h6v5h-6zm0,10h6v3h-6zm0,22h6v2h-6zm0,134h6v3h-6zm0,5h6v3h-6zm0,6h6v13h-6zm6,-267h7v3h-7zm0,26h7v61h-7zm0,72h7v5h-7zm0,16h7v2h-7zm0,121h7v3h-7zm0,11h7v2h-7zm0,21h7v16h-7zm7,-243h6v2h-6zm0,5h6v53h-6zm0,56h6v13h-6zm0,15h6v8h-6zm0,151h6v3h-6zm0,5h6v24h-6zm6,-235h6v69h-6zm0,71h6v6h-6zm0,8h6v3h-6zm0,6h6v5h-6zm0,8h6v2h-6zm0,5h6v3h-6zm0,5h6v5h-6zm0,16h6v3h-6zm0,82h6v2h-6zm0,26h6v6h-6zm0,8h6v21h-6zm6,-235h6v3h-6zm0,11h6v50h-6zm0,58h6v16h-6zm0,24h6v2h-6zm0,8h6v2h-6zm0,126h6v32h-6zm6,-219h7v3h-7zm0,5h7v3h-7zm0,8h7v53h-7zm0,56h7v2h-7zm0,10h7v6h-7zm0,11h7v3h-7zm0,98h7v2h-7zm0,21h7v2h-7zm0,5h7v8h-7zm0,11h7v15h-7zm0,18h7v3h-7zm7,-238h6v3h-6zm0,6h6v2h-6zm0,5h6v53h-6zm0,55h6v8h-6zm0,11h6v16h-6zm0,32h6v2h-6zm0,13h6v5h-6zm0,10h6v3h-6zm0,8h6v3h-6zm0,8h6v3h-6zm0,6h6v2h-6zm0,15h6v3h-6zm0,8h6v3h-6zm0,19h6v8h-6zm0,10h6v29h-6zm6,-211h6v103h-6zm0,106h6v8h-6zm0,10h6v3h-6zm0,6h6v7h-6zm0,15h6v6h-6zm0,8h6v11h-6zm0,19h6v5h-6zm0,8h6v2h-6zm0,5h6v3h-6zm0,8h6v3h-6zm0,5h6v13h-6zm0,16h6v26h-6zm6,-206h6v5h-6zm0,11h6v8h-6zm0,10h6v72h-6zm0,74h6v5h-6zm0,8h6v13h-6zm0,19h6v2h-6zm0,10h6v5h-6zm0,8h6v3h-6zm0,8h6v5h-6zm0,8h6v10h-6zm0,13h6v56h-6zm6,-164h6v6h-6zm0,8h6v14h-6zm0,16h6v19h-6zm0,21h6v45h-6zm0,48h6v5h-6zm0,8h6v5h-6zm0,8h6v8h-6zm0,10h6v3h-6zm0,5h6v82h-6zm0,85h6v5h-6zm6,-203h7v2h-7zm0,10h7v130h-7zm0,132h7v56h-7zm7,-153h6v3h-6zm0,5h6v3h-6zm0,11h6v3h-6zm0,5h6v79h-6zm0,82h6v16h-6zm0,19h6v39h-6zm0,42h6v34h-6zm0,37h6v5h-6zm0,10h6v3h-6zm0,8h6v3h-6zm6,-224h6v5h-6zm0,16h6v55h-6zm0,58h6v24h-6zm0,26h6v8h-6zm0,11h6v2h-6zm0,5h6v34h-6zm0,37h6v66h-6zm0,71h6v6h-6zm6,-211h6v8h-6zm0,11h6v55h-6zm0,58h6v13h-6zm0,16h6v5h-6zm0,7h6v8h-6zm0,14h6v5h-6zm0,13h6v5h-6zm0,8h6v10h-6zm0,16h6v5h-6zm0,15h6v8h-6zm0,14h6v42h-6zm0,45h6v2h-6zm6,-228h7v3h-7zm0,6h7v37h-7zm0,39h7v16h-7zm0,19h7v10h-7zm0,21h7v3h-7zm0,5h7v6h-7zm0,21h7v3h-7zm0,27h7v2h-7zm0,8h7v5h-7zm0,8h7v2h-7zm0,13h7v2h-7zm0,5h7v5h-7zm0,11h7v2h-7zm0,5h7v47h-7zm7,-203h6v2h-6zm0,15h6v3h-6zm0,8h6v45h-6zm0,48h6v5h-6zm0,8h6v13h-6zm0,21h6v3h-6zm0,61h6v5h-6zm0,26h6v3h-6zm0,16h6v3h-6zm0,8h6v8h-6zm0,10h6v29h-6zm0,32h6v5h-6zm6,-240h6v2h-6zm0,5h6v48h-6zm0,50h6v6h-6zm0,13h6v6h-6zm0,45h6v3h-6zm0,82h6v3h-6zm0,11h6v2h-6zm0,8h6v31h-6zm6,-222h6v3h-6zm0,10h6v3h-6zm0,6h6v39h-6zm0,42h6v18h-6zm0,24h6v2h-6zm0,137h6v3h-6zm0,16h6v21h-6zm0,24h6v2h-6zm6,-256h7v2h-7zm0,5h7v2h-7zm0,5h7v40h-7zm0,42h7v14h-7zm0,16h7v8h-7zm0,156h7v3h-7zm0,8h7v26h-7zm7,-227h6v68h-6zm0,71h6v5h-6zm0,159h6v2h-6zm0,10h6v16h-6zm6,-248h6v3h-6zm0,5h6v5h-6zm0,8h6v50h-6zm0,53h6v8h-6zm0,10h6v3h-6zm0,172h6v16h-6zm6,-253h6v2h-6zm0,10h6v50h-6zm0,56h6v15h-6zm0,21h6v8h-6zm0,163h6v3h-6zm0,6h6v18h-6zm6,-254h6v3h-6zm0,8h6v3h-6zm0,5h6v3h-6zm0,6h6v47h-6zm0,53h6v2h-6zm0,10h6v3h-6zm0,13h6v6h-6zm0,161h6v16h-6zm6,-250h7v52h-7zm0,55h7v8h-7zm0,11h7v7h-7zm0,13h7v2h-7zm0,171h7v3h-7zm0,6h7v13h-7zm7,-262h6v11h-6zm0,13h6v3h-6zm0,6h6v2h-6zm0,5h6v5h-6zm0,11h6v37h-6zm0,39h6v8h-6zm0,185h6v16h-6zm6,-261h6v5h-6zm0,8h6v5h-6zm0,10h6v61h-6zm0,71h6v3h-6zm0,172h6v5h-6zm0,8h6v5h-6zm6,-259h6v66h-6zm0,74h6v5h-6zm0,177h6v3h-6zm0,5h6v8h-6zm6,-256h7v3h-7zm0,8h7v63h-7zm0,69h7v2h-7zm0,8h7v2h-7zm0,169h7v10h-7zm7,-267h6v3h-6zm0,13h6v11h-6zm0,13h6v48h-6zm0,51h6v2h-6zm0,5h6v2h-6zm0,5h6v3h-6zm0,169h6v3h-6zm0,13h6v8h-6zm6,-261h6v3h-6zm0,8h6v5h-6zm0,8h6v2h-6zm0,8h6v47h-6zm0,50h6v8h-6zm0,10h6v3h-6zm0,169h6v3h-6zm0,6h6v10h-6zm6,-259h6v8h-6zm0,10h6v6h-6zm0,8h6v53h-6zm0,56h6v2h-6zm0,10h6v3h-6zm0,172h6v13h-6zm6,-259h7v3h-7zm0,6h7v7h-7zm0,13h7v34h-7zm0,37h7v29h-7zm0,192h7v3h-7zm0,11h7v11h-7zm7,-259h6v3h-6zm0,21h6v53h-6zm0,56h6v2h-6zm0,5h6v3h-6zm0,11h6v2h-6zm0,18h6v3h-6zm0,143h6v2h-6zm0,8h6v10h-6zm6,-254h6v3h-6zm0,5h6v66h-6zm0,72h6v2h-6zm0,153h6v3h-6zm0,13h6v19h-6zm6,-245h6v2h-6zm0,10h6v3h-6zm0,5h6v3h-6zm0,6h6v47h-6zm0,50h6v13h-6zm0,24h6v2h-6zm0,110h6v3h-6zm0,19h6v5h-6zm0,16h6v2h-6zm0,5h6v19h-6zm6,-251h6v3h-6zm0,6h6v2h-6zm0,5h6v5h-6zm0,8h6v10h-6zm0,13h6v42h-6zm0,45h6v8h-6zm0,10h6v3h-6zm0,48h6v3h-6zm0,92h6v3h-6zm0,6h6v2h-6zm0,15h6v19h-6zm6,-248h7v3h-7zm0,13h7v3h-7zm0,6h7v58h-7zm0,60h7v3h-7zm0,11h7v3h-7zm0,8h7v8h-7zm0,18h7v3h-7zm0,85h7v3h-7zm0,45h7v18h-7zm7,-243h6v3h-6zm0,5h6v5h-6zm0,8h6v3h-6zm0,5h6v3h-6zm0,6h6v42h-6zm0,45h6v18h-6zm0,21h6v5h-6zm0,10h6v8h-6zm0,11h6v2h-6zm0,8h6v2h-6zm0,5h6v3h-6zm0,84h6v3h-6zm0,11h6v3h-6zm0,16h6v24h-6zm6,-232h6v5h-6zm0,7h6v3h-6zm0,8h6v8h-6zm0,14h6v39h-6zm0,42h6v24h-6zm0,26h6v3h-6zm0,8h6v3h-6zm0,8h6v3h-6zm0,21h6v3h-6zm0,5h6v3h-6zm0,11h6v3h-6zm0,40h6v2h-6zm0,13h6v2h-6zm0,8h6v2h-6zm0,5h6v40h-6zm6,-201h6v40h-6zm0,43h6v29h-6zm0,31h6v21h-6zm0,24h6v13h-6zm0,21h6v5h-6zm0,16h6v3h-6zm0,11h6v5h-6zm0,10h6v5h-6zm0,13h6v3h-6zm0,11h6v3h-6zm0,5h6v3h-6zm0,5h6v11h-6zm0,14h6v2h-6zm0,5h6v29h-6zm6,-222h7v3h-7zm0,5h7v3h-7zm0,6h7v8h-7zm0,10h7v8h-7zm0,11h7v5h-7zm0,8h7v55h-7zm0,58h7v8h-7zm0,10h7v16h-7zm0,19h7v3h-7zm0,5h7v8h-7zm0,11h7v5h-7zm0,10h7v3h-7zm0,21h7v11h-7zm0,19h7v5h-7zm0,8h7v5h-7zm0,8h7v31h-7zm0,34h7v3h-7zm7,-224h6v10h-6zm0,13h6v8h-6zm0,10h6v64h-6zm0,66h6v11h-6zm0,16h6v13h-6zm0,16h6v13h-6zm0,21h6v3h-6zm0,6h6v10h-6zm0,13h6v50h-6zm6,-172h6v3h-6zm0,8h6v3h-6zm0,5h6v6h-6zm0,8h6v87h-6zm0,90h6v21h-6zm0,24h6v76h-6zm6,-138h6v3h-6zm0,11h6v5h-6zm0,11h6v8h-6zm0,10h6v161h-6zm0,166h6v11h-6zm6,-203h7v3h-7zm0,11h7v8h-7zm0,10h7v3h-7zm0,6h7v10h-7zm0,13h7v63h-7zm0,66h7v21h-7zm0,24h7v81h-7zm7,-132h6v2h-6zm0,7h6v3h-6zm0,6h6v5h-6zm0,10h6v3h-6zm0,6h6v92h-6zm0,95h6v79h-6zm0,81h6v6h-6zm0,8h6v6h-6zm6,-211h6v3h-6zm0,11h6v2h-6zm0,5h6v82h-6zm0,85h6v5h-6zm0,10h6v8h-6zm0,11h6v2h-6zm0,5h6v3h-6zm0,5h6v82h-6zm0,85h6v2h-6zm0,5h6v5h-6zm6,-219h6v2h-6zm0,8h6v10h-6zm0,13h6v61h-6zm0,63h6v3h-6zm0,8h6v3h-6zm0,6h6v7h-6zm0,15h6v6h-6zm0,8h6v3h-6zm0,8h6v3h-6zm0,8h6v11h-6zm0,16h6v3h-6zm0,8h6v10h-6zm0,13h6v40h-6zm0,42h6v8h-6zm0,14h6v2h-6zm6,-222h6v50h-6zm0,58h6v5h-6zm0,10h6v8h-6zm0,19h6v5h-6zm0,13h6v3h-6zm0,26h6v3h-6zm0,35h6v2h-6zm0,16h6v5h-6zm0,8h6v34h-6zm0,37h6v2h-6zm0,10h6v3h-6zm6,-248h7v3h-7zm0,10h7v3h-7zm0,6h7v5h-7zm0,8h7v5h-7zm0,8h7v31h-7zm0,34h7v3h-7zm0,5h7v5h-7zm0,8h7v3h-7zm0,5h7v3h-7zm0,82h7v3h-7zm0,29h7v6h-7zm0,16h7v8h-7zm0,11h7v23h-7zm7,-233h6v6h-6zm0,16h6v5h-6zm0,8h6v3h-6zm0,5h6v27h-6zm0,29h6v22h-6zm0,24h6v3h-6zm0,8h6v3h-6zm0,5h6v3h-6zm0,6h6v2h-6zm0,5h6v3h-6zm0,16h6v2h-6zm0,108h6v32h-6zm0,34h6v6h-6zm6,-261h6v3h-6zm0,8h6v63h-6zm0,66h6v10h-6zm0,13h6v3h-6zm0,5h6v3h-6zm0,8h6v8h-6zm0,11h6v3h-6zm0,124h6v3h-6zm0,5h6v24h-6zm0,29h6v3h-6zm6,-261h6v13h-6zm0,16h6v53h-6zm0,55h6v8h-6zm0,11h6v2h-6zm0,140h6v2h-6zm0,10h6v32h-6zm6,-237h7v2h-7zm0,5h7v5h-7zm0,8h7v55h-7zm0,58h7v3h-7zm0,5h7v5h-7zm0,11h7v2h-7zm0,156h7v29h-7zm7,-243h6v13h-6zm0,15h6v51h-6zm0,53h6v11h-6zm0,175h6v7h-6zm0,10h6v21h-6zm6,-240h6v47h-6zm0,50h6v3h-6zm0,5h6v3h-6zm0,6h6v2h-6zm0,7h6v3h-6zm0,8h6v3h-6zm0,156h6v3h-6zm0,5h6v22h-6zm6,-261h6v3h-6zm0,13h6v3h-6zm0,6h6v44h-6zm0,47h6v3h-6zm0,5h6v19h-6zm0,21h6v6h-6zm0,159h6v3h-6zm0,21h6v13h-6zm6,-269h7v2h-7zm0,5h7v3h-7zm0,11h7v5h-7zm0,7h7v45h-7zm0,53h7v6h-7zm0,21h7v3h-7zm0,151h7v3h-7zm0,13h7v3h-7zm0,5h7v3h-7zm0,8h7v8h-7zm7,-266h6v2h-6zm0,8h6v66h-6zm0,68h6v3h-6zm0,8h6v3h-6zm0,32h6v2h-6zm0,132h6v2h-6zm0,8h6v2h-6zm0,5h6v5h-6zm0,8h6v5h-6zm6,-272h6v3h-6zm0,8h6v3h-6zm0,5h6v56h-6zm0,58h6v11h-6zm0,19h6v2h-6zm0,5h6v3h-6zm0,156h6v5h-6zm0,13h6v16h-6zm6,-269h6v5h-6zm0,8h6v2h-6zm0,5h6v3h-6zm0,10h6v61h-6zm0,233h6v5h-6zm0,10h6v3h-6zm0,6h6v10h-6zm6,-264h6v2h-6zm0,10h6v48h-6zm0,50h6v6h-6zm0,8h6v3h-6zm0,11h6v2h-6zm0,179h6v19h-6zm6,-256h7v3h-7zm0,6h7v58h-7zm0,60h7v6h-7zm0,11h7v8h-7zm0,10h7v6h-7zm0,32h7v3h-7zm0,122h7v2h-7zm0,5h7v8h-7zm0,10h7v19h-7zm7,-256h6v3h-6zm0,6h6v2h-6zm0,5h6v2h-6zm0,5h6v45h-6zm0,50h6v3h-6zm0,16h6v3h-6zm0,11h6v5h-6zm0,145h6v3h-6zm0,8h6v2h-6zm0,10h6v6h-6zm0,8h6v6h-6zm6,-266h6v76h-6zm0,79h6v5h-6zm0,16h6v2h-6zm0,13h6v3h-6zm0,124h6v5h-6zm0,8h6v3h-6zm0,10h6v6h-6zm0,8h6v19h-6zm6,-256h6v3h-6zm0,6h6v2h-6zm0,5h6v5h-6zm0,10h6v45h-6zm0,48h6v3h-6zm0,5h6v5h-6zm0,8h6v8h-6zm0,19h6v2h-6zm0,137h6v5h-6zm0,8h6v8h-6zm0,10h6v16h-6zm6,-261h7v3h-7zm0,16h7v2h-7zm0,5h7v50h-7zm0,53h7v10h-7zm0,169h7v8h-7zm0,10h7v8h-7zm0,11h7v11h-7zm7,-261h6v2h-6zm0,15h6v61h-6zm0,64h6v2h-6zm0,8h6v2h-6zm0,8h6v2h-6zm0,5h6v3h-6zm0,5h6v3h-6zm0,19h6v2h-6zm0,105h6v3h-6zm0,6h6v5h-6zm0,8h6v13h-6zm0,15h6v14h-6zm6,-266h6v2h-6zm0,23h6v45h-6zm0,48h6v16h-6zm0,24h6v2h-6zm0,24h6v5h-6zm0,15h6v3h-6zm0,21h6v3h-6zm0,80h6v2h-6zm0,5h6v3h-6zm0,5h6v16h-6zm0,19h6v13h-6zm6,-251h6v5h-6zm0,8h6v82h-6zm0,84h6v8h-6zm0,11h6v3h-6zm0,119h6v2h-6zm0,8h6v8h-6zm0,10h6v24h-6zm6,-240h7v3h-7zm0,16h7v2h-7zm0,5h7v58h-7zm0,61h7v5h-7zm0,8h7v5h-7zm0,8h7v2h-7zm0,10h7v3h-7zm0,16h7v3h-7zm0,5h7v3h-7zm0,29h7v3h-7zm0,61h7v5h-7zm0,8h7v34h-7zm7,-224h6v2h-6zm0,7h6v3h-6zm0,11h6v48h-6zm0,50h6v27h-6zm0,29h6v3h-6zm0,13h6v3h-6zm0,14h6v2h-6zm0,8h6v2h-6zm0,31h6v3h-6zm0,11h6v2h-6zm0,34h6v5h-6zm0,13h6v35h-6zm6,-211h6v3h-6zm0,8h6v3h-6zm0,8h6v58h-6zm0,61h6v13h-6zm0,16h6v7h-6zm0,21h6v2h-6zm0,5h6v8h-6zm0,10h6v3h-6zm0,24h6v3h-6zm0,19h6v2h-6zm0,26h6v5h-6zm0,8h6v5h-6zm0,8h6v29h-6zm6,-217h6v3h-6zm0,6h6v2h-6zm0,5h6v3h-6zm0,5h6v80h-6zm0,82h6v3h-6zm0,8h6v5h-6zm0,8h6v5h-6zm0,11h6v5h-6zm0,7h6v3h-6zm0,24h6v3h-6zm0,8h6v3h-6zm0,5h6v3h-6zm0,14h6v5h-6zm0,10h6v42h-6zm0,45h6v3h-6zm6,-243h6v3h-6zm0,11h6v50h-6zm0,55h6v58h-6zm0,61h6v3h-6zm0,10h6v14h-6zm0,22h6v2h-6zm0,8h6v5h-6zm0,7h6v3h-6zm0,6h6v8h-6zm0,10h6v3h-6zm0,6h6v44h-6zm6,-188h7v5h-7zm0,8h7v82h-7zm0,85h7v23h-7zm0,26h7v13h-7zm0,18h7v22h-7zm0,24h7v66h-7zm7,-171h6v2h-6zm0,10h6v3h-6zm0,5h6v11h-6zm0,16h6v6h-6zm0,11h6v169h-6zm0,171h6v6h-6zm0,8h6v3h-6zm6,-208h6v2h-6zm0,8h6v8h-6zm0,10h6v98h-6zm0,101h6v81h-6zm0,84h6v3h-6zm0,5h6v3h-6zm0,6h6v2h-6zm6,-225h6v3h-6zm0,5h6v3h-6zm0,6h6v2h-6zm0,5h6v3h-6zm0,5h6v3h-6zm0,6h6v13h-6zm0,15h6v61h-6zm0,64h6v34h-6zm0,37h6v60h-6zm0,63h6v3h-6zm0,5h6v3h-6zm0,14h6v2h-6zm6,-222h7v5h-7zm0,8h7v2h-7zm0,5h7v66h-7zm0,69h7v2h-7zm0,5h7v8h-7zm0,11h7v2h-7zm0,13h7v13h-7zm0,16h7v2h-7zm0,5h7v87h-7zm0,90h7v5h-7zm7,-233h6v3h-6zm0,6h6v10h-6zm0,13h6v2h-6zm0,5h6v8h-6zm0,11h6v52h-6zm0,55h6v13h-6zm0,16h6v5h-6zm0,16h6v2h-6zm0,5h6v3h-6zm0,5h6v3h-6zm0,8h6v3h-6zm0,5h6v3h-6zm0,22h6v2h-6zm0,5h6v5h-6zm0,10h6v6h-6zm0,14h6v10h-6zm0,13h6v32h-6zm0,34h6v3h-6zm0,8h6v3h-6zm6,-248h6v3h-6zm0,5h6v5h-6zm0,11h6v71h-6zm0,74h6v2h-6zm0,5h6v3h-6zm0,11h6v2h-6zm0,31h6v3h-6zm0,11h6v2h-6zm0,16h6v2h-6zm0,10h6v3h-6zm0,13h6v3h-6zm0,6h6v5h-6zm0,8h6v42h-6zm0,44h6v3h-6zm0,6h6v2h-6zm6,-267h6v3h-6zm0,13h6v8h-6zm0,11h6v8h-6zm0,10h6v69h-6zm0,82h6v3h-6zm0,90h6v3h-6zm0,13h6v3h-6zm0,8h6v34h-6zm0,37h6v3h-6zm0,5h6v3h-6zm6,-264h7v3h-7zm0,11h7v5h-7zm0,8h7v5h-7zm0,8h7v10h-7zm0,13h7v40h-7zm0,47h7v6h-7zm0,130h7v2h-7zm0,10h7v3h-7zm0,11h7v29h-7zm0,32h7v2h-7zm7,-264h6v2h-6zm0,15h6v3h-6zm0,6h6v53h-6zm0,55h6v3h-6zm0,5h6v3h-6zm0,8h6v3h-6zm0,143h6v32h-6zm6,-224h6v2h-6zm0,5h6v5h-6zm0,8h6v58h-6zm0,60h6v6h-6zm0,169h6v22h-6zm6,-253h6v3h-6zm0,5h6v3h-6zm0,6h6v2h-6zm0,5h6v5h-6zm0,8h6v45h-6zm0,47h6v16h-6zm0,19h6v2h-6zm0,158h6v3h-6zm0,5h6v22h-6zm6,-256h6v3h-6zm0,11h6v5h-6zm0,8h6v2h-6zm0,5h6v34h-6zm0,37h6v21h-6zm0,29h6v3h-6zm0,8h6v5h-6zm0,24h6v2h-6zm0,132h6v5h-6zm0,10h6v14h-6zm6,-253h7v5h-7zm0,10h7v59h-7zm0,72h7v2h-7zm0,177h7v8h-7zm0,10h7v3h-7zm7,-280h6v3h-6zm0,8h6v3h-6zm0,6h6v2h-6zm0,5h6v50h-6zm0,53h6v8h-6zm0,10h6v3h-6zm0,5h6v6h-6zm0,8h6v3h-6zm0,11h6v3h-6zm0,11h6v2h-6zm0,150h6v16h-6zm6,-264h6v3h-6zm0,5h6v3h-6zm0,8h6v64h-6zm0,66h6v5h-6zm0,8h6v3h-6zm0,177h6v16h-6zm6,-272h6v3h-6zm0,13h6v8h-6zm0,13h6v3h-6zm0,6h6v47h-6zm0,50h6v8h-6zm0,10h6v6h-6zm0,8h6v3h-6zm0,16h6v3h-6zm0,156h6v13h-6zm6,-261h7v5h-7zm0,8h7v2h-7zm0,7h7v51h-7zm0,53h7v3h-7zm0,6h7v2h-7zm0,5h7v2h-7zm0,5h7v3h-7zm0,11h7v2h-7zm0,166h7v16h-7zm7,-259h6v3h-6zm0,6h6v63h-6zm0,66h6v2h-6zm0,5h6v5h-6zm0,10h6v6h-6zm0,169h6v6h-6zm0,8h6v11h-6zm6,-272h6v3h-6zm0,11h6v5h-6zm0,10h6v6h-6zm0,8h6v43h-6zm0,45h6v6h-6zm0,8h6v5h-6zm0,8h6v3h-6zm0,177h6v13h-6zm6,-253h6v7h-6zm0,10h6v11h-6zm0,13h6v6h-6zm0,8h6v48h-6zm0,53h6v3h-6zm0,5h6v3h-6zm0,14h6v2h-6zm0,150h6v13h-6zm6,-269h6v2h-6zm0,13h6v8h-6zm0,10h6v8h-6zm0,11h6v58h-6zm0,61h6v2h-6zm0,10h6v3h-6zm0,6h6v2h-6zm0,158h6v13h-6zm6,-259h7v3h-7zm0,11h7v10h-7zm0,13h7v45h-7zm0,48h7v7h-7zm0,10h7v5h-7zm0,169h7v19h-7zm0,21h7v3h-7zm7,-282h6v5h-6zm0,8h6v2h-6zm0,8h6v5h-6zm0,15h6v51h-6zm0,53h6v5h-6zm0,8h6v5h-6zm0,156h6v3h-6zm0,5h6v3h-6zm0,5h6v3h-6zm0,6h6v13h-6zm6,-254h6v6h-6zm0,8h6v3h-6zm0,5h6v3h-6zm0,6h6v2h-6zm0,5h6v58h-6zm0,61h6v5h-6zm0,16h6v2h-6zm0,29h6v2h-6zm0,116h6v2h-6zm0,5h6v21h-6zm6,-251h6v3h-6zm0,8h6v3h-6zm0,8h6v3h-6zm0,5h6v3h-6zm0,8h6v14h-6zm0,16h6v45h-6zm0,206h6v16h-6zm6,-232h7v13h-7zm0,16h7v50h-7zm0,60h7v6h-7zm0,14h7v2h-7zm0,134h7v3h-7zm0,5h7v19h-7zm7,-227h6v3h-6zm0,6h6v66h-6zm0,68h6v3h-6zm0,122h6v2h-6zm0,5h6v3h-6zm0,21h6v5h-6zm0,8h6v13h-6zm6,-230h6v3h-6zm0,8h6v3h-6zm0,6h6v13h-6zm0,15h6v32h-6zm0,35h6v16h-6zm0,18h6v3h-6zm0,90h6v3h-6zm0,37h6v3h-6zm0,11h6v21h-6zm6,-217h6v3h-6zm0,11h6v47h-6zm0,50h6v5h-6zm0,8h6v5h-6zm0,8h6v5h-6zm0,10h6v3h-6zm0,5h6v3h-6zm0,8h6v3h-6zm0,6h6v2h-6zm0,39h6v3h-6zm0,37h6v3h-6zm0,16h6v3h-6zm0,11h6v10h-6zm0,13h6v18h-6zm6,-222h7v13h-7zm0,19h7v58h-7zm0,60h7v8h-7zm0,16h7v5h-7zm0,13h7v3h-7zm0,6h7v2h-7zm0,7h7v3h-7zm0,11h7v3h-7zm0,13h7v6h-7zm0,11h7v2h-7zm0,21h7v3h-7zm0,21h7v3h-7zm0,5h7v6h-7zm0,8h7v24h-7zm7,-182h6v63h-6zm0,69h6v10h-6zm0,13h6v3h-6zm0,5h6v8h-6zm0,27h6v5h-6zm0,15h6v3h-6zm0,6h6v8h-6zm0,13h6v3h-6zm0,5h6v3h-6zm0,8h6v8h-6zm0,11h6v5h-6zm0,8h6v15h-6zm0,21h6v2h-6zm6,-209h6v69h-6zm0,71h6v14h-6zm0,19h6v5h-6zm0,10h6v3h-6zm0,6h6v2h-6zm0,8h6v5h-6zm0,10h6v3h-6zm0,6h6v15h-6zm0,18h6v5h-6zm0,11h6v44h-6zm6,-159h6v3h-6zm0,5h6v3h-6zm0,8h6v6h-6zm0,8h6v101h-6zm0,109h6v2h-6zm0,5h6v61h-6zm6,-164h6v8h-6zm0,27h6v2h-6zm0,7h6v56h-6zm0,59h6v34h-6zm0,36h6v35h-6zm0,37h6v51h-6zm6,-132h7v8h-7zm0,11h7v58h-7zm0,61h7v103h-7zm0,105h7v3h-7zm7,-179h6v16h-6zm0,18h6v45h-6zm0,50h6v32h-6zm0,35h6v71h-6zm0,79h6v3h-6zm6,-203h6v2h-6zm0,18h6v3h-6zm0,5h6v35h-6zm0,37h6v146h-6zm6,-74h6v6h-6zm0,32h6v32h-6zm0,34h6v22h-6zm0,24h6v6h-6zm0,8h6v3h-6zm0,5h6v3h-6zm0,19h6v3h-6zm0,16h6v5h-6zm0,8h6v2h-6zm0,10h6v3h-6zm0,8h6v64h-6zm6,-171h7v5h-7zm0,18h7v3h-7zm0,11h7v5h-7zm0,8h7v18h-7zm0,21h7v42h-7zm0,45h7v2h-7zm0,73h7v3h-7zm0,6h7v13h-7zm0,16h7v44h-7zm7,-206h6v2h-6zm0,5h6v3h-6zm0,5h6v3h-6zm0,5h6v8h-6zm0,11h6v3h-6zm0,8h6v29h-6zm0,32h6v13h-6zm0,21h6v2h-6zm0,5h6v3h-6zm0,95h6v3h-6zm0,26h6v11h-6zm0,14h6v18h-6zm0,29h6v2h-6zm0,8h6v2h-6zm6,-259h6v3h-6zm0,5h6v5h-6zm0,8h6v5h-6zm0,8h6v3h-6zm0,16h6v32h-6zm0,34h6v8h-6zm0,11h6v8h-6zm0,129h6v3h-6zm0,5h6v40h-6zm6,-229h6v2h-6zm0,8h6v2h-6zm0,10h6v5h-6zm0,11h6v2h-6zm0,10h6v3h-6zm0,6h6v42h-6zm0,195h6v3h-6zm0,5h6v3h-6zm0,6h6v18h-6zm0,21h6v2h-6zm6,-254h7v8h-7zm0,11h7v8h-7zm0,18h7v21h-7zm0,24h7v5h-7zm0,8h7v8h-7zm0,10h7v6h-7zm0,8h7v3h-7zm0,154h7v2h-7zm0,5h7v21h-7zm7,-248h6v2h-6zm0,5h6v5h-6zm0,34h6v29h-6zm0,32h6v5h-6zm0,10h6v3h-6zm0,169h6v24h-6zm6,-261h6v3h-6zm0,21h6v16h-6zm0,24h6v40h-6zm0,42h6v3h-6zm0,8h6v3h-6zm0,166h6v3h-6zm0,6h6v2h-6zm0,5h6v11h-6zm6,-272h6v3h-6zm0,8h6v3h-6zm0,13h6v3h-6zm0,5h6v6h-6zm0,11h6v3h-6zm0,11h6v37h-6zm0,39h6v3h-6zm0,8h6v3h-6zm0,177h6v16h-6zm6,-272h6v3h-6zm0,16h6v16h-6zm0,21h6v3h-6zm0,8h6v3h-6zm0,5h6v3h-6zm0,6h6v18h-6zm0,21h6v5h-6zm0,8h6v7h-6zm0,13h6v2h-6zm0,166h6v3h-6zm0,5h6v3h-6zm0,6h6v10h-6zm6,-275h7v3h-7zm0,11h7v8h-7zm0,18h7v3h-7zm0,5h7v3h-7zm0,6h7v2h-7zm0,5h7v3h-7zm0,5h7v32h-7zm0,35h7v2h-7zm0,5h7v5h-7zm0,187h7v11h-7zm7,-274h6v2h-6zm0,8h6v10h-6zm0,15h6v3h-6zm0,11h6v3h-6zm0,8h6v32h-6zm0,34h6v13h-6zm0,21h6v3h-6zm0,8h6v3h-6zm0,167h6v13h-6zm6,-275h6v3h-6zm0,11h6v2h-6zm0,8h6v2h-6zm0,5h6v2h-6zm0,18h6v3h-6zm0,6h6v31h-6zm0,34h6v10h-6zm0,16h6v5h-6zm0,163h6v3h-6zm0,11h6v13h-6zm6,-272h6v3h-6zm0,8h6v3h-6zm0,11h6v5h-6zm0,7h6v3h-6zm0,16h6v3h-6zm0,8h6v35h-6zm0,37h6v5h-6zm0,8h6v3h-6zm0,5h6v3h-6zm0,177h6v11h-6zm6,-266h7v2h-7zm0,5h7v8h-7zm0,10h7v6h-7zm0,11h7v3h-7zm0,8h7v37h-7zm0,42h7v8h-7zm0,185h7v16h-7zm7,-282h6v2h-6zm0,21h6v2h-6zm0,10h6v3h-6zm0,5h6v3h-6zm0,11h6v61h-6zm0,66h6v3h-6zm0,5h6v3h-6zm0,156h6v3h-6zm0,5h6v16h-6zm6,-266h6v2h-6zm0,8h6v5h-6zm0,8h6v7h-6zm0,10h6v3h-6zm0,5h6v3h-6zm0,16h6v19h-6zm0,21h6v8h-6zm0,11h6v3h-6zm0,5h6v3h-6zm0,5h6v3h-6zm0,177h6v6h-6zm0,8h6v8h-6zm6,-277h6v3h-6zm0,5h6v3h-6zm0,6h6v5h-6zm0,8h6v2h-6zm0,21h6v5h-6zm0,8h6v31h-6zm0,37h6v2h-6zm0,5h6v8h-6zm0,10h6v3h-6zm0,169h6v14h-6zm0,16h6v3h-6zm6,-274h7v2h-7zm0,8h7v5h-7zm0,15h7v3h-7zm0,6h7v5h-7zm0,13h7v32h-7zm0,34h7v3h-7zm0,5h7v3h-7zm0,6h7v2h-7zm0,24h7v2h-7zm0,145h7v18h-7zm7,-251h6v3h-6zm0,21h6v16h-6zm0,19h6v23h-6zm0,29h6v7h-6zm0,15h6v6h-6zm0,11h6v3h-6zm0,150h6v6h-6zm0,8h6v11h-6zm6,-264h6v3h-6zm0,29h6v3h-6zm0,11h6v45h-6zm0,50h6v5h-6zm0,16h6v3h-6zm0,5h6v3h-6zm0,145h6v22h-6zm0,74h6v3h-6z"
             id="path10" />
          <path
             fill="#1063db"
             d="M0,264h6v3h-6zm0,11h6v2h-6zm0,13h6v2h-6zm0,5h6v11h-6zm0,13h6v27h-6zm0,29h6v11h-6zm0,13h6v16h-6zm0,19h6v5h-6zm0,8h6v29h-6zm0,32h6v31h-6zm0,34h6v8h-6zM6,288h6v2h-6zm0,5h6v3h-6zm0,5h6v3h-6zm0,6h6v8h-6zm0,10h6v137h-6zm6,-37h7v3h-7zm0,16h7v3h-7zm0,5h7v6h-7zm0,8h7v8h-7zm0,11h7v121h-7zm0,127h7v2h-7zm0,81h7v3h-7zM19,277h6v3h-6zm0,16h6v11h-6zm0,21h6v32h-6zm0,34h6v80h-6zm0,82h6v14h-6zm0,95h6v3h-6zM25,288h6v5h-6zm0,8h6v5h-6zm0,10h6v3h-6zm0,6h6v21h-6zm0,23h6v27h-6zm0,29h6v58h-6zm0,61h6v5h-6zm0,11h6v2h-6zm0,5h6v3h-6zM31,285h6v3h-6zm0,13h6v3h-6zm0,6h6v5h-6zm0,8h6v5h-6zm0,10h6v26h-6zm0,29h6v8h-6zm0,11h6v18h-6zm0,21h6v5h-6zm0,8h6v26h-6zm6,-90h7v5h-7zm0,16h7v2h-7zm0,8h7v2h-7zm0,8h7v2h-7zm0,5h7v3h-7zm0,5h7v8h-7zm0,11h7v5h-7zm0,8h7v2h-7zm0,5h7v11h-7zm0,18h7v3h-7zm0,6h7v10h-7zm0,18h7v3h-7zm0,5h7v3h-7zM44,277h6v3h-6zm0,24h6v5h-6zm0,13h6v3h-6zm0,5h6v8h-6zm0,22h6v5h-6zm0,13h6v2h-6zm0,5h6v8h-6zm0,11h6v2h-6zm0,10h6v3h-6zm0,5h6v6h-6zm0,8h6v6h-6zm0,19h6v2h-6zM50,306h6v3h-6zm0,37h6v5h-6zm0,11h6v2h-6zm6,-6h6v3h-6zm6,-18h7v3h-7zm7,-8h6v5h-6zm0,8h6v3h-6zm0,11h6v2h-6zm0,7h6v6h-6zm6,-55h6v3h-6zm0,13h6v3h-6zm0,13h6v3h-6zm0,6h6v18h-6zm0,21h6v5h-6zm0,13h6v5h-6zm0,8h6v3h-6zm0,13h6v3h-6zm6,-98h6v3h-6zm0,11h6v5h-6zm0,8h6v3h-6zm0,5h6v19h-6zm0,21h6v24h-6zm0,27h6v10h-6zm0,16h6v2h-6zm0,8h6v7h-6zM87,267h6v2h-6zm0,8h6v2h-6zm0,7h6v3h-6zm0,6h6v5h-6zm0,8h6v2h-6zm0,5h6v37h-6zm0,40h6v55h-6zm0,58h6v5h-6zm0,10h6v3h-6zm0,8h6v3h-6zM93,269h7v3h-7zm0,8h7v3h-7zm0,8h7v5h-7zm0,8h7v3h-7zm0,5h7v109h-7zm0,111h7v19h-7zm7,-148h6v21h-6zm0,24h6v21h-6zm0,24h6v8h-6zm0,10h6v19h-6zm0,22h6v2h-6zm0,5h6v10h-6zm0,13h6v3h-6zm0,11h6v5h-6zm0,10h6v3h-6zm0,5h6v6h-6zm0,8h6v21h-6zm0,24h6v13h-6zm0,16h6v5h-6zm6,-172h6v3h-6zm0,6h6v5h-6zm0,8h6v2h-6zm0,5h6v29h-6zm0,32h6v18h-6zm0,21h6v2h-6zm0,5h6v8h-6zm0,10h6v6h-6zm0,11h6v8h-6zm0,11h6v2h-6zm0,5h6v3h-6zm0,10h6v14h-6zm0,19h6v8h-6zm0,10h6v16h-6zm0,19h6v5h-6zm0,11h6v2h-6zm0,7h6v3h-6zm6,-190h6v3h-6zm0,6h6v2h-6zm0,5h6v3h-6zm0,8h6v47h-6zm0,50h6v3h-6zm0,8h6v5h-6zm0,8h6v5h-6zm0,8h6v5h-6zm0,13h6v3h-6zm0,8h6v3h-6zm0,5h6v3h-6zm0,11h6v2h-6zm0,13h6v3h-6zm0,8h6v32h-6zm0,37h6v2h-6zm6,-196h7v3h-7zm0,11h7v3h-7zm0,8h7v58h-7zm0,61h7v5h-7zm0,8h7v5h-7zm0,7h7v3h-7zm0,8h7v3h-7zm0,6h7v2h-7zm0,18h7v3h-7zm0,5h7v3h-7zm0,6h7v2h-7zm0,13h7v3h-7zm0,5h7v3h-7zm0,5h7v3h-7zm0,6h7v5h-7zm0,8h7v5h-7zm0,8h7v13h-7zm7,-169h6v2h-6zm0,5h6v18h-6zm0,21h6v34h-6zm0,40h6v2h-6zm0,5h6v5h-6zm0,8h6v2h-6zm0,10h6v6h-6zm0,11h6v3h-6zm0,8h6v3h-6zm0,5h6v3h-6zm0,13h6v6h-6zm0,11h6v5h-6zm0,16h6v2h-6zm0,10h6v27h-6zm6,-161h6v6h-6zm0,11h6v24h-6zm0,26h6v19h-6zm0,24h6v3h-6zm0,8h6v10h-6zm0,13h6v3h-6zm0,19h6v2h-6zm0,10h6v3h-6zm0,8h6v3h-6zm0,13h6v6h-6zm0,8h6v3h-6zm0,11h6v5h-6zm0,8h6v5h-6zm0,8h6v23h-6zm0,26h6v3h-6zm6,-219h6v3h-6zm0,18h6v14h-6zm0,16h6v35h-6zm0,37h6v3h-6zm0,5h6v11h-6zm0,16h6v3h-6zm0,11h6v5h-6zm0,8h6v5h-6zm0,10h6v3h-6zm0,16h6v3h-6zm0,5h6v3h-6zm0,27h6v5h-6zm0,8h6v2h-6zm0,5h6v3h-6zm0,5h6v3h-6zm0,6h6v18h-6zm0,21h6v2h-6zm0,5h6v3h-6zm6,-206h7v5h-7zm0,8h7v8h-7zm0,11h7v5h-7zm0,7h7v27h-7zm0,30h7v13h-7zm0,18h7v11h-7zm0,16h7v2h-7zm0,10h7v3h-7zm0,11h7v5h-7zm0,13h7v3h-7zm0,13h7v3h-7zm0,6h7v2h-7zm0,5h7v8h-7zm0,10h7v3h-7zm0,8h7v43h-7zm7,-166h6v3h-6zm0,5h6v3h-6zm0,14h6v5h-6zm0,7h6v69h-6zm0,74h6v3h-6zm0,6h6v2h-6zm0,8h6v8h-6zm0,21h6v2h-6zm0,8h6v5h-6zm0,15h6v8h-6zm0,11h6v3h-6zm0,5h6v3h-6zm0,8h6v21h-6zm0,27h6v2h-6zm6,-214h6v10h-6zm0,13h6v3h-6zm0,8h6v5h-6zm0,13h6v32h-6zm0,34h6v14h-6zm0,22h6v2h-6zm0,5h6v2h-6zm0,8h6v2h-6zm0,5h6v5h-6zm0,8h6v3h-6zm0,18h6v3h-6zm0,6h6v2h-6zm0,8h6v2h-6zm0,5h6v3h-6zm0,8h6v2h-6zm0,5h6v16h-6zm0,19h6v8h-6zm0,10h6v13h-6zm0,16h6v3h-6zm6,-214h6v3h-6zm0,5h6v3h-6zm0,6h6v2h-6zm0,5h6v3h-6zm0,8h6v10h-6zm0,13h6v34h-6zm0,37h6v19h-6zm0,21h6v3h-6zm0,8h6v3h-6zm0,5h6v3h-6zm0,6h6v2h-6zm0,10h6v3h-6zm0,16h6v5h-6zm0,16h6v3h-6zm0,8h6v5h-6zm0,10h6v32h-6zm0,35h6v10h-6zm6,-196h6v3h-6zm0,11h6v8h-6zm0,10h6v43h-6zm0,45h6v3h-6zm0,6h6v8h-6zm0,13h6v5h-6zm0,8h6v5h-6zm0,8h6v2h-6zm0,8h6v5h-6zm0,8h6v7h-6zm0,10h6v8h-6zm0,11h6v8h-6zm0,10h6v3h-6zm0,11h6v2h-6zm0,8h6v10h-6zm0,13h6v21h-6zm6,-198h7v3h-7zm0,5h7v3h-7zm0,19h7v5h-7zm0,10h7v3h-7zm0,5h7v8h-7zm0,11h7v11h-7zm0,13h7v16h-7zm0,19h7v13h-7zm0,16h7v15h-7zm0,26h7v5h-7zm0,8h7v3h-7zm0,5h7v13h-7zm0,16h7v5h-7zm0,8h7v10h-7zm0,13h7v8h-7zm0,11h7v26h-7zm7,-190h6v2h-6zm0,8h6v2h-6zm0,23h6v27h-6zm0,29h6v35h-6zm0,37h6v6h-6zm0,8h6v5h-6zm0,8h6v5h-6zm0,8h6v3h-6zm0,13h6v3h-6zm0,13h6v3h-6zm0,6h6v2h-6zm0,16h6v2h-6zm0,10h6v5h-6zm0,8h6v5h-6zm0,8h6v3h-6zm0,5h6v19h-6zm0,21h6v6h-6zm6,-203h6v3h-6zm0,11h6v10h-6zm0,13h6v5h-6zm0,8h6v45h-6zm0,47h6v19h-6zm0,21h6v6h-6zm0,8h6v6h-6zm0,8h6v3h-6zm0,13h6v8h-6zm0,19h6v3h-6zm0,5h6v13h-6zm0,16h6v32h-6zm6,-169h6v3h-6zm0,8h6v3h-6zm0,5h6v3h-6zm0,6h6v31h-6zm0,34h6v63h-6zm0,69h6v2h-6zm0,7h6v3h-6zm0,8h6v6h-6zm0,8h6v48h-6zm0,50h6v8h-6zm0,11h6v3h-6zm6,-193h7v16h-7zm0,19h7v8h-7zm0,10h7v35h-7zm0,37h7v16h-7zm0,19h7v5h-7zm0,8h7v5h-7zm0,13h7v3h-7zm0,5h7v8h-7zm0,11h7v5h-7zm0,10h7v11h-7zm0,13h7v37h-7zm0,40h7v3h-7zm7,-198h6v3h-6zm0,19h6v7h-6zm0,13h6v8h-6zm0,10h6v64h-6zm0,66h6v11h-6zm0,14h6v2h-6zm0,10h6v11h-6zm0,16h6v13h-6zm0,16h6v24h-6zm0,26h6v11h-6zm6,-166h6v5h-6zm0,8h6v34h-6zm0,37h6v13h-6zm0,16h6v23h-6zm0,26h6v16h-6zm0,24h6v2h-6zm0,5h6v21h-6zm0,24h6v29h-6zm0,31h6v6h-6zm6,-187h6v3h-6zm0,5h6v3h-6zm0,8h6v5h-6zm0,8h6v3h-6zm0,5h6v64h-6zm0,66h6v3h-6zm0,6h6v26h-6zm0,29h6v16h-6zm0,18h6v8h-6zm0,13h6v14h-6zm0,16h6v3h-6zm0,6h6v5h-6zm6,-172h7v3h-7zm0,16h7v5h-7zm0,8h7v2h-7zm0,5h7v63h-7zm0,66h7v74h-7zm7,-90h6v3h-6zm0,13h6v8h-6zm0,11h6v121h-6zm0,124h6v13h-6zm6,-135h6v3h-6zm0,6h6v2h-6zm0,8h6v13h-6zm0,15h6v14h-6zm0,19h6v10h-6zm0,13h6v63h-6zm0,66h6v16h-6zm0,19h6v2h-6zm6,-146h6v3h-6zm0,16h6v8h-6zm0,11h6v21h-6zm0,24h6v13h-6zm0,15h6v51h-6zm0,56h6v10h-6zm0,13h6v3h-6zm6,-119h6v3h-6zm0,19h6v5h-6zm0,8h6v2h-6zm0,13h6v39h-6zm0,45h6v5h-6zm0,8h6v2h-6zm0,5h6v3h-6zm0,5h6v8h-6zm6,-119h7v3h-7zm0,35h7v2h-7zm0,16h7v2h-7zm0,5h7v5h-7zm0,13h7v5h-7zm0,11h7v2h-7zm0,5h7v10h-7zm0,16h7v5h-7zm0,13h7v3h-7zm7,-85h6v3h-6zm0,6h6v2h-6zm0,21h6v8h-6zm0,24h6v2h-6zm0,18h6v3h-6zm0,11h6v2h-6zm6,-98h6v3h-6zm0,5h6v3h-6zm0,11h6v2h-6zm0,24h6v2h-6zm0,5h6v2h-6zm0,16h6v2h-6zm6,-69h6v3h-6zm0,37h6v3h-6zm0,24h6v2h-6zm0,5h6v3h-6zm0,13h6v3h-6zm6,-84h7v2h-7zm0,10h7v6h-7zm0,8h7v3h-7zm0,6h7v5h-7zm0,13h7v2h-7zm0,5h7v8h-7zm0,13h7v5h-7zm0,11h7v5h-7zm0,13h7v5h-7zm0,158h7v3h-7zm7,-243h6v3h-6zm0,6h6v2h-6zm0,10h6v3h-6zm0,8h6v6h-6zm0,8h6v5h-6zm0,8h6v42h-6zm0,50h6v3h-6zm0,6h6v5h-6zm0,7h6v3h-6zm0,16h6v3h-6zm6,-145h6v3h-6zm0,8h6v3h-6zm0,13h6v5h-6zm0,8h6v19h-6zm0,21h6v87h-6zm0,90h6v3h-6zm0,13h6v3h-6zm6,-148h6v6h-6zm0,8h6v3h-6zm0,6h6v7h-6zm0,10h6v8h-6zm0,11h6v34h-6zm0,37h6v15h-6zm0,18h6v48h-6zm0,53h6v18h-6zm6,-140h7v18h-7zm0,21h7v87h-7zm0,90h7v50h-7zm7,-127h6v3h-6zm0,5h6v3h-6zm0,8h6v3h-6zm0,6h6v2h-6zm0,8h6v5h-6zm0,7h6v48h-6zm0,51h6v18h-6zm0,21h6v18h-6zm0,21h6v5h-6zm0,8h6v50h-6zm6,-132h6v2h-6zm0,8h6v8h-6zm0,16h6v13h-6zm0,15h6v29h-6zm0,32h6v13h-6zm0,16h6v5h-6zm0,8h6v2h-6zm0,5h6v16h-6zm0,19h6v2h-6zm0,10h6v3h-6zm0,11h6v13h-6zm0,16h6v2h-6zm0,5h6v5h-6zm0,8h6v21h-6zm6,-156h6v3h-6zm0,5h6v6h-6zm0,8h6v5h-6zm0,8h6v37h-6zm0,42h6v6h-6zm0,8h6v13h-6zm0,16h6v3h-6zm0,8h6v8h-6zm0,11h6v8h-6zm0,21h6v5h-6zm0,13h6v3h-6zm0,5h6v5h-6zm0,8h6v3h-6zm0,5h6v14h-6zm0,16h6v16h-6zm6,-179h6v2h-6zm0,8h6v52h-6zm0,58h6v5h-6zm0,8h6v2h-6zm0,5h6v18h-6zm0,24h6v5h-6zm0,13h6v5h-6zm0,16h6v2h-6zm0,16h6v5h-6zm0,7h6v8h-6zm0,11h6v32h-6zm0,34h6v3h-6zm6,-198h7v6h-7zm0,8h7v3h-7zm0,8h7v64h-7zm0,66h7v3h-7zm0,5h7v3h-7zm0,8h7v11h-7zm0,16h7v3h-7zm0,6h7v7h-7zm0,10h7v5h-7zm0,26h7v3h-7zm0,6h7v5h-7zm0,13h7v26h-7zm7,-174h6v5h-6zm0,8h6v8h-6zm0,10h6v8h-6zm0,11h6v2h-6zm0,5h6v29h-6zm0,32h6v5h-6zm0,13h6v3h-6zm0,5h6v5h-6zm0,11h6v2h-6zm0,5h6v8h-6zm0,19h6v2h-6zm0,5h6v2h-6zm0,13h6v5h-6zm0,8h6v3h-6zm0,10h6v6h-6zm0,8h6v3h-6zm0,6h6v8h-6zm0,10h6v24h-6zm6,-179h6v2h-6zm0,16h6v2h-6zm0,5h6v50h-6zm0,53h6v10h-6zm0,13h6v5h-6zm0,13h6v8h-6zm0,13h6v19h-6zm0,35h6v2h-6zm0,5h6v13h-6zm0,16h6v5h-6zm0,8h6v29h-6zm6,-193h6v3h-6zm0,13h6v5h-6zm0,13h6v56h-6zm0,58h6v8h-6zm0,11h6v13h-6zm0,18h6v3h-6zm0,6h6v5h-6zm0,10h6v3h-6zm0,6h6v5h-6zm0,7h6v8h-6zm0,11h6v5h-6zm0,11h6v5h-6zm0,7h6v6h-6zm0,8h6v45h-6zm6,-169h7v3h-7zm0,14h7v13h-7zm0,15h7v6h-7zm0,8h7v32h-7zm0,35h7v21h-7zm0,23h7v3h-7zm0,6h7v13h-7zm0,21h7v3h-7zm0,8h7v2h-7zm0,5h7v3h-7zm0,8h7v8h-7zm0,11h7v2h-7zm0,5h7v2h-7zm0,5h7v11h-7zm0,13h7v37h-7zm7,-169h6v6h-6zm0,14h6v44h-6zm0,47h6v32h-6zm0,34h6v8h-6zm0,11h6v3h-6zm0,8h6v5h-6zm0,8h6v2h-6zm0,5h6v8h-6zm0,13h6v3h-6zm0,6h6v13h-6zm0,15h6v6h-6zm0,8h6v27h-6zm0,29h6v6h-6zm6,-187h6v10h-6zm0,13h6v45h-6zm0,48h6v8h-6zm0,10h6v19h-6zm0,37h6v11h-6zm0,13h6v19h-6zm0,29h6v3h-6zm0,6h6v37h-6zm6,-169h6v2h-6zm0,10h6v16h-6zm0,19h6v39h-6zm0,45h6v8h-6zm0,10h6v5h-6zm0,8h6v3h-6zm0,5h6v6h-6zm0,8h6v8h-6zm0,14h6v2h-6zm0,7h6v3h-6zm0,6h6v5h-6zm0,8h6v2h-6zm0,5h6v13h-6zm0,16h6v8h-6zm0,10h6v3h-6zm0,6h6v15h-6zm0,18h6v3h-6zm0,8h6v3h-6zm6,-201h6v6h-6zm0,11h6v5h-6zm0,8h6v5h-6zm0,8h6v47h-6zm0,50h6v10h-6zm0,13h6v8h-6zm0,11h6v16h-6zm0,18h6v11h-6zm0,24h6v5h-6zm0,8h6v47h-6zm0,50h6v3h-6zm6,-195h7v2h-7zm0,8h7v7h-7zm0,10h7v48h-7zm0,50h7v6h-7zm0,8h7v3h-7zm0,8h7v13h-7zm0,16h7v29h-7zm0,32h7v63h-7zm7,-119h6v10h-6zm0,13h6v13h-6zm0,19h6v21h-6zm0,23h6v16h-6zm0,19h6v16h-6zm0,21h6v10h-6zm0,16h6v2h-6zm0,5h6v21h-6zm0,24h6v16h-6zm0,18h6v19h-6zm6,-156h6v3h-6zm0,6h6v5h-6zm0,8h6v50h-6zm0,52h6v11h-6zm0,14h6v5h-6zm0,8h6v15h-6zm0,18h6v5h-6zm0,11h6v5h-6zm0,8h6v18h-6zm0,21h6v23h-6zm0,26h6v3h-6zm6,-208h6v2h-6zm0,31h6v3h-6zm0,8h6v5h-6zm0,8h6v19h-6zm0,21h6v27h-6zm0,29h6v3h-6zm0,5h6v14h-6zm0,16h6v11h-6zm0,14h6v10h-6zm0,13h6v18h-6zm0,21h6v34h-6zm0,37h6v2h-6zm0,5h6v3h-6zm6,-177h7v11h-7zm0,16h7v11h-7zm0,13h7v103h-7zm0,106h7v13h-7zm0,16h7v8h-7zm0,10h7v19h-7zm7,-166h6v3h-6zm0,16h6v2h-6zm0,10h6v40h-6zm0,43h6v100h-6zm0,103h6v2h-6zm6,-164h6v2h-6zm0,8h6v2h-6zm0,5h6v3h-6zm0,8h6v3h-6zm0,5h6v3h-6zm0,6h6v2h-6zm0,7h6v11h-6zm0,14h6v79h-6zm0,81h6v24h-6zm0,30h6v2h-6zm6,-172h6v8h-6zm0,24h6v8h-6zm0,10h6v6h-6zm0,8h6v77h-6zm0,79h6v45h-6zm6,-108h7v3h-7zm0,5h7v8h-7zm0,14h7v5h-7zm0,8h7v95h-7zm0,97h7v19h-7zm0,21h7v3h-7zm0,11h7v3h-7zm7,-153h6v2h-6zm0,10h6v3h-6zm0,19h6v16h-6zm0,18h6v11h-6zm0,16h6v5h-6zm0,8h6v5h-6zm0,8h6v5h-6zm0,8h6v3h-6zm0,5h6v13h-6zm0,16h6v5h-6zm0,8h6v16h-6zm0,24h6v2h-6zm6,-106h6v3h-6zm0,11h6v2h-6zm0,5h6v3h-6zm0,10h6v8h-6zm0,14h6v2h-6zm0,13h6v8h-6zm0,13h6v3h-6zm0,5h6v3h-6zm0,6h6v5h-6zm0,8h6v2h-6zm0,15h6v3h-6zm6,-110h6v2h-6zm0,7h6v3h-6zm0,16h6v6h-6zm0,8h6v8h-6zm0,13h6v3h-6zm0,6h6v5h-6zm0,10h6v3h-6zm0,13h6v3h-6zm6,-71h6v3h-6zm0,8h6v3h-6zm0,8h6v3h-6zm0,11h6v2h-6zm0,5h6v2h-6zm6,24h7v2h-7zm7,-51h6v3h-6zm0,19h6v3h-6zm0,42h6v3h-6zm6,-95h6v3h-6zm0,27h6v2h-6zm0,10h6v3h-6zm0,5h6v3h-6zm0,37h6v3h-6zm6,-71h6v3h-6zm0,16h6v3h-6zm0,8h6v2h-6zm0,10h6v6h-6zm0,11h6v8h-6zm0,13h6v3h-6zm0,13h6v6h-6zm0,11h6v10h-6zm0,18h6v6h-6zm6,-134h7v2h-7zm0,18h7v3h-7zm0,13h7v11h-7zm0,14h7v2h-7zm0,8h7v15h-7zm0,18h7v24h-7zm0,26h7v6h-7zm0,11h7v3h-7zm0,5h7v11h-7zm0,13h7v3h-7zm0,8h7v6h-7zm0,8h7v3h-7zm7,-132h6v3h-6zm0,8h6v3h-6zm0,16h6v8h-6zm0,11h6v58h-6zm0,63h6v21h-6zm0,24h6v13h-6zm0,16h6v5h-6zm0,13h6v2h-6zm6,-153h6v2h-6zm0,8h6v7h-6zm0,13h6v39h-6zm0,42h6v50h-6zm0,53h6v26h-6zm0,29h6v8h-6zm0,10h6v6h-6zm6,-161h6v3h-6zm0,21h6v6h-6zm0,8h6v29h-6zm0,32h6v19h-6zm0,21h6v13h-6zm0,16h6v8h-6zm0,13h6v13h-6zm0,16h6v37h-6zm0,40h6v13h-6zm6,-169h7v2h-7zm0,16h7v2h-7zm0,10h7v50h-7zm0,53h7v8h-7zm0,13h7v16h-7zm0,21h7v8h-7zm0,11h7v50h-7zm0,53h7v5h-7zm7,-154h6v3h-6zm0,8h6v98h-6zm0,103h6v3h-6zm0,6h6v18h-6zm0,23h6v22h-6zm0,24h6v8h-6zm6,-177h6v3h-6zm0,11h6v2h-6zm0,5h6v79h-6zm0,82h6v11h-6zm0,13h6v5h-6zm0,8h6v8h-6zm0,16h6v18h-6zm0,21h6v29h-6zm6,-164h6v6h-6zm0,21h6v6h-6zm0,14h6v45h-6zm0,47h6v8h-6zm0,11h6v18h-6zm0,21h6v10h-6zm0,13h6v11h-6zm0,13h6v29h-6zm0,32h6v18h-6zm0,21h6v3h-6zm6,-185h6v6h-6zm0,8h6v8h-6zm0,11h6v10h-6zm0,16h6v47h-6zm0,50h6v5h-6zm0,8h6v23h-6zm0,26h6v5h-6zm0,8h6v3h-6zm0,5h6v3h-6zm0,6h6v7h-6zm0,13h6v39h-6zm6,-159h7v3h-7zm0,11h7v3h-7zm0,10h7v6h-7zm0,8h7v51h-7zm0,56h7v5h-7zm0,8h7v24h-7zm0,26h7v37h-7zm0,45h7v34h-7zm0,37h7v3h-7zm7,-187h6v2h-6zm0,10h6v77h-6zm0,79h6v14h-6zm0,19h6v2h-6zm0,10h6v3h-6zm0,6h6v10h-6zm0,13h6v5h-6zm0,10h6v40h-6zm6,-142h6v10h-6zm0,13h6v50h-6zm0,53h6v21h-6zm0,26h6v6h-6zm0,8h6v11h-6zm0,13h6v8h-6zm0,14h6v5h-6zm0,7h6v22h-6zm0,24h6v24h-6zm0,29h6v3h-6zm6,-190h6v8h-6zm0,13h6v53h-6zm0,56h6v13h-6zm0,16h6v21h-6zm0,23h6v8h-6zm0,11h6v3h-6zm0,5h6v6h-6zm0,8h6v3h-6zm0,5h6v48h-6zm0,51h6v2h-6zm6,-183h7v6h-7zm0,8h7v6h-7zm0,8h7v35h-7zm0,37h7v35h-7zm0,37h7v6h-7zm0,11h7v2h-7zm0,5h7v24h-7zm0,26h7v14h-7zm0,16h7v35h-7zm7,-158h6v3h-6zm0,5h6v3h-6zm0,5h6v3h-6zm0,6h6v74h-6zm0,76h6v6h-6zm0,8h6v8h-6zm0,11h6v26h-6zm0,29h6v13h-6zm0,16h6v26h-6zm0,29h6v10h-6zm6,-180h6v3h-6zm0,11h6v2h-6zm0,5h6v61h-6zm0,63h6v29h-6zm0,32h6v3h-6zm0,8h6v63h-6zm0,66h6v3h-6zm6,-185h6v3h-6zm0,5h6v8h-6zm0,11h6v82h-6zm0,85h6v7h-6zm0,15h6v6h-6zm0,8h6v3h-6zm0,6h6v29h-6zm0,31h6v24h-6zm6,-182h7v3h-7zm0,32h7v90h-7zm0,95h7v68h-7zm0,71h7v8h-7zm7,-177h6v3h-6zm0,5h6v3h-6zm0,6h6v8h-6zm0,10h6v16h-6zm0,19h6v95h-6zm0,97h6v6h-6zm0,8h6v35h-6zm0,37h6v6h-6zm6,-177h6v6h-6zm0,8h6v69h-6zm0,72h6v79h-6zm0,82h6v10h-6zm6,-167h6v3h-6zm0,16h6v11h-6zm0,13h6v77h-6zm0,79h6v14h-6zm0,16h6v11h-6zm0,16h6v16h-6zm0,21h6v11h-6zm0,13h6v3h-6zm6,-174h6v3h-6zm0,11h6v2h-6zm0,5h6v32h-6zm0,34h6v11h-6zm0,14h6v47h-6zm0,50h6v13h-6zm0,16h6v23h-6zm0,26h6v3h-6zm0,5h6v13h-6zm6,-158h7v2h-7zm0,5h7v8h-7zm0,11h7v5h-7zm0,13h7v10h-7zm0,13h7v82h-7zm0,85h7v42h-7zm7,-135h6v3h-6zm0,21h6v3h-6zm0,8h6v5h-6zm0,13h6v3h-6zm0,5h6v6h-6zm0,8h6v3h-6zm0,6h6v81h-6zm0,84h6v8h-6zm0,11h6v13h-6zm6,-151h6v3h-6zm0,27h6v2h-6zm0,5h6v5h-6zm0,8h6v5h-6zm0,8h6v18h-6zm0,21h6v2h-6zm0,5h6v8h-6zm0,11h6v37h-6zm0,39h6v11h-6zm0,13h6v6h-6zm0,8h6v3h-6zm6,-158h6v3h-6zm0,32h6v2h-6zm0,23h6v3h-6zm0,16h6v8h-6zm0,13h6v11h-6zm0,14h6v8h-6zm0,13h6v5h-6zm0,10h6v8h-6zm0,11h6v8h-6zm0,11h6v2h-6zm0,5h6v2h-6zm0,13h6v3h-6zm0,5h6v3h-6zm6,-124h7v3h-7zm0,11h7v2h-7zm0,18h7v3h-7zm0,6h7v2h-7zm0,10h7v3h-7zm0,8h7v5h-7zm0,8h7v18h-7zm0,29h7v8h-7zm0,13h7v3h-7zm0,8h7v3h-7zm7,-100h6v2h-6zm0,13h6v5h-6zm0,18h6v3h-6zm0,16h6v8h-6zm0,11h6v3h-6zm0,13h6v3h-6zm6,-61h6v3h-6zm0,24h6v3h-6zm12,-37h7v3h-7zm0,24h7v3h-7zm7,-8h6v3h-6zm6,-21h6v3h-6zm0,8h6v5h-6zm0,13h6v3h-6zm0,5h6v3h-6zm0,6h6v2h-6zm6,-45h6v2h-6zm0,5h6v5h-6zm0,8h6v3h-6zm0,10h6v8h-6zm0,14h6v2h-6zm0,5h6v5h-6zm0,8h6v5h-6zm0,16h6v5h-6zm0,8h6v5h-6zm0,15h6v3h-6zm6,-113h6v8h-6zm0,13h6v5h-6zm0,13h6v11h-6zm0,16h6v8h-6zm0,11h6v23h-6zm0,26h6v32h-6zm0,34h6v14h-6zm0,19h6v3h-6zm6,-135h7v3h-7zm0,6h7v2h-7zm0,7h7v3h-7zm0,6h7v2h-7zm0,5h7v79h-7zm0,82h7v26h-7zm0,32h7v10h-7zm0,18h7v3h-7zm7,-174h6v2h-6zm0,24h6v2h-6zm0,5h6v5h-6zm0,8h6v2h-6zm0,5h6v3h-6zm0,5h6v3h-6zm0,6h6v13h-6zm0,15h6v106h-6zm6,-50h6v3h-6zm0,13h6v3h-6zm0,6h6v2h-6zm0,5h6v5h-6zm0,13h6v3h-6zm0,6h6v76h-6zm0,79h6v42h-6zm0,45h6v2h-6zm6,-161h6v2h-6zm0,10h6v3h-6zm0,5h6v90h-6zm0,93h6v45h-6zm0,47h6v8h-6zm6,-161h7v3h-7zm0,6h7v2h-7zm0,7h7v6h-7zm0,8h7v66h-7zm0,69h7v11h-7zm0,13h7v11h-7zm0,13h7v6h-7zm0,11h7v8h-7zm0,11h7v5h-7zm0,7h7v3h-7zm0,8h7v3h-7zm0,6h7v16h-7zm7,-161h6v2h-6zm0,13h6v50h-6zm0,53h6v34h-6zm0,37h6v2h-6zm0,5h6v16h-6zm0,18h6v8h-6zm0,14h6v37h-6zm0,44h6v3h-6zm6,-190h6v3h-6zm0,6h6v2h-6zm0,5h6v3h-6zm0,5h6v5h-6zm0,8h6v5h-6zm0,8h6v58h-6zm0,61h6v34h-6zm0,37h6v5h-6zm0,10h6v11h-6zm0,13h6v32h-6zm0,35h6v2h-6zm6,-196h6v3h-6zm0,6h6v2h-6zm0,21h6v2h-6zm0,8h6v47h-6zm0,50h6v13h-6zm0,16h6v42h-6zm0,45h6v2h-6zm0,5h6v8h-6zm0,10h6v27h-6zm0,30h6v18h-6zm6,-183h7v8h-7zm0,14h7v15h-7zm0,18h7v58h-7zm0,61h7v13h-7zm0,18h7v3h-7zm0,8h7v5h-7zm0,8h7v53h-7zm0,56h7v10h-7zm0,13h7v2h-7zm0,5h7v5h-7zm7,-187h6v2h-6zm0,5h6v5h-6zm0,8h6v29h-6zm0,31h6v45h-6zm0,48h6v11h-6zm0,13h6v13h-6zm0,19h6v50h-6zm0,52h6v6h-6zm0,8h6v3h-6zm0,8h6v3h-6zm6,-200h6v2h-6zm0,13h6v8h-6zm0,10h6v3h-6zm0,6h6v63h-6zm0,66h6v8h-6zm0,10h6v3h-6zm0,6h6v15h-6zm0,18h6v53h-6zm0,58h6v8h-6zm6,-177h6v90h-6zm0,93h6v39h-6zm0,42h6v37h-6zm0,42h6v5h-6zm0,8h6v3h-6zm6,-203h6v2h-6zm0,8h6v2h-6zm0,5h6v8h-6zm0,10h6v61h-6zm0,64h6v24h-6zm0,26h6v8h-6zm0,11h6v16h-6zm0,18h6v13h-6zm0,16h6v42h-6zm6,-150h7v2h-7zm0,8h7v5h-7zm0,13h7v2h-7zm0,8h7v26h-7zm0,29h7v66h-7zm0,68h7v11h-7zm0,14h7v2h-7zm0,5h7v32h-7zm0,34h7v3h-7zm0,11h7v2h-7zm7,-193h6v5h-6zm0,8h6v13h-6zm0,16h6v8h-6zm0,13h6v69h-6zm0,71h6v3h-6zm0,6h6v5h-6zm0,7h6v6h-6zm0,8h6v24h-6zm0,27h6v21h-6zm0,24h6v5h-6zm0,7h6v8h-6zm0,14h6v2h-6zm6,-188h6v3h-6zm0,8h6v11h-6zm0,13h6v11h-6zm0,14h6v73h-6zm0,76h6v24h-6zm0,26h6v19h-6zm0,24h6v3h-6zm0,6h6v7h-6zm0,13h6v2h-6zm6,-188h6v3h-6zm0,6h6v2h-6zm0,7h6v3h-6zm0,11h6v11h-6zm0,13h6v56h-6zm0,58h6v35h-6zm0,37h6v40h-6zm0,45h6v3h-6zm0,11h6v2h-6zm6,-188h7v3h-7zm0,13h7v72h-7zm0,74h7v27h-7zm0,29h7v56h-7zm0,64h7v2h-7zm0,10h7v3h-7zm7,-182h6v3h-6zm0,5h6v6h-6zm0,8h6v6h-6zm0,8h6v3h-6zm0,6h6v2h-6zm0,5h6v16h-6zm0,18h6v74h-6zm0,77h6v26h-6zm0,29h6v3h-6zm0,8h6v3h-6zm0,16h6v2h-6zm6,-196h6v3h-6zm0,19h6v8h-6zm0,10h6v22h-6zm0,27h6v10h-6zm0,13h6v18h-6zm0,21h6v77h-6zm0,79h6v3h-6zm0,6h6v2h-6zm0,18h6v3h-6zm6,-158h6v2h-6zm0,10h6v3h-6zm0,6h6v116h-6zm0,118h6v6h-6zm0,14h6v2h-6zm6,-159h7v3h-7zm0,8h7v3h-7zm0,8h7v3h-7zm0,5h7v8h-7zm0,11h7v13h-7zm0,16h7v2h-7zm0,5h7v26h-7zm0,29h7v5h-7zm0,8h7v50h-7zm0,55h7v3h-7zm7,-155h6v2h-6zm0,29h6v2h-6zm0,5h6v10h-6zm0,13h6v11h-6zm0,13h6v6h-6zm0,8h6v29h-6zm0,32h6v8h-6zm0,10h6v32h-6zm0,37h6v8h-6zm6,-129h6v3h-6zm0,16h6v3h-6zm0,10h6v14h-6zm0,16h6v3h-6zm0,11h6v2h-6zm0,5h6v21h-6zm0,24h6v16h-6zm0,18h6v24h-6zm0,29h6v3h-6zm0,8h6v3h-6zm6,-118h6v2h-6zm0,5h6v5h-6zm0,10h6v3h-6zm0,8h6v6h-6zm0,11h6v2h-6zm0,5h6v21h-6zm0,24h6v5h-6zm0,8h6v2h-6zm0,5h6v11h-6zm0,16h6v5h-6zm6,-132h6v5h-6zm0,63h6v3h-6zm0,6h6v7h-6zm0,21h6v8h-6zm0,10h6v6h-6zm0,11h6v2h-6zm0,5h6v3h-6zm0,11h6v2h-6zm0,5h6v3h-6zm6,-95h7v3h-7zm0,26h7v3h-7zm0,16h7v5h-7zm0,27h7v2h-7zm13,-40h6v3h-6zm6,-24h6v3h-6zm0,37h6v3h-6zm6,-58h7v3h-7zm0,5h7v3h-7zm0,11h7v3h-7zm0,5h7v11h-7zm0,24h7v3h-7zm0,5h7v3h-7zm7,-53h6v3h-6zm0,16h6v3h-6zm0,8h6v11h-6zm0,13h6v3h-6zm0,6h6v2h-6zm0,5h6v5h-6zm0,8h6v2h-6zm0,5h6v19h-6zm0,21h6v3h-6zm0,8h6v5h-6zm0,11h6v8h-6zm0,18h6v3h-6zm6,-116h6v3h-6zm0,5h6v3h-6zm0,6h6v8h-6zm0,10h6v29h-6zm0,32h6v8h-6zm0,10h6v14h-6zm0,16h6v8h-6zm0,11h6v10h-6zm0,13h6v3h-6zm0,8h6v3h-6zm6,-111h6v13h-6zm0,16h6v87h-6zm0,90h6v10h-6zm0,13h6v5h-6zm6,-137h7v7h-7zm0,13h7v71h-7zm0,74h7v50h-7zm0,52h7v8h-7zm0,11h7v8h-7zm7,-150h6v2h-6zm0,5h6v2h-6zm0,5h6v5h-6zm0,8h6v55h-6zm0,58h6v29h-6zm0,32h6v50h-6zm6,-103h6v2h-6zm0,8h6v55h-6zm0,58h6v5h-6zm0,8h6v21h-6zm0,24h6v10h-6zm0,13h6v2h-6zm0,5h6v8h-6zm0,11h6v2h-6zm0,5h6v39h-6zm6,-145h6v2h-6zm0,18h6v3h-6zm0,5h6v43h-6zm0,45h6v35h-6zm0,40h6v13h-6zm0,16h6v8h-6zm0,10h6v3h-6zm0,6h6v2h-6zm0,5h6v34h-6zm0,37h6v2h-6zm6,-196h6v3h-6zm0,24h6v8h-6zm0,11h6v5h-6zm0,10h6v19h-6zm0,21h6v19h-6zm0,22h6v18h-6zm0,23h6v21h-6zm0,27h6v10h-6zm0,16h6v10h-6zm0,13h6v10h-6zm0,13h6v16h-6zm0,21h6v5h-6zm6,-179h7v13h-7zm0,15h7v29h-7zm0,32h7v37h-7zm0,40h7v8h-7zm0,10h7v13h-7zm0,19h7v5h-7zm0,10h7v11h-7zm0,13h7v3h-7zm0,6h7v13h-7zm0,16h7v2h-7zm0,5h7v24h-7zm7,-177h6v3h-6zm0,11h6v2h-6zm0,5h6v2h-6zm0,8h6v2h-6zm0,5h6v8h-6zm0,11h6v8h-6zm0,10h6v34h-6zm0,37h6v24h-6zm0,29h6v3h-6zm0,5h6v3h-6zm0,6h6v5h-6zm0,8h6v5h-6zm0,8h6v2h-6zm0,5h6v16h-6zm0,18h6v32h-6zm6,-155h6v2h-6zm0,7h6v3h-6zm0,6h6v79h-6zm0,82h6v5h-6zm0,10h6v3h-6zm0,8h6v5h-6zm0,11h6v2h-6zm0,5h6v8h-6zm0,10h6v8h-6zm0,11h6v37h-6zm6,-156h6v3h-6zm0,11h6v2h-6zm0,8h6v2h-6zm0,5h6v13h-6zm0,16h6v71h-6zm0,76h6v6h-6zm0,11h6v3h-6zm0,13h6v3h-6zm0,5h6v3h-6zm0,6h6v2h-6zm0,5h6v13h-6zm0,16h6v21h-6zm6,-174h7v2h-7zm0,5h7v3h-7zm0,5h7v3h-7zm0,5h7v3h-7zm0,6h7v8h-7zm0,10h7v37h-7zm0,40h7v10h-7zm0,13h7v11h-7zm0,21h7v32h-7zm0,35h7v2h-7zm0,5h7v5h-7zm0,8h7v42h-7zm7,-148h6v3h-6zm0,5h6v3h-6zm0,8h6v5h-6zm0,11h6v60h-6zm0,63h6v8h-6zm0,11h6v8h-6zm0,15h6v3h-6zm0,6h6v2h-6zm0,5h6v5h-6zm0,11h6v26h-6zm0,29h6v23h-6zm0,29h6v2h-6zm6,-198h6v2h-6zm0,8h6v2h-6zm0,7h6v3h-6zm0,6h6v71h-6zm0,76h6v14h-6zm0,16h6v5h-6zm0,8h6v8h-6zm0,11h6v8h-6zm0,10h6v3h-6zm0,5h6v48h-6zm6,-126h6v5h-6zm0,8h6v2h-6zm0,5h6v11h-6zm0,13h6v34h-6zm0,40h6v10h-6zm0,13h6v34h-6zm0,37h6v13h-6zm0,16h6v42h-6zm6,-135h6v3h-6zm0,5h6v8h-6zm0,11h6v3h-6zm0,5h6v56h-6zm0,61h6v3h-6zm0,5h6v3h-6zm0,6h6v7h-6zm0,10h6v13h-6zm0,16h6v5h-6zm0,8h6v50h-6zm6,-140h7v3h-7zm0,10h7v3h-7zm0,8h7v69h-7zm0,72h7v31h-7zm0,37h7v5h-7zm0,8h7v15h-7zm0,18h7v29h-7zm7,-150h6v2h-6zm0,7h6v3h-6zm0,8h6v48h-6zm0,51h6v13h-6zm0,18h6v5h-6zm0,8h6v29h-6zm0,34h6v13h-6zm0,16h6v8h-6zm0,11h6v13h-6zm0,16h6v2h-6zm0,5h6v2h-6zm0,5h6v3h-6zm6,-169h6v3h-6zm0,8h6v11h-6zm0,13h6v27h-6zm0,29h6v6h-6zm0,8h6v37h-6zm0,40h6v66h-6zm0,68h6v3h-6zm6,-158h6v77h-6zm0,79h6v16h-6zm0,19h6v63h-6zm6,-103h7v10h-7zm0,16h7v8h-7zm0,10h7v56h-7zm0,58h7v74h-7zm0,77h7v2h-7zm7,-153h6v2h-6zm0,5h6v119h-6zm0,121h6v3h-6zm0,6h6v18h-6zm0,23h6v3h-6zm6,-166h6v3h-6zm0,19h6v2h-6zm0,5h6v87h-6zm0,90h6v34h-6zm0,37h6v8h-6zm6,-151h6v3h-6zm0,8h6v3h-6zm0,8h6v3h-6zm0,8h6v5h-6zm0,8h6v2h-6zm0,5h6v5h-6zm0,8h6v3h-6zm0,5h6v37h-6zm0,40h6v34h-6zm0,37h6v13h-6zm0,16h6v8h-6zm0,18h6v3h-6zm6,-142h7v2h-7zm0,10h7v8h-7zm0,13h7v8h-7zm0,11h7v3h-7zm0,5h7v5h-7zm0,8h7v8h-7zm0,11h7v10h-7zm0,16h7v5h-7zm0,7h7v19h-7zm0,22h7v18h-7zm0,21h7v2h-7zm0,8h7v2h-7zm7,-117h6v6h-6zm0,16h6v3h-6zm0,6h6v2h-6zm0,10h6v19h-6zm0,24h6v10h-6zm0,13h6v3h-6zm0,11h6v5h-6zm0,8h6v2h-6zm0,5h6v5h-6zm0,13h6v3h-6zm0,8h6v3h-6zm6,-116h6v2h-6zm0,16h6v5h-6zm0,10h6v5h-6zm0,8h6v3h-6zm0,5h6v6h-6zm0,11h6v5h-6zm0,8h6v3h-6zm0,18h6v3h-6zm0,8h6v6h-6zm6,-31h6v8h-6zm0,10h6v3h-6zm6,-71h6v3h-6zm0,37h6v2h-6zm0,37h6v2h-6zm6,-61h7v3h-7zm7,-8h6v5h-6zm0,37h6v3h-6zm6,-63h6v2h-6zm6,-8h6v2h-6zm0,24h6v2h-6zm0,8h6v2h-6zm0,5h6v2h-6zm0,5h6v16h-6zm0,19h6v13h-6zm0,18h6v3h-6zm0,5h6v8h-6zm0,11h6v5h-6zm6,-111h7v3h-7zm0,45h7v3h-7zm0,5h7v71h-7zm0,74h7v3h-7zm0,16h7v3h-7zm7,-140h6v3h-6zm0,16h6v8h-6zm0,10h6v3h-6zm0,6h6v92h-6zm0,95h6v23h-6zm0,34h6v3h-6zm6,-150h6v2h-6zm0,10h6v3h-6zm0,11h6v121h-6zm0,124h6v2h-6zm6,-140h6v95h-6zm0,100h6v53h-6zm0,56h6v2h-6zm0,5h6v3h-6zm6,-180h7v3h-7zm0,8h7v3h-7zm0,11h7v2h-7zm0,8h7v2h-7zm0,5h7v29h-7zm0,32h7v42h-7zm0,47h7v6h-7zm0,11h7v2h-7zm0,5h7v5h-7zm0,8h7v48h-7zm0,50h7v3h-7zm7,-177h6v3h-6zm0,8h6v5h-6zm0,8h6v61h-6zm0,63h6v3h-6zm0,6h6v2h-6zm0,5h6v5h-6zm0,8h6v18h-6zm0,24h6v5h-6zm0,21h6v8h-6zm0,10h6v29h-6zm6,-147h6v2h-6zm0,5h6v5h-6zm0,8h6v58h-6zm0,60h6v11h-6zm0,14h6v2h-6zm0,5h6v21h-6zm0,29h6v13h-6zm0,16h6v5h-6zm0,8h6v2h-6zm0,5h6v8h-6zm0,11h6v15h-6zm0,18h6v3h-6zm0,5h6v3h-6zm6,-184h6v2h-6zm0,5h6v5h-6zm0,8h6v68h-6zm0,71h6v5h-6zm0,8h6v3h-6zm0,5h6v3h-6zm0,6h6v2h-6zm0,5h6v8h-6zm0,10h6v8h-6zm0,11h6v3h-6zm0,8h6v5h-6zm0,8h6v2h-6zm0,8h6v2h-6zm0,5h6v29h-6zm6,-169h6v3h-6zm0,8h6v3h-6zm0,10h6v6h-6zm0,8h6v45h-6zm0,48h6v16h-6zm0,18h6v6h-6zm0,8h6v8h-6zm0,11h6v3h-6zm0,5h6v5h-6zm0,11h6v10h-6zm0,16h6v2h-6zm0,7h6v22h-6zm0,24h6v16h-6zm0,19h6v2h-6zm0,5h6v3h-6zm6,-190h7v3h-7zm0,5h7v3h-7zm0,8h7v58h-7zm0,61h7v21h-7zm0,26h7v8h-7zm0,13h7v3h-7zm0,6h7v8h-7zm0,13h7v3h-7zm0,5h7v16h-7zm0,19h7v8h-7zm0,10h7v29h-7zm7,-171h6v2h-6zm0,15h6v8h-6zm0,11h6v5h-6zm0,8h6v61h-6zm0,63h6v14h-6zm0,16h6v11h-6zm0,13h6v16h-6zm0,19h6v18h-6zm0,21h6v32h-6zm6,-164h6v3h-6zm0,13h6v6h-6zm0,11h6v40h-6zm0,42h6v8h-6zm0,11h6v18h-6zm0,24h6v2h-6zm0,5h6v5h-6zm0,8h6v2h-6zm0,13h6v11h-6zm0,16h6v2h-6zm0,8h6v10h-6zm0,13h6v18h-6zm0,21h6v8h-6zm6,-179h6v2h-6zm0,7h6v3h-6zm0,6h6v2h-6zm0,5h6v58h-6zm0,66h6v3h-6zm0,5h6v8h-6zm0,14h6v2h-6zm0,5h6v5h-6zm0,8h6v34h-6zm0,37h6v2h-6zm0,5h6v34h-6zm6,-161h7v5h-7zm0,13h7v66h-7zm0,69h7v5h-7zm0,8h7v5h-7zm0,8h7v15h-7zm0,18h7v13h-7zm0,16h7v32h-7zm0,34h7v24h-7zm7,-150h6v5h-6zm0,8h6v2h-6zm0,5h6v50h-6zm0,53h6v10h-6zm0,13h6v8h-6zm0,11h6v7h-6zm0,13h6v2h-6zm0,5h6v5h-6zm0,8h6v26h-6zm0,29h6v21h-6zm0,24h6v2h-6zm6,-198h6v2h-6zm0,10h6v3h-6zm0,6h6v2h-6zm0,5h6v2h-6zm0,5h6v69h-6zm0,71h6v6h-6zm0,8h6v11h-6zm0,14h6v34h-6zm0,39h6v42h-6zm0,48h6v2h-6zm6,-196h6v6h-6zm0,8h6v3h-6zm0,11h6v2h-6zm0,5h6v48h-6zm0,50h6v19h-6zm0,21h6v3h-6zm0,6h6v8h-6zm0,10h6v8h-6zm0,11h6v8h-6zm0,10h6v3h-6zm0,6h6v52h-6zm6,-132h7v2h-7zm0,5h7v2h-7zm0,5h7v3h-7zm0,5h7v22h-7zm0,24h7v50h-7zm0,53h7v16h-7zm0,18h7v6h-7zm0,14h7v58h-7zm7,-130h6v6h-6zm0,13h6v8h-6zm0,14h6v5h-6zm0,8h6v60h-6zm0,63h6v45h-6zm0,47h6v37h-6zm0,43h6v2h-6zm6,-177h6v5h-6zm0,10h6v11h-6zm0,14h6v2h-6zm0,5h6v45h-6zm0,47h6v6h-6zm0,8h6v8h-6zm0,11h6v3h-6zm0,8h6v2h-6zm0,5h6v63h-6z"
             id="path12" />
          <path
             fill="#1171d8"
             d="M0,346h6v2h-6zm0,18h6v3h-6zm0,8h6v3h-6zm0,32h6v3h-6zM25,525h6v3h-6zm6,0h6v3h-6zM100,306h6v3h-6zm0,11h6v2h-6zm0,21h6v3h-6zm0,5h6v3h-6zm0,13h6v3h-6zm0,6h6v8h-6zm0,13h6v5h-6zm0,8h6v2h-6zm0,8h6v2h-6zm6,-82h6v3h-6zm0,21h6v3h-6zm0,5h6v3h-6zm0,11h6v2h-6zm0,8h6v5h-6zm0,13h6v3h-6zm0,5h6v3h-6zm0,6h6v7h-6zm0,21h6v5h-6zm0,13h6v2h-6zm6,-85h6v3h-6zm0,6h6v5h-6zm0,10h6v3h-6zm0,8h6v3h-6zm0,8h6v8h-6zm0,11h6v5h-6zm0,8h6v2h-6zm0,5h6v8h-6zm0,10h6v11h-6zm0,14h6v5h-6zm6,-77h7v3h-7zm0,8h7v3h-7zm0,8h7v2h-7zm0,5h7v5h-7zm0,8h7v3h-7zm0,5h7v16h-7zm0,19h7v2h-7zm0,5h7v3h-7zm0,5h7v11h-7zm0,14h7v2h-7zm0,5h7v2h-7zm0,5h7v3h-7zm0,8h7v3h-7zm0,8h7v3h-7zm7,-106h6v6h-6zm0,8h6v3h-6zm0,8h6v3h-6zm0,5h6v8h-6zm0,14h6v5h-6zm0,8h6v5h-6zm0,8h6v2h-6zm0,5h6v10h-6zm0,16h6v5h-6zm0,10h6v11h-6zm0,13h6v8h-6zm6,-118h6v2h-6zm0,21h6v5h-6zm0,8h6v5h-6zm0,15h6v3h-6zm0,6h6v16h-6zm0,18h6v8h-6zm0,11h6v5h-6zm0,8h6v10h-6zm0,16h6v2h-6zm0,5h6v8h-6zm0,13h6v3h-6zm0,8h6v3h-6zm6,-121h6v2h-6zm0,5h6v2h-6zm0,13h6v5h-6zm0,8h6v8h-6zm0,13h6v3h-6zm0,8h6v5h-6zm0,8h6v13h-6zm0,16h6v2h-6zm0,5h6v24h-6zm0,29h6v3h-6zm0,5h6v3h-6zm0,6h6v2h-6zm0,5h6v3h-6zm6,-124h7v3h-7zm0,16h7v5h-7zm0,16h7v5h-7zm0,7h7v8h-7zm0,11h7v8h-7zm0,13h7v8h-7zm0,11h7v10h-7zm0,13h7v3h-7zm0,5h7v3h-7zm0,11h7v2h-7zm0,5h7v5h-7zm7,-66h6v5h-6zm0,8h6v3h-6zm0,5h6v6h-6zm0,14h6v13h-6zm0,15h6v6h-6zm0,11h6v10h-6zm0,18h6v3h-6zm0,6h6v2h-6zm0,5h6v5h-6zm6,-116h6v2h-6zm0,16h6v8h-6zm0,10h6v3h-6zm0,5h6v6h-6zm0,8h6v3h-6zm0,8h6v3h-6zm0,6h6v15h-6zm0,18h6v3h-6zm0,5h6v6h-6zm0,8h6v3h-6zm0,6h6v5h-6zm0,7h6v3h-6zm0,19h6v3h-6zm0,11h6v2h-6zm6,-125h6v3h-6zm0,22h6v2h-6zm0,5h6v5h-6zm0,8h6v2h-6zm0,5h6v3h-6zm0,5h6v8h-6zm0,11h6v13h-6zm0,18h6v11h-6zm0,14h6v5h-6zm0,10h6v5h-6zm6,-92h6v2h-6zm0,5h6v3h-6zm0,11h6v5h-6zm0,10h6v3h-6zm0,8h6v3h-6zm0,5h6v6h-6zm0,11h6v3h-6zm0,10h6v3h-6zm0,11h6v3h-6zm0,11h6v2h-6zm0,5h6v8h-6zm0,10h6v6h-6zm0,16h6v3h-6zm6,-134h7v2h-7zm0,18h7v3h-7zm0,16h7v3h-7zm0,18h7v11h-7zm0,16h7v3h-7zm0,6h7v2h-7zm0,15h7v3h-7zm0,8h7v3h-7zm0,13h7v3h-7zm0,11h7v3h-7zm7,-92h6v2h-6zm0,8h6v2h-6zm0,7h6v3h-6zm0,8h6v3h-6zm0,6h6v10h-6zm0,13h6v10h-6zm0,13h6v3h-6zm0,5h6v14h-6zm0,16h6v8h-6zm0,13h6v3h-6zm0,8h6v3h-6zm0,6h6v2h-6zm6,-103h6v2h-6zm0,21h6v2h-6zm0,8h6v2h-6zm0,8h6v2h-6zm0,5h6v10h-6zm0,18h6v11h-6zm0,14h6v2h-6zm0,15h6v3h-6zm6,-50h6v6h-6zm0,8h6v5h-6zm0,8h6v5h-6zm0,11h6v2h-6zm6,-66h7v2h-7zm0,18h7v3h-7zm0,8h7v3h-7zm0,8h7v8h-7zm0,11h7v2h-7zm0,10h7v3h-7zm0,8h7v5h-7zm0,16h7v2h-7zm7,-50h6v2h-6zm0,13h6v3h-6zm0,5h6v8h-6zm0,19h6v5h-6zm0,18h6v3h-6zm6,-95h6v3h-6zm0,16h6v3h-6zm0,26h6v3h-6zm0,19h6v8h-6zm0,10h6v3h-6zm0,24h6v3h-6zm6,-63h6v2h-6zm0,5h6v3h-6zm0,29h6v3h-6zm0,19h6v2h-6zm0,10h6v5h-6zm6,-53h7v3h-7zm44,161h6v3h-6zm6,0h6v3h-6zM299,330h6v3h-6zm6,42h7v3h-7zm7,-42h6v3h-6zm0,21h6v3h-6zm0,21h6v3h-6zm0,8h6v3h-6zm6,-61h6v3h-6zm0,16h6v3h-6zm0,8h6v3h-6zm0,5h6v3h-6zm0,19h6v3h-6zm0,5h6v8h-6zm0,11h6v8h-6zm0,21h6v3h-6zm0,5h6v3h-6zm0,8h6v3h-6zm6,-95h6v5h-6zm0,11h6v2h-6zm0,15h6v3h-6zm0,6h6v5h-6zm0,13h6v3h-6zm0,11h6v13h-6zm0,18h6v8h-6zm0,11h6v2h-6zm0,7h6v3h-6zm0,6h6v2h-6zm6,-101h6v6h-6zm0,11h6v3h-6zm0,5h6v3h-6zm0,21h6v6h-6zm0,11h6v8h-6zm0,13h6v11h-6zm0,13h6v14h-6zm0,19h6v2h-6zm0,10h6v3h-6zm6,-81h7v2h-7zm0,5h7v2h-7zm0,5h7v5h-7zm0,16h7v5h-7zm0,8h7v3h-7zm0,10h7v3h-7zm0,8h7v21h-7zm0,24h7v3h-7zm0,8h7v8h-7zm7,-135h6v3h-6zm0,32h6v3h-6zm0,8h6v8h-6zm0,11h6v2h-6zm0,7h6v6h-6zm0,8h6v3h-6zm0,11h6v11h-6zm0,13h6v3h-6zm0,5h6v11h-6zm0,16h6v3h-6zm0,6h6v7h-6zm0,13h6v2h-6zm0,5h6v3h-6zm0,11h6v2h-6zm6,-106h6v3h-6zm0,13h6v3h-6zm0,8h6v8h-6zm0,16h6v5h-6zm0,24h6v16h-6zm0,18h6v3h-6zm0,16h6v3h-6zm0,8h6v3h-6zm6,-108h6v2h-6zm0,10h6v3h-6zm0,16h6v5h-6zm0,8h6v3h-6zm0,8h6v5h-6zm0,8h6v3h-6zm0,8h6v2h-6zm0,10h6v3h-6zm0,8h6v6h-6zm0,11h6v2h-6zm0,8h6v2h-6zm6,-98h7v3h-7zm0,24h7v2h-7zm0,5h7v3h-7zm0,16h7v8h-7zm0,11h7v5h-7zm0,7h7v3h-7zm0,6h7v5h-7zm0,13h7v3h-7zm0,5h7v3h-7zm0,5h7v3h-7zm0,14h7v2h-7zm7,-109h6v3h-6zm0,35h6v2h-6zm0,10h6v3h-6zm0,6h6v5h-6zm0,10h6v3h-6zm0,5h6v3h-6zm0,11h6v5h-6zm0,8h6v3h-6zm0,16h6v2h-6zm0,8h6v2h-6zm6,-98h6v3h-6zm0,11h6v2h-6zm0,21h6v18h-6zm0,29h6v2h-6zm0,21h6v10h-6zm0,13h6v3h-6zm6,-98h6v6h-6zm0,14h6v2h-6zm0,7h6v3h-6zm0,6h6v2h-6zm0,8h6v2h-6zm0,10h6v6h-6zm0,8h6v5h-6zm0,8h6v3h-6zm0,8h6v3h-6zm0,5h6v3h-6zm0,16h6v3h-6zm0,11h6v2h-6zm0,5h6v3h-6zm6,-98h6v3h-6zm0,13h6v3h-6zm0,11h6v3h-6zm0,19h6v2h-6zm0,13h6v13h-6zm0,18h6v3h-6zm6,-76h7v2h-7zm0,8h7v2h-7zm0,5h7v5h-7zm0,18h7v3h-7zm0,32h7v3h-7zm7,-63h6v2h-6zm0,18h6v3h-6zm0,19h6v5h-6zm0,15h6v6h-6zm0,8h6v3h-6zm0,24h6v3h-6zm0,19h6v2h-6zm6,-90h6v2h-6zm0,13h6v3h-6zm0,8h6v3h-6zm0,18h6v3h-6zm0,8h6v6h-6zm0,11h6v3h-6zm0,21h6v3h-6zm6,-84h6v2h-6zm0,5h6v2h-6zm0,16h6v2h-6zm0,13h6v3h-6zm0,13h6v3h-6zm0,21h6v3h-6zm6,0h7v3h-7zm7,-71h6v3h-6zm12,53h6v2h-6zm75,-11h6v3h-6zm6,-61h6v3h-6zm0,22h6v2h-6zm0,15h6v3h-6zm0,11h6v5h-6zm0,18h6v3h-6zm6,-50h7v3h-7zm0,11h7v5h-7zm0,21h7v5h-7zm0,13h7v3h-7zm7,8h6v5h-6zm0,8h6v3h-6zm0,21h6v5h-6zm6,-53h6v3h-6zm0,14h6v2h-6zm0,7h6v3h-6zm0,11h6v8h-6zm0,26h6v3h-6zm6,-81h6v2h-6zm0,10h6v3h-6zm0,21h6v3h-6zm0,13h6v3h-6zm0,14h6v2h-6zm0,31h6v3h-6zm6,-79h6v3h-6zm0,8h6v3h-6zm0,26h6v3h-6zm0,8h6v3h-6zm0,6h6v2h-6zm0,5h6v3h-6zm0,10h6v6h-6zm6,-73h7v5h-7zm0,10h7v3h-7zm0,27h7v2h-7zm0,39h7v8h-7zm7,-55h6v2h-6zm0,16h6v5h-6zm0,7h6v8h-6zm0,11h6v3h-6zm0,13h6v3h-6zm0,8h6v5h-6zm6,-74h6v3h-6zm0,24h6v5h-6zm0,11h6v2h-6zm0,13h6v2h-6zm0,10h6v6h-6zm0,11h6v2h-6zm0,24h6v2h-6zm6,-93h6v3h-6zm0,16h6v3h-6zm0,24h6v2h-6zm0,10h6v3h-6zm0,6h6v2h-6zm0,8h6v2h-6zm0,5h6v2h-6zm6,-79h7v2h-7zm0,37h7v2h-7zm0,8h7v5h-7zm0,7h7v3h-7zm0,27h7v2h-7zm0,16h7v2h-7zm7,-66h6v2h-6zm0,8h6v2h-6zm0,10h6v3h-6zm0,29h6v3h-6zm0,16h6v3h-6zm6,-71h6v2h-6zm0,31h6v3h-6zm0,6h6v5h-6zm6,-16h6v3h-6zm0,10h6v8h-6zm0,14h6v2h-6zm0,5h6v3h-6zm0,32h6v2h-6zm6,-58h7v5h-7zm7,34h6v2h-6zm0,8h6v2h-6zm6,-61h6v3h-6zm6,24h6v2h-6zm0,16h6v2h-6zm0,13h6v2h-6zm6,-87h6v2h-6zm0,63h6v3h-6zm0,16h6v3h-6zM729,388h6v3h-6zm6,-8h6v3h-6zm6,-24h7v3h-7zm0,14h7v2h-7zm0,13h7v2h-7zm0,8h7v5h-7zm0,13h7v3h-7zm0,8h7v2h-7zm0,5h7v5h-7zm0,8h7v3h-7zm7,-95h6v3h-6zm0,37h6v3h-6zm0,5h6v3h-6zm0,19h6v2h-6zm0,10h6v6h-6zm6,-50h6v3h-6zm0,37h6v3h-6zm0,8h6v5h-6zm0,16h6v2h-6zm6,-77h6v3h-6zm0,16h6v3h-6zm0,45h6v3h-6zm0,5h6v3h-6zm0,11h6v2h-6zm6,-61h7v3h-7zm0,16h7v5h-7zm0,8h7v5h-7zm0,10h7v3h-7zm7,-21h6v3h-6zm0,14h6v2h-6zm0,15h6v6h-6zm6,-34h6v3h-6zm0,11h6v2h-6zm0,5h6v3h-6zm0,18h6v3h-6zm6,-26h6v3h-6zm0,42h6v3h-6zm6,-66h6v3h-6zm0,27h6v2h-6zm0,10h6v3h-6zm0,19h6v2h-6zm0,15h6v3h-6zm6,-23h7v2h-7zm0,13h7v3h-7zm0,5h7v3h-7zm7,-39h6v2h-6zm0,5h6v3h-6zm0,8h6v2h-6zm0,8h6v2h-6zm0,26h6v3h-6zm6,-32h6v3h-6zm0,27h6v2h-6zm6,-50h6v2h-6zm0,37h6v2h-6zm6,-45h7v2h-7zm0,29h7v2h-7zm7,18h6v3h-6zm18,-29h7v3h-7zm81,-13h7v3h-7zm7,-11h6v3h-6zm0,32h6v3h-6zm6,-37h6v3h-6zm0,8h6v3h-6zm0,24h6v3h-6zm0,13h6v3h-6zm0,5h6v3h-6zm0,11h6v3h-6zm0,5h6v3h-6zm6,-76h6v2h-6zm0,37h6v5h-6zm0,18h6v3h-6zm0,11h6v2h-6zm0,5h6v3h-6zm0,5h6v3h-6zm6,-71h6v3h-6zm0,21h6v5h-6zm0,26h6v6h-6zm0,16h6v6h-6zm0,16h6v3h-6zm0,13h6v3h-6zm6,-111h7v3h-7zm0,40h7v3h-7zm0,11h7v2h-7zm0,15h7v6h-7zm0,11h7v5h-7zm0,16h7v2h-7zm0,5h7v3h-7zm0,16h7v3h-7zm0,5h7v3h-7zm7,-90h6v3h-6zm0,27h6v5h-6zm0,8h6v2h-6zm0,5h6v3h-6zm0,8h6v3h-6zm0,8h6v3h-6zm0,5h6v3h-6zm0,19h6v2h-6zm6,-61h6v3h-6zm0,8h6v5h-6zm0,8h6v5h-6zm0,10h6v6h-6zm0,8h6v3h-6zm0,11h6v2h-6zm0,10h6v3h-6zm6,-42h6v5h-6zm0,11h6v5h-6zm0,8h6v10h-6zm0,13h6v2h-6zm0,5h6v3h-6zm0,5h6v3h-6zm0,16h6v3h-6zm6,-103h7v3h-7zm0,13h7v3h-7zm0,14h7v10h-7zm0,42h7v3h-7zm0,5h7v3h-7zm0,8h7v3h-7zm7,-61h6v3h-6zm0,11h6v3h-6zm0,11h6v7h-6zm0,10h6v3h-6zm0,5h6v3h-6zm0,8h6v6h-6zm0,32h6v3h-6zm6,-74h6v5h-6zm0,19h6v2h-6zm0,7h6v3h-6zm0,11h6v3h-6zm0,11h6v2h-6zm0,5h6v2h-6zm6,-64h6v6h-6zm0,16h6v3h-6zm0,37h6v3h-6zm0,16h6v3h-6zm6,-55h6v5h-6zm0,8h6v2h-6zm0,5h6v3h-6zm0,10h6v3h-6zm0,16h6v3h-6zm0,8h6v3h-6zm6,-50h7v3h-7zm0,34h7v6h-7zm0,11h7v3h-7zm0,18h7v3h-7zm7,-84h6v3h-6zm0,16h6v5h-6zm0,10h6v3h-6zm0,32h6v5h-6zm0,18h6v3h-6zm0,11h6v3h-6zm6,-84h6v2h-6zm0,39h6v3h-6zm6,-10h6v2h-6zm0,18h6v3h-6zm6,-18h7v2h-7zm100,5h6v5h-6zm6,-53h7v3h-7zm0,45h7v5h-7zm0,11h7v5h-7zm0,7h7v3h-7zm0,8h7v3h-7zm7,-47h6v2h-6zm0,5h6v3h-6zm0,5h6v3h-6zm0,8h6v3h-6zm0,21h6v6h-6zm0,11h6v16h-6zm0,24h6v2h-6zm6,-74h6v2h-6zm0,13h6v3h-6zm0,5h6v3h-6zm0,24h6v8h-6zm0,21h6v3h-6zm0,8h6v3h-6zm0,5h6v3h-6zm0,11h6v3h-6zm6,-77h6v3h-6zm0,8h6v3h-6zm0,6h6v2h-6zm0,5h6v3h-6zm0,5h6v3h-6zm0,11h6v2h-6zm0,10h6v3h-6zm0,6h6v5h-6zm0,10h6v3h-6zm0,5h6v6h-6zm0,8h6v3h-6zm6,-95h6v3h-6zm0,19h6v2h-6zm0,8h6v2h-6zm0,10h6v3h-6zm0,6h6v2h-6zm0,7h6v6h-6zm0,16h6v6h-6zm0,8h6v5h-6zm0,27h6v2h-6zm6,-93h7v3h-7zm0,24h7v5h-7zm0,13h7v5h-7zm0,8h7v3h-7zm0,11h7v5h-7zm0,8h7v2h-7zm0,18h7v3h-7zm0,11h7v2h-7zm7,-74h6v2h-6zm0,16h6v2h-6zm0,13h6v2h-6zm0,18h6v3h-6zm0,21h6v3h-6zm6,-97h6v2h-6zm0,10h6v3h-6zm0,21h6v6h-6zm0,8h6v3h-6zm0,8h6v3h-6zm0,5h6v11h-6zm0,22h6v5h-6zm0,7h6v6h-6zm0,16h6v3h-6zm6,-79h6v8h-6zm0,11h6v2h-6zm0,10h6v6h-6zm0,8h6v3h-6zm0,8h6v3h-6zm0,37h6v3h-6zm0,5h6v3h-6zm6,-79h7v3h-7zm0,8h7v3h-7zm0,8h7v3h-7zm0,18h7v3h-7zm0,16h7v3h-7zm0,35h7v2h-7zm7,-85h6v3h-6zm0,13h6v3h-6zm0,11h6v3h-6zm0,10h6v6h-6zm0,8h6v3h-6zm0,8h6v3h-6zm0,29h6v3h-6zm6,-76h6v2h-6zm0,8h6v2h-6zm0,13h6v3h-6zm0,37h6v5h-6zm6,-71h6v2h-6zm0,21h6v2h-6zm0,5h6v3h-6zm0,11h6v2h-6zm0,10h6v3h-6zm0,11h6v2h-6zm0,5h6v3h-6zm6,-40h7v3h-7zm0,19h7v2h-7zm0,8h7v8h-7zm7,-27h6v3h-6zm0,48h6v2h-6zm6,-58h6v2h-6zm0,8h6v2h-6zm0,10h6v3h-6zm0,6h6v5h-6zm0,7h6v3h-6z"
             id="path14" />
          <path
             fill="#1380d5"
             d="M37,525h7v3h-7zm225,0h6v3h-6z"
             id="path16" />
          <path
             fill="#0e8ed0"
             d="M44,525h6v3h-6zm6,0h6v3h-6zm6,0h6v3h-6zm199,0h7v3h-7z"
             id="path18" />
          <path
             fill="#089dcc"
             d="M62,525h7v3h-7zm187,0h6v3h-6z"
             id="path20" />
          <path
             fill="#0da7c2"
             d="M243,525h6v3h-6z"
             id="path22" />
          <path
             fill="#1dafb3"
             d="M69,525h6v3h-6zm168,0h6v3h-6z"
             id="path24" />
          <path
             fill="#2db7a3"
             d="M75,525h6v3h-6zm156,0h6v3h-6z"
             id="path26" />
          <path
             fill="#52ba91"
             d="M224,525h7v3h-7z"
             id="path28" />
          <path
             fill="#73bd80"
             d="M81,525h6v3h-6zm6,0h6v3h-6zm131,0h6v3h-6z"
             id="path30" />
          <path
             fill="#94be71"
             d="M93,525h7v3h-7z"
             id="path32" />
          <path
             fill="#d0ba59"
             d="M100,525h6v3h-6zm112,0h6v3h-6z"
             id="path34" />
          <path
             fill="#e1bf4a"
             d="M106,525h6v3h-6zm93,0h7v3h-7zm7,0h6v3h-6z"
             id="path36" />
          <path
             fill="#f4c53a"
             d="M112,525h6v3h-6zm6,0h7v3h-7zm13,0h6v3h-6zm62,0h6v3h-6z"
             id="path38" />
          <path
             fill="#fcd12b"
             d="M125,525h6v3h-6zm56,0h6v3h-6z"
             id="path40" />
          <path
             fill="#fae61c"
             d="M143,525h7v3h-7zm44,0h6v3h-6z"
             id="path42" />
          <path
             fill="#f9f90e"
             d="M137,525h6v3h-6zm13,0h6v3h-6zm6,0h6v3h-6zm6,0h6v3h-6zm6,0h6v3h-6zm6,0h7v3h-7z"
             id="path44" />
        </g>
      </svg>
      <g
         id="g114">
        <g
           transform="translate(0,528)"
           id="g76">
          <path
             d="M0,0h1246M28,-20V0M68,-10V0M107,-10V0M147,-10V0M187,-10V0M226,-20V0M266,-10V0M306,-10V0M345,-10V0M385,-10V0M425,-20V0M464,-10V0M504,-10V0M544,-10V0M583,-10V0M623,-20V0M663,-10V0M702,-10V0M742,-10V0M782,-10V0M821,-20V0M861,-10V0M901,-10V0M940,-10V0M980,-10V0M1020,-20V0M1059,-10V0M1099,-10V0M1139,-10V0M1178,-10V0M1218,-20V0"
             style="stroke: rgb(0, 0, 0); stroke-width: 1;"
             id="path50" />
          <g
             font-family="Arial"
             font-size="23"
             xml:space="preserve"
             fill="#000000"
             text-anchor="middle"
             id="g66"><text
               dy=".8em"
               transform="translate(28,5)"
               id="text52">-3</text><text
               dy=".8em"
               transform="translate(226,5)"
               id="text54">-2</text><text
               dy=".8em"
               transform="translate(425,5)"
               id="text56">-1</text><text
               dy=".8em"
               transform="translate(623,5)"
               id="text58">0</text><text
               dy=".8em"
               transform="translate(821,5)"
               id="text60">1</text><text
               dy=".8em"
               transform="translate(1020,5)"
               id="text62">2</text><text
               dy=".8em"
               transform="translate(1218,5)"
               id="text64">3</text></g>
          <rect
             x="0"
             y="0"
             width="1246"
             height="26"
             style="opacity: 0; cursor: crosshair;"
             id="rect68" />
          <g
             font-family="Arial"
             font-size="23"
             xml:space="preserve"
             style="cursor: move;"
             transform="translate(1246,37)"
             id="g74"><g
               transform="translate(-71,8)"
               id="g72"><text
                 fill="#000000"
                 font-size="23"
                 id="text70"> (rad)</text></g></g>
        </g>
        <g
           id="g112">
          <path
             d="M0,0v528M47,528H0M24,517H0M24,507H0M24,496H0M24,486H0M47,475H0M24,465H0M24,454H0M24,444H0M24,433H0M47,422H0M24,412H0M24,401H0M24,391H0M24,380H0M47,370H0M24,359H0M24,348H0M24,338H0M24,327H0M47,317H0M24,306H0M24,296H0M24,285H0M24,275H0M47,264H0M24,253H0M24,243H0M24,232H0M24,222H0M47,211H0M24,201H0M24,190H0M24,180H0M24,169H0M47,158H0M24,148H0M24,137H0M24,127H0M24,116H0M47,106H0M24,95H0M24,84H0M24,74H0M24,63H0M47,53H0M24,42H0M24,32H0M24,21H0M24,11H0M47,0H0"
             style="stroke: rgb(0, 0, 0); stroke-width: 1;"
             id="path78" />
          <g
             font-family="Arial"
             font-size="23"
             xml:space="preserve"
             fill="#000000"
             text-anchor="end"
             id="g102"><text
               dominant-baseline="middle"
               transform="translate(-3,528)"
               id="text80">0</text><text
               dominant-baseline="middle"
               transform="translate(-3,475)"
               id="text82">0.1</text><text
               dominant-baseline="middle"
               transform="translate(-3,422)"
               id="text84">0.2</text><text
               dominant-baseline="middle"
               transform="translate(-3,370)"
               id="text86">0.3</text><text
               dominant-baseline="middle"
               transform="translate(-3,317)"
               id="text88">0.4</text><text
               dominant-baseline="middle"
               transform="translate(-3,264)"
               id="text90">0.5</text><text
               dominant-baseline="middle"
               transform="translate(-3,211)"
               id="text92">0.6</text><text
               dominant-baseline="middle"
               transform="translate(-3,158)"
               id="text94">0.7</text><text
               dominant-baseline="middle"
               transform="translate(-3,106)"
               id="text96">0.8</text><text
               dominant-baseline="middle"
               transform="translate(-3,53)"
               id="text98">0.9</text><text
               dominant-baseline="middle"
               transform="translate(-3)"
               id="text100">1</text></g>
          <rect
             x="-35"
             y="0"
             width="35"
             height="528"
             style="opacity: 0; cursor: crosshair;"
             id="rect104" />
          <g
             font-family="Arial"
             font-size="23"
             xml:space="preserve"
             style="cursor: move;"
             transform="translate(-55,0)"
             id="g110"><g
               transform=" rotate(270) translate(-69,8)"
               id="g108"><text
                 fill="#000000"
                 font-size="23"
                 id="text106"> (rad)</text></g></g>
        </g>
      </g>
      <path
         d="M2,2h15v-5h-20v20h5Z"
         style="opacity: 0; cursor: nw-resize;"
         id="path116" />
      <path
         d="M1244,2h-15v-5h20v20h-5 Z"
         style="opacity: 0; cursor: ne-resize;"
         id="path118" />
      <path
         d="M2,526h15v5h-20v-20h5Z"
         style="opacity: 0; cursor: sw-resize;"
         id="path120" />
      <path
         d="M1244,526h-15v5h20v-20h-5Z"
         style="opacity: 0; cursor: se-resize;"
         id="path122" />
      <path
         d="M-3,18h5v492h-5Z"
         style="opacity: 0; cursor: w-resize;"
         id="path124" />
      <path
         d="M1249,18h-5v492h5Z"
         style="opacity: 0; cursor: e-resize;"
         id="path126" />
      <path
         d="M18,-3v5h1210v-5Z"
         style="opacity: 0; cursor: n-resize;"
         id="path128" />
      <path
         d="M18,531v-5h1210v5Z"
         style="opacity: 0; cursor: s-resize;"
         id="path130" />
      <style
         id="style132">
.jsroot rect.h1bin { stroke: #4572A7; fill: #4572A7; opacity: 0; }
.jsroot rect.zoom { stroke: steelblue; fill-opacity: 0.1; }
.jsroot path.zoom { stroke: steelblue; fill-opacity: 0.1; }
.jsroot svg:not(:root) { overflow: hidden; }</style>
    </g>
    <g
       transform="matrix(1.073,0,0,1.073,694.07812,38)"
       id="g140"
       style="font-size:37px;font-family:Arial">
      <text
         fill="#000000"
         font-size="37px"
         id="text138"> vs </text>
    </g>
  </g>
</svg>
