<?xml version="1.0" encoding="UTF-8" standalone="no"?>
<svg
   width="567.429"
   height="608.262"
   viewBox="0 0 567.429 608.262"
   shape-rendering="crispEdges"
   version="1.1"
   id="svg586"
   sodipodi:docname="22phipq_acc_-211.svg"
   inkscape:version="1.2.2 (1:1.2.2+202212051552+b0a8486541)"
   inkscape:export-filename="22phipq_acc_-211.pdf"
   inkscape:export-xdpi="96"
   inkscape:export-ydpi="96"
   xmlns:inkscape="http://www.inkscape.org/namespaces/inkscape"
   xmlns:sodipodi="http://sodipodi.sourceforge.net/DTD/sodipodi-0.dtd"
   xmlns="http://www.w3.org/2000/svg"
   xmlns:svg="http://www.w3.org/2000/svg">
  <sodipodi:namedview
     id="namedview588"
     pagecolor="#ffffff"
     bordercolor="#666666"
     borderopacity="1.0"
     inkscape:showpageshadow="2"
     inkscape:pageopacity="0.0"
     inkscape:pagecheckerboard="0"
     inkscape:deskcolor="#d1d1d1"
     showgrid="false"
     inkscape:zoom="1.0974034"
     inkscape:cx="136.68629"
     inkscape:cy="271.5501"
     inkscape:window-width="1920"
     inkscape:window-height="1051"
     inkscape:window-x="0"
     inkscape:window-y="0"
     inkscape:window-maximized="1"
     inkscape:current-layer="svg586" />
  <title
     id="title2">
/home/twig/code/rge-analysis/macros/22phipq_acc_-211.svg
</title>
  <desc
     id="desc4">
Creator: ROOT Version 6.28/00
CreationDate: Mon Jun 19 17:04:51 2023</desc>
  <defs
     id="defs6" />
  <rect
     x="0.5"
     y="0"
     width="566.929"
     height="607.762"
     fill="white"
     id="rect8" />
  <rect
     x="57.1929"
     y="60.7762"
     width="453.543"
     height="486.21"
     fill="white"
     id="rect10" />
  <rect
     x="57.1929"
     y="60.7762"
     width="453.543"
     height="486.21"
     fill="none"
     stroke="black"
     id="rect12" />
  <rect
     x="57.1929"
     y="60.7762"
     width="453.543"
     height="486.21"
     fill="white"
     id="rect14" />
  <rect
     x="57.1929"
     y="60.7762"
     width="453.543"
     height="486.21"
     fill="none"
     stroke="black"
     id="rect16" />
  <path
     d="M57.1929,546.986h 453.543"
     fill="none"
     stroke="black"
     id="path18" />
  <path
     d="M103.505,60.7762v 486.21"
     fill="none"
     stroke="black"
     stroke-dasharray=" 1, 2"
     id="path20" />
  <path
     d="M163.658,60.7762v 486.21"
     fill="none"
     stroke="black"
     stroke-dasharray=" 1, 2"
     id="path22" />
  <path
     d="M223.812,60.7762v 486.21"
     fill="none"
     stroke="black"
     stroke-dasharray=" 1, 2"
     id="path24" />
  <path
     d="M283.965,60.7762v 486.21"
     fill="none"
     stroke="black"
     stroke-dasharray=" 1, 2"
     id="path26" />
  <path
     d="M344.118,60.7762v 486.21"
     fill="none"
     stroke="black"
     stroke-dasharray=" 1, 2"
     id="path28" />
  <path
     d="M404.271,60.7762v 486.21"
     fill="none"
     stroke="black"
     stroke-dasharray=" 1, 2"
     id="path30" />
  <path
     d="M464.424,60.7762v 486.21"
     fill="none"
     stroke="black"
     stroke-dasharray=" 1, 2"
     id="path32" />
  <path
     d="M103.505,60.7762v 486.21"
     fill="none"
     stroke="black"
     stroke-dasharray=" 1, 2"
     id="path34" />
  <path
     d="M464.424,60.7762v 486.21"
     fill="none"
     stroke="black"
     stroke-dasharray=" 1, 2"
     id="path36" />
  <path
     d="M57.1929,546.986v -486.21"
     fill="none"
     stroke="black"
     id="path38" />
  <path
     d="M510.736,546.986h -453.543"
     fill="none"
     stroke="black"
     stroke-dasharray=" 1, 2"
     id="path40" />
  <path
     d="M510.736,449.804h -453.543"
     fill="none"
     stroke="black"
     stroke-dasharray=" 1, 2"
     id="path42" />
  <path
     d="M510.736,352.622h -453.543"
     fill="none"
     stroke="black"
     stroke-dasharray=" 1, 2"
     id="path44" />
  <path
     d="M510.736,255.44h -453.543"
     fill="none"
     stroke="black"
     stroke-dasharray=" 1, 2"
     id="path46" />
  <path
     d="M510.736,158.258h -453.543"
     fill="none"
     stroke="black"
     stroke-dasharray=" 1, 2"
     id="path48" />
  <path
     d="M510.736,61.076h -453.543"
     fill="none"
     stroke="black"
     stroke-dasharray=" 1, 2"
     id="path50" />
  <path
     d="M510.736,61.076h -453.543"
     fill="none"
     stroke="black"
     stroke-dasharray=" 1, 2"
     id="path52" />
  <path
     d="M57.1929,546.986h 453.543"
     fill="none"
     stroke="black"
     id="path54" />
  <path
     d="M103.505,532.4v 14.5863"
     fill="none"
     stroke="black"
     id="path56" />
  <path
     d="M115.536,539.693v 7.29315"
     fill="none"
     stroke="black"
     id="path58" />
  <path
     d="M127.567,539.693v 7.29315"
     fill="none"
     stroke="black"
     id="path60" />
  <path
     d="M139.597,539.693v 7.29315"
     fill="none"
     stroke="black"
     id="path62" />
  <path
     d="M151.628,539.693v 7.29315"
     fill="none"
     stroke="black"
     id="path64" />
  <path
     d="M163.658,532.4v 14.5863"
     fill="none"
     stroke="black"
     id="path66" />
  <path
     d="M175.689,539.693v 7.29315"
     fill="none"
     stroke="black"
     id="path68" />
  <path
     d="M187.72,539.693v 7.29315"
     fill="none"
     stroke="black"
     id="path70" />
  <path
     d="M199.75,539.693v 7.29315"
     fill="none"
     stroke="black"
     id="path72" />
  <path
     d="M211.781,539.693v 7.29315"
     fill="none"
     stroke="black"
     id="path74" />
  <path
     d="M223.812,532.4v 14.5863"
     fill="none"
     stroke="black"
     id="path76" />
  <path
     d="M235.842,539.693v 7.29315"
     fill="none"
     stroke="black"
     id="path78" />
  <path
     d="M247.873,539.693v 7.29315"
     fill="none"
     stroke="black"
     id="path80" />
  <path
     d="M259.903,539.693v 7.29315"
     fill="none"
     stroke="black"
     id="path82" />
  <path
     d="M271.934,539.693v 7.29315"
     fill="none"
     stroke="black"
     id="path84" />
  <path
     d="M283.965,532.4v 14.5863"
     fill="none"
     stroke="black"
     id="path86" />
  <path
     d="M295.995,539.693v 7.29315"
     fill="none"
     stroke="black"
     id="path88" />
  <path
     d="M308.026,539.693v 7.29315"
     fill="none"
     stroke="black"
     id="path90" />
  <path
     d="M320.056,539.693v 7.29315"
     fill="none"
     stroke="black"
     id="path92" />
  <path
     d="M332.087,539.693v 7.29315"
     fill="none"
     stroke="black"
     id="path94" />
  <path
     d="M344.118,532.4v 14.5863"
     fill="none"
     stroke="black"
     id="path96" />
  <path
     d="M356.148,539.693v 7.29315"
     fill="none"
     stroke="black"
     id="path98" />
  <path
     d="M368.179,539.693v 7.29315"
     fill="none"
     stroke="black"
     id="path100" />
  <path
     d="M380.209,539.693v 7.29315"
     fill="none"
     stroke="black"
     id="path102" />
  <path
     d="M392.24,539.693v 7.29315"
     fill="none"
     stroke="black"
     id="path104" />
  <path
     d="M404.271,532.4v 14.5863"
     fill="none"
     stroke="black"
     id="path106" />
  <path
     d="M416.301,539.693v 7.29315"
     fill="none"
     stroke="black"
     id="path108" />
  <path
     d="M428.332,539.693v 7.29315"
     fill="none"
     stroke="black"
     id="path110" />
  <path
     d="M440.362,539.693v 7.29315"
     fill="none"
     stroke="black"
     id="path112" />
  <path
     d="M452.393,539.693v 7.29315"
     fill="none"
     stroke="black"
     id="path114" />
  <path
     d="M464.424,532.4v 14.5863"
     fill="none"
     stroke="black"
     id="path116" />
  <path
     d="M103.505,532.4v 14.5863"
     fill="none"
     stroke="black"
     id="path118" />
  <path
     d="M91.4748,539.693v 7.29315"
     fill="none"
     stroke="black"
     id="path120" />
  <path
     d="M79.4442,539.693v 7.29315"
     fill="none"
     stroke="black"
     id="path122" />
  <path
     d="M67.4136,539.693v 7.29315"
     fill="none"
     stroke="black"
     id="path124" />
  <path
     d="M464.424,532.4v 14.5863"
     fill="none"
     stroke="black"
     id="path126" />
  <path
     d="M476.454,539.693v 7.29315"
     fill="none"
     stroke="black"
     id="path128" />
  <path
     d="M488.485,539.693v 7.29315"
     fill="none"
     stroke="black"
     id="path130" />
  <path
     d="M500.516,539.693v 7.29315"
     fill="none"
     stroke="black"
     id="path132" />
  <text
     xml:space="preserve"
     x="103.47"
     y="566.929"
     fill="black"
     font-size="18.7041"
     font-family="Helvetica"
     id="text134">3</text>
  <text
     xml:space="preserve"
     x="93.4101"
     y="566.929"
     fill="black"
     font-size="18.7041"
     font-family="Times"
     id="text136">−</text>
  <text
     xml:space="preserve"
     x="163.241"
     y="566.929"
     fill="black"
     font-size="18.7041"
     font-family="Helvetica"
     id="text138">2</text>
  <text
     xml:space="preserve"
     x="153.18"
     y="566.929"
     fill="black"
     font-size="18.7041"
     font-family="Times"
     id="text140">−</text>
  <text
     xml:space="preserve"
     x="224.786"
     y="566.929"
     fill="black"
     font-size="18.7041"
     font-family="Helvetica"
     id="text142">1</text>
  <text
     xml:space="preserve"
     x="215.318"
     y="566.929"
     fill="black"
     font-size="18.7041"
     font-family="Times"
     id="text144">−</text>
  <text
     xml:space="preserve"
     x="279.23"
     y="566.929"
     fill="black"
     font-size="18.7041"
     font-family="Helvetica"
     id="text146">0</text>
  <text
     xml:space="preserve"
     x="340.184"
     y="566.929"
     fill="black"
     font-size="18.7041"
     font-family="Helvetica"
     id="text148">1</text>
  <text
     xml:space="preserve"
     x="399.362"
     y="566.929"
     fill="black"
     font-size="18.7041"
     font-family="Helvetica"
     id="text150">2</text>
  <text
     xml:space="preserve"
     x="459.133"
     y="566.929"
     fill="black"
     font-size="18.7041"
     font-family="Helvetica"
     id="text152">3</text>
  <text
     xml:space="preserve"
     x="468.009"
     y="582.315"
     fill="black"
     font-size="18.7041"
     font-family="Helvetica"
     id="text154"> (rad)</text>
  <text
     xml:space="preserve"
     x="450.256"
     y="591.784"
     fill="black"
     font-size="12.6361"
     font-family="Helvetica"
     id="text156">PQ</text>
  <text
     xml:space="preserve"
     x="440.787"
     y="582.315"
     fill="black"
     font-size="18.7041"
     font-family="Times"
     id="text158">φ</text>
  <path
     d="M57.1929,546.986v -486.21"
     fill="none"
     stroke="black"
     id="path160" />
  <path
     d="M70.7992,546.986h -13.6063"
     fill="none"
     stroke="black"
     id="path162" />
  <path
     d="M63.9961,527.55h -6.80315"
     fill="none"
     stroke="black"
     id="path164" />
  <path
     d="M63.9961,508.113h -6.80315"
     fill="none"
     stroke="black"
     id="path166" />
  <path
     d="M63.9961,488.677h -6.80315"
     fill="none"
     stroke="black"
     id="path168" />
  <path
     d="M63.9961,469.24h -6.80315"
     fill="none"
     stroke="black"
     id="path170" />
  <path
     d="M70.7992,449.804h -13.6063"
     fill="none"
     stroke="black"
     id="path172" />
  <path
     d="M63.9961,430.368h -6.80315"
     fill="none"
     stroke="black"
     id="path174" />
  <path
     d="M63.9961,410.931h -6.80315"
     fill="none"
     stroke="black"
     id="path176" />
  <path
     d="M63.9961,391.495h -6.80315"
     fill="none"
     stroke="black"
     id="path178" />
  <path
     d="M63.9961,372.058h -6.80315"
     fill="none"
     stroke="black"
     id="path180" />
  <path
     d="M70.7992,352.622h -13.6063"
     fill="none"
     stroke="black"
     id="path182" />
  <path
     d="M63.9961,333.186h -6.80315"
     fill="none"
     stroke="black"
     id="path184" />
  <path
     d="M63.9961,313.749h -6.80315"
     fill="none"
     stroke="black"
     id="path186" />
  <path
     d="M63.9961,294.313h -6.80315"
     fill="none"
     stroke="black"
     id="path188" />
  <path
     d="M63.9961,274.876h -6.80315"
     fill="none"
     stroke="black"
     id="path190" />
  <path
     d="M70.7992,255.44h -13.6063"
     fill="none"
     stroke="black"
     id="path192" />
  <path
     d="M63.9961,236.004h -6.80315"
     fill="none"
     stroke="black"
     id="path194" />
  <path
     d="M63.9961,216.567h -6.80315"
     fill="none"
     stroke="black"
     id="path196" />
  <path
     d="M63.9961,197.131h -6.80315"
     fill="none"
     stroke="black"
     id="path198" />
  <path
     d="M63.9961,177.694h -6.80315"
     fill="none"
     stroke="black"
     id="path200" />
  <path
     d="M70.7992,158.258h -13.6063"
     fill="none"
     stroke="black"
     id="path202" />
  <path
     d="M63.9961,138.822h -6.80315"
     fill="none"
     stroke="black"
     id="path204" />
  <path
     d="M63.9961,119.385h -6.80315"
     fill="none"
     stroke="black"
     id="path206" />
  <path
     d="M63.9961,99.9488h -6.80315"
     fill="none"
     stroke="black"
     id="path208" />
  <path
     d="M63.9961,80.5124h -6.80315"
     fill="none"
     stroke="black"
     id="path210" />
  <path
     d="M70.7992,61.076h -13.6063"
     fill="none"
     stroke="black"
     id="path212" />
  <path
     d="M70.7992,61.076h -13.6063"
     fill="none"
     stroke="black"
     id="path214" />
  <text
     xml:space="preserve"
     x="44.8838"
     y="553.318"
     fill="black"
     font-size="18.7041"
     font-family="Helvetica"
     id="text216">0</text>
  <text
     xml:space="preserve"
     x="8.78498"
     y="456.266"
     fill="black"
     font-size="18.7041"
     font-family="Helvetica"
     id="text218">0.005</text>
  <text
     xml:space="preserve"
     x="22.396"
     y="358.621"
     fill="black"
     font-size="18.7041"
     font-family="Helvetica"
     id="text220">0.01</text>
  <text
     xml:space="preserve"
     x="8.78498"
     y="261.569"
     fill="black"
     font-size="18.7041"
     font-family="Helvetica"
     id="text222">0.015</text>
  <text
     xml:space="preserve"
     x="19.4371"
     y="164.516"
     fill="black"
     font-size="18.7041"
     font-family="Helvetica"
     id="text224">0.02</text>
  <text
     xml:space="preserve"
     x="8.78498"
     y="67.4634"
     fill="black"
     font-size="18.7041"
     font-family="Helvetica"
     id="text226">0.025</text>
  <g
     fill="#ff0000"
     id="g246">
    <rect
       x="108.369"
       y="105.612"
       width="4.73427"
       height="4.73427"
       id="rect228" />
    <rect
       x="150.364"
       y="202.1"
       width="4.73427"
       height="4.73427"
       id="rect230" />
    <rect
       x="192.359"
       y="301.825"
       width="4.73427"
       height="4.73427"
       id="rect232" />
    <rect
       x="234.353"
       y="429.993"
       width="4.73427"
       height="4.73427"
       id="rect234" />
    <rect
       x="276.348"
       y="483.149"
       width="4.73427"
       height="4.73427"
       id="rect236" />
    <rect
       x="318.343"
       y="449.2"
       width="4.73427"
       height="4.73427"
       id="rect238" />
    <rect
       x="360.338"
       y="326.67"
       width="4.73427"
       height="4.73427"
       id="rect240" />
    <rect
       x="402.332"
       y="207.327"
       width="4.73427"
       height="4.73427"
       id="rect242" />
    <rect
       x="444.327"
       y="148.898"
       width="4.73427"
       height="4.73427"
       id="rect244" />
  </g>
  <path
     d="M108.369,107.979h -13.3809"
     fill="none"
     stroke="black"
     id="path248" />
  <path
     d="M94.9882,109.162v -2.36714"
     fill="none"
     stroke="black"
     id="path250" />
  <path
     d="M113.103,107.979h 23.8796"
     fill="none"
     stroke="black"
     id="path252" />
  <path
     d="M136.983,109.162v -2.36714"
     fill="none"
     stroke="black"
     id="path254" />
  <path
     d="M110.736,105.612v -0.634634"
     fill="none"
     stroke="black"
     id="path256" />
  <path
     d="M109.553,104.977h 2.36714"
     fill="none"
     stroke="black"
     id="path258" />
  <path
     d="M110.736,110.346v 0.634634"
     fill="none"
     stroke="black"
     id="path260" />
  <path
     d="M109.553,110.981h 2.36714"
     fill="none"
     stroke="black"
     id="path262" />
  <path
     d="M150.364,204.468h -13.3809"
     fill="none"
     stroke="black"
     id="path264" />
  <path
     d="M136.983,205.651v -2.36714"
     fill="none"
     stroke="black"
     id="path266" />
  <path
     d="M155.098,204.468h 23.8796"
     fill="none"
     stroke="black"
     id="path268" />
  <path
     d="M178.978,205.651v -2.36714"
     fill="none"
     stroke="black"
     id="path270" />
  <path
     d="M152.731,202.1v -0.284232"
     fill="none"
     stroke="black"
     id="path272" />
  <path
     d="M151.547,201.816h 2.36714"
     fill="none"
     stroke="black"
     id="path274" />
  <path
     d="M152.731,206.835v 0.284232"
     fill="none"
     stroke="black"
     id="path276" />
  <path
     d="M151.547,207.119h 2.36714"
     fill="none"
     stroke="black"
     id="path278" />
  <path
     d="M192.359,304.192h -13.3809"
     fill="none"
     stroke="black"
     id="path280" />
  <path
     d="M178.978,305.376v -2.36714"
     fill="none"
     stroke="black"
     id="path282" />
  <path
     d="M197.093,304.192h 23.8796"
     fill="none"
     stroke="black"
     id="path284" />
  <path
     d="M220.972,305.376v -2.36714"
     fill="none"
     stroke="black"
     id="path286" />
  <path
     d="M234.353,432.36h -13.3809"
     fill="none"
     stroke="black"
     id="path288" />
  <path
     d="M220.972,433.543v -2.36714"
     fill="none"
     stroke="black"
     id="path290" />
  <path
     d="M239.088,432.36h 23.8796"
     fill="none"
     stroke="black"
     id="path292" />
  <path
     d="M262.967,433.543v -2.36714"
     fill="none"
     stroke="black"
     id="path294" />
  <path
     d="M276.348,485.516h -13.3809"
     fill="none"
     stroke="black"
     id="path296" />
  <path
     d="M262.967,486.7v -2.36714"
     fill="none"
     stroke="black"
     id="path298" />
  <path
     d="M281.082,485.516h 23.8796"
     fill="none"
     stroke="black"
     id="path300" />
  <path
     d="M304.962,486.7v -2.36714"
     fill="none"
     stroke="black"
     id="path302" />
  <path
     d="M318.343,451.568h -13.3809"
     fill="none"
     stroke="black"
     id="path304" />
  <path
     d="M304.962,452.751v -2.36714"
     fill="none"
     stroke="black"
     id="path306" />
  <path
     d="M323.077,451.568h 23.8796"
     fill="none"
     stroke="black"
     id="path308" />
  <path
     d="M346.957,452.751v -2.36714"
     fill="none"
     stroke="black"
     id="path310" />
  <path
     d="M360.338,329.037h -13.3809"
     fill="none"
     stroke="black"
     id="path312" />
  <path
     d="M346.957,330.221v -2.36714"
     fill="none"
     stroke="black"
     id="path314" />
  <path
     d="M365.072,329.037h 23.8796"
     fill="none"
     stroke="black"
     id="path316" />
  <path
     d="M388.951,330.221v -2.36714"
     fill="none"
     stroke="black"
     id="path318" />
  <path
     d="M402.332,209.694h -13.3809"
     fill="none"
     stroke="black"
     id="path320" />
  <path
     d="M388.951,210.878v -2.36714"
     fill="none"
     stroke="black"
     id="path322" />
  <path
     d="M407.067,209.694h 23.8796"
     fill="none"
     stroke="black"
     id="path324" />
  <path
     d="M430.946,210.878v -2.36714"
     fill="none"
     stroke="black"
     id="path326" />
  <path
     d="M404.699,207.327v -0.258466"
     fill="none"
     stroke="black"
     id="path328" />
  <path
     d="M403.516,207.069h 2.36714"
     fill="none"
     stroke="black"
     id="path330" />
  <path
     d="M404.699,212.062v 0.258466"
     fill="none"
     stroke="black"
     id="path332" />
  <path
     d="M403.516,212.32h 2.36714"
     fill="none"
     stroke="black"
     id="path334" />
  <path
     d="M444.327,151.265h -13.3809"
     fill="none"
     stroke="black"
     id="path336" />
  <path
     d="M430.946,152.449v -2.36714"
     fill="none"
     stroke="black"
     id="path338" />
  <path
     d="M449.061,151.265h 23.8796"
     fill="none"
     stroke="black"
     id="path340" />
  <path
     d="M472.941,152.449v -2.36714"
     fill="none"
     stroke="black"
     id="path342" />
  <path
     d="M446.694,148.898v -0.478575"
     fill="none"
     stroke="black"
     id="path344" />
  <path
     d="M445.511,148.42h 2.36714"
     fill="none"
     stroke="black"
     id="path346" />
  <path
     d="M446.694,153.632v 0.478575"
     fill="none"
     stroke="black"
     id="path348" />
  <path
     d="M445.511,154.111h 2.36714"
     fill="none"
     stroke="black"
     id="path350" />
  <path
     d="M113.618,259.239h -18.6302"
     fill="none"
     stroke="black"
     id="path352" />
  <path
     d="M94.9882,260.422v -2.36714"
     fill="none"
     stroke="black"
     id="path354" />
  <path
     d="M118.353,259.239h 18.6302"
     fill="none"
     stroke="black"
     id="path356" />
  <path
     d="M136.983,260.422v -2.36714"
     fill="none"
     stroke="black"
     id="path358" />
  <path
     d="M115.986,256.872v -0.0538274"
     fill="none"
     stroke="black"
     id="path360" />
  <path
     d="M114.802,256.818h 2.36714"
     fill="none"
     stroke="black"
     id="path362" />
  <path
     d="M115.986,261.606v 0.0538274"
     fill="none"
     stroke="black"
     id="path364" />
  <path
     d="M114.802,261.66h 2.36714"
     fill="none"
     stroke="black"
     id="path366" />
  <path
     d="M155.613,335.259h -18.6302"
     fill="none"
     stroke="black"
     id="path368" />
  <path
     d="M136.983,336.443v -2.36714"
     fill="none"
     stroke="black"
     id="path370" />
  <path
     d="M160.347,335.259h 18.6302"
     fill="none"
     stroke="black"
     id="path372" />
  <path
     d="M178.978,336.443v -2.36714"
     fill="none"
     stroke="black"
     id="path374" />
  <path
     d="M197.608,408.668h -18.6302"
     fill="none"
     stroke="black"
     id="path376" />
  <path
     d="M178.978,409.851v -2.36714"
     fill="none"
     stroke="black"
     id="path378" />
  <path
     d="M202.342,408.668h 18.6302"
     fill="none"
     stroke="black"
     id="path380" />
  <path
     d="M220.972,409.851v -2.36714"
     fill="none"
     stroke="black"
     id="path382" />
  <path
     d="M239.603,487.615h -18.6302"
     fill="none"
     stroke="black"
     id="path384" />
  <path
     d="M220.972,488.798v -2.36714"
     fill="none"
     stroke="black"
     id="path386" />
  <path
     d="M244.337,487.615h 18.6302"
     fill="none"
     stroke="black"
     id="path388" />
  <path
     d="M262.967,488.798v -2.36714"
     fill="none"
     stroke="black"
     id="path390" />
  <path
     d="M281.597,514.973h -18.6302"
     fill="none"
     stroke="black"
     id="path392" />
  <path
     d="M262.967,516.156v -2.36714"
     fill="none"
     stroke="black"
     id="path394" />
  <path
     d="M286.332,514.973h 18.6302"
     fill="none"
     stroke="black"
     id="path396" />
  <path
     d="M304.962,516.156v -2.36714"
     fill="none"
     stroke="black"
     id="path398" />
  <path
     d="M323.592,492.226h -18.6302"
     fill="none"
     stroke="black"
     id="path400" />
  <path
     d="M304.962,493.41v -2.36714"
     fill="none"
     stroke="black"
     id="path402" />
  <path
     d="M328.326,492.226h 18.6302"
     fill="none"
     stroke="black"
     id="path404" />
  <path
     d="M346.957,493.41v -2.36714"
     fill="none"
     stroke="black"
     id="path406" />
  <path
     d="M365.587,413.789h -18.6302"
     fill="none"
     stroke="black"
     id="path408" />
  <path
     d="M346.957,414.973v -2.36714"
     fill="none"
     stroke="black"
     id="path410" />
  <path
     d="M370.321,413.789h 18.6302"
     fill="none"
     stroke="black"
     id="path412" />
  <path
     d="M388.951,414.973v -2.36714"
     fill="none"
     stroke="black"
     id="path414" />
  <path
     d="M407.582,334.775h -18.6302"
     fill="none"
     stroke="black"
     id="path416" />
  <path
     d="M388.951,335.959v -2.36714"
     fill="none"
     stroke="black"
     id="path418" />
  <path
     d="M412.316,334.775h 18.6302"
     fill="none"
     stroke="black"
     id="path420" />
  <path
     d="M430.946,335.959v -2.36714"
     fill="none"
     stroke="black"
     id="path422" />
  <path
     d="M449.576,287.905h -18.6302"
     fill="none"
     stroke="black"
     id="path424" />
  <path
     d="M430.946,289.089v -2.36714"
     fill="none"
     stroke="black"
     id="path426" />
  <path
     d="M454.311,287.905h 18.6302"
     fill="none"
     stroke="black"
     id="path428" />
  <path
     d="M472.941,289.089v -2.36714"
     fill="none"
     stroke="black"
     id="path430" />
  <g
     fill="#0000ff"
     id="g450">
    <rect
       x="113.618"
       y="256.872"
       width="4.73427"
       height="4.73427"
       id="rect432" />
    <rect
       x="155.613"
       y="332.892"
       width="4.73427"
       height="4.73427"
       id="rect434" />
    <rect
       x="197.608"
       y="406.301"
       width="4.73427"
       height="4.73427"
       id="rect436" />
    <rect
       x="239.603"
       y="485.248"
       width="4.73427"
       height="4.73427"
       id="rect438" />
    <rect
       x="281.597"
       y="512.605"
       width="4.73427"
       height="4.73427"
       id="rect440" />
    <rect
       x="323.592"
       y="489.859"
       width="4.73427"
       height="4.73427"
       id="rect442" />
    <rect
       x="365.587"
       y="411.422"
       width="4.73427"
       height="4.73427"
       id="rect444" />
    <rect
       x="407.582"
       y="332.408"
       width="4.73427"
       height="4.73427"
       id="rect446" />
    <rect
       x="449.576"
       y="285.538"
       width="4.73427"
       height="4.73427"
       id="rect448" />
  </g>
  <path
     d="M118.868,387.557h -23.8796"
     fill="none"
     stroke="black"
     id="path452" />
  <path
     d="M94.9882,388.74v -2.36714"
     fill="none"
     stroke="black"
     id="path454" />
  <path
     d="M123.602,387.557h 13.3809"
     fill="none"
     stroke="black"
     id="path456" />
  <path
     d="M136.983,388.74v -2.36714"
     fill="none"
     stroke="black"
     id="path458" />
  <path
     d="M160.863,430.191h -23.8796"
     fill="none"
     stroke="black"
     id="path460" />
  <path
     d="M136.983,431.375v -2.36714"
     fill="none"
     stroke="black"
     id="path462" />
  <path
     d="M165.597,430.191h 13.3809"
     fill="none"
     stroke="black"
     id="path464" />
  <path
     d="M178.978,431.375v -2.36714"
     fill="none"
     stroke="black"
     id="path466" />
  <path
     d="M202.857,468.18h -23.8796"
     fill="none"
     stroke="black"
     id="path468" />
  <path
     d="M178.978,469.364v -2.36714"
     fill="none"
     stroke="black"
     id="path470" />
  <path
     d="M207.592,468.18h 13.3809"
     fill="none"
     stroke="black"
     id="path472" />
  <path
     d="M220.972,469.364v -2.36714"
     fill="none"
     stroke="black"
     id="path474" />
  <path
     d="M244.852,517.652h -23.8796"
     fill="none"
     stroke="black"
     id="path476" />
  <path
     d="M220.972,518.835v -2.36714"
     fill="none"
     stroke="black"
     id="path478" />
  <path
     d="M249.586,517.652h 13.3809"
     fill="none"
     stroke="black"
     id="path480" />
  <path
     d="M262.967,518.835v -2.36714"
     fill="none"
     stroke="black"
     id="path482" />
  <path
     d="M286.847,535.449h -23.8796"
     fill="none"
     stroke="black"
     id="path484" />
  <path
     d="M262.967,536.633v -2.36714"
     fill="none"
     stroke="black"
     id="path486" />
  <path
     d="M291.581,535.449h 13.3809"
     fill="none"
     stroke="black"
     id="path488" />
  <path
     d="M304.962,536.633v -2.36714"
     fill="none"
     stroke="black"
     id="path490" />
  <path
     d="M328.842,521.231h -23.8796"
     fill="none"
     stroke="black"
     id="path492" />
  <path
     d="M304.962,522.414v -2.36714"
     fill="none"
     stroke="black"
     id="path494" />
  <path
     d="M333.576,521.231h 13.3809"
     fill="none"
     stroke="black"
     id="path496" />
  <path
     d="M346.957,522.414v -2.36714"
     fill="none"
     stroke="black"
     id="path498" />
  <path
     d="M370.836,471.588h -23.8796"
     fill="none"
     stroke="black"
     id="path500" />
  <path
     d="M346.957,472.771v -2.36714"
     fill="none"
     stroke="black"
     id="path502" />
  <path
     d="M375.571,471.588h 13.3809"
     fill="none"
     stroke="black"
     id="path504" />
  <path
     d="M388.951,472.771v -2.36714"
     fill="none"
     stroke="black"
     id="path506" />
  <path
     d="M412.831,433.417h -23.8796"
     fill="none"
     stroke="black"
     id="path508" />
  <path
     d="M388.951,434.601v -2.36714"
     fill="none"
     stroke="black"
     id="path510" />
  <path
     d="M417.565,433.417h 13.3809"
     fill="none"
     stroke="black"
     id="path512" />
  <path
     d="M430.946,434.601v -2.36714"
     fill="none"
     stroke="black"
     id="path514" />
  <path
     d="M454.826,400.659h -23.8796"
     fill="none"
     stroke="black"
     id="path516" />
  <path
     d="M430.946,401.843v -2.36714"
     fill="none"
     stroke="black"
     id="path518" />
  <path
     d="M459.56,400.659h 13.3809"
     fill="none"
     stroke="black"
     id="path520" />
  <path
     d="M472.941,401.843v -2.36714"
     fill="none"
     stroke="black"
     id="path522" />
  <g
     fill="#00ff00"
     id="g542">
    <rect
       x="118.868"
       y="385.19"
       width="4.73427"
       height="4.73427"
       id="rect524" />
    <rect
       x="160.863"
       y="427.824"
       width="4.73427"
       height="4.73427"
       id="rect526" />
    <rect
       x="202.857"
       y="465.813"
       width="4.73427"
       height="4.73427"
       id="rect528" />
    <rect
       x="244.852"
       y="515.285"
       width="4.73427"
       height="4.73427"
       id="rect530" />
    <rect
       x="286.847"
       y="533.082"
       width="4.73427"
       height="4.73427"
       id="rect532" />
    <rect
       x="328.842"
       y="518.864"
       width="4.73427"
       height="4.73427"
       id="rect534" />
    <rect
       x="370.836"
       y="469.221"
       width="4.73427"
       height="4.73427"
       id="rect536" />
    <rect
       x="412.831"
       y="431.05"
       width="4.73427"
       height="4.73427"
       id="rect538" />
    <rect
       x="454.826"
       y="398.292"
       width="4.73427"
       height="4.73427"
       id="rect540" />
  </g>
  <rect
     x="199.044"
     y="73.3812"
     width="169.842"
     height="60.362"
     fill="white"
     id="rect544" />
  <path
     d="M199.044,133.743h 169.842"
     fill="none"
     stroke="black"
     id="path546" />
  <path
     d="M368.886,133.743v -60.362"
     fill="none"
     stroke="black"
     id="path548" />
  <path
     d="M368.886,73.3812h -169.842"
     fill="none"
     stroke="black"
     id="path550" />
  <path
     d="M199.044,73.3812v 60.362"
     fill="none"
     stroke="black"
     id="path552" />
  <text
     xml:space="preserve"
     x="241.356"
     y="87.584"
     fill="black"
     font-size="13.6676"
     font-family="Helvetica"
     id="text554">DC</text>
  <path
     d="M205.413,83.4416h 29.7224"
     fill="none"
     stroke="black"
     id="path556" />
  <g
     fill="#ff0000"
     id="g560">
    <rect
       x="217.907"
       y="81.0744"
       width="4.73427"
       height="4.73427"
       id="rect558" />
  </g>
  <text
     xml:space="preserve"
     x="241.356"
     y="107.705"
     fill="black"
     font-size="13.6676"
     font-family="Helvetica"
     id="text562">FMT - 2 layers</text>
  <path
     d="M205.413,103.562h 29.7224"
     fill="none"
     stroke="black"
     id="path564" />
  <g
     fill="#0000ff"
     id="g568">
    <rect
       x="217.907"
       y="101.195"
       width="4.73427"
       height="4.73427"
       id="rect566" />
  </g>
  <text
     xml:space="preserve"
     x="241.356"
     y="127.825"
     fill="black"
     font-size="13.6676"
     font-family="Helvetica"
     id="text570">FMT - 3 layers</text>
  <path
     d="M205.413,123.683h 29.7224"
     fill="none"
     stroke="black"
     id="path572" />
  <g
     fill="#00ff00"
     id="g576">
    <rect
       x="217.907"
       y="121.316"
       width="4.73427"
       height="4.73427"
       id="rect574" />
  </g>
  <g
     id="g874"
     transform="translate(25.799251)">
    <text
       xml:space="preserve"
       x="219.46001"
       y="31.364599"
       fill="#000000"
       font-size="11.1807px"
       font-family="Helvetica"
       font-weight="bold"
       id="text580"> (rad) acceptance</text>
    <text
       xml:space="preserve"
       x="209.39999"
       y="37.282398"
       fill="#000000"
       font-size="7.62047px"
       font-family="Helvetica"
       font-weight="bold"
       id="text582">PQ</text>
    <text
       xml:space="preserve"
       x="204.07401"
       y="31.364599"
       fill="#000000"
       font-size="11.1807px"
       font-family="Times"
       id="text584">φ</text>
  </g>
</svg>
