<?xml version="1.0" encoding="UTF-8" standalone="no"?>
<svg
   width="567.429"
   height="608.262"
   viewBox="0 0 567.429 608.262"
   shape-rendering="crispEdges"
   version="1.1"
   id="svg546"
   sodipodi:docname="22phipq_acc_211.svg"
   inkscape:export-filename="22phipq_acc_211.pdf"
   inkscape:export-xdpi="96"
   inkscape:export-ydpi="96"
   inkscape:version="1.2.2 (1:1.2.2+202212051552+b0a8486541)"
   xmlns:inkscape="http://www.inkscape.org/namespaces/inkscape"
   xmlns:sodipodi="http://sodipodi.sourceforge.net/DTD/sodipodi-0.dtd"
   xmlns="http://www.w3.org/2000/svg"
   xmlns:svg="http://www.w3.org/2000/svg">
  <sodipodi:namedview
     id="namedview548"
     pagecolor="#ffffff"
     bordercolor="#666666"
     borderopacity="1.0"
     inkscape:showpageshadow="2"
     inkscape:pageopacity="0.0"
     inkscape:pagecheckerboard="0"
     inkscape:deskcolor="#d1d1d1"
     showgrid="false"
     inkscape:zoom="0.54870169"
     inkscape:cx="-187.71584"
     inkscape:cy="164.02355"
     inkscape:window-width="1920"
     inkscape:window-height="1051"
     inkscape:window-x="0"
     inkscape:window-y="0"
     inkscape:window-maximized="1"
     inkscape:current-layer="svg546" />
  <title
     id="title2">
/home/twig/code/rge-analysis/macros/22phipq_acc_211.svg
</title>
  <desc
     id="desc4">
Creator: ROOT Version 6.28/00
CreationDate: Mon Jun 19 17:01:39 2023</desc>
  <defs
     id="defs6" />
  <rect
     x="0.5"
     y="0"
     width="566.929"
     height="607.762"
     fill="white"
     id="rect8" />
  <rect
     x="57.1929"
     y="60.7762"
     width="453.543"
     height="486.21"
     fill="white"
     id="rect10" />
  <rect
     x="57.1929"
     y="60.7762"
     width="453.543"
     height="486.21"
     fill="none"
     stroke="black"
     id="rect12" />
  <rect
     x="57.1929"
     y="60.7762"
     width="453.543"
     height="486.21"
     fill="white"
     id="rect14" />
  <rect
     x="57.1929"
     y="60.7762"
     width="453.543"
     height="486.21"
     fill="none"
     stroke="black"
     id="rect16" />
  <path
     d="M57.1929,546.986h 453.543"
     fill="none"
     stroke="black"
     id="path18" />
  <path
     d="M103.505,60.7762v 486.21"
     fill="none"
     stroke="black"
     stroke-dasharray=" 1, 2"
     id="path20" />
  <path
     d="M163.658,60.7762v 486.21"
     fill="none"
     stroke="black"
     stroke-dasharray=" 1, 2"
     id="path22" />
  <path
     d="M223.812,60.7762v 486.21"
     fill="none"
     stroke="black"
     stroke-dasharray=" 1, 2"
     id="path24" />
  <path
     d="M283.965,60.7762v 486.21"
     fill="none"
     stroke="black"
     stroke-dasharray=" 1, 2"
     id="path26" />
  <path
     d="M344.118,60.7762v 486.21"
     fill="none"
     stroke="black"
     stroke-dasharray=" 1, 2"
     id="path28" />
  <path
     d="M404.271,60.7762v 486.21"
     fill="none"
     stroke="black"
     stroke-dasharray=" 1, 2"
     id="path30" />
  <path
     d="M464.424,60.7762v 486.21"
     fill="none"
     stroke="black"
     stroke-dasharray=" 1, 2"
     id="path32" />
  <path
     d="M103.505,60.7762v 486.21"
     fill="none"
     stroke="black"
     stroke-dasharray=" 1, 2"
     id="path34" />
  <path
     d="M464.424,60.7762v 486.21"
     fill="none"
     stroke="black"
     stroke-dasharray=" 1, 2"
     id="path36" />
  <path
     d="M57.1929,546.986v -486.21"
     fill="none"
     stroke="black"
     id="path38" />
  <path
     d="M510.736,546.986h -453.543"
     fill="none"
     stroke="black"
     stroke-dasharray=" 1, 2"
     id="path40" />
  <path
     d="M510.736,453.369h -453.543"
     fill="none"
     stroke="black"
     stroke-dasharray=" 1, 2"
     id="path42" />
  <path
     d="M510.736,359.753h -453.543"
     fill="none"
     stroke="black"
     stroke-dasharray=" 1, 2"
     id="path44" />
  <path
     d="M510.736,266.136h -453.543"
     fill="none"
     stroke="black"
     stroke-dasharray=" 1, 2"
     id="path46" />
  <path
     d="M510.736,172.52h -453.543"
     fill="none"
     stroke="black"
     stroke-dasharray=" 1, 2"
     id="path48" />
  <path
     d="M510.736,78.903h -453.543"
     fill="none"
     stroke="black"
     stroke-dasharray=" 1, 2"
     id="path50" />
  <path
     d="M510.736,78.903h -453.543"
     fill="none"
     stroke="black"
     stroke-dasharray=" 1, 2"
     id="path52" />
  <path
     d="M57.1929,546.986h 453.543"
     fill="none"
     stroke="black"
     id="path54" />
  <path
     d="M103.505,532.4v 14.5863"
     fill="none"
     stroke="black"
     id="path56" />
  <path
     d="M115.536,539.693v 7.29315"
     fill="none"
     stroke="black"
     id="path58" />
  <path
     d="M127.567,539.693v 7.29315"
     fill="none"
     stroke="black"
     id="path60" />
  <path
     d="M139.597,539.693v 7.29315"
     fill="none"
     stroke="black"
     id="path62" />
  <path
     d="M151.628,539.693v 7.29315"
     fill="none"
     stroke="black"
     id="path64" />
  <path
     d="M163.658,532.4v 14.5863"
     fill="none"
     stroke="black"
     id="path66" />
  <path
     d="M175.689,539.693v 7.29315"
     fill="none"
     stroke="black"
     id="path68" />
  <path
     d="M187.72,539.693v 7.29315"
     fill="none"
     stroke="black"
     id="path70" />
  <path
     d="M199.75,539.693v 7.29315"
     fill="none"
     stroke="black"
     id="path72" />
  <path
     d="M211.781,539.693v 7.29315"
     fill="none"
     stroke="black"
     id="path74" />
  <path
     d="M223.812,532.4v 14.5863"
     fill="none"
     stroke="black"
     id="path76" />
  <path
     d="M235.842,539.693v 7.29315"
     fill="none"
     stroke="black"
     id="path78" />
  <path
     d="M247.873,539.693v 7.29315"
     fill="none"
     stroke="black"
     id="path80" />
  <path
     d="M259.903,539.693v 7.29315"
     fill="none"
     stroke="black"
     id="path82" />
  <path
     d="M271.934,539.693v 7.29315"
     fill="none"
     stroke="black"
     id="path84" />
  <path
     d="M283.965,532.4v 14.5863"
     fill="none"
     stroke="black"
     id="path86" />
  <path
     d="M295.995,539.693v 7.29315"
     fill="none"
     stroke="black"
     id="path88" />
  <path
     d="M308.026,539.693v 7.29315"
     fill="none"
     stroke="black"
     id="path90" />
  <path
     d="M320.056,539.693v 7.29315"
     fill="none"
     stroke="black"
     id="path92" />
  <path
     d="M332.087,539.693v 7.29315"
     fill="none"
     stroke="black"
     id="path94" />
  <path
     d="M344.118,532.4v 14.5863"
     fill="none"
     stroke="black"
     id="path96" />
  <path
     d="M356.148,539.693v 7.29315"
     fill="none"
     stroke="black"
     id="path98" />
  <path
     d="M368.179,539.693v 7.29315"
     fill="none"
     stroke="black"
     id="path100" />
  <path
     d="M380.209,539.693v 7.29315"
     fill="none"
     stroke="black"
     id="path102" />
  <path
     d="M392.24,539.693v 7.29315"
     fill="none"
     stroke="black"
     id="path104" />
  <path
     d="M404.271,532.4v 14.5863"
     fill="none"
     stroke="black"
     id="path106" />
  <path
     d="M416.301,539.693v 7.29315"
     fill="none"
     stroke="black"
     id="path108" />
  <path
     d="M428.332,539.693v 7.29315"
     fill="none"
     stroke="black"
     id="path110" />
  <path
     d="M440.362,539.693v 7.29315"
     fill="none"
     stroke="black"
     id="path112" />
  <path
     d="M452.393,539.693v 7.29315"
     fill="none"
     stroke="black"
     id="path114" />
  <path
     d="M464.424,532.4v 14.5863"
     fill="none"
     stroke="black"
     id="path116" />
  <path
     d="M103.505,532.4v 14.5863"
     fill="none"
     stroke="black"
     id="path118" />
  <path
     d="M91.4748,539.693v 7.29315"
     fill="none"
     stroke="black"
     id="path120" />
  <path
     d="M79.4442,539.693v 7.29315"
     fill="none"
     stroke="black"
     id="path122" />
  <path
     d="M67.4136,539.693v 7.29315"
     fill="none"
     stroke="black"
     id="path124" />
  <path
     d="M464.424,532.4v 14.5863"
     fill="none"
     stroke="black"
     id="path126" />
  <path
     d="M476.454,539.693v 7.29315"
     fill="none"
     stroke="black"
     id="path128" />
  <path
     d="M488.485,539.693v 7.29315"
     fill="none"
     stroke="black"
     id="path130" />
  <path
     d="M500.516,539.693v 7.29315"
     fill="none"
     stroke="black"
     id="path132" />
  <text
     xml:space="preserve"
     x="103.47"
     y="566.929"
     fill="black"
     font-size="18.7041"
     font-family="Helvetica"
     id="text134">3</text>
  <text
     xml:space="preserve"
     x="93.4101"
     y="566.929"
     fill="black"
     font-size="18.7041"
     font-family="Times"
     id="text136">−</text>
  <text
     xml:space="preserve"
     x="163.241"
     y="566.929"
     fill="black"
     font-size="18.7041"
     font-family="Helvetica"
     id="text138">2</text>
  <text
     xml:space="preserve"
     x="153.18"
     y="566.929"
     fill="black"
     font-size="18.7041"
     font-family="Times"
     id="text140">−</text>
  <text
     xml:space="preserve"
     x="224.786"
     y="566.929"
     fill="black"
     font-size="18.7041"
     font-family="Helvetica"
     id="text142">1</text>
  <text
     xml:space="preserve"
     x="215.318"
     y="566.929"
     fill="black"
     font-size="18.7041"
     font-family="Times"
     id="text144">−</text>
  <text
     xml:space="preserve"
     x="279.23"
     y="566.929"
     fill="black"
     font-size="18.7041"
     font-family="Helvetica"
     id="text146">0</text>
  <text
     xml:space="preserve"
     x="340.184"
     y="566.929"
     fill="black"
     font-size="18.7041"
     font-family="Helvetica"
     id="text148">1</text>
  <text
     xml:space="preserve"
     x="399.362"
     y="566.929"
     fill="black"
     font-size="18.7041"
     font-family="Helvetica"
     id="text150">2</text>
  <text
     xml:space="preserve"
     x="459.133"
     y="566.929"
     fill="black"
     font-size="18.7041"
     font-family="Helvetica"
     id="text152">3</text>
  <text
     xml:space="preserve"
     x="468.009"
     y="582.315"
     fill="black"
     font-size="18.7041"
     font-family="Helvetica"
     id="text154"> (rad)</text>
  <text
     xml:space="preserve"
     x="450.256"
     y="591.784"
     fill="black"
     font-size="12.6361"
     font-family="Helvetica"
     id="text156">PQ</text>
  <text
     xml:space="preserve"
     x="440.787"
     y="582.315"
     fill="black"
     font-size="18.7041"
     font-family="Times"
     id="text158">φ</text>
  <path
     d="M57.1929,546.986v -486.21"
     fill="none"
     stroke="black"
     id="path160" />
  <path
     d="M70.7992,546.986h -13.6063"
     fill="none"
     stroke="black"
     id="path162" />
  <path
     d="M63.9961,528.263h -6.80315"
     fill="none"
     stroke="black"
     id="path164" />
  <path
     d="M63.9961,509.539h -6.80315"
     fill="none"
     stroke="black"
     id="path166" />
  <path
     d="M63.9961,490.816h -6.80315"
     fill="none"
     stroke="black"
     id="path168" />
  <path
     d="M63.9961,472.093h -6.80315"
     fill="none"
     stroke="black"
     id="path170" />
  <path
     d="M70.7992,453.369h -13.6063"
     fill="none"
     stroke="black"
     id="path172" />
  <path
     d="M63.9961,434.646h -6.80315"
     fill="none"
     stroke="black"
     id="path174" />
  <path
     d="M63.9961,415.923h -6.80315"
     fill="none"
     stroke="black"
     id="path176" />
  <path
     d="M63.9961,397.199h -6.80315"
     fill="none"
     stroke="black"
     id="path178" />
  <path
     d="M63.9961,378.476h -6.80315"
     fill="none"
     stroke="black"
     id="path180" />
  <path
     d="M70.7992,359.753h -13.6063"
     fill="none"
     stroke="black"
     id="path182" />
  <path
     d="M63.9961,341.029h -6.80315"
     fill="none"
     stroke="black"
     id="path184" />
  <path
     d="M63.9961,322.306h -6.80315"
     fill="none"
     stroke="black"
     id="path186" />
  <path
     d="M63.9961,303.583h -6.80315"
     fill="none"
     stroke="black"
     id="path188" />
  <path
     d="M63.9961,284.86h -6.80315"
     fill="none"
     stroke="black"
     id="path190" />
  <path
     d="M70.7992,266.136h -13.6063"
     fill="none"
     stroke="black"
     id="path192" />
  <path
     d="M63.9961,247.413h -6.80315"
     fill="none"
     stroke="black"
     id="path194" />
  <path
     d="M63.9961,228.69h -6.80315"
     fill="none"
     stroke="black"
     id="path196" />
  <path
     d="M63.9961,209.966h -6.80315"
     fill="none"
     stroke="black"
     id="path198" />
  <path
     d="M63.9961,191.243h -6.80315"
     fill="none"
     stroke="black"
     id="path200" />
  <path
     d="M70.7992,172.52h -13.6063"
     fill="none"
     stroke="black"
     id="path202" />
  <path
     d="M63.9961,153.796h -6.80315"
     fill="none"
     stroke="black"
     id="path204" />
  <path
     d="M63.9961,135.073h -6.80315"
     fill="none"
     stroke="black"
     id="path206" />
  <path
     d="M63.9961,116.35h -6.80315"
     fill="none"
     stroke="black"
     id="path208" />
  <path
     d="M63.9961,97.6264h -6.80315"
     fill="none"
     stroke="black"
     id="path210" />
  <path
     d="M70.7992,78.903h -13.6063"
     fill="none"
     stroke="black"
     id="path212" />
  <path
     d="M70.7992,78.903h -13.6063"
     fill="none"
     stroke="black"
     id="path214" />
  <text
     xml:space="preserve"
     x="44.8838"
     y="553.318"
     fill="black"
     font-size="18.7041"
     font-family="Helvetica"
     id="text216">0</text>
  <text
     xml:space="preserve"
     x="22.396"
     y="459.816"
     fill="black"
     font-size="18.7041"
     font-family="Helvetica"
     id="text218">0.01</text>
  <text
     xml:space="preserve"
     x="19.4371"
     y="365.723"
     fill="black"
     font-size="18.7041"
     font-family="Helvetica"
     id="text220">0.02</text>
  <text
     xml:space="preserve"
     x="19.4371"
     y="272.221"
     fill="black"
     font-size="18.7041"
     font-family="Helvetica"
     id="text222">0.03</text>
  <text
     xml:space="preserve"
     x="18.8453"
     y="178.719"
     fill="black"
     font-size="18.7041"
     font-family="Helvetica"
     id="text224">0.04</text>
  <text
     xml:space="preserve"
     x="19.4371"
     y="85.2169"
     fill="black"
     font-size="18.7041"
     font-family="Helvetica"
     id="text226">0.05</text>
  <g
     fill="#ff0000"
     id="g246">
    <rect
       x="108.369"
       y="156.358"
       width="4.73427"
       height="4.73427"
       id="rect228" />
    <rect
       x="150.364"
       y="139.949"
       width="4.73427"
       height="4.73427"
       id="rect230" />
    <rect
       x="192.359"
       y="168.951"
       width="4.73427"
       height="4.73427"
       id="rect232" />
    <rect
       x="234.353"
       y="300.523"
       width="4.73427"
       height="4.73427"
       id="rect234" />
    <rect
       x="276.348"
       y="347.772"
       width="4.73427"
       height="4.73427"
       id="rect236" />
    <rect
       x="318.343"
       y="234.478"
       width="4.73427"
       height="4.73427"
       id="rect238" />
    <rect
       x="360.338"
       y="147.166"
       width="4.73427"
       height="4.73427"
       id="rect240" />
    <rect
       x="402.332"
       y="104.678"
       width="4.73427"
       height="4.73427"
       id="rect242" />
    <rect
       x="444.327"
       y="133.647"
       width="4.73427"
       height="4.73427"
       id="rect244" />
  </g>
  <path
     d="M108.369,158.725h -13.3809"
     fill="none"
     stroke="black"
     id="path248" />
  <path
     d="M94.9882,159.908v -2.36714"
     fill="none"
     stroke="black"
     id="path250" />
  <path
     d="M113.103,158.725h 23.8796"
     fill="none"
     stroke="black"
     id="path252" />
  <path
     d="M136.983,159.908v -2.36714"
     fill="none"
     stroke="black"
     id="path254" />
  <path
     d="M150.364,142.316h -13.3809"
     fill="none"
     stroke="black"
     id="path256" />
  <path
     d="M136.983,143.5v -2.36714"
     fill="none"
     stroke="black"
     id="path258" />
  <path
     d="M155.098,142.316h 23.8796"
     fill="none"
     stroke="black"
     id="path260" />
  <path
     d="M178.978,143.5v -2.36714"
     fill="none"
     stroke="black"
     id="path262" />
  <path
     d="M192.359,171.318h -13.3809"
     fill="none"
     stroke="black"
     id="path264" />
  <path
     d="M178.978,172.502v -2.36714"
     fill="none"
     stroke="black"
     id="path266" />
  <path
     d="M197.093,171.318h 23.8796"
     fill="none"
     stroke="black"
     id="path268" />
  <path
     d="M220.972,172.502v -2.36714"
     fill="none"
     stroke="black"
     id="path270" />
  <path
     d="M234.353,302.89h -13.3809"
     fill="none"
     stroke="black"
     id="path272" />
  <path
     d="M220.972,304.073v -2.36714"
     fill="none"
     stroke="black"
     id="path274" />
  <path
     d="M239.088,302.89h 23.8796"
     fill="none"
     stroke="black"
     id="path276" />
  <path
     d="M262.967,304.073v -2.36714"
     fill="none"
     stroke="black"
     id="path278" />
  <path
     d="M276.348,350.139h -13.3809"
     fill="none"
     stroke="black"
     id="path280" />
  <path
     d="M262.967,351.323v -2.36714"
     fill="none"
     stroke="black"
     id="path282" />
  <path
     d="M281.082,350.139h 23.8796"
     fill="none"
     stroke="black"
     id="path284" />
  <path
     d="M304.962,351.323v -2.36714"
     fill="none"
     stroke="black"
     id="path286" />
  <path
     d="M318.343,236.845h -13.3809"
     fill="none"
     stroke="black"
     id="path288" />
  <path
     d="M304.962,238.029v -2.36714"
     fill="none"
     stroke="black"
     id="path290" />
  <path
     d="M323.077,236.845h 23.8796"
     fill="none"
     stroke="black"
     id="path292" />
  <path
     d="M346.957,238.029v -2.36714"
     fill="none"
     stroke="black"
     id="path294" />
  <path
     d="M360.338,149.533h -13.3809"
     fill="none"
     stroke="black"
     id="path296" />
  <path
     d="M346.957,150.717v -2.36714"
     fill="none"
     stroke="black"
     id="path298" />
  <path
     d="M365.072,149.533h 23.8796"
     fill="none"
     stroke="black"
     id="path300" />
  <path
     d="M388.951,150.717v -2.36714"
     fill="none"
     stroke="black"
     id="path302" />
  <path
     d="M402.332,107.046h -13.3809"
     fill="none"
     stroke="black"
     id="path304" />
  <path
     d="M388.951,108.229v -2.36714"
     fill="none"
     stroke="black"
     id="path306" />
  <path
     d="M407.067,107.046h 23.8796"
     fill="none"
     stroke="black"
     id="path308" />
  <path
     d="M430.946,108.229v -2.36714"
     fill="none"
     stroke="black"
     id="path310" />
  <path
     d="M444.327,136.014h -13.3809"
     fill="none"
     stroke="black"
     id="path312" />
  <path
     d="M430.946,137.198v -2.36714"
     fill="none"
     stroke="black"
     id="path314" />
  <path
     d="M449.061,136.014h 23.8796"
     fill="none"
     stroke="black"
     id="path316" />
  <path
     d="M472.941,137.198v -2.36714"
     fill="none"
     stroke="black"
     id="path318" />
  <path
     d="M113.618,258.213h -18.6302"
     fill="none"
     stroke="black"
     id="path320" />
  <path
     d="M94.9882,259.397v -2.36714"
     fill="none"
     stroke="black"
     id="path322" />
  <path
     d="M118.353,258.213h 18.6302"
     fill="none"
     stroke="black"
     id="path324" />
  <path
     d="M136.983,259.397v -2.36714"
     fill="none"
     stroke="black"
     id="path326" />
  <path
     d="M155.613,238.154h -18.6302"
     fill="none"
     stroke="black"
     id="path328" />
  <path
     d="M136.983,239.338v -2.36714"
     fill="none"
     stroke="black"
     id="path330" />
  <path
     d="M160.347,238.154h 18.6302"
     fill="none"
     stroke="black"
     id="path332" />
  <path
     d="M178.978,239.338v -2.36714"
     fill="none"
     stroke="black"
     id="path334" />
  <path
     d="M197.608,252.775h -18.6302"
     fill="none"
     stroke="black"
     id="path336" />
  <path
     d="M178.978,253.959v -2.36714"
     fill="none"
     stroke="black"
     id="path338" />
  <path
     d="M202.342,252.775h 18.6302"
     fill="none"
     stroke="black"
     id="path340" />
  <path
     d="M220.972,253.959v -2.36714"
     fill="none"
     stroke="black"
     id="path342" />
  <path
     d="M239.603,351.763h -18.6302"
     fill="none"
     stroke="black"
     id="path344" />
  <path
     d="M220.972,352.946v -2.36714"
     fill="none"
     stroke="black"
     id="path346" />
  <path
     d="M244.337,351.763h 18.6302"
     fill="none"
     stroke="black"
     id="path348" />
  <path
     d="M262.967,352.946v -2.36714"
     fill="none"
     stroke="black"
     id="path350" />
  <path
     d="M281.597,390.271h -18.6302"
     fill="none"
     stroke="black"
     id="path352" />
  <path
     d="M262.967,391.454v -2.36714"
     fill="none"
     stroke="black"
     id="path354" />
  <path
     d="M286.332,390.271h 18.6302"
     fill="none"
     stroke="black"
     id="path356" />
  <path
     d="M304.962,391.454v -2.36714"
     fill="none"
     stroke="black"
     id="path358" />
  <path
     d="M323.592,300.219h -18.6302"
     fill="none"
     stroke="black"
     id="path360" />
  <path
     d="M304.962,301.403v -2.36714"
     fill="none"
     stroke="black"
     id="path362" />
  <path
     d="M328.326,300.219h 18.6302"
     fill="none"
     stroke="black"
     id="path364" />
  <path
     d="M346.957,301.403v -2.36714"
     fill="none"
     stroke="black"
     id="path366" />
  <path
     d="M365.587,230.839h -18.6302"
     fill="none"
     stroke="black"
     id="path368" />
  <path
     d="M346.957,232.023v -2.36714"
     fill="none"
     stroke="black"
     id="path370" />
  <path
     d="M370.321,230.839h 18.6302"
     fill="none"
     stroke="black"
     id="path372" />
  <path
     d="M388.951,232.023v -2.36714"
     fill="none"
     stroke="black"
     id="path374" />
  <path
     d="M407.582,195.857h -18.6302"
     fill="none"
     stroke="black"
     id="path376" />
  <path
     d="M388.951,197.04v -2.36714"
     fill="none"
     stroke="black"
     id="path378" />
  <path
     d="M412.316,195.857h 18.6302"
     fill="none"
     stroke="black"
     id="path380" />
  <path
     d="M430.946,197.04v -2.36714"
     fill="none"
     stroke="black"
     id="path382" />
  <path
     d="M449.576,236.009h -18.6302"
     fill="none"
     stroke="black"
     id="path384" />
  <path
     d="M430.946,237.193v -2.36714"
     fill="none"
     stroke="black"
     id="path386" />
  <path
     d="M454.311,236.009h 18.6302"
     fill="none"
     stroke="black"
     id="path388" />
  <path
     d="M472.941,237.193v -2.36714"
     fill="none"
     stroke="black"
     id="path390" />
  <g
     fill="#0000ff"
     id="g410">
    <rect
       x="113.618"
       y="255.846"
       width="4.73427"
       height="4.73427"
       id="rect392" />
    <rect
       x="155.613"
       y="235.787"
       width="4.73427"
       height="4.73427"
       id="rect394" />
    <rect
       x="197.608"
       y="250.408"
       width="4.73427"
       height="4.73427"
       id="rect396" />
    <rect
       x="239.603"
       y="349.395"
       width="4.73427"
       height="4.73427"
       id="rect398" />
    <rect
       x="281.597"
       y="387.904"
       width="4.73427"
       height="4.73427"
       id="rect400" />
    <rect
       x="323.592"
       y="297.852"
       width="4.73427"
       height="4.73427"
       id="rect402" />
    <rect
       x="365.587"
       y="228.472"
       width="4.73427"
       height="4.73427"
       id="rect404" />
    <rect
       x="407.582"
       y="193.49"
       width="4.73427"
       height="4.73427"
       id="rect406" />
    <rect
       x="449.576"
       y="233.642"
       width="4.73427"
       height="4.73427"
       id="rect408" />
  </g>
  <path
     d="M118.868,358.685h -23.8796"
     fill="none"
     stroke="black"
     id="path412" />
  <path
     d="M94.9882,359.869v -2.36714"
     fill="none"
     stroke="black"
     id="path414" />
  <path
     d="M123.602,358.685h 13.3809"
     fill="none"
     stroke="black"
     id="path416" />
  <path
     d="M136.983,359.869v -2.36714"
     fill="none"
     stroke="black"
     id="path418" />
  <path
     d="M160.863,336.789h -23.8796"
     fill="none"
     stroke="black"
     id="path420" />
  <path
     d="M136.983,337.973v -2.36714"
     fill="none"
     stroke="black"
     id="path422" />
  <path
     d="M165.597,336.789h 13.3809"
     fill="none"
     stroke="black"
     id="path424" />
  <path
     d="M178.978,337.973v -2.36714"
     fill="none"
     stroke="black"
     id="path426" />
  <path
     d="M202.857,335.152h -23.8796"
     fill="none"
     stroke="black"
     id="path428" />
  <path
     d="M178.978,336.335v -2.36714"
     fill="none"
     stroke="black"
     id="path430" />
  <path
     d="M207.592,335.152h 13.3809"
     fill="none"
     stroke="black"
     id="path432" />
  <path
     d="M220.972,336.335v -2.36714"
     fill="none"
     stroke="black"
     id="path434" />
  <path
     d="M244.852,413.741h -23.8796"
     fill="none"
     stroke="black"
     id="path436" />
  <path
     d="M220.972,414.924v -2.36714"
     fill="none"
     stroke="black"
     id="path438" />
  <path
     d="M249.586,413.741h 13.3809"
     fill="none"
     stroke="black"
     id="path440" />
  <path
     d="M262.967,414.924v -2.36714"
     fill="none"
     stroke="black"
     id="path442" />
  <path
     d="M286.847,452.97h -23.8796"
     fill="none"
     stroke="black"
     id="path444" />
  <path
     d="M262.967,454.154v -2.36714"
     fill="none"
     stroke="black"
     id="path446" />
  <path
     d="M291.581,452.97h 13.3809"
     fill="none"
     stroke="black"
     id="path448" />
  <path
     d="M304.962,454.154v -2.36714"
     fill="none"
     stroke="black"
     id="path450" />
  <path
     d="M328.842,367.219h -23.8796"
     fill="none"
     stroke="black"
     id="path452" />
  <path
     d="M304.962,368.403v -2.36714"
     fill="none"
     stroke="black"
     id="path454" />
  <path
     d="M333.576,367.219h 13.3809"
     fill="none"
     stroke="black"
     id="path456" />
  <path
     d="M346.957,368.403v -2.36714"
     fill="none"
     stroke="black"
     id="path458" />
  <path
     d="M370.836,324.898h -23.8796"
     fill="none"
     stroke="black"
     id="path460" />
  <path
     d="M346.957,326.082v -2.36714"
     fill="none"
     stroke="black"
     id="path462" />
  <path
     d="M375.571,324.898h 13.3809"
     fill="none"
     stroke="black"
     id="path464" />
  <path
     d="M388.951,326.082v -2.36714"
     fill="none"
     stroke="black"
     id="path466" />
  <path
     d="M412.831,304.853h -23.8796"
     fill="none"
     stroke="black"
     id="path468" />
  <path
     d="M388.951,306.036v -2.36714"
     fill="none"
     stroke="black"
     id="path470" />
  <path
     d="M417.565,304.853h 13.3809"
     fill="none"
     stroke="black"
     id="path472" />
  <path
     d="M430.946,306.036v -2.36714"
     fill="none"
     stroke="black"
     id="path474" />
  <path
     d="M454.826,342.793h -23.8796"
     fill="none"
     stroke="black"
     id="path476" />
  <path
     d="M430.946,343.976v -2.36714"
     fill="none"
     stroke="black"
     id="path478" />
  <path
     d="M459.56,342.793h 13.3809"
     fill="none"
     stroke="black"
     id="path480" />
  <path
     d="M472.941,343.976v -2.36714"
     fill="none"
     stroke="black"
     id="path482" />
  <g
     fill="#00ff00"
     id="g502">
    <rect
       x="118.868"
       y="356.318"
       width="4.73427"
       height="4.73427"
       id="rect484" />
    <rect
       x="160.863"
       y="334.422"
       width="4.73427"
       height="4.73427"
       id="rect486" />
    <rect
       x="202.857"
       y="332.784"
       width="4.73427"
       height="4.73427"
       id="rect488" />
    <rect
       x="244.852"
       y="411.374"
       width="4.73427"
       height="4.73427"
       id="rect490" />
    <rect
       x="286.847"
       y="450.603"
       width="4.73427"
       height="4.73427"
       id="rect492" />
    <rect
       x="328.842"
       y="364.852"
       width="4.73427"
       height="4.73427"
       id="rect494" />
    <rect
       x="370.836"
       y="322.531"
       width="4.73427"
       height="4.73427"
       id="rect496" />
    <rect
       x="412.831"
       y="302.485"
       width="4.73427"
       height="4.73427"
       id="rect498" />
    <rect
       x="454.826"
       y="340.425"
       width="4.73427"
       height="4.73427"
       id="rect500" />
  </g>
  <rect
     x="199.044"
     y="72.1977"
     width="169.842"
     height="60.362"
     fill="white"
     id="rect504" />
  <path
     d="M199.044,132.56h 169.842"
     fill="none"
     stroke="black"
     id="path506" />
  <path
     d="M368.886,132.56v -60.362"
     fill="none"
     stroke="black"
     id="path508" />
  <path
     d="M368.886,72.1977h -169.842"
     fill="none"
     stroke="black"
     id="path510" />
  <path
     d="M199.044,72.1977v 60.362"
     fill="none"
     stroke="black"
     id="path512" />
  <text
     xml:space="preserve"
     x="241.356"
     y="86.4005"
     fill="black"
     font-size="13.6676"
     font-family="Helvetica"
     id="text514">DC</text>
  <path
     d="M205.413,82.258h 29.7224"
     fill="none"
     stroke="black"
     id="path516" />
  <g
     fill="#ff0000"
     id="g520">
    <rect
       x="217.907"
       y="79.8908"
       width="4.73427"
       height="4.73427"
       id="rect518" />
  </g>
  <text
     xml:space="preserve"
     x="241.356"
     y="106.521"
     fill="black"
     font-size="13.6676"
     font-family="Helvetica"
     id="text522">FMT - 2 layers</text>
  <path
     d="M205.413,102.379h 29.7224"
     fill="none"
     stroke="black"
     id="path524" />
  <g
     fill="#0000ff"
     id="g528">
    <rect
       x="217.907"
       y="100.012"
       width="4.73427"
       height="4.73427"
       id="rect526" />
  </g>
  <text
     xml:space="preserve"
     x="241.356"
     y="126.642"
     fill="black"
     font-size="13.6676"
     font-family="Helvetica"
     id="text530">FMT - 3 layers</text>
  <path
     d="M205.413,122.499h 29.7224"
     fill="none"
     stroke="black"
     id="path532" />
  <g
     fill="#00ff00"
     id="g536">
    <rect
       x="217.907"
       y="120.132"
       width="4.73427"
       height="4.73427"
       id="rect534" />
  </g>
  <g
     id="g834"
     transform="translate(25.799251)">
    <text
       xml:space="preserve"
       x="219.46001"
       y="31.364599"
       fill="#000000"
       font-size="11.1807px"
       font-family="Helvetica"
       font-weight="bold"
       id="text540"> (rad) acceptance</text>
    <text
       xml:space="preserve"
       x="209.39999"
       y="37.282398"
       fill="#000000"
       font-size="7.62047px"
       font-family="Helvetica"
       font-weight="bold"
       id="text542">PQ</text>
    <text
       xml:space="preserve"
       x="204.07401"
       y="31.364599"
       fill="#000000"
       font-size="11.1807px"
       font-family="Times"
       id="text544">φ</text>
  </g>
</svg>
