<?xml version="1.0" encoding="UTF-8" standalone="no"?>
<svg
   width="766.52441"
   height="606.4209"
   version="1.1"
   id="svg354"
   sodipodi:docname="22phipq_acc_211.svg"
   inkscape:version="1.2.2 (1:1.2.2+202305151914+b0a8486541)"
   inkscape:export-filename="22phipq_acc_211.pdf"
   inkscape:export-xdpi="96"
   inkscape:export-ydpi="96"
   xmlns:inkscape="http://www.inkscape.org/namespaces/inkscape"
   xmlns:sodipodi="http://sodipodi.sourceforge.net/DTD/sodipodi-0.dtd"
   xmlns="http://www.w3.org/2000/svg"
   xmlns:svg="http://www.w3.org/2000/svg">
  <defs
     id="defs358" />
  <sodipodi:namedview
     id="namedview356"
     pagecolor="#ffffff"
     bordercolor="#666666"
     borderopacity="1.0"
     inkscape:showpageshadow="2"
     inkscape:pageopacity="0.0"
     inkscape:pagecheckerboard="0"
     inkscape:deskcolor="#d1d1d1"
     showgrid="false"
     inkscape:zoom="0.71515151"
     inkscape:cx="293.64407"
     inkscape:cy="276.86441"
     inkscape:window-width="1920"
     inkscape:window-height="1051"
     inkscape:window-x="0"
     inkscape:window-y="0"
     inkscape:window-maximized="1"
     inkscape:current-layer="svg354" />
  <g
     transform="translate(29,27.775391)"
     id="g268">
    <title
       id="title4" />
    <path
       d="M 0,0 H 734 V 528 H 0 Z"
       style="fill:#ffffff;stroke:#000000;stroke-width:1"
       id="path6" />
    <g
       id="g12">
      <path
         d="M 75,0 V 528 M 172,0 V 528 M 270,0 V 528 M 367,0 V 528 M 464,0 V 528 M 562,0 V 528 M 659,0 v 528"
         style="stroke:#000000;stroke-width:1;stroke-dasharray:1, 2"
         id="path8" />
      <path
         d="M 0,528 H 734 M 0,477 H 734 M 0,426 H 734 M 0,375 H 734 M 0,324 H 734 M 0,273 H 734 M 0,222 H 734 M 0,171 H 734 M 0,120 H 734 M 0,69 H 734 M 0,18 h 734"
         style="stroke:#000000;stroke-width:1;stroke-dasharray:1, 2"
         id="path10" />
    </g>
    <svg
       x="0"
       y="0"
       overflow="hidden"
       width="734"
       height="528"
       viewBox="0 0 734 528"
       version="1.1"
       id="svg178">
      <g
         id="g94">
        <g
           transform="translate(82,111)"
           id="g18">
          <path
             d="M -21,2 H 26 V -2 H -21 Z"
             style="fill:none"
             id="path14" />
          <path
             d="m 0,0 h -21 m 0,3 V -3 M 0,0 h 26 m 0,3 V -3 M 0,0 V 2 M 3,2 H -3 M 0,0 v -2 m 3,0 h -6"
             style="fill:none;stroke:#000000;stroke-width:1"
             id="path16" />
        </g>
        <g
           transform="translate(129,90)"
           id="g24">
          <path
             d="M -21,2 H 26 V -2 H -21 Z"
             style="fill:none"
             id="path20" />
          <path
             d="m 0,0 h -21 m 0,3 V -3 M 0,0 h 26 m 0,3 V -3 M 0,0 V 2 M 3,2 H -3 M 0,0 v -2 m 3,0 h -6"
             style="fill:none;stroke:#000000;stroke-width:1"
             id="path22" />
        </g>
        <g
           transform="translate(176,89)"
           id="g30">
          <path
             d="M -21,2 H 26 V -2 H -21 Z"
             style="fill:none"
             id="path26" />
          <path
             d="m 0,0 h -21 m 0,3 V -3 M 0,0 h 26 m 0,3 V -3 M 0,0 V 2 M 3,2 H -3 M 0,0 v -2 m 3,0 h -6"
             style="fill:none;stroke:#000000;stroke-width:1"
             id="path28" />
        </g>
        <g
           transform="translate(223,111)"
           id="g36">
          <path
             d="M -21,2 H 26 V -2 H -21 Z"
             style="fill:none"
             id="path32" />
          <path
             d="m 0,0 h -21 m 0,3 V -3 M 0,0 h 26 m 0,3 V -3 M 0,0 V 2 M 3,2 H -3 M 0,0 v -2 m 3,0 h -6"
             style="fill:none;stroke:#000000;stroke-width:1"
             id="path34" />
        </g>
        <g
           transform="translate(270,192)"
           id="g42">
          <path
             d="M -21,2 H 26 V -2 H -21 Z"
             style="fill:none"
             id="path38" />
          <path
             d="m 0,0 h -21 m 0,3 V -3 M 0,0 h 26 m 0,3 V -3 M 0,0 V 2 M 3,2 H -3 M 0,0 v -2 m 3,0 h -6"
             style="fill:none;stroke:#000000;stroke-width:1"
             id="path40" />
        </g>
        <g
           transform="translate(317,311)"
           id="g48">
          <path
             d="M -21,2 H 26 V -2 H -21 Z"
             style="fill:none"
             id="path44" />
          <path
             d="m 0,0 h -21 m 0,3 V -3 M 0,0 h 26 m 0,3 V -3 M 0,0 V 2 M 3,2 H -3 M 0,0 v -2 m 3,0 h -6"
             style="fill:none;stroke:#000000;stroke-width:1"
             id="path46" />
        </g>
        <g
           transform="translate(364,316)"
           id="g54">
          <path
             d="M -21,2 H 26 V -2 H -21 Z"
             style="fill:none"
             id="path50" />
          <path
             d="m 0,0 h -21 m 0,3 V -3 M 0,0 h 26 m 0,3 V -3 M 0,0 V 2 M 3,2 H -3 M 0,0 v -2 m 3,0 h -6"
             style="fill:none;stroke:#000000;stroke-width:1"
             id="path52" />
        </g>
        <g
           transform="translate(411,247)"
           id="g60">
          <path
             d="M -21,2 H 26 V -2 H -21 Z"
             style="fill:none"
             id="path56" />
          <path
             d="m 0,0 h -21 m 0,3 V -3 M 0,0 h 26 m 0,3 V -3 M 0,0 V 2 M 3,2 H -3 M 0,0 v -2 m 3,0 h -6"
             style="fill:none;stroke:#000000;stroke-width:1"
             id="path58" />
        </g>
        <g
           transform="translate(458,125)"
           id="g66">
          <path
             d="M -21,2 H 26 V -2 H -21 Z"
             style="fill:none"
             id="path62" />
          <path
             d="m 0,0 h -21 m 0,3 V -3 M 0,0 h 26 m 0,3 V -3 M 0,0 V 2 M 3,2 H -3 M 0,0 v -2 m 3,0 h -6"
             style="fill:none;stroke:#000000;stroke-width:1"
             id="path64" />
        </g>
        <g
           transform="translate(505,94)"
           id="g72">
          <path
             d="M -21,2 H 26 V -2 H -21 Z"
             style="fill:none"
             id="path68" />
          <path
             d="m 0,0 h -21 m 0,3 V -3 M 0,0 h 26 m 0,3 V -3 M 0,0 V 2 M 3,2 H -3 M 0,0 v -2 m 3,0 h -6"
             style="fill:none;stroke:#000000;stroke-width:1"
             id="path70" />
        </g>
        <g
           transform="translate(552,58)"
           id="g78">
          <path
             d="M -21,3 H 26 V -3 H -21 Z"
             style="fill:none"
             id="path74" />
          <path
             d="m 0,0 h -21 m 0,3 V -3 M 0,0 h 26 m 0,3 V -3 M 0,0 V 3 M 3,3 H -3 M 0,0 v -3 m 3,0 h -6"
             style="fill:none;stroke:#000000;stroke-width:1"
             id="path76" />
        </g>
        <g
           transform="translate(599,51)"
           id="g84">
          <path
             d="M -21,3 H 26 V -3 H -21 Z"
             style="fill:none"
             id="path80" />
          <path
             d="m 0,0 h -21 m 0,3 V -3 M 0,0 h 26 m 0,3 V -3 M 0,0 V 3 M 3,3 H -3 M 0,0 v -3 m 3,0 h -6"
             style="fill:none;stroke:#000000;stroke-width:1"
             id="path82" />
        </g>
        <g
           transform="translate(646,89)"
           id="g90">
          <path
             d="M -21,2 H 26 V -2 H -21 Z"
             style="fill:none"
             id="path86" />
          <path
             d="m 0,0 h -21 m 0,3 V -3 M 0,0 h 26 m 0,3 V -3 M 0,0 V 2 M 3,2 H -3 M 0,0 v -2 m 3,0 h -6"
             style="fill:none;stroke:#000000;stroke-width:1"
             id="path88" />
        </g>
        <path
           d="m 78,107 v 8 h 8 v -8 z m 47,-21 v 8 h 8 v -8 z m 47,-1 v 8 h 8 v -8 z m 47,22 v 8 h 8 v -8 z m 47,81 v 8 h 8 v -8 z m 47,119 v 8 h 8 v -8 z m 47,5 v 8 h 8 v -8 z m 47,-69 v 8 h 8 v -8 z m 47,-122 v 8 h 8 v -8 z m 47,-31 v 8 h 8 v -8 z m 47,-36 v 8 h 8 v -8 z m 47,-7 v 8 h 8 v -8 z m 47,38 v 8 h 8 v -8 z"
           style="fill:#ff0000;stroke:#ff0000"
           id="path92" />
      </g>
      <g
         id="g176">
        <g
           transform="translate(88,219)"
           id="g100">
          <path
             d="M -26,2 H 21 V -2 H -26 Z"
             style="fill:none"
             id="path96" />
          <path
             d="m 0,0 h -26 m 0,3 V -3 M 0,0 h 21 m 0,3 V -3 M 0,0 V 2 M 3,2 H -3 M 0,0 v -2 m 3,0 h -6"
             style="fill:none;stroke:#000000;stroke-width:1"
             id="path98" />
        </g>
        <g
           transform="translate(135,200)"
           id="g106">
          <path
             d="M -26,2 H 21 V -2 H -26 Z"
             style="fill:none"
             id="path102" />
          <path
             d="m 0,0 h -26 m 0,3 V -3 M 0,0 h 21 m 0,3 V -3 M 0,0 V 2 M 3,2 H -3 M 0,0 v -2 m 3,0 h -6"
             style="fill:none;stroke:#000000;stroke-width:1"
             id="path104" />
        </g>
        <g
           transform="translate(182,189)"
           id="g112">
          <path
             d="M -26,2 H 21 V -2 H -26 Z"
             style="fill:none"
             id="path108" />
          <path
             d="m 0,0 h -26 m 0,3 V -3 M 0,0 h 21 m 0,3 V -3 M 0,0 V 2 M 3,2 H -3 M 0,0 v -2 m 3,0 h -6"
             style="fill:none;stroke:#000000;stroke-width:1"
             id="path110" />
        </g>
        <g
           transform="translate(229,202)"
           id="g118">
          <path
             d="M -26,2 H 21 V -2 H -26 Z"
             style="fill:none"
             id="path114" />
          <path
             d="m 0,0 h -26 m 0,3 V -3 M 0,0 h 21 m 0,3 V -3 M 0,0 V 2 M 3,2 H -3 M 0,0 v -2 m 3,0 h -6"
             style="fill:none;stroke:#000000;stroke-width:1"
             id="path116" />
        </g>
        <g
           transform="translate(276,261)"
           id="g124">
          <path
             d="M -26,2 H 21 V -2 H -26 Z"
             style="fill:none"
             id="path120" />
          <path
             d="m 0,0 h -26 m 0,3 V -3 M 0,0 h 21 m 0,3 V -3 M 0,0 V 2 M 3,2 H -3 M 0,0 v -2 m 3,0 h -6"
             style="fill:none;stroke:#000000;stroke-width:1"
             id="path122" />
        </g>
        <g
           transform="translate(323,355)"
           id="g130">
          <path
             d="M -26,2 H 21 V -2 H -26 Z"
             style="fill:none"
             id="path126" />
          <path
             d="m 0,0 h -26 m 0,3 V -3 M 0,0 h 21 m 0,3 V -3 M 0,0 V 2 M 3,2 H -3 M 0,0 v -2 m 3,0 h -6"
             style="fill:none;stroke:#000000;stroke-width:1"
             id="path128" />
        </g>
        <g
           transform="translate(370,358)"
           id="g136">
          <path
             d="M -26,2 H 21 V -2 H -26 Z"
             style="fill:none"
             id="path132" />
          <path
             d="m 0,0 h -26 m 0,3 V -3 M 0,0 h 21 m 0,3 V -3 M 0,0 V 2 M 3,2 H -3 M 0,0 v -2 m 3,0 h -6"
             style="fill:none;stroke:#000000;stroke-width:1"
             id="path134" />
        </g>
        <g
           transform="translate(417,308)"
           id="g142">
          <path
             d="M -26,2 H 21 V -2 H -26 Z"
             style="fill:none"
             id="path138" />
          <path
             d="m 0,0 h -26 m 0,3 V -3 M 0,0 h 21 m 0,3 V -3 M 0,0 V 2 M 3,2 H -3 M 0,0 v -2 m 3,0 h -6"
             style="fill:none;stroke:#000000;stroke-width:1"
             id="path140" />
        </g>
        <g
           transform="translate(464,203)"
           id="g148">
          <path
             d="M -26,2 H 21 V -2 H -26 Z"
             style="fill:none"
             id="path144" />
          <path
             d="m 0,0 h -26 m 0,3 V -3 M 0,0 h 21 m 0,3 V -3 M 0,0 V 2 M 3,2 H -3 M 0,0 v -2 m 3,0 h -6"
             style="fill:none;stroke:#000000;stroke-width:1"
             id="path146" />
        </g>
        <g
           transform="translate(511,183)"
           id="g154">
          <path
             d="M -26,2 H 21 V -2 H -26 Z"
             style="fill:none"
             id="path150" />
          <path
             d="m 0,0 h -26 m 0,3 V -3 M 0,0 h 21 m 0,3 V -3 M 0,0 V 2 M 3,2 H -3 M 0,0 v -2 m 3,0 h -6"
             style="fill:none;stroke:#000000;stroke-width:1"
             id="path152" />
        </g>
        <g
           transform="translate(558,153)"
           id="g160">
          <path
             d="M -26,2 H 21 V -2 H -26 Z"
             style="fill:none"
             id="path156" />
          <path
             d="m 0,0 h -26 m 0,3 V -3 M 0,0 h 21 m 0,3 V -3 M 0,0 V 2 M 3,2 H -3 M 0,0 v -2 m 3,0 h -6"
             style="fill:none;stroke:#000000;stroke-width:1"
             id="path158" />
        </g>
        <g
           transform="translate(605,152)"
           id="g166">
          <path
             d="M -26,2 H 21 V -2 H -26 Z"
             style="fill:none"
             id="path162" />
          <path
             d="m 0,0 h -26 m 0,3 V -3 M 0,0 h 21 m 0,3 V -3 M 0,0 V 2 M 3,2 H -3 M 0,0 v -2 m 3,0 h -6"
             style="fill:none;stroke:#000000;stroke-width:1"
             id="path164" />
        </g>
        <g
           transform="translate(652,200)"
           id="g172">
          <path
             d="M -26,2 H 21 V -2 H -26 Z"
             style="fill:none"
             id="path168" />
          <path
             d="m 0,0 h -26 m 0,3 V -3 M 0,0 h 21 m 0,3 V -3 M 0,0 V 2 M 3,2 H -3 M 0,0 v -2 m 3,0 h -6"
             style="fill:none;stroke:#000000;stroke-width:1"
             id="path170" />
        </g>
        <path
           d="m 84,215 v 8 h 8 v -8 z m 47,-19 v 8 h 8 v -8 z m 47,-11 v 8 h 8 v -8 z m 47,13 v 8 h 8 v -8 z m 47,59 v 8 h 8 v -8 z m 47,94 v 8 h 8 v -8 z m 47,3 v 8 h 8 v -8 z m 47,-50 v 8 h 8 v -8 z m 47,-105 v 8 h 8 v -8 z m 47,-20 v 8 h 8 v -8 z m 47,-30 v 8 h 8 v -8 z m 47,-1 v 8 h 8 v -8 z m 47,48 v 8 h 8 v -8 z"
           style="fill:#0000ff;stroke:#0000ff"
           id="path174" />
      </g>
    </svg>
    <g
       id="g248">
      <g
         transform="translate(0,528)"
         id="g210">
        <path
           d="M 0,0 H 734 M 17,-10 V 0 M 36,-10 V 0 M 55,-10 V 0 M 75,-20 V 0 M 94,-10 V 0 m 20,-10 V 0 m 19,-10 V 0 m 20,-10 V 0 m 19,-20 V 0 m 20,-10 V 0 m 19,-10 V 0 m 20,-10 V 0 m 19,-10 V 0 m 20,-20 V 0 m 19,-10 V 0 m 20,-10 V 0 m 19,-10 V 0 m 20,-10 V 0 m 19,-20 V 0 m 19,-10 V 0 m 20,-10 V 0 m 19,-10 V 0 m 20,-10 V 0 m 19,-20 V 0 m 20,-10 V 0 m 19,-10 V 0 m 20,-10 V 0 m 19,-10 V 0 m 20,-20 V 0 m 19,-10 V 0 m 20,-10 V 0 m 19,-10 V 0 m 20,-10 V 0 m 19,-20 V 0 m 20,-10 V 0 m 19,-10 V 0 m 19,-10 V 0"
           style="stroke:#000000;stroke-width:1"
           id="path180" />
        <g
           font-family="Arial"
           font-size="23px"
           xml:space="preserve"
           fill="#000000"
           text-anchor="middle"
           id="g196"><text
             dy="0.80000001em"
             transform="translate(75,5)"
             id="text182">-3</text><text
             dy="0.80000001em"
             transform="translate(172,5)"
             id="text184">-2</text><text
             dy="0.80000001em"
             transform="translate(270,5)"
             id="text186">-1</text><text
             dy="0.80000001em"
             transform="translate(367,5)"
             id="text188">0</text><text
             dy="0.80000001em"
             transform="translate(464,5)"
             id="text190">1</text><text
             dy="0.80000001em"
             transform="translate(562,5)"
             id="text192">2</text><text
             dy="0.80000001em"
             transform="translate(659,5)"
             id="text194">3</text></g>
        <rect
           x="0"
           y="0"
           width="734"
           height="26"
           style="opacity:0"
           id="rect198" />
        <g
           font-family="Arial"
           font-size="23px"
           xml:space="preserve"
           transform="translate(734,37)"
           id="g208"><g
             transform="translate(-85,7)"
             id="g206"><text
               fill="#000000"
               font-size="23px"
               id="text200">φ</text><text
               fill="#000000"
               font-size="14px"
               transform="translate(15,4)"
               id="text202">PQ</text><text
               fill="#000000"
               font-size="23px"
               x="35"
               id="text204"> (rad)</text></g></g>
      </g>
      <g
         id="g246">
        <path
           d="m 0,0 v 528 m 28,0 H 0 M 14,518 H 0 M 14,508 H 0 M 14,497 H 0 M 14,487 H 0 M 28,477 H 0 M 14,467 H 0 M 14,457 H 0 M 14,446 H 0 M 14,436 H 0 M 28,426 H 0 M 14,416 H 0 M 14,406 H 0 M 14,395 H 0 M 14,385 H 0 M 28,375 H 0 M 14,365 H 0 M 14,355 H 0 M 14,344 H 0 M 14,334 H 0 M 28,324 H 0 M 14,314 H 0 M 14,304 H 0 M 14,293 H 0 M 14,283 H 0 M 28,273 H 0 M 14,263 H 0 M 14,253 H 0 M 14,242 H 0 M 14,232 H 0 M 28,222 H 0 M 14,212 H 0 M 14,202 H 0 M 14,191 H 0 M 14,181 H 0 M 28,171 H 0 M 14,161 H 0 M 14,151 H 0 M 14,140 H 0 M 14,130 H 0 M 28,120 H 0 M 14,110 H 0 M 14,100 H 0 M 14,90 H 0 M 14,79 H 0 M 28,69 H 0 M 14,59 H 0 M 14,49 H 0 M 14,39 H 0 M 14,28 H 0 M 28,18 H 0 M 14,8 H 0"
           style="stroke:#000000;stroke-width:1"
           id="path212" />
        <g
           font-family="Arial"
           font-size="23px"
           xml:space="preserve"
           id="g242"><text
             fill="#000000"
             text-anchor="end"
             dominant-baseline="middle"
             transform="translate(-3,528)"
             id="text214">0</text><text
             fill="#000000"
             text-anchor="end"
             dominant-baseline="middle"
             transform="translate(-3,477)"
             id="text216">5</text><text
             fill="#000000"
             text-anchor="end"
             dominant-baseline="middle"
             transform="translate(-3,426)"
             id="text218">10</text><text
             fill="#000000"
             text-anchor="end"
             dominant-baseline="middle"
             transform="translate(-3,375)"
             id="text220">15</text><text
             fill="#000000"
             text-anchor="end"
             dominant-baseline="middle"
             transform="translate(-3,324)"
             id="text222">20</text><text
             fill="#000000"
             text-anchor="end"
             dominant-baseline="middle"
             transform="translate(-3,273)"
             id="text224">25</text><text
             fill="#000000"
             text-anchor="end"
             dominant-baseline="middle"
             transform="translate(-3,222)"
             id="text226">30</text><text
             fill="#000000"
             text-anchor="end"
             dominant-baseline="middle"
             transform="translate(-3,171)"
             id="text228">35</text><text
             fill="#000000"
             text-anchor="end"
             dominant-baseline="middle"
             transform="translate(-3,120)"
             id="text230">40</text><text
             fill="#000000"
             text-anchor="end"
             dominant-baseline="middle"
             transform="translate(-3,69)"
             id="text232">45</text><text
             fill="#000000"
             text-anchor="end"
             dominant-baseline="middle"
             transform="translate(-3,18)"
             id="text234">50</text><g
             transform="translate(5,-8)"
             id="g240"><text
               fill="#000000"
               font-size="23px"
               id="text236">×10</text><text
               fill="#000000"
               font-size="14px"
               transform="translate(39,-10)"
               id="text238">-3</text></g></g>
        <rect
           x="-29"
           y="0"
           width="29"
           height="528"
           style="opacity:0"
           id="rect244" />
      </g>
    </g>
    <path
       d="M 2,2 H 17 V -3 H -3 v 20 h 5 z"
       style="opacity:0"
       id="path250" />
    <path
       d="m 732,2 h -15 v -5 h 20 v 20 h -5 z"
       style="opacity:0"
       id="path252" />
    <path
       d="m 2,526 h 15 v 5 H -3 v -20 h 5 z"
       style="opacity:0"
       id="path254" />
    <path
       d="m 732,526 h -15 v 5 h 20 v -20 h -5 z"
       style="opacity:0"
       id="path256" />
    <path
       d="M -3,18 H 2 V 510 H -3 Z"
       style="opacity:0"
       id="path258" />
    <path
       d="m 737,18 h -5 v 492 h 5 z"
       style="opacity:0"
       id="path260" />
    <path
       d="M 18,-3 V 2 H 716 V -3 Z"
       style="opacity:0"
       id="path262" />
    <path
       d="m 18,531 v -5 h 698 v 5 z"
       style="opacity:0"
       id="path264" />
    <style
       id="style266">
.jsroot rect.h1bin { stroke: #4572A7; fill: #4572A7; opacity: 0; }
.jsroot rect.zoom { stroke: steelblue; fill-opacity: 0.1; }
.jsroot path.zoom { stroke: steelblue; fill-opacity: 0.1; }
.jsroot svg:not(:root) { overflow: hidden; }</style>
  </g>
  <g
     transform="translate(66.459919,40.775391)"
     font-family="Arial"
     font-size="26px"
     xml:space="preserve"
     id="g300"><path
       d="M 0,0 H 96 V 63 H 0 Z"
       style="fill:#ffffff;stroke:#000000;stroke-width:1"
       id="path270" /><path
       d="M 3,17 H 21"
       style="stroke:#000000;stroke-width:1"
       id="path272" /><path
       d="m 8,13 v 8 h 8 v -8 z"
       style="fill:#ff0000;stroke:#ff0000"
       id="path274" /><text
       fill="#000000"
       text-anchor="start"
       dominant-baseline="middle"
       transform="translate(24,17)"
       id="text276">DC</text><path
       d="M 3,46 H 21"
       style="stroke:#000000;stroke-width:1"
       id="path278" /><path
       d="m 8,42 v 8 h 8 v -8 z"
       style="fill:#0000ff;stroke:#0000ff"
       id="path280" /><text
       fill="#000000"
       text-anchor="start"
       dominant-baseline="middle"
       transform="translate(24,47)"
       id="text282">FMT</text><path
       d="M 2,2 H 17 V -3 H -3 v 20 h 5 z"
       style="opacity:0"
       id="path284" /><path
       d="M 94,2 H 79 v -5 h 20 v 20 h -5 z"
       style="opacity:0"
       id="path286" /><path
       d="m 2,61 h 15 v 5 H -3 V 46 h 5 z"
       style="opacity:0"
       id="path288" /><path
       d="M 94,61 H 79 v 5 H 99 V 46 h -5 z"
       style="opacity:0"
       id="path290" /><path
       d="M -3,18 H 2 V 45 H -3 Z"
       style="opacity:0"
       id="path292" /><path
       d="m 99,18 h -5 v 27 h 5 z"
       style="opacity:0"
       id="path294" /><path
       d="M 18,-3 V 2 H 78 V -3 Z"
       style="opacity:0"
       id="path296" /><path
       d="m 18,66 v -5 h 60 v 5 z"
       style="opacity:0"
       id="path298" /></g>
</svg>
