<?xml version="1.0" encoding="UTF-8" standalone="no"?>
<svg
   width="796.82983"
   height="580.77295"
   version="1.1"
   id="svg326"
   sodipodi:docname="22pt2_acc_211.svg"
   inkscape:version="1.2.2 (1:1.2.2+202305151914+b0a8486541)"
   inkscape:export-filename="22pt2_acc_211.pdf"
   inkscape:export-xdpi="96"
   inkscape:export-ydpi="96"
   xmlns:inkscape="http://www.inkscape.org/namespaces/inkscape"
   xmlns:sodipodi="http://sodipodi.sourceforge.net/DTD/sodipodi-0.dtd"
   xmlns="http://www.w3.org/2000/svg"
   xmlns:svg="http://www.w3.org/2000/svg">
  <defs
     id="defs330" />
  <sodipodi:namedview
     id="namedview328"
     pagecolor="#ffffff"
     bordercolor="#666666"
     borderopacity="1.0"
     inkscape:showpageshadow="2"
     inkscape:pageopacity="0.0"
     inkscape:pagecheckerboard="0"
     inkscape:deskcolor="#d1d1d1"
     showgrid="false"
     inkscape:zoom="0.50568849"
     inkscape:cx="201.7052"
     inkscape:cy="239.27774"
     inkscape:window-width="1920"
     inkscape:window-height="1051"
     inkscape:window-x="0"
     inkscape:window-y="0"
     inkscape:window-maximized="1"
     inkscape:current-layer="svg326" />
  <g
     transform="translate(48,3)"
     id="g234">
    <title
       id="title4" />
    <path
       d="M 0,0 H 734 V 528 H 0 Z"
       style="fill:#ffffff;stroke:#000000;stroke-width:1"
       id="path6" />
    <g
       id="g12">
      <path
         d="M 0,0 V 528 M 67,0 V 528 M 133,0 V 528 M 200,0 V 528 M 267,0 V 528 M 334,0 V 528 M 400,0 V 528 M 467,0 V 528 M 534,0 V 528 M 601,0 V 528 M 667,0 V 528 M 734,0 v 528"
         style="stroke:#000000;stroke-width:1;stroke-dasharray:1, 2"
         id="path8" />
      <path
         d="M 0,528 H 734 M 0,445 H 734 M 0,362 H 734 M 0,279 H 734 M 0,196 H 734 M 0,113 H 734 M 0,30 h 734"
         style="stroke:#000000;stroke-width:1;stroke-dasharray:1, 2"
         id="path10" />
    </g>
    <svg
       x="0"
       y="0"
       overflow="hidden"
       width="734"
       height="528"
       viewBox="0 0 734 528"
       version="1.1"
       id="svg142">
      <g
         id="g76">
        <g
           transform="translate(29,466)"
           id="g18">
          <path
             d="M -29,0 H 38 V 0 Z"
             style="fill:none"
             id="path14" />
          <path
             d="m 0,0 h -29 m 0,3 V -3 M 0,0 h 38 m 0,3 V -3 M 0,0 m 3,0 h -6 m 3,0 m 3,0 h -6"
             style="fill:none;stroke:#000000;stroke-width:1"
             id="path16" />
        </g>
        <g
           transform="translate(96,457)"
           id="g24">
          <path
             d="M -29,0 H 38 V 0 Z"
             style="fill:none"
             id="path20" />
          <path
             d="m 0,0 h -29 m 0,3 V -3 M 0,0 h 38 m 0,3 V -3 M 0,0 m 3,0 h -6 m 3,0 m 3,0 h -6"
             style="fill:none;stroke:#000000;stroke-width:1"
             id="path22" />
        </g>
        <g
           transform="translate(163,474)"
           id="g30">
          <path
             d="M -29,1 H 38 V -1 H -29 Z"
             style="fill:none"
             id="path26" />
          <path
             d="m 0,0 h -29 m 0,3 V -3 M 0,0 h 38 m 0,3 V -3 M 0,0 V 1 M 3,1 H -3 M 0,0 v -1 m 3,0 h -6"
             style="fill:none;stroke:#000000;stroke-width:1"
             id="path28" />
        </g>
        <g
           transform="translate(229,488)"
           id="g36">
          <path
             d="M -29,1 H 38 V -1 H -29 Z"
             style="fill:none"
             id="path32" />
          <path
             d="m 0,0 h -29 m 0,3 V -3 M 0,0 h 38 m 0,3 V -3 M 0,0 V 1 M 3,1 H -3 M 0,0 v -1 m 3,0 h -6"
             style="fill:none;stroke:#000000;stroke-width:1"
             id="path34" />
        </g>
        <g
           transform="translate(296,489)"
           id="g42">
          <path
             d="M -29,1 H 38 V -1 H -29 Z"
             style="fill:none"
             id="path38" />
          <path
             d="m 0,0 h -29 m 0,3 V -3 M 0,0 h 38 m 0,3 V -3 M 0,0 V 1 M 3,1 H -3 M 0,0 v -1 m 3,0 h -6"
             style="fill:none;stroke:#000000;stroke-width:1"
             id="path40" />
        </g>
        <g
           transform="translate(363,489)"
           id="g48">
          <path
             d="M -29,1 H 38 V -1 H -29 Z"
             style="fill:none"
             id="path44" />
          <path
             d="m 0,0 h -29 m 0,3 V -3 M 0,0 h 38 m 0,3 V -3 M 0,0 V 1 M 3,1 H -3 M 0,0 v -1 m 3,0 h -6"
             style="fill:none;stroke:#000000;stroke-width:1"
             id="path46" />
        </g>
        <g
           transform="translate(430,472)"
           id="g54">
          <path
             d="M -29,3 H 38 V -3 H -29 Z"
             style="fill:none"
             id="path50" />
          <path
             d="m 0,0 h -29 m 0,3 V -3 M 0,0 h 38 m 0,3 V -3 M 0,0 V 3 M 3,3 H -3 M 0,0 v -3 m 3,0 h -6"
             style="fill:none;stroke:#000000;stroke-width:1"
             id="path52" />
        </g>
        <g
           transform="translate(496,417)"
           id="g60">
          <path
             d="M -29,12 H 38 V -12 H -29 Z"
             style="fill:none"
             id="path56" />
          <path
             d="m 0,0 h -29 m 0,3 V -3 M 0,0 h 38 m 0,3 V -3 M 0,0 v 12 m 3,0 H -3 M 0,0 v -12 m 3,0 h -6"
             style="fill:none;stroke:#000000;stroke-width:1"
             id="path58" />
        </g>
        <g
           transform="translate(563,318)"
           id="g66">
          <path
             d="M -29,42 H 38 V -42 H -29 Z"
             style="fill:none"
             id="path62" />
          <path
             d="m 0,0 h -29 m 0,3 V -3 M 0,0 h 38 m 0,3 V -3 M 0,0 v 42 m 3,0 H -3 M 0,0 v -42 m 3,0 h -6"
             style="fill:none;stroke:#000000;stroke-width:1"
             id="path64" />
        </g>
        <g
           transform="translate(630,145)"
           id="g72">
          <path
             d="M -29,97 H 38 V -97 h -67 z"
             style="fill:none"
             id="path68" />
          <path
             d="m 0,0 h -29 m 0,3 V -3 M 0,0 h 38 m 0,3 V -3 M 0,0 v 97 m 3,0 H -3 M 0,0 v -97 m 3,0 h -6"
             style="fill:none;stroke:#000000;stroke-width:1"
             id="path70" />
        </g>
        <path
           d="m 25,462 v 8 h 8 v -8 z m 67,-9 v 8 h 8 v -8 z m 67,17 v 8 h 8 v -8 z m 66,14 v 8 h 8 v -8 z m 67,1 v 8 h 8 v -8 z m 67,0 v 8 h 8 v -8 z m 67,-17 v 8 h 8 v -8 z m 66,-55 v 8 h 8 v -8 z m 67,-99 v 8 h 8 v -8 z m 67,-173 v 8 h 8 v -8 z"
           style="fill:#ff0000;stroke:#ff0000"
           id="path74" />
      </g>
      <g
         id="g140">
        <g
           transform="translate(38,479)"
           id="g82">
          <path
             d="M -38,0 H 29 V 0 Z"
             style="fill:none"
             id="path78" />
          <path
             d="m 0,0 h -38 m 0,3 V -3 M 0,0 h 29 m 0,3 V -3 M 0,0 m 3,0 h -6 m 3,0 m 3,0 h -6"
             style="fill:none;stroke:#000000;stroke-width:1"
             id="path80" />
        </g>
        <g
           transform="translate(104,472)"
           id="g88">
          <path
             d="M -38,0 H 29 V 0 Z"
             style="fill:none"
             id="path84" />
          <path
             d="m 0,0 h -38 m 0,3 V -3 M 0,0 h 29 m 0,3 V -3 M 0,0 m 3,0 h -6 m 3,0 m 3,0 h -6"
             style="fill:none;stroke:#000000;stroke-width:1"
             id="path86" />
        </g>
        <g
           transform="translate(171,486)"
           id="g94">
          <path
             d="M -38,0 H 29 V 0 Z"
             style="fill:none"
             id="path90" />
          <path
             d="m 0,0 h -38 m 0,3 V -3 M 0,0 h 29 m 0,3 V -3 M 0,0 m 3,0 h -6 m 3,0 m 3,0 h -6"
             style="fill:none;stroke:#000000;stroke-width:1"
             id="path92" />
        </g>
        <g
           transform="translate(238,498)"
           id="g100">
          <path
             d="M -38,1 H 29 V -1 H -38 Z"
             style="fill:none"
             id="path96" />
          <path
             d="m 0,0 h -38 m 0,3 V -3 M 0,0 h 29 m 0,3 V -3 M 0,0 V 1 M 3,1 H -3 M 0,0 v -1 m 3,0 h -6"
             style="fill:none;stroke:#000000;stroke-width:1"
             id="path98" />
        </g>
        <g
           transform="translate(304,499)"
           id="g106">
          <path
             d="M -38,1 H 29 V -1 H -38 Z"
             style="fill:none"
             id="path102" />
          <path
             d="m 0,0 h -38 m 0,3 V -3 M 0,0 h 29 m 0,3 V -3 M 0,0 V 1 M 3,1 H -3 M 0,0 v -1 m 3,0 h -6"
             style="fill:none;stroke:#000000;stroke-width:1"
             id="path104" />
        </g>
        <g
           transform="translate(371,504)"
           id="g112">
          <path
             d="M -38,1 H 29 V -1 H -38 Z"
             style="fill:none"
             id="path108" />
          <path
             d="m 0,0 h -38 m 0,3 V -3 M 0,0 h 29 m 0,3 V -3 M 0,0 V 1 M 3,1 H -3 M 0,0 v -1 m 3,0 h -6"
             style="fill:none;stroke:#000000;stroke-width:1"
             id="path110" />
        </g>
        <g
           transform="translate(438,495)"
           id="g118">
          <path
             d="M -38,3 H 29 V -3 H -38 Z"
             style="fill:none"
             id="path114" />
          <path
             d="m 0,0 h -38 m 0,3 V -3 M 0,0 h 29 m 0,3 V -3 M 0,0 V 3 M 3,3 H -3 M 0,0 v -3 m 3,0 h -6"
             style="fill:none;stroke:#000000;stroke-width:1"
             id="path116" />
        </g>
        <g
           transform="translate(505,463)"
           id="g124">
          <path
             d="M -38,9 H 29 V -9 h -67 z"
             style="fill:none"
             id="path120" />
          <path
             d="m 0,0 h -38 m 0,3 V -3 M 0,0 h 29 m 0,3 V -3 M 0,0 V 9 M 3,9 H -3 M 0,0 v -9 m 3,0 h -6"
             style="fill:none;stroke:#000000;stroke-width:1"
             id="path122" />
        </g>
        <g
           transform="translate(571,452)"
           id="g130">
          <path
             d="M -38,26 H 29 V -26 H -38 Z"
             style="fill:none"
             id="path126" />
          <path
             d="m 0,0 h -38 m 0,3 V -3 M 0,0 h 29 m 0,3 V -3 M 0,0 v 26 m 3,0 H -3 M 0,0 v -26 m 3,0 h -6"
             style="fill:none;stroke:#000000;stroke-width:1"
             id="path128" />
        </g>
        <g
           transform="translate(638,496)"
           id="g136">
          <path
             d="M -38,32 H 29 V -32 H -38 Z"
             style="fill:none"
             id="path132" />
          <path
             d="m 0,0 h -38 m 0,3 V -3 M 0,0 h 29 m 0,3 V -3 M 0,0 v 32 m 3,0 H -3 M 0,0 v -32 m 3,0 h -6"
             style="fill:none;stroke:#000000;stroke-width:1"
             id="path134" />
        </g>
        <path
           d="m 34,475 v 8 h 8 v -8 z m 66,-7 v 8 h 8 v -8 z m 67,14 v 8 h 8 v -8 z m 67,12 v 8 h 8 v -8 z m 66,1 v 8 h 8 v -8 z m 67,5 v 8 h 8 v -8 z m 67,-9 v 8 h 8 v -8 z m 67,-32 v 8 h 8 v -8 z m 66,-11 v 8 h 8 v -8 z m 67,44 v 8 h 8 v -8 z"
           style="fill:#0000ff;stroke:#0000ff"
           id="path138" />
      </g>
    </svg>
    <g
       id="g214">
      <g
         transform="translate(0,528)"
         id="g190">
        <path
           d="M 0,0 H 734 M 0,-20 V 0 M 17,-10 V 0 M 33,-10 V 0 M 50,-10 V 0 M 67,-20 V 0 M 83,-10 V 0 m 17,-10 V 0 m 17,-10 V 0 m 16,-20 V 0 m 17,-10 V 0 m 17,-10 V 0 m 17,-10 V 0 m 16,-20 V 0 m 17,-10 V 0 m 17,-10 V 0 m 16,-10 V 0 m 17,-20 V 0 m 17,-10 V 0 m 16,-10 V 0 m 17,-10 V 0 m 17,-20 V 0 m 16,-10 V 0 m 17,-10 V 0 m 17,-10 V 0 m 16,-20 V 0 m 17,-10 V 0 m 17,-10 V 0 m 16,-10 V 0 m 17,-20 V 0 m 17,-10 V 0 m 16,-10 V 0 m 17,-10 V 0 m 17,-20 V 0 m 16,-10 V 0 m 17,-10 V 0 m 17,-10 V 0 m 17,-20 V 0 m 16,-10 V 0 m 17,-10 V 0 m 17,-10 V 0 m 16,-20 V 0 m 17,-10 V 0 m 17,-10 V 0 m 16,-10 V 0 m 17,-20 V 0"
           style="stroke:#000000;stroke-width:1"
           id="path144" />
        <g
           font-family="Arial"
           font-size="23px"
           xml:space="preserve"
           fill="#000000"
           text-anchor="middle"
           id="g170"><text
             dy="0.80000001em"
             transform="translate(0,5)"
             id="text146">0</text><text
             dy="0.80000001em"
             transform="translate(67,5)"
             id="text148">0.2</text><text
             dy="0.80000001em"
             transform="translate(133,5)"
             id="text150">0.4</text><text
             dy="0.80000001em"
             transform="translate(200,5)"
             id="text152">0.6</text><text
             dy="0.80000001em"
             transform="translate(267,5)"
             id="text154">0.8</text><text
             dy="0.80000001em"
             transform="translate(334,5)"
             id="text156">1</text><text
             dy="0.80000001em"
             transform="translate(400,5)"
             id="text158">1.2</text><text
             dy="0.80000001em"
             transform="translate(467,5)"
             id="text160">1.4</text><text
             dy="0.80000001em"
             transform="translate(534,5)"
             id="text162">1.6</text><text
             dy="0.80000001em"
             transform="translate(601,5)"
             id="text164">1.8</text><text
             dy="0.80000001em"
             transform="translate(667,5)"
             id="text166">2</text><text
             dy="0.80000001em"
             transform="translate(734,5)"
             id="text168">2.2</text></g>
        <rect
           x="0"
           y="0"
           width="734"
           height="26"
           style="opacity:0"
           id="rect172" />
        <g
           font-family="Arial"
           font-size="23px"
           xml:space="preserve"
           transform="translate(734,37)"
           id="g188"><g
             transform="translate(-93,8)"
             id="g186"><text
               fill="#000000"
               font-size="23px"
               id="text174">p</text><text
               fill="#000000"
               font-size="14px"
               transform="translate(13,-10)"
               id="text176">2</text><text
               fill="#000000"
               font-size="14px"
               transform="translate(13,4)"
               id="text178">T</text><text
               fill="#000000"
               font-size="23px"
               x="22"
               id="text180"> (GeV</text><text
               fill="#000000"
               font-size="14px"
               id="text182"
               x="83"
               y="-10">2</text><text
               fill="#000000"
               font-size="23px"
               x="91"
               id="text184">)</text></g></g>
      </g>
      <g
         id="g212">
        <path
           d="m 0,0 v 528 m 28,0 H 0 M 14,511 H 0 M 14,495 H 0 M 14,478 H 0 M 14,462 H 0 M 28,445 H 0 M 14,428 H 0 M 14,412 H 0 M 14,395 H 0 M 14,379 H 0 M 28,362 H 0 M 14,345 H 0 M 14,329 H 0 M 14,312 H 0 M 14,296 H 0 M 28,279 H 0 M 14,262 H 0 M 14,246 H 0 M 14,229 H 0 M 14,213 H 0 M 28,196 H 0 M 14,179 H 0 M 14,163 H 0 M 14,146 H 0 M 14,130 H 0 M 28,113 H 0 M 14,96 H 0 M 14,80 H 0 M 14,63 H 0 M 14,47 H 0 M 28,30 H 0 M 14,13 H 0"
           style="stroke:#000000;stroke-width:1"
           id="path192" />
        <g
           font-family="Arial"
           font-size="23px"
           xml:space="preserve"
           fill="#000000"
           text-anchor="end"
           id="g208"><text
             dominant-baseline="middle"
             transform="translate(-3,528)"
             id="text194">0</text><text
             dominant-baseline="middle"
             transform="translate(-3,445)"
             id="text196">0.05</text><text
             dominant-baseline="middle"
             transform="translate(-3,362)"
             id="text198">0.10</text><text
             dominant-baseline="middle"
             transform="translate(-3,279)"
             id="text200">0.15</text><text
             dominant-baseline="middle"
             transform="translate(-3,196)"
             id="text202">0.20</text><text
             dominant-baseline="middle"
             transform="translate(-3,113)"
             id="text204">0.25</text><text
             dominant-baseline="middle"
             transform="translate(-3,30)"
             id="text206">0.30</text></g>
        <rect
           x="-48"
           y="0"
           width="48"
           height="528"
           style="opacity:0"
           id="rect210" />
      </g>
    </g>
    <path
       d="M 2,2 H 17 V -3 H -3 v 20 h 5 z"
       style="opacity:0"
       id="path216" />
    <path
       d="m 732,2 h -15 v -5 h 20 v 20 h -5 z"
       style="opacity:0"
       id="path218" />
    <path
       d="m 2,526 h 15 v 5 H -3 v -20 h 5 z"
       style="opacity:0"
       id="path220" />
    <path
       d="m 732,526 h -15 v 5 h 20 v -20 h -5 z"
       style="opacity:0"
       id="path222" />
    <path
       d="M -3,18 H 2 V 510 H -3 Z"
       style="opacity:0"
       id="path224" />
    <path
       d="m 737,18 h -5 v 492 h 5 z"
       style="opacity:0"
       id="path226" />
    <path
       d="M 18,-3 V 2 H 716 V -3 Z"
       style="opacity:0"
       id="path228" />
    <path
       d="m 18,531 v -5 h 698 v 5 z"
       style="opacity:0"
       id="path230" />
    <style
       id="style232">
.jsroot rect.h1bin { stroke: #4572A7; fill: #4572A7; opacity: 0; }
.jsroot rect.zoom { stroke: steelblue; fill-opacity: 0.1; }
.jsroot path.zoom { stroke: steelblue; fill-opacity: 0.1; }
.jsroot svg:not(:root) { overflow: hidden; }</style>
  </g>
  <g
     transform="translate(85.27955,16)"
     font-family="Arial"
     font-size="28px"
     xml:space="preserve"
     id="g266"><path
       d="M 0,0 H 98 V 66 H 0 Z"
       style="fill:#ffffff;stroke:#000000;stroke-width:1"
       id="path236" /><path
       d="M 3,18 H 22"
       style="stroke:#000000;stroke-width:1"
       id="path238" /><path
       d="m 9,14 v 8 h 8 v -8 z"
       style="fill:#ff0000;stroke:#ff0000"
       id="path240" /><text
       fill="#000000"
       text-anchor="start"
       dominant-baseline="middle"
       transform="translate(25,18)"
       id="text242">DC</text><path
       d="M 3,49 H 22"
       style="stroke:#000000;stroke-width:1"
       id="path244" /><path
       d="m 9,45 v 8 h 8 v -8 z"
       style="fill:#0000ff;stroke:#0000ff"
       id="path246" /><text
       fill="#000000"
       text-anchor="start"
       dominant-baseline="middle"
       transform="translate(25,49)"
       id="text248">FMT</text><path
       d="M 2,2 H 17 V -3 H -3 v 20 h 5 z"
       style="opacity:0"
       id="path250" /><path
       d="M 96,2 H 81 v -5 h 20 v 20 h -5 z"
       style="opacity:0"
       id="path252" /><path
       d="m 2,64 h 15 v 5 H -3 V 49 h 5 z"
       style="opacity:0"
       id="path254" /><path
       d="M 96,64 H 81 v 5 h 20 V 49 h -5 z"
       style="opacity:0"
       id="path256" /><path
       d="M -3,18 H 2 V 48 H -3 Z"
       style="opacity:0"
       id="path258" /><path
       d="m 101,18 h -5 v 30 h 5 z"
       style="opacity:0"
       id="path260" /><path
       d="M 18,-3 V 2 H 80 V -3 Z"
       style="opacity:0"
       id="path262" /><path
       d="m 18,69 v -5 h 62 v 5 z"
       style="opacity:0"
       id="path264" /></g>
</svg>
