<?xml version="1.0" encoding="UTF-8" standalone="no"?>
<svg
   width="796.82983"
   height="580.77295"
   version="1.1"
   id="svg326"
   sodipodi:docname="22pt2_acc_-211.svg"
   inkscape:version="1.2.2 (1:1.2.2+202305151914+b0a8486541)"
   inkscape:export-filename="22pt2_acc_-211.pdf"
   inkscape:export-xdpi="96"
   inkscape:export-ydpi="96"
   xmlns:inkscape="http://www.inkscape.org/namespaces/inkscape"
   xmlns:sodipodi="http://sodipodi.sourceforge.net/DTD/sodipodi-0.dtd"
   xmlns="http://www.w3.org/2000/svg"
   xmlns:svg="http://www.w3.org/2000/svg">
  <defs
     id="defs330" />
  <sodipodi:namedview
     id="namedview328"
     pagecolor="#ffffff"
     bordercolor="#666666"
     borderopacity="1.0"
     inkscape:showpageshadow="2"
     inkscape:pageopacity="0.0"
     inkscape:pagecheckerboard="0"
     inkscape:deskcolor="#d1d1d1"
     showgrid="false"
     inkscape:zoom="1.011377"
     inkscape:cx="393.52289"
     inkscape:cy="291.68154"
     inkscape:window-width="1920"
     inkscape:window-height="1051"
     inkscape:window-x="0"
     inkscape:window-y="0"
     inkscape:window-maximized="1"
     inkscape:current-layer="svg326" />
  <g
     transform="translate(48,3)"
     id="g234">
    <title
       id="title4" />
    <path
       d="M 0,0 H 734 V 528 H 0 Z"
       style="fill:#ffffff;stroke:#000000;stroke-width:1"
       id="path6" />
    <g
       id="g12">
      <path
         d="M 0,0 V 528 M 67,0 V 528 M 133,0 V 528 M 200,0 V 528 M 267,0 V 528 M 334,0 V 528 M 400,0 V 528 M 467,0 V 528 M 534,0 V 528 M 601,0 V 528 M 667,0 V 528 M 734,0 v 528"
         style="stroke:#000000;stroke-width:1;stroke-dasharray:1, 2"
         id="path8" />
      <path
         d="M 0,528 H 734 M 0,447 H 734 M 0,367 H 734 M 0,286 H 734 M 0,206 H 734 M 0,125 H 734 M 0,45 h 734"
         style="stroke:#000000;stroke-width:1;stroke-dasharray:1, 2"
         id="path10" />
    </g>
    <svg
       x="0"
       y="0"
       overflow="hidden"
       width="734"
       height="528"
       viewBox="0 0 734 528"
       version="1.1"
       id="svg142">
      <g
         id="g76">
        <g
           transform="translate(29,488)"
           id="g18">
          <path
             d="M -29,0 H 38 V 0 Z"
             style="fill:none"
             id="path14" />
          <path
             d="m 0,0 h -29 m 0,3 V -3 M 0,0 h 38 m 0,3 V -3 M 0,0 m 3,0 h -6 m 3,0 m 3,0 h -6"
             style="fill:none;stroke:#000000;stroke-width:1"
             id="path16" />
        </g>
        <g
           transform="translate(96,408)"
           id="g24">
          <path
             d="M -29,1 H 38 V -1 H -29 Z"
             style="fill:none"
             id="path20" />
          <path
             d="m 0,0 h -29 m 0,3 V -3 M 0,0 h 38 m 0,3 V -3 M 0,0 V 1 M 3,1 H -3 M 0,0 v -1 m 3,0 h -6"
             style="fill:none;stroke:#000000;stroke-width:1"
             id="path22" />
        </g>
        <g
           transform="translate(163,427)"
           id="g30">
          <path
             d="M -29,1 H 38 V -1 H -29 Z"
             style="fill:none"
             id="path26" />
          <path
             d="m 0,0 h -29 m 0,3 V -3 M 0,0 h 38 m 0,3 V -3 M 0,0 V 1 M 3,1 H -3 M 0,0 v -1 m 3,0 h -6"
             style="fill:none;stroke:#000000;stroke-width:1"
             id="path28" />
        </g>
        <g
           transform="translate(229,442)"
           id="g36">
          <path
             d="M -29,2 H 38 V -2 H -29 Z"
             style="fill:none"
             id="path32" />
          <path
             d="m 0,0 h -29 m 0,3 V -3 M 0,0 h 38 m 0,3 V -3 M 0,0 V 2 M 3,2 H -3 M 0,0 v -2 m 3,0 h -6"
             style="fill:none;stroke:#000000;stroke-width:1"
             id="path34" />
        </g>
        <g
           transform="translate(296,447)"
           id="g42">
          <path
             d="M -29,2 H 38 V -2 H -29 Z"
             style="fill:none"
             id="path38" />
          <path
             d="m 0,0 h -29 m 0,3 V -3 M 0,0 h 38 m 0,3 V -3 M 0,0 V 2 M 3,2 H -3 M 0,0 v -2 m 3,0 h -6"
             style="fill:none;stroke:#000000;stroke-width:1"
             id="path40" />
        </g>
        <g
           transform="translate(363,442)"
           id="g48">
          <path
             d="M -29,3 H 38 V -3 H -29 Z"
             style="fill:none"
             id="path44" />
          <path
             d="m 0,0 h -29 m 0,3 V -3 M 0,0 h 38 m 0,3 V -3 M 0,0 V 3 M 3,3 H -3 M 0,0 v -3 m 3,0 h -6"
             style="fill:none;stroke:#000000;stroke-width:1"
             id="path46" />
        </g>
        <g
           transform="translate(430,423)"
           id="g54">
          <path
             d="M -29,6 H 38 V -6 h -67 z"
             style="fill:none"
             id="path50" />
          <path
             d="m 0,0 h -29 m 0,3 V -3 M 0,0 h 38 m 0,3 V -3 M 0,0 V 6 M 3,6 H -3 M 0,0 v -6 m 3,0 h -6"
             style="fill:none;stroke:#000000;stroke-width:1"
             id="path52" />
        </g>
        <g
           transform="translate(496,372)"
           id="g60">
          <path
             d="M -29,17 H 38 V -17 H -29 Z"
             style="fill:none"
             id="path56" />
          <path
             d="m 0,0 h -29 m 0,3 V -3 M 0,0 h 38 m 0,3 V -3 M 0,0 v 17 m 3,0 H -3 M 0,0 v -17 m 3,0 h -6"
             style="fill:none;stroke:#000000;stroke-width:1"
             id="path58" />
        </g>
        <g
           transform="translate(563,127)"
           id="g66">
          <path
             d="M -29,73 H 38 V -73 h -67 z"
             style="fill:none"
             id="path62" />
          <path
             d="m 0,0 h -29 m 0,3 V -3 M 0,0 h 38 m 0,3 V -3 M 0,0 v 73 m 3,0 H -3 M 0,0 v -73 m 3,0 h -6"
             style="fill:none;stroke:#000000;stroke-width:1"
             id="path64" />
        </g>
        <g
           transform="translate(630,183)"
           id="g72">
          <path
             d="M -29,135 H 38 V -135 H -29 Z"
             style="fill:none"
             id="path68" />
          <path
             d="m 0,0 h -29 m 0,3 V -3 M 0,0 h 38 m 0,3 V -3 M 0,0 v 135 m 3,0 H -3 M 0,0 v -135 m 3,0 h -6"
             style="fill:none;stroke:#000000;stroke-width:1"
             id="path70" />
        </g>
        <path
           d="m 25,484 v 8 h 8 v -8 z m 67,-80 v 8 h 8 v -8 z m 67,19 v 8 h 8 v -8 z m 66,15 v 8 h 8 v -8 z m 67,5 v 8 h 8 v -8 z m 67,-5 v 8 h 8 v -8 z m 67,-19 v 8 h 8 v -8 z m 66,-51 v 8 h 8 v -8 z m 67,-245 v 8 h 8 v -8 z m 67,56 v 8 h 8 v -8 z"
           style="fill:#ff0000;stroke:#ff0000"
           id="path74" />
      </g>
      <g
         id="g140">
        <g
           transform="translate(38,505)"
           id="g82">
          <path
             d="M -38,0 H 29 V 0 Z"
             style="fill:none"
             id="path78" />
          <path
             d="m 0,0 h -38 m 0,3 V -3 M 0,0 h 29 m 0,3 V -3 M 0,0 m 3,0 h -6 m 3,0 m 3,0 h -6"
             style="fill:none;stroke:#000000;stroke-width:1"
             id="path80" />
        </g>
        <g
           transform="translate(104,448)"
           id="g88">
          <path
             d="M -38,1 H 29 V -1 H -38 Z"
             style="fill:none"
             id="path84" />
          <path
             d="m 0,0 h -38 m 0,3 V -3 M 0,0 h 29 m 0,3 V -3 M 0,0 V 1 M 3,1 H -3 M 0,0 v -1 m 3,0 h -6"
             style="fill:none;stroke:#000000;stroke-width:1"
             id="path86" />
        </g>
        <g
           transform="translate(171,459)"
           id="g94">
          <path
             d="M -38,1 H 29 V -1 H -38 Z"
             style="fill:none"
             id="path90" />
          <path
             d="m 0,0 h -38 m 0,3 V -3 M 0,0 h 29 m 0,3 V -3 M 0,0 V 1 M 3,1 H -3 M 0,0 v -1 m 3,0 h -6"
             style="fill:none;stroke:#000000;stroke-width:1"
             id="path92" />
        </g>
        <g
           transform="translate(238,472)"
           id="g100">
          <path
             d="M -38,1 H 29 V -1 H -38 Z"
             style="fill:none"
             id="path96" />
          <path
             d="m 0,0 h -38 m 0,3 V -3 M 0,0 h 29 m 0,3 V -3 M 0,0 V 1 M 3,1 H -3 M 0,0 v -1 m 3,0 h -6"
             style="fill:none;stroke:#000000;stroke-width:1"
             id="path98" />
        </g>
        <g
           transform="translate(304,473)"
           id="g106">
          <path
             d="M -38,2 H 29 V -2 H -38 Z"
             style="fill:none"
             id="path102" />
          <path
             d="m 0,0 h -38 m 0,3 V -3 M 0,0 h 29 m 0,3 V -3 M 0,0 V 2 M 3,2 H -3 M 0,0 v -2 m 3,0 h -6"
             style="fill:none;stroke:#000000;stroke-width:1"
             id="path104" />
        </g>
        <g
           transform="translate(371,473)"
           id="g112">
          <path
             d="M -38,3 H 29 V -3 H -38 Z"
             style="fill:none"
             id="path108" />
          <path
             d="m 0,0 h -38 m 0,3 V -3 M 0,0 h 29 m 0,3 V -3 M 0,0 V 3 M 3,3 H -3 M 0,0 v -3 m 3,0 h -6"
             style="fill:none;stroke:#000000;stroke-width:1"
             id="path110" />
        </g>
        <g
           transform="translate(438,461)"
           id="g118">
          <path
             d="M -38,5 H 29 V -5 h -67 z"
             style="fill:none"
             id="path114" />
          <path
             d="m 0,0 h -38 m 0,3 V -3 M 0,0 h 29 m 0,3 V -3 M 0,0 V 5 M 3,5 H -3 M 0,0 v -5 m 3,0 h -6"
             style="fill:none;stroke:#000000;stroke-width:1"
             id="path116" />
        </g>
        <g
           transform="translate(505,439)"
           id="g124">
          <path
             d="M -38,13 H 29 V -13 H -38 Z"
             style="fill:none"
             id="path120" />
          <path
             d="m 0,0 h -38 m 0,3 V -3 M 0,0 h 29 m 0,3 V -3 M 0,0 v 13 m 3,0 H -3 M 0,0 v -13 m 3,0 h -6"
             style="fill:none;stroke:#000000;stroke-width:1"
             id="path122" />
        </g>
        <g
           transform="translate(571,305)"
           id="g130">
          <path
             d="M -38,56 H 29 V -56 h -67 z"
             style="fill:none"
             id="path126" />
          <path
             d="m 0,0 h -38 m 0,3 V -3 M 0,0 h 29 m 0,3 V -3 M 0,0 v 56 m 3,0 H -3 M 0,0 v -56 m 3,0 h -6"
             style="fill:none;stroke:#000000;stroke-width:1"
             id="path128" />
        </g>
        <g
           transform="translate(638,298)"
           id="g136">
          <path
             d="M -38,112 H 29 V -112 H -38 Z"
             style="fill:none"
             id="path132" />
          <path
             d="m 0,0 h -38 m 0,3 V -3 M 0,0 h 29 m 0,3 V -3 M 0,0 v 112 m 3,0 H -3 M 0,0 v -112 m 3,0 h -6"
             style="fill:none;stroke:#000000;stroke-width:1"
             id="path134" />
        </g>
        <path
           d="m 34,501 v 8 h 8 v -8 z m 66,-57 v 8 h 8 v -8 z m 67,11 v 8 h 8 v -8 z m 67,13 v 8 h 8 v -8 z m 66,1 v 8 h 8 v -8 z m 67,0 v 8 h 8 v -8 z m 67,-12 v 8 h 8 v -8 z m 67,-22 v 8 h 8 v -8 z m 66,-134 v 8 h 8 v -8 z m 67,-7 v 8 h 8 v -8 z"
           style="fill:#0000ff;stroke:#0000ff"
           id="path138" />
      </g>
    </svg>
    <g
       id="g214">
      <g
         transform="translate(0,528)"
         id="g190">
        <path
           d="M 0,0 H 734 M 0,-20 V 0 M 17,-10 V 0 M 33,-10 V 0 M 50,-10 V 0 M 67,-20 V 0 M 83,-10 V 0 m 17,-10 V 0 m 17,-10 V 0 m 16,-20 V 0 m 17,-10 V 0 m 17,-10 V 0 m 17,-10 V 0 m 16,-20 V 0 m 17,-10 V 0 m 17,-10 V 0 m 16,-10 V 0 m 17,-20 V 0 m 17,-10 V 0 m 16,-10 V 0 m 17,-10 V 0 m 17,-20 V 0 m 16,-10 V 0 m 17,-10 V 0 m 17,-10 V 0 m 16,-20 V 0 m 17,-10 V 0 m 17,-10 V 0 m 16,-10 V 0 m 17,-20 V 0 m 17,-10 V 0 m 16,-10 V 0 m 17,-10 V 0 m 17,-20 V 0 m 16,-10 V 0 m 17,-10 V 0 m 17,-10 V 0 m 17,-20 V 0 m 16,-10 V 0 m 17,-10 V 0 m 17,-10 V 0 m 16,-20 V 0 m 17,-10 V 0 m 17,-10 V 0 m 16,-10 V 0 m 17,-20 V 0"
           style="stroke:#000000;stroke-width:1"
           id="path144" />
        <g
           font-family="Arial"
           font-size="23px"
           xml:space="preserve"
           fill="#000000"
           text-anchor="middle"
           id="g170"><text
             dy="0.80000001em"
             transform="translate(0,5)"
             id="text146">0</text><text
             dy="0.80000001em"
             transform="translate(67,5)"
             id="text148">0.2</text><text
             dy="0.80000001em"
             transform="translate(133,5)"
             id="text150">0.4</text><text
             dy="0.80000001em"
             transform="translate(200,5)"
             id="text152">0.6</text><text
             dy="0.80000001em"
             transform="translate(267,5)"
             id="text154">0.8</text><text
             dy="0.80000001em"
             transform="translate(334,5)"
             id="text156">1</text><text
             dy="0.80000001em"
             transform="translate(400,5)"
             id="text158">1.2</text><text
             dy="0.80000001em"
             transform="translate(467,5)"
             id="text160">1.4</text><text
             dy="0.80000001em"
             transform="translate(534,5)"
             id="text162">1.6</text><text
             dy="0.80000001em"
             transform="translate(601,5)"
             id="text164">1.8</text><text
             dy="0.80000001em"
             transform="translate(667,5)"
             id="text166">2</text><text
             dy="0.80000001em"
             transform="translate(734,5)"
             id="text168">2.2</text></g>
        <rect
           x="0"
           y="0"
           width="734"
           height="26"
           style="opacity:0"
           id="rect172" />
        <g
           font-family="Arial"
           font-size="23px"
           xml:space="preserve"
           transform="translate(734,37)"
           id="g188"><g
             transform="translate(-93,8)"
             id="g186"><text
               fill="#000000"
               font-size="23px"
               id="text174">p</text><text
               fill="#000000"
               font-size="14px"
               transform="translate(13,-10)"
               id="text176">2</text><text
               fill="#000000"
               font-size="14px"
               transform="translate(13,4)"
               id="text178">T</text><text
               fill="#000000"
               font-size="23px"
               x="22"
               id="text180"> (GeV</text><text
               fill="#000000"
               font-size="14px"
               id="text182"
               x="83"
               y="-10">2</text><text
               fill="#000000"
               font-size="23px"
               x="91"
               id="text184">)</text></g></g>
      </g>
      <g
         id="g212">
        <path
           d="m 0,0 v 528 m 28,0 H 0 M 14,508 H 0 M 14,488 H 0 M 14,468 H 0 M 28,447 H 0 M 14,427 H 0 M 14,407 H 0 M 14,387 H 0 M 28,367 H 0 M 14,347 H 0 M 14,327 H 0 M 14,306 H 0 M 28,286 H 0 M 14,266 H 0 M 14,246 H 0 M 14,226 H 0 M 28,206 H 0 M 14,186 H 0 M 14,166 H 0 M 14,145 H 0 M 28,125 H 0 M 14,105 H 0 M 14,85 H 0 M 14,65 H 0 M 28,45 H 0 M 14,25 H 0 M 14,4 H 0"
           style="stroke:#000000;stroke-width:1"
           id="path192" />
        <g
           font-family="Arial"
           font-size="23px"
           xml:space="preserve"
           fill="#000000"
           text-anchor="end"
           id="g208"><text
             dominant-baseline="middle"
             transform="translate(-3,528)"
             id="text194">0</text><text
             dominant-baseline="middle"
             transform="translate(-3,447)"
             id="text196">0.02</text><text
             dominant-baseline="middle"
             transform="translate(-3,367)"
             id="text198">0.04</text><text
             dominant-baseline="middle"
             transform="translate(-3,286)"
             id="text200">0.06</text><text
             dominant-baseline="middle"
             transform="translate(-3,206)"
             id="text202">0.08</text><text
             dominant-baseline="middle"
             transform="translate(-3,125)"
             id="text204">0.10</text><text
             dominant-baseline="middle"
             transform="translate(-3,45)"
             id="text206">0.12</text></g>
        <rect
           x="-48"
           y="0"
           width="48"
           height="528"
           style="opacity:0"
           id="rect210" />
      </g>
    </g>
    <path
       d="M 2,2 H 17 V -3 H -3 v 20 h 5 z"
       style="opacity:0"
       id="path216" />
    <path
       d="m 732,2 h -15 v -5 h 20 v 20 h -5 z"
       style="opacity:0"
       id="path218" />
    <path
       d="m 2,526 h 15 v 5 H -3 v -20 h 5 z"
       style="opacity:0"
       id="path220" />
    <path
       d="m 732,526 h -15 v 5 h 20 v -20 h -5 z"
       style="opacity:0"
       id="path222" />
    <path
       d="M -3,18 H 2 V 510 H -3 Z"
       style="opacity:0"
       id="path224" />
    <path
       d="m 737,18 h -5 v 492 h 5 z"
       style="opacity:0"
       id="path226" />
    <path
       d="M 18,-3 V 2 H 716 V -3 Z"
       style="opacity:0"
       id="path228" />
    <path
       d="m 18,531 v -5 h 698 v 5 z"
       style="opacity:0"
       id="path230" />
    <style
       id="style232">
.jsroot rect.h1bin { stroke: #4572A7; fill: #4572A7; opacity: 0; }
.jsroot rect.zoom { stroke: steelblue; fill-opacity: 0.1; }
.jsroot path.zoom { stroke: steelblue; fill-opacity: 0.1; }
.jsroot svg:not(:root) { overflow: hidden; }</style>
  </g>
  <g
     transform="translate(81.342337,16)"
     font-family="Arial"
     font-size="28px"
     xml:space="preserve"
     id="g266"><path
       d="M 0,0 H 95 V 66 H 0 Z"
       style="fill:#ffffff;stroke:#000000;stroke-width:1"
       id="path236" /><path
       d="M 3,18 H 21"
       style="stroke:#000000;stroke-width:1"
       id="path238" /><path
       d="m 8,14 v 8 h 8 v -8 z"
       style="fill:#ff0000;stroke:#ff0000"
       id="path240" /><text
       fill="#000000"
       text-anchor="start"
       dominant-baseline="middle"
       transform="translate(24,18)"
       id="text242">DC</text><path
       d="M 3,49 H 21"
       style="stroke:#000000;stroke-width:1"
       id="path244" /><path
       d="m 8,45 v 8 h 8 v -8 z"
       style="fill:#0000ff;stroke:#0000ff"
       id="path246" /><text
       fill="#000000"
       text-anchor="start"
       dominant-baseline="middle"
       transform="translate(24,49)"
       id="text248">FMT</text><path
       d="M 2,2 H 17 V -3 H -3 v 20 h 5 z"
       style="opacity:0"
       id="path250" /><path
       d="M 93,2 H 78 v -5 h 20 v 20 h -5 z"
       style="opacity:0"
       id="path252" /><path
       d="m 2,64 h 15 v 5 H -3 V 49 h 5 z"
       style="opacity:0"
       id="path254" /><path
       d="M 93,64 H 78 v 5 H 98 V 49 h -5 z"
       style="opacity:0"
       id="path256" /><path
       d="M -3,18 H 2 V 48 H -3 Z"
       style="opacity:0"
       id="path258" /><path
       d="m 98,18 h -5 v 30 h 5 z"
       style="opacity:0"
       id="path260" /><path
       d="M 18,-3 V 2 H 77 V -3 Z"
       style="opacity:0"
       id="path262" /><path
       d="m 18,69 v -5 h 59 v 5 z"
       style="opacity:0"
       id="path264" /></g>
</svg>
