<?xml version="1.0" encoding="UTF-8" standalone="no"?>
<svg
   width="567.429"
   height="608.262"
   viewBox="0 0 567.429 608.262"
   shape-rendering="crispEdges"
   version="1.1"
   id="svg724"
   sodipodi:docname="22pt2_acc_-211.svg"
   inkscape:export-filename="22pt2_acc_-211.pdf"
   inkscape:export-xdpi="96"
   inkscape:export-ydpi="96"
   inkscape:version="1.2.2 (1:1.2.2+202212051552+b0a8486541)"
   xmlns:inkscape="http://www.inkscape.org/namespaces/inkscape"
   xmlns:sodipodi="http://sodipodi.sourceforge.net/DTD/sodipodi-0.dtd"
   xmlns="http://www.w3.org/2000/svg"
   xmlns:svg="http://www.w3.org/2000/svg">
  <sodipodi:namedview
     id="namedview726"
     pagecolor="#ffffff"
     bordercolor="#666666"
     borderopacity="1.0"
     inkscape:showpageshadow="2"
     inkscape:pageopacity="0.0"
     inkscape:pagecheckerboard="0"
     inkscape:deskcolor="#d1d1d1"
     showgrid="false"
     inkscape:zoom="0.77598137"
     inkscape:cx="57.991083"
     inkscape:cy="250.006"
     inkscape:window-width="1920"
     inkscape:window-height="1051"
     inkscape:window-x="0"
     inkscape:window-y="0"
     inkscape:window-maximized="1"
     inkscape:current-layer="svg724" />
  <title
     id="title2">
/home/twig/code/rge-analysis/macros/22pt2_acc_-211.svg
</title>
  <desc
     id="desc4">
Creator: ROOT Version 6.28/00
CreationDate: Mon Jun 19 17:05:10 2023</desc>
  <defs
     id="defs6" />
  <rect
     x="0.5"
     y="0"
     width="566.929"
     height="607.762"
     fill="white"
     id="rect8" />
  <rect
     x="57.1929"
     y="60.7762"
     width="453.543"
     height="486.21"
     fill="white"
     id="rect10" />
  <rect
     x="57.1929"
     y="60.7762"
     width="453.543"
     height="486.21"
     fill="none"
     stroke="black"
     id="rect12" />
  <rect
     x="57.1929"
     y="60.7762"
     width="453.543"
     height="486.21"
     fill="white"
     id="rect14" />
  <rect
     x="57.1929"
     y="60.7762"
     width="453.543"
     height="486.21"
     fill="none"
     stroke="black"
     id="rect16" />
  <path
     d="M57.1929,546.986h 453.543"
     fill="none"
     stroke="black"
     id="path18" />
  <path
     d="M57.1929,60.7762v 486.21"
     fill="none"
     stroke="black"
     stroke-dasharray=" 1, 2"
     id="path20" />
  <path
     d="M98.4241,60.7762v 486.21"
     fill="none"
     stroke="black"
     stroke-dasharray=" 1, 2"
     id="path22" />
  <path
     d="M139.655,60.7762v 486.21"
     fill="none"
     stroke="black"
     stroke-dasharray=" 1, 2"
     id="path24" />
  <path
     d="M180.887,60.7762v 486.21"
     fill="none"
     stroke="black"
     stroke-dasharray=" 1, 2"
     id="path26" />
  <path
     d="M222.118,60.7762v 486.21"
     fill="none"
     stroke="black"
     stroke-dasharray=" 1, 2"
     id="path28" />
  <path
     d="M263.349,60.7762v 486.21"
     fill="none"
     stroke="black"
     stroke-dasharray=" 1, 2"
     id="path30" />
  <path
     d="M304.58,60.7762v 486.21"
     fill="none"
     stroke="black"
     stroke-dasharray=" 1, 2"
     id="path32" />
  <path
     d="M345.811,60.7762v 486.21"
     fill="none"
     stroke="black"
     stroke-dasharray=" 1, 2"
     id="path34" />
  <path
     d="M387.043,60.7762v 486.21"
     fill="none"
     stroke="black"
     stroke-dasharray=" 1, 2"
     id="path36" />
  <path
     d="M428.274,60.7762v 486.21"
     fill="none"
     stroke="black"
     stroke-dasharray=" 1, 2"
     id="path38" />
  <path
     d="M469.505,60.7762v 486.21"
     fill="none"
     stroke="black"
     stroke-dasharray=" 1, 2"
     id="path40" />
  <path
     d="M510.736,60.7762v 486.21"
     fill="none"
     stroke="black"
     stroke-dasharray=" 1, 2"
     id="path42" />
  <path
     d="M57.1929,546.986v -486.21"
     fill="none"
     stroke="black"
     id="path44" />
  <path
     d="M510.736,546.986h -453.543"
     fill="none"
     stroke="black"
     stroke-dasharray=" 1, 2"
     id="path46" />
  <path
     d="M510.736,482.764h -453.543"
     fill="none"
     stroke="black"
     stroke-dasharray=" 1, 2"
     id="path48" />
  <path
     d="M510.736,418.541h -453.543"
     fill="none"
     stroke="black"
     stroke-dasharray=" 1, 2"
     id="path50" />
  <path
     d="M510.736,354.319h -453.543"
     fill="none"
     stroke="black"
     stroke-dasharray=" 1, 2"
     id="path52" />
  <path
     d="M510.736,290.096h -453.543"
     fill="none"
     stroke="black"
     stroke-dasharray=" 1, 2"
     id="path54" />
  <path
     d="M510.736,225.874h -453.543"
     fill="none"
     stroke="black"
     stroke-dasharray=" 1, 2"
     id="path56" />
  <path
     d="M510.736,161.652h -453.543"
     fill="none"
     stroke="black"
     stroke-dasharray=" 1, 2"
     id="path58" />
  <path
     d="M510.736,97.4292h -453.543"
     fill="none"
     stroke="black"
     stroke-dasharray=" 1, 2"
     id="path60" />
  <path
     d="M510.736,97.4292h -453.543"
     fill="none"
     stroke="black"
     stroke-dasharray=" 1, 2"
     id="path62" />
  <path
     d="M57.1929,546.986h 453.543"
     fill="none"
     stroke="black"
     id="path64" />
  <path
     d="M57.1929,532.4v 14.5863"
     fill="none"
     stroke="black"
     id="path66" />
  <path
     d="M67.5007,539.693v 7.29315"
     fill="none"
     stroke="black"
     id="path68" />
  <path
     d="M77.8085,539.693v 7.29315"
     fill="none"
     stroke="black"
     id="path70" />
  <path
     d="M88.1163,539.693v 7.29315"
     fill="none"
     stroke="black"
     id="path72" />
  <path
     d="M98.4241,532.4v 14.5863"
     fill="none"
     stroke="black"
     id="path74" />
  <path
     d="M108.732,539.693v 7.29315"
     fill="none"
     stroke="black"
     id="path76" />
  <path
     d="M119.04,539.693v 7.29315"
     fill="none"
     stroke="black"
     id="path78" />
  <path
     d="M129.348,539.693v 7.29315"
     fill="none"
     stroke="black"
     id="path80" />
  <path
     d="M139.655,532.4v 14.5863"
     fill="none"
     stroke="black"
     id="path82" />
  <path
     d="M149.963,539.693v 7.29315"
     fill="none"
     stroke="black"
     id="path84" />
  <path
     d="M160.271,539.693v 7.29315"
     fill="none"
     stroke="black"
     id="path86" />
  <path
     d="M170.579,539.693v 7.29315"
     fill="none"
     stroke="black"
     id="path88" />
  <path
     d="M180.887,532.4v 14.5863"
     fill="none"
     stroke="black"
     id="path90" />
  <path
     d="M191.194,539.693v 7.29315"
     fill="none"
     stroke="black"
     id="path92" />
  <path
     d="M201.502,539.693v 7.29315"
     fill="none"
     stroke="black"
     id="path94" />
  <path
     d="M211.81,539.693v 7.29315"
     fill="none"
     stroke="black"
     id="path96" />
  <path
     d="M222.118,532.4v 14.5863"
     fill="none"
     stroke="black"
     id="path98" />
  <path
     d="M232.426,539.693v 7.29315"
     fill="none"
     stroke="black"
     id="path100" />
  <path
     d="M242.733,539.693v 7.29315"
     fill="none"
     stroke="black"
     id="path102" />
  <path
     d="M253.041,539.693v 7.29315"
     fill="none"
     stroke="black"
     id="path104" />
  <path
     d="M263.349,532.4v 14.5863"
     fill="none"
     stroke="black"
     id="path106" />
  <path
     d="M273.657,539.693v 7.29315"
     fill="none"
     stroke="black"
     id="path108" />
  <path
     d="M283.965,539.693v 7.29315"
     fill="none"
     stroke="black"
     id="path110" />
  <path
     d="M294.272,539.693v 7.29315"
     fill="none"
     stroke="black"
     id="path112" />
  <path
     d="M304.58,532.4v 14.5863"
     fill="none"
     stroke="black"
     id="path114" />
  <path
     d="M314.888,539.693v 7.29315"
     fill="none"
     stroke="black"
     id="path116" />
  <path
     d="M325.196,539.693v 7.29315"
     fill="none"
     stroke="black"
     id="path118" />
  <path
     d="M335.504,539.693v 7.29315"
     fill="none"
     stroke="black"
     id="path120" />
  <path
     d="M345.811,532.4v 14.5863"
     fill="none"
     stroke="black"
     id="path122" />
  <path
     d="M356.119,539.693v 7.29315"
     fill="none"
     stroke="black"
     id="path124" />
  <path
     d="M366.427,539.693v 7.29315"
     fill="none"
     stroke="black"
     id="path126" />
  <path
     d="M376.735,539.693v 7.29315"
     fill="none"
     stroke="black"
     id="path128" />
  <path
     d="M387.043,532.4v 14.5863"
     fill="none"
     stroke="black"
     id="path130" />
  <path
     d="M397.35,539.693v 7.29315"
     fill="none"
     stroke="black"
     id="path132" />
  <path
     d="M407.658,539.693v 7.29315"
     fill="none"
     stroke="black"
     id="path134" />
  <path
     d="M417.966,539.693v 7.29315"
     fill="none"
     stroke="black"
     id="path136" />
  <path
     d="M428.274,532.4v 14.5863"
     fill="none"
     stroke="black"
     id="path138" />
  <path
     d="M438.582,539.693v 7.29315"
     fill="none"
     stroke="black"
     id="path140" />
  <path
     d="M448.889,539.693v 7.29315"
     fill="none"
     stroke="black"
     id="path142" />
  <path
     d="M459.197,539.693v 7.29315"
     fill="none"
     stroke="black"
     id="path144" />
  <path
     d="M469.505,532.4v 14.5863"
     fill="none"
     stroke="black"
     id="path146" />
  <path
     d="M479.813,539.693v 7.29315"
     fill="none"
     stroke="black"
     id="path148" />
  <path
     d="M490.121,539.693v 7.29315"
     fill="none"
     stroke="black"
     id="path150" />
  <path
     d="M500.428,539.693v 7.29315"
     fill="none"
     stroke="black"
     id="path152" />
  <path
     d="M510.736,532.4v 14.5863"
     fill="none"
     stroke="black"
     id="path154" />
  <text
     xml:space="preserve"
     x="51.9852"
     y="566.929"
     fill="black"
     font-size="18.7041"
     font-family="Helvetica"
     id="text156">0</text>
  <text
     xml:space="preserve"
     x="85.7169"
     y="566.929"
     fill="black"
     font-size="18.7041"
     font-family="Helvetica"
     id="text158">0.2</text>
  <text
     xml:space="preserve"
     x="127.142"
     y="566.929"
     fill="black"
     font-size="18.7041"
     font-family="Helvetica"
     id="text160">0.4</text>
  <text
     xml:space="preserve"
     x="167.975"
     y="566.929"
     fill="black"
     font-size="18.7041"
     font-family="Helvetica"
     id="text162">0.6</text>
  <text
     xml:space="preserve"
     x="209.4"
     y="566.929"
     fill="black"
     font-size="18.7041"
     font-family="Helvetica"
     id="text164">0.8</text>
  <text
     xml:space="preserve"
     x="259.701"
     y="566.929"
     fill="black"
     font-size="18.7041"
     font-family="Helvetica"
     id="text166">1</text>
  <text
     xml:space="preserve"
     x="291.658"
     y="566.929"
     fill="black"
     font-size="18.7041"
     font-family="Helvetica"
     id="text168">1.2</text>
  <text
     xml:space="preserve"
     x="333.083"
     y="566.929"
     fill="black"
     font-size="18.7041"
     font-family="Helvetica"
     id="text170">1.4</text>
  <text
     xml:space="preserve"
     x="374.508"
     y="566.929"
     fill="black"
     font-size="18.7041"
     font-family="Helvetica"
     id="text172">1.6</text>
  <text
     xml:space="preserve"
     x="415.341"
     y="566.929"
     fill="black"
     font-size="18.7041"
     font-family="Helvetica"
     id="text174">1.8</text>
  <text
     xml:space="preserve"
     x="464.459"
     y="566.929"
     fill="black"
     font-size="18.7041"
     font-family="Helvetica"
     id="text176">2</text>
  <text
     xml:space="preserve"
     x="498.19"
     y="566.929"
     fill="black"
     font-size="18.7041"
     font-family="Helvetica"
     id="text178">2.2</text>
  <text
     xml:space="preserve"
     x="505.884"
     y="586.458"
     fill="black"
     font-size="18.7041"
     font-family="Helvetica"
     id="text180">)</text>
  <text
     xml:space="preserve"
     x="499.374"
     y="578.173"
     fill="black"
     font-size="12.6361"
     font-family="Helvetica"
     id="text182">2</text>
  <text
     xml:space="preserve"
     x="451.439"
     y="586.458"
     fill="black"
     font-size="18.7041"
     font-family="Helvetica"
     id="text184"> (GeV</text>
  <text
     xml:space="preserve"
     x="443.746"
     y="578.173"
     fill="black"
     font-size="12.6361"
     font-family="Helvetica"
     id="text186">2</text>
  <text
     xml:space="preserve"
     x="443.746"
     y="592.376"
     fill="black"
     font-size="12.6361"
     font-family="Helvetica"
     id="text188">T</text>
  <text
     xml:space="preserve"
     x="432.502"
     y="586.458"
     fill="black"
     font-size="18.7041"
     font-family="Helvetica"
     id="text190">P</text>
  <path
     d="M57.1929,546.986v -486.21"
     fill="none"
     stroke="black"
     id="path192" />
  <path
     d="M70.7992,546.986h -13.6063"
     fill="none"
     stroke="black"
     id="path194" />
  <path
     d="M63.9961,530.93h -6.80315"
     fill="none"
     stroke="black"
     id="path196" />
  <path
     d="M63.9961,514.875h -6.80315"
     fill="none"
     stroke="black"
     id="path198" />
  <path
     d="M63.9961,498.819h -6.80315"
     fill="none"
     stroke="black"
     id="path200" />
  <path
     d="M70.7992,482.764h -13.6063"
     fill="none"
     stroke="black"
     id="path202" />
  <path
     d="M63.9961,466.708h -6.80315"
     fill="none"
     stroke="black"
     id="path204" />
  <path
     d="M63.9961,450.652h -6.80315"
     fill="none"
     stroke="black"
     id="path206" />
  <path
     d="M63.9961,434.597h -6.80315"
     fill="none"
     stroke="black"
     id="path208" />
  <path
     d="M70.7992,418.541h -13.6063"
     fill="none"
     stroke="black"
     id="path210" />
  <path
     d="M63.9961,402.486h -6.80315"
     fill="none"
     stroke="black"
     id="path212" />
  <path
     d="M63.9961,386.43h -6.80315"
     fill="none"
     stroke="black"
     id="path214" />
  <path
     d="M63.9961,370.374h -6.80315"
     fill="none"
     stroke="black"
     id="path216" />
  <path
     d="M70.7992,354.319h -13.6063"
     fill="none"
     stroke="black"
     id="path218" />
  <path
     d="M63.9961,338.263h -6.80315"
     fill="none"
     stroke="black"
     id="path220" />
  <path
     d="M63.9961,322.208h -6.80315"
     fill="none"
     stroke="black"
     id="path222" />
  <path
     d="M63.9961,306.152h -6.80315"
     fill="none"
     stroke="black"
     id="path224" />
  <path
     d="M70.7992,290.096h -13.6063"
     fill="none"
     stroke="black"
     id="path226" />
  <path
     d="M63.9961,274.041h -6.80315"
     fill="none"
     stroke="black"
     id="path228" />
  <path
     d="M63.9961,257.985h -6.80315"
     fill="none"
     stroke="black"
     id="path230" />
  <path
     d="M63.9961,241.93h -6.80315"
     fill="none"
     stroke="black"
     id="path232" />
  <path
     d="M70.7992,225.874h -13.6063"
     fill="none"
     stroke="black"
     id="path234" />
  <path
     d="M63.9961,209.818h -6.80315"
     fill="none"
     stroke="black"
     id="path236" />
  <path
     d="M63.9961,193.763h -6.80315"
     fill="none"
     stroke="black"
     id="path238" />
  <path
     d="M63.9961,177.707h -6.80315"
     fill="none"
     stroke="black"
     id="path240" />
  <path
     d="M70.7992,161.652h -13.6063"
     fill="none"
     stroke="black"
     id="path242" />
  <path
     d="M63.9961,145.596h -6.80315"
     fill="none"
     stroke="black"
     id="path244" />
  <path
     d="M63.9961,129.54h -6.80315"
     fill="none"
     stroke="black"
     id="path246" />
  <path
     d="M63.9961,113.485h -6.80315"
     fill="none"
     stroke="black"
     id="path248" />
  <path
     d="M70.7992,97.4292h -13.6063"
     fill="none"
     stroke="black"
     id="path250" />
  <path
     d="M70.7992,97.4292h -13.6063"
     fill="none"
     stroke="black"
     id="path252" />
  <path
     d="M63.9961,81.3736h -6.80315"
     fill="none"
     stroke="black"
     id="path254" />
  <path
     d="M63.9961,65.318h -6.80315"
     fill="none"
     stroke="black"
     id="path256" />
  <text
     xml:space="preserve"
     x="44.8838"
     y="553.318"
     fill="black"
     font-size="18.7041"
     font-family="Helvetica"
     id="text258">0</text>
  <text
     xml:space="preserve"
     x="19.4371"
     y="488.814"
     fill="black"
     font-size="18.7041"
     font-family="Helvetica"
     id="text260">0.02</text>
  <text
     xml:space="preserve"
     x="18.8453"
     y="424.901"
     fill="black"
     font-size="18.7041"
     font-family="Helvetica"
     id="text262">0.04</text>
  <text
     xml:space="preserve"
     x="19.4371"
     y="360.396"
     fill="black"
     font-size="18.7041"
     font-family="Helvetica"
     id="text264">0.06</text>
  <text
     xml:space="preserve"
     x="19.4371"
     y="296.484"
     fill="black"
     font-size="18.7041"
     font-family="Helvetica"
     id="text266">0.08</text>
  <text
     xml:space="preserve"
     x="32.4563"
     y="231.979"
     fill="black"
     font-size="18.7041"
     font-family="Helvetica"
     id="text268">0.1</text>
  <text
     xml:space="preserve"
     x="19.4371"
     y="168.067"
     fill="black"
     font-size="18.7041"
     font-family="Helvetica"
     id="text270">0.12</text>
  <text
     xml:space="preserve"
     x="18.8453"
     y="103.562"
     fill="black"
     font-size="18.7041"
     font-family="Helvetica"
     id="text272">0.14</text>
  <g
     fill="#ff0000"
     id="g294">
    <rect
       x="70.2875"
       y="513.078"
       width="4.73427"
       height="4.73427"
       id="rect274" />
    <rect
       x="111.519"
       y="448.481"
       width="4.73427"
       height="4.73427"
       id="rect276" />
    <rect
       x="152.75"
       y="463.645"
       width="4.73427"
       height="4.73427"
       id="rect278" />
    <rect
       x="193.981"
       y="475.805"
       width="4.73427"
       height="4.73427"
       id="rect280" />
    <rect
       x="235.212"
       y="479.9"
       width="4.73427"
       height="4.73427"
       id="rect282" />
    <rect
       x="276.444"
       y="475.698"
       width="4.73427"
       height="4.73427"
       id="rect284" />
    <rect
       x="317.675"
       y="460.47"
       width="4.73427"
       height="4.73427"
       id="rect286" />
    <rect
       x="358.906"
       y="420.66"
       width="4.73427"
       height="4.73427"
       id="rect288" />
    <rect
       x="400.137"
       y="227.036"
       width="4.73427"
       height="4.73427"
       id="rect290" />
    <rect
       x="441.368"
       y="228.03"
       width="4.73427"
       height="4.73427"
       id="rect292" />
  </g>
  <path
     d="M70.2875,515.445h -13.0946"
     fill="none"
     stroke="black"
     id="path296" />
  <path
     d="M57.1929,516.628v -2.36714"
     fill="none"
     stroke="black"
     id="path298" />
  <path
     d="M75.0218,515.445h 23.4024"
     fill="none"
     stroke="black"
     id="path300" />
  <path
     d="M98.4241,516.628v -2.36714"
     fill="none"
     stroke="black"
     id="path302" />
  <path
     d="M111.519,450.848h -13.0946"
     fill="none"
     stroke="black"
     id="path304" />
  <path
     d="M98.4241,452.031v -2.36714"
     fill="none"
     stroke="black"
     id="path306" />
  <path
     d="M116.253,450.848h 23.4024"
     fill="none"
     stroke="black"
     id="path308" />
  <path
     d="M139.655,452.031v -2.36714"
     fill="none"
     stroke="black"
     id="path310" />
  <path
     d="M152.75,466.012h -13.0946"
     fill="none"
     stroke="black"
     id="path312" />
  <path
     d="M139.655,467.195v -2.36714"
     fill="none"
     stroke="black"
     id="path314" />
  <path
     d="M157.484,466.012h 23.4024"
     fill="none"
     stroke="black"
     id="path316" />
  <path
     d="M180.887,467.195v -2.36714"
     fill="none"
     stroke="black"
     id="path318" />
  <path
     d="M193.981,478.172h -13.0946"
     fill="none"
     stroke="black"
     id="path320" />
  <path
     d="M180.887,479.356v -2.36714"
     fill="none"
     stroke="black"
     id="path322" />
  <path
     d="M198.715,478.172h 23.4024"
     fill="none"
     stroke="black"
     id="path324" />
  <path
     d="M222.118,479.356v -2.36714"
     fill="none"
     stroke="black"
     id="path326" />
  <path
     d="M235.212,482.267h -13.0946"
     fill="none"
     stroke="black"
     id="path328" />
  <path
     d="M222.118,483.451v -2.36714"
     fill="none"
     stroke="black"
     id="path330" />
  <path
     d="M239.947,482.267h 23.4024"
     fill="none"
     stroke="black"
     id="path332" />
  <path
     d="M263.349,483.451v -2.36714"
     fill="none"
     stroke="black"
     id="path334" />
  <path
     d="M276.444,478.066h -13.0946"
     fill="none"
     stroke="black"
     id="path336" />
  <path
     d="M263.349,479.249v -2.36714"
     fill="none"
     stroke="black"
     id="path338" />
  <path
     d="M281.178,478.066h 23.4024"
     fill="none"
     stroke="black"
     id="path340" />
  <path
     d="M304.58,479.249v -2.36714"
     fill="none"
     stroke="black"
     id="path342" />
  <path
     d="M278.811,475.698v -0.259991"
     fill="none"
     stroke="black"
     id="path344" />
  <path
     d="M277.627,475.439h 2.36714"
     fill="none"
     stroke="black"
     id="path346" />
  <path
     d="M278.811,480.433v 0.259991"
     fill="none"
     stroke="black"
     id="path348" />
  <path
     d="M277.627,480.693h 2.36714"
     fill="none"
     stroke="black"
     id="path350" />
  <path
     d="M317.675,462.837h -13.0946"
     fill="none"
     stroke="black"
     id="path352" />
  <path
     d="M304.58,464.021v -2.36714"
     fill="none"
     stroke="black"
     id="path354" />
  <path
     d="M322.409,462.837h 23.4024"
     fill="none"
     stroke="black"
     id="path356" />
  <path
     d="M345.811,464.021v -2.36714"
     fill="none"
     stroke="black"
     id="path358" />
  <path
     d="M320.042,460.47v -2.50594"
     fill="none"
     stroke="black"
     id="path360" />
  <path
     d="M318.858,457.964h 2.36714"
     fill="none"
     stroke="black"
     id="path362" />
  <path
     d="M320.042,465.205v 2.50594"
     fill="none"
     stroke="black"
     id="path364" />
  <path
     d="M318.858,467.711h 2.36714"
     fill="none"
     stroke="black"
     id="path366" />
  <path
     d="M358.906,423.027h -13.0946"
     fill="none"
     stroke="black"
     id="path368" />
  <path
     d="M345.811,424.211v -2.36714"
     fill="none"
     stroke="black"
     id="path370" />
  <path
     d="M363.64,423.027h 23.4024"
     fill="none"
     stroke="black"
     id="path372" />
  <path
     d="M387.043,424.211v -2.36714"
     fill="none"
     stroke="black"
     id="path374" />
  <path
     d="M361.273,420.66v -11.4164"
     fill="none"
     stroke="black"
     id="path376" />
  <path
     d="M360.09,409.244h 2.36714"
     fill="none"
     stroke="black"
     id="path378" />
  <path
     d="M361.273,425.394v 11.4164"
     fill="none"
     stroke="black"
     id="path380" />
  <path
     d="M360.09,436.811h 2.36714"
     fill="none"
     stroke="black"
     id="path382" />
  <path
     d="M400.137,229.403h -13.0946"
     fill="none"
     stroke="black"
     id="path384" />
  <path
     d="M387.043,230.586v -2.36714"
     fill="none"
     stroke="black"
     id="path386" />
  <path
     d="M404.871,229.403h 23.4024"
     fill="none"
     stroke="black"
     id="path388" />
  <path
     d="M428.274,230.586v -2.36714"
     fill="none"
     stroke="black"
     id="path390" />
  <path
     d="M402.504,227.036v -61.7029"
     fill="none"
     stroke="black"
     id="path392" />
  <path
     d="M401.321,165.333h 2.36714"
     fill="none"
     stroke="black"
     id="path394" />
  <path
     d="M402.504,231.77v 61.7029"
     fill="none"
     stroke="black"
     id="path396" />
  <path
     d="M401.321,293.473h 2.36714"
     fill="none"
     stroke="black"
     id="path398" />
  <path
     d="M441.368,230.397h -13.0946"
     fill="none"
     stroke="black"
     id="path400" />
  <path
     d="M428.274,231.58v -2.36714"
     fill="none"
     stroke="black"
     id="path402" />
  <path
     d="M446.103,230.397h 23.4024"
     fill="none"
     stroke="black"
     id="path404" />
  <path
     d="M469.505,231.58v -2.36714"
     fill="none"
     stroke="black"
     id="path406" />
  <path
     d="M443.736,228.03v -123.052"
     fill="none"
     stroke="black"
     id="path408" />
  <path
     d="M442.552,104.977h 2.36714"
     fill="none"
     stroke="black"
     id="path410" />
  <path
     d="M443.736,232.764v 123.052"
     fill="none"
     stroke="black"
     id="path412" />
  <path
     d="M442.552,355.816h 2.36714"
     fill="none"
     stroke="black"
     id="path414" />
  <path
     d="M75.4414,528.377h -18.2485"
     fill="none"
     stroke="black"
     id="path416" />
  <path
     d="M57.1929,529.561v -2.36714"
     fill="none"
     stroke="black"
     id="path418" />
  <path
     d="M80.1757,528.377h 18.2485"
     fill="none"
     stroke="black"
     id="path420" />
  <path
     d="M98.4241,529.561v -2.36714"
     fill="none"
     stroke="black"
     id="path422" />
  <path
     d="M116.673,483.008h -18.2485"
     fill="none"
     stroke="black"
     id="path424" />
  <path
     d="M98.4241,484.191v -2.36714"
     fill="none"
     stroke="black"
     id="path426" />
  <path
     d="M121.407,483.008h 18.2485"
     fill="none"
     stroke="black"
     id="path428" />
  <path
     d="M139.655,484.191v -2.36714"
     fill="none"
     stroke="black"
     id="path430" />
  <path
     d="M157.904,491.951h -18.2485"
     fill="none"
     stroke="black"
     id="path432" />
  <path
     d="M139.655,493.135v -2.36714"
     fill="none"
     stroke="black"
     id="path434" />
  <path
     d="M162.638,491.951h 18.2485"
     fill="none"
     stroke="black"
     id="path436" />
  <path
     d="M180.887,493.135v -2.36714"
     fill="none"
     stroke="black"
     id="path438" />
  <path
     d="M199.135,502.023h -18.2485"
     fill="none"
     stroke="black"
     id="path440" />
  <path
     d="M180.887,503.206v -2.36714"
     fill="none"
     stroke="black"
     id="path442" />
  <path
     d="M203.869,502.023h 18.2485"
     fill="none"
     stroke="black"
     id="path444" />
  <path
     d="M222.118,503.206v -2.36714"
     fill="none"
     stroke="black"
     id="path446" />
  <path
     d="M240.366,503.245h -18.2485"
     fill="none"
     stroke="black"
     id="path448" />
  <path
     d="M222.118,504.428v -2.36714"
     fill="none"
     stroke="black"
     id="path450" />
  <path
     d="M245.1,503.245h 18.2485"
     fill="none"
     stroke="black"
     id="path452" />
  <path
     d="M263.349,504.428v -2.36714"
     fill="none"
     stroke="black"
     id="path454" />
  <path
     d="M281.597,502.967h -18.2485"
     fill="none"
     stroke="black"
     id="path456" />
  <path
     d="M263.349,504.151v -2.36714"
     fill="none"
     stroke="black"
     id="path458" />
  <path
     d="M286.332,502.967h 18.2485"
     fill="none"
     stroke="black"
     id="path460" />
  <path
     d="M304.58,504.151v -2.36714"
     fill="none"
     stroke="black"
     id="path462" />
  <path
     d="M322.829,493.362h -18.2485"
     fill="none"
     stroke="black"
     id="path464" />
  <path
     d="M304.58,494.545v -2.36714"
     fill="none"
     stroke="black"
     id="path466" />
  <path
     d="M327.563,493.362h 18.2485"
     fill="none"
     stroke="black"
     id="path468" />
  <path
     d="M345.811,494.545v -2.36714"
     fill="none"
     stroke="black"
     id="path470" />
  <path
     d="M325.196,490.995v -1.5049"
     fill="none"
     stroke="black"
     id="path472" />
  <path
     d="M324.012,489.49h 2.36714"
     fill="none"
     stroke="black"
     id="path474" />
  <path
     d="M325.196,495.729v 1.5049"
     fill="none"
     stroke="black"
     id="path476" />
  <path
     d="M324.012,497.234h 2.36714"
     fill="none"
     stroke="black"
     id="path478" />
  <path
     d="M364.06,476.152h -18.2485"
     fill="none"
     stroke="black"
     id="path480" />
  <path
     d="M345.811,477.336v -2.36714"
     fill="none"
     stroke="black"
     id="path482" />
  <path
     d="M368.794,476.152h 18.2485"
     fill="none"
     stroke="black"
     id="path484" />
  <path
     d="M387.043,477.336v -2.36714"
     fill="none"
     stroke="black"
     id="path486" />
  <path
     d="M366.427,473.785v -7.96895"
     fill="none"
     stroke="black"
     id="path488" />
  <path
     d="M365.243,465.816h 2.36714"
     fill="none"
     stroke="black"
     id="path490" />
  <path
     d="M366.427,478.52v 7.96895"
     fill="none"
     stroke="black"
     id="path492" />
  <path
     d="M365.243,486.489h 2.36714"
     fill="none"
     stroke="black"
     id="path494" />
  <path
     d="M405.291,370.551h -18.2485"
     fill="none"
     stroke="black"
     id="path496" />
  <path
     d="M387.043,371.734v -2.36714"
     fill="none"
     stroke="black"
     id="path498" />
  <path
     d="M410.025,370.551h 18.2485"
     fill="none"
     stroke="black"
     id="path500" />
  <path
     d="M428.274,371.734v -2.36714"
     fill="none"
     stroke="black"
     id="path502" />
  <path
     d="M407.658,368.184v -44.423"
     fill="none"
     stroke="black"
     id="path504" />
  <path
     d="M406.475,323.761h 2.36714"
     fill="none"
     stroke="black"
     id="path506" />
  <path
     d="M407.658,372.918v 44.423"
     fill="none"
     stroke="black"
     id="path508" />
  <path
     d="M406.475,417.341h 2.36714"
     fill="none"
     stroke="black"
     id="path510" />
  <path
     d="M446.522,366.078h -18.2485"
     fill="none"
     stroke="black"
     id="path512" />
  <path
     d="M428.274,367.261v -2.36714"
     fill="none"
     stroke="black"
     id="path514" />
  <path
     d="M451.257,366.078h 18.2485"
     fill="none"
     stroke="black"
     id="path516" />
  <path
     d="M469.505,367.261v -2.36714"
     fill="none"
     stroke="black"
     id="path518" />
  <path
     d="M448.889,363.711v -90.6"
     fill="none"
     stroke="black"
     id="path520" />
  <path
     d="M447.706,273.111h 2.36714"
     fill="none"
     stroke="black"
     id="path522" />
  <path
     d="M448.889,368.445v 90.6"
     fill="none"
     stroke="black"
     id="path524" />
  <path
     d="M447.706,459.045h 2.36714"
     fill="none"
     stroke="black"
     id="path526" />
  <g
     fill="#0000ff"
     id="g548">
    <rect
       x="75.4414"
       y="526.01"
       width="4.73427"
       height="4.73427"
       id="rect528" />
    <rect
       x="116.673"
       y="480.64"
       width="4.73427"
       height="4.73427"
       id="rect530" />
    <rect
       x="157.904"
       y="489.584"
       width="4.73427"
       height="4.73427"
       id="rect532" />
    <rect
       x="199.135"
       y="499.655"
       width="4.73427"
       height="4.73427"
       id="rect534" />
    <rect
       x="240.366"
       y="500.877"
       width="4.73427"
       height="4.73427"
       id="rect536" />
    <rect
       x="281.597"
       y="500.6"
       width="4.73427"
       height="4.73427"
       id="rect538" />
    <rect
       x="322.829"
       y="490.995"
       width="4.73427"
       height="4.73427"
       id="rect540" />
    <rect
       x="364.06"
       y="473.785"
       width="4.73427"
       height="4.73427"
       id="rect542" />
    <rect
       x="405.291"
       y="368.184"
       width="4.73427"
       height="4.73427"
       id="rect544" />
    <rect
       x="446.522"
       y="363.711"
       width="4.73427"
       height="4.73427"
       id="rect546" />
  </g>
  <path
     d="M80.5953,537.009h -23.4024"
     fill="none"
     stroke="black"
     id="path550" />
  <path
     d="M57.1929,538.193v -2.36714"
     fill="none"
     stroke="black"
     id="path552" />
  <path
     d="M85.3296,537.009h 13.0946"
     fill="none"
     stroke="black"
     id="path554" />
  <path
     d="M98.4241,538.193v -2.36714"
     fill="none"
     stroke="black"
     id="path556" />
  <path
     d="M121.826,511.462h -23.4024"
     fill="none"
     stroke="black"
     id="path558" />
  <path
     d="M98.4241,512.646v -2.36714"
     fill="none"
     stroke="black"
     id="path560" />
  <path
     d="M126.561,511.462h 13.0946"
     fill="none"
     stroke="black"
     id="path562" />
  <path
     d="M139.655,512.646v -2.36714"
     fill="none"
     stroke="black"
     id="path564" />
  <path
     d="M163.058,515.182h -23.4024"
     fill="none"
     stroke="black"
     id="path566" />
  <path
     d="M139.655,516.365v -2.36714"
     fill="none"
     stroke="black"
     id="path568" />
  <path
     d="M167.792,515.182h 13.0946"
     fill="none"
     stroke="black"
     id="path570" />
  <path
     d="M180.887,516.365v -2.36714"
     fill="none"
     stroke="black"
     id="path572" />
  <path
     d="M204.289,521.664h -23.4024"
     fill="none"
     stroke="black"
     id="path574" />
  <path
     d="M180.887,522.847v -2.36714"
     fill="none"
     stroke="black"
     id="path576" />
  <path
     d="M209.023,521.664h 13.0946"
     fill="none"
     stroke="black"
     id="path578" />
  <path
     d="M222.118,522.847v -2.36714"
     fill="none"
     stroke="black"
     id="path580" />
  <path
     d="M245.52,522.711h -23.4024"
     fill="none"
     stroke="black"
     id="path582" />
  <path
     d="M222.118,523.894v -2.36714"
     fill="none"
     stroke="black"
     id="path584" />
  <path
     d="M250.254,522.711h 13.0946"
     fill="none"
     stroke="black"
     id="path586" />
  <path
     d="M263.349,523.894v -2.36714"
     fill="none"
     stroke="black"
     id="path588" />
  <path
     d="M286.751,523.653h -23.4024"
     fill="none"
     stroke="black"
     id="path590" />
  <path
     d="M263.349,524.837v -2.36714"
     fill="none"
     stroke="black"
     id="path592" />
  <path
     d="M291.486,523.653h 13.0946"
     fill="none"
     stroke="black"
     id="path594" />
  <path
     d="M304.58,524.837v -2.36714"
     fill="none"
     stroke="black"
     id="path596" />
  <path
     d="M327.983,517.561h -23.4024"
     fill="none"
     stroke="black"
     id="path598" />
  <path
     d="M304.58,518.745v -2.36714"
     fill="none"
     stroke="black"
     id="path600" />
  <path
     d="M332.717,517.561h 13.0946"
     fill="none"
     stroke="black"
     id="path602" />
  <path
     d="M345.811,518.745v -2.36714"
     fill="none"
     stroke="black"
     id="path604" />
  <path
     d="M330.35,515.194v -0.49044"
     fill="none"
     stroke="black"
     id="path606" />
  <path
     d="M329.166,514.704h 2.36714"
     fill="none"
     stroke="black"
     id="path608" />
  <path
     d="M330.35,519.929v 0.49044"
     fill="none"
     stroke="black"
     id="path610" />
  <path
     d="M329.166,520.419h 2.36714"
     fill="none"
     stroke="black"
     id="path612" />
  <path
     d="M369.214,515.996h -23.4024"
     fill="none"
     stroke="black"
     id="path614" />
  <path
     d="M345.811,517.18v -2.36714"
     fill="none"
     stroke="black"
     id="path616" />
  <path
     d="M373.948,515.996h 13.0946"
     fill="none"
     stroke="black"
     id="path618" />
  <path
     d="M387.043,517.18v -2.36714"
     fill="none"
     stroke="black"
     id="path620" />
  <path
     d="M371.581,513.629v -4.42792"
     fill="none"
     stroke="black"
     id="path622" />
  <path
     d="M370.397,509.201h 2.36714"
     fill="none"
     stroke="black"
     id="path624" />
  <path
     d="M371.581,518.363v 4.42792"
     fill="none"
     stroke="black"
     id="path626" />
  <path
     d="M370.397,522.791h 2.36714"
     fill="none"
     stroke="black"
     id="path628" />
  <path
     d="M410.445,499.937h -23.4024"
     fill="none"
     stroke="black"
     id="path630" />
  <path
     d="M387.043,501.12v -2.36714"
     fill="none"
     stroke="black"
     id="path632" />
  <path
     d="M415.179,499.937h 13.0946"
     fill="none"
     stroke="black"
     id="path634" />
  <path
     d="M428.274,501.12v -2.36714"
     fill="none"
     stroke="black"
     id="path636" />
  <path
     d="M412.812,497.569v -21.3293"
     fill="none"
     stroke="black"
     id="path638" />
  <path
     d="M411.629,476.24h 2.36714"
     fill="none"
     stroke="black"
     id="path640" />
  <path
     d="M412.812,502.304v 21.3293"
     fill="none"
     stroke="black"
     id="path642" />
  <path
     d="M411.629,523.633h 2.36714"
     fill="none"
     stroke="black"
     id="path644" />
  <path
     d="M451.676,546.986h -23.4024"
     fill="none"
     stroke="black"
     id="path646" />
  <path
     d="M428.274,546.986v -1.18357"
     fill="none"
     stroke="black"
     id="path648" />
  <path
     d="M456.41,546.986h 13.0946"
     fill="none"
     stroke="black"
     id="path650" />
  <path
     d="M469.505,546.986v -1.18357"
     fill="none"
     stroke="black"
     id="path652" />
  <g
     fill="#00ff00"
     id="g674">
    <rect
       x="80.5953"
       y="534.642"
       width="4.73427"
       height="4.73427"
       id="rect654" />
    <rect
       x="121.826"
       y="509.095"
       width="4.73427"
       height="4.73427"
       id="rect656" />
    <rect
       x="163.058"
       y="512.815"
       width="4.73427"
       height="4.73427"
       id="rect658" />
    <rect
       x="204.289"
       y="519.297"
       width="4.73427"
       height="4.73427"
       id="rect660" />
    <rect
       x="245.52"
       y="520.344"
       width="4.73427"
       height="4.73427"
       id="rect662" />
    <rect
       x="286.751"
       y="521.286"
       width="4.73427"
       height="4.73427"
       id="rect664" />
    <rect
       x="327.983"
       y="515.194"
       width="4.73427"
       height="4.73427"
       id="rect666" />
    <rect
       x="369.214"
       y="513.629"
       width="4.73427"
       height="4.73427"
       id="rect668" />
    <rect
       x="410.445"
       y="497.569"
       width="4.73427"
       height="4.73427"
       id="rect670" />
    <rect
       x="451.676"
       y="544.619"
       width="4.73427"
       height="4.73427"
       id="rect672" />
  </g>
  <rect
     x="69.1469"
     y="73.3812"
     width="169.842"
     height="60.362"
     fill="white"
     id="rect676" />
  <path
     d="M69.1469,133.743h 169.842"
     fill="none"
     stroke="black"
     id="path678" />
  <path
     d="M238.989,133.743v -60.362"
     fill="none"
     stroke="black"
     id="path680" />
  <path
     d="M238.989,73.3812h -169.842"
     fill="none"
     stroke="black"
     id="path682" />
  <path
     d="M69.1469,73.3812v 60.362"
     fill="none"
     stroke="black"
     id="path684" />
  <text
     xml:space="preserve"
     x="111.164"
     y="87.584"
     fill="black"
     font-size="13.6676"
     font-family="Helvetica"
     id="text686">DC</text>
  <path
     d="M75.516,83.4416h 29.7224"
     fill="none"
     stroke="black"
     id="path688" />
  <g
     fill="#ff0000"
     id="g692">
    <rect
       x="88.0101"
       y="81.0744"
       width="4.73427"
       height="4.73427"
       id="rect690" />
  </g>
  <text
     xml:space="preserve"
     x="111.164"
     y="107.705"
     fill="black"
     font-size="13.6676"
     font-family="Helvetica"
     id="text694">FMT - 2 layers</text>
  <path
     d="M75.516,103.562h 29.7224"
     fill="none"
     stroke="black"
     id="path696" />
  <g
     fill="#0000ff"
     id="g700">
    <rect
       x="88.0101"
       y="101.195"
       width="4.73427"
       height="4.73427"
       id="rect698" />
  </g>
  <text
     xml:space="preserve"
     x="111.164"
     y="127.825"
     fill="black"
     font-size="13.6676"
     font-family="Helvetica"
     id="text702">FMT - 3 layers</text>
  <path
     d="M75.516,123.683h 29.7224"
     fill="none"
     stroke="black"
     id="path704" />
  <g
     fill="#00ff00"
     id="g708">
    <rect
       x="88.0101"
       y="121.316"
       width="4.73427"
       height="4.73427"
       id="rect706" />
  </g>
  <g
     id="g1015"
     transform="translate(27.395079)">
    <text
       xml:space="preserve"
       x="246.09"
       y="33.1399"
       fill="#000000"
       font-size="9.72801px"
       font-family="Helvetica"
       font-weight="bold"
       id="text712">) acceptance</text>
    <text
       xml:space="preserve"
       x="242.53999"
       y="28.9974"
       fill="#000000"
       font-size="6.652px"
       font-family="Helvetica"
       font-weight="bold"
       id="text714">2</text>
    <text
       xml:space="preserve"
       x="217.685"
       y="33.1399"
       fill="#000000"
       font-size="9.72801px"
       font-family="Helvetica"
       font-weight="bold"
       id="text716"> (GeV</text>
    <text
       xml:space="preserve"
       x="213.54201"
       y="28.9974"
       fill="#000000"
       font-size="6.652px"
       font-family="Helvetica"
       font-weight="bold"
       id="text718">2</text>
    <text
       xml:space="preserve"
       x="213.54201"
       y="36.690601"
       fill="#000000"
       font-size="6.652px"
       font-family="Helvetica"
       font-weight="bold"
       id="text720">T</text>
    <text
       xml:space="preserve"
       x="207.033"
       y="33.1399"
       fill="#000000"
       font-size="9.72801px"
       font-family="Helvetica"
       font-weight="bold"
       id="text722">P</text>
  </g>
</svg>
