<?xml version="1.0" encoding="UTF-8" standalone="no"?>
<svg
   width="567.429"
   height="608.262"
   viewBox="0 0 567.429 608.262"
   shape-rendering="crispEdges"
   version="1.1"
   id="svg658"
   sodipodi:docname="22zh_acc_211.svg"
   inkscape:export-filename="22zh_acc_211.pdf"
   inkscape:export-xdpi="96"
   inkscape:export-ydpi="96"
   inkscape:version="1.2.2 (1:1.2.2+202212051552+b0a8486541)"
   xmlns:inkscape="http://www.inkscape.org/namespaces/inkscape"
   xmlns:sodipodi="http://sodipodi.sourceforge.net/DTD/sodipodi-0.dtd"
   xmlns="http://www.w3.org/2000/svg"
   xmlns:svg="http://www.w3.org/2000/svg">
  <sodipodi:namedview
     id="namedview660"
     pagecolor="#ffffff"
     bordercolor="#666666"
     borderopacity="1.0"
     inkscape:showpageshadow="2"
     inkscape:pageopacity="0.0"
     inkscape:pagecheckerboard="0"
     inkscape:deskcolor="#d1d1d1"
     showgrid="false"
     inkscape:zoom="0.54870169"
     inkscape:cx="278.84004"
     inkscape:cy="215.0531"
     inkscape:window-width="1920"
     inkscape:window-height="1051"
     inkscape:window-x="0"
     inkscape:window-y="0"
     inkscape:window-maximized="1"
     inkscape:current-layer="svg658" />
  <title
     id="title2">
/home/twig/code/rge-analysis/macros/22zh_acc_211.svg
</title>
  <desc
     id="desc4">
Creator: ROOT Version 6.28/00
CreationDate: Mon Jun 19 17:00:51 2023</desc>
  <defs
     id="defs6" />
  <rect
     x="0.5"
     y="0"
     width="566.929"
     height="607.762"
     fill="white"
     id="rect8" />
  <rect
     x="57.1929"
     y="60.7762"
     width="453.543"
     height="486.21"
     fill="white"
     id="rect10" />
  <rect
     x="57.1929"
     y="60.7762"
     width="453.543"
     height="486.21"
     fill="none"
     stroke="black"
     id="rect12" />
  <rect
     x="57.1929"
     y="60.7762"
     width="453.543"
     height="486.21"
     fill="white"
     id="rect14" />
  <rect
     x="57.1929"
     y="60.7762"
     width="453.543"
     height="486.21"
     fill="none"
     stroke="black"
     id="rect16" />
  <path
     d="M57.1929,546.986h 453.543"
     fill="none"
     stroke="black"
     id="path18" />
  <path
     d="M57.1929,60.7762v 486.21"
     fill="none"
     stroke="black"
     stroke-dasharray=" 1, 2"
     id="path20" />
  <path
     d="M139.655,60.7762v 486.21"
     fill="none"
     stroke="black"
     stroke-dasharray=" 1, 2"
     id="path22" />
  <path
     d="M222.118,60.7762v 486.21"
     fill="none"
     stroke="black"
     stroke-dasharray=" 1, 2"
     id="path24" />
  <path
     d="M304.58,60.7762v 486.21"
     fill="none"
     stroke="black"
     stroke-dasharray=" 1, 2"
     id="path26" />
  <path
     d="M387.043,60.7762v 486.21"
     fill="none"
     stroke="black"
     stroke-dasharray=" 1, 2"
     id="path28" />
  <path
     d="M469.505,60.7762v 486.21"
     fill="none"
     stroke="black"
     stroke-dasharray=" 1, 2"
     id="path30" />
  <path
     d="M469.505,60.7762v 486.21"
     fill="none"
     stroke="black"
     stroke-dasharray=" 1, 2"
     id="path32" />
  <path
     d="M57.1929,546.986v -486.21"
     fill="none"
     stroke="black"
     id="path34" />
  <path
     d="M510.736,546.986h -453.543"
     fill="none"
     stroke="black"
     stroke-dasharray=" 1, 2"
     id="path36" />
  <path
     d="M510.736,464.905h -453.543"
     fill="none"
     stroke="black"
     stroke-dasharray=" 1, 2"
     id="path38" />
  <path
     d="M510.736,382.823h -453.543"
     fill="none"
     stroke="black"
     stroke-dasharray=" 1, 2"
     id="path40" />
  <path
     d="M510.736,300.742h -453.543"
     fill="none"
     stroke="black"
     stroke-dasharray=" 1, 2"
     id="path42" />
  <path
     d="M510.736,218.661h -453.543"
     fill="none"
     stroke="black"
     stroke-dasharray=" 1, 2"
     id="path44" />
  <path
     d="M510.736,136.579h -453.543"
     fill="none"
     stroke="black"
     stroke-dasharray=" 1, 2"
     id="path46" />
  <path
     d="M510.736,136.579h -453.543"
     fill="none"
     stroke="black"
     stroke-dasharray=" 1, 2"
     id="path48" />
  <path
     d="M57.1929,546.986h 453.543"
     fill="none"
     stroke="black"
     id="path50" />
  <path
     d="M57.1929,532.4v 14.5863"
     fill="none"
     stroke="black"
     id="path52" />
  <path
     d="M77.8085,539.693v 7.29315"
     fill="none"
     stroke="black"
     id="path54" />
  <path
     d="M98.4241,539.693v 7.29315"
     fill="none"
     stroke="black"
     id="path56" />
  <path
     d="M119.04,539.693v 7.29315"
     fill="none"
     stroke="black"
     id="path58" />
  <path
     d="M139.655,532.4v 14.5863"
     fill="none"
     stroke="black"
     id="path60" />
  <path
     d="M160.271,539.693v 7.29315"
     fill="none"
     stroke="black"
     id="path62" />
  <path
     d="M180.887,539.693v 7.29315"
     fill="none"
     stroke="black"
     id="path64" />
  <path
     d="M201.502,539.693v 7.29315"
     fill="none"
     stroke="black"
     id="path66" />
  <path
     d="M222.118,532.4v 14.5863"
     fill="none"
     stroke="black"
     id="path68" />
  <path
     d="M242.733,539.693v 7.29315"
     fill="none"
     stroke="black"
     id="path70" />
  <path
     d="M263.349,539.693v 7.29315"
     fill="none"
     stroke="black"
     id="path72" />
  <path
     d="M283.965,539.693v 7.29315"
     fill="none"
     stroke="black"
     id="path74" />
  <path
     d="M304.58,532.4v 14.5863"
     fill="none"
     stroke="black"
     id="path76" />
  <path
     d="M325.196,539.693v 7.29315"
     fill="none"
     stroke="black"
     id="path78" />
  <path
     d="M345.811,539.693v 7.29315"
     fill="none"
     stroke="black"
     id="path80" />
  <path
     d="M366.427,539.693v 7.29315"
     fill="none"
     stroke="black"
     id="path82" />
  <path
     d="M387.043,532.4v 14.5863"
     fill="none"
     stroke="black"
     id="path84" />
  <path
     d="M407.658,539.693v 7.29315"
     fill="none"
     stroke="black"
     id="path86" />
  <path
     d="M428.274,539.693v 7.29315"
     fill="none"
     stroke="black"
     id="path88" />
  <path
     d="M448.889,539.693v 7.29315"
     fill="none"
     stroke="black"
     id="path90" />
  <path
     d="M469.505,532.4v 14.5863"
     fill="none"
     stroke="black"
     id="path92" />
  <path
     d="M469.505,532.4v 14.5863"
     fill="none"
     stroke="black"
     id="path94" />
  <path
     d="M490.121,539.693v 7.29315"
     fill="none"
     stroke="black"
     id="path96" />
  <text
     xml:space="preserve"
     x="51.9852"
     y="566.929"
     fill="black"
     font-size="18.7041"
     font-family="Helvetica"
     id="text98">0</text>
  <text
     xml:space="preserve"
     x="127.142"
     y="566.929"
     fill="black"
     font-size="18.7041"
     font-family="Helvetica"
     id="text100">0.2</text>
  <text
     xml:space="preserve"
     x="209.4"
     y="566.929"
     fill="black"
     font-size="18.7041"
     font-family="Helvetica"
     id="text102">0.4</text>
  <text
     xml:space="preserve"
     x="291.658"
     y="566.929"
     fill="black"
     font-size="18.7041"
     font-family="Helvetica"
     id="text104">0.6</text>
  <text
     xml:space="preserve"
     x="374.508"
     y="566.929"
     fill="black"
     font-size="18.7041"
     font-family="Helvetica"
     id="text106">0.8</text>
  <text
     xml:space="preserve"
     x="465.642"
     y="566.929"
     fill="black"
     font-size="18.7041"
     font-family="Helvetica"
     id="text108">1</text>
  <text
     xml:space="preserve"
     x="504.108"
     y="588.825"
     fill="black"
     font-size="12.6361"
     font-family="Helvetica"
     id="text110">h</text>
  <text
     xml:space="preserve"
     x="495.231"
     y="582.907"
     fill="black"
     font-size="18.7041"
     font-family="Helvetica"
     id="text112">z</text>
  <path
     d="M57.1929,546.986v -486.21"
     fill="none"
     stroke="black"
     id="path114" />
  <path
     d="M70.7992,546.986h -13.6063"
     fill="none"
     stroke="black"
     id="path116" />
  <path
     d="M63.9961,530.57h -6.80315"
     fill="none"
     stroke="black"
     id="path118" />
  <path
     d="M63.9961,514.153h -6.80315"
     fill="none"
     stroke="black"
     id="path120" />
  <path
     d="M63.9961,497.737h -6.80315"
     fill="none"
     stroke="black"
     id="path122" />
  <path
     d="M63.9961,481.321h -6.80315"
     fill="none"
     stroke="black"
     id="path124" />
  <path
     d="M70.7992,464.905h -13.6063"
     fill="none"
     stroke="black"
     id="path126" />
  <path
     d="M63.9961,448.488h -6.80315"
     fill="none"
     stroke="black"
     id="path128" />
  <path
     d="M63.9961,432.072h -6.80315"
     fill="none"
     stroke="black"
     id="path130" />
  <path
     d="M63.9961,415.656h -6.80315"
     fill="none"
     stroke="black"
     id="path132" />
  <path
     d="M63.9961,399.24h -6.80315"
     fill="none"
     stroke="black"
     id="path134" />
  <path
     d="M70.7992,382.823h -13.6063"
     fill="none"
     stroke="black"
     id="path136" />
  <path
     d="M63.9961,366.407h -6.80315"
     fill="none"
     stroke="black"
     id="path138" />
  <path
     d="M63.9961,349.991h -6.80315"
     fill="none"
     stroke="black"
     id="path140" />
  <path
     d="M63.9961,333.574h -6.80315"
     fill="none"
     stroke="black"
     id="path142" />
  <path
     d="M63.9961,317.158h -6.80315"
     fill="none"
     stroke="black"
     id="path144" />
  <path
     d="M70.7992,300.742h -13.6063"
     fill="none"
     stroke="black"
     id="path146" />
  <path
     d="M63.9961,284.326h -6.80315"
     fill="none"
     stroke="black"
     id="path148" />
  <path
     d="M63.9961,267.909h -6.80315"
     fill="none"
     stroke="black"
     id="path150" />
  <path
     d="M63.9961,251.493h -6.80315"
     fill="none"
     stroke="black"
     id="path152" />
  <path
     d="M63.9961,235.077h -6.80315"
     fill="none"
     stroke="black"
     id="path154" />
  <path
     d="M70.7992,218.661h -13.6063"
     fill="none"
     stroke="black"
     id="path156" />
  <path
     d="M63.9961,202.244h -6.80315"
     fill="none"
     stroke="black"
     id="path158" />
  <path
     d="M63.9961,185.828h -6.80315"
     fill="none"
     stroke="black"
     id="path160" />
  <path
     d="M63.9961,169.412h -6.80315"
     fill="none"
     stroke="black"
     id="path162" />
  <path
     d="M63.9961,152.995h -6.80315"
     fill="none"
     stroke="black"
     id="path164" />
  <path
     d="M70.7992,136.579h -13.6063"
     fill="none"
     stroke="black"
     id="path166" />
  <path
     d="M70.7992,136.579h -13.6063"
     fill="none"
     stroke="black"
     id="path168" />
  <path
     d="M63.9961,120.163h -6.80315"
     fill="none"
     stroke="black"
     id="path170" />
  <path
     d="M63.9961,103.747h -6.80315"
     fill="none"
     stroke="black"
     id="path172" />
  <path
     d="M63.9961,87.3304h -6.80315"
     fill="none"
     stroke="black"
     id="path174" />
  <path
     d="M63.9961,70.9141h -6.80315"
     fill="none"
     stroke="black"
     id="path176" />
  <text
     xml:space="preserve"
     x="44.8838"
     y="553.318"
     fill="black"
     font-size="18.7041"
     font-family="Helvetica"
     id="text178">0</text>
  <text
     xml:space="preserve"
     x="22.396"
     y="471.06"
     fill="black"
     font-size="18.7041"
     font-family="Helvetica"
     id="text180">0.01</text>
  <text
     xml:space="preserve"
     x="19.4371"
     y="388.802"
     fill="black"
     font-size="18.7041"
     font-family="Helvetica"
     id="text182">0.02</text>
  <text
     xml:space="preserve"
     x="19.4371"
     y="307.136"
     fill="black"
     font-size="18.7041"
     font-family="Helvetica"
     id="text184">0.03</text>
  <text
     xml:space="preserve"
     x="18.8453"
     y="224.878"
     fill="black"
     font-size="18.7041"
     font-family="Helvetica"
     id="text186">0.04</text>
  <text
     xml:space="preserve"
     x="19.4371"
     y="142.62"
     fill="black"
     font-size="18.7041"
     font-family="Helvetica"
     id="text188">0.05</text>
  <g
     fill="#ff0000"
     id="g210">
    <rect
       x="70.2875"
       y="419.209"
       width="4.73427"
       height="4.73427"
       id="rect190" />
    <rect
       x="111.519"
       y="126.151"
       width="4.73427"
       height="4.73427"
       id="rect192" />
    <rect
       x="152.75"
       y="104.359"
       width="4.73427"
       height="4.73427"
       id="rect194" />
    <rect
       x="193.981"
       y="132.331"
       width="4.73427"
       height="4.73427"
       id="rect196" />
    <rect
       x="235.212"
       y="151.314"
       width="4.73427"
       height="4.73427"
       id="rect198" />
    <rect
       x="276.444"
       y="178.82"
       width="4.73427"
       height="4.73427"
       id="rect200" />
    <rect
       x="317.675"
       y="215.418"
       width="4.73427"
       height="4.73427"
       id="rect202" />
    <rect
       x="358.906"
       y="252.36"
       width="4.73427"
       height="4.73427"
       id="rect204" />
    <rect
       x="400.137"
       y="266.87"
       width="4.73427"
       height="4.73427"
       id="rect206" />
    <rect
       x="441.368"
       y="398.26"
       width="4.73427"
       height="4.73427"
       id="rect208" />
  </g>
  <path
     d="M70.2875,421.576h -13.0946"
     fill="none"
     stroke="black"
     id="path212" />
  <path
     d="M57.1929,422.76v -2.36714"
     fill="none"
     stroke="black"
     id="path214" />
  <path
     d="M75.0218,421.576h 23.4024"
     fill="none"
     stroke="black"
     id="path216" />
  <path
     d="M98.4241,422.76v -2.36714"
     fill="none"
     stroke="black"
     id="path218" />
  <path
     d="M111.519,128.518h -13.0946"
     fill="none"
     stroke="black"
     id="path220" />
  <path
     d="M98.4241,129.702v -2.36714"
     fill="none"
     stroke="black"
     id="path222" />
  <path
     d="M116.253,128.518h 23.4024"
     fill="none"
     stroke="black"
     id="path224" />
  <path
     d="M139.655,129.702v -2.36714"
     fill="none"
     stroke="black"
     id="path226" />
  <path
     d="M152.75,106.727h -13.0946"
     fill="none"
     stroke="black"
     id="path228" />
  <path
     d="M139.655,107.91v -2.36714"
     fill="none"
     stroke="black"
     id="path230" />
  <path
     d="M157.484,106.727h 23.4024"
     fill="none"
     stroke="black"
     id="path232" />
  <path
     d="M180.887,107.91v -2.36714"
     fill="none"
     stroke="black"
     id="path234" />
  <path
     d="M193.981,134.698h -13.0946"
     fill="none"
     stroke="black"
     id="path236" />
  <path
     d="M180.887,135.881v -2.36714"
     fill="none"
     stroke="black"
     id="path238" />
  <path
     d="M198.715,134.698h 23.4024"
     fill="none"
     stroke="black"
     id="path240" />
  <path
     d="M222.118,135.881v -2.36714"
     fill="none"
     stroke="black"
     id="path242" />
  <path
     d="M235.212,153.681h -13.0946"
     fill="none"
     stroke="black"
     id="path244" />
  <path
     d="M222.118,154.864v -2.36714"
     fill="none"
     stroke="black"
     id="path246" />
  <path
     d="M239.947,153.681h 23.4024"
     fill="none"
     stroke="black"
     id="path248" />
  <path
     d="M263.349,154.864v -2.36714"
     fill="none"
     stroke="black"
     id="path250" />
  <path
     d="M237.579,151.314v -0.0851165"
     fill="none"
     stroke="black"
     id="path252" />
  <path
     d="M236.396,151.229h 2.36714"
     fill="none"
     stroke="black"
     id="path254" />
  <path
     d="M237.579,156.048v 0.0851165"
     fill="none"
     stroke="black"
     id="path256" />
  <path
     d="M236.396,156.133h 2.36714"
     fill="none"
     stroke="black"
     id="path258" />
  <path
     d="M276.444,181.187h -13.0946"
     fill="none"
     stroke="black"
     id="path260" />
  <path
     d="M263.349,182.37v -2.36714"
     fill="none"
     stroke="black"
     id="path262" />
  <path
     d="M281.178,181.187h 23.4024"
     fill="none"
     stroke="black"
     id="path264" />
  <path
     d="M304.58,182.37v -2.36714"
     fill="none"
     stroke="black"
     id="path266" />
  <path
     d="M278.811,178.82v -0.375623"
     fill="none"
     stroke="black"
     id="path268" />
  <path
     d="M277.627,178.444h 2.36714"
     fill="none"
     stroke="black"
     id="path270" />
  <path
     d="M278.811,183.554v 0.375623"
     fill="none"
     stroke="black"
     id="path272" />
  <path
     d="M277.627,183.93h 2.36714"
     fill="none"
     stroke="black"
     id="path274" />
  <path
     d="M317.675,217.785h -13.0946"
     fill="none"
     stroke="black"
     id="path276" />
  <path
     d="M304.58,218.969v -2.36714"
     fill="none"
     stroke="black"
     id="path278" />
  <path
     d="M322.409,217.785h 23.4024"
     fill="none"
     stroke="black"
     id="path280" />
  <path
     d="M345.811,218.969v -2.36714"
     fill="none"
     stroke="black"
     id="path282" />
  <path
     d="M320.042,215.418v -0.649942"
     fill="none"
     stroke="black"
     id="path284" />
  <path
     d="M318.858,214.768h 2.36714"
     fill="none"
     stroke="black"
     id="path286" />
  <path
     d="M320.042,220.153v 0.649942"
     fill="none"
     stroke="black"
     id="path288" />
  <path
     d="M318.858,220.802h 2.36714"
     fill="none"
     stroke="black"
     id="path290" />
  <path
     d="M358.906,254.727h -13.0946"
     fill="none"
     stroke="black"
     id="path292" />
  <path
     d="M345.811,255.91v -2.36714"
     fill="none"
     stroke="black"
     id="path294" />
  <path
     d="M363.64,254.727h 23.4024"
     fill="none"
     stroke="black"
     id="path296" />
  <path
     d="M387.043,255.91v -2.36714"
     fill="none"
     stroke="black"
     id="path298" />
  <path
     d="M361.273,252.36v -1.08188"
     fill="none"
     stroke="black"
     id="path300" />
  <path
     d="M360.09,251.278h 2.36714"
     fill="none"
     stroke="black"
     id="path302" />
  <path
     d="M361.273,257.094v 1.08188"
     fill="none"
     stroke="black"
     id="path304" />
  <path
     d="M360.09,258.176h 2.36714"
     fill="none"
     stroke="black"
     id="path306" />
  <path
     d="M400.137,269.237h -13.0946"
     fill="none"
     stroke="black"
     id="path308" />
  <path
     d="M387.043,270.42v -2.36714"
     fill="none"
     stroke="black"
     id="path310" />
  <path
     d="M404.871,269.237h 23.4024"
     fill="none"
     stroke="black"
     id="path312" />
  <path
     d="M428.274,270.42v -2.36714"
     fill="none"
     stroke="black"
     id="path314" />
  <path
     d="M402.504,266.87v -2.05958"
     fill="none"
     stroke="black"
     id="path316" />
  <path
     d="M401.321,264.81h 2.36714"
     fill="none"
     stroke="black"
     id="path318" />
  <path
     d="M402.504,271.604v 2.05958"
     fill="none"
     stroke="black"
     id="path320" />
  <path
     d="M401.321,273.664h 2.36714"
     fill="none"
     stroke="black"
     id="path322" />
  <path
     d="M441.368,400.627h -13.0946"
     fill="none"
     stroke="black"
     id="path324" />
  <path
     d="M428.274,401.811v -2.36714"
     fill="none"
     stroke="black"
     id="path326" />
  <path
     d="M446.103,400.627h 23.4024"
     fill="none"
     stroke="black"
     id="path328" />
  <path
     d="M469.505,401.811v -2.36714"
     fill="none"
     stroke="black"
     id="path330" />
  <path
     d="M443.736,398.26v -1.89183"
     fill="none"
     stroke="black"
     id="path332" />
  <path
     d="M442.552,396.368h 2.36714"
     fill="none"
     stroke="black"
     id="path334" />
  <path
     d="M443.736,402.995v 1.89183"
     fill="none"
     stroke="black"
     id="path336" />
  <path
     d="M442.552,404.886h 2.36714"
     fill="none"
     stroke="black"
     id="path338" />
  <path
     d="M75.4414,481.476h -18.2485"
     fill="none"
     stroke="black"
     id="path340" />
  <path
     d="M57.1929,482.66v -2.36714"
     fill="none"
     stroke="black"
     id="path342" />
  <path
     d="M80.1757,481.476h 18.2485"
     fill="none"
     stroke="black"
     id="path344" />
  <path
     d="M98.4241,482.66v -2.36714"
     fill="none"
     stroke="black"
     id="path346" />
  <path
     d="M116.673,240.027h -18.2485"
     fill="none"
     stroke="black"
     id="path348" />
  <path
     d="M98.4241,241.21v -2.36714"
     fill="none"
     stroke="black"
     id="path350" />
  <path
     d="M121.407,240.027h 18.2485"
     fill="none"
     stroke="black"
     id="path352" />
  <path
     d="M139.655,241.21v -2.36714"
     fill="none"
     stroke="black"
     id="path354" />
  <path
     d="M157.904,178.182h -18.2485"
     fill="none"
     stroke="black"
     id="path356" />
  <path
     d="M139.655,179.366v -2.36714"
     fill="none"
     stroke="black"
     id="path358" />
  <path
     d="M162.638,178.182h 18.2485"
     fill="none"
     stroke="black"
     id="path360" />
  <path
     d="M180.887,179.366v -2.36714"
     fill="none"
     stroke="black"
     id="path362" />
  <path
     d="M199.135,186.994h -18.2485"
     fill="none"
     stroke="black"
     id="path364" />
  <path
     d="M180.887,188.177v -2.36714"
     fill="none"
     stroke="black"
     id="path366" />
  <path
     d="M203.869,186.994h 18.2485"
     fill="none"
     stroke="black"
     id="path368" />
  <path
     d="M222.118,188.177v -2.36714"
     fill="none"
     stroke="black"
     id="path370" />
  <path
     d="M240.366,194.783h -18.2485"
     fill="none"
     stroke="black"
     id="path372" />
  <path
     d="M222.118,195.966v -2.36714"
     fill="none"
     stroke="black"
     id="path374" />
  <path
     d="M245.1,194.783h 18.2485"
     fill="none"
     stroke="black"
     id="path376" />
  <path
     d="M263.349,195.966v -2.36714"
     fill="none"
     stroke="black"
     id="path378" />
  <path
     d="M281.597,211.841h -18.2485"
     fill="none"
     stroke="black"
     id="path380" />
  <path
     d="M263.349,213.024v -2.36714"
     fill="none"
     stroke="black"
     id="path382" />
  <path
     d="M286.332,211.841h 18.2485"
     fill="none"
     stroke="black"
     id="path384" />
  <path
     d="M304.58,213.024v -2.36714"
     fill="none"
     stroke="black"
     id="path386" />
  <path
     d="M283.965,209.474v -0.25349"
     fill="none"
     stroke="black"
     id="path388" />
  <path
     d="M282.781,209.22h 2.36714"
     fill="none"
     stroke="black"
     id="path390" />
  <path
     d="M283.965,214.208v 0.25349"
     fill="none"
     stroke="black"
     id="path392" />
  <path
     d="M282.781,214.461h 2.36714"
     fill="none"
     stroke="black"
     id="path394" />
  <path
     d="M322.829,241.26h -18.2485"
     fill="none"
     stroke="black"
     id="path396" />
  <path
     d="M304.58,242.443v -2.36714"
     fill="none"
     stroke="black"
     id="path398" />
  <path
     d="M327.563,241.26h 18.2485"
     fill="none"
     stroke="black"
     id="path400" />
  <path
     d="M345.811,242.443v -2.36714"
     fill="none"
     stroke="black"
     id="path402" />
  <path
     d="M325.196,238.893v -0.536383"
     fill="none"
     stroke="black"
     id="path404" />
  <path
     d="M324.012,238.356h 2.36714"
     fill="none"
     stroke="black"
     id="path406" />
  <path
     d="M325.196,243.627v 0.536383"
     fill="none"
     stroke="black"
     id="path408" />
  <path
     d="M324.012,244.163h 2.36714"
     fill="none"
     stroke="black"
     id="path410" />
  <path
     d="M364.06,271.391h -18.2485"
     fill="none"
     stroke="black"
     id="path412" />
  <path
     d="M345.811,272.575v -2.36714"
     fill="none"
     stroke="black"
     id="path414" />
  <path
     d="M368.794,271.391h 18.2485"
     fill="none"
     stroke="black"
     id="path416" />
  <path
     d="M387.043,272.575v -2.36714"
     fill="none"
     stroke="black"
     id="path418" />
  <path
     d="M366.427,269.024v -0.978825"
     fill="none"
     stroke="black"
     id="path420" />
  <path
     d="M365.243,268.045h 2.36714"
     fill="none"
     stroke="black"
     id="path422" />
  <path
     d="M366.427,273.759v 0.978825"
     fill="none"
     stroke="black"
     id="path424" />
  <path
     d="M365.243,274.737h 2.36714"
     fill="none"
     stroke="black"
     id="path426" />
  <path
     d="M405.291,286.161h -18.2485"
     fill="none"
     stroke="black"
     id="path428" />
  <path
     d="M387.043,287.345v -2.36714"
     fill="none"
     stroke="black"
     id="path430" />
  <path
     d="M410.025,286.161h 18.2485"
     fill="none"
     stroke="black"
     id="path432" />
  <path
     d="M428.274,287.345v -2.36714"
     fill="none"
     stroke="black"
     id="path434" />
  <path
     d="M407.658,283.794v -1.91831"
     fill="none"
     stroke="black"
     id="path436" />
  <path
     d="M406.475,281.876h 2.36714"
     fill="none"
     stroke="black"
     id="path438" />
  <path
     d="M407.658,288.528v 1.91831"
     fill="none"
     stroke="black"
     id="path440" />
  <path
     d="M406.475,290.447h 2.36714"
     fill="none"
     stroke="black"
     id="path442" />
  <path
     d="M446.522,407.811h -18.2485"
     fill="none"
     stroke="black"
     id="path444" />
  <path
     d="M428.274,408.995v -2.36714"
     fill="none"
     stroke="black"
     id="path446" />
  <path
     d="M451.257,407.811h 18.2485"
     fill="none"
     stroke="black"
     id="path448" />
  <path
     d="M469.505,408.995v -2.36714"
     fill="none"
     stroke="black"
     id="path450" />
  <path
     d="M448.889,405.444v -1.7842"
     fill="none"
     stroke="black"
     id="path452" />
  <path
     d="M447.706,403.66h 2.36714"
     fill="none"
     stroke="black"
     id="path454" />
  <path
     d="M448.889,410.179v 1.7842"
     fill="none"
     stroke="black"
     id="path456" />
  <path
     d="M447.706,411.963h 2.36714"
     fill="none"
     stroke="black"
     id="path458" />
  <g
     fill="#0000ff"
     id="g480">
    <rect
       x="75.4414"
       y="479.109"
       width="4.73427"
       height="4.73427"
       id="rect460" />
    <rect
       x="116.673"
       y="237.66"
       width="4.73427"
       height="4.73427"
       id="rect462" />
    <rect
       x="157.904"
       y="175.815"
       width="4.73427"
       height="4.73427"
       id="rect464" />
    <rect
       x="199.135"
       y="184.627"
       width="4.73427"
       height="4.73427"
       id="rect466" />
    <rect
       x="240.366"
       y="192.416"
       width="4.73427"
       height="4.73427"
       id="rect468" />
    <rect
       x="281.597"
       y="209.474"
       width="4.73427"
       height="4.73427"
       id="rect470" />
    <rect
       x="322.829"
       y="238.893"
       width="4.73427"
       height="4.73427"
       id="rect472" />
    <rect
       x="364.06"
       y="269.024"
       width="4.73427"
       height="4.73427"
       id="rect474" />
    <rect
       x="405.291"
       y="283.794"
       width="4.73427"
       height="4.73427"
       id="rect476" />
    <rect
       x="446.522"
       y="405.444"
       width="4.73427"
       height="4.73427"
       id="rect478" />
  </g>
  <path
     d="M80.5953,518.619h -23.4024"
     fill="none"
     stroke="black"
     id="path482" />
  <path
     d="M57.1929,519.802v -2.36714"
     fill="none"
     stroke="black"
     id="path484" />
  <path
     d="M85.3296,518.619h 13.0946"
     fill="none"
     stroke="black"
     id="path486" />
  <path
     d="M98.4241,519.802v -2.36714"
     fill="none"
     stroke="black"
     id="path488" />
  <path
     d="M121.826,363.42h -23.4024"
     fill="none"
     stroke="black"
     id="path490" />
  <path
     d="M98.4241,364.604v -2.36714"
     fill="none"
     stroke="black"
     id="path492" />
  <path
     d="M126.561,363.42h 13.0946"
     fill="none"
     stroke="black"
     id="path494" />
  <path
     d="M139.655,364.604v -2.36714"
     fill="none"
     stroke="black"
     id="path496" />
  <path
     d="M163.058,282.871h -23.4024"
     fill="none"
     stroke="black"
     id="path498" />
  <path
     d="M139.655,284.055v -2.36714"
     fill="none"
     stroke="black"
     id="path500" />
  <path
     d="M167.792,282.871h 13.0946"
     fill="none"
     stroke="black"
     id="path502" />
  <path
     d="M180.887,284.055v -2.36714"
     fill="none"
     stroke="black"
     id="path504" />
  <path
     d="M204.289,272.736h -23.4024"
     fill="none"
     stroke="black"
     id="path506" />
  <path
     d="M180.887,273.919v -2.36714"
     fill="none"
     stroke="black"
     id="path508" />
  <path
     d="M209.023,272.736h 13.0946"
     fill="none"
     stroke="black"
     id="path510" />
  <path
     d="M222.118,273.919v -2.36714"
     fill="none"
     stroke="black"
     id="path512" />
  <path
     d="M245.52,267.415h -23.4024"
     fill="none"
     stroke="black"
     id="path514" />
  <path
     d="M222.118,268.598v -2.36714"
     fill="none"
     stroke="black"
     id="path516" />
  <path
     d="M250.254,267.415h 13.0946"
     fill="none"
     stroke="black"
     id="path518" />
  <path
     d="M263.349,268.598v -2.36714"
     fill="none"
     stroke="black"
     id="path520" />
  <path
     d="M286.751,272.282h -23.4024"
     fill="none"
     stroke="black"
     id="path522" />
  <path
     d="M263.349,273.466v -2.36714"
     fill="none"
     stroke="black"
     id="path524" />
  <path
     d="M291.486,272.282h 13.0946"
     fill="none"
     stroke="black"
     id="path526" />
  <path
     d="M304.58,273.466v -2.36714"
     fill="none"
     stroke="black"
     id="path528" />
  <path
     d="M327.983,293.632h -23.4024"
     fill="none"
     stroke="black"
     id="path530" />
  <path
     d="M304.58,294.816v -2.36714"
     fill="none"
     stroke="black"
     id="path532" />
  <path
     d="M332.717,293.632h 13.0946"
     fill="none"
     stroke="black"
     id="path534" />
  <path
     d="M345.811,294.816v -2.36714"
     fill="none"
     stroke="black"
     id="path536" />
  <path
     d="M330.35,291.265v -0.267874"
     fill="none"
     stroke="black"
     id="path538" />
  <path
     d="M329.166,290.997h 2.36714"
     fill="none"
     stroke="black"
     id="path540" />
  <path
     d="M330.35,295.999v 0.267874"
     fill="none"
     stroke="black"
     id="path542" />
  <path
     d="M329.166,296.267h 2.36714"
     fill="none"
     stroke="black"
     id="path544" />
  <path
     d="M369.214,314.625h -23.4024"
     fill="none"
     stroke="black"
     id="path546" />
  <path
     d="M345.811,315.809v -2.36714"
     fill="none"
     stroke="black"
     id="path548" />
  <path
     d="M373.948,314.625h 13.0946"
     fill="none"
     stroke="black"
     id="path550" />
  <path
     d="M387.043,315.809v -2.36714"
     fill="none"
     stroke="black"
     id="path552" />
  <path
     d="M371.581,312.258v -0.69735"
     fill="none"
     stroke="black"
     id="path554" />
  <path
     d="M370.397,311.561h 2.36714"
     fill="none"
     stroke="black"
     id="path556" />
  <path
     d="M371.581,316.992v 0.69735"
     fill="none"
     stroke="black"
     id="path558" />
  <path
     d="M370.397,317.689h 2.36714"
     fill="none"
     stroke="black"
     id="path560" />
  <path
     d="M410.445,325.128h -23.4024"
     fill="none"
     stroke="black"
     id="path562" />
  <path
     d="M387.043,326.311v -2.36714"
     fill="none"
     stroke="black"
     id="path564" />
  <path
     d="M415.179,325.128h 13.0946"
     fill="none"
     stroke="black"
     id="path566" />
  <path
     d="M428.274,326.311v -2.36714"
     fill="none"
     stroke="black"
     id="path568" />
  <path
     d="M412.812,322.761v -1.57615"
     fill="none"
     stroke="black"
     id="path570" />
  <path
     d="M411.629,321.185h 2.36714"
     fill="none"
     stroke="black"
     id="path572" />
  <path
     d="M412.812,327.495v 1.57615"
     fill="none"
     stroke="black"
     id="path574" />
  <path
     d="M411.629,329.071h 2.36714"
     fill="none"
     stroke="black"
     id="path576" />
  <path
     d="M451.676,423.397h -23.4024"
     fill="none"
     stroke="black"
     id="path578" />
  <path
     d="M428.274,424.581v -2.36714"
     fill="none"
     stroke="black"
     id="path580" />
  <path
     d="M456.41,423.397h 13.0946"
     fill="none"
     stroke="black"
     id="path582" />
  <path
     d="M469.505,424.581v -2.36714"
     fill="none"
     stroke="black"
     id="path584" />
  <path
     d="M454.043,421.03v -1.5412"
     fill="none"
     stroke="black"
     id="path586" />
  <path
     d="M452.86,419.489h 2.36714"
     fill="none"
     stroke="black"
     id="path588" />
  <path
     d="M454.043,425.764v 1.5412"
     fill="none"
     stroke="black"
     id="path590" />
  <path
     d="M452.86,427.305h 2.36714"
     fill="none"
     stroke="black"
     id="path592" />
  <g
     fill="#00ff00"
     id="g614">
    <rect
       x="80.5953"
       y="516.252"
       width="4.73427"
       height="4.73427"
       id="rect594" />
    <rect
       x="121.826"
       y="361.053"
       width="4.73427"
       height="4.73427"
       id="rect596" />
    <rect
       x="163.058"
       y="280.504"
       width="4.73427"
       height="4.73427"
       id="rect598" />
    <rect
       x="204.289"
       y="270.369"
       width="4.73427"
       height="4.73427"
       id="rect600" />
    <rect
       x="245.52"
       y="265.048"
       width="4.73427"
       height="4.73427"
       id="rect602" />
    <rect
       x="286.751"
       y="269.915"
       width="4.73427"
       height="4.73427"
       id="rect604" />
    <rect
       x="327.983"
       y="291.265"
       width="4.73427"
       height="4.73427"
       id="rect606" />
    <rect
       x="369.214"
       y="312.258"
       width="4.73427"
       height="4.73427"
       id="rect608" />
    <rect
       x="410.445"
       y="322.761"
       width="4.73427"
       height="4.73427"
       id="rect610" />
    <rect
       x="451.676"
       y="421.03"
       width="4.73427"
       height="4.73427"
       id="rect612" />
  </g>
  <rect
     x="332.491"
     y="72.7894"
     width="169.842"
     height="60.362"
     fill="white"
     id="rect616" />
  <path
     d="M332.491,133.151h 169.842"
     fill="none"
     stroke="black"
     id="path618" />
  <path
     d="M502.333,133.151v -60.362"
     fill="none"
     stroke="black"
     id="path620" />
  <path
     d="M502.333,72.7894h -169.842"
     fill="none"
     stroke="black"
     id="path622" />
  <path
     d="M332.491,72.7894v 60.362"
     fill="none"
     stroke="black"
     id="path624" />
  <text
     xml:space="preserve"
     x="374.508"
     y="86.9923"
     fill="black"
     font-size="13.6676"
     font-family="Helvetica"
     id="text626">DC</text>
  <path
     d="M338.86,82.8498h 29.7224"
     fill="none"
     stroke="black"
     id="path628" />
  <g
     fill="#ff0000"
     id="g632">
    <rect
       x="351.354"
       y="80.4826"
       width="4.73427"
       height="4.73427"
       id="rect630" />
  </g>
  <text
     xml:space="preserve"
     x="374.508"
     y="107.113"
     fill="black"
     font-size="13.6676"
     font-family="Helvetica"
     id="text634">FMT - 2 layers</text>
  <path
     d="M338.86,102.97h 29.7224"
     fill="none"
     stroke="black"
     id="path636" />
  <g
     fill="#0000ff"
     id="g640">
    <rect
       x="351.354"
       y="100.603"
       width="4.73427"
       height="4.73427"
       id="rect638" />
  </g>
  <text
     xml:space="preserve"
     x="374.508"
     y="127.234"
     fill="black"
     font-size="13.6676"
     font-family="Helvetica"
     id="text642">FMT - 3 layers</text>
  <path
     d="M338.86,123.091h 29.7224"
     fill="none"
     stroke="black"
     id="path644" />
  <g
     fill="#00ff00"
     id="g648">
    <rect
       x="351.354"
       y="120.724"
       width="4.73427"
       height="4.73427"
       id="rect646" />
  </g>
  <g
     id="g946"
     transform="translate(27.699108)">
    <text
       xml:space="preserve"
       x="213.54201"
       y="33.731701"
       fill="#000000"
       font-size="17.4068px"
       font-family="Helvetica"
       font-weight="bold"
       id="text652"> acceptance</text>
    <text
       xml:space="preserve"
       x="207.033"
       y="39.057701"
       fill="#000000"
       font-size="11.7712px"
       font-family="Helvetica"
       font-weight="bold"
       id="text654">h</text>
    <text
       xml:space="preserve"
       x="198.748"
       y="33.731701"
       fill="#000000"
       font-size="17.4068px"
       font-family="Helvetica"
       font-weight="bold"
       id="text656">z</text>
  </g>
</svg>
