<?xml version="1.0" encoding="UTF-8" standalone="no"?>
<svg
   width="796.65771"
   height="579"
   version="1.1"
   id="svg304"
   sodipodi:docname="22zh_acc_-211.svg"
   inkscape:version="1.2.2 (1:1.2.2+202305151914+b0a8486541)"
   inkscape:export-filename="22zh_acc_-211.pdf"
   inkscape:export-xdpi="96"
   inkscape:export-ydpi="96"
   xmlns:inkscape="http://www.inkscape.org/namespaces/inkscape"
   xmlns:sodipodi="http://sodipodi.sourceforge.net/DTD/sodipodi-0.dtd"
   xmlns="http://www.w3.org/2000/svg"
   xmlns:svg="http://www.w3.org/2000/svg">
  <defs
     id="defs308" />
  <sodipodi:namedview
     id="namedview306"
     pagecolor="#ffffff"
     bordercolor="#666666"
     borderopacity="1.0"
     inkscape:showpageshadow="2"
     inkscape:pageopacity="0.0"
     inkscape:pagecheckerboard="0"
     inkscape:deskcolor="#d1d1d1"
     showgrid="false"
     inkscape:zoom="0.50568849"
     inkscape:cx="369.79287"
     inkscape:cy="215.54772"
     inkscape:window-width="1920"
     inkscape:window-height="1051"
     inkscape:window-x="0"
     inkscape:window-y="0"
     inkscape:window-maximized="1"
     inkscape:current-layer="svg304" />
  <g
     transform="translate(59.657715,3)"
     id="g218">
    <title
       id="title4" />
    <path
       d="M 0,0 H 734 V 528 H 0 Z"
       style="fill:#ffffff;stroke:#000000;stroke-width:1"
       id="path6" />
    <g
       id="g12">
      <path
         d="M 0,0 V 528 M 133,0 V 528 M 267,0 V 528 M 400,0 V 528 M 534,0 V 528 M 667,0 v 528"
         style="stroke:#000000;stroke-width:1;stroke-dasharray:1, 2"
         id="path8" />
      <path
         d="M 0,528 H 734 M 0,431 H 734 M 0,335 H 734 M 0,238 H 734 M 0,141 H 734 M 0,45 h 734"
         style="stroke:#000000;stroke-width:1;stroke-dasharray:1, 2"
         id="path10" />
    </g>
    <svg
       x="0"
       y="0"
       overflow="hidden"
       width="734"
       height="528"
       viewBox="0 0 734 528"
       version="1.1"
       id="svg142">
      <g
         id="g76">
        <g
           transform="translate(29,460)"
           id="g18">
          <path
             d="M -29,1 H 38 V -1 H -29 Z"
             style="fill:none"
             id="path14" />
          <path
             d="m 0,0 h -29 m 0,3 V -3 M 0,0 h 38 m 0,3 V -3 M 0,0 V 1 M 3,1 H -3 M 0,0 v -1 m 3,0 h -6"
             style="fill:none;stroke:#000000;stroke-width:1"
             id="path16" />
        </g>
        <g
           transform="translate(96,241)"
           id="g24">
          <path
             d="M -29,2 H 38 V -2 H -29 Z"
             style="fill:none"
             id="path20" />
          <path
             d="m 0,0 h -29 m 0,3 V -3 M 0,0 h 38 m 0,3 V -3 M 0,0 V 2 M 3,2 H -3 M 0,0 v -2 m 3,0 h -6"
             style="fill:none;stroke:#000000;stroke-width:1"
             id="path22" />
        </g>
        <g
           transform="translate(163,122)"
           id="g30">
          <path
             d="M -29,3 H 38 V -3 H -29 Z"
             style="fill:none"
             id="path26" />
          <path
             d="m 0,0 h -29 m 0,3 V -3 M 0,0 h 38 m 0,3 V -3 M 0,0 V 3 M 3,3 H -3 M 0,0 v -3 m 3,0 h -6"
             style="fill:none;stroke:#000000;stroke-width:1"
             id="path28" />
        </g>
        <g
           transform="translate(229,93)"
           id="g36">
          <path
             d="M -29,4 H 38 V -4 H -29 Z"
             style="fill:none"
             id="path32" />
          <path
             d="m 0,0 h -29 m 0,3 V -3 M 0,0 h 38 m 0,3 V -3 M 0,0 V 4 M 3,4 H -3 M 0,0 v -4 m 3,0 h -6"
             style="fill:none;stroke:#000000;stroke-width:1"
             id="path34" />
        </g>
        <g
           transform="translate(296,72)"
           id="g42">
          <path
             d="M -29,5 H 38 V -5 h -67 z"
             style="fill:none"
             id="path38" />
          <path
             d="m 0,0 h -29 m 0,3 V -3 M 0,0 h 38 m 0,3 V -3 M 0,0 V 5 M 3,5 H -3 M 0,0 v -5 m 3,0 h -6"
             style="fill:none;stroke:#000000;stroke-width:1"
             id="path40" />
        </g>
        <g
           transform="translate(363,63)"
           id="g48">
          <path
             d="M -29,5 H 38 V -5 h -67 z"
             style="fill:none"
             id="path44" />
          <path
             d="m 0,0 h -29 m 0,3 V -3 M 0,0 h 38 m 0,3 V -3 M 0,0 V 5 M 3,5 H -3 M 0,0 v -5 m 3,0 h -6"
             style="fill:none;stroke:#000000;stroke-width:1"
             id="path46" />
        </g>
        <g
           transform="translate(430,55)"
           id="g54">
          <path
             d="M -29,7 H 38 V -7 h -67 z"
             style="fill:none"
             id="path50" />
          <path
             d="m 0,0 h -29 m 0,3 V -3 M 0,0 h 38 m 0,3 V -3 M 0,0 V 7 M 3,7 H -3 M 0,0 v -7 m 3,0 h -6"
             style="fill:none;stroke:#000000;stroke-width:1"
             id="path52" />
        </g>
        <g
           transform="translate(496,83)"
           id="g60">
          <path
             d="M -29,8 H 38 V -8 h -67 z"
             style="fill:none"
             id="path56" />
          <path
             d="m 0,0 h -29 m 0,3 V -3 M 0,0 h 38 m 0,3 V -3 M 0,0 V 8 M 3,8 H -3 M 0,0 v -8 m 3,0 h -6"
             style="fill:none;stroke:#000000;stroke-width:1"
             id="path58" />
        </g>
        <g
           transform="translate(563,113)"
           id="g66">
          <path
             d="M -29,10 H 38 V -10 H -29 Z"
             style="fill:none"
             id="path62" />
          <path
             d="m 0,0 h -29 m 0,3 V -3 M 0,0 h 38 m 0,3 V -3 M 0,0 v 10 m 3,0 H -3 M 0,0 v -10 m 3,0 h -6"
             style="fill:none;stroke:#000000;stroke-width:1"
             id="path64" />
        </g>
        <g
           transform="translate(630,342)"
           id="g72">
          <path
             d="M -29,10 H 38 V -10 H -29 Z"
             style="fill:none"
             id="path68" />
          <path
             d="m 0,0 h -29 m 0,3 V -3 M 0,0 h 38 m 0,3 V -3 M 0,0 v 10 m 3,0 H -3 M 0,0 v -10 m 3,0 h -6"
             style="fill:none;stroke:#000000;stroke-width:1"
             id="path70" />
        </g>
        <path
           d="m 25,456 v 8 h 8 v -8 z M 92,237 v 8 h 8 v -8 z m 67,-119 v 8 h 8 v -8 z m 66,-29 v 8 h 8 v -8 z m 67,-21 v 8 h 8 v -8 z m 67,-9 v 8 h 8 v -8 z m 67,-8 v 8 h 8 v -8 z m 66,28 v 8 h 8 v -8 z m 67,30 v 8 h 8 v -8 z m 67,229 v 8 h 8 v -8 z"
           style="fill:#ff0000;stroke:#ff0000"
           id="path74" />
      </g>
      <g
         id="g140">
        <g
           transform="translate(38,516)"
           id="g82">
          <path
             d="M -38,0 H 29 V 0 Z"
             style="fill:none"
             id="path78" />
          <path
             d="m 0,0 h -38 m 0,3 V -3 M 0,0 h 29 m 0,3 V -3 M 0,0 m 3,0 h -6 m 3,0 m 3,0 h -6"
             style="fill:none;stroke:#000000;stroke-width:1"
             id="path80" />
        </g>
        <g
           transform="translate(104,395)"
           id="g88">
          <path
             d="M -38,1 H 29 V -1 H -38 Z"
             style="fill:none"
             id="path84" />
          <path
             d="m 0,0 h -38 m 0,3 V -3 M 0,0 h 29 m 0,3 V -3 M 0,0 V 1 M 3,1 H -3 M 0,0 v -1 m 3,0 h -6"
             style="fill:none;stroke:#000000;stroke-width:1"
             id="path86" />
        </g>
        <g
           transform="translate(171,250)"
           id="g94">
          <path
             d="M -38,2 H 29 V -2 H -38 Z"
             style="fill:none"
             id="path90" />
          <path
             d="m 0,0 h -38 m 0,3 V -3 M 0,0 h 29 m 0,3 V -3 M 0,0 V 2 M 3,2 H -3 M 0,0 v -2 m 3,0 h -6"
             style="fill:none;stroke:#000000;stroke-width:1"
             id="path92" />
        </g>
        <g
           transform="translate(238,190)"
           id="g100">
          <path
             d="M -38,3 H 29 V -3 H -38 Z"
             style="fill:none"
             id="path96" />
          <path
             d="m 0,0 h -38 m 0,3 V -3 M 0,0 h 29 m 0,3 V -3 M 0,0 V 3 M 3,3 H -3 M 0,0 v -3 m 3,0 h -6"
             style="fill:none;stroke:#000000;stroke-width:1"
             id="path98" />
        </g>
        <g
           transform="translate(304,148)"
           id="g106">
          <path
             d="M -38,4 H 29 V -4 H -38 Z"
             style="fill:none"
             id="path102" />
          <path
             d="m 0,0 h -38 m 0,3 V -3 M 0,0 h 29 m 0,3 V -3 M 0,0 V 4 M 3,4 H -3 M 0,0 v -4 m 3,0 h -6"
             style="fill:none;stroke:#000000;stroke-width:1"
             id="path104" />
        </g>
        <g
           transform="translate(371,130)"
           id="g112">
          <path
             d="M -38,5 H 29 V -5 h -67 z"
             style="fill:none"
             id="path108" />
          <path
             d="m 0,0 h -38 m 0,3 V -3 M 0,0 h 29 m 0,3 V -3 M 0,0 V 5 M 3,5 H -3 M 0,0 v -5 m 3,0 h -6"
             style="fill:none;stroke:#000000;stroke-width:1"
             id="path110" />
        </g>
        <g
           transform="translate(438,112)"
           id="g118">
          <path
             d="M -38,6 H 29 V -6 h -67 z"
             style="fill:none"
             id="path114" />
          <path
             d="m 0,0 h -38 m 0,3 V -3 M 0,0 h 29 m 0,3 V -3 M 0,0 V 6 M 3,6 H -3 M 0,0 v -6 m 3,0 h -6"
             style="fill:none;stroke:#000000;stroke-width:1"
             id="path116" />
        </g>
        <g
           transform="translate(505,129)"
           id="g124">
          <path
             d="M -38,7 H 29 V -7 h -67 z"
             style="fill:none"
             id="path120" />
          <path
             d="m 0,0 h -38 m 0,3 V -3 M 0,0 h 29 m 0,3 V -3 M 0,0 V 7 M 3,7 H -3 M 0,0 v -7 m 3,0 h -6"
             style="fill:none;stroke:#000000;stroke-width:1"
             id="path122" />
        </g>
        <g
           transform="translate(571,145)"
           id="g130">
          <path
             d="M -38,10 H 29 V -10 H -38 Z"
             style="fill:none"
             id="path126" />
          <path
             d="m 0,0 h -38 m 0,3 V -3 M 0,0 h 29 m 0,3 V -3 M 0,0 v 10 m 3,0 H -3 M 0,0 v -10 m 3,0 h -6"
             style="fill:none;stroke:#000000;stroke-width:1"
             id="path128" />
        </g>
        <g
           transform="translate(638,347)"
           id="g136">
          <path
             d="M -38,10 H 29 V -10 H -38 Z"
             style="fill:none"
             id="path132" />
          <path
             d="m 0,0 h -38 m 0,3 V -3 M 0,0 h 29 m 0,3 V -3 M 0,0 v 10 m 3,0 H -3 M 0,0 v -10 m 3,0 h -6"
             style="fill:none;stroke:#000000;stroke-width:1"
             id="path134" />
        </g>
        <path
           d="m 34,512 v 8 h 8 v -8 z m 66,-121 v 8 h 8 v -8 z m 67,-145 v 8 h 8 v -8 z m 67,-60 v 8 h 8 v -8 z m 66,-42 v 8 h 8 v -8 z m 67,-18 v 8 h 8 v -8 z m 67,-18 v 8 h 8 v -8 z m 67,17 v 8 h 8 v -8 z m 66,16 v 8 h 8 v -8 z m 67,202 v 8 h 8 v -8 z"
           style="fill:#0000ff;stroke:#0000ff"
           id="path138" />
      </g>
    </svg>
    <g
       id="g198">
      <g
         transform="translate(0,528)"
         id="g170">
        <path
           d="M 0,0 H 734 M 0,-20 V 0 M 33,-10 V 0 M 67,-10 V 0 m 33,-10 V 0 m 33,-20 V 0 m 34,-10 V 0 m 33,-10 V 0 m 34,-10 V 0 m 33,-20 V 0 m 33,-10 V 0 m 34,-10 V 0 m 33,-10 V 0 m 33,-20 V 0 m 34,-10 V 0 m 33,-10 V 0 m 33,-10 V 0 m 34,-20 V 0 m 33,-10 V 0 m 34,-10 V 0 m 33,-10 V 0 m 33,-20 V 0 m 34,-10 V 0 m 33,-10 V 0"
           style="stroke:#000000;stroke-width:1"
           id="path144" />
        <g
           font-family="Arial"
           font-size="23px"
           xml:space="preserve"
           fill="#000000"
           text-anchor="middle"
           id="g158"><text
             dy="0.80000001em"
             transform="translate(0,5)"
             id="text146">0</text><text
             dy="0.80000001em"
             transform="translate(133,5)"
             id="text148">0.2</text><text
             dy="0.80000001em"
             transform="translate(267,5)"
             id="text150">0.4</text><text
             dy="0.80000001em"
             transform="translate(400,5)"
             id="text152">0.6</text><text
             dy="0.80000001em"
             transform="translate(534,5)"
             id="text154">0.8</text><text
             dy="0.80000001em"
             transform="translate(667,5)"
             id="text156">1</text></g>
        <rect
           x="0"
           y="0"
           width="734"
           height="26"
           style="opacity:0"
           id="rect160" />
        <g
           font-family="Arial"
           font-size="23px"
           xml:space="preserve"
           transform="translate(734,37)"
           id="g168"><g
             transform="translate(-20,7)"
             id="g166"><text
               fill="#000000"
               font-size="23px"
               id="text162">z</text><text
               fill="#000000"
               font-size="14px"
               transform="translate(12,4)"
               id="text164">h</text></g></g>
      </g>
      <g
         id="g196">
        <path
           d="m 0,0 v 528 m 28,0 H 0 M 14,509 H 0 M 14,489 H 0 M 14,470 H 0 M 14,451 H 0 M 28,431 H 0 M 14,412 H 0 M 14,393 H 0 M 14,373 H 0 M 14,354 H 0 M 28,335 H 0 M 14,315 H 0 M 14,296 H 0 M 14,277 H 0 M 14,257 H 0 M 28,238 H 0 M 14,219 H 0 M 14,199 H 0 M 14,180 H 0 M 14,161 H 0 M 28,141 H 0 M 14,122 H 0 M 14,103 H 0 M 14,83 H 0 M 14,64 H 0 M 28,45 H 0 M 14,26 H 0 M 14,6 H 0"
           style="stroke:#000000;stroke-width:1"
           id="path172" />
        <g
           font-family="Arial"
           font-size="23px"
           xml:space="preserve"
           id="g192"><text
             fill="#000000"
             text-anchor="end"
             dominant-baseline="middle"
             transform="translate(-3,528)"
             id="text174">0</text><text
             fill="#000000"
             text-anchor="end"
             dominant-baseline="middle"
             transform="translate(-3,431)"
             id="text176">0.005</text><text
             fill="#000000"
             text-anchor="end"
             dominant-baseline="middle"
             transform="translate(-3,335)"
             id="text178">0.010</text><text
             fill="#000000"
             text-anchor="end"
             dominant-baseline="middle"
             transform="translate(-3,238)"
             id="text180">0.015</text><text
             fill="#000000"
             text-anchor="end"
             dominant-baseline="middle"
             transform="translate(-3,141)"
             id="text182">0.020</text><text
             fill="#000000"
             text-anchor="end"
             dominant-baseline="middle"
             transform="translate(-3,45)"
             id="text184">0.025</text></g>
        <rect
           x="-29"
           y="0"
           width="29"
           height="528"
           style="opacity:0"
           id="rect194" />
      </g>
    </g>
    <path
       d="M 2,2 H 17 V -3 H -3 v 20 h 5 z"
       style="opacity:0"
       id="path200" />
    <path
       d="m 732,2 h -15 v -5 h 20 v 20 h -5 z"
       style="opacity:0"
       id="path202" />
    <path
       d="m 2,526 h 15 v 5 H -3 v -20 h 5 z"
       style="opacity:0"
       id="path204" />
    <path
       d="m 732,526 h -15 v 5 h 20 v -20 h -5 z"
       style="opacity:0"
       id="path206" />
    <path
       d="M -3,18 H 2 V 510 H -3 Z"
       style="opacity:0"
       id="path208" />
    <path
       d="m 737,18 h -5 v 492 h 5 z"
       style="opacity:0"
       id="path210" />
    <path
       d="M 18,-3 V 2 H 716 V -3 Z"
       style="opacity:0"
       id="path212" />
    <path
       d="m 18,531 v -5 h 698 v 5 z"
       style="opacity:0"
       id="path214" />
    <style
       id="style216">
.jsroot rect.h1bin { stroke: #4572A7; fill: #4572A7; opacity: 0; }
.jsroot rect.zoom { stroke: steelblue; fill-opacity: 0.1; }
.jsroot path.zoom { stroke: steelblue; fill-opacity: 0.1; }
.jsroot svg:not(:root) { overflow: hidden; }</style>
  </g>
  <g
     transform="translate(684.65771,16)"
     font-family="Arial"
     font-size="27px"
     xml:space="preserve"
     id="g250"><path
       d="M 0,0 H 95 V 65 H 0 Z"
       style="fill:#ffffff;stroke:#000000;stroke-width:1"
       id="path220" /><path
       d="M 3,17 H 21"
       style="stroke:#000000;stroke-width:1"
       id="path222" /><path
       d="m 8,13 v 8 h 8 v -8 z"
       style="fill:#ff0000;stroke:#ff0000"
       id="path224" /><text
       fill="#000000"
       text-anchor="start"
       dominant-baseline="middle"
       transform="translate(24,17)"
       id="text226">DC</text><path
       d="M 3,48 H 21"
       style="stroke:#000000;stroke-width:1"
       id="path228" /><path
       d="m 8,44 v 8 h 8 v -8 z"
       style="fill:#0000ff;stroke:#0000ff"
       id="path230" /><text
       fill="#000000"
       text-anchor="start"
       dominant-baseline="middle"
       transform="translate(24,48)"
       id="text232">FMT</text><path
       d="M 2,2 H 17 V -3 H -3 v 20 h 5 z"
       style="opacity:0"
       id="path234" /><path
       d="M 93,2 H 78 v -5 h 20 v 20 h -5 z"
       style="opacity:0"
       id="path236" /><path
       d="m 2,63 h 15 v 5 H -3 V 48 h 5 z"
       style="opacity:0"
       id="path238" /><path
       d="M 93,63 H 78 v 5 H 98 V 48 h -5 z"
       style="opacity:0"
       id="path240" /><path
       d="M -3,18 H 2 V 47 H -3 Z"
       style="opacity:0"
       id="path242" /><path
       d="m 98,18 h -5 v 29 h 5 z"
       style="opacity:0"
       id="path244" /><path
       d="M 18,-3 V 2 H 77 V -3 Z"
       style="opacity:0"
       id="path246" /><path
       d="m 18,68 v -5 h 59 v 5 z"
       style="opacity:0"
       id="path248" /></g>
</svg>
