<?xml version="1.0" encoding="UTF-8" standalone="no"?>
<svg
   width="796.65771"
   height="579"
   version="1.1"
   id="svg298"
   sodipodi:docname="22zh_acc_211.svg"
   inkscape:version="1.2.2 (1:1.2.2+202305151914+b0a8486541)"
   inkscape:export-filename="22zh_acc_211.pdf"
   inkscape:export-xdpi="96"
   inkscape:export-ydpi="96"
   xmlns:inkscape="http://www.inkscape.org/namespaces/inkscape"
   xmlns:sodipodi="http://sodipodi.sourceforge.net/DTD/sodipodi-0.dtd"
   xmlns="http://www.w3.org/2000/svg"
   xmlns:svg="http://www.w3.org/2000/svg">
  <defs
     id="defs302" />
  <sodipodi:namedview
     id="namedview300"
     pagecolor="#ffffff"
     bordercolor="#666666"
     borderopacity="1.0"
     inkscape:showpageshadow="2"
     inkscape:pageopacity="0.0"
     inkscape:pagecheckerboard="0"
     inkscape:deskcolor="#d1d1d1"
     showgrid="false"
     inkscape:zoom="1.011377"
     inkscape:cx="270.91777"
     inkscape:cy="189.84019"
     inkscape:window-width="1920"
     inkscape:window-height="1051"
     inkscape:window-x="0"
     inkscape:window-y="0"
     inkscape:window-maximized="1"
     inkscape:current-layer="svg298" />
  <g
     transform="translate(59.657715,3)"
     id="g212">
    <title
       id="title4" />
    <path
       d="M 0,0 H 734 V 528 H 0 Z"
       style="fill:#ffffff;stroke:#000000;stroke-width:1"
       id="path6" />
    <g
       id="g12">
      <path
         d="M 0,0 V 528 M 133,0 V 528 M 267,0 V 528 M 400,0 V 528 M 534,0 V 528 M 667,0 v 528"
         style="stroke:#000000;stroke-width:1;stroke-dasharray:1, 2"
         id="path8" />
      <path
         d="M 0,528 H 734 M 0,439 H 734 M 0,350 H 734 M 0,260 H 734 M 0,171 H 734 M 0,82 h 734"
         style="stroke:#000000;stroke-width:1;stroke-dasharray:1, 2"
         id="path10" />
    </g>
    <svg
       x="0"
       y="0"
       overflow="hidden"
       width="734"
       height="528"
       viewBox="0 0 734 528"
       version="1.1"
       id="svg142">
      <g
         id="g76">
        <g
           transform="translate(29,392)"
           id="g18">
          <path
             d="M -29,1 H 38 V -1 H -29 Z"
             style="fill:none"
             id="path14" />
          <path
             d="m 0,0 h -29 m 0,3 V -3 M 0,0 h 38 m 0,3 V -3 M 0,0 V 1 M 3,1 H -3 M 0,0 v -1 m 3,0 h -6"
             style="fill:none;stroke:#000000;stroke-width:1"
             id="path16" />
        </g>
        <g
           transform="translate(96,74)"
           id="g24">
          <path
             d="M -29,1 H 38 V -1 H -29 Z"
             style="fill:none"
             id="path20" />
          <path
             d="m 0,0 h -29 m 0,3 V -3 M 0,0 h 38 m 0,3 V -3 M 0,0 V 1 M 3,1 H -3 M 0,0 v -1 m 3,0 h -6"
             style="fill:none;stroke:#000000;stroke-width:1"
             id="path22" />
        </g>
        <g
           transform="translate(163,50)"
           id="g30">
          <path
             d="M -29,2 H 38 V -2 H -29 Z"
             style="fill:none"
             id="path26" />
          <path
             d="m 0,0 h -29 m 0,3 V -3 M 0,0 h 38 m 0,3 V -3 M 0,0 V 2 M 3,2 H -3 M 0,0 v -2 m 3,0 h -6"
             style="fill:none;stroke:#000000;stroke-width:1"
             id="path28" />
        </g>
        <g
           transform="translate(229,80)"
           id="g36">
          <path
             d="M -29,2 H 38 V -2 H -29 Z"
             style="fill:none"
             id="path32" />
          <path
             d="m 0,0 h -29 m 0,3 V -3 M 0,0 h 38 m 0,3 V -3 M 0,0 V 2 M 3,2 H -3 M 0,0 v -2 m 3,0 h -6"
             style="fill:none;stroke:#000000;stroke-width:1"
             id="path34" />
        </g>
        <g
           transform="translate(296,101)"
           id="g42">
          <path
             d="M -29,3 H 38 V -3 H -29 Z"
             style="fill:none"
             id="path38" />
          <path
             d="m 0,0 h -29 m 0,3 V -3 M 0,0 h 38 m 0,3 V -3 M 0,0 V 3 M 3,3 H -3 M 0,0 v -3 m 3,0 h -6"
             style="fill:none;stroke:#000000;stroke-width:1"
             id="path40" />
        </g>
        <g
           transform="translate(363,130)"
           id="g48">
          <path
             d="M -29,3 H 38 V -3 H -29 Z"
             style="fill:none"
             id="path44" />
          <path
             d="m 0,0 h -29 m 0,3 V -3 M 0,0 h 38 m 0,3 V -3 M 0,0 V 3 M 3,3 H -3 M 0,0 v -3 m 3,0 h -6"
             style="fill:none;stroke:#000000;stroke-width:1"
             id="path46" />
        </g>
        <g
           transform="translate(430,170)"
           id="g54">
          <path
             d="M -29,3 H 38 V -3 H -29 Z"
             style="fill:none"
             id="path50" />
          <path
             d="m 0,0 h -29 m 0,3 V -3 M 0,0 h 38 m 0,3 V -3 M 0,0 V 3 M 3,3 H -3 M 0,0 v -3 m 3,0 h -6"
             style="fill:none;stroke:#000000;stroke-width:1"
             id="path52" />
        </g>
        <g
           transform="translate(496,210)"
           id="g60">
          <path
             d="M -29,4 H 38 V -4 H -29 Z"
             style="fill:none"
             id="path56" />
          <path
             d="m 0,0 h -29 m 0,3 V -3 M 0,0 h 38 m 0,3 V -3 M 0,0 V 4 M 3,4 H -3 M 0,0 v -4 m 3,0 h -6"
             style="fill:none;stroke:#000000;stroke-width:1"
             id="path58" />
        </g>
        <g
           transform="translate(563,226)"
           id="g66">
          <path
             d="M -29,5 H 38 V -5 h -67 z"
             style="fill:none"
             id="path62" />
          <path
             d="m 0,0 h -29 m 0,3 V -3 M 0,0 h 38 m 0,3 V -3 M 0,0 V 5 M 3,5 H -3 M 0,0 v -5 m 3,0 h -6"
             style="fill:none;stroke:#000000;stroke-width:1"
             id="path64" />
        </g>
        <g
           transform="translate(630,369)"
           id="g72">
          <path
             d="M -29,5 H 38 V -5 h -67 z"
             style="fill:none"
             id="path68" />
          <path
             d="m 0,0 h -29 m 0,3 V -3 M 0,0 h 38 m 0,3 V -3 M 0,0 V 5 M 3,5 H -3 M 0,0 v -5 m 3,0 h -6"
             style="fill:none;stroke:#000000;stroke-width:1"
             id="path70" />
        </g>
        <path
           d="m 25,388 v 8 h 8 v -8 z M 92,70 v 8 h 8 v -8 z m 67,-24 v 8 h 8 v -8 z m 66,30 v 8 h 8 v -8 z m 67,21 v 8 h 8 v -8 z m 67,29 v 8 h 8 v -8 z m 67,40 v 8 h 8 v -8 z m 66,40 v 8 h 8 v -8 z m 67,16 v 8 h 8 v -8 z m 67,143 v 8 h 8 v -8 z"
           style="fill:#ff0000;stroke:#ff0000"
           id="path74" />
      </g>
      <g
         id="g140">
        <g
           transform="translate(38,457)"
           id="g82">
          <path
             d="M -38,0 H 29 V 0 Z"
             style="fill:none"
             id="path78" />
          <path
             d="m 0,0 h -38 m 0,3 V -3 M 0,0 h 29 m 0,3 V -3 M 0,0 m 3,0 h -6 m 3,0 m 3,0 h -6"
             style="fill:none;stroke:#000000;stroke-width:1"
             id="path80" />
        </g>
        <g
           transform="translate(104,195)"
           id="g88">
          <path
             d="M -38,1 H 29 V -1 H -38 Z"
             style="fill:none"
             id="path84" />
          <path
             d="m 0,0 h -38 m 0,3 V -3 M 0,0 h 29 m 0,3 V -3 M 0,0 V 1 M 3,1 H -3 M 0,0 v -1 m 3,0 h -6"
             style="fill:none;stroke:#000000;stroke-width:1"
             id="path86" />
        </g>
        <g
           transform="translate(171,127)"
           id="g94">
          <path
             d="M -38,2 H 29 V -2 H -38 Z"
             style="fill:none"
             id="path90" />
          <path
             d="m 0,0 h -38 m 0,3 V -3 M 0,0 h 29 m 0,3 V -3 M 0,0 V 2 M 3,2 H -3 M 0,0 v -2 m 3,0 h -6"
             style="fill:none;stroke:#000000;stroke-width:1"
             id="path92" />
        </g>
        <g
           transform="translate(238,137)"
           id="g100">
          <path
             d="M -38,2 H 29 V -2 H -38 Z"
             style="fill:none"
             id="path96" />
          <path
             d="m 0,0 h -38 m 0,3 V -3 M 0,0 h 29 m 0,3 V -3 M 0,0 V 2 M 3,2 H -3 M 0,0 v -2 m 3,0 h -6"
             style="fill:none;stroke:#000000;stroke-width:1"
             id="path98" />
        </g>
        <g
           transform="translate(304,145)"
           id="g106">
          <path
             d="M -38,2 H 29 V -2 H -38 Z"
             style="fill:none"
             id="path102" />
          <path
             d="m 0,0 h -38 m 0,3 V -3 M 0,0 h 29 m 0,3 V -3 M 0,0 V 2 M 3,2 H -3 M 0,0 v -2 m 3,0 h -6"
             style="fill:none;stroke:#000000;stroke-width:1"
             id="path104" />
        </g>
        <g
           transform="translate(371,164)"
           id="g112">
          <path
             d="M -38,3 H 29 V -3 H -38 Z"
             style="fill:none"
             id="path108" />
          <path
             d="m 0,0 h -38 m 0,3 V -3 M 0,0 h 29 m 0,3 V -3 M 0,0 V 3 M 3,3 H -3 M 0,0 v -3 m 3,0 h -6"
             style="fill:none;stroke:#000000;stroke-width:1"
             id="path110" />
        </g>
        <g
           transform="translate(438,196)"
           id="g118">
          <path
             d="M -38,3 H 29 V -3 H -38 Z"
             style="fill:none"
             id="path114" />
          <path
             d="m 0,0 h -38 m 0,3 V -3 M 0,0 h 29 m 0,3 V -3 M 0,0 V 3 M 3,3 H -3 M 0,0 v -3 m 3,0 h -6"
             style="fill:none;stroke:#000000;stroke-width:1"
             id="path116" />
        </g>
        <g
           transform="translate(505,228)"
           id="g124">
          <path
             d="M -38,4 H 29 V -4 H -38 Z"
             style="fill:none"
             id="path120" />
          <path
             d="m 0,0 h -38 m 0,3 V -3 M 0,0 h 29 m 0,3 V -3 M 0,0 V 4 M 3,4 H -3 M 0,0 v -4 m 3,0 h -6"
             style="fill:none;stroke:#000000;stroke-width:1"
             id="path122" />
        </g>
        <g
           transform="translate(571,245)"
           id="g130">
          <path
             d="M -38,5 H 29 V -5 h -67 z"
             style="fill:none"
             id="path126" />
          <path
             d="m 0,0 h -38 m 0,3 V -3 M 0,0 h 29 m 0,3 V -3 M 0,0 V 5 M 3,5 H -3 M 0,0 v -5 m 3,0 h -6"
             style="fill:none;stroke:#000000;stroke-width:1"
             id="path128" />
        </g>
        <g
           transform="translate(638,377)"
           id="g136">
          <path
             d="M -38,4 H 29 V -4 H -38 Z"
             style="fill:none"
             id="path132" />
          <path
             d="m 0,0 h -38 m 0,3 V -3 M 0,0 h 29 m 0,3 V -3 M 0,0 V 4 M 3,4 H -3 M 0,0 v -4 m 3,0 h -6"
             style="fill:none;stroke:#000000;stroke-width:1"
             id="path134" />
        </g>
        <path
           d="m 34,453 v 8 h 8 v -8 z m 66,-262 v 8 h 8 v -8 z m 67,-68 v 8 h 8 v -8 z m 67,10 v 8 h 8 v -8 z m 66,8 v 8 h 8 v -8 z m 67,19 v 8 h 8 v -8 z m 67,32 v 8 h 8 v -8 z m 67,32 v 8 h 8 v -8 z m 66,17 v 8 h 8 v -8 z m 67,132 v 8 h 8 v -8 z"
           style="fill:#0000ff;stroke:#0000ff"
           id="path138" />
      </g>
    </svg>
    <g
       id="g192">
      <g
         transform="translate(0,528)"
         id="g170">
        <path
           d="M 0,0 H 734 M 0,-20 V 0 M 33,-10 V 0 M 67,-10 V 0 m 33,-10 V 0 m 33,-20 V 0 m 34,-10 V 0 m 33,-10 V 0 m 34,-10 V 0 m 33,-20 V 0 m 33,-10 V 0 m 34,-10 V 0 m 33,-10 V 0 m 33,-20 V 0 m 34,-10 V 0 m 33,-10 V 0 m 33,-10 V 0 m 34,-20 V 0 m 33,-10 V 0 m 34,-10 V 0 m 33,-10 V 0 m 33,-20 V 0 m 34,-10 V 0 m 33,-10 V 0"
           style="stroke:#000000;stroke-width:1"
           id="path144" />
        <g
           font-family="Arial"
           font-size="23px"
           xml:space="preserve"
           fill="#000000"
           text-anchor="middle"
           id="g158"><text
             dy="0.80000001em"
             transform="translate(0,5)"
             id="text146">0</text><text
             dy="0.80000001em"
             transform="translate(133,5)"
             id="text148">0.2</text><text
             dy="0.80000001em"
             transform="translate(267,5)"
             id="text150">0.4</text><text
             dy="0.80000001em"
             transform="translate(400,5)"
             id="text152">0.6</text><text
             dy="0.80000001em"
             transform="translate(534,5)"
             id="text154">0.8</text><text
             dy="0.80000001em"
             transform="translate(667,5)"
             id="text156">1</text></g>
        <rect
           x="0"
           y="0"
           width="734"
           height="26"
           style="opacity:0"
           id="rect160" />
        <g
           font-family="Arial"
           font-size="23px"
           xml:space="preserve"
           transform="translate(734,37)"
           id="g168"><g
             transform="translate(-20,7)"
             id="g166"><text
               fill="#000000"
               font-size="23px"
               id="text162">z</text><text
               fill="#000000"
               font-size="14px"
               transform="translate(12,4)"
               id="text164">h</text></g></g>
      </g>
      <g
         id="g190">
        <path
           d="m 0,0 v 528 m 28,0 H 0 M 14,510 H 0 M 14,492 H 0 M 14,474 H 0 M 14,457 H 0 M 28,439 H 0 M 14,421 H 0 M 14,403 H 0 M 14,385 H 0 M 14,367 H 0 M 28,350 H 0 M 14,332 H 0 M 14,314 H 0 M 14,296 H 0 M 14,278 H 0 M 28,260 H 0 M 14,243 H 0 M 14,225 H 0 M 14,207 H 0 M 14,189 H 0 M 28,171 H 0 M 14,153 H 0 M 14,136 H 0 M 14,118 H 0 M 14,100 H 0 M 28,82 H 0 M 14,64 H 0 M 14,46 H 0 M 14,29 H 0 M 14,11 H 0"
           style="stroke:#000000;stroke-width:1"
           id="path172" />
        <g
           font-family="Arial"
           font-size="23px"
           xml:space="preserve"
           fill="#000000"
           text-anchor="end"
           id="g186"><text
             dominant-baseline="middle"
             transform="translate(-3,528)"
             id="text174">0</text><text
             dominant-baseline="middle"
             transform="translate(-3,439)"
             id="text176">0.010</text><text
             dominant-baseline="middle"
             transform="translate(-3,350)"
             id="text178">0.020</text><text
             dominant-baseline="middle"
             transform="translate(-3,260)"
             id="text180">0.030</text><text
             dominant-baseline="middle"
             transform="translate(-3,171)"
             id="text182">0.040</text><text
             dominant-baseline="middle"
             transform="translate(-3,82)"
             id="text184">0.050</text></g>
        <rect
           x="-48"
           y="0"
           width="48"
           height="528"
           style="opacity:0"
           id="rect188" />
      </g>
    </g>
    <path
       d="M 2,2 H 17 V -3 H -3 v 20 h 5 z"
       style="opacity:0"
       id="path194" />
    <path
       d="m 732,2 h -15 v -5 h 20 v 20 h -5 z"
       style="opacity:0"
       id="path196" />
    <path
       d="m 2,526 h 15 v 5 H -3 v -20 h 5 z"
       style="opacity:0"
       id="path198" />
    <path
       d="m 732,526 h -15 v 5 h 20 v -20 h -5 z"
       style="opacity:0"
       id="path200" />
    <path
       d="M -3,18 H 2 V 510 H -3 Z"
       style="opacity:0"
       id="path202" />
    <path
       d="m 737,18 h -5 v 492 h 5 z"
       style="opacity:0"
       id="path204" />
    <path
       d="M 18,-3 V 2 H 716 V -3 Z"
       style="opacity:0"
       id="path206" />
    <path
       d="m 18,531 v -5 h 698 v 5 z"
       style="opacity:0"
       id="path208" />
    <style
       id="style210">
.jsroot rect.h1bin { stroke: #4572A7; fill: #4572A7; opacity: 0; }
.jsroot rect.zoom { stroke: steelblue; fill-opacity: 0.1; }
.jsroot path.zoom { stroke: steelblue; fill-opacity: 0.1; }
.jsroot svg:not(:root) { overflow: hidden; }</style>
  </g>
  <g
     transform="translate(688.65771,16.000004)"
     font-family="Arial"
     font-size="27px"
     xml:space="preserve"
     id="g244"><path
       d="M 0,0 H 91 V 65 H 0 Z"
       style="fill:#ffffff;stroke:#000000;stroke-width:1"
       id="path214" /><path
       d="M 3,17 H 20"
       style="stroke:#000000;stroke-width:1"
       id="path216" /><path
       d="m 8,13 v 8 h 8 v -8 z"
       style="fill:#ff0000;stroke:#ff0000"
       id="path218" /><text
       fill="#000000"
       text-anchor="start"
       dominant-baseline="middle"
       transform="translate(23,17)"
       id="text220">DC</text><path
       d="M 3,48 H 20"
       style="stroke:#000000;stroke-width:1"
       id="path222" /><path
       d="m 8,44 v 8 h 8 v -8 z"
       style="fill:#0000ff;stroke:#0000ff"
       id="path224" /><text
       fill="#000000"
       text-anchor="start"
       dominant-baseline="middle"
       transform="translate(23,48)"
       id="text226">FMT</text><path
       d="M 2,2 H 17 V -3 H -3 v 20 h 5 z"
       style="opacity:0"
       id="path228" /><path
       d="M 89,2 H 74 v -5 h 20 v 20 h -5 z"
       style="opacity:0"
       id="path230" /><path
       d="m 2,63 h 15 v 5 H -3 V 48 h 5 z"
       style="opacity:0"
       id="path232" /><path
       d="M 89,63 H 74 v 5 H 94 V 48 h -5 z"
       style="opacity:0"
       id="path234" /><path
       d="M -3,18 H 2 V 47 H -3 Z"
       style="opacity:0"
       id="path236" /><path
       d="m 94,18 h -5 v 29 h 5 z"
       style="opacity:0"
       id="path238" /><path
       d="M 18,-3 V 2 H 73 V -3 Z"
       style="opacity:0"
       id="path240" /><path
       d="m 18,68 v -5 h 55 v 5 z"
       style="opacity:0"
       id="path242" /></g>
</svg>
