<?xml version="1.0" encoding="UTF-8" standalone="no"?>
<svg
   width="567.429"
   height="608.262"
   viewBox="0 0 567.429 608.262"
   shape-rendering="crispEdges"
   version="1.1"
   id="svg702"
   sodipodi:docname="22zh_acc_-211.svg"
   inkscape:export-filename="22zh_acc_-211.pdf"
   inkscape:export-xdpi="96"
   inkscape:export-ydpi="96"
   inkscape:version="1.2.2 (1:1.2.2+202212051552+b0a8486541)"
   xmlns:inkscape="http://www.inkscape.org/namespaces/inkscape"
   xmlns:sodipodi="http://sodipodi.sourceforge.net/DTD/sodipodi-0.dtd"
   xmlns="http://www.w3.org/2000/svg"
   xmlns:svg="http://www.w3.org/2000/svg">
  <sodipodi:namedview
     id="namedview704"
     pagecolor="#ffffff"
     bordercolor="#666666"
     borderopacity="1.0"
     inkscape:showpageshadow="2"
     inkscape:pageopacity="0.0"
     inkscape:pagecheckerboard="0"
     inkscape:deskcolor="#d1d1d1"
     showgrid="false"
     inkscape:zoom="1.0974034"
     inkscape:cx="196.82826"
     inkscape:cy="174.95846"
     inkscape:window-width="1920"
     inkscape:window-height="1051"
     inkscape:window-x="0"
     inkscape:window-y="0"
     inkscape:window-maximized="1"
     inkscape:current-layer="svg702" />
  <title
     id="title2">
/home/twig/code/rge-analysis/macros/22zh_acc_-211.svg
</title>
  <desc
     id="desc4">
Creator: ROOT Version 6.28/00
CreationDate: Mon Jun 19 17:04:07 2023</desc>
  <defs
     id="defs6" />
  <rect
     x="0.5"
     y="0"
     width="566.929"
     height="607.762"
     fill="white"
     id="rect8" />
  <rect
     x="57.1929"
     y="60.7762"
     width="453.543"
     height="486.21"
     fill="white"
     id="rect10" />
  <rect
     x="57.1929"
     y="60.7762"
     width="453.543"
     height="486.21"
     fill="none"
     stroke="black"
     id="rect12" />
  <rect
     x="57.1929"
     y="60.7762"
     width="453.543"
     height="486.21"
     fill="white"
     id="rect14" />
  <rect
     x="57.1929"
     y="60.7762"
     width="453.543"
     height="486.21"
     fill="none"
     stroke="black"
     id="rect16" />
  <path
     d="M57.1929,546.986h 453.543"
     fill="none"
     stroke="black"
     id="path18" />
  <path
     d="M57.1929,60.7762v 486.21"
     fill="none"
     stroke="black"
     stroke-dasharray=" 1, 2"
     id="path20" />
  <path
     d="M139.655,60.7762v 486.21"
     fill="none"
     stroke="black"
     stroke-dasharray=" 1, 2"
     id="path22" />
  <path
     d="M222.118,60.7762v 486.21"
     fill="none"
     stroke="black"
     stroke-dasharray=" 1, 2"
     id="path24" />
  <path
     d="M304.58,60.7762v 486.21"
     fill="none"
     stroke="black"
     stroke-dasharray=" 1, 2"
     id="path26" />
  <path
     d="M387.043,60.7762v 486.21"
     fill="none"
     stroke="black"
     stroke-dasharray=" 1, 2"
     id="path28" />
  <path
     d="M469.505,60.7762v 486.21"
     fill="none"
     stroke="black"
     stroke-dasharray=" 1, 2"
     id="path30" />
  <path
     d="M469.505,60.7762v 486.21"
     fill="none"
     stroke="black"
     stroke-dasharray=" 1, 2"
     id="path32" />
  <path
     d="M57.1929,546.986v -486.21"
     fill="none"
     stroke="black"
     id="path34" />
  <path
     d="M510.736,546.986h -453.543"
     fill="none"
     stroke="black"
     stroke-dasharray=" 1, 2"
     id="path36" />
  <path
     d="M510.736,458.024h -453.543"
     fill="none"
     stroke="black"
     stroke-dasharray=" 1, 2"
     id="path38" />
  <path
     d="M510.736,369.062h -453.543"
     fill="none"
     stroke="black"
     stroke-dasharray=" 1, 2"
     id="path40" />
  <path
     d="M510.736,280.1h -453.543"
     fill="none"
     stroke="black"
     stroke-dasharray=" 1, 2"
     id="path42" />
  <path
     d="M510.736,191.138h -453.543"
     fill="none"
     stroke="black"
     stroke-dasharray=" 1, 2"
     id="path44" />
  <path
     d="M510.736,102.176h -453.543"
     fill="none"
     stroke="black"
     stroke-dasharray=" 1, 2"
     id="path46" />
  <path
     d="M510.736,102.176h -453.543"
     fill="none"
     stroke="black"
     stroke-dasharray=" 1, 2"
     id="path48" />
  <path
     d="M57.1929,546.986h 453.543"
     fill="none"
     stroke="black"
     id="path50" />
  <path
     d="M57.1929,532.4v 14.5863"
     fill="none"
     stroke="black"
     id="path52" />
  <path
     d="M77.8085,539.693v 7.29315"
     fill="none"
     stroke="black"
     id="path54" />
  <path
     d="M98.4241,539.693v 7.29315"
     fill="none"
     stroke="black"
     id="path56" />
  <path
     d="M119.04,539.693v 7.29315"
     fill="none"
     stroke="black"
     id="path58" />
  <path
     d="M139.655,532.4v 14.5863"
     fill="none"
     stroke="black"
     id="path60" />
  <path
     d="M160.271,539.693v 7.29315"
     fill="none"
     stroke="black"
     id="path62" />
  <path
     d="M180.887,539.693v 7.29315"
     fill="none"
     stroke="black"
     id="path64" />
  <path
     d="M201.502,539.693v 7.29315"
     fill="none"
     stroke="black"
     id="path66" />
  <path
     d="M222.118,532.4v 14.5863"
     fill="none"
     stroke="black"
     id="path68" />
  <path
     d="M242.733,539.693v 7.29315"
     fill="none"
     stroke="black"
     id="path70" />
  <path
     d="M263.349,539.693v 7.29315"
     fill="none"
     stroke="black"
     id="path72" />
  <path
     d="M283.965,539.693v 7.29315"
     fill="none"
     stroke="black"
     id="path74" />
  <path
     d="M304.58,532.4v 14.5863"
     fill="none"
     stroke="black"
     id="path76" />
  <path
     d="M325.196,539.693v 7.29315"
     fill="none"
     stroke="black"
     id="path78" />
  <path
     d="M345.811,539.693v 7.29315"
     fill="none"
     stroke="black"
     id="path80" />
  <path
     d="M366.427,539.693v 7.29315"
     fill="none"
     stroke="black"
     id="path82" />
  <path
     d="M387.043,532.4v 14.5863"
     fill="none"
     stroke="black"
     id="path84" />
  <path
     d="M407.658,539.693v 7.29315"
     fill="none"
     stroke="black"
     id="path86" />
  <path
     d="M428.274,539.693v 7.29315"
     fill="none"
     stroke="black"
     id="path88" />
  <path
     d="M448.889,539.693v 7.29315"
     fill="none"
     stroke="black"
     id="path90" />
  <path
     d="M469.505,532.4v 14.5863"
     fill="none"
     stroke="black"
     id="path92" />
  <path
     d="M469.505,532.4v 14.5863"
     fill="none"
     stroke="black"
     id="path94" />
  <path
     d="M490.121,539.693v 7.29315"
     fill="none"
     stroke="black"
     id="path96" />
  <text
     xml:space="preserve"
     x="51.9852"
     y="566.929"
     fill="black"
     font-size="18.7041"
     font-family="Helvetica"
     id="text98">0</text>
  <text
     xml:space="preserve"
     x="127.142"
     y="566.929"
     fill="black"
     font-size="18.7041"
     font-family="Helvetica"
     id="text100">0.2</text>
  <text
     xml:space="preserve"
     x="209.4"
     y="566.929"
     fill="black"
     font-size="18.7041"
     font-family="Helvetica"
     id="text102">0.4</text>
  <text
     xml:space="preserve"
     x="291.658"
     y="566.929"
     fill="black"
     font-size="18.7041"
     font-family="Helvetica"
     id="text104">0.6</text>
  <text
     xml:space="preserve"
     x="374.508"
     y="566.929"
     fill="black"
     font-size="18.7041"
     font-family="Helvetica"
     id="text106">0.8</text>
  <text
     xml:space="preserve"
     x="465.642"
     y="566.929"
     fill="black"
     font-size="18.7041"
     font-family="Helvetica"
     id="text108">1</text>
  <text
     xml:space="preserve"
     x="504.108"
     y="588.825"
     fill="black"
     font-size="12.6361"
     font-family="Helvetica"
     id="text110">h</text>
  <text
     xml:space="preserve"
     x="495.231"
     y="582.907"
     fill="black"
     font-size="18.7041"
     font-family="Helvetica"
     id="text112">z</text>
  <path
     d="M57.1929,546.986v -486.21"
     fill="none"
     stroke="black"
     id="path114" />
  <path
     d="M70.7992,546.986h -13.6063"
     fill="none"
     stroke="black"
     id="path116" />
  <path
     d="M63.9961,529.194h -6.80315"
     fill="none"
     stroke="black"
     id="path118" />
  <path
     d="M63.9961,511.401h -6.80315"
     fill="none"
     stroke="black"
     id="path120" />
  <path
     d="M63.9961,493.609h -6.80315"
     fill="none"
     stroke="black"
     id="path122" />
  <path
     d="M63.9961,475.816h -6.80315"
     fill="none"
     stroke="black"
     id="path124" />
  <path
     d="M70.7992,458.024h -13.6063"
     fill="none"
     stroke="black"
     id="path126" />
  <path
     d="M63.9961,440.232h -6.80315"
     fill="none"
     stroke="black"
     id="path128" />
  <path
     d="M63.9961,422.439h -6.80315"
     fill="none"
     stroke="black"
     id="path130" />
  <path
     d="M63.9961,404.647h -6.80315"
     fill="none"
     stroke="black"
     id="path132" />
  <path
     d="M63.9961,386.854h -6.80315"
     fill="none"
     stroke="black"
     id="path134" />
  <path
     d="M70.7992,369.062h -13.6063"
     fill="none"
     stroke="black"
     id="path136" />
  <path
     d="M63.9961,351.27h -6.80315"
     fill="none"
     stroke="black"
     id="path138" />
  <path
     d="M63.9961,333.477h -6.80315"
     fill="none"
     stroke="black"
     id="path140" />
  <path
     d="M63.9961,315.685h -6.80315"
     fill="none"
     stroke="black"
     id="path142" />
  <path
     d="M63.9961,297.893h -6.80315"
     fill="none"
     stroke="black"
     id="path144" />
  <path
     d="M70.7992,280.1h -13.6063"
     fill="none"
     stroke="black"
     id="path146" />
  <path
     d="M63.9961,262.308h -6.80315"
     fill="none"
     stroke="black"
     id="path148" />
  <path
     d="M63.9961,244.515h -6.80315"
     fill="none"
     stroke="black"
     id="path150" />
  <path
     d="M63.9961,226.723h -6.80315"
     fill="none"
     stroke="black"
     id="path152" />
  <path
     d="M63.9961,208.931h -6.80315"
     fill="none"
     stroke="black"
     id="path154" />
  <path
     d="M70.7992,191.138h -13.6063"
     fill="none"
     stroke="black"
     id="path156" />
  <path
     d="M63.9961,173.346h -6.80315"
     fill="none"
     stroke="black"
     id="path158" />
  <path
     d="M63.9961,155.553h -6.80315"
     fill="none"
     stroke="black"
     id="path160" />
  <path
     d="M63.9961,137.761h -6.80315"
     fill="none"
     stroke="black"
     id="path162" />
  <path
     d="M63.9961,119.969h -6.80315"
     fill="none"
     stroke="black"
     id="path164" />
  <path
     d="M70.7992,102.176h -13.6063"
     fill="none"
     stroke="black"
     id="path166" />
  <path
     d="M70.7992,102.176h -13.6063"
     fill="none"
     stroke="black"
     id="path168" />
  <path
     d="M63.9961,84.3839h -6.80315"
     fill="none"
     stroke="black"
     id="path170" />
  <path
     d="M63.9961,66.5915h -6.80315"
     fill="none"
     stroke="black"
     id="path172" />
  <text
     xml:space="preserve"
     x="44.8838"
     y="553.318"
     fill="black"
     font-size="18.7041"
     font-family="Helvetica"
     id="text174">0</text>
  <text
     xml:space="preserve"
     x="8.78498"
     y="463.959"
     fill="black"
     font-size="18.7041"
     font-family="Helvetica"
     id="text176">0.005</text>
  <text
     xml:space="preserve"
     x="22.396"
     y="375.191"
     fill="black"
     font-size="18.7041"
     font-family="Helvetica"
     id="text178">0.01</text>
  <text
     xml:space="preserve"
     x="8.78498"
     y="286.423"
     fill="black"
     font-size="18.7041"
     font-family="Helvetica"
     id="text180">0.015</text>
  <text
     xml:space="preserve"
     x="19.4371"
     y="197.064"
     fill="black"
     font-size="18.7041"
     font-family="Helvetica"
     id="text182">0.02</text>
  <text
     xml:space="preserve"
     x="8.78498"
     y="108.296"
     fill="black"
     font-size="18.7041"
     font-family="Helvetica"
     id="text184">0.025</text>
  <g
     fill="#ff0000"
     id="g206">
    <rect
       x="70.2875"
       y="482.131"
       width="4.73427"
       height="4.73427"
       id="rect186" />
    <rect
       x="111.519"
       y="280.23"
       width="4.73427"
       height="4.73427"
       id="rect188" />
    <rect
       x="152.75"
       y="170.61"
       width="4.73427"
       height="4.73427"
       id="rect190" />
    <rect
       x="193.981"
       y="144.354"
       width="4.73427"
       height="4.73427"
       id="rect192" />
    <rect
       x="235.212"
       y="125.366"
       width="4.73427"
       height="4.73427"
       id="rect194" />
    <rect
       x="276.444"
       y="116.545"
       width="4.73427"
       height="4.73427"
       id="rect196" />
    <rect
       x="317.675"
       y="108.815"
       width="4.73427"
       height="4.73427"
       id="rect198" />
    <rect
       x="358.906"
       y="135.013"
       width="4.73427"
       height="4.73427"
       id="rect200" />
    <rect
       x="400.137"
       y="163"
       width="4.73427"
       height="4.73427"
       id="rect202" />
    <rect
       x="441.368"
       y="373.409"
       width="4.73427"
       height="4.73427"
       id="rect204" />
  </g>
  <path
     d="M70.2875,484.498h -13.0946"
     fill="none"
     stroke="black"
     id="path208" />
  <path
     d="M57.1929,485.682v -2.36714"
     fill="none"
     stroke="black"
     id="path210" />
  <path
     d="M75.0218,484.498h 23.4024"
     fill="none"
     stroke="black"
     id="path212" />
  <path
     d="M98.4241,485.682v -2.36714"
     fill="none"
     stroke="black"
     id="path214" />
  <path
     d="M111.519,282.597h -13.0946"
     fill="none"
     stroke="black"
     id="path216" />
  <path
     d="M98.4241,283.78v -2.36714"
     fill="none"
     stroke="black"
     id="path218" />
  <path
     d="M116.253,282.597h 23.4024"
     fill="none"
     stroke="black"
     id="path220" />
  <path
     d="M139.655,283.78v -2.36714"
     fill="none"
     stroke="black"
     id="path222" />
  <path
     d="M152.75,172.977h -13.0946"
     fill="none"
     stroke="black"
     id="path224" />
  <path
     d="M139.655,174.161v -2.36714"
     fill="none"
     stroke="black"
     id="path226" />
  <path
     d="M157.484,172.977h 23.4024"
     fill="none"
     stroke="black"
     id="path228" />
  <path
     d="M180.887,174.161v -2.36714"
     fill="none"
     stroke="black"
     id="path230" />
  <path
     d="M155.117,170.61v -0.106625"
     fill="none"
     stroke="black"
     id="path232" />
  <path
     d="M153.933,170.504h 2.36714"
     fill="none"
     stroke="black"
     id="path234" />
  <path
     d="M155.117,175.344v 0.106625"
     fill="none"
     stroke="black"
     id="path236" />
  <path
     d="M153.933,175.451h 2.36714"
     fill="none"
     stroke="black"
     id="path238" />
  <path
     d="M193.981,146.722h -13.0946"
     fill="none"
     stroke="black"
     id="path240" />
  <path
     d="M180.887,147.905v -2.36714"
     fill="none"
     stroke="black"
     id="path242" />
  <path
     d="M198.715,146.722h 23.4024"
     fill="none"
     stroke="black"
     id="path244" />
  <path
     d="M222.118,147.905v -2.36714"
     fill="none"
     stroke="black"
     id="path246" />
  <path
     d="M196.348,144.354v -0.956229"
     fill="none"
     stroke="black"
     id="path248" />
  <path
     d="M195.165,143.398h 2.36714"
     fill="none"
     stroke="black"
     id="path250" />
  <path
     d="M196.348,149.089v 0.956229"
     fill="none"
     stroke="black"
     id="path252" />
  <path
     d="M195.165,150.045h 2.36714"
     fill="none"
     stroke="black"
     id="path254" />
  <path
     d="M235.212,127.733h -13.0946"
     fill="none"
     stroke="black"
     id="path256" />
  <path
     d="M222.118,128.917v -2.36714"
     fill="none"
     stroke="black"
     id="path258" />
  <path
     d="M239.947,127.733h 23.4024"
     fill="none"
     stroke="black"
     id="path260" />
  <path
     d="M263.349,128.917v -2.36714"
     fill="none"
     stroke="black"
     id="path262" />
  <path
     d="M237.579,125.366v -1.88921"
     fill="none"
     stroke="black"
     id="path264" />
  <path
     d="M236.396,123.477h 2.36714"
     fill="none"
     stroke="black"
     id="path266" />
  <path
     d="M237.579,130.1v 1.88921"
     fill="none"
     stroke="black"
     id="path268" />
  <path
     d="M236.396,131.989h 2.36714"
     fill="none"
     stroke="black"
     id="path270" />
  <path
     d="M276.444,118.912h -13.0946"
     fill="none"
     stroke="black"
     id="path272" />
  <path
     d="M263.349,120.095v -2.36714"
     fill="none"
     stroke="black"
     id="path274" />
  <path
     d="M281.178,118.912h 23.4024"
     fill="none"
     stroke="black"
     id="path276" />
  <path
     d="M304.58,120.095v -2.36714"
     fill="none"
     stroke="black"
     id="path278" />
  <path
     d="M278.811,116.545v -2.80571"
     fill="none"
     stroke="black"
     id="path280" />
  <path
     d="M277.627,113.739h 2.36714"
     fill="none"
     stroke="black"
     id="path282" />
  <path
     d="M278.811,121.279v 2.80571"
     fill="none"
     stroke="black"
     id="path284" />
  <path
     d="M277.627,124.085h 2.36714"
     fill="none"
     stroke="black"
     id="path286" />
  <path
     d="M317.675,111.183h -13.0946"
     fill="none"
     stroke="black"
     id="path288" />
  <path
     d="M304.58,112.366v -2.36714"
     fill="none"
     stroke="black"
     id="path290" />
  <path
     d="M322.409,111.183h 23.4024"
     fill="none"
     stroke="black"
     id="path292" />
  <path
     d="M345.811,112.366v -2.36714"
     fill="none"
     stroke="black"
     id="path294" />
  <path
     d="M320.042,108.815v -3.83828"
     fill="none"
     stroke="black"
     id="path296" />
  <path
     d="M318.858,104.977h 2.36714"
     fill="none"
     stroke="black"
     id="path298" />
  <path
     d="M320.042,113.55v 3.83828"
     fill="none"
     stroke="black"
     id="path300" />
  <path
     d="M318.858,117.388h 2.36714"
     fill="none"
     stroke="black"
     id="path302" />
  <path
     d="M358.906,137.38h -13.0946"
     fill="none"
     stroke="black"
     id="path304" />
  <path
     d="M345.811,138.564v -2.36714"
     fill="none"
     stroke="black"
     id="path306" />
  <path
     d="M363.64,137.38h 23.4024"
     fill="none"
     stroke="black"
     id="path308" />
  <path
     d="M387.043,138.564v -2.36714"
     fill="none"
     stroke="black"
     id="path310" />
  <path
     d="M361.273,135.013v -4.90789"
     fill="none"
     stroke="black"
     id="path312" />
  <path
     d="M360.09,130.105h 2.36714"
     fill="none"
     stroke="black"
     id="path314" />
  <path
     d="M361.273,139.748v 4.90789"
     fill="none"
     stroke="black"
     id="path316" />
  <path
     d="M360.09,144.655h 2.36714"
     fill="none"
     stroke="black"
     id="path318" />
  <path
     d="M400.137,165.367h -13.0946"
     fill="none"
     stroke="black"
     id="path320" />
  <path
     d="M387.043,166.551v -2.36714"
     fill="none"
     stroke="black"
     id="path322" />
  <path
     d="M404.871,165.367h 23.4024"
     fill="none"
     stroke="black"
     id="path324" />
  <path
     d="M428.274,166.551v -2.36714"
     fill="none"
     stroke="black"
     id="path326" />
  <path
     d="M402.504,163v -7.01763"
     fill="none"
     stroke="black"
     id="path328" />
  <path
     d="M401.321,155.982h 2.36714"
     fill="none"
     stroke="black"
     id="path330" />
  <path
     d="M402.504,167.734v 7.01763"
     fill="none"
     stroke="black"
     id="path332" />
  <path
     d="M401.321,174.752h 2.36714"
     fill="none"
     stroke="black"
     id="path334" />
  <path
     d="M441.368,375.776h -13.0946"
     fill="none"
     stroke="black"
     id="path336" />
  <path
     d="M428.274,376.96v -2.36714"
     fill="none"
     stroke="black"
     id="path338" />
  <path
     d="M446.103,375.776h 23.4024"
     fill="none"
     stroke="black"
     id="path340" />
  <path
     d="M469.505,376.96v -2.36714"
     fill="none"
     stroke="black"
     id="path342" />
  <path
     d="M443.736,373.409v -7.26478"
     fill="none"
     stroke="black"
     id="path344" />
  <path
     d="M442.552,366.144h 2.36714"
     fill="none"
     stroke="black"
     id="path346" />
  <path
     d="M443.736,378.143v 7.26478"
     fill="none"
     stroke="black"
     id="path348" />
  <path
     d="M442.552,385.408h 2.36714"
     fill="none"
     stroke="black"
     id="path350" />
  <path
     d="M75.4414,536.002h -18.2485"
     fill="none"
     stroke="black"
     id="path352" />
  <path
     d="M57.1929,537.185v -2.36714"
     fill="none"
     stroke="black"
     id="path354" />
  <path
     d="M80.1757,536.002h 18.2485"
     fill="none"
     stroke="black"
     id="path356" />
  <path
     d="M98.4241,537.185v -2.36714"
     fill="none"
     stroke="black"
     id="path358" />
  <path
     d="M116.673,423.877h -18.2485"
     fill="none"
     stroke="black"
     id="path360" />
  <path
     d="M98.4241,425.061v -2.36714"
     fill="none"
     stroke="black"
     id="path362" />
  <path
     d="M121.407,423.877h 18.2485"
     fill="none"
     stroke="black"
     id="path364" />
  <path
     d="M139.655,425.061v -2.36714"
     fill="none"
     stroke="black"
     id="path366" />
  <path
     d="M157.904,291.05h -18.2485"
     fill="none"
     stroke="black"
     id="path368" />
  <path
     d="M139.655,292.233v -2.36714"
     fill="none"
     stroke="black"
     id="path370" />
  <path
     d="M162.638,291.05h 18.2485"
     fill="none"
     stroke="black"
     id="path372" />
  <path
     d="M180.887,292.233v -2.36714"
     fill="none"
     stroke="black"
     id="path374" />
  <path
     d="M199.135,235.588h -18.2485"
     fill="none"
     stroke="black"
     id="path376" />
  <path
     d="M180.887,236.772v -2.36714"
     fill="none"
     stroke="black"
     id="path378" />
  <path
     d="M203.869,235.588h 18.2485"
     fill="none"
     stroke="black"
     id="path380" />
  <path
     d="M222.118,236.772v -2.36714"
     fill="none"
     stroke="black"
     id="path382" />
  <path
     d="M201.502,233.221v -0.557009"
     fill="none"
     stroke="black"
     id="path384" />
  <path
     d="M200.319,232.664h 2.36714"
     fill="none"
     stroke="black"
     id="path386" />
  <path
     d="M201.502,237.955v 0.557009"
     fill="none"
     stroke="black"
     id="path388" />
  <path
     d="M200.319,238.512h 2.36714"
     fill="none"
     stroke="black"
     id="path390" />
  <path
     d="M240.366,197.728h -18.2485"
     fill="none"
     stroke="black"
     id="path392" />
  <path
     d="M222.118,198.912v -2.36714"
     fill="none"
     stroke="black"
     id="path394" />
  <path
     d="M245.1,197.728h 18.2485"
     fill="none"
     stroke="black"
     id="path396" />
  <path
     d="M263.349,198.912v -2.36714"
     fill="none"
     stroke="black"
     id="path398" />
  <path
     d="M242.733,195.361v -1.51022"
     fill="none"
     stroke="black"
     id="path400" />
  <path
     d="M241.55,193.851h 2.36714"
     fill="none"
     stroke="black"
     id="path402" />
  <path
     d="M242.733,200.095v 1.51022"
     fill="none"
     stroke="black"
     id="path404" />
  <path
     d="M241.55,201.606h 2.36714"
     fill="none"
     stroke="black"
     id="path406" />
  <path
     d="M281.597,180.501h -18.2485"
     fill="none"
     stroke="black"
     id="path408" />
  <path
     d="M263.349,181.685v -2.36714"
     fill="none"
     stroke="black"
     id="path410" />
  <path
     d="M286.332,180.501h 18.2485"
     fill="none"
     stroke="black"
     id="path412" />
  <path
     d="M304.58,181.685v -2.36714"
     fill="none"
     stroke="black"
     id="path414" />
  <path
     d="M283.965,178.134v -2.41105"
     fill="none"
     stroke="black"
     id="path416" />
  <path
     d="M282.781,175.723h 2.36714"
     fill="none"
     stroke="black"
     id="path418" />
  <path
     d="M283.965,182.868v 2.41105"
     fill="none"
     stroke="black"
     id="path420" />
  <path
     d="M282.781,185.28h 2.36714"
     fill="none"
     stroke="black"
     id="path422" />
  <path
     d="M322.829,164.224h -18.2485"
     fill="none"
     stroke="black"
     id="path424" />
  <path
     d="M304.58,165.408v -2.36714"
     fill="none"
     stroke="black"
     id="path426" />
  <path
     d="M327.563,164.224h 18.2485"
     fill="none"
     stroke="black"
     id="path428" />
  <path
     d="M345.811,165.408v -2.36714"
     fill="none"
     stroke="black"
     id="path430" />
  <path
     d="M325.196,161.857v -3.43993"
     fill="none"
     stroke="black"
     id="path432" />
  <path
     d="M324.012,158.417h 2.36714"
     fill="none"
     stroke="black"
     id="path434" />
  <path
     d="M325.196,166.591v 3.43993"
     fill="none"
     stroke="black"
     id="path436" />
  <path
     d="M324.012,170.031h 2.36714"
     fill="none"
     stroke="black"
     id="path438" />
  <path
     d="M364.06,179.566h -18.2485"
     fill="none"
     stroke="black"
     id="path440" />
  <path
     d="M345.811,180.75v -2.36714"
     fill="none"
     stroke="black"
     id="path442" />
  <path
     d="M368.794,179.566h 18.2485"
     fill="none"
     stroke="black"
     id="path444" />
  <path
     d="M387.043,180.75v -2.36714"
     fill="none"
     stroke="black"
     id="path446" />
  <path
     d="M366.427,177.199v -4.51509"
     fill="none"
     stroke="black"
     id="path448" />
  <path
     d="M365.243,172.684h 2.36714"
     fill="none"
     stroke="black"
     id="path450" />
  <path
     d="M366.427,181.933v 4.51509"
     fill="none"
     stroke="black"
     id="path452" />
  <path
     d="M365.243,186.448h 2.36714"
     fill="none"
     stroke="black"
     id="path454" />
  <path
     d="M405.291,194.288h -18.2485"
     fill="none"
     stroke="black"
     id="path456" />
  <path
     d="M387.043,195.471v -2.36714"
     fill="none"
     stroke="black"
     id="path458" />
  <path
     d="M410.025,194.288h 18.2485"
     fill="none"
     stroke="black"
     id="path460" />
  <path
     d="M428.274,195.471v -2.36714"
     fill="none"
     stroke="black"
     id="path462" />
  <path
     d="M407.658,191.921v -6.64783"
     fill="none"
     stroke="black"
     id="path464" />
  <path
     d="M406.475,185.273h 2.36714"
     fill="none"
     stroke="black"
     id="path466" />
  <path
     d="M407.658,196.655v 6.64783"
     fill="none"
     stroke="black"
     id="path468" />
  <path
     d="M406.475,203.303h 2.36714"
     fill="none"
     stroke="black"
     id="path470" />
  <path
     d="M446.522,380.607h -18.2485"
     fill="none"
     stroke="black"
     id="path472" />
  <path
     d="M428.274,381.79v -2.36714"
     fill="none"
     stroke="black"
     id="path474" />
  <path
     d="M451.257,380.607h 18.2485"
     fill="none"
     stroke="black"
     id="path476" />
  <path
     d="M469.505,381.79v -2.36714"
     fill="none"
     stroke="black"
     id="path478" />
  <path
     d="M448.889,378.24v -7.12665"
     fill="none"
     stroke="black"
     id="path480" />
  <path
     d="M447.706,371.113h 2.36714"
     fill="none"
     stroke="black"
     id="path482" />
  <path
     d="M448.889,382.974v 7.12665"
     fill="none"
     stroke="black"
     id="path484" />
  <path
     d="M447.706,390.1h 2.36714"
     fill="none"
     stroke="black"
     id="path486" />
  <g
     fill="#0000ff"
     id="g508">
    <rect
       x="75.4414"
       y="533.635"
       width="4.73427"
       height="4.73427"
       id="rect488" />
    <rect
       x="116.673"
       y="421.51"
       width="4.73427"
       height="4.73427"
       id="rect490" />
    <rect
       x="157.904"
       y="288.683"
       width="4.73427"
       height="4.73427"
       id="rect492" />
    <rect
       x="199.135"
       y="233.221"
       width="4.73427"
       height="4.73427"
       id="rect494" />
    <rect
       x="240.366"
       y="195.361"
       width="4.73427"
       height="4.73427"
       id="rect496" />
    <rect
       x="281.597"
       y="178.134"
       width="4.73427"
       height="4.73427"
       id="rect498" />
    <rect
       x="322.829"
       y="161.857"
       width="4.73427"
       height="4.73427"
       id="rect500" />
    <rect
       x="364.06"
       y="177.199"
       width="4.73427"
       height="4.73427"
       id="rect502" />
    <rect
       x="405.291"
       y="191.921"
       width="4.73427"
       height="4.73427"
       id="rect504" />
    <rect
       x="446.522"
       y="378.24"
       width="4.73427"
       height="4.73427"
       id="rect506" />
  </g>
  <path
     d="M80.5953,544.912h -23.4024"
     fill="none"
     stroke="black"
     id="path510" />
  <path
     d="M57.1929,546.095v -2.36714"
     fill="none"
     stroke="black"
     id="path512" />
  <path
     d="M85.3296,544.912h 13.0946"
     fill="none"
     stroke="black"
     id="path514" />
  <path
     d="M98.4241,546.095v -2.36714"
     fill="none"
     stroke="black"
     id="path516" />
  <path
     d="M121.826,510.372h -23.4024"
     fill="none"
     stroke="black"
     id="path518" />
  <path
     d="M98.4241,511.556v -2.36714"
     fill="none"
     stroke="black"
     id="path520" />
  <path
     d="M126.561,510.372h 13.0946"
     fill="none"
     stroke="black"
     id="path522" />
  <path
     d="M139.655,511.556v -2.36714"
     fill="none"
     stroke="black"
     id="path524" />
  <path
     d="M163.058,422.728h -23.4024"
     fill="none"
     stroke="black"
     id="path526" />
  <path
     d="M139.655,423.911v -2.36714"
     fill="none"
     stroke="black"
     id="path528" />
  <path
     d="M167.792,422.728h 13.0946"
     fill="none"
     stroke="black"
     id="path530" />
  <path
     d="M180.887,423.911v -2.36714"
     fill="none"
     stroke="black"
     id="path532" />
  <path
     d="M204.289,355.409h -23.4024"
     fill="none"
     stroke="black"
     id="path534" />
  <path
     d="M180.887,356.592v -2.36714"
     fill="none"
     stroke="black"
     id="path536" />
  <path
     d="M209.023,355.409h 13.0946"
     fill="none"
     stroke="black"
     id="path538" />
  <path
     d="M222.118,356.592v -2.36714"
     fill="none"
     stroke="black"
     id="path540" />
  <path
     d="M245.52,300.652h -23.4024"
     fill="none"
     stroke="black"
     id="path542" />
  <path
     d="M222.118,301.836v -2.36714"
     fill="none"
     stroke="black"
     id="path544" />
  <path
     d="M250.254,300.652h 13.0946"
     fill="none"
     stroke="black"
     id="path546" />
  <path
     d="M263.349,301.836v -2.36714"
     fill="none"
     stroke="black"
     id="path548" />
  <path
     d="M247.887,298.285v -0.879916"
     fill="none"
     stroke="black"
     id="path550" />
  <path
     d="M246.704,297.405h 2.36714"
     fill="none"
     stroke="black"
     id="path552" />
  <path
     d="M247.887,303.019v 0.879916"
     fill="none"
     stroke="black"
     id="path554" />
  <path
     d="M246.704,303.899h 2.36714"
     fill="none"
     stroke="black"
     id="path556" />
  <path
     d="M286.751,272.061h -23.4024"
     fill="none"
     stroke="black"
     id="path558" />
  <path
     d="M263.349,273.245v -2.36714"
     fill="none"
     stroke="black"
     id="path560" />
  <path
     d="M291.486,272.061h 13.0946"
     fill="none"
     stroke="black"
     id="path562" />
  <path
     d="M304.58,273.245v -2.36714"
     fill="none"
     stroke="black"
     id="path564" />
  <path
     d="M289.118,269.694v -1.7609"
     fill="none"
     stroke="black"
     id="path566" />
  <path
     d="M287.935,267.933h 2.36714"
     fill="none"
     stroke="black"
     id="path568" />
  <path
     d="M289.118,274.429v 1.7609"
     fill="none"
     stroke="black"
     id="path570" />
  <path
     d="M287.935,276.19h 2.36714"
     fill="none"
     stroke="black"
     id="path572" />
  <path
     d="M327.983,248.746h -23.4024"
     fill="none"
     stroke="black"
     id="path574" />
  <path
     d="M304.58,249.929v -2.36714"
     fill="none"
     stroke="black"
     id="path576" />
  <path
     d="M332.717,248.746h 13.0946"
     fill="none"
     stroke="black"
     id="path578" />
  <path
     d="M345.811,249.929v -2.36714"
     fill="none"
     stroke="black"
     id="path580" />
  <path
     d="M330.35,246.379v -2.7469"
     fill="none"
     stroke="black"
     id="path582" />
  <path
     d="M329.166,243.632h 2.36714"
     fill="none"
     stroke="black"
     id="path584" />
  <path
     d="M330.35,251.113v 2.7469"
     fill="none"
     stroke="black"
     id="path586" />
  <path
     d="M329.166,253.86h 2.36714"
     fill="none"
     stroke="black"
     id="path588" />
  <path
     d="M369.214,258.38h -23.4024"
     fill="none"
     stroke="black"
     id="path590" />
  <path
     d="M345.811,259.564v -2.36714"
     fill="none"
     stroke="black"
     id="path592" />
  <path
     d="M373.948,258.38h 13.0946"
     fill="none"
     stroke="black"
     id="path594" />
  <path
     d="M387.043,259.564v -2.36714"
     fill="none"
     stroke="black"
     id="path596" />
  <path
     d="M371.581,256.013v -3.7192"
     fill="none"
     stroke="black"
     id="path598" />
  <path
     d="M370.397,252.294h 2.36714"
     fill="none"
     stroke="black"
     id="path600" />
  <path
     d="M371.581,260.747v 3.7192"
     fill="none"
     stroke="black"
     id="path602" />
  <path
     d="M370.397,264.467h 2.36714"
     fill="none"
     stroke="black"
     id="path604" />
  <path
     d="M410.445,252.129h -23.4024"
     fill="none"
     stroke="black"
     id="path606" />
  <path
     d="M387.043,253.313v -2.36714"
     fill="none"
     stroke="black"
     id="path608" />
  <path
     d="M415.179,252.129h 13.0946"
     fill="none"
     stroke="black"
     id="path610" />
  <path
     d="M428.274,253.313v -2.36714"
     fill="none"
     stroke="black"
     id="path612" />
  <path
     d="M412.812,249.762v -5.86239"
     fill="none"
     stroke="black"
     id="path614" />
  <path
     d="M411.629,243.9h 2.36714"
     fill="none"
     stroke="black"
     id="path616" />
  <path
     d="M412.812,254.497v 5.86239"
     fill="none"
     stroke="black"
     id="path618" />
  <path
     d="M411.629,260.359h 2.36714"
     fill="none"
     stroke="black"
     id="path620" />
  <path
     d="M451.676,402.075h -23.4024"
     fill="none"
     stroke="black"
     id="path622" />
  <path
     d="M428.274,403.259v -2.36714"
     fill="none"
     stroke="black"
     id="path624" />
  <path
     d="M456.41,402.075h 13.0946"
     fill="none"
     stroke="black"
     id="path626" />
  <path
     d="M469.505,403.259v -2.36714"
     fill="none"
     stroke="black"
     id="path628" />
  <path
     d="M454.043,399.708v -6.48771"
     fill="none"
     stroke="black"
     id="path630" />
  <path
     d="M452.86,393.22h 2.36714"
     fill="none"
     stroke="black"
     id="path632" />
  <path
     d="M454.043,404.442v 6.48771"
     fill="none"
     stroke="black"
     id="path634" />
  <path
     d="M452.86,410.93h 2.36714"
     fill="none"
     stroke="black"
     id="path636" />
  <g
     fill="#00ff00"
     id="g658">
    <rect
       x="80.5953"
       y="542.544"
       width="4.73427"
       height="4.73427"
       id="rect638" />
    <rect
       x="121.826"
       y="508.005"
       width="4.73427"
       height="4.73427"
       id="rect640" />
    <rect
       x="163.058"
       y="420.361"
       width="4.73427"
       height="4.73427"
       id="rect642" />
    <rect
       x="204.289"
       y="353.041"
       width="4.73427"
       height="4.73427"
       id="rect644" />
    <rect
       x="245.52"
       y="298.285"
       width="4.73427"
       height="4.73427"
       id="rect646" />
    <rect
       x="286.751"
       y="269.694"
       width="4.73427"
       height="4.73427"
       id="rect648" />
    <rect
       x="327.983"
       y="246.379"
       width="4.73427"
       height="4.73427"
       id="rect650" />
    <rect
       x="369.214"
       y="256.013"
       width="4.73427"
       height="4.73427"
       id="rect652" />
    <rect
       x="410.445"
       y="249.762"
       width="4.73427"
       height="4.73427"
       id="rect654" />
    <rect
       x="451.676"
       y="399.708"
       width="4.73427"
       height="4.73427"
       id="rect656" />
  </g>
  <rect
     x="60.862"
     y="63.3209"
     width="169.842"
     height="60.362"
     fill="white"
     id="rect660" />
  <path
     d="M60.862,123.683h 169.842"
     fill="none"
     stroke="black"
     id="path662" />
  <path
     d="M230.704,123.683v -60.362"
     fill="none"
     stroke="black"
     id="path664" />
  <path
     d="M230.704,63.3209h -169.842"
     fill="none"
     stroke="black"
     id="path666" />
  <path
     d="M60.862,63.3209v 60.362"
     fill="none"
     stroke="black"
     id="path668" />
  <text
     xml:space="preserve"
     x="102.879"
     y="77.5237"
     fill="black"
     font-size="13.6676"
     font-family="Helvetica"
     id="text670">DC</text>
  <path
     d="M67.231,73.3812h 29.7224"
     fill="none"
     stroke="black"
     id="path672" />
  <g
     fill="#ff0000"
     id="g676">
    <rect
       x="79.7251"
       y="71.0141"
       width="4.73427"
       height="4.73427"
       id="rect674" />
  </g>
  <text
     xml:space="preserve"
     x="102.879"
     y="97.6444"
     fill="black"
     font-size="13.6676"
     font-family="Helvetica"
     id="text678">FMT - 2 layers</text>
  <path
     d="M67.231,93.5019h 29.7224"
     fill="none"
     stroke="black"
     id="path680" />
  <g
     fill="#0000ff"
     id="g684">
    <rect
       x="79.7251"
       y="91.1347"
       width="4.73427"
       height="4.73427"
       id="rect682" />
  </g>
  <text
     xml:space="preserve"
     x="102.879"
     y="117.765"
     fill="black"
     font-size="13.6676"
     font-family="Helvetica"
     id="text686">FMT - 3 layers</text>
  <path
     d="M67.231,113.623h 29.7224"
     fill="none"
     stroke="black"
     id="path688" />
  <g
     fill="#00ff00"
     id="g692">
    <rect
       x="79.7251"
       y="111.255"
       width="4.73427"
       height="4.73427"
       id="rect690" />
  </g>
  <g
     id="g990"
     transform="translate(27.699108)">
    <text
       xml:space="preserve"
       x="213.54201"
       y="33.731701"
       fill="#000000"
       font-size="17.4068px"
       font-family="Helvetica"
       font-weight="bold"
       id="text696"> acceptance</text>
    <text
       xml:space="preserve"
       x="207.033"
       y="39.057701"
       fill="#000000"
       font-size="11.7712px"
       font-family="Helvetica"
       font-weight="bold"
       id="text698">h</text>
    <text
       xml:space="preserve"
       x="198.748"
       y="33.731701"
       fill="#000000"
       font-size="17.4068px"
       font-family="Helvetica"
       font-weight="bold"
       id="text700">z</text>
  </g>
</svg>
