<?xml version="1.0" encoding="UTF-8" standalone="no"?>
<svg
   width="567.429"
   height="608.262"
   viewBox="0 0 567.429 608.262"
   shape-rendering="crispEdges"
   version="1.1"
   id="svg500"
   sodipodi:docname="int_nu.svg"
   inkscape:export-filename="int_nu.pdf"
   inkscape:export-xdpi="96"
   inkscape:export-ydpi="96"
   inkscape:version="1.2.2 (1:1.2.2+202305151914+b0a8486541)"
   xmlns:inkscape="http://www.inkscape.org/namespaces/inkscape"
   xmlns:sodipodi="http://sodipodi.sourceforge.net/DTD/sodipodi-0.dtd"
   xmlns="http://www.w3.org/2000/svg"
   xmlns:svg="http://www.w3.org/2000/svg">
  <sodipodi:namedview
     id="namedview502"
     pagecolor="#ffffff"
     bordercolor="#666666"
     borderopacity="1.0"
     inkscape:showpageshadow="2"
     inkscape:pageopacity="0.0"
     inkscape:pagecheckerboard="0"
     inkscape:deskcolor="#d1d1d1"
     showgrid="false"
     inkscape:zoom="0.38799069"
     inkscape:cx="283.51196"
     inkscape:cy="304.13101"
     inkscape:window-width="1920"
     inkscape:window-height="1051"
     inkscape:window-x="0"
     inkscape:window-y="0"
     inkscape:window-maximized="1"
     inkscape:current-layer="svg500" />
  <title
     id="title2">
/home/twig/code/rge-analysis/macros/int_nu.svg
</title>
  <desc
     id="desc4">
Creator: ROOT Version 6.28/00
CreationDate: Tue Jun 27 11:55:26 2023</desc>
  <defs
     id="defs6" />
  <rect
     x="0.5"
     y="0"
     width="566.929"
     height="607.762"
     fill="white"
     id="rect8" />
  <rect
     x="57.1929"
     y="60.7762"
     width="453.543"
     height="486.21"
     fill="white"
     id="rect10" />
  <rect
     x="57.1929"
     y="60.7762"
     width="453.543"
     height="486.21"
     fill="none"
     stroke="black"
     id="rect12" />
  <rect
     x="57.1929"
     y="60.7762"
     width="453.543"
     height="486.21"
     fill="white"
     id="rect14" />
  <rect
     x="57.1929"
     y="60.7762"
     width="453.543"
     height="486.21"
     fill="none"
     stroke="black"
     id="rect16" />
  <path
     d="M57.1929,546.986h 453.543"
     fill="none"
     stroke="black"
     id="path18" />
  <path
     d="M94.9882,60.7762v 486.21"
     fill="none"
     stroke="black"
     stroke-dasharray=" 1, 2"
     id="path20" />
  <path
     d="M148.981,60.7762v 486.21"
     fill="none"
     stroke="black"
     stroke-dasharray=" 1, 2"
     id="path22" />
  <path
     d="M202.975,60.7762v 486.21"
     fill="none"
     stroke="black"
     stroke-dasharray=" 1, 2"
     id="path24" />
  <path
     d="M256.968,60.7762v 486.21"
     fill="none"
     stroke="black"
     stroke-dasharray=" 1, 2"
     id="path26" />
  <path
     d="M310.961,60.7762v 486.21"
     fill="none"
     stroke="black"
     stroke-dasharray=" 1, 2"
     id="path28" />
  <path
     d="M364.954,60.7762v 486.21"
     fill="none"
     stroke="black"
     stroke-dasharray=" 1, 2"
     id="path30" />
  <path
     d="M418.948,60.7762v 486.21"
     fill="none"
     stroke="black"
     stroke-dasharray=" 1, 2"
     id="path32" />
  <path
     d="M472.941,60.7762v 486.21"
     fill="none"
     stroke="black"
     stroke-dasharray=" 1, 2"
     id="path34" />
  <path
     d="M94.9882,60.7762v 486.21"
     fill="none"
     stroke="black"
     stroke-dasharray=" 1, 2"
     id="path36" />
  <path
     d="M472.941,60.7762v 486.21"
     fill="none"
     stroke="black"
     stroke-dasharray=" 1, 2"
     id="path38" />
  <path
     d="M57.1929,546.986v -486.21"
     fill="none"
     stroke="black"
     id="path40" />
  <path
     d="M510.736,546.986h -453.543"
     fill="none"
     stroke="black"
     stroke-dasharray=" 1, 2"
     id="path42" />
  <path
     d="M510.736,461.444h -453.543"
     fill="none"
     stroke="black"
     stroke-dasharray=" 1, 2"
     id="path44" />
  <path
     d="M510.736,375.901h -453.543"
     fill="none"
     stroke="black"
     stroke-dasharray=" 1, 2"
     id="path46" />
  <path
     d="M510.736,290.359h -453.543"
     fill="none"
     stroke="black"
     stroke-dasharray=" 1, 2"
     id="path48" />
  <path
     d="M510.736,204.816h -453.543"
     fill="none"
     stroke="black"
     stroke-dasharray=" 1, 2"
     id="path50" />
  <path
     d="M510.736,119.274h -453.543"
     fill="none"
     stroke="black"
     stroke-dasharray=" 1, 2"
     id="path52" />
  <path
     d="M510.736,119.274h -453.543"
     fill="none"
     stroke="black"
     stroke-dasharray=" 1, 2"
     id="path54" />
  <path
     d="M57.1929,546.986h 453.543"
     fill="none"
     stroke="black"
     id="path56" />
  <path
     d="M94.9882,532.4v 14.5863"
     fill="none"
     stroke="black"
     id="path58" />
  <path
     d="M105.787,539.693v 7.29315"
     fill="none"
     stroke="black"
     id="path60" />
  <path
     d="M116.585,539.693v 7.29315"
     fill="none"
     stroke="black"
     id="path62" />
  <path
     d="M127.384,539.693v 7.29315"
     fill="none"
     stroke="black"
     id="path64" />
  <path
     d="M138.183,539.693v 7.29315"
     fill="none"
     stroke="black"
     id="path66" />
  <path
     d="M148.981,532.4v 14.5863"
     fill="none"
     stroke="black"
     id="path68" />
  <path
     d="M159.78,539.693v 7.29315"
     fill="none"
     stroke="black"
     id="path70" />
  <path
     d="M170.579,539.693v 7.29315"
     fill="none"
     stroke="black"
     id="path72" />
  <path
     d="M181.377,539.693v 7.29315"
     fill="none"
     stroke="black"
     id="path74" />
  <path
     d="M192.176,539.693v 7.29315"
     fill="none"
     stroke="black"
     id="path76" />
  <path
     d="M202.975,532.4v 14.5863"
     fill="none"
     stroke="black"
     id="path78" />
  <path
     d="M213.773,539.693v 7.29315"
     fill="none"
     stroke="black"
     id="path80" />
  <path
     d="M224.572,539.693v 7.29315"
     fill="none"
     stroke="black"
     id="path82" />
  <path
     d="M235.371,539.693v 7.29315"
     fill="none"
     stroke="black"
     id="path84" />
  <path
     d="M246.169,539.693v 7.29315"
     fill="none"
     stroke="black"
     id="path86" />
  <path
     d="M256.968,532.4v 14.5863"
     fill="none"
     stroke="black"
     id="path88" />
  <path
     d="M267.767,539.693v 7.29315"
     fill="none"
     stroke="black"
     id="path90" />
  <path
     d="M278.565,539.693v 7.29315"
     fill="none"
     stroke="black"
     id="path92" />
  <path
     d="M289.364,539.693v 7.29315"
     fill="none"
     stroke="black"
     id="path94" />
  <path
     d="M300.163,539.693v 7.29315"
     fill="none"
     stroke="black"
     id="path96" />
  <path
     d="M310.961,532.4v 14.5863"
     fill="none"
     stroke="black"
     id="path98" />
  <path
     d="M321.76,539.693v 7.29315"
     fill="none"
     stroke="black"
     id="path100" />
  <path
     d="M332.559,539.693v 7.29315"
     fill="none"
     stroke="black"
     id="path102" />
  <path
     d="M343.357,539.693v 7.29315"
     fill="none"
     stroke="black"
     id="path104" />
  <path
     d="M354.156,539.693v 7.29315"
     fill="none"
     stroke="black"
     id="path106" />
  <path
     d="M364.954,532.4v 14.5863"
     fill="none"
     stroke="black"
     id="path108" />
  <path
     d="M375.753,539.693v 7.29315"
     fill="none"
     stroke="black"
     id="path110" />
  <path
     d="M386.552,539.693v 7.29315"
     fill="none"
     stroke="black"
     id="path112" />
  <path
     d="M397.35,539.693v 7.29315"
     fill="none"
     stroke="black"
     id="path114" />
  <path
     d="M408.149,539.693v 7.29315"
     fill="none"
     stroke="black"
     id="path116" />
  <path
     d="M418.948,532.4v 14.5863"
     fill="none"
     stroke="black"
     id="path118" />
  <path
     d="M429.746,539.693v 7.29315"
     fill="none"
     stroke="black"
     id="path120" />
  <path
     d="M440.545,539.693v 7.29315"
     fill="none"
     stroke="black"
     id="path122" />
  <path
     d="M451.344,539.693v 7.29315"
     fill="none"
     stroke="black"
     id="path124" />
  <path
     d="M462.142,539.693v 7.29315"
     fill="none"
     stroke="black"
     id="path126" />
  <path
     d="M472.941,532.4v 14.5863"
     fill="none"
     stroke="black"
     id="path128" />
  <path
     d="M94.9882,532.4v 14.5863"
     fill="none"
     stroke="black"
     id="path130" />
  <path
     d="M84.1895,539.693v 7.29315"
     fill="none"
     stroke="black"
     id="path132" />
  <path
     d="M73.3909,539.693v 7.29315"
     fill="none"
     stroke="black"
     id="path134" />
  <path
     d="M62.5922,539.693v 7.29315"
     fill="none"
     stroke="black"
     id="path136" />
  <path
     d="M472.941,532.4v 14.5863"
     fill="none"
     stroke="black"
     id="path138" />
  <path
     d="M483.74,539.693v 7.29315"
     fill="none"
     stroke="black"
     id="path140" />
  <path
     d="M494.538,539.693v 7.29315"
     fill="none"
     stroke="black"
     id="path142" />
  <path
     d="M505.337,539.693v 7.29315"
     fill="none"
     stroke="black"
     id="path144" />
  <text
     xml:space="preserve"
     x="89.8594"
     y="566.929"
     fill="black"
     font-size="18.7041"
     font-family="Helvetica"
     id="text146">2</text>
  <text
     xml:space="preserve"
     x="143.712"
     y="566.929"
     fill="black"
     font-size="18.7041"
     font-family="Helvetica"
     id="text148">3</text>
  <text
     xml:space="preserve"
     x="197.564"
     y="566.929"
     fill="black"
     font-size="18.7041"
     font-family="Helvetica"
     id="text150">4</text>
  <text
     xml:space="preserve"
     x="252.008"
     y="566.929"
     fill="black"
     font-size="18.7041"
     font-family="Helvetica"
     id="text152">5</text>
  <text
     xml:space="preserve"
     x="305.861"
     y="566.929"
     fill="black"
     font-size="18.7041"
     font-family="Helvetica"
     id="text154">6</text>
  <text
     xml:space="preserve"
     x="359.121"
     y="566.929"
     fill="black"
     font-size="18.7041"
     font-family="Helvetica"
     id="text156">7</text>
  <text
     xml:space="preserve"
     x="414.157"
     y="566.929"
     fill="black"
     font-size="18.7041"
     font-family="Helvetica"
     id="text158">8</text>
  <text
     xml:space="preserve"
     x="468.009"
     y="566.929"
     fill="black"
     font-size="18.7041"
     font-family="Helvetica"
     id="text160">9</text>
  <text
     xml:space="preserve"
     x="457.949"
     y="585.866"
     fill="black"
     font-size="18.7041"
     font-family="Helvetica"
     id="text162"> (GeV)</text>
  <text
     xml:space="preserve"
     x="448.481"
     y="585.866"
     fill="black"
     font-size="18.7041"
     font-family="Times"
     id="text164">ν</text>
  <path
     d="M57.1929,546.986v -486.21"
     fill="none"
     stroke="black"
     id="path166" />
  <path
     d="M70.7992,546.986h -13.6063"
     fill="none"
     stroke="black"
     id="path168" />
  <path
     d="M63.9961,529.878h -6.80315"
     fill="none"
     stroke="black"
     id="path170" />
  <path
     d="M63.9961,512.769h -6.80315"
     fill="none"
     stroke="black"
     id="path172" />
  <path
     d="M63.9961,495.661h -6.80315"
     fill="none"
     stroke="black"
     id="path174" />
  <path
     d="M63.9961,478.552h -6.80315"
     fill="none"
     stroke="black"
     id="path176" />
  <path
     d="M70.7992,461.444h -13.6063"
     fill="none"
     stroke="black"
     id="path178" />
  <path
     d="M63.9961,444.335h -6.80315"
     fill="none"
     stroke="black"
     id="path180" />
  <path
     d="M63.9961,427.227h -6.80315"
     fill="none"
     stroke="black"
     id="path182" />
  <path
     d="M63.9961,410.118h -6.80315"
     fill="none"
     stroke="black"
     id="path184" />
  <path
     d="M63.9961,393.01h -6.80315"
     fill="none"
     stroke="black"
     id="path186" />
  <path
     d="M70.7992,375.901h -13.6063"
     fill="none"
     stroke="black"
     id="path188" />
  <path
     d="M63.9961,358.793h -6.80315"
     fill="none"
     stroke="black"
     id="path190" />
  <path
     d="M63.9961,341.684h -6.80315"
     fill="none"
     stroke="black"
     id="path192" />
  <path
     d="M63.9961,324.576h -6.80315"
     fill="none"
     stroke="black"
     id="path194" />
  <path
     d="M63.9961,307.467h -6.80315"
     fill="none"
     stroke="black"
     id="path196" />
  <path
     d="M70.7992,290.359h -13.6063"
     fill="none"
     stroke="black"
     id="path198" />
  <path
     d="M63.9961,273.25h -6.80315"
     fill="none"
     stroke="black"
     id="path200" />
  <path
     d="M63.9961,256.142h -6.80315"
     fill="none"
     stroke="black"
     id="path202" />
  <path
     d="M63.9961,239.033h -6.80315"
     fill="none"
     stroke="black"
     id="path204" />
  <path
     d="M63.9961,221.925h -6.80315"
     fill="none"
     stroke="black"
     id="path206" />
  <path
     d="M70.7992,204.816h -13.6063"
     fill="none"
     stroke="black"
     id="path208" />
  <path
     d="M63.9961,187.708h -6.80315"
     fill="none"
     stroke="black"
     id="path210" />
  <path
     d="M63.9961,170.599h -6.80315"
     fill="none"
     stroke="black"
     id="path212" />
  <path
     d="M63.9961,153.491h -6.80315"
     fill="none"
     stroke="black"
     id="path214" />
  <path
     d="M63.9961,136.382h -6.80315"
     fill="none"
     stroke="black"
     id="path216" />
  <path
     d="M70.7992,119.274h -13.6063"
     fill="none"
     stroke="black"
     id="path218" />
  <path
     d="M70.7992,119.274h -13.6063"
     fill="none"
     stroke="black"
     id="path220" />
  <path
     d="M63.9961,102.166h -6.80315"
     fill="none"
     stroke="black"
     id="path222" />
  <path
     d="M63.9961,85.057h -6.80315"
     fill="none"
     stroke="black"
     id="path224" />
  <path
     d="M63.9961,67.9485h -6.80315"
     fill="none"
     stroke="black"
     id="path226" />
  <text
     xml:space="preserve"
     x="44.8838"
     y="553.318"
     fill="black"
     font-size="18.7041"
     font-family="Helvetica"
     id="text228">0</text>
  <text
     xml:space="preserve"
     x="24.1714"
     y="467.509"
     fill="black"
     font-size="18.7041"
     font-family="Helvetica"
     id="text230">500</text>
  <text
     xml:space="preserve"
     x="14.111"
     y="382.292"
     fill="black"
     font-size="18.7041"
     font-family="Helvetica"
     id="text232">1000</text>
  <text
     xml:space="preserve"
     x="14.111"
     y="296.484"
     fill="black"
     font-size="18.7041"
     font-family="Helvetica"
     id="text234">1500</text>
  <text
     xml:space="preserve"
     x="14.111"
     y="211.267"
     fill="black"
     font-size="18.7041"
     font-family="Helvetica"
     id="text236">2000</text>
  <text
     xml:space="preserve"
     x="14.111"
     y="125.458"
     fill="black"
     font-size="18.7041"
     font-family="Helvetica"
     id="text238">2500</text>
  <text
     xml:space="preserve"
     x="86.3087"
     y="49.7099"
     fill="black"
     font-size="12.6361"
     font-family="Helvetica"
     id="text240">3</text>
  <text
     xml:space="preserve"
     x="66.7798"
     y="58.5866"
     fill="black"
     font-size="18.7041"
     font-family="Helvetica"
     id="text242">10</text>
  <text
     xml:space="preserve"
     x="56.7195"
     y="58.5866"
     fill="black"
     font-size="18.7041"
     font-family="Times"
     id="text244">×</text>
  <g
     fill="#ff0000"
     id="g260">
    <rect
       x="119.618"
       y="102.61"
       width="4.73427"
       height="4.73427"
       id="rect246" />
    <rect
       x="173.611"
       y="218.264"
       width="4.73427"
       height="4.73427"
       id="rect248" />
    <rect
       x="227.604"
       y="343.38"
       width="4.73427"
       height="4.73427"
       id="rect250" />
    <rect
       x="281.597"
       y="413.395"
       width="4.73427"
       height="4.73427"
       id="rect252" />
    <rect
       x="335.591"
       y="456.626"
       width="4.73427"
       height="4.73427"
       id="rect254" />
    <rect
       x="389.584"
       y="467.948"
       width="4.73427"
       height="4.73427"
       id="rect256" />
    <rect
       x="443.577"
       y="477.799"
       width="4.73427"
       height="4.73427"
       id="rect258" />
  </g>
  <path
     d="M119.618,104.977h -24.6295"
     fill="none"
     stroke="black"
     id="path262" />
  <path
     d="M94.9882,106.161v -2.36714"
     fill="none"
     stroke="black"
     id="path264" />
  <path
     d="M124.352,104.977h 24.6295"
     fill="none"
     stroke="black"
     id="path266" />
  <path
     d="M148.981,106.161v -2.36714"
     fill="none"
     stroke="black"
     id="path268" />
  <path
     d="M173.611,220.632h -24.6295"
     fill="none"
     stroke="black"
     id="path270" />
  <path
     d="M148.981,221.815v -2.36714"
     fill="none"
     stroke="black"
     id="path272" />
  <path
     d="M178.345,220.632h 24.6295"
     fill="none"
     stroke="black"
     id="path274" />
  <path
     d="M202.975,221.815v -2.36714"
     fill="none"
     stroke="black"
     id="path276" />
  <path
     d="M227.604,345.747h -24.6295"
     fill="none"
     stroke="black"
     id="path278" />
  <path
     d="M202.975,346.931v -2.36714"
     fill="none"
     stroke="black"
     id="path280" />
  <path
     d="M232.338,345.747h 24.6295"
     fill="none"
     stroke="black"
     id="path282" />
  <path
     d="M256.968,346.931v -2.36714"
     fill="none"
     stroke="black"
     id="path284" />
  <path
     d="M281.597,415.762h -24.6295"
     fill="none"
     stroke="black"
     id="path286" />
  <path
     d="M256.968,416.946v -2.36714"
     fill="none"
     stroke="black"
     id="path288" />
  <path
     d="M286.332,415.762h 24.6295"
     fill="none"
     stroke="black"
     id="path290" />
  <path
     d="M310.961,416.946v -2.36714"
     fill="none"
     stroke="black"
     id="path292" />
  <path
     d="M335.591,458.993h -24.6295"
     fill="none"
     stroke="black"
     id="path294" />
  <path
     d="M310.961,460.176v -2.36714"
     fill="none"
     stroke="black"
     id="path296" />
  <path
     d="M340.325,458.993h 24.6295"
     fill="none"
     stroke="black"
     id="path298" />
  <path
     d="M364.954,460.176v -2.36714"
     fill="none"
     stroke="black"
     id="path300" />
  <path
     d="M389.584,470.315h -24.6295"
     fill="none"
     stroke="black"
     id="path302" />
  <path
     d="M364.954,471.499v -2.36714"
     fill="none"
     stroke="black"
     id="path304" />
  <path
     d="M394.318,470.315h 24.6295"
     fill="none"
     stroke="black"
     id="path306" />
  <path
     d="M418.948,471.499v -2.36714"
     fill="none"
     stroke="black"
     id="path308" />
  <path
     d="M443.577,480.166h -24.6295"
     fill="none"
     stroke="black"
     id="path310" />
  <path
     d="M418.948,481.349v -2.36714"
     fill="none"
     stroke="black"
     id="path312" />
  <path
     d="M448.311,480.166h 24.6295"
     fill="none"
     stroke="black"
     id="path314" />
  <path
     d="M472.941,481.349v -2.36714"
     fill="none"
     stroke="black"
     id="path316" />
  <path
     d="M119.618,332.027h -24.6295"
     fill="none"
     stroke="black"
     id="path318" />
  <path
     d="M94.9882,333.211v -2.36714"
     fill="none"
     stroke="black"
     id="path320" />
  <path
     d="M124.352,332.027h 24.6295"
     fill="none"
     stroke="black"
     id="path322" />
  <path
     d="M148.981,333.211v -2.36714"
     fill="none"
     stroke="black"
     id="path324" />
  <path
     d="M173.611,370.065h -24.6295"
     fill="none"
     stroke="black"
     id="path326" />
  <path
     d="M148.981,371.248v -2.36714"
     fill="none"
     stroke="black"
     id="path328" />
  <path
     d="M178.345,370.065h 24.6295"
     fill="none"
     stroke="black"
     id="path330" />
  <path
     d="M202.975,371.248v -2.36714"
     fill="none"
     stroke="black"
     id="path332" />
  <path
     d="M227.604,429.647h -24.6295"
     fill="none"
     stroke="black"
     id="path334" />
  <path
     d="M202.975,430.831v -2.36714"
     fill="none"
     stroke="black"
     id="path336" />
  <path
     d="M232.338,429.647h 24.6295"
     fill="none"
     stroke="black"
     id="path338" />
  <path
     d="M256.968,430.831v -2.36714"
     fill="none"
     stroke="black"
     id="path340" />
  <path
     d="M281.597,464.543h -24.6295"
     fill="none"
     stroke="black"
     id="path342" />
  <path
     d="M256.968,465.726v -2.36714"
     fill="none"
     stroke="black"
     id="path344" />
  <path
     d="M286.332,464.543h 24.6295"
     fill="none"
     stroke="black"
     id="path346" />
  <path
     d="M310.961,465.726v -2.36714"
     fill="none"
     stroke="black"
     id="path348" />
  <path
     d="M335.591,487.587h -24.6295"
     fill="none"
     stroke="black"
     id="path350" />
  <path
     d="M310.961,488.771v -2.36714"
     fill="none"
     stroke="black"
     id="path352" />
  <path
     d="M340.325,487.587h 24.6295"
     fill="none"
     stroke="black"
     id="path354" />
  <path
     d="M364.954,488.771v -2.36714"
     fill="none"
     stroke="black"
     id="path356" />
  <path
     d="M389.584,488.86h -24.6295"
     fill="none"
     stroke="black"
     id="path358" />
  <path
     d="M364.954,490.043v -2.36714"
     fill="none"
     stroke="black"
     id="path360" />
  <path
     d="M394.318,488.86h 24.6295"
     fill="none"
     stroke="black"
     id="path362" />
  <path
     d="M418.948,490.043v -2.36714"
     fill="none"
     stroke="black"
     id="path364" />
  <path
     d="M443.577,487.902h -24.6295"
     fill="none"
     stroke="black"
     id="path366" />
  <path
     d="M418.948,489.086v -2.36714"
     fill="none"
     stroke="black"
     id="path368" />
  <path
     d="M448.311,487.902h 24.6295"
     fill="none"
     stroke="black"
     id="path370" />
  <path
     d="M472.941,489.086v -2.36714"
     fill="none"
     stroke="black"
     id="path372" />
  <g
     fill="#0000ff"
     id="g388">
    <rect
       x="119.618"
       y="329.66"
       width="4.73427"
       height="4.73427"
       id="rect374" />
    <rect
       x="173.611"
       y="367.698"
       width="4.73427"
       height="4.73427"
       id="rect376" />
    <rect
       x="227.604"
       y="427.28"
       width="4.73427"
       height="4.73427"
       id="rect378" />
    <rect
       x="281.597"
       y="462.176"
       width="4.73427"
       height="4.73427"
       id="rect380" />
    <rect
       x="335.591"
       y="485.22"
       width="4.73427"
       height="4.73427"
       id="rect382" />
    <rect
       x="389.584"
       y="486.493"
       width="4.73427"
       height="4.73427"
       id="rect384" />
    <rect
       x="443.577"
       y="485.535"
       width="4.73427"
       height="4.73427"
       id="rect386" />
  </g>
  <path
     d="M119.618,485.118h -24.6295"
     fill="none"
     stroke="black"
     id="path390" />
  <path
     d="M94.9882,486.302v -2.36714"
     fill="none"
     stroke="black"
     id="path392" />
  <path
     d="M124.352,485.118h 24.6295"
     fill="none"
     stroke="black"
     id="path394" />
  <path
     d="M148.981,486.302v -2.36714"
     fill="none"
     stroke="black"
     id="path396" />
  <path
     d="M173.611,494.091h -24.6295"
     fill="none"
     stroke="black"
     id="path398" />
  <path
     d="M148.981,495.274v -2.36714"
     fill="none"
     stroke="black"
     id="path400" />
  <path
     d="M178.345,494.091h 24.6295"
     fill="none"
     stroke="black"
     id="path402" />
  <path
     d="M202.975,495.274v -2.36714"
     fill="none"
     stroke="black"
     id="path404" />
  <path
     d="M227.604,509.963h -24.6295"
     fill="none"
     stroke="black"
     id="path406" />
  <path
     d="M202.975,511.146v -2.36714"
     fill="none"
     stroke="black"
     id="path408" />
  <path
     d="M232.338,509.963h 24.6295"
     fill="none"
     stroke="black"
     id="path410" />
  <path
     d="M256.968,511.146v -2.36714"
     fill="none"
     stroke="black"
     id="path412" />
  <path
     d="M281.597,519.119h -24.6295"
     fill="none"
     stroke="black"
     id="path414" />
  <path
     d="M256.968,520.303v -2.36714"
     fill="none"
     stroke="black"
     id="path416" />
  <path
     d="M286.332,519.119h 24.6295"
     fill="none"
     stroke="black"
     id="path418" />
  <path
     d="M310.961,520.303v -2.36714"
     fill="none"
     stroke="black"
     id="path420" />
  <path
     d="M335.591,525.262h -24.6295"
     fill="none"
     stroke="black"
     id="path422" />
  <path
     d="M310.961,526.445v -2.36714"
     fill="none"
     stroke="black"
     id="path424" />
  <path
     d="M340.325,525.262h 24.6295"
     fill="none"
     stroke="black"
     id="path426" />
  <path
     d="M364.954,526.445v -2.36714"
     fill="none"
     stroke="black"
     id="path428" />
  <path
     d="M389.584,522.252h -24.6295"
     fill="none"
     stroke="black"
     id="path430" />
  <path
     d="M364.954,523.436v -2.36714"
     fill="none"
     stroke="black"
     id="path432" />
  <path
     d="M394.318,522.252h 24.6295"
     fill="none"
     stroke="black"
     id="path434" />
  <path
     d="M418.948,523.436v -2.36714"
     fill="none"
     stroke="black"
     id="path436" />
  <path
     d="M443.577,513.983h -24.6295"
     fill="none"
     stroke="black"
     id="path438" />
  <path
     d="M418.948,515.166v -2.36714"
     fill="none"
     stroke="black"
     id="path440" />
  <path
     d="M448.311,513.983h 24.6295"
     fill="none"
     stroke="black"
     id="path442" />
  <path
     d="M472.941,515.166v -2.36714"
     fill="none"
     stroke="black"
     id="path444" />
  <g
     fill="#00ff00"
     id="g460">
    <rect
       x="119.618"
       y="482.751"
       width="4.73427"
       height="4.73427"
       id="rect446" />
    <rect
       x="173.611"
       y="491.723"
       width="4.73427"
       height="4.73427"
       id="rect448" />
    <rect
       x="227.604"
       y="507.596"
       width="4.73427"
       height="4.73427"
       id="rect450" />
    <rect
       x="281.597"
       y="516.752"
       width="4.73427"
       height="4.73427"
       id="rect452" />
    <rect
       x="335.591"
       y="522.894"
       width="4.73427"
       height="4.73427"
       id="rect454" />
    <rect
       x="389.584"
       y="519.885"
       width="4.73427"
       height="4.73427"
       id="rect456" />
    <rect
       x="443.577"
       y="511.615"
       width="4.73427"
       height="4.73427"
       id="rect458" />
  </g>
  <rect
     x="396.995"
     y="72.7894"
     width="105.338"
     height="50.3016"
     fill="white"
     id="rect462" />
  <path
     d="M396.995,123.091h 105.338"
     fill="none"
     stroke="black"
     id="path464" />
  <path
     d="M502.333,123.091v -50.3016"
     fill="none"
     stroke="black"
     id="path466" />
  <path
     d="M502.333,72.7894h -105.338"
     fill="none"
     stroke="black"
     id="path468" />
  <path
     d="M396.995,72.7894v 50.3016"
     fill="none"
     stroke="black"
     id="path470" />
  <text
     xml:space="preserve"
     x="423.034"
     y="84.6251"
     fill="black"
     font-size="11.0491"
     font-family="Helvetica"
     id="text472">DC</text>
  <path
     d="M400.945,81.173h 18.4341"
     fill="none"
     stroke="black"
     id="path474" />
  <g
     fill="#ff0000"
     id="g478">
    <rect
       x="407.795"
       y="78.8059"
       width="4.73427"
       height="4.73427"
       id="rect476" />
  </g>
  <text
     xml:space="preserve"
     x="423.034"
     y="101.195"
     fill="black"
     font-size="11.0491"
     font-family="Helvetica"
     id="text480">FMT - 2 layers</text>
  <path
     d="M400.945,97.9403h 18.4341"
     fill="none"
     stroke="black"
     id="path482" />
  <g
     fill="#0000ff"
     id="g486">
    <rect
       x="407.795"
       y="95.5731"
       width="4.73427"
       height="4.73427"
       id="rect484" />
  </g>
  <text
     xml:space="preserve"
     x="423.034"
     y="118.357"
     fill="black"
     font-size="11.0491"
     font-family="Helvetica"
     id="text488">FMT - 3 layers</text>
  <path
     d="M400.945,114.707h 18.4341"
     fill="none"
     stroke="black"
     id="path490" />
  <g
     fill="#00ff00"
     id="g494">
    <rect
       x="407.795"
       y="112.34"
       width="4.73427"
       height="4.73427"
       id="rect492" />
  </g>
  <text
     xml:space="preserve"
     x="262.66"
     y="26.6303"
     fill="black"
     font-size="18.1326"
     font-family="Helvetica"
     id="text496"> (GeV)</text>
  <text
     xml:space="preserve"
     x="253.192"
     y="26.6303"
     fill="black"
     font-size="18.1326"
     font-family="Times"
     id="text498">ν</text>
</svg>
