<?xml version="1.0" encoding="UTF-8" standalone="no"?>
<svg
   width="567.429"
   height="608.262"
   viewBox="0 0 567.429 608.262"
   shape-rendering="crispEdges"
   version="1.1"
   id="svg576"
   sodipodi:docname="int_q2.svg"
   inkscape:export-filename="int_q2.pdf"
   inkscape:export-xdpi="96"
   inkscape:export-ydpi="96"
   inkscape:version="1.2.2 (1:1.2.2+202305151914+b0a8486541)"
   xmlns:inkscape="http://www.inkscape.org/namespaces/inkscape"
   xmlns:sodipodi="http://sodipodi.sourceforge.net/DTD/sodipodi-0.dtd"
   xmlns="http://www.w3.org/2000/svg"
   xmlns:svg="http://www.w3.org/2000/svg">
  <sodipodi:namedview
     id="namedview578"
     pagecolor="#ffffff"
     bordercolor="#666666"
     borderopacity="1.0"
     inkscape:showpageshadow="2"
     inkscape:pageopacity="0.0"
     inkscape:pagecheckerboard="0"
     inkscape:deskcolor="#d1d1d1"
     showgrid="false"
     inkscape:zoom="0.38799069"
     inkscape:cx="283.51196"
     inkscape:cy="304.13101"
     inkscape:window-width="1920"
     inkscape:window-height="1051"
     inkscape:window-x="0"
     inkscape:window-y="0"
     inkscape:window-maximized="1"
     inkscape:current-layer="svg576" />
  <title
     id="title2">
/home/twig/code/rge-analysis/macros/int_q2.svg
</title>
  <desc
     id="desc4">
Creator: ROOT Version 6.28/00
CreationDate: Tue Jun 27 11:55:15 2023</desc>
  <defs
     id="defs6" />
  <rect
     x="0.5"
     y="0"
     width="566.929"
     height="607.762"
     fill="white"
     id="rect8" />
  <rect
     x="57.1929"
     y="60.7762"
     width="453.543"
     height="486.21"
     fill="white"
     id="rect10" />
  <rect
     x="57.1929"
     y="60.7762"
     width="453.543"
     height="486.21"
     fill="none"
     stroke="black"
     id="rect12" />
  <rect
     x="57.1929"
     y="60.7762"
     width="453.543"
     height="486.21"
     fill="white"
     id="rect14" />
  <rect
     x="57.1929"
     y="60.7762"
     width="453.543"
     height="486.21"
     fill="none"
     stroke="black"
     id="rect16" />
  <path
     d="M57.1929,546.986h 453.543"
     fill="none"
     stroke="black"
     id="path18" />
  <path
     d="M57.1929,60.7762v 486.21"
     fill="none"
     stroke="black"
     stroke-dasharray=" 1, 2"
     id="path20" />
  <path
     d="M132.783,60.7762v 486.21"
     fill="none"
     stroke="black"
     stroke-dasharray=" 1, 2"
     id="path22" />
  <path
     d="M208.374,60.7762v 486.21"
     fill="none"
     stroke="black"
     stroke-dasharray=" 1, 2"
     id="path24" />
  <path
     d="M283.965,60.7762v 486.21"
     fill="none"
     stroke="black"
     stroke-dasharray=" 1, 2"
     id="path26" />
  <path
     d="M359.555,60.7762v 486.21"
     fill="none"
     stroke="black"
     stroke-dasharray=" 1, 2"
     id="path28" />
  <path
     d="M435.146,60.7762v 486.21"
     fill="none"
     stroke="black"
     stroke-dasharray=" 1, 2"
     id="path30" />
  <path
     d="M510.736,60.7762v 486.21"
     fill="none"
     stroke="black"
     stroke-dasharray=" 1, 2"
     id="path32" />
  <path
     d="M510.736,60.7762v 486.21"
     fill="none"
     stroke="black"
     stroke-dasharray=" 1, 2"
     id="path34" />
  <path
     d="M57.1929,546.986v -486.21"
     fill="none"
     stroke="black"
     id="path36" />
  <path
     d="M510.736,486.893h -453.543"
     fill="none"
     stroke="black"
     stroke-dasharray=" 1, 2"
     id="path38" />
  <path
     d="M510.736,374.126h -453.543"
     fill="none"
     stroke="black"
     stroke-dasharray=" 1, 2"
     id="path40" />
  <path
     d="M510.736,261.36h -453.543"
     fill="none"
     stroke="black"
     stroke-dasharray=" 1, 2"
     id="path42" />
  <path
     d="M510.736,148.593h -453.543"
     fill="none"
     stroke="black"
     stroke-dasharray=" 1, 2"
     id="path44" />
  <path
     d="M57.1929,546.986h 453.543"
     fill="none"
     stroke="black"
     id="path46" />
  <path
     d="M57.1929,532.4v 14.5863"
     fill="none"
     stroke="black"
     id="path48" />
  <path
     d="M76.0906,539.693v 7.29315"
     fill="none"
     stroke="black"
     id="path50" />
  <path
     d="M94.9882,539.693v 7.29315"
     fill="none"
     stroke="black"
     id="path52" />
  <path
     d="M113.886,539.693v 7.29315"
     fill="none"
     stroke="black"
     id="path54" />
  <path
     d="M132.783,532.4v 14.5863"
     fill="none"
     stroke="black"
     id="path56" />
  <path
     d="M151.681,539.693v 7.29315"
     fill="none"
     stroke="black"
     id="path58" />
  <path
     d="M170.579,539.693v 7.29315"
     fill="none"
     stroke="black"
     id="path60" />
  <path
     d="M189.476,539.693v 7.29315"
     fill="none"
     stroke="black"
     id="path62" />
  <path
     d="M208.374,532.4v 14.5863"
     fill="none"
     stroke="black"
     id="path64" />
  <path
     d="M227.272,539.693v 7.29315"
     fill="none"
     stroke="black"
     id="path66" />
  <path
     d="M246.169,539.693v 7.29315"
     fill="none"
     stroke="black"
     id="path68" />
  <path
     d="M265.067,539.693v 7.29315"
     fill="none"
     stroke="black"
     id="path70" />
  <path
     d="M283.965,532.4v 14.5863"
     fill="none"
     stroke="black"
     id="path72" />
  <path
     d="M302.862,539.693v 7.29315"
     fill="none"
     stroke="black"
     id="path74" />
  <path
     d="M321.76,539.693v 7.29315"
     fill="none"
     stroke="black"
     id="path76" />
  <path
     d="M340.657,539.693v 7.29315"
     fill="none"
     stroke="black"
     id="path78" />
  <path
     d="M359.555,532.4v 14.5863"
     fill="none"
     stroke="black"
     id="path80" />
  <path
     d="M378.453,539.693v 7.29315"
     fill="none"
     stroke="black"
     id="path82" />
  <path
     d="M397.35,539.693v 7.29315"
     fill="none"
     stroke="black"
     id="path84" />
  <path
     d="M416.248,539.693v 7.29315"
     fill="none"
     stroke="black"
     id="path86" />
  <path
     d="M435.146,532.4v 14.5863"
     fill="none"
     stroke="black"
     id="path88" />
  <path
     d="M454.043,539.693v 7.29315"
     fill="none"
     stroke="black"
     id="path90" />
  <path
     d="M472.941,539.693v 7.29315"
     fill="none"
     stroke="black"
     id="path92" />
  <path
     d="M491.839,539.693v 7.29315"
     fill="none"
     stroke="black"
     id="path94" />
  <path
     d="M510.736,532.4v 14.5863"
     fill="none"
     stroke="black"
     id="path96" />
  <path
     d="M510.736,532.4v 14.5863"
     fill="none"
     stroke="black"
     id="path98" />
  <text
     xml:space="preserve"
     x="51.9852"
     y="566.929"
     fill="black"
     font-size="18.7041"
     font-family="Helvetica"
     id="text100">0</text>
  <text
     xml:space="preserve"
     x="127.734"
     y="566.929"
     fill="black"
     font-size="18.7041"
     font-family="Helvetica"
     id="text102">2</text>
  <text
     xml:space="preserve"
     x="202.89"
     y="566.929"
     fill="black"
     font-size="18.7041"
     font-family="Helvetica"
     id="text104">4</text>
  <text
     xml:space="preserve"
     x="279.23"
     y="566.929"
     fill="black"
     font-size="18.7041"
     font-family="Helvetica"
     id="text106">6</text>
  <text
     xml:space="preserve"
     x="354.387"
     y="566.929"
     fill="black"
     font-size="18.7041"
     font-family="Helvetica"
     id="text108">8</text>
  <text
     xml:space="preserve"
     x="424.809"
     y="566.929"
     fill="black"
     font-size="18.7041"
     font-family="Helvetica"
     id="text110">10</text>
  <text
     xml:space="preserve"
     x="500.558"
     y="566.929"
     fill="black"
     font-size="18.7041"
     font-family="Helvetica"
     id="text112">12</text>
  <text
     xml:space="preserve"
     x="505.884"
     y="587.05"
     fill="black"
     font-size="18.7041"
     font-family="Helvetica"
     id="text114">)</text>
  <text
     xml:space="preserve"
     x="499.374"
     y="579.357"
     fill="black"
     font-size="12.6361"
     font-family="Helvetica"
     id="text116">2</text>
  <text
     xml:space="preserve"
     x="451.439"
     y="587.05"
     fill="black"
     font-size="18.7041"
     font-family="Helvetica"
     id="text118"> (GeV</text>
  <text
     xml:space="preserve"
     x="444.93"
     y="579.357"
     fill="black"
     font-size="12.6361"
     font-family="Helvetica"
     id="text120">2</text>
  <text
     xml:space="preserve"
     x="431.319"
     y="587.05"
     fill="black"
     font-size="18.7041"
     font-family="Helvetica"
     id="text122">Q</text>
  <path
     d="M57.1929,546.986v -486.21"
     fill="none"
     stroke="black"
     id="path124" />
  <path
     d="M63.9961,545.856h -6.80315"
     fill="none"
     stroke="black"
     id="path126" />
  <path
     d="M63.9961,531.767h -6.80315"
     fill="none"
     stroke="black"
     id="path128" />
  <path
     d="M63.9961,520.839h -6.80315"
     fill="none"
     stroke="black"
     id="path130" />
  <path
     d="M63.9961,511.91h -6.80315"
     fill="none"
     stroke="black"
     id="path132" />
  <path
     d="M63.9961,504.361h -6.80315"
     fill="none"
     stroke="black"
     id="path134" />
  <path
     d="M63.9961,497.821h -6.80315"
     fill="none"
     stroke="black"
     id="path136" />
  <path
     d="M63.9961,492.053h -6.80315"
     fill="none"
     stroke="black"
     id="path138" />
  <path
     d="M70.7992,486.893h -13.6063"
     fill="none"
     stroke="black"
     id="path140" />
  <text
     xml:space="preserve"
     x="46.0674"
     y="486.446"
     fill="black"
     font-size="12.6361"
     font-family="Helvetica"
     id="text142">3</text>
  <text
     xml:space="preserve"
     x="26.5385"
     y="494.731"
     fill="black"
     font-size="18.7041"
     font-family="Helvetica"
     id="text144">10</text>
  <path
     d="M63.9961,452.947h -6.80315"
     fill="none"
     stroke="black"
     id="path146" />
  <path
     d="M63.9961,433.09h -6.80315"
     fill="none"
     stroke="black"
     id="path148" />
  <path
     d="M63.9961,419.001h -6.80315"
     fill="none"
     stroke="black"
     id="path150" />
  <path
     d="M63.9961,408.072h -6.80315"
     fill="none"
     stroke="black"
     id="path152" />
  <path
     d="M63.9961,399.143h -6.80315"
     fill="none"
     stroke="black"
     id="path154" />
  <path
     d="M63.9961,391.594h -6.80315"
     fill="none"
     stroke="black"
     id="path156" />
  <path
     d="M63.9961,385.054h -6.80315"
     fill="none"
     stroke="black"
     id="path158" />
  <path
     d="M63.9961,379.286h -6.80315"
     fill="none"
     stroke="black"
     id="path160" />
  <path
     d="M70.7992,374.126h -13.6063"
     fill="none"
     stroke="black"
     id="path162" />
  <text
     xml:space="preserve"
     x="46.0674"
     y="374.599"
     fill="black"
     font-size="12.6361"
     font-family="Helvetica"
     id="text164">4</text>
  <text
     xml:space="preserve"
     x="26.5385"
     y="382.292"
     fill="black"
     font-size="18.7041"
     font-family="Helvetica"
     id="text166">10</text>
  <path
     d="M63.9961,340.18h -6.80315"
     fill="none"
     stroke="black"
     id="path168" />
  <path
     d="M63.9961,320.323h -6.80315"
     fill="none"
     stroke="black"
     id="path170" />
  <path
     d="M63.9961,306.234h -6.80315"
     fill="none"
     stroke="black"
     id="path172" />
  <path
     d="M63.9961,295.306h -6.80315"
     fill="none"
     stroke="black"
     id="path174" />
  <path
     d="M63.9961,286.377h -6.80315"
     fill="none"
     stroke="black"
     id="path176" />
  <path
     d="M63.9961,278.827h -6.80315"
     fill="none"
     stroke="black"
     id="path178" />
  <path
     d="M63.9961,272.288h -6.80315"
     fill="none"
     stroke="black"
     id="path180" />
  <path
     d="M63.9961,266.519h -6.80315"
     fill="none"
     stroke="black"
     id="path182" />
  <path
     d="M70.7992,261.36h -13.6063"
     fill="none"
     stroke="black"
     id="path184" />
  <text
     xml:space="preserve"
     x="46.0674"
     y="260.977"
     fill="black"
     font-size="12.6361"
     font-family="Helvetica"
     id="text186">5</text>
  <text
     xml:space="preserve"
     x="26.5385"
     y="269.262"
     fill="black"
     font-size="18.7041"
     font-family="Helvetica"
     id="text188">10</text>
  <path
     d="M63.9961,227.413h -6.80315"
     fill="none"
     stroke="black"
     id="path190" />
  <path
     d="M63.9961,207.556h -6.80315"
     fill="none"
     stroke="black"
     id="path192" />
  <path
     d="M63.9961,193.467h -6.80315"
     fill="none"
     stroke="black"
     id="path194" />
  <path
     d="M63.9961,182.539h -6.80315"
     fill="none"
     stroke="black"
     id="path196" />
  <path
     d="M63.9961,173.61h -6.80315"
     fill="none"
     stroke="black"
     id="path198" />
  <path
     d="M63.9961,166.061h -6.80315"
     fill="none"
     stroke="black"
     id="path200" />
  <path
     d="M63.9961,159.521h -6.80315"
     fill="none"
     stroke="black"
     id="path202" />
  <path
     d="M63.9961,153.753h -6.80315"
     fill="none"
     stroke="black"
     id="path204" />
  <path
     d="M70.7992,148.593h -13.6063"
     fill="none"
     stroke="black"
     id="path206" />
  <text
     xml:space="preserve"
     x="46.0674"
     y="148.538"
     fill="black"
     font-size="12.6361"
     font-family="Helvetica"
     id="text208">6</text>
  <text
     xml:space="preserve"
     x="26.5385"
     y="156.823"
     fill="black"
     font-size="18.7041"
     font-family="Helvetica"
     id="text210">10</text>
  <path
     d="M63.9961,114.647h -6.80315"
     fill="none"
     stroke="black"
     id="path212" />
  <path
     d="M63.9961,94.7895h -6.80315"
     fill="none"
     stroke="black"
     id="path214" />
  <path
     d="M63.9961,80.7005h -6.80315"
     fill="none"
     stroke="black"
     id="path216" />
  <path
     d="M63.9961,69.7723h -6.80315"
     fill="none"
     stroke="black"
     id="path218" />
  <path
     d="M63.9961,60.8433h -6.80315"
     fill="none"
     stroke="black"
     id="path220" />
  <g
     fill="#ff0000"
     id="g242">
    <rect
       x="111.519"
       y="75.3822"
       width="4.73427"
       height="4.73427"
       id="rect222" />
    <rect
       x="149.314"
       y="153.719"
       width="4.73427"
       height="4.73427"
       id="rect224" />
    <rect
       x="187.109"
       y="214.111"
       width="4.73427"
       height="4.73427"
       id="rect226" />
    <rect
       x="224.905"
       y="262.545"
       width="4.73427"
       height="4.73427"
       id="rect228" />
    <rect
       x="262.7"
       y="304.888"
       width="4.73427"
       height="4.73427"
       id="rect230" />
    <rect
       x="300.495"
       y="342.789"
       width="4.73427"
       height="4.73427"
       id="rect232" />
    <rect
       x="338.29"
       y="384.195"
       width="4.73427"
       height="4.73427"
       id="rect234" />
    <rect
       x="376.086"
       y="420.766"
       width="4.73427"
       height="4.73427"
       id="rect236" />
    <rect
       x="413.881"
       y="467.227"
       width="4.73427"
       height="4.73427"
       id="rect238" />
    <rect
       x="451.676"
       y="527.646"
       width="4.73427"
       height="4.73427"
       id="rect240" />
  </g>
  <path
     d="M111.519,77.7493h -16.5305"
     fill="none"
     stroke="black"
     id="path244" />
  <path
     d="M94.9882,78.9329v -2.36714"
     fill="none"
     stroke="black"
     id="path246" />
  <path
     d="M116.253,77.7493h 16.5305"
     fill="none"
     stroke="black"
     id="path248" />
  <path
     d="M132.783,78.9329v -2.36714"
     fill="none"
     stroke="black"
     id="path250" />
  <path
     d="M149.314,156.086h -16.5305"
     fill="none"
     stroke="black"
     id="path252" />
  <path
     d="M132.783,157.27v -2.36714"
     fill="none"
     stroke="black"
     id="path254" />
  <path
     d="M154.048,156.086h 16.5305"
     fill="none"
     stroke="black"
     id="path256" />
  <path
     d="M170.579,157.27v -2.36714"
     fill="none"
     stroke="black"
     id="path258" />
  <path
     d="M187.109,216.478h -16.5305"
     fill="none"
     stroke="black"
     id="path260" />
  <path
     d="M170.579,217.662v -2.36714"
     fill="none"
     stroke="black"
     id="path262" />
  <path
     d="M191.844,216.478h 16.5305"
     fill="none"
     stroke="black"
     id="path264" />
  <path
     d="M208.374,217.662v -2.36714"
     fill="none"
     stroke="black"
     id="path266" />
  <path
     d="M224.905,264.912h -16.5305"
     fill="none"
     stroke="black"
     id="path268" />
  <path
     d="M208.374,266.095v -2.36714"
     fill="none"
     stroke="black"
     id="path270" />
  <path
     d="M229.639,264.912h 16.5305"
     fill="none"
     stroke="black"
     id="path272" />
  <path
     d="M246.169,266.095v -2.36714"
     fill="none"
     stroke="black"
     id="path274" />
  <path
     d="M262.7,307.255h -16.5305"
     fill="none"
     stroke="black"
     id="path276" />
  <path
     d="M246.169,308.438v -2.36714"
     fill="none"
     stroke="black"
     id="path278" />
  <path
     d="M267.434,307.255h 16.5305"
     fill="none"
     stroke="black"
     id="path280" />
  <path
     d="M283.965,308.438v -2.36714"
     fill="none"
     stroke="black"
     id="path282" />
  <path
     d="M300.495,345.156h -16.5305"
     fill="none"
     stroke="black"
     id="path284" />
  <path
     d="M283.965,346.34v -2.36714"
     fill="none"
     stroke="black"
     id="path286" />
  <path
     d="M305.229,345.156h 16.5305"
     fill="none"
     stroke="black"
     id="path288" />
  <path
     d="M321.76,346.34v -2.36714"
     fill="none"
     stroke="black"
     id="path290" />
  <path
     d="M338.29,386.563h -16.5305"
     fill="none"
     stroke="black"
     id="path292" />
  <path
     d="M321.76,387.746v -2.36714"
     fill="none"
     stroke="black"
     id="path294" />
  <path
     d="M343.025,386.563h 16.5305"
     fill="none"
     stroke="black"
     id="path296" />
  <path
     d="M359.555,387.746v -2.36714"
     fill="none"
     stroke="black"
     id="path298" />
  <path
     d="M376.086,423.133h -16.5305"
     fill="none"
     stroke="black"
     id="path300" />
  <path
     d="M359.555,424.317v -2.36714"
     fill="none"
     stroke="black"
     id="path302" />
  <path
     d="M380.82,423.133h 16.5305"
     fill="none"
     stroke="black"
     id="path304" />
  <path
     d="M397.35,424.317v -2.36714"
     fill="none"
     stroke="black"
     id="path306" />
  <path
     d="M413.881,469.595h -16.5305"
     fill="none"
     stroke="black"
     id="path308" />
  <path
     d="M397.35,470.778v -2.36714"
     fill="none"
     stroke="black"
     id="path310" />
  <path
     d="M418.615,469.595h 16.5305"
     fill="none"
     stroke="black"
     id="path312" />
  <path
     d="M435.146,470.778v -2.36714"
     fill="none"
     stroke="black"
     id="path314" />
  <path
     d="M451.676,530.013h -16.5305"
     fill="none"
     stroke="black"
     id="path316" />
  <path
     d="M435.146,531.196v -2.36714"
     fill="none"
     stroke="black"
     id="path318" />
  <path
     d="M456.41,530.013h 16.5305"
     fill="none"
     stroke="black"
     id="path320" />
  <path
     d="M472.941,531.196v -2.36714"
     fill="none"
     stroke="black"
     id="path322" />
  <path
     d="M454.043,532.38v 0.0991651"
     fill="none"
     stroke="black"
     id="path324" />
  <path
     d="M452.86,532.479h 2.36714"
     fill="none"
     stroke="black"
     id="path326" />
  <path
     d="M111.519,101.339h -16.5305"
     fill="none"
     stroke="black"
     id="path328" />
  <path
     d="M94.9882,102.522v -2.36714"
     fill="none"
     stroke="black"
     id="path330" />
  <path
     d="M116.253,101.339h 16.5305"
     fill="none"
     stroke="black"
     id="path332" />
  <path
     d="M132.783,102.522v -2.36714"
     fill="none"
     stroke="black"
     id="path334" />
  <path
     d="M149.314,175.382h -16.5305"
     fill="none"
     stroke="black"
     id="path336" />
  <path
     d="M132.783,176.566v -2.36714"
     fill="none"
     stroke="black"
     id="path338" />
  <path
     d="M154.048,175.382h 16.5305"
     fill="none"
     stroke="black"
     id="path340" />
  <path
     d="M170.579,176.566v -2.36714"
     fill="none"
     stroke="black"
     id="path342" />
  <path
     d="M187.109,230.185h -16.5305"
     fill="none"
     stroke="black"
     id="path344" />
  <path
     d="M170.579,231.368v -2.36714"
     fill="none"
     stroke="black"
     id="path346" />
  <path
     d="M191.844,230.185h 16.5305"
     fill="none"
     stroke="black"
     id="path348" />
  <path
     d="M208.374,231.368v -2.36714"
     fill="none"
     stroke="black"
     id="path350" />
  <path
     d="M224.905,271.653h -16.5305"
     fill="none"
     stroke="black"
     id="path352" />
  <path
     d="M208.374,272.837v -2.36714"
     fill="none"
     stroke="black"
     id="path354" />
  <path
     d="M229.639,271.653h 16.5305"
     fill="none"
     stroke="black"
     id="path356" />
  <path
     d="M246.169,272.837v -2.36714"
     fill="none"
     stroke="black"
     id="path358" />
  <path
     d="M262.7,304.686h -16.5305"
     fill="none"
     stroke="black"
     id="path360" />
  <path
     d="M246.169,305.87v -2.36714"
     fill="none"
     stroke="black"
     id="path362" />
  <path
     d="M267.434,304.686h 16.5305"
     fill="none"
     stroke="black"
     id="path364" />
  <path
     d="M283.965,305.87v -2.36714"
     fill="none"
     stroke="black"
     id="path366" />
  <path
     d="M300.495,332.129h -16.5305"
     fill="none"
     stroke="black"
     id="path368" />
  <path
     d="M283.965,333.313v -2.36714"
     fill="none"
     stroke="black"
     id="path370" />
  <path
     d="M305.229,332.129h 16.5305"
     fill="none"
     stroke="black"
     id="path372" />
  <path
     d="M321.76,333.313v -2.36714"
     fill="none"
     stroke="black"
     id="path374" />
  <path
     d="M338.29,359.788h -16.5305"
     fill="none"
     stroke="black"
     id="path376" />
  <path
     d="M321.76,360.971v -2.36714"
     fill="none"
     stroke="black"
     id="path378" />
  <path
     d="M343.025,359.788h 16.5305"
     fill="none"
     stroke="black"
     id="path380" />
  <path
     d="M359.555,360.971v -2.36714"
     fill="none"
     stroke="black"
     id="path382" />
  <path
     d="M376.086,381.906h -16.5305"
     fill="none"
     stroke="black"
     id="path384" />
  <path
     d="M359.555,383.09v -2.36714"
     fill="none"
     stroke="black"
     id="path386" />
  <path
     d="M380.82,381.906h 16.5305"
     fill="none"
     stroke="black"
     id="path388" />
  <path
     d="M397.35,383.09v -2.36714"
     fill="none"
     stroke="black"
     id="path390" />
  <path
     d="M413.881,414.785h -16.5305"
     fill="none"
     stroke="black"
     id="path392" />
  <path
     d="M397.35,415.969v -2.36714"
     fill="none"
     stroke="black"
     id="path394" />
  <path
     d="M418.615,414.785h 16.5305"
     fill="none"
     stroke="black"
     id="path396" />
  <path
     d="M435.146,415.969v -2.36714"
     fill="none"
     stroke="black"
     id="path398" />
  <path
     d="M451.676,431.21h -16.5305"
     fill="none"
     stroke="black"
     id="path400" />
  <path
     d="M435.146,432.393v -2.36714"
     fill="none"
     stroke="black"
     id="path402" />
  <path
     d="M456.41,431.21h 16.5305"
     fill="none"
     stroke="black"
     id="path404" />
  <path
     d="M472.941,432.393v -2.36714"
     fill="none"
     stroke="black"
     id="path406" />
  <g
     fill="#0000ff"
     id="g428">
    <rect
       x="111.519"
       y="98.9716"
       width="4.73427"
       height="4.73427"
       id="rect408" />
    <rect
       x="149.314"
       y="173.015"
       width="4.73427"
       height="4.73427"
       id="rect410" />
    <rect
       x="187.109"
       y="227.818"
       width="4.73427"
       height="4.73427"
       id="rect412" />
    <rect
       x="224.905"
       y="269.286"
       width="4.73427"
       height="4.73427"
       id="rect414" />
    <rect
       x="262.7"
       y="302.319"
       width="4.73427"
       height="4.73427"
       id="rect416" />
    <rect
       x="300.495"
       y="329.762"
       width="4.73427"
       height="4.73427"
       id="rect418" />
    <rect
       x="338.29"
       y="357.42"
       width="4.73427"
       height="4.73427"
       id="rect420" />
    <rect
       x="376.086"
       y="379.539"
       width="4.73427"
       height="4.73427"
       id="rect422" />
    <rect
       x="413.881"
       y="412.418"
       width="4.73427"
       height="4.73427"
       id="rect424" />
    <rect
       x="451.676"
       y="428.843"
       width="4.73427"
       height="4.73427"
       id="rect426" />
  </g>
  <path
     d="M111.519,153.095h -16.5305"
     fill="none"
     stroke="black"
     id="path430" />
  <path
     d="M94.9882,154.278v -2.36714"
     fill="none"
     stroke="black"
     id="path432" />
  <path
     d="M116.253,153.095h 16.5305"
     fill="none"
     stroke="black"
     id="path434" />
  <path
     d="M132.783,154.278v -2.36714"
     fill="none"
     stroke="black"
     id="path436" />
  <path
     d="M149.314,223.882h -16.5305"
     fill="none"
     stroke="black"
     id="path438" />
  <path
     d="M132.783,225.065v -2.36714"
     fill="none"
     stroke="black"
     id="path440" />
  <path
     d="M154.048,223.882h 16.5305"
     fill="none"
     stroke="black"
     id="path442" />
  <path
     d="M170.579,225.065v -2.36714"
     fill="none"
     stroke="black"
     id="path444" />
  <path
     d="M187.109,271.688h -16.5305"
     fill="none"
     stroke="black"
     id="path446" />
  <path
     d="M170.579,272.871v -2.36714"
     fill="none"
     stroke="black"
     id="path448" />
  <path
     d="M191.844,271.688h 16.5305"
     fill="none"
     stroke="black"
     id="path450" />
  <path
     d="M208.374,272.871v -2.36714"
     fill="none"
     stroke="black"
     id="path452" />
  <path
     d="M224.905,302.747h -16.5305"
     fill="none"
     stroke="black"
     id="path454" />
  <path
     d="M208.374,303.931v -2.36714"
     fill="none"
     stroke="black"
     id="path456" />
  <path
     d="M229.639,302.747h 16.5305"
     fill="none"
     stroke="black"
     id="path458" />
  <path
     d="M246.169,303.931v -2.36714"
     fill="none"
     stroke="black"
     id="path460" />
  <path
     d="M262.7,319.468h -16.5305"
     fill="none"
     stroke="black"
     id="path462" />
  <path
     d="M246.169,320.652v -2.36714"
     fill="none"
     stroke="black"
     id="path464" />
  <path
     d="M267.434,319.468h 16.5305"
     fill="none"
     stroke="black"
     id="path466" />
  <path
     d="M283.965,320.652v -2.36714"
     fill="none"
     stroke="black"
     id="path468" />
  <path
     d="M300.495,325.231h -16.5305"
     fill="none"
     stroke="black"
     id="path470" />
  <path
     d="M283.965,326.415v -2.36714"
     fill="none"
     stroke="black"
     id="path472" />
  <path
     d="M305.229,325.231h 16.5305"
     fill="none"
     stroke="black"
     id="path474" />
  <path
     d="M321.76,326.415v -2.36714"
     fill="none"
     stroke="black"
     id="path476" />
  <path
     d="M338.29,323.558h -16.5305"
     fill="none"
     stroke="black"
     id="path478" />
  <path
     d="M321.76,324.742v -2.36714"
     fill="none"
     stroke="black"
     id="path480" />
  <path
     d="M343.025,323.558h 16.5305"
     fill="none"
     stroke="black"
     id="path482" />
  <path
     d="M359.555,324.742v -2.36714"
     fill="none"
     stroke="black"
     id="path484" />
  <path
     d="M376.086,318.824h -16.5305"
     fill="none"
     stroke="black"
     id="path486" />
  <path
     d="M359.555,320.008v -2.36714"
     fill="none"
     stroke="black"
     id="path488" />
  <path
     d="M380.82,318.824h 16.5305"
     fill="none"
     stroke="black"
     id="path490" />
  <path
     d="M397.35,320.008v -2.36714"
     fill="none"
     stroke="black"
     id="path492" />
  <path
     d="M413.881,326.79h -16.5305"
     fill="none"
     stroke="black"
     id="path494" />
  <path
     d="M397.35,327.973v -2.36714"
     fill="none"
     stroke="black"
     id="path496" />
  <path
     d="M418.615,326.79h 16.5305"
     fill="none"
     stroke="black"
     id="path498" />
  <path
     d="M435.146,327.973v -2.36714"
     fill="none"
     stroke="black"
     id="path500" />
  <path
     d="M451.676,328.188h -16.5305"
     fill="none"
     stroke="black"
     id="path502" />
  <path
     d="M435.146,329.372v -2.36714"
     fill="none"
     stroke="black"
     id="path504" />
  <path
     d="M456.41,328.188h 16.5305"
     fill="none"
     stroke="black"
     id="path506" />
  <path
     d="M472.941,329.372v -2.36714"
     fill="none"
     stroke="black"
     id="path508" />
  <g
     fill="#00ff00"
     id="g530">
    <rect
       x="111.519"
       y="150.728"
       width="4.73427"
       height="4.73427"
       id="rect510" />
    <rect
       x="149.314"
       y="221.515"
       width="4.73427"
       height="4.73427"
       id="rect512" />
    <rect
       x="187.109"
       y="269.32"
       width="4.73427"
       height="4.73427"
       id="rect514" />
    <rect
       x="224.905"
       y="300.38"
       width="4.73427"
       height="4.73427"
       id="rect516" />
    <rect
       x="262.7"
       y="317.101"
       width="4.73427"
       height="4.73427"
       id="rect518" />
    <rect
       x="300.495"
       y="322.864"
       width="4.73427"
       height="4.73427"
       id="rect520" />
    <rect
       x="338.29"
       y="321.191"
       width="4.73427"
       height="4.73427"
       id="rect522" />
    <rect
       x="376.086"
       y="316.457"
       width="4.73427"
       height="4.73427"
       id="rect524" />
    <rect
       x="413.881"
       y="324.423"
       width="4.73427"
       height="4.73427"
       id="rect526" />
    <rect
       x="451.676"
       y="325.821"
       width="4.73427"
       height="4.73427"
       id="rect528" />
  </g>
  <rect
     x="404.097"
     y="72.7894"
     width="98.2362"
     height="46.7509"
     fill="white"
     id="rect532" />
  <path
     d="M404.097,119.54h 98.2362"
     fill="none"
     stroke="black"
     id="path534" />
  <path
     d="M502.333,119.54v -46.7509"
     fill="none"
     stroke="black"
     id="path536" />
  <path
     d="M502.333,72.7894h -98.2362"
     fill="none"
     stroke="black"
     id="path538" />
  <path
     d="M404.097,72.7894v 46.7509"
     fill="none"
     stroke="black"
     id="path540" />
  <text
     xml:space="preserve"
     x="428.36"
     y="84.0333"
     fill="black"
     font-size="10.3081"
     font-family="Helvetica"
     id="text542">DC</text>
  <path
     d="M407.781,80.5813h 17.1913"
     fill="none"
     stroke="black"
     id="path544" />
  <g
     fill="#ff0000"
     id="g548">
    <rect
       x="414.009"
       y="78.2141"
       width="4.73427"
       height="4.73427"
       id="rect546" />
  </g>
  <text
     xml:space="preserve"
     x="428.36"
     y="99.4197"
     fill="black"
     font-size="10.3081"
     font-family="Helvetica"
     id="text550">FMT - 2 layers</text>
  <path
     d="M407.781,96.1649h 17.1913"
     fill="none"
     stroke="black"
     id="path552" />
  <g
     fill="#0000ff"
     id="g556">
    <rect
       x="414.009"
       y="93.7978"
       width="4.73427"
       height="4.73427"
       id="rect554" />
  </g>
  <text
     xml:space="preserve"
     x="428.36"
     y="114.806"
     fill="black"
     font-size="10.3081"
     font-family="Helvetica"
     id="text558">FMT - 3 layers</text>
  <path
     d="M407.781,111.749h 17.1913"
     fill="none"
     stroke="black"
     id="path560" />
  <g
     fill="#00ff00"
     id="g564">
    <rect
       x="414.009"
       y="109.381"
       width="4.73427"
       height="4.73427"
       id="rect562" />
  </g>
  <text
     xml:space="preserve"
     x="315.921"
     y="30.7728"
     fill="black"
     font-size="17.4934"
     font-family="Helvetica"
     id="text566">)</text>
  <text
     xml:space="preserve"
     x="310.003"
     y="22.4878"
     fill="black"
     font-size="11.829"
     font-family="Helvetica"
     id="text568">2</text>
  <text
     xml:space="preserve"
     x="265.619"
     y="30.7728"
     fill="black"
     font-size="17.4934"
     font-family="Helvetica"
     id="text570"> (GeV</text>
  <text
     xml:space="preserve"
     x="259.701"
     y="22.4878"
     fill="black"
     font-size="11.829"
     font-family="Helvetica"
     id="text572">2</text>
  <text
     xml:space="preserve"
     x="246.682"
     y="30.7728"
     fill="black"
     font-size="17.4934"
     font-family="Helvetica"
     id="text574">Q</text>
</svg>
