<?xml version="1.0" encoding="UTF-8" standalone="no"?>
<svg
   width="567.429"
   height="608.262"
   viewBox="0 0 567.429 608.262"
   shape-rendering="crispEdges"
   version="1.1"
   id="svg538"
   sodipodi:docname="int_zh_-211.svg"
   inkscape:export-filename="int_zh_-211.pdf"
   inkscape:export-xdpi="96"
   inkscape:export-ydpi="96"
   inkscape:version="1.2.2 (1:1.2.2+202305151914+b0a8486541)"
   xmlns:inkscape="http://www.inkscape.org/namespaces/inkscape"
   xmlns:sodipodi="http://sodipodi.sourceforge.net/DTD/sodipodi-0.dtd"
   xmlns="http://www.w3.org/2000/svg"
   xmlns:svg="http://www.w3.org/2000/svg">
  <sodipodi:namedview
     id="namedview540"
     pagecolor="#ffffff"
     bordercolor="#666666"
     borderopacity="1.0"
     inkscape:showpageshadow="2"
     inkscape:pageopacity="0.0"
     inkscape:pagecheckerboard="0"
     inkscape:deskcolor="#d1d1d1"
     showgrid="false"
     inkscape:zoom="0.38799069"
     inkscape:cx="283.51196"
     inkscape:cy="304.13101"
     inkscape:window-width="1920"
     inkscape:window-height="1051"
     inkscape:window-x="0"
     inkscape:window-y="0"
     inkscape:window-maximized="1"
     inkscape:current-layer="svg538" />
  <title
     id="title2">
/home/twig/code/rge-analysis/macros/int_zh_-211.svg
</title>
  <desc
     id="desc4">
Creator: ROOT Version 6.28/00
CreationDate: Tue Jun 27 11:57:15 2023</desc>
  <defs
     id="defs6" />
  <rect
     x="0.5"
     y="0"
     width="566.929"
     height="607.762"
     fill="white"
     id="rect8" />
  <rect
     x="57.1929"
     y="60.7762"
     width="453.543"
     height="486.21"
     fill="white"
     id="rect10" />
  <rect
     x="57.1929"
     y="60.7762"
     width="453.543"
     height="486.21"
     fill="none"
     stroke="black"
     id="rect12" />
  <rect
     x="57.1929"
     y="60.7762"
     width="453.543"
     height="486.21"
     fill="white"
     id="rect14" />
  <rect
     x="57.1929"
     y="60.7762"
     width="453.543"
     height="486.21"
     fill="none"
     stroke="black"
     id="rect16" />
  <path
     d="M57.1929,546.986h 453.543"
     fill="none"
     stroke="black"
     id="path18" />
  <path
     d="M57.1929,60.7762v 486.21"
     fill="none"
     stroke="black"
     stroke-dasharray=" 1, 2"
     id="path20" />
  <path
     d="M139.655,60.7762v 486.21"
     fill="none"
     stroke="black"
     stroke-dasharray=" 1, 2"
     id="path22" />
  <path
     d="M222.118,60.7762v 486.21"
     fill="none"
     stroke="black"
     stroke-dasharray=" 1, 2"
     id="path24" />
  <path
     d="M304.58,60.7762v 486.21"
     fill="none"
     stroke="black"
     stroke-dasharray=" 1, 2"
     id="path26" />
  <path
     d="M387.043,60.7762v 486.21"
     fill="none"
     stroke="black"
     stroke-dasharray=" 1, 2"
     id="path28" />
  <path
     d="M469.505,60.7762v 486.21"
     fill="none"
     stroke="black"
     stroke-dasharray=" 1, 2"
     id="path30" />
  <path
     d="M469.505,60.7762v 486.21"
     fill="none"
     stroke="black"
     stroke-dasharray=" 1, 2"
     id="path32" />
  <path
     d="M57.1929,546.986v -486.21"
     fill="none"
     stroke="black"
     id="path34" />
  <path
     d="M510.736,526.557h -453.543"
     fill="none"
     stroke="black"
     stroke-dasharray=" 1, 2"
     id="path36" />
  <path
     d="M510.736,397.675h -453.543"
     fill="none"
     stroke="black"
     stroke-dasharray=" 1, 2"
     id="path38" />
  <path
     d="M510.736,268.794h -453.543"
     fill="none"
     stroke="black"
     stroke-dasharray=" 1, 2"
     id="path40" />
  <path
     d="M510.736,139.913h -453.543"
     fill="none"
     stroke="black"
     stroke-dasharray=" 1, 2"
     id="path42" />
  <path
     d="M57.1929,546.986h 453.543"
     fill="none"
     stroke="black"
     id="path44" />
  <path
     d="M57.1929,532.4v 14.5863"
     fill="none"
     stroke="black"
     id="path46" />
  <path
     d="M77.8085,539.693v 7.29315"
     fill="none"
     stroke="black"
     id="path48" />
  <path
     d="M98.4241,539.693v 7.29315"
     fill="none"
     stroke="black"
     id="path50" />
  <path
     d="M119.04,539.693v 7.29315"
     fill="none"
     stroke="black"
     id="path52" />
  <path
     d="M139.655,532.4v 14.5863"
     fill="none"
     stroke="black"
     id="path54" />
  <path
     d="M160.271,539.693v 7.29315"
     fill="none"
     stroke="black"
     id="path56" />
  <path
     d="M180.887,539.693v 7.29315"
     fill="none"
     stroke="black"
     id="path58" />
  <path
     d="M201.502,539.693v 7.29315"
     fill="none"
     stroke="black"
     id="path60" />
  <path
     d="M222.118,532.4v 14.5863"
     fill="none"
     stroke="black"
     id="path62" />
  <path
     d="M242.733,539.693v 7.29315"
     fill="none"
     stroke="black"
     id="path64" />
  <path
     d="M263.349,539.693v 7.29315"
     fill="none"
     stroke="black"
     id="path66" />
  <path
     d="M283.965,539.693v 7.29315"
     fill="none"
     stroke="black"
     id="path68" />
  <path
     d="M304.58,532.4v 14.5863"
     fill="none"
     stroke="black"
     id="path70" />
  <path
     d="M325.196,539.693v 7.29315"
     fill="none"
     stroke="black"
     id="path72" />
  <path
     d="M345.811,539.693v 7.29315"
     fill="none"
     stroke="black"
     id="path74" />
  <path
     d="M366.427,539.693v 7.29315"
     fill="none"
     stroke="black"
     id="path76" />
  <path
     d="M387.043,532.4v 14.5863"
     fill="none"
     stroke="black"
     id="path78" />
  <path
     d="M407.658,539.693v 7.29315"
     fill="none"
     stroke="black"
     id="path80" />
  <path
     d="M428.274,539.693v 7.29315"
     fill="none"
     stroke="black"
     id="path82" />
  <path
     d="M448.889,539.693v 7.29315"
     fill="none"
     stroke="black"
     id="path84" />
  <path
     d="M469.505,532.4v 14.5863"
     fill="none"
     stroke="black"
     id="path86" />
  <path
     d="M469.505,532.4v 14.5863"
     fill="none"
     stroke="black"
     id="path88" />
  <path
     d="M490.121,539.693v 7.29315"
     fill="none"
     stroke="black"
     id="path90" />
  <text
     xml:space="preserve"
     x="51.9852"
     y="566.929"
     fill="black"
     font-size="18.7041"
     font-family="Helvetica"
     id="text92">0</text>
  <text
     xml:space="preserve"
     x="127.142"
     y="566.929"
     fill="black"
     font-size="18.7041"
     font-family="Helvetica"
     id="text94">0.2</text>
  <text
     xml:space="preserve"
     x="209.4"
     y="566.929"
     fill="black"
     font-size="18.7041"
     font-family="Helvetica"
     id="text96">0.4</text>
  <text
     xml:space="preserve"
     x="291.658"
     y="566.929"
     fill="black"
     font-size="18.7041"
     font-family="Helvetica"
     id="text98">0.6</text>
  <text
     xml:space="preserve"
     x="374.508"
     y="566.929"
     fill="black"
     font-size="18.7041"
     font-family="Helvetica"
     id="text100">0.8</text>
  <text
     xml:space="preserve"
     x="465.642"
     y="566.929"
     fill="black"
     font-size="18.7041"
     font-family="Helvetica"
     id="text102">1</text>
  <text
     xml:space="preserve"
     x="504.108"
     y="588.825"
     fill="black"
     font-size="12.6361"
     font-family="Helvetica"
     id="text104">h</text>
  <text
     xml:space="preserve"
     x="495.231"
     y="582.907"
     fill="black"
     font-size="18.7041"
     font-family="Helvetica"
     id="text106">z</text>
  <path
     d="M57.1929,546.986v -486.21"
     fill="none"
     stroke="black"
     id="path108" />
  <path
     d="M63.9961,546.52h -6.80315"
     fill="none"
     stroke="black"
     id="path110" />
  <path
     d="M63.9961,539.046h -6.80315"
     fill="none"
     stroke="black"
     id="path112" />
  <path
     d="M63.9961,532.454h -6.80315"
     fill="none"
     stroke="black"
     id="path114" />
  <path
     d="M70.7992,526.557h -13.6063"
     fill="none"
     stroke="black"
     id="path116" />
  <text
     xml:space="preserve"
     x="46.0674"
     y="526.096"
     fill="black"
     font-size="12.6361"
     font-family="Helvetica"
     id="text118">3</text>
  <text
     xml:space="preserve"
     x="26.5385"
     y="534.381"
     fill="black"
     font-size="18.7041"
     font-family="Helvetica"
     id="text120">10</text>
  <path
     d="M63.9961,487.759h -6.80315"
     fill="none"
     stroke="black"
     id="path122" />
  <path
     d="M63.9961,465.065h -6.80315"
     fill="none"
     stroke="black"
     id="path124" />
  <path
     d="M63.9961,448.962h -6.80315"
     fill="none"
     stroke="black"
     id="path126" />
  <path
     d="M63.9961,436.472h -6.80315"
     fill="none"
     stroke="black"
     id="path128" />
  <path
     d="M63.9961,426.267h -6.80315"
     fill="none"
     stroke="black"
     id="path130" />
  <path
     d="M63.9961,417.639h -6.80315"
     fill="none"
     stroke="black"
     id="path132" />
  <path
     d="M63.9961,410.165h -6.80315"
     fill="none"
     stroke="black"
     id="path134" />
  <path
     d="M63.9961,403.573h -6.80315"
     fill="none"
     stroke="black"
     id="path136" />
  <path
     d="M70.7992,397.675h -13.6063"
     fill="none"
     stroke="black"
     id="path138" />
  <text
     xml:space="preserve"
     x="46.0674"
     y="397.679"
     fill="black"
     font-size="12.6361"
     font-family="Helvetica"
     id="text140">4</text>
  <text
     xml:space="preserve"
     x="26.5385"
     y="405.372"
     fill="black"
     font-size="18.7041"
     font-family="Helvetica"
     id="text142">10</text>
  <path
     d="M63.9961,358.878h -6.80315"
     fill="none"
     stroke="black"
     id="path144" />
  <path
     d="M63.9961,336.183h -6.80315"
     fill="none"
     stroke="black"
     id="path146" />
  <path
     d="M63.9961,320.081h -6.80315"
     fill="none"
     stroke="black"
     id="path148" />
  <path
     d="M63.9961,307.591h -6.80315"
     fill="none"
     stroke="black"
     id="path150" />
  <path
     d="M63.9961,297.386h -6.80315"
     fill="none"
     stroke="black"
     id="path152" />
  <path
     d="M63.9961,288.758h -6.80315"
     fill="none"
     stroke="black"
     id="path154" />
  <path
     d="M63.9961,281.284h -6.80315"
     fill="none"
     stroke="black"
     id="path156" />
  <path
     d="M63.9961,274.691h -6.80315"
     fill="none"
     stroke="black"
     id="path158" />
  <path
     d="M70.7992,268.794h -13.6063"
     fill="none"
     stroke="black"
     id="path160" />
  <text
     xml:space="preserve"
     x="46.0674"
     y="268.67"
     fill="black"
     font-size="12.6361"
     font-family="Helvetica"
     id="text162">5</text>
  <text
     xml:space="preserve"
     x="26.5385"
     y="276.955"
     fill="black"
     font-size="18.7041"
     font-family="Helvetica"
     id="text164">10</text>
  <path
     d="M63.9961,229.997h -6.80315"
     fill="none"
     stroke="black"
     id="path166" />
  <path
     d="M63.9961,207.302h -6.80315"
     fill="none"
     stroke="black"
     id="path168" />
  <path
     d="M63.9961,191.2h -6.80315"
     fill="none"
     stroke="black"
     id="path170" />
  <path
     d="M63.9961,178.71h -6.80315"
     fill="none"
     stroke="black"
     id="path172" />
  <path
     d="M63.9961,168.505h -6.80315"
     fill="none"
     stroke="black"
     id="path174" />
  <path
     d="M63.9961,159.877h -6.80315"
     fill="none"
     stroke="black"
     id="path176" />
  <path
     d="M63.9961,152.403h -6.80315"
     fill="none"
     stroke="black"
     id="path178" />
  <path
     d="M63.9961,145.81h -6.80315"
     fill="none"
     stroke="black"
     id="path180" />
  <path
     d="M70.7992,139.913h -13.6063"
     fill="none"
     stroke="black"
     id="path182" />
  <text
     xml:space="preserve"
     x="46.0674"
     y="139.661"
     fill="black"
     font-size="12.6361"
     font-family="Helvetica"
     id="text184">6</text>
  <text
     xml:space="preserve"
     x="26.5385"
     y="147.946"
     fill="black"
     font-size="18.7041"
     font-family="Helvetica"
     id="text186">10</text>
  <path
     d="M63.9961,101.116h -6.80315"
     fill="none"
     stroke="black"
     id="path188" />
  <path
     d="M63.9961,78.4209h -6.80315"
     fill="none"
     stroke="black"
     id="path190" />
  <path
     d="M63.9961,62.3187h -6.80315"
     fill="none"
     stroke="black"
     id="path192" />
  <g
     fill="#ff0000"
     id="g214">
    <rect
       x="75.4414"
       y="121.778"
       width="4.73427"
       height="4.73427"
       id="rect194" />
    <rect
       x="116.673"
       y="110.466"
       width="4.73427"
       height="4.73427"
       id="rect196" />
    <rect
       x="157.904"
       y="140.242"
       width="4.73427"
       height="4.73427"
       id="rect198" />
    <rect
       x="199.135"
       y="170.22"
       width="4.73427"
       height="4.73427"
       id="rect200" />
    <rect
       x="240.366"
       y="200.705"
       width="4.73427"
       height="4.73427"
       id="rect202" />
    <rect
       x="281.597"
       y="227.154"
       width="4.73427"
       height="4.73427"
       id="rect204" />
    <rect
       x="322.829"
       y="249.679"
       width="4.73427"
       height="4.73427"
       id="rect206" />
    <rect
       x="364.06"
       y="265.277"
       width="4.73427"
       height="4.73427"
       id="rect208" />
    <rect
       x="405.291"
       y="285.518"
       width="4.73427"
       height="4.73427"
       id="rect210" />
    <rect
       x="446.522"
       y="308.749"
       width="4.73427"
       height="4.73427"
       id="rect212" />
  </g>
  <path
     d="M75.4414,124.145h -18.2485"
     fill="none"
     stroke="black"
     id="path216" />
  <path
     d="M57.1929,125.329v -2.36714"
     fill="none"
     stroke="black"
     id="path218" />
  <path
     d="M80.1757,124.145h 18.2485"
     fill="none"
     stroke="black"
     id="path220" />
  <path
     d="M98.4241,125.329v -2.36714"
     fill="none"
     stroke="black"
     id="path222" />
  <path
     d="M116.673,112.833h -18.2485"
     fill="none"
     stroke="black"
     id="path224" />
  <path
     d="M98.4241,114.017v -2.36714"
     fill="none"
     stroke="black"
     id="path226" />
  <path
     d="M121.407,112.833h 18.2485"
     fill="none"
     stroke="black"
     id="path228" />
  <path
     d="M139.655,114.017v -2.36714"
     fill="none"
     stroke="black"
     id="path230" />
  <path
     d="M157.904,142.609h -18.2485"
     fill="none"
     stroke="black"
     id="path232" />
  <path
     d="M139.655,143.792v -2.36714"
     fill="none"
     stroke="black"
     id="path234" />
  <path
     d="M162.638,142.609h 18.2485"
     fill="none"
     stroke="black"
     id="path236" />
  <path
     d="M180.887,143.792v -2.36714"
     fill="none"
     stroke="black"
     id="path238" />
  <path
     d="M199.135,172.587h -18.2485"
     fill="none"
     stroke="black"
     id="path240" />
  <path
     d="M180.887,173.771v -2.36714"
     fill="none"
     stroke="black"
     id="path242" />
  <path
     d="M203.869,172.587h 18.2485"
     fill="none"
     stroke="black"
     id="path244" />
  <path
     d="M222.118,173.771v -2.36714"
     fill="none"
     stroke="black"
     id="path246" />
  <path
     d="M240.366,203.072h -18.2485"
     fill="none"
     stroke="black"
     id="path248" />
  <path
     d="M222.118,204.256v -2.36714"
     fill="none"
     stroke="black"
     id="path250" />
  <path
     d="M245.1,203.072h 18.2485"
     fill="none"
     stroke="black"
     id="path252" />
  <path
     d="M263.349,204.256v -2.36714"
     fill="none"
     stroke="black"
     id="path254" />
  <path
     d="M281.597,229.521h -18.2485"
     fill="none"
     stroke="black"
     id="path256" />
  <path
     d="M263.349,230.704v -2.36714"
     fill="none"
     stroke="black"
     id="path258" />
  <path
     d="M286.332,229.521h 18.2485"
     fill="none"
     stroke="black"
     id="path260" />
  <path
     d="M304.58,230.704v -2.36714"
     fill="none"
     stroke="black"
     id="path262" />
  <path
     d="M322.829,252.046h -18.2485"
     fill="none"
     stroke="black"
     id="path264" />
  <path
     d="M304.58,253.229v -2.36714"
     fill="none"
     stroke="black"
     id="path266" />
  <path
     d="M327.563,252.046h 18.2485"
     fill="none"
     stroke="black"
     id="path268" />
  <path
     d="M345.811,253.229v -2.36714"
     fill="none"
     stroke="black"
     id="path270" />
  <path
     d="M364.06,267.644h -18.2485"
     fill="none"
     stroke="black"
     id="path272" />
  <path
     d="M345.811,268.828v -2.36714"
     fill="none"
     stroke="black"
     id="path274" />
  <path
     d="M368.794,267.644h 18.2485"
     fill="none"
     stroke="black"
     id="path276" />
  <path
     d="M387.043,268.828v -2.36714"
     fill="none"
     stroke="black"
     id="path278" />
  <path
     d="M405.291,287.885h -18.2485"
     fill="none"
     stroke="black"
     id="path280" />
  <path
     d="M387.043,289.069v -2.36714"
     fill="none"
     stroke="black"
     id="path282" />
  <path
     d="M410.025,287.885h 18.2485"
     fill="none"
     stroke="black"
     id="path284" />
  <path
     d="M428.274,289.069v -2.36714"
     fill="none"
     stroke="black"
     id="path286" />
  <path
     d="M446.522,311.116h -18.2485"
     fill="none"
     stroke="black"
     id="path288" />
  <path
     d="M428.274,312.299v -2.36714"
     fill="none"
     stroke="black"
     id="path290" />
  <path
     d="M451.257,311.116h 18.2485"
     fill="none"
     stroke="black"
     id="path292" />
  <path
     d="M469.505,312.299v -2.36714"
     fill="none"
     stroke="black"
     id="path294" />
  <path
     d="M75.4414,80.1748h -18.2485"
     fill="none"
     stroke="black"
     id="path296" />
  <path
     d="M57.1929,81.3583v -2.36714"
     fill="none"
     stroke="black"
     id="path298" />
  <path
     d="M80.1757,80.1748h 18.2485"
     fill="none"
     stroke="black"
     id="path300" />
  <path
     d="M98.4241,81.3583v -2.36714"
     fill="none"
     stroke="black"
     id="path302" />
  <path
     d="M116.673,120.532h -18.2485"
     fill="none"
     stroke="black"
     id="path304" />
  <path
     d="M98.4241,121.716v -2.36714"
     fill="none"
     stroke="black"
     id="path306" />
  <path
     d="M121.407,120.532h 18.2485"
     fill="none"
     stroke="black"
     id="path308" />
  <path
     d="M139.655,121.716v -2.36714"
     fill="none"
     stroke="black"
     id="path310" />
  <path
     d="M157.904,174.869h -18.2485"
     fill="none"
     stroke="black"
     id="path312" />
  <path
     d="M139.655,176.053v -2.36714"
     fill="none"
     stroke="black"
     id="path314" />
  <path
     d="M162.638,174.869h 18.2485"
     fill="none"
     stroke="black"
     id="path316" />
  <path
     d="M180.887,176.053v -2.36714"
     fill="none"
     stroke="black"
     id="path318" />
  <path
     d="M199.135,214.7h -18.2485"
     fill="none"
     stroke="black"
     id="path320" />
  <path
     d="M180.887,215.884v -2.36714"
     fill="none"
     stroke="black"
     id="path322" />
  <path
     d="M203.869,214.7h 18.2485"
     fill="none"
     stroke="black"
     id="path324" />
  <path
     d="M222.118,215.884v -2.36714"
     fill="none"
     stroke="black"
     id="path326" />
  <path
     d="M240.366,252.555h -18.2485"
     fill="none"
     stroke="black"
     id="path328" />
  <path
     d="M222.118,253.738v -2.36714"
     fill="none"
     stroke="black"
     id="path330" />
  <path
     d="M245.1,252.555h 18.2485"
     fill="none"
     stroke="black"
     id="path332" />
  <path
     d="M263.349,253.738v -2.36714"
     fill="none"
     stroke="black"
     id="path334" />
  <path
     d="M281.597,281.525h -18.2485"
     fill="none"
     stroke="black"
     id="path336" />
  <path
     d="M263.349,282.709v -2.36714"
     fill="none"
     stroke="black"
     id="path338" />
  <path
     d="M286.332,281.525h 18.2485"
     fill="none"
     stroke="black"
     id="path340" />
  <path
     d="M304.58,282.709v -2.36714"
     fill="none"
     stroke="black"
     id="path342" />
  <path
     d="M322.829,306.797h -18.2485"
     fill="none"
     stroke="black"
     id="path344" />
  <path
     d="M304.58,307.98v -2.36714"
     fill="none"
     stroke="black"
     id="path346" />
  <path
     d="M327.563,306.797h 18.2485"
     fill="none"
     stroke="black"
     id="path348" />
  <path
     d="M345.811,307.98v -2.36714"
     fill="none"
     stroke="black"
     id="path350" />
  <path
     d="M364.06,326.405h -18.2485"
     fill="none"
     stroke="black"
     id="path352" />
  <path
     d="M345.811,327.588v -2.36714"
     fill="none"
     stroke="black"
     id="path354" />
  <path
     d="M368.794,326.405h 18.2485"
     fill="none"
     stroke="black"
     id="path356" />
  <path
     d="M387.043,327.588v -2.36714"
     fill="none"
     stroke="black"
     id="path358" />
  <path
     d="M405.291,350.961h -18.2485"
     fill="none"
     stroke="black"
     id="path360" />
  <path
     d="M387.043,352.144v -2.36714"
     fill="none"
     stroke="black"
     id="path362" />
  <path
     d="M410.025,350.961h 18.2485"
     fill="none"
     stroke="black"
     id="path364" />
  <path
     d="M428.274,352.144v -2.36714"
     fill="none"
     stroke="black"
     id="path366" />
  <path
     d="M446.522,378.409h -18.2485"
     fill="none"
     stroke="black"
     id="path368" />
  <path
     d="M428.274,379.593v -2.36714"
     fill="none"
     stroke="black"
     id="path370" />
  <path
     d="M451.257,378.409h 18.2485"
     fill="none"
     stroke="black"
     id="path372" />
  <path
     d="M469.505,379.593v -2.36714"
     fill="none"
     stroke="black"
     id="path374" />
  <g
     fill="#0000ff"
     id="g396">
    <rect
       x="75.4414"
       y="77.8076"
       width="4.73427"
       height="4.73427"
       id="rect376" />
    <rect
       x="116.673"
       y="118.165"
       width="4.73427"
       height="4.73427"
       id="rect378" />
    <rect
       x="157.904"
       y="172.502"
       width="4.73427"
       height="4.73427"
       id="rect380" />
    <rect
       x="199.135"
       y="212.333"
       width="4.73427"
       height="4.73427"
       id="rect382" />
    <rect
       x="240.366"
       y="250.188"
       width="4.73427"
       height="4.73427"
       id="rect384" />
    <rect
       x="281.597"
       y="279.158"
       width="4.73427"
       height="4.73427"
       id="rect386" />
    <rect
       x="322.829"
       y="304.43"
       width="4.73427"
       height="4.73427"
       id="rect388" />
    <rect
       x="364.06"
       y="324.038"
       width="4.73427"
       height="4.73427"
       id="rect390" />
    <rect
       x="405.291"
       y="348.594"
       width="4.73427"
       height="4.73427"
       id="rect392" />
    <rect
       x="446.522"
       y="376.042"
       width="4.73427"
       height="4.73427"
       id="rect394" />
  </g>
  <path
     d="M75.4414,107.6h -18.2485"
     fill="none"
     stroke="black"
     id="path398" />
  <path
     d="M57.1929,108.784v -2.36714"
     fill="none"
     stroke="black"
     id="path400" />
  <path
     d="M80.1757,107.6h 18.2485"
     fill="none"
     stroke="black"
     id="path402" />
  <path
     d="M98.4241,108.784v -2.36714"
     fill="none"
     stroke="black"
     id="path404" />
  <path
     d="M116.673,175.443h -18.2485"
     fill="none"
     stroke="black"
     id="path406" />
  <path
     d="M98.4241,176.627v -2.36714"
     fill="none"
     stroke="black"
     id="path408" />
  <path
     d="M121.407,175.443h 18.2485"
     fill="none"
     stroke="black"
     id="path410" />
  <path
     d="M139.655,176.627v -2.36714"
     fill="none"
     stroke="black"
     id="path412" />
  <path
     d="M157.904,264.309h -18.2485"
     fill="none"
     stroke="black"
     id="path414" />
  <path
     d="M139.655,265.493v -2.36714"
     fill="none"
     stroke="black"
     id="path416" />
  <path
     d="M162.638,264.309h 18.2485"
     fill="none"
     stroke="black"
     id="path418" />
  <path
     d="M180.887,265.493v -2.36714"
     fill="none"
     stroke="black"
     id="path420" />
  <path
     d="M199.135,314.049h -18.2485"
     fill="none"
     stroke="black"
     id="path422" />
  <path
     d="M180.887,315.233v -2.36714"
     fill="none"
     stroke="black"
     id="path424" />
  <path
     d="M203.869,314.049h 18.2485"
     fill="none"
     stroke="black"
     id="path426" />
  <path
     d="M222.118,315.233v -2.36714"
     fill="none"
     stroke="black"
     id="path428" />
  <path
     d="M240.366,368.338h -18.2485"
     fill="none"
     stroke="black"
     id="path430" />
  <path
     d="M222.118,369.522v -2.36714"
     fill="none"
     stroke="black"
     id="path432" />
  <path
     d="M245.1,368.338h 18.2485"
     fill="none"
     stroke="black"
     id="path434" />
  <path
     d="M263.349,369.522v -2.36714"
     fill="none"
     stroke="black"
     id="path436" />
  <path
     d="M281.597,406.112h -18.2485"
     fill="none"
     stroke="black"
     id="path438" />
  <path
     d="M263.349,407.295v -2.36714"
     fill="none"
     stroke="black"
     id="path440" />
  <path
     d="M286.332,406.112h 18.2485"
     fill="none"
     stroke="black"
     id="path442" />
  <path
     d="M304.58,407.295v -2.36714"
     fill="none"
     stroke="black"
     id="path444" />
  <path
     d="M322.829,424.413h -18.2485"
     fill="none"
     stroke="black"
     id="path446" />
  <path
     d="M304.58,425.597v -2.36714"
     fill="none"
     stroke="black"
     id="path448" />
  <path
     d="M327.563,424.413h 18.2485"
     fill="none"
     stroke="black"
     id="path450" />
  <path
     d="M345.811,425.597v -2.36714"
     fill="none"
     stroke="black"
     id="path452" />
  <path
     d="M364.06,450.623h -18.2485"
     fill="none"
     stroke="black"
     id="path454" />
  <path
     d="M345.811,451.806v -2.36714"
     fill="none"
     stroke="black"
     id="path456" />
  <path
     d="M368.794,450.623h 18.2485"
     fill="none"
     stroke="black"
     id="path458" />
  <path
     d="M387.043,451.806v -2.36714"
     fill="none"
     stroke="black"
     id="path460" />
  <path
     d="M405.291,488.04h -18.2485"
     fill="none"
     stroke="black"
     id="path462" />
  <path
     d="M387.043,489.224v -2.36714"
     fill="none"
     stroke="black"
     id="path464" />
  <path
     d="M410.025,488.04h 18.2485"
     fill="none"
     stroke="black"
     id="path466" />
  <path
     d="M428.274,489.224v -2.36714"
     fill="none"
     stroke="black"
     id="path468" />
  <path
     d="M446.522,527.587h -18.2485"
     fill="none"
     stroke="black"
     id="path470" />
  <path
     d="M428.274,528.771v -2.36714"
     fill="none"
     stroke="black"
     id="path472" />
  <path
     d="M451.257,527.587h 18.2485"
     fill="none"
     stroke="black"
     id="path474" />
  <path
     d="M469.505,528.771v -2.36714"
     fill="none"
     stroke="black"
     id="path476" />
  <g
     fill="#00ff00"
     id="g498">
    <rect
       x="75.4414"
       y="105.233"
       width="4.73427"
       height="4.73427"
       id="rect478" />
    <rect
       x="116.673"
       y="173.076"
       width="4.73427"
       height="4.73427"
       id="rect480" />
    <rect
       x="157.904"
       y="261.942"
       width="4.73427"
       height="4.73427"
       id="rect482" />
    <rect
       x="199.135"
       y="311.682"
       width="4.73427"
       height="4.73427"
       id="rect484" />
    <rect
       x="240.366"
       y="365.971"
       width="4.73427"
       height="4.73427"
       id="rect486" />
    <rect
       x="281.597"
       y="403.745"
       width="4.73427"
       height="4.73427"
       id="rect488" />
    <rect
       x="322.829"
       y="422.046"
       width="4.73427"
       height="4.73427"
       id="rect490" />
    <rect
       x="364.06"
       y="448.256"
       width="4.73427"
       height="4.73427"
       id="rect492" />
    <rect
       x="405.291"
       y="485.673"
       width="4.73427"
       height="4.73427"
       id="rect494" />
    <rect
       x="446.522"
       y="525.22"
       width="4.73427"
       height="4.73427"
       id="rect496" />
  </g>
  <rect
     x="396.995"
     y="72.7894"
     width="105.338"
     height="47.9345"
     fill="white"
     id="rect500" />
  <path
     d="M396.995,120.724h 105.338"
     fill="none"
     stroke="black"
     id="path502" />
  <path
     d="M502.333,120.724v -47.9345"
     fill="none"
     stroke="black"
     id="path504" />
  <path
     d="M502.333,72.7894h -105.338"
     fill="none"
     stroke="black"
     id="path506" />
  <path
     d="M396.995,72.7894v 47.9345"
     fill="none"
     stroke="black"
     id="path508" />
  <text
     xml:space="preserve"
     x="423.034"
     y="84.0333"
     fill="black"
     font-size="11.0172"
     font-family="Helvetica"
     id="text510">DC</text>
  <path
     d="M400.945,80.7785h 18.4341"
     fill="none"
     stroke="black"
     id="path512" />
  <g
     fill="#ff0000"
     id="g516">
    <rect
       x="407.795"
       y="78.4114"
       width="4.73427"
       height="4.73427"
       id="rect514" />
  </g>
  <text
     xml:space="preserve"
     x="423.034"
     y="100.012"
     fill="black"
     font-size="11.0172"
     font-family="Helvetica"
     id="text518">FMT - 2 layers</text>
  <path
     d="M400.945,96.7567h 18.4341"
     fill="none"
     stroke="black"
     id="path520" />
  <g
     fill="#0000ff"
     id="g524">
    <rect
       x="407.795"
       y="94.3896"
       width="4.73427"
       height="4.73427"
       id="rect522" />
  </g>
  <text
     xml:space="preserve"
     x="423.034"
     y="115.99"
     fill="black"
     font-size="11.0172"
     font-family="Helvetica"
     id="text526">FMT - 3 layers</text>
  <path
     d="M400.945,112.735h 18.4341"
     fill="none"
     stroke="black"
     id="path528" />
  <g
     fill="#00ff00"
     id="g532">
    <rect
       x="407.795"
       y="110.368"
       width="4.73427"
       height="4.73427"
       id="rect530" />
  </g>
  <text
     xml:space="preserve"
     x="285.74"
     y="30.181"
     fill="black"
     font-size="16.7104"
     font-family="Helvetica"
     id="text534">h</text>
  <text
     xml:space="preserve"
     x="273.904"
     y="22.4878"
     fill="black"
     font-size="24.8155"
     font-family="Helvetica"
     id="text536">z</text>
</svg>
