<?xml version="1.0" encoding="UTF-8" standalone="no"?>
<svg
   width="567.429"
   height="608.262"
   viewBox="0 0 567.429 608.262"
   shape-rendering="crispEdges"
   version="1.1"
   id="svg562"
   sodipodi:docname="int_zh_211.svg"
   inkscape:export-filename="int_zh_211.pdf"
   inkscape:export-xdpi="96"
   inkscape:export-ydpi="96"
   inkscape:version="1.2.2 (1:1.2.2+202305151914+b0a8486541)"
   xmlns:inkscape="http://www.inkscape.org/namespaces/inkscape"
   xmlns:sodipodi="http://sodipodi.sourceforge.net/DTD/sodipodi-0.dtd"
   xmlns="http://www.w3.org/2000/svg"
   xmlns:svg="http://www.w3.org/2000/svg">
  <sodipodi:namedview
     id="namedview564"
     pagecolor="#ffffff"
     bordercolor="#666666"
     borderopacity="1.0"
     inkscape:showpageshadow="2"
     inkscape:pageopacity="0.0"
     inkscape:pagecheckerboard="0"
     inkscape:deskcolor="#d1d1d1"
     showgrid="false"
     inkscape:zoom="0.38799069"
     inkscape:cx="283.51196"
     inkscape:cy="304.13101"
     inkscape:window-width="1920"
     inkscape:window-height="1051"
     inkscape:window-x="0"
     inkscape:window-y="0"
     inkscape:window-maximized="1"
     inkscape:current-layer="svg562" />
  <title
     id="title2">
/home/twig/code/rge-analysis/macros/int_zh_211.svg
</title>
  <desc
     id="desc4">
Creator: ROOT Version 6.28/00
CreationDate: Tue Jun 27 11:56:14 2023</desc>
  <defs
     id="defs6" />
  <rect
     x="0.5"
     y="0"
     width="566.929"
     height="607.762"
     fill="white"
     id="rect8" />
  <rect
     x="57.1929"
     y="60.7762"
     width="453.543"
     height="486.21"
     fill="white"
     id="rect10" />
  <rect
     x="57.1929"
     y="60.7762"
     width="453.543"
     height="486.21"
     fill="none"
     stroke="black"
     id="rect12" />
  <rect
     x="57.1929"
     y="60.7762"
     width="453.543"
     height="486.21"
     fill="white"
     id="rect14" />
  <rect
     x="57.1929"
     y="60.7762"
     width="453.543"
     height="486.21"
     fill="none"
     stroke="black"
     id="rect16" />
  <path
     d="M57.1929,546.986h 453.543"
     fill="none"
     stroke="black"
     id="path18" />
  <path
     d="M57.1929,60.7762v 486.21"
     fill="none"
     stroke="black"
     stroke-dasharray=" 1, 2"
     id="path20" />
  <path
     d="M139.655,60.7762v 486.21"
     fill="none"
     stroke="black"
     stroke-dasharray=" 1, 2"
     id="path22" />
  <path
     d="M222.118,60.7762v 486.21"
     fill="none"
     stroke="black"
     stroke-dasharray=" 1, 2"
     id="path24" />
  <path
     d="M304.58,60.7762v 486.21"
     fill="none"
     stroke="black"
     stroke-dasharray=" 1, 2"
     id="path26" />
  <path
     d="M387.043,60.7762v 486.21"
     fill="none"
     stroke="black"
     stroke-dasharray=" 1, 2"
     id="path28" />
  <path
     d="M469.505,60.7762v 486.21"
     fill="none"
     stroke="black"
     stroke-dasharray=" 1, 2"
     id="path30" />
  <path
     d="M469.505,60.7762v 486.21"
     fill="none"
     stroke="black"
     stroke-dasharray=" 1, 2"
     id="path32" />
  <path
     d="M57.1929,546.986v -486.21"
     fill="none"
     stroke="black"
     id="path34" />
  <path
     d="M510.736,535.689h -453.543"
     fill="none"
     stroke="black"
     stroke-dasharray=" 1, 2"
     id="path36" />
  <path
     d="M510.736,519.399h -453.543"
     fill="none"
     stroke="black"
     stroke-dasharray=" 1, 2"
     id="path38" />
  <path
     d="M510.736,506.089h -453.543"
     fill="none"
     stroke="black"
     stroke-dasharray=" 1, 2"
     id="path40" />
  <path
     d="M510.736,494.835h -453.543"
     fill="none"
     stroke="black"
     stroke-dasharray=" 1, 2"
     id="path42" />
  <path
     d="M510.736,485.087h -453.543"
     fill="none"
     stroke="black"
     stroke-dasharray=" 1, 2"
     id="path44" />
  <path
     d="M510.736,476.488h -453.543"
     fill="none"
     stroke="black"
     stroke-dasharray=" 1, 2"
     id="path46" />
  <path
     d="M510.736,468.796h -453.543"
     fill="none"
     stroke="black"
     stroke-dasharray=" 1, 2"
     id="path48" />
  <path
     d="M510.736,418.193h -453.543"
     fill="none"
     stroke="black"
     stroke-dasharray=" 1, 2"
     id="path50" />
  <path
     d="M510.736,388.593h -453.543"
     fill="none"
     stroke="black"
     stroke-dasharray=" 1, 2"
     id="path52" />
  <path
     d="M510.736,367.591h -453.543"
     fill="none"
     stroke="black"
     stroke-dasharray=" 1, 2"
     id="path54" />
  <path
     d="M510.736,351.3h -453.543"
     fill="none"
     stroke="black"
     stroke-dasharray=" 1, 2"
     id="path56" />
  <path
     d="M510.736,337.99h -453.543"
     fill="none"
     stroke="black"
     stroke-dasharray=" 1, 2"
     id="path58" />
  <path
     d="M510.736,326.736h -453.543"
     fill="none"
     stroke="black"
     stroke-dasharray=" 1, 2"
     id="path60" />
  <path
     d="M510.736,316.988h -453.543"
     fill="none"
     stroke="black"
     stroke-dasharray=" 1, 2"
     id="path62" />
  <path
     d="M510.736,308.389h -453.543"
     fill="none"
     stroke="black"
     stroke-dasharray=" 1, 2"
     id="path64" />
  <path
     d="M510.736,300.697h -453.543"
     fill="none"
     stroke="black"
     stroke-dasharray=" 1, 2"
     id="path66" />
  <path
     d="M510.736,250.095h -453.543"
     fill="none"
     stroke="black"
     stroke-dasharray=" 1, 2"
     id="path68" />
  <path
     d="M510.736,220.494h -453.543"
     fill="none"
     stroke="black"
     stroke-dasharray=" 1, 2"
     id="path70" />
  <path
     d="M510.736,199.492h -453.543"
     fill="none"
     stroke="black"
     stroke-dasharray=" 1, 2"
     id="path72" />
  <path
     d="M510.736,183.201h -453.543"
     fill="none"
     stroke="black"
     stroke-dasharray=" 1, 2"
     id="path74" />
  <path
     d="M510.736,169.891h -453.543"
     fill="none"
     stroke="black"
     stroke-dasharray=" 1, 2"
     id="path76" />
  <path
     d="M510.736,158.637h -453.543"
     fill="none"
     stroke="black"
     stroke-dasharray=" 1, 2"
     id="path78" />
  <path
     d="M510.736,148.889h -453.543"
     fill="none"
     stroke="black"
     stroke-dasharray=" 1, 2"
     id="path80" />
  <path
     d="M510.736,140.29h -453.543"
     fill="none"
     stroke="black"
     stroke-dasharray=" 1, 2"
     id="path82" />
  <path
     d="M510.736,132.599h -453.543"
     fill="none"
     stroke="black"
     stroke-dasharray=" 1, 2"
     id="path84" />
  <path
     d="M510.736,81.9959h -453.543"
     fill="none"
     stroke="black"
     stroke-dasharray=" 1, 2"
     id="path86" />
  <path
     d="M57.1929,546.986h 453.543"
     fill="none"
     stroke="black"
     id="path88" />
  <path
     d="M57.1929,532.4v 14.5863"
     fill="none"
     stroke="black"
     id="path90" />
  <path
     d="M77.8085,539.693v 7.29315"
     fill="none"
     stroke="black"
     id="path92" />
  <path
     d="M98.4241,539.693v 7.29315"
     fill="none"
     stroke="black"
     id="path94" />
  <path
     d="M119.04,539.693v 7.29315"
     fill="none"
     stroke="black"
     id="path96" />
  <path
     d="M139.655,532.4v 14.5863"
     fill="none"
     stroke="black"
     id="path98" />
  <path
     d="M160.271,539.693v 7.29315"
     fill="none"
     stroke="black"
     id="path100" />
  <path
     d="M180.887,539.693v 7.29315"
     fill="none"
     stroke="black"
     id="path102" />
  <path
     d="M201.502,539.693v 7.29315"
     fill="none"
     stroke="black"
     id="path104" />
  <path
     d="M222.118,532.4v 14.5863"
     fill="none"
     stroke="black"
     id="path106" />
  <path
     d="M242.733,539.693v 7.29315"
     fill="none"
     stroke="black"
     id="path108" />
  <path
     d="M263.349,539.693v 7.29315"
     fill="none"
     stroke="black"
     id="path110" />
  <path
     d="M283.965,539.693v 7.29315"
     fill="none"
     stroke="black"
     id="path112" />
  <path
     d="M304.58,532.4v 14.5863"
     fill="none"
     stroke="black"
     id="path114" />
  <path
     d="M325.196,539.693v 7.29315"
     fill="none"
     stroke="black"
     id="path116" />
  <path
     d="M345.811,539.693v 7.29315"
     fill="none"
     stroke="black"
     id="path118" />
  <path
     d="M366.427,539.693v 7.29315"
     fill="none"
     stroke="black"
     id="path120" />
  <path
     d="M387.043,532.4v 14.5863"
     fill="none"
     stroke="black"
     id="path122" />
  <path
     d="M407.658,539.693v 7.29315"
     fill="none"
     stroke="black"
     id="path124" />
  <path
     d="M428.274,539.693v 7.29315"
     fill="none"
     stroke="black"
     id="path126" />
  <path
     d="M448.889,539.693v 7.29315"
     fill="none"
     stroke="black"
     id="path128" />
  <path
     d="M469.505,532.4v 14.5863"
     fill="none"
     stroke="black"
     id="path130" />
  <path
     d="M469.505,532.4v 14.5863"
     fill="none"
     stroke="black"
     id="path132" />
  <path
     d="M490.121,539.693v 7.29315"
     fill="none"
     stroke="black"
     id="path134" />
  <text
     xml:space="preserve"
     x="51.9852"
     y="566.929"
     fill="black"
     font-size="18.7041"
     font-family="Helvetica"
     id="text136">0</text>
  <text
     xml:space="preserve"
     x="127.142"
     y="566.929"
     fill="black"
     font-size="18.7041"
     font-family="Helvetica"
     id="text138">0.2</text>
  <text
     xml:space="preserve"
     x="209.4"
     y="566.929"
     fill="black"
     font-size="18.7041"
     font-family="Helvetica"
     id="text140">0.4</text>
  <text
     xml:space="preserve"
     x="291.658"
     y="566.929"
     fill="black"
     font-size="18.7041"
     font-family="Helvetica"
     id="text142">0.6</text>
  <text
     xml:space="preserve"
     x="374.508"
     y="566.929"
     fill="black"
     font-size="18.7041"
     font-family="Helvetica"
     id="text144">0.8</text>
  <text
     xml:space="preserve"
     x="465.642"
     y="566.929"
     fill="black"
     font-size="18.7041"
     font-family="Helvetica"
     id="text146">1</text>
  <text
     xml:space="preserve"
     x="504.108"
     y="588.825"
     fill="black"
     font-size="12.6361"
     font-family="Helvetica"
     id="text148">h</text>
  <text
     xml:space="preserve"
     x="495.231"
     y="582.907"
     fill="black"
     font-size="18.7041"
     font-family="Helvetica"
     id="text150">z</text>
  <path
     d="M57.1929,546.986v -486.21"
     fill="none"
     stroke="black"
     id="path152" />
  <path
     d="M63.9961,535.689h -6.80315"
     fill="none"
     stroke="black"
     id="path154" />
  <path
     d="M63.9961,519.399h -6.80315"
     fill="none"
     stroke="black"
     id="path156" />
  <path
     d="M63.9961,506.089h -6.80315"
     fill="none"
     stroke="black"
     id="path158" />
  <path
     d="M63.9961,494.835h -6.80315"
     fill="none"
     stroke="black"
     id="path160" />
  <path
     d="M63.9961,485.087h -6.80315"
     fill="none"
     stroke="black"
     id="path162" />
  <path
     d="M63.9961,476.488h -6.80315"
     fill="none"
     stroke="black"
     id="path164" />
  <path
     d="M70.7992,468.796h -13.6063"
     fill="none"
     stroke="black"
     id="path166" />
  <text
     xml:space="preserve"
     x="46.0674"
     y="469.285"
     fill="black"
     font-size="12.6361"
     font-family="Helvetica"
     id="text168">4</text>
  <text
     xml:space="preserve"
     x="26.5385"
     y="476.978"
     fill="black"
     font-size="18.7041"
     font-family="Helvetica"
     id="text170">10</text>
  <path
     d="M63.9961,418.193h -6.80315"
     fill="none"
     stroke="black"
     id="path172" />
  <path
     d="M63.9961,388.593h -6.80315"
     fill="none"
     stroke="black"
     id="path174" />
  <path
     d="M63.9961,367.591h -6.80315"
     fill="none"
     stroke="black"
     id="path176" />
  <path
     d="M63.9961,351.3h -6.80315"
     fill="none"
     stroke="black"
     id="path178" />
  <path
     d="M63.9961,337.99h -6.80315"
     fill="none"
     stroke="black"
     id="path180" />
  <path
     d="M63.9961,326.736h -6.80315"
     fill="none"
     stroke="black"
     id="path182" />
  <path
     d="M63.9961,316.988h -6.80315"
     fill="none"
     stroke="black"
     id="path184" />
  <path
     d="M63.9961,308.389h -6.80315"
     fill="none"
     stroke="black"
     id="path186" />
  <path
     d="M70.7992,300.697h -13.6063"
     fill="none"
     stroke="black"
     id="path188" />
  <text
     xml:space="preserve"
     x="46.0674"
     y="300.626"
     fill="black"
     font-size="12.6361"
     font-family="Helvetica"
     id="text190">5</text>
  <text
     xml:space="preserve"
     x="26.5385"
     y="308.911"
     fill="black"
     font-size="18.7041"
     font-family="Helvetica"
     id="text192">10</text>
  <path
     d="M63.9961,250.095h -6.80315"
     fill="none"
     stroke="black"
     id="path194" />
  <path
     d="M63.9961,220.494h -6.80315"
     fill="none"
     stroke="black"
     id="path196" />
  <path
     d="M63.9961,199.492h -6.80315"
     fill="none"
     stroke="black"
     id="path198" />
  <path
     d="M63.9961,183.201h -6.80315"
     fill="none"
     stroke="black"
     id="path200" />
  <path
     d="M63.9961,169.891h -6.80315"
     fill="none"
     stroke="black"
     id="path202" />
  <path
     d="M63.9961,158.637h -6.80315"
     fill="none"
     stroke="black"
     id="path204" />
  <path
     d="M63.9961,148.889h -6.80315"
     fill="none"
     stroke="black"
     id="path206" />
  <path
     d="M63.9961,140.29h -6.80315"
     fill="none"
     stroke="black"
     id="path208" />
  <path
     d="M70.7992,132.599h -13.6063"
     fill="none"
     stroke="black"
     id="path210" />
  <text
     xml:space="preserve"
     x="46.0674"
     y="132.56"
     fill="black"
     font-size="12.6361"
     font-family="Helvetica"
     id="text212">6</text>
  <text
     xml:space="preserve"
     x="26.5385"
     y="140.845"
     fill="black"
     font-size="18.7041"
     font-family="Helvetica"
     id="text214">10</text>
  <path
     d="M63.9961,81.9959h -6.80315"
     fill="none"
     stroke="black"
     id="path216" />
  <g
     fill="#ff0000"
     id="g238">
    <rect
       x="75.4414"
       y="116.116"
       width="4.73427"
       height="4.73427"
       id="rect218" />
    <rect
       x="116.673"
       y="83.7105"
       width="4.73427"
       height="4.73427"
       id="rect220" />
    <rect
       x="157.904"
       y="109.012"
       width="4.73427"
       height="4.73427"
       id="rect222" />
    <rect
       x="199.135"
       y="142.391"
       width="4.73427"
       height="4.73427"
       id="rect224" />
    <rect
       x="240.366"
       y="175.112"
       width="4.73427"
       height="4.73427"
       id="rect226" />
    <rect
       x="281.597"
       y="204.394"
       width="4.73427"
       height="4.73427"
       id="rect228" />
    <rect
       x="322.829"
       y="227.581"
       width="4.73427"
       height="4.73427"
       id="rect230" />
    <rect
       x="364.06"
       y="244.932"
       width="4.73427"
       height="4.73427"
       id="rect232" />
    <rect
       x="405.291"
       y="264.301"
       width="4.73427"
       height="4.73427"
       id="rect234" />
    <rect
       x="446.522"
       y="233.868"
       width="4.73427"
       height="4.73427"
       id="rect236" />
  </g>
  <path
     d="M75.4414,118.483h -18.2485"
     fill="none"
     stroke="black"
     id="path240" />
  <path
     d="M57.1929,119.667v -2.36714"
     fill="none"
     stroke="black"
     id="path242" />
  <path
     d="M80.1757,118.483h 18.2485"
     fill="none"
     stroke="black"
     id="path244" />
  <path
     d="M98.4241,119.667v -2.36714"
     fill="none"
     stroke="black"
     id="path246" />
  <path
     d="M116.673,86.0776h -18.2485"
     fill="none"
     stroke="black"
     id="path248" />
  <path
     d="M98.4241,87.2612v -2.36714"
     fill="none"
     stroke="black"
     id="path250" />
  <path
     d="M121.407,86.0776h 18.2485"
     fill="none"
     stroke="black"
     id="path252" />
  <path
     d="M139.655,87.2612v -2.36714"
     fill="none"
     stroke="black"
     id="path254" />
  <path
     d="M157.904,111.38h -18.2485"
     fill="none"
     stroke="black"
     id="path256" />
  <path
     d="M139.655,112.563v -2.36714"
     fill="none"
     stroke="black"
     id="path258" />
  <path
     d="M162.638,111.38h 18.2485"
     fill="none"
     stroke="black"
     id="path260" />
  <path
     d="M180.887,112.563v -2.36714"
     fill="none"
     stroke="black"
     id="path262" />
  <path
     d="M199.135,144.758h -18.2485"
     fill="none"
     stroke="black"
     id="path264" />
  <path
     d="M180.887,145.941v -2.36714"
     fill="none"
     stroke="black"
     id="path266" />
  <path
     d="M203.869,144.758h 18.2485"
     fill="none"
     stroke="black"
     id="path268" />
  <path
     d="M222.118,145.941v -2.36714"
     fill="none"
     stroke="black"
     id="path270" />
  <path
     d="M240.366,177.479h -18.2485"
     fill="none"
     stroke="black"
     id="path272" />
  <path
     d="M222.118,178.662v -2.36714"
     fill="none"
     stroke="black"
     id="path274" />
  <path
     d="M245.1,177.479h 18.2485"
     fill="none"
     stroke="black"
     id="path276" />
  <path
     d="M263.349,178.662v -2.36714"
     fill="none"
     stroke="black"
     id="path278" />
  <path
     d="M281.597,206.761h -18.2485"
     fill="none"
     stroke="black"
     id="path280" />
  <path
     d="M263.349,207.945v -2.36714"
     fill="none"
     stroke="black"
     id="path282" />
  <path
     d="M286.332,206.761h 18.2485"
     fill="none"
     stroke="black"
     id="path284" />
  <path
     d="M304.58,207.945v -2.36714"
     fill="none"
     stroke="black"
     id="path286" />
  <path
     d="M322.829,229.948h -18.2485"
     fill="none"
     stroke="black"
     id="path288" />
  <path
     d="M304.58,231.132v -2.36714"
     fill="none"
     stroke="black"
     id="path290" />
  <path
     d="M327.563,229.948h 18.2485"
     fill="none"
     stroke="black"
     id="path292" />
  <path
     d="M345.811,231.132v -2.36714"
     fill="none"
     stroke="black"
     id="path294" />
  <path
     d="M364.06,247.299h -18.2485"
     fill="none"
     stroke="black"
     id="path296" />
  <path
     d="M345.811,248.483v -2.36714"
     fill="none"
     stroke="black"
     id="path298" />
  <path
     d="M368.794,247.299h 18.2485"
     fill="none"
     stroke="black"
     id="path300" />
  <path
     d="M387.043,248.483v -2.36714"
     fill="none"
     stroke="black"
     id="path302" />
  <path
     d="M405.291,266.669h -18.2485"
     fill="none"
     stroke="black"
     id="path304" />
  <path
     d="M387.043,267.852v -2.36714"
     fill="none"
     stroke="black"
     id="path306" />
  <path
     d="M410.025,266.669h 18.2485"
     fill="none"
     stroke="black"
     id="path308" />
  <path
     d="M428.274,267.852v -2.36714"
     fill="none"
     stroke="black"
     id="path310" />
  <path
     d="M446.522,236.235h -18.2485"
     fill="none"
     stroke="black"
     id="path312" />
  <path
     d="M428.274,237.419v -2.36714"
     fill="none"
     stroke="black"
     id="path314" />
  <path
     d="M451.257,236.235h 18.2485"
     fill="none"
     stroke="black"
     id="path316" />
  <path
     d="M469.505,237.419v -2.36714"
     fill="none"
     stroke="black"
     id="path318" />
  <path
     d="M75.4414,144.939h -18.2485"
     fill="none"
     stroke="black"
     id="path320" />
  <path
     d="M57.1929,146.123v -2.36714"
     fill="none"
     stroke="black"
     id="path322" />
  <path
     d="M80.1757,144.939h 18.2485"
     fill="none"
     stroke="black"
     id="path324" />
  <path
     d="M98.4241,146.123v -2.36714"
     fill="none"
     stroke="black"
     id="path326" />
  <path
     d="M116.673,142.601h -18.2485"
     fill="none"
     stroke="black"
     id="path328" />
  <path
     d="M98.4241,143.785v -2.36714"
     fill="none"
     stroke="black"
     id="path330" />
  <path
     d="M121.407,142.601h 18.2485"
     fill="none"
     stroke="black"
     id="path332" />
  <path
     d="M139.655,143.785v -2.36714"
     fill="none"
     stroke="black"
     id="path334" />
  <path
     d="M157.904,181.862h -18.2485"
     fill="none"
     stroke="black"
     id="path336" />
  <path
     d="M139.655,183.045v -2.36714"
     fill="none"
     stroke="black"
     id="path338" />
  <path
     d="M162.638,181.862h 18.2485"
     fill="none"
     stroke="black"
     id="path340" />
  <path
     d="M180.887,183.045v -2.36714"
     fill="none"
     stroke="black"
     id="path342" />
  <path
     d="M199.135,220.464h -18.2485"
     fill="none"
     stroke="black"
     id="path344" />
  <path
     d="M180.887,221.648v -2.36714"
     fill="none"
     stroke="black"
     id="path346" />
  <path
     d="M203.869,220.464h 18.2485"
     fill="none"
     stroke="black"
     id="path348" />
  <path
     d="M222.118,221.648v -2.36714"
     fill="none"
     stroke="black"
     id="path350" />
  <path
     d="M240.366,256.927h -18.2485"
     fill="none"
     stroke="black"
     id="path352" />
  <path
     d="M222.118,258.111v -2.36714"
     fill="none"
     stroke="black"
     id="path354" />
  <path
     d="M245.1,256.927h 18.2485"
     fill="none"
     stroke="black"
     id="path356" />
  <path
     d="M263.349,258.111v -2.36714"
     fill="none"
     stroke="black"
     id="path358" />
  <path
     d="M281.597,287.143h -18.2485"
     fill="none"
     stroke="black"
     id="path360" />
  <path
     d="M263.349,288.326v -2.36714"
     fill="none"
     stroke="black"
     id="path362" />
  <path
     d="M286.332,287.143h 18.2485"
     fill="none"
     stroke="black"
     id="path364" />
  <path
     d="M304.58,288.326v -2.36714"
     fill="none"
     stroke="black"
     id="path366" />
  <path
     d="M322.829,313.773h -18.2485"
     fill="none"
     stroke="black"
     id="path368" />
  <path
     d="M304.58,314.957v -2.36714"
     fill="none"
     stroke="black"
     id="path370" />
  <path
     d="M327.563,313.773h 18.2485"
     fill="none"
     stroke="black"
     id="path372" />
  <path
     d="M345.811,314.957v -2.36714"
     fill="none"
     stroke="black"
     id="path374" />
  <path
     d="M364.06,329.967h -18.2485"
     fill="none"
     stroke="black"
     id="path376" />
  <path
     d="M345.811,331.151v -2.36714"
     fill="none"
     stroke="black"
     id="path378" />
  <path
     d="M368.794,329.967h 18.2485"
     fill="none"
     stroke="black"
     id="path380" />
  <path
     d="M387.043,331.151v -2.36714"
     fill="none"
     stroke="black"
     id="path382" />
  <path
     d="M405.291,349.357h -18.2485"
     fill="none"
     stroke="black"
     id="path384" />
  <path
     d="M387.043,350.541v -2.36714"
     fill="none"
     stroke="black"
     id="path386" />
  <path
     d="M410.025,349.357h 18.2485"
     fill="none"
     stroke="black"
     id="path388" />
  <path
     d="M428.274,350.541v -2.36714"
     fill="none"
     stroke="black"
     id="path390" />
  <path
     d="M446.522,324.69h -18.2485"
     fill="none"
     stroke="black"
     id="path392" />
  <path
     d="M428.274,325.873v -2.36714"
     fill="none"
     stroke="black"
     id="path394" />
  <path
     d="M451.257,324.69h 18.2485"
     fill="none"
     stroke="black"
     id="path396" />
  <path
     d="M469.505,325.873v -2.36714"
     fill="none"
     stroke="black"
     id="path398" />
  <g
     fill="#0000ff"
     id="g420">
    <rect
       x="75.4414"
       y="142.572"
       width="4.73427"
       height="4.73427"
       id="rect400" />
    <rect
       x="116.673"
       y="140.234"
       width="4.73427"
       height="4.73427"
       id="rect402" />
    <rect
       x="157.904"
       y="179.495"
       width="4.73427"
       height="4.73427"
       id="rect404" />
    <rect
       x="199.135"
       y="218.097"
       width="4.73427"
       height="4.73427"
       id="rect406" />
    <rect
       x="240.366"
       y="254.56"
       width="4.73427"
       height="4.73427"
       id="rect408" />
    <rect
       x="281.597"
       y="284.776"
       width="4.73427"
       height="4.73427"
       id="rect410" />
    <rect
       x="322.829"
       y="311.406"
       width="4.73427"
       height="4.73427"
       id="rect412" />
    <rect
       x="364.06"
       y="327.6"
       width="4.73427"
       height="4.73427"
       id="rect414" />
    <rect
       x="405.291"
       y="346.99"
       width="4.73427"
       height="4.73427"
       id="rect416" />
    <rect
       x="446.522"
       y="322.323"
       width="4.73427"
       height="4.73427"
       id="rect418" />
  </g>
  <path
     d="M75.4414,242.062h -18.2485"
     fill="none"
     stroke="black"
     id="path422" />
  <path
     d="M57.1929,243.245v -2.36714"
     fill="none"
     stroke="black"
     id="path424" />
  <path
     d="M80.1757,242.062h 18.2485"
     fill="none"
     stroke="black"
     id="path426" />
  <path
     d="M98.4241,243.245v -2.36714"
     fill="none"
     stroke="black"
     id="path428" />
  <path
     d="M116.673,273.135h -18.2485"
     fill="none"
     stroke="black"
     id="path430" />
  <path
     d="M98.4241,274.319v -2.36714"
     fill="none"
     stroke="black"
     id="path432" />
  <path
     d="M121.407,273.135h 18.2485"
     fill="none"
     stroke="black"
     id="path434" />
  <path
     d="M139.655,274.319v -2.36714"
     fill="none"
     stroke="black"
     id="path436" />
  <path
     d="M157.904,331.736h -18.2485"
     fill="none"
     stroke="black"
     id="path438" />
  <path
     d="M139.655,332.92v -2.36714"
     fill="none"
     stroke="black"
     id="path440" />
  <path
     d="M162.638,331.736h 18.2485"
     fill="none"
     stroke="black"
     id="path442" />
  <path
     d="M180.887,332.92v -2.36714"
     fill="none"
     stroke="black"
     id="path444" />
  <path
     d="M199.135,376.156h -18.2485"
     fill="none"
     stroke="black"
     id="path446" />
  <path
     d="M180.887,377.339v -2.36714"
     fill="none"
     stroke="black"
     id="path448" />
  <path
     d="M203.869,376.156h 18.2485"
     fill="none"
     stroke="black"
     id="path450" />
  <path
     d="M222.118,377.339v -2.36714"
     fill="none"
     stroke="black"
     id="path452" />
  <path
     d="M240.366,419.19h -18.2485"
     fill="none"
     stroke="black"
     id="path454" />
  <path
     d="M222.118,420.374v -2.36714"
     fill="none"
     stroke="black"
     id="path456" />
  <path
     d="M245.1,419.19h 18.2485"
     fill="none"
     stroke="black"
     id="path458" />
  <path
     d="M263.349,420.374v -2.36714"
     fill="none"
     stroke="black"
     id="path460" />
  <path
     d="M281.597,449.201h -18.2485"
     fill="none"
     stroke="black"
     id="path462" />
  <path
     d="M263.349,450.385v -2.36714"
     fill="none"
     stroke="black"
     id="path464" />
  <path
     d="M286.332,449.201h 18.2485"
     fill="none"
     stroke="black"
     id="path466" />
  <path
     d="M304.58,450.385v -2.36714"
     fill="none"
     stroke="black"
     id="path468" />
  <path
     d="M322.829,487.812h -18.2485"
     fill="none"
     stroke="black"
     id="path470" />
  <path
     d="M304.58,488.995v -2.36714"
     fill="none"
     stroke="black"
     id="path472" />
  <path
     d="M327.563,487.812h 18.2485"
     fill="none"
     stroke="black"
     id="path474" />
  <path
     d="M345.811,488.995v -2.36714"
     fill="none"
     stroke="black"
     id="path476" />
  <path
     d="M364.06,502.304h -18.2485"
     fill="none"
     stroke="black"
     id="path478" />
  <path
     d="M345.811,503.487v -2.36714"
     fill="none"
     stroke="black"
     id="path480" />
  <path
     d="M368.794,502.304h 18.2485"
     fill="none"
     stroke="black"
     id="path482" />
  <path
     d="M387.043,503.487v -2.36714"
     fill="none"
     stroke="black"
     id="path484" />
  <path
     d="M405.291,521.685h -18.2485"
     fill="none"
     stroke="black"
     id="path486" />
  <path
     d="M387.043,522.868v -2.36714"
     fill="none"
     stroke="black"
     id="path488" />
  <path
     d="M410.025,521.685h 18.2485"
     fill="none"
     stroke="black"
     id="path490" />
  <path
     d="M428.274,522.868v -2.36714"
     fill="none"
     stroke="black"
     id="path492" />
  <path
     d="M446.522,505.58h -18.2485"
     fill="none"
     stroke="black"
     id="path494" />
  <path
     d="M428.274,506.763v -2.36714"
     fill="none"
     stroke="black"
     id="path496" />
  <path
     d="M451.257,505.58h 18.2485"
     fill="none"
     stroke="black"
     id="path498" />
  <path
     d="M469.505,506.763v -2.36714"
     fill="none"
     stroke="black"
     id="path500" />
  <g
     fill="#00ff00"
     id="g522">
    <rect
       x="75.4414"
       y="239.695"
       width="4.73427"
       height="4.73427"
       id="rect502" />
    <rect
       x="116.673"
       y="270.768"
       width="4.73427"
       height="4.73427"
       id="rect504" />
    <rect
       x="157.904"
       y="329.369"
       width="4.73427"
       height="4.73427"
       id="rect506" />
    <rect
       x="199.135"
       y="373.789"
       width="4.73427"
       height="4.73427"
       id="rect508" />
    <rect
       x="240.366"
       y="416.823"
       width="4.73427"
       height="4.73427"
       id="rect510" />
    <rect
       x="281.597"
       y="446.834"
       width="4.73427"
       height="4.73427"
       id="rect512" />
    <rect
       x="322.829"
       y="485.445"
       width="4.73427"
       height="4.73427"
       id="rect514" />
    <rect
       x="364.06"
       y="499.937"
       width="4.73427"
       height="4.73427"
       id="rect516" />
    <rect
       x="405.291"
       y="519.317"
       width="4.73427"
       height="4.73427"
       id="rect518" />
    <rect
       x="446.522"
       y="503.213"
       width="4.73427"
       height="4.73427"
       id="rect520" />
  </g>
  <rect
     x="396.995"
     y="72.7894"
     width="105.338"
     height="49.7099"
     fill="white"
     id="rect524" />
  <path
     d="M396.995,122.499h 105.338"
     fill="none"
     stroke="black"
     id="path526" />
  <path
     d="M502.333,122.499v -49.7099"
     fill="none"
     stroke="black"
     id="path528" />
  <path
     d="M502.333,72.7894h -105.338"
     fill="none"
     stroke="black"
     id="path530" />
  <path
     d="M396.995,72.7894v 49.7099"
     fill="none"
     stroke="black"
     id="path532" />
  <text
     xml:space="preserve"
     x="423.034"
     y="84.6251"
     fill="black"
     font-size="11.0491"
     font-family="Helvetica"
     id="text534">DC</text>
  <path
     d="M400.945,81.0744h 18.4341"
     fill="none"
     stroke="black"
     id="path536" />
  <g
     fill="#ff0000"
     id="g540">
    <rect
       x="407.795"
       y="78.7073"
       width="4.73427"
       height="4.73427"
       id="rect538" />
  </g>
  <text
     xml:space="preserve"
     x="423.034"
     y="101.195"
     fill="black"
     font-size="11.0491"
     font-family="Helvetica"
     id="text542">FMT - 2 layers</text>
  <path
     d="M400.945,97.6444h 18.4341"
     fill="none"
     stroke="black"
     id="path544" />
  <g
     fill="#0000ff"
     id="g548">
    <rect
       x="407.795"
       y="95.2772"
       width="4.73427"
       height="4.73427"
       id="rect546" />
  </g>
  <text
     xml:space="preserve"
     x="423.034"
     y="117.765"
     fill="black"
     font-size="11.0491"
     font-family="Helvetica"
     id="text550">FMT - 3 layers</text>
  <path
     d="M400.945,114.214h 18.4341"
     fill="none"
     stroke="black"
     id="path552" />
  <g
     fill="#00ff00"
     id="g556">
    <rect
       x="407.795"
       y="111.847"
       width="4.73427"
       height="4.73427"
       id="rect554" />
  </g>
  <text
     xml:space="preserve"
     x="285.74"
     y="30.181"
     fill="black"
     font-size="16.7104"
     font-family="Helvetica"
     id="text558">h</text>
  <text
     xml:space="preserve"
     x="273.904"
     y="22.4878"
     fill="black"
     font-size="24.8155"
     font-family="Helvetica"
     id="text560">z</text>
</svg>
