<?xml version="1.0" encoding="UTF-8" standalone="no"?>
<svg
   width="567.429"
   height="608.262"
   viewBox="0 0 567.429 608.262"
   shape-rendering="crispEdges"
   version="1.1"
   id="svg684"
   sodipodi:docname="int_pt2_-211.svg"
   inkscape:export-filename="int_pt2_-211.pdf"
   inkscape:export-xdpi="96"
   inkscape:export-ydpi="96"
   inkscape:version="1.2.2 (1:1.2.2+202305151914+b0a8486541)"
   xmlns:inkscape="http://www.inkscape.org/namespaces/inkscape"
   xmlns:sodipodi="http://sodipodi.sourceforge.net/DTD/sodipodi-0.dtd"
   xmlns="http://www.w3.org/2000/svg"
   xmlns:svg="http://www.w3.org/2000/svg">
  <sodipodi:namedview
     id="namedview686"
     pagecolor="#ffffff"
     bordercolor="#666666"
     borderopacity="1.0"
     inkscape:showpageshadow="2"
     inkscape:pageopacity="0.0"
     inkscape:pagecheckerboard="0"
     inkscape:deskcolor="#d1d1d1"
     showgrid="false"
     inkscape:zoom="0.38799069"
     inkscape:cx="283.51196"
     inkscape:cy="304.13101"
     inkscape:window-width="1920"
     inkscape:window-height="1051"
     inkscape:window-x="0"
     inkscape:window-y="0"
     inkscape:window-maximized="1"
     inkscape:current-layer="svg684" />
  <title
     id="title2">
/home/twig/code/rge-analysis/macros/int_pt2_-211.svg
</title>
  <desc
     id="desc4">
Creator: ROOT Version 6.28/00
CreationDate: Tue Jun 27 11:57:30 2023</desc>
  <defs
     id="defs6" />
  <rect
     x="0.5"
     y="0"
     width="566.929"
     height="607.762"
     fill="white"
     id="rect8" />
  <rect
     x="57.1929"
     y="60.7762"
     width="453.543"
     height="486.21"
     fill="white"
     id="rect10" />
  <rect
     x="57.1929"
     y="60.7762"
     width="453.543"
     height="486.21"
     fill="none"
     stroke="black"
     id="rect12" />
  <rect
     x="57.1929"
     y="60.7762"
     width="453.543"
     height="486.21"
     fill="white"
     id="rect14" />
  <rect
     x="57.1929"
     y="60.7762"
     width="453.543"
     height="486.21"
     fill="none"
     stroke="black"
     id="rect16" />
  <path
     d="M57.1929,546.986h 453.543"
     fill="none"
     stroke="black"
     id="path18" />
  <path
     d="M57.1929,60.7762v 486.21"
     fill="none"
     stroke="black"
     stroke-dasharray=" 1, 2"
     id="path20" />
  <path
     d="M98.4241,60.7762v 486.21"
     fill="none"
     stroke="black"
     stroke-dasharray=" 1, 2"
     id="path22" />
  <path
     d="M139.655,60.7762v 486.21"
     fill="none"
     stroke="black"
     stroke-dasharray=" 1, 2"
     id="path24" />
  <path
     d="M180.887,60.7762v 486.21"
     fill="none"
     stroke="black"
     stroke-dasharray=" 1, 2"
     id="path26" />
  <path
     d="M222.118,60.7762v 486.21"
     fill="none"
     stroke="black"
     stroke-dasharray=" 1, 2"
     id="path28" />
  <path
     d="M263.349,60.7762v 486.21"
     fill="none"
     stroke="black"
     stroke-dasharray=" 1, 2"
     id="path30" />
  <path
     d="M304.58,60.7762v 486.21"
     fill="none"
     stroke="black"
     stroke-dasharray=" 1, 2"
     id="path32" />
  <path
     d="M345.811,60.7762v 486.21"
     fill="none"
     stroke="black"
     stroke-dasharray=" 1, 2"
     id="path34" />
  <path
     d="M387.043,60.7762v 486.21"
     fill="none"
     stroke="black"
     stroke-dasharray=" 1, 2"
     id="path36" />
  <path
     d="M428.274,60.7762v 486.21"
     fill="none"
     stroke="black"
     stroke-dasharray=" 1, 2"
     id="path38" />
  <path
     d="M469.505,60.7762v 486.21"
     fill="none"
     stroke="black"
     stroke-dasharray=" 1, 2"
     id="path40" />
  <path
     d="M510.736,60.7762v 486.21"
     fill="none"
     stroke="black"
     stroke-dasharray=" 1, 2"
     id="path42" />
  <path
     d="M57.1929,546.986v -486.21"
     fill="none"
     stroke="black"
     id="path44" />
  <path
     d="M510.736,507.174h -453.543"
     fill="none"
     stroke="black"
     stroke-dasharray=" 1, 2"
     id="path46" />
  <path
     d="M510.736,414.663h -453.543"
     fill="none"
     stroke="black"
     stroke-dasharray=" 1, 2"
     id="path48" />
  <path
     d="M510.736,322.153h -453.543"
     fill="none"
     stroke="black"
     stroke-dasharray=" 1, 2"
     id="path50" />
  <path
     d="M510.736,229.642h -453.543"
     fill="none"
     stroke="black"
     stroke-dasharray=" 1, 2"
     id="path52" />
  <path
     d="M510.736,137.132h -453.543"
     fill="none"
     stroke="black"
     stroke-dasharray=" 1, 2"
     id="path54" />
  <path
     d="M57.1929,546.986h 453.543"
     fill="none"
     stroke="black"
     id="path56" />
  <path
     d="M57.1929,532.4v 14.5863"
     fill="none"
     stroke="black"
     id="path58" />
  <path
     d="M67.5007,539.693v 7.29315"
     fill="none"
     stroke="black"
     id="path60" />
  <path
     d="M77.8085,539.693v 7.29315"
     fill="none"
     stroke="black"
     id="path62" />
  <path
     d="M88.1163,539.693v 7.29315"
     fill="none"
     stroke="black"
     id="path64" />
  <path
     d="M98.4241,532.4v 14.5863"
     fill="none"
     stroke="black"
     id="path66" />
  <path
     d="M108.732,539.693v 7.29315"
     fill="none"
     stroke="black"
     id="path68" />
  <path
     d="M119.04,539.693v 7.29315"
     fill="none"
     stroke="black"
     id="path70" />
  <path
     d="M129.348,539.693v 7.29315"
     fill="none"
     stroke="black"
     id="path72" />
  <path
     d="M139.655,532.4v 14.5863"
     fill="none"
     stroke="black"
     id="path74" />
  <path
     d="M149.963,539.693v 7.29315"
     fill="none"
     stroke="black"
     id="path76" />
  <path
     d="M160.271,539.693v 7.29315"
     fill="none"
     stroke="black"
     id="path78" />
  <path
     d="M170.579,539.693v 7.29315"
     fill="none"
     stroke="black"
     id="path80" />
  <path
     d="M180.887,532.4v 14.5863"
     fill="none"
     stroke="black"
     id="path82" />
  <path
     d="M191.194,539.693v 7.29315"
     fill="none"
     stroke="black"
     id="path84" />
  <path
     d="M201.502,539.693v 7.29315"
     fill="none"
     stroke="black"
     id="path86" />
  <path
     d="M211.81,539.693v 7.29315"
     fill="none"
     stroke="black"
     id="path88" />
  <path
     d="M222.118,532.4v 14.5863"
     fill="none"
     stroke="black"
     id="path90" />
  <path
     d="M232.426,539.693v 7.29315"
     fill="none"
     stroke="black"
     id="path92" />
  <path
     d="M242.733,539.693v 7.29315"
     fill="none"
     stroke="black"
     id="path94" />
  <path
     d="M253.041,539.693v 7.29315"
     fill="none"
     stroke="black"
     id="path96" />
  <path
     d="M263.349,532.4v 14.5863"
     fill="none"
     stroke="black"
     id="path98" />
  <path
     d="M273.657,539.693v 7.29315"
     fill="none"
     stroke="black"
     id="path100" />
  <path
     d="M283.965,539.693v 7.29315"
     fill="none"
     stroke="black"
     id="path102" />
  <path
     d="M294.272,539.693v 7.29315"
     fill="none"
     stroke="black"
     id="path104" />
  <path
     d="M304.58,532.4v 14.5863"
     fill="none"
     stroke="black"
     id="path106" />
  <path
     d="M314.888,539.693v 7.29315"
     fill="none"
     stroke="black"
     id="path108" />
  <path
     d="M325.196,539.693v 7.29315"
     fill="none"
     stroke="black"
     id="path110" />
  <path
     d="M335.504,539.693v 7.29315"
     fill="none"
     stroke="black"
     id="path112" />
  <path
     d="M345.811,532.4v 14.5863"
     fill="none"
     stroke="black"
     id="path114" />
  <path
     d="M356.119,539.693v 7.29315"
     fill="none"
     stroke="black"
     id="path116" />
  <path
     d="M366.427,539.693v 7.29315"
     fill="none"
     stroke="black"
     id="path118" />
  <path
     d="M376.735,539.693v 7.29315"
     fill="none"
     stroke="black"
     id="path120" />
  <path
     d="M387.043,532.4v 14.5863"
     fill="none"
     stroke="black"
     id="path122" />
  <path
     d="M397.35,539.693v 7.29315"
     fill="none"
     stroke="black"
     id="path124" />
  <path
     d="M407.658,539.693v 7.29315"
     fill="none"
     stroke="black"
     id="path126" />
  <path
     d="M417.966,539.693v 7.29315"
     fill="none"
     stroke="black"
     id="path128" />
  <path
     d="M428.274,532.4v 14.5863"
     fill="none"
     stroke="black"
     id="path130" />
  <path
     d="M438.582,539.693v 7.29315"
     fill="none"
     stroke="black"
     id="path132" />
  <path
     d="M448.889,539.693v 7.29315"
     fill="none"
     stroke="black"
     id="path134" />
  <path
     d="M459.197,539.693v 7.29315"
     fill="none"
     stroke="black"
     id="path136" />
  <path
     d="M469.505,532.4v 14.5863"
     fill="none"
     stroke="black"
     id="path138" />
  <path
     d="M479.813,539.693v 7.29315"
     fill="none"
     stroke="black"
     id="path140" />
  <path
     d="M490.121,539.693v 7.29315"
     fill="none"
     stroke="black"
     id="path142" />
  <path
     d="M500.428,539.693v 7.29315"
     fill="none"
     stroke="black"
     id="path144" />
  <path
     d="M510.736,532.4v 14.5863"
     fill="none"
     stroke="black"
     id="path146" />
  <text
     xml:space="preserve"
     x="51.9852"
     y="566.929"
     fill="black"
     font-size="18.7041"
     font-family="Helvetica"
     id="text148">0</text>
  <text
     xml:space="preserve"
     x="85.7169"
     y="566.929"
     fill="black"
     font-size="18.7041"
     font-family="Helvetica"
     id="text150">0.2</text>
  <text
     xml:space="preserve"
     x="127.142"
     y="566.929"
     fill="black"
     font-size="18.7041"
     font-family="Helvetica"
     id="text152">0.4</text>
  <text
     xml:space="preserve"
     x="167.975"
     y="566.929"
     fill="black"
     font-size="18.7041"
     font-family="Helvetica"
     id="text154">0.6</text>
  <text
     xml:space="preserve"
     x="209.4"
     y="566.929"
     fill="black"
     font-size="18.7041"
     font-family="Helvetica"
     id="text156">0.8</text>
  <text
     xml:space="preserve"
     x="259.701"
     y="566.929"
     fill="black"
     font-size="18.7041"
     font-family="Helvetica"
     id="text158">1</text>
  <text
     xml:space="preserve"
     x="291.658"
     y="566.929"
     fill="black"
     font-size="18.7041"
     font-family="Helvetica"
     id="text160">1.2</text>
  <text
     xml:space="preserve"
     x="333.083"
     y="566.929"
     fill="black"
     font-size="18.7041"
     font-family="Helvetica"
     id="text162">1.4</text>
  <text
     xml:space="preserve"
     x="374.508"
     y="566.929"
     fill="black"
     font-size="18.7041"
     font-family="Helvetica"
     id="text164">1.6</text>
  <text
     xml:space="preserve"
     x="415.341"
     y="566.929"
     fill="black"
     font-size="18.7041"
     font-family="Helvetica"
     id="text166">1.8</text>
  <text
     xml:space="preserve"
     x="464.459"
     y="566.929"
     fill="black"
     font-size="18.7041"
     font-family="Helvetica"
     id="text168">2</text>
  <text
     xml:space="preserve"
     x="498.19"
     y="566.929"
     fill="black"
     font-size="18.7041"
     font-family="Helvetica"
     id="text170">2.2</text>
  <text
     xml:space="preserve"
     x="505.884"
     y="584.683"
     fill="black"
     font-size="18.7041"
     font-family="Helvetica"
     id="text172">)</text>
  <text
     xml:space="preserve"
     x="499.374"
     y="576.398"
     fill="black"
     font-size="12.6361"
     font-family="Helvetica"
     id="text174">2</text>
  <text
     xml:space="preserve"
     x="451.439"
     y="584.683"
     fill="black"
     font-size="18.7041"
     font-family="Helvetica"
     id="text176"> (GeV</text>
  <text
     xml:space="preserve"
     x="443.746"
     y="578.173"
     fill="black"
     font-size="12.6361"
     font-family="Helvetica"
     id="text178">2</text>
  <text
     xml:space="preserve"
     x="443.746"
     y="594.151"
     fill="black"
     font-size="12.6361"
     font-family="Helvetica"
     id="text180">T</text>
  <text
     xml:space="preserve"
     x="433.686"
     y="584.683"
     fill="black"
     font-size="18.7041"
     font-family="Helvetica"
     id="text182">p</text>
  <path
     d="M57.1929,546.986v -486.21"
     fill="none"
     stroke="black"
     id="path184" />
  <path
     d="M63.9961,543.987h -6.80315"
     fill="none"
     stroke="black"
     id="path186" />
  <path
     d="M63.9961,535.022h -6.80315"
     fill="none"
     stroke="black"
     id="path188" />
  <path
     d="M63.9961,527.697h -6.80315"
     fill="none"
     stroke="black"
     id="path190" />
  <path
     d="M63.9961,521.504h -6.80315"
     fill="none"
     stroke="black"
     id="path192" />
  <path
     d="M63.9961,516.139h -6.80315"
     fill="none"
     stroke="black"
     id="path194" />
  <path
     d="M63.9961,511.407h -6.80315"
     fill="none"
     stroke="black"
     id="path196" />
  <path
     d="M70.7992,507.174h -13.6063"
     fill="none"
     stroke="black"
     id="path198" />
  <text
     xml:space="preserve"
     x="46.0674"
     y="507.751"
     fill="black"
     font-size="12.6361"
     font-family="Helvetica"
     id="text200">2</text>
  <text
     xml:space="preserve"
     x="26.5385"
     y="515.444"
     fill="black"
     font-size="18.7041"
     font-family="Helvetica"
     id="text202">10</text>
  <path
     d="M63.9961,479.325h -6.80315"
     fill="none"
     stroke="black"
     id="path204" />
  <path
     d="M63.9961,463.035h -6.80315"
     fill="none"
     stroke="black"
     id="path206" />
  <path
     d="M63.9961,451.477h -6.80315"
     fill="none"
     stroke="black"
     id="path208" />
  <path
     d="M63.9961,442.512h -6.80315"
     fill="none"
     stroke="black"
     id="path210" />
  <path
     d="M63.9961,435.186h -6.80315"
     fill="none"
     stroke="black"
     id="path212" />
  <path
     d="M63.9961,428.993h -6.80315"
     fill="none"
     stroke="black"
     id="path214" />
  <path
     d="M63.9961,423.628h -6.80315"
     fill="none"
     stroke="black"
     id="path216" />
  <path
     d="M63.9961,418.896h -6.80315"
     fill="none"
     stroke="black"
     id="path218" />
  <path
     d="M70.7992,414.663h -13.6063"
     fill="none"
     stroke="black"
     id="path220" />
  <text
     xml:space="preserve"
     x="46.0674"
     y="414.249"
     fill="black"
     font-size="12.6361"
     font-family="Helvetica"
     id="text222">3</text>
  <text
     xml:space="preserve"
     x="26.5385"
     y="422.534"
     fill="black"
     font-size="18.7041"
     font-family="Helvetica"
     id="text224">10</text>
  <path
     d="M63.9961,386.815h -6.80315"
     fill="none"
     stroke="black"
     id="path226" />
  <path
     d="M63.9961,370.524h -6.80315"
     fill="none"
     stroke="black"
     id="path228" />
  <path
     d="M63.9961,358.966h -6.80315"
     fill="none"
     stroke="black"
     id="path230" />
  <path
     d="M63.9961,350.001h -6.80315"
     fill="none"
     stroke="black"
     id="path232" />
  <path
     d="M63.9961,342.676h -6.80315"
     fill="none"
     stroke="black"
     id="path234" />
  <path
     d="M63.9961,336.483h -6.80315"
     fill="none"
     stroke="black"
     id="path236" />
  <path
     d="M63.9961,331.118h -6.80315"
     fill="none"
     stroke="black"
     id="path238" />
  <path
     d="M63.9961,326.386h -6.80315"
     fill="none"
     stroke="black"
     id="path240" />
  <path
     d="M70.7992,322.153h -13.6063"
     fill="none"
     stroke="black"
     id="path242" />
  <text
     xml:space="preserve"
     x="46.0674"
     y="322.522"
     fill="black"
     font-size="12.6361"
     font-family="Helvetica"
     id="text244">4</text>
  <text
     xml:space="preserve"
     x="26.5385"
     y="330.215"
     fill="black"
     font-size="18.7041"
     font-family="Helvetica"
     id="text246">10</text>
  <path
     d="M63.9961,294.304h -6.80315"
     fill="none"
     stroke="black"
     id="path248" />
  <path
     d="M63.9961,278.014h -6.80315"
     fill="none"
     stroke="black"
     id="path250" />
  <path
     d="M63.9961,266.456h -6.80315"
     fill="none"
     stroke="black"
     id="path252" />
  <path
     d="M63.9961,257.491h -6.80315"
     fill="none"
     stroke="black"
     id="path254" />
  <path
     d="M63.9961,250.166h -6.80315"
     fill="none"
     stroke="black"
     id="path256" />
  <path
     d="M63.9961,243.972h -6.80315"
     fill="none"
     stroke="black"
     id="path258" />
  <path
     d="M63.9961,238.607h -6.80315"
     fill="none"
     stroke="black"
     id="path260" />
  <path
     d="M63.9961,233.875h -6.80315"
     fill="none"
     stroke="black"
     id="path262" />
  <path
     d="M70.7992,229.642h -13.6063"
     fill="none"
     stroke="black"
     id="path264" />
  <text
     xml:space="preserve"
     x="46.0674"
     y="229.612"
     fill="black"
     font-size="12.6361"
     font-family="Helvetica"
     id="text266">5</text>
  <text
     xml:space="preserve"
     x="26.5385"
     y="237.897"
     fill="black"
     font-size="18.7041"
     font-family="Helvetica"
     id="text268">10</text>
  <path
     d="M63.9961,201.794h -6.80315"
     fill="none"
     stroke="black"
     id="path270" />
  <path
     d="M63.9961,185.503h -6.80315"
     fill="none"
     stroke="black"
     id="path272" />
  <path
     d="M63.9961,173.945h -6.80315"
     fill="none"
     stroke="black"
     id="path274" />
  <path
     d="M63.9961,164.98h -6.80315"
     fill="none"
     stroke="black"
     id="path276" />
  <path
     d="M63.9961,157.655h -6.80315"
     fill="none"
     stroke="black"
     id="path278" />
  <path
     d="M63.9961,151.462h -6.80315"
     fill="none"
     stroke="black"
     id="path280" />
  <path
     d="M63.9961,146.097h -6.80315"
     fill="none"
     stroke="black"
     id="path282" />
  <path
     d="M63.9961,141.365h -6.80315"
     fill="none"
     stroke="black"
     id="path284" />
  <path
     d="M70.7992,137.132h -13.6063"
     fill="none"
     stroke="black"
     id="path286" />
  <text
     xml:space="preserve"
     x="46.0674"
     y="136.702"
     fill="black"
     font-size="12.6361"
     font-family="Helvetica"
     id="text288">6</text>
  <text
     xml:space="preserve"
     x="26.5385"
     y="144.987"
     fill="black"
     font-size="18.7041"
     font-family="Helvetica"
     id="text290">10</text>
  <path
     d="M63.9961,109.283h -6.80315"
     fill="none"
     stroke="black"
     id="path292" />
  <path
     d="M63.9961,92.9929h -6.80315"
     fill="none"
     stroke="black"
     id="path294" />
  <path
     d="M63.9961,81.4348h -6.80315"
     fill="none"
     stroke="black"
     id="path296" />
  <path
     d="M63.9961,72.4696h -6.80315"
     fill="none"
     stroke="black"
     id="path298" />
  <path
     d="M63.9961,65.1445h -6.80315"
     fill="none"
     stroke="black"
     id="path300" />
  <g
     fill="#ff0000"
     id="g322">
    <rect
       x="75.4414"
       y="72.3333"
       width="4.73427"
       height="4.73427"
       id="rect302" />
    <rect
       x="116.673"
       y="144.358"
       width="4.73427"
       height="4.73427"
       id="rect304" />
    <rect
       x="157.904"
       y="183.83"
       width="4.73427"
       height="4.73427"
       id="rect306" />
    <rect
       x="199.135"
       y="221.889"
       width="4.73427"
       height="4.73427"
       id="rect308" />
    <rect
       x="240.366"
       y="257.973"
       width="4.73427"
       height="4.73427"
       id="rect310" />
    <rect
       x="281.597"
       y="298.137"
       width="4.73427"
       height="4.73427"
       id="rect312" />
    <rect
       x="322.829"
       y="350.049"
       width="4.73427"
       height="4.73427"
       id="rect314" />
    <rect
       x="364.06"
       y="402.733"
       width="4.73427"
       height="4.73427"
       id="rect316" />
    <rect
       x="405.291"
       y="453.194"
       width="4.73427"
       height="4.73427"
       id="rect318" />
    <rect
       x="446.522"
       y="488.072"
       width="4.73427"
       height="4.73427"
       id="rect320" />
  </g>
  <path
     d="M75.4414,74.7004h -18.2485"
     fill="none"
     stroke="black"
     id="path324" />
  <path
     d="M57.1929,75.884v -2.36714"
     fill="none"
     stroke="black"
     id="path326" />
  <path
     d="M80.1757,74.7004h 18.2485"
     fill="none"
     stroke="black"
     id="path328" />
  <path
     d="M98.4241,75.884v -2.36714"
     fill="none"
     stroke="black"
     id="path330" />
  <path
     d="M116.673,146.726h -18.2485"
     fill="none"
     stroke="black"
     id="path332" />
  <path
     d="M98.4241,147.909v -2.36714"
     fill="none"
     stroke="black"
     id="path334" />
  <path
     d="M121.407,146.726h 18.2485"
     fill="none"
     stroke="black"
     id="path336" />
  <path
     d="M139.655,147.909v -2.36714"
     fill="none"
     stroke="black"
     id="path338" />
  <path
     d="M157.904,186.197h -18.2485"
     fill="none"
     stroke="black"
     id="path340" />
  <path
     d="M139.655,187.381v -2.36714"
     fill="none"
     stroke="black"
     id="path342" />
  <path
     d="M162.638,186.197h 18.2485"
     fill="none"
     stroke="black"
     id="path344" />
  <path
     d="M180.887,187.381v -2.36714"
     fill="none"
     stroke="black"
     id="path346" />
  <path
     d="M199.135,224.256h -18.2485"
     fill="none"
     stroke="black"
     id="path348" />
  <path
     d="M180.887,225.44v -2.36714"
     fill="none"
     stroke="black"
     id="path350" />
  <path
     d="M203.869,224.256h 18.2485"
     fill="none"
     stroke="black"
     id="path352" />
  <path
     d="M222.118,225.44v -2.36714"
     fill="none"
     stroke="black"
     id="path354" />
  <path
     d="M240.366,260.34h -18.2485"
     fill="none"
     stroke="black"
     id="path356" />
  <path
     d="M222.118,261.523v -2.36714"
     fill="none"
     stroke="black"
     id="path358" />
  <path
     d="M245.1,260.34h 18.2485"
     fill="none"
     stroke="black"
     id="path360" />
  <path
     d="M263.349,261.523v -2.36714"
     fill="none"
     stroke="black"
     id="path362" />
  <path
     d="M281.597,300.504h -18.2485"
     fill="none"
     stroke="black"
     id="path364" />
  <path
     d="M263.349,301.688v -2.36714"
     fill="none"
     stroke="black"
     id="path366" />
  <path
     d="M286.332,300.504h 18.2485"
     fill="none"
     stroke="black"
     id="path368" />
  <path
     d="M304.58,301.688v -2.36714"
     fill="none"
     stroke="black"
     id="path370" />
  <path
     d="M322.829,352.416h -18.2485"
     fill="none"
     stroke="black"
     id="path372" />
  <path
     d="M304.58,353.6v -2.36714"
     fill="none"
     stroke="black"
     id="path374" />
  <path
     d="M327.563,352.416h 18.2485"
     fill="none"
     stroke="black"
     id="path376" />
  <path
     d="M345.811,353.6v -2.36714"
     fill="none"
     stroke="black"
     id="path378" />
  <path
     d="M364.06,405.1h -18.2485"
     fill="none"
     stroke="black"
     id="path380" />
  <path
     d="M345.811,406.283v -2.36714"
     fill="none"
     stroke="black"
     id="path382" />
  <path
     d="M368.794,405.1h 18.2485"
     fill="none"
     stroke="black"
     id="path384" />
  <path
     d="M387.043,406.283v -2.36714"
     fill="none"
     stroke="black"
     id="path386" />
  <path
     d="M405.291,455.561h -18.2485"
     fill="none"
     stroke="black"
     id="path388" />
  <path
     d="M387.043,456.745v -2.36714"
     fill="none"
     stroke="black"
     id="path390" />
  <path
     d="M410.025,455.561h 18.2485"
     fill="none"
     stroke="black"
     id="path392" />
  <path
     d="M428.274,456.745v -2.36714"
     fill="none"
     stroke="black"
     id="path394" />
  <path
     d="M446.522,490.439h -18.2485"
     fill="none"
     stroke="black"
     id="path396" />
  <path
     d="M428.274,491.623v -2.36714"
     fill="none"
     stroke="black"
     id="path398" />
  <path
     d="M451.257,490.439h 18.2485"
     fill="none"
     stroke="black"
     id="path400" />
  <path
     d="M469.505,491.623v -2.36714"
     fill="none"
     stroke="black"
     id="path402" />
  <path
     d="M448.889,488.072v -0.76952"
     fill="none"
     stroke="black"
     id="path404" />
  <path
     d="M447.706,487.303h 2.36714"
     fill="none"
     stroke="black"
     id="path406" />
  <path
     d="M448.889,492.806v 1.0353"
     fill="none"
     stroke="black"
     id="path408" />
  <path
     d="M447.706,493.842h 2.36714"
     fill="none"
     stroke="black"
     id="path410" />
  <path
     d="M75.4414,93.9521h -18.2485"
     fill="none"
     stroke="black"
     id="path412" />
  <path
     d="M57.1929,95.1356v -2.36714"
     fill="none"
     stroke="black"
     id="path414" />
  <path
     d="M80.1757,93.9521h 18.2485"
     fill="none"
     stroke="black"
     id="path416" />
  <path
     d="M98.4241,95.1356v -2.36714"
     fill="none"
     stroke="black"
     id="path418" />
  <path
     d="M116.673,168.949h -18.2485"
     fill="none"
     stroke="black"
     id="path420" />
  <path
     d="M98.4241,170.132v -2.36714"
     fill="none"
     stroke="black"
     id="path422" />
  <path
     d="M121.407,168.949h 18.2485"
     fill="none"
     stroke="black"
     id="path424" />
  <path
     d="M139.655,170.132v -2.36714"
     fill="none"
     stroke="black"
     id="path426" />
  <path
     d="M157.904,208.001h -18.2485"
     fill="none"
     stroke="black"
     id="path428" />
  <path
     d="M139.655,209.184v -2.36714"
     fill="none"
     stroke="black"
     id="path430" />
  <path
     d="M162.638,208.001h 18.2485"
     fill="none"
     stroke="black"
     id="path432" />
  <path
     d="M180.887,209.184v -2.36714"
     fill="none"
     stroke="black"
     id="path434" />
  <path
     d="M199.135,243.007h -18.2485"
     fill="none"
     stroke="black"
     id="path436" />
  <path
     d="M180.887,244.19v -2.36714"
     fill="none"
     stroke="black"
     id="path438" />
  <path
     d="M203.869,243.007h 18.2485"
     fill="none"
     stroke="black"
     id="path440" />
  <path
     d="M222.118,244.19v -2.36714"
     fill="none"
     stroke="black"
     id="path442" />
  <path
     d="M240.366,282.784h -18.2485"
     fill="none"
     stroke="black"
     id="path444" />
  <path
     d="M222.118,283.968v -2.36714"
     fill="none"
     stroke="black"
     id="path446" />
  <path
     d="M245.1,282.784h 18.2485"
     fill="none"
     stroke="black"
     id="path448" />
  <path
     d="M263.349,283.968v -2.36714"
     fill="none"
     stroke="black"
     id="path450" />
  <path
     d="M281.597,320.75h -18.2485"
     fill="none"
     stroke="black"
     id="path452" />
  <path
     d="M263.349,321.934v -2.36714"
     fill="none"
     stroke="black"
     id="path454" />
  <path
     d="M286.332,320.75h 18.2485"
     fill="none"
     stroke="black"
     id="path456" />
  <path
     d="M304.58,321.934v -2.36714"
     fill="none"
     stroke="black"
     id="path458" />
  <path
     d="M322.829,372.25h -18.2485"
     fill="none"
     stroke="black"
     id="path460" />
  <path
     d="M304.58,373.434v -2.36714"
     fill="none"
     stroke="black"
     id="path462" />
  <path
     d="M327.563,372.25h 18.2485"
     fill="none"
     stroke="black"
     id="path464" />
  <path
     d="M345.811,373.434v -2.36714"
     fill="none"
     stroke="black"
     id="path466" />
  <path
     d="M364.06,413.003h -18.2485"
     fill="none"
     stroke="black"
     id="path468" />
  <path
     d="M345.811,414.186v -2.36714"
     fill="none"
     stroke="black"
     id="path470" />
  <path
     d="M368.794,413.003h 18.2485"
     fill="none"
     stroke="black"
     id="path472" />
  <path
     d="M387.043,414.186v -2.36714"
     fill="none"
     stroke="black"
     id="path474" />
  <path
     d="M405.291,453.601h -18.2485"
     fill="none"
     stroke="black"
     id="path476" />
  <path
     d="M387.043,454.785v -2.36714"
     fill="none"
     stroke="black"
     id="path478" />
  <path
     d="M410.025,453.601h 18.2485"
     fill="none"
     stroke="black"
     id="path480" />
  <path
     d="M428.274,454.785v -2.36714"
     fill="none"
     stroke="black"
     id="path482" />
  <path
     d="M446.522,533.062h -18.2485"
     fill="none"
     stroke="black"
     id="path484" />
  <path
     d="M428.274,534.245v -2.36714"
     fill="none"
     stroke="black"
     id="path486" />
  <path
     d="M451.257,533.062h 18.2485"
     fill="none"
     stroke="black"
     id="path488" />
  <path
     d="M469.505,534.245v -2.36714"
     fill="none"
     stroke="black"
     id="path490" />
  <path
     d="M448.889,530.695v -2.82707"
     fill="none"
     stroke="black"
     id="path492" />
  <path
     d="M447.706,527.868h 2.36714"
     fill="none"
     stroke="black"
     id="path494" />
  <path
     d="M448.889,535.429v 3.59973"
     fill="none"
     stroke="black"
     id="path496" />
  <path
     d="M447.706,539.029h 2.36714"
     fill="none"
     stroke="black"
     id="path498" />
  <g
     fill="#0000ff"
     id="g520">
    <rect
       x="75.4414"
       y="91.5849"
       width="4.73427"
       height="4.73427"
       id="rect500" />
    <rect
       x="116.673"
       y="166.581"
       width="4.73427"
       height="4.73427"
       id="rect502" />
    <rect
       x="157.904"
       y="205.634"
       width="4.73427"
       height="4.73427"
       id="rect504" />
    <rect
       x="199.135"
       y="240.639"
       width="4.73427"
       height="4.73427"
       id="rect506" />
    <rect
       x="240.366"
       y="280.417"
       width="4.73427"
       height="4.73427"
       id="rect508" />
    <rect
       x="281.597"
       y="318.383"
       width="4.73427"
       height="4.73427"
       id="rect510" />
    <rect
       x="322.829"
       y="369.883"
       width="4.73427"
       height="4.73427"
       id="rect512" />
    <rect
       x="364.06"
       y="410.636"
       width="4.73427"
       height="4.73427"
       id="rect514" />
    <rect
       x="405.291"
       y="451.234"
       width="4.73427"
       height="4.73427"
       id="rect516" />
    <rect
       x="446.522"
       y="530.695"
       width="4.73427"
       height="4.73427"
       id="rect518" />
  </g>
  <path
     d="M75.4414,161.022h -18.2485"
     fill="none"
     stroke="black"
     id="path522" />
  <path
     d="M57.1929,162.206v -2.36714"
     fill="none"
     stroke="black"
     id="path524" />
  <path
     d="M80.1757,161.022h 18.2485"
     fill="none"
     stroke="black"
     id="path526" />
  <path
     d="M98.4241,162.206v -2.36714"
     fill="none"
     stroke="black"
     id="path528" />
  <path
     d="M116.673,237.478h -18.2485"
     fill="none"
     stroke="black"
     id="path530" />
  <path
     d="M98.4241,238.662v -2.36714"
     fill="none"
     stroke="black"
     id="path532" />
  <path
     d="M121.407,237.478h 18.2485"
     fill="none"
     stroke="black"
     id="path534" />
  <path
     d="M139.655,238.662v -2.36714"
     fill="none"
     stroke="black"
     id="path536" />
  <path
     d="M157.904,277.363h -18.2485"
     fill="none"
     stroke="black"
     id="path538" />
  <path
     d="M139.655,278.547v -2.36714"
     fill="none"
     stroke="black"
     id="path540" />
  <path
     d="M162.638,277.363h 18.2485"
     fill="none"
     stroke="black"
     id="path542" />
  <path
     d="M180.887,278.547v -2.36714"
     fill="none"
     stroke="black"
     id="path544" />
  <path
     d="M199.135,305.98h -18.2485"
     fill="none"
     stroke="black"
     id="path546" />
  <path
     d="M180.887,307.163v -2.36714"
     fill="none"
     stroke="black"
     id="path548" />
  <path
     d="M203.869,305.98h 18.2485"
     fill="none"
     stroke="black"
     id="path550" />
  <path
     d="M222.118,307.163v -2.36714"
     fill="none"
     stroke="black"
     id="path552" />
  <path
     d="M240.366,348.755h -18.2485"
     fill="none"
     stroke="black"
     id="path554" />
  <path
     d="M222.118,349.939v -2.36714"
     fill="none"
     stroke="black"
     id="path556" />
  <path
     d="M245.1,348.755h 18.2485"
     fill="none"
     stroke="black"
     id="path558" />
  <path
     d="M263.349,349.939v -2.36714"
     fill="none"
     stroke="black"
     id="path560" />
  <path
     d="M281.597,382.963h -18.2485"
     fill="none"
     stroke="black"
     id="path562" />
  <path
     d="M263.349,384.147v -2.36714"
     fill="none"
     stroke="black"
     id="path564" />
  <path
     d="M286.332,382.963h 18.2485"
     fill="none"
     stroke="black"
     id="path566" />
  <path
     d="M304.58,384.147v -2.36714"
     fill="none"
     stroke="black"
     id="path568" />
  <path
     d="M322.829,459.531h -18.2485"
     fill="none"
     stroke="black"
     id="path570" />
  <path
     d="M304.58,460.715v -2.36714"
     fill="none"
     stroke="black"
     id="path572" />
  <path
     d="M327.563,459.531h 18.2485"
     fill="none"
     stroke="black"
     id="path574" />
  <path
     d="M345.811,460.715v -2.36714"
     fill="none"
     stroke="black"
     id="path576" />
  <path
     d="M364.06,505.764h -18.2485"
     fill="none"
     stroke="black"
     id="path578" />
  <path
     d="M345.811,506.947v -2.36714"
     fill="none"
     stroke="black"
     id="path580" />
  <path
     d="M368.794,505.764h 18.2485"
     fill="none"
     stroke="black"
     id="path582" />
  <path
     d="M387.043,506.947v -2.36714"
     fill="none"
     stroke="black"
     id="path584" />
  <path
     d="M366.427,503.397v -1.39855"
     fill="none"
     stroke="black"
     id="path586" />
  <path
     d="M365.243,501.998h 2.36714"
     fill="none"
     stroke="black"
     id="path588" />
  <path
     d="M366.427,508.131v 1.78834"
     fill="none"
     stroke="black"
     id="path590" />
  <path
     d="M365.243,509.919h 2.36714"
     fill="none"
     stroke="black"
     id="path592" />
  <path
     d="M405.291,478.678h -18.2485"
     fill="none"
     stroke="black"
     id="path594" />
  <path
     d="M387.043,479.861v -2.36714"
     fill="none"
     stroke="black"
     id="path596" />
  <path
     d="M410.025,478.678h 18.2485"
     fill="none"
     stroke="black"
     id="path598" />
  <path
     d="M428.274,479.861v -2.36714"
     fill="none"
     stroke="black"
     id="path600" />
  <path
     d="M407.658,476.31v -0.356543"
     fill="none"
     stroke="black"
     id="path602" />
  <path
     d="M406.475,475.954h 2.36714"
     fill="none"
     stroke="black"
     id="path604" />
  <path
     d="M407.658,481.045v 0.554702"
     fill="none"
     stroke="black"
     id="path606" />
  <path
     d="M406.475,481.599h 2.36714"
     fill="none"
     stroke="black"
     id="path608" />
  <path
     d="M446.522,546.986h -18.2485"
     fill="none"
     stroke="black"
     id="path610" />
  <path
     d="M428.274,546.986v -1.18357"
     fill="none"
     stroke="black"
     id="path612" />
  <path
     d="M451.257,546.986h 18.2485"
     fill="none"
     stroke="black"
     id="path614" />
  <path
     d="M469.505,546.986v -1.18357"
     fill="none"
     stroke="black"
     id="path616" />
  <g
     fill="#00ff00"
     id="g636">
    <rect
       x="75.4414"
       y="158.655"
       width="4.73427"
       height="4.73427"
       id="rect618" />
    <rect
       x="116.673"
       y="235.111"
       width="4.73427"
       height="4.73427"
       id="rect620" />
    <rect
       x="157.904"
       y="274.996"
       width="4.73427"
       height="4.73427"
       id="rect622" />
    <rect
       x="199.135"
       y="303.613"
       width="4.73427"
       height="4.73427"
       id="rect624" />
    <rect
       x="240.366"
       y="346.388"
       width="4.73427"
       height="4.73427"
       id="rect626" />
    <rect
       x="281.597"
       y="380.596"
       width="4.73427"
       height="4.73427"
       id="rect628" />
    <rect
       x="322.829"
       y="457.164"
       width="4.73427"
       height="4.73427"
       id="rect630" />
    <rect
       x="364.06"
       y="503.397"
       width="4.73427"
       height="4.73427"
       id="rect632" />
    <rect
       x="405.291"
       y="476.31"
       width="4.73427"
       height="4.73427"
       id="rect634" />
  </g>
  <rect
     x="396.995"
     y="72.7894"
     width="105.338"
     height="43.792"
     fill="white"
     id="rect638" />
  <path
     d="M396.995,116.581h 105.338"
     fill="none"
     stroke="black"
     id="path640" />
  <path
     d="M502.333,116.581v -43.792"
     fill="none"
     stroke="black"
     id="path642" />
  <path
     d="M502.333,72.7894h -105.338"
     fill="none"
     stroke="black"
     id="path644" />
  <path
     d="M396.995,72.7894v 43.792"
     fill="none"
     stroke="black"
     id="path646" />
  <text
     xml:space="preserve"
     x="423.034"
     y="82.8498"
     fill="black"
     font-size="10.1224"
     font-family="Helvetica"
     id="text648">DC</text>
  <path
     d="M400.945,80.0881h 18.4341"
     fill="none"
     stroke="black"
     id="path650" />
  <g
     fill="#ff0000"
     id="g654">
    <rect
       x="407.795"
       y="77.721"
       width="4.73427"
       height="4.73427"
       id="rect652" />
  </g>
  <text
     xml:space="preserve"
     x="423.034"
     y="97.6444"
     fill="black"
     font-size="10.1224"
     font-family="Helvetica"
     id="text656">FMT - 2 layers</text>
  <path
     d="M400.945,94.6854h 18.4341"
     fill="none"
     stroke="black"
     id="path658" />
  <g
     fill="#0000ff"
     id="g662">
    <rect
       x="407.795"
       y="92.3183"
       width="4.73427"
       height="4.73427"
       id="rect660" />
  </g>
  <text
     xml:space="preserve"
     x="423.034"
     y="112.439"
     fill="black"
     font-size="10.1224"
     font-family="Helvetica"
     id="text664">FMT - 3 layers</text>
  <path
     d="M400.945,109.283h 18.4341"
     fill="none"
     stroke="black"
     id="path666" />
  <g
     fill="#00ff00"
     id="g670">
    <rect
       x="407.795"
       y="106.916"
       width="4.73427"
       height="4.73427"
       id="rect668" />
  </g>
  <text
     xml:space="preserve"
     x="315.921"
     y="33.7317"
     fill="black"
     font-size="17.711"
     font-family="Helvetica"
     id="text672">)</text>
  <text
     xml:space="preserve"
     x="309.411"
     y="25.4467"
     fill="black"
     font-size="11.974"
     font-family="Helvetica"
     id="text674">2</text>
  <text
     xml:space="preserve"
     x="263.252"
     y="33.7317"
     fill="black"
     font-size="17.711"
     font-family="Helvetica"
     id="text676"> (GeV</text>
  <text
     xml:space="preserve"
     x="256.151"
     y="27.8139"
     fill="black"
     font-size="11.974"
     font-family="Helvetica"
     id="text678">2</text>
  <text
     xml:space="preserve"
     x="256.151"
     y="43.2002"
     fill="black"
     font-size="11.974"
     font-family="Helvetica"
     id="text680">T</text>
  <text
     xml:space="preserve"
     x="246.682"
     y="33.7317"
     fill="black"
     font-size="17.711"
     font-family="Helvetica"
     id="text682">p</text>
</svg>
