<?xml version="1.0" encoding="UTF-8" standalone="no"?>
<svg
   width="567.429"
   height="608.262"
   viewBox="0 0 567.429 608.262"
   shape-rendering="crispEdges"
   version="1.1"
   id="svg658"
   sodipodi:docname="int_pt2_211.svg"
   inkscape:export-filename="int_pt2_211.pdf"
   inkscape:export-xdpi="96"
   inkscape:export-ydpi="96"
   inkscape:version="1.2.2 (1:1.2.2+202305151914+b0a8486541)"
   xmlns:inkscape="http://www.inkscape.org/namespaces/inkscape"
   xmlns:sodipodi="http://sodipodi.sourceforge.net/DTD/sodipodi-0.dtd"
   xmlns="http://www.w3.org/2000/svg"
   xmlns:svg="http://www.w3.org/2000/svg">
  <sodipodi:namedview
     id="namedview660"
     pagecolor="#ffffff"
     bordercolor="#666666"
     borderopacity="1.0"
     inkscape:showpageshadow="2"
     inkscape:pageopacity="0.0"
     inkscape:pagecheckerboard="0"
     inkscape:deskcolor="#d1d1d1"
     showgrid="false"
     inkscape:zoom="0.38799069"
     inkscape:cx="283.51196"
     inkscape:cy="304.13101"
     inkscape:window-width="1920"
     inkscape:window-height="1051"
     inkscape:window-x="0"
     inkscape:window-y="0"
     inkscape:window-maximized="1"
     inkscape:current-layer="svg658" />
  <title
     id="title2">
/home/twig/code/rge-analysis/macros/int_pt2_211.svg
</title>
  <desc
     id="desc4">
Creator: ROOT Version 6.28/00
CreationDate: Tue Jun 27 11:56:29 2023</desc>
  <defs
     id="defs6" />
  <rect
     x="0.5"
     y="0"
     width="566.929"
     height="607.762"
     fill="white"
     id="rect8" />
  <rect
     x="57.1929"
     y="60.7762"
     width="453.543"
     height="486.21"
     fill="white"
     id="rect10" />
  <rect
     x="57.1929"
     y="60.7762"
     width="453.543"
     height="486.21"
     fill="none"
     stroke="black"
     id="rect12" />
  <rect
     x="57.1929"
     y="60.7762"
     width="453.543"
     height="486.21"
     fill="white"
     id="rect14" />
  <rect
     x="57.1929"
     y="60.7762"
     width="453.543"
     height="486.21"
     fill="none"
     stroke="black"
     id="rect16" />
  <path
     d="M57.1929,546.986h 453.543"
     fill="none"
     stroke="black"
     id="path18" />
  <path
     d="M57.1929,60.7762v 486.21"
     fill="none"
     stroke="black"
     stroke-dasharray=" 1, 2"
     id="path20" />
  <path
     d="M98.4241,60.7762v 486.21"
     fill="none"
     stroke="black"
     stroke-dasharray=" 1, 2"
     id="path22" />
  <path
     d="M139.655,60.7762v 486.21"
     fill="none"
     stroke="black"
     stroke-dasharray=" 1, 2"
     id="path24" />
  <path
     d="M180.887,60.7762v 486.21"
     fill="none"
     stroke="black"
     stroke-dasharray=" 1, 2"
     id="path26" />
  <path
     d="M222.118,60.7762v 486.21"
     fill="none"
     stroke="black"
     stroke-dasharray=" 1, 2"
     id="path28" />
  <path
     d="M263.349,60.7762v 486.21"
     fill="none"
     stroke="black"
     stroke-dasharray=" 1, 2"
     id="path30" />
  <path
     d="M304.58,60.7762v 486.21"
     fill="none"
     stroke="black"
     stroke-dasharray=" 1, 2"
     id="path32" />
  <path
     d="M345.811,60.7762v 486.21"
     fill="none"
     stroke="black"
     stroke-dasharray=" 1, 2"
     id="path34" />
  <path
     d="M387.043,60.7762v 486.21"
     fill="none"
     stroke="black"
     stroke-dasharray=" 1, 2"
     id="path36" />
  <path
     d="M428.274,60.7762v 486.21"
     fill="none"
     stroke="black"
     stroke-dasharray=" 1, 2"
     id="path38" />
  <path
     d="M469.505,60.7762v 486.21"
     fill="none"
     stroke="black"
     stroke-dasharray=" 1, 2"
     id="path40" />
  <path
     d="M510.736,60.7762v 486.21"
     fill="none"
     stroke="black"
     stroke-dasharray=" 1, 2"
     id="path42" />
  <path
     d="M57.1929,546.986v -486.21"
     fill="none"
     stroke="black"
     id="path44" />
  <path
     d="M510.736,527.003h -453.543"
     fill="none"
     stroke="black"
     stroke-dasharray=" 1, 2"
     id="path46" />
  <path
     d="M510.736,432.293h -453.543"
     fill="none"
     stroke="black"
     stroke-dasharray=" 1, 2"
     id="path48" />
  <path
     d="M510.736,337.584h -453.543"
     fill="none"
     stroke="black"
     stroke-dasharray=" 1, 2"
     id="path50" />
  <path
     d="M510.736,242.874h -453.543"
     fill="none"
     stroke="black"
     stroke-dasharray=" 1, 2"
     id="path52" />
  <path
     d="M510.736,148.164h -453.543"
     fill="none"
     stroke="black"
     stroke-dasharray=" 1, 2"
     id="path54" />
  <path
     d="M57.1929,546.986h 453.543"
     fill="none"
     stroke="black"
     id="path56" />
  <path
     d="M57.1929,532.4v 14.5863"
     fill="none"
     stroke="black"
     id="path58" />
  <path
     d="M67.5007,539.693v 7.29315"
     fill="none"
     stroke="black"
     id="path60" />
  <path
     d="M77.8085,539.693v 7.29315"
     fill="none"
     stroke="black"
     id="path62" />
  <path
     d="M88.1163,539.693v 7.29315"
     fill="none"
     stroke="black"
     id="path64" />
  <path
     d="M98.4241,532.4v 14.5863"
     fill="none"
     stroke="black"
     id="path66" />
  <path
     d="M108.732,539.693v 7.29315"
     fill="none"
     stroke="black"
     id="path68" />
  <path
     d="M119.04,539.693v 7.29315"
     fill="none"
     stroke="black"
     id="path70" />
  <path
     d="M129.348,539.693v 7.29315"
     fill="none"
     stroke="black"
     id="path72" />
  <path
     d="M139.655,532.4v 14.5863"
     fill="none"
     stroke="black"
     id="path74" />
  <path
     d="M149.963,539.693v 7.29315"
     fill="none"
     stroke="black"
     id="path76" />
  <path
     d="M160.271,539.693v 7.29315"
     fill="none"
     stroke="black"
     id="path78" />
  <path
     d="M170.579,539.693v 7.29315"
     fill="none"
     stroke="black"
     id="path80" />
  <path
     d="M180.887,532.4v 14.5863"
     fill="none"
     stroke="black"
     id="path82" />
  <path
     d="M191.194,539.693v 7.29315"
     fill="none"
     stroke="black"
     id="path84" />
  <path
     d="M201.502,539.693v 7.29315"
     fill="none"
     stroke="black"
     id="path86" />
  <path
     d="M211.81,539.693v 7.29315"
     fill="none"
     stroke="black"
     id="path88" />
  <path
     d="M222.118,532.4v 14.5863"
     fill="none"
     stroke="black"
     id="path90" />
  <path
     d="M232.426,539.693v 7.29315"
     fill="none"
     stroke="black"
     id="path92" />
  <path
     d="M242.733,539.693v 7.29315"
     fill="none"
     stroke="black"
     id="path94" />
  <path
     d="M253.041,539.693v 7.29315"
     fill="none"
     stroke="black"
     id="path96" />
  <path
     d="M263.349,532.4v 14.5863"
     fill="none"
     stroke="black"
     id="path98" />
  <path
     d="M273.657,539.693v 7.29315"
     fill="none"
     stroke="black"
     id="path100" />
  <path
     d="M283.965,539.693v 7.29315"
     fill="none"
     stroke="black"
     id="path102" />
  <path
     d="M294.272,539.693v 7.29315"
     fill="none"
     stroke="black"
     id="path104" />
  <path
     d="M304.58,532.4v 14.5863"
     fill="none"
     stroke="black"
     id="path106" />
  <path
     d="M314.888,539.693v 7.29315"
     fill="none"
     stroke="black"
     id="path108" />
  <path
     d="M325.196,539.693v 7.29315"
     fill="none"
     stroke="black"
     id="path110" />
  <path
     d="M335.504,539.693v 7.29315"
     fill="none"
     stroke="black"
     id="path112" />
  <path
     d="M345.811,532.4v 14.5863"
     fill="none"
     stroke="black"
     id="path114" />
  <path
     d="M356.119,539.693v 7.29315"
     fill="none"
     stroke="black"
     id="path116" />
  <path
     d="M366.427,539.693v 7.29315"
     fill="none"
     stroke="black"
     id="path118" />
  <path
     d="M376.735,539.693v 7.29315"
     fill="none"
     stroke="black"
     id="path120" />
  <path
     d="M387.043,532.4v 14.5863"
     fill="none"
     stroke="black"
     id="path122" />
  <path
     d="M397.35,539.693v 7.29315"
     fill="none"
     stroke="black"
     id="path124" />
  <path
     d="M407.658,539.693v 7.29315"
     fill="none"
     stroke="black"
     id="path126" />
  <path
     d="M417.966,539.693v 7.29315"
     fill="none"
     stroke="black"
     id="path128" />
  <path
     d="M428.274,532.4v 14.5863"
     fill="none"
     stroke="black"
     id="path130" />
  <path
     d="M438.582,539.693v 7.29315"
     fill="none"
     stroke="black"
     id="path132" />
  <path
     d="M448.889,539.693v 7.29315"
     fill="none"
     stroke="black"
     id="path134" />
  <path
     d="M459.197,539.693v 7.29315"
     fill="none"
     stroke="black"
     id="path136" />
  <path
     d="M469.505,532.4v 14.5863"
     fill="none"
     stroke="black"
     id="path138" />
  <path
     d="M479.813,539.693v 7.29315"
     fill="none"
     stroke="black"
     id="path140" />
  <path
     d="M490.121,539.693v 7.29315"
     fill="none"
     stroke="black"
     id="path142" />
  <path
     d="M500.428,539.693v 7.29315"
     fill="none"
     stroke="black"
     id="path144" />
  <path
     d="M510.736,532.4v 14.5863"
     fill="none"
     stroke="black"
     id="path146" />
  <text
     xml:space="preserve"
     x="51.9852"
     y="566.929"
     fill="black"
     font-size="18.7041"
     font-family="Helvetica"
     id="text148">0</text>
  <text
     xml:space="preserve"
     x="85.7169"
     y="566.929"
     fill="black"
     font-size="18.7041"
     font-family="Helvetica"
     id="text150">0.2</text>
  <text
     xml:space="preserve"
     x="127.142"
     y="566.929"
     fill="black"
     font-size="18.7041"
     font-family="Helvetica"
     id="text152">0.4</text>
  <text
     xml:space="preserve"
     x="167.975"
     y="566.929"
     fill="black"
     font-size="18.7041"
     font-family="Helvetica"
     id="text154">0.6</text>
  <text
     xml:space="preserve"
     x="209.4"
     y="566.929"
     fill="black"
     font-size="18.7041"
     font-family="Helvetica"
     id="text156">0.8</text>
  <text
     xml:space="preserve"
     x="259.701"
     y="566.929"
     fill="black"
     font-size="18.7041"
     font-family="Helvetica"
     id="text158">1</text>
  <text
     xml:space="preserve"
     x="291.658"
     y="566.929"
     fill="black"
     font-size="18.7041"
     font-family="Helvetica"
     id="text160">1.2</text>
  <text
     xml:space="preserve"
     x="333.083"
     y="566.929"
     fill="black"
     font-size="18.7041"
     font-family="Helvetica"
     id="text162">1.4</text>
  <text
     xml:space="preserve"
     x="374.508"
     y="566.929"
     fill="black"
     font-size="18.7041"
     font-family="Helvetica"
     id="text164">1.6</text>
  <text
     xml:space="preserve"
     x="415.341"
     y="566.929"
     fill="black"
     font-size="18.7041"
     font-family="Helvetica"
     id="text166">1.8</text>
  <text
     xml:space="preserve"
     x="464.459"
     y="566.929"
     fill="black"
     font-size="18.7041"
     font-family="Helvetica"
     id="text168">2</text>
  <text
     xml:space="preserve"
     x="498.19"
     y="566.929"
     fill="black"
     font-size="18.7041"
     font-family="Helvetica"
     id="text170">2.2</text>
  <text
     xml:space="preserve"
     x="505.884"
     y="584.683"
     fill="black"
     font-size="18.7041"
     font-family="Helvetica"
     id="text172">)</text>
  <text
     xml:space="preserve"
     x="499.374"
     y="576.398"
     fill="black"
     font-size="12.6361"
     font-family="Helvetica"
     id="text174">2</text>
  <text
     xml:space="preserve"
     x="451.439"
     y="584.683"
     fill="black"
     font-size="18.7041"
     font-family="Helvetica"
     id="text176"> (GeV</text>
  <text
     xml:space="preserve"
     x="443.746"
     y="578.173"
     fill="black"
     font-size="12.6361"
     font-family="Helvetica"
     id="text178">2</text>
  <text
     xml:space="preserve"
     x="443.746"
     y="594.151"
     fill="black"
     font-size="12.6361"
     font-family="Helvetica"
     id="text180">T</text>
  <text
     xml:space="preserve"
     x="433.686"
     y="584.683"
     fill="black"
     font-size="18.7041"
     font-family="Helvetica"
     id="text182">p</text>
  <path
     d="M57.1929,546.986v -486.21"
     fill="none"
     stroke="black"
     id="path184" />
  <path
     d="M63.9961,541.673h -6.80315"
     fill="none"
     stroke="black"
     id="path186" />
  <path
     d="M63.9961,536.181h -6.80315"
     fill="none"
     stroke="black"
     id="path188" />
  <path
     d="M63.9961,531.336h -6.80315"
     fill="none"
     stroke="black"
     id="path190" />
  <path
     d="M70.7992,527.003h -13.6063"
     fill="none"
     stroke="black"
     id="path192" />
  <text
     xml:space="preserve"
     x="46.0674"
     y="527.28"
     fill="black"
     font-size="12.6361"
     font-family="Helvetica"
     id="text194">2</text>
  <text
     xml:space="preserve"
     x="26.5385"
     y="534.973"
     fill="black"
     font-size="18.7041"
     font-family="Helvetica"
     id="text196">10</text>
  <path
     d="M63.9961,498.492h -6.80315"
     fill="none"
     stroke="black"
     id="path198" />
  <path
     d="M63.9961,481.815h -6.80315"
     fill="none"
     stroke="black"
     id="path200" />
  <path
     d="M63.9961,469.982h -6.80315"
     fill="none"
     stroke="black"
     id="path202" />
  <path
     d="M63.9961,460.804h -6.80315"
     fill="none"
     stroke="black"
     id="path204" />
  <path
     d="M63.9961,453.304h -6.80315"
     fill="none"
     stroke="black"
     id="path206" />
  <path
     d="M63.9961,446.964h -6.80315"
     fill="none"
     stroke="black"
     id="path208" />
  <path
     d="M63.9961,441.471h -6.80315"
     fill="none"
     stroke="black"
     id="path210" />
  <path
     d="M63.9961,436.627h -6.80315"
     fill="none"
     stroke="black"
     id="path212" />
  <path
     d="M70.7992,432.293h -13.6063"
     fill="none"
     stroke="black"
     id="path214" />
  <text
     xml:space="preserve"
     x="46.0674"
     y="432.002"
     fill="black"
     font-size="12.6361"
     font-family="Helvetica"
     id="text216">3</text>
  <text
     xml:space="preserve"
     x="26.5385"
     y="440.287"
     fill="black"
     font-size="18.7041"
     font-family="Helvetica"
     id="text218">10</text>
  <path
     d="M63.9961,403.783h -6.80315"
     fill="none"
     stroke="black"
     id="path220" />
  <path
     d="M63.9961,387.105h -6.80315"
     fill="none"
     stroke="black"
     id="path222" />
  <path
     d="M63.9961,375.272h -6.80315"
     fill="none"
     stroke="black"
     id="path224" />
  <path
     d="M63.9961,366.094h -6.80315"
     fill="none"
     stroke="black"
     id="path226" />
  <path
     d="M63.9961,358.595h -6.80315"
     fill="none"
     stroke="black"
     id="path228" />
  <path
     d="M63.9961,352.254h -6.80315"
     fill="none"
     stroke="black"
     id="path230" />
  <path
     d="M63.9961,346.762h -6.80315"
     fill="none"
     stroke="black"
     id="path232" />
  <path
     d="M63.9961,341.917h -6.80315"
     fill="none"
     stroke="black"
     id="path234" />
  <path
     d="M70.7992,337.584h -13.6063"
     fill="none"
     stroke="black"
     id="path236" />
  <text
     xml:space="preserve"
     x="46.0674"
     y="337.909"
     fill="black"
     font-size="12.6361"
     font-family="Helvetica"
     id="text238">4</text>
  <text
     xml:space="preserve"
     x="26.5385"
     y="345.602"
     fill="black"
     font-size="18.7041"
     font-family="Helvetica"
     id="text240">10</text>
  <path
     d="M63.9961,309.073h -6.80315"
     fill="none"
     stroke="black"
     id="path242" />
  <path
     d="M63.9961,292.396h -6.80315"
     fill="none"
     stroke="black"
     id="path244" />
  <path
     d="M63.9961,280.563h -6.80315"
     fill="none"
     stroke="black"
     id="path246" />
  <path
     d="M63.9961,271.384h -6.80315"
     fill="none"
     stroke="black"
     id="path248" />
  <path
     d="M63.9961,263.885h -6.80315"
     fill="none"
     stroke="black"
     id="path250" />
  <path
     d="M63.9961,257.545h -6.80315"
     fill="none"
     stroke="black"
     id="path252" />
  <path
     d="M63.9961,252.052h -6.80315"
     fill="none"
     stroke="black"
     id="path254" />
  <path
     d="M63.9961,247.208h -6.80315"
     fill="none"
     stroke="black"
     id="path256" />
  <path
     d="M70.7992,242.874h -13.6063"
     fill="none"
     stroke="black"
     id="path258" />
  <text
     xml:space="preserve"
     x="46.0674"
     y="242.631"
     fill="black"
     font-size="12.6361"
     font-family="Helvetica"
     id="text260">5</text>
  <text
     xml:space="preserve"
     x="26.5385"
     y="250.916"
     fill="black"
     font-size="18.7041"
     font-family="Helvetica"
     id="text262">10</text>
  <path
     d="M63.9961,214.364h -6.80315"
     fill="none"
     stroke="black"
     id="path264" />
  <path
     d="M63.9961,197.686h -6.80315"
     fill="none"
     stroke="black"
     id="path266" />
  <path
     d="M63.9961,185.853h -6.80315"
     fill="none"
     stroke="black"
     id="path268" />
  <path
     d="M63.9961,176.675h -6.80315"
     fill="none"
     stroke="black"
     id="path270" />
  <path
     d="M63.9961,169.176h -6.80315"
     fill="none"
     stroke="black"
     id="path272" />
  <path
     d="M63.9961,162.835h -6.80315"
     fill="none"
     stroke="black"
     id="path274" />
  <path
     d="M63.9961,157.343h -6.80315"
     fill="none"
     stroke="black"
     id="path276" />
  <path
     d="M63.9961,152.498h -6.80315"
     fill="none"
     stroke="black"
     id="path278" />
  <path
     d="M70.7992,148.164h -13.6063"
     fill="none"
     stroke="black"
     id="path280" />
  <text
     xml:space="preserve"
     x="46.0674"
     y="147.946"
     fill="black"
     font-size="12.6361"
     font-family="Helvetica"
     id="text282">6</text>
  <text
     xml:space="preserve"
     x="26.5385"
     y="156.231"
     fill="black"
     font-size="18.7041"
     font-family="Helvetica"
     id="text284">10</text>
  <path
     d="M63.9961,119.654h -6.80315"
     fill="none"
     stroke="black"
     id="path286" />
  <path
     d="M63.9961,102.976h -6.80315"
     fill="none"
     stroke="black"
     id="path288" />
  <path
     d="M63.9961,91.1436h -6.80315"
     fill="none"
     stroke="black"
     id="path290" />
  <path
     d="M63.9961,81.9653h -6.80315"
     fill="none"
     stroke="black"
     id="path292" />
  <path
     d="M63.9961,74.4661h -6.80315"
     fill="none"
     stroke="black"
     id="path294" />
  <path
     d="M63.9961,68.1255h -6.80315"
     fill="none"
     stroke="black"
     id="path296" />
  <path
     d="M63.9961,62.6332h -6.80315"
     fill="none"
     stroke="black"
     id="path298" />
  <g
     fill="#ff0000"
     id="g320">
    <rect
       x="75.4414"
       y="72.6643"
       width="4.73427"
       height="4.73427"
       id="rect300" />
    <rect
       x="116.673"
       y="137.209"
       width="4.73427"
       height="4.73427"
       id="rect302" />
    <rect
       x="157.904"
       y="177.614"
       width="4.73427"
       height="4.73427"
       id="rect304" />
    <rect
       x="199.135"
       y="209.37"
       width="4.73427"
       height="4.73427"
       id="rect306" />
    <rect
       x="240.366"
       y="245.581"
       width="4.73427"
       height="4.73427"
       id="rect308" />
    <rect
       x="281.597"
       y="284.099"
       width="4.73427"
       height="4.73427"
       id="rect310" />
    <rect
       x="322.829"
       y="334.303"
       width="4.73427"
       height="4.73427"
       id="rect312" />
    <rect
       x="364.06"
       y="390.942"
       width="4.73427"
       height="4.73427"
       id="rect314" />
    <rect
       x="405.291"
       y="461.98"
       width="4.73427"
       height="4.73427"
       id="rect316" />
    <rect
       x="446.522"
       y="519.73"
       width="4.73427"
       height="4.73427"
       id="rect318" />
  </g>
  <path
     d="M75.4414,75.0314h -18.2485"
     fill="none"
     stroke="black"
     id="path322" />
  <path
     d="M57.1929,76.215v -2.36714"
     fill="none"
     stroke="black"
     id="path324" />
  <path
     d="M80.1757,75.0314h 18.2485"
     fill="none"
     stroke="black"
     id="path326" />
  <path
     d="M98.4241,76.215v -2.36714"
     fill="none"
     stroke="black"
     id="path328" />
  <path
     d="M116.673,139.576h -18.2485"
     fill="none"
     stroke="black"
     id="path330" />
  <path
     d="M98.4241,140.76v -2.36714"
     fill="none"
     stroke="black"
     id="path332" />
  <path
     d="M121.407,139.576h 18.2485"
     fill="none"
     stroke="black"
     id="path334" />
  <path
     d="M139.655,140.76v -2.36714"
     fill="none"
     stroke="black"
     id="path336" />
  <path
     d="M157.904,179.981h -18.2485"
     fill="none"
     stroke="black"
     id="path338" />
  <path
     d="M139.655,181.165v -2.36714"
     fill="none"
     stroke="black"
     id="path340" />
  <path
     d="M162.638,179.981h 18.2485"
     fill="none"
     stroke="black"
     id="path342" />
  <path
     d="M180.887,181.165v -2.36714"
     fill="none"
     stroke="black"
     id="path344" />
  <path
     d="M199.135,211.737h -18.2485"
     fill="none"
     stroke="black"
     id="path346" />
  <path
     d="M180.887,212.921v -2.36714"
     fill="none"
     stroke="black"
     id="path348" />
  <path
     d="M203.869,211.737h 18.2485"
     fill="none"
     stroke="black"
     id="path350" />
  <path
     d="M222.118,212.921v -2.36714"
     fill="none"
     stroke="black"
     id="path352" />
  <path
     d="M240.366,247.948h -18.2485"
     fill="none"
     stroke="black"
     id="path354" />
  <path
     d="M222.118,249.132v -2.36714"
     fill="none"
     stroke="black"
     id="path356" />
  <path
     d="M245.1,247.948h 18.2485"
     fill="none"
     stroke="black"
     id="path358" />
  <path
     d="M263.349,249.132v -2.36714"
     fill="none"
     stroke="black"
     id="path360" />
  <path
     d="M281.597,286.466h -18.2485"
     fill="none"
     stroke="black"
     id="path362" />
  <path
     d="M263.349,287.649v -2.36714"
     fill="none"
     stroke="black"
     id="path364" />
  <path
     d="M286.332,286.466h 18.2485"
     fill="none"
     stroke="black"
     id="path366" />
  <path
     d="M304.58,287.649v -2.36714"
     fill="none"
     stroke="black"
     id="path368" />
  <path
     d="M322.829,336.671h -18.2485"
     fill="none"
     stroke="black"
     id="path370" />
  <path
     d="M304.58,337.854v -2.36714"
     fill="none"
     stroke="black"
     id="path372" />
  <path
     d="M327.563,336.671h 18.2485"
     fill="none"
     stroke="black"
     id="path374" />
  <path
     d="M345.811,337.854v -2.36714"
     fill="none"
     stroke="black"
     id="path376" />
  <path
     d="M364.06,393.309h -18.2485"
     fill="none"
     stroke="black"
     id="path378" />
  <path
     d="M345.811,394.492v -2.36714"
     fill="none"
     stroke="black"
     id="path380" />
  <path
     d="M368.794,393.309h 18.2485"
     fill="none"
     stroke="black"
     id="path382" />
  <path
     d="M387.043,394.492v -2.36714"
     fill="none"
     stroke="black"
     id="path384" />
  <path
     d="M405.291,464.347h -18.2485"
     fill="none"
     stroke="black"
     id="path386" />
  <path
     d="M387.043,465.531v -2.36714"
     fill="none"
     stroke="black"
     id="path388" />
  <path
     d="M410.025,464.347h 18.2485"
     fill="none"
     stroke="black"
     id="path390" />
  <path
     d="M428.274,465.531v -2.36714"
     fill="none"
     stroke="black"
     id="path392" />
  <path
     d="M446.522,522.097h -18.2485"
     fill="none"
     stroke="black"
     id="path394" />
  <path
     d="M428.274,523.281v -2.36714"
     fill="none"
     stroke="black"
     id="path396" />
  <path
     d="M451.257,522.097h 18.2485"
     fill="none"
     stroke="black"
     id="path398" />
  <path
     d="M469.505,523.281v -2.36714"
     fill="none"
     stroke="black"
     id="path400" />
  <path
     d="M448.889,519.73v -1.33612"
     fill="none"
     stroke="black"
     id="path402" />
  <path
     d="M447.706,518.394h 2.36714"
     fill="none"
     stroke="black"
     id="path404" />
  <path
     d="M448.889,524.464v 1.70282"
     fill="none"
     stroke="black"
     id="path406" />
  <path
     d="M447.706,526.167h 2.36714"
     fill="none"
     stroke="black"
     id="path408" />
  <path
     d="M75.4414,112.915h -18.2485"
     fill="none"
     stroke="black"
     id="path410" />
  <path
     d="M57.1929,114.099v -2.36714"
     fill="none"
     stroke="black"
     id="path412" />
  <path
     d="M80.1757,112.915h 18.2485"
     fill="none"
     stroke="black"
     id="path414" />
  <path
     d="M98.4241,114.099v -2.36714"
     fill="none"
     stroke="black"
     id="path416" />
  <path
     d="M116.673,172.615h -18.2485"
     fill="none"
     stroke="black"
     id="path418" />
  <path
     d="M98.4241,173.798v -2.36714"
     fill="none"
     stroke="black"
     id="path420" />
  <path
     d="M121.407,172.615h 18.2485"
     fill="none"
     stroke="black"
     id="path422" />
  <path
     d="M139.655,173.798v -2.36714"
     fill="none"
     stroke="black"
     id="path424" />
  <path
     d="M157.904,211.335h -18.2485"
     fill="none"
     stroke="black"
     id="path426" />
  <path
     d="M139.655,212.518v -2.36714"
     fill="none"
     stroke="black"
     id="path428" />
  <path
     d="M162.638,211.335h 18.2485"
     fill="none"
     stroke="black"
     id="path430" />
  <path
     d="M180.887,212.518v -2.36714"
     fill="none"
     stroke="black"
     id="path432" />
  <path
     d="M199.135,241.013h -18.2485"
     fill="none"
     stroke="black"
     id="path434" />
  <path
     d="M180.887,242.197v -2.36714"
     fill="none"
     stroke="black"
     id="path436" />
  <path
     d="M203.869,241.013h 18.2485"
     fill="none"
     stroke="black"
     id="path438" />
  <path
     d="M222.118,242.197v -2.36714"
     fill="none"
     stroke="black"
     id="path440" />
  <path
     d="M240.366,274.501h -18.2485"
     fill="none"
     stroke="black"
     id="path442" />
  <path
     d="M222.118,275.685v -2.36714"
     fill="none"
     stroke="black"
     id="path444" />
  <path
     d="M245.1,274.501h 18.2485"
     fill="none"
     stroke="black"
     id="path446" />
  <path
     d="M263.349,275.685v -2.36714"
     fill="none"
     stroke="black"
     id="path448" />
  <path
     d="M281.597,308.505h -18.2485"
     fill="none"
     stroke="black"
     id="path450" />
  <path
     d="M263.349,309.689v -2.36714"
     fill="none"
     stroke="black"
     id="path452" />
  <path
     d="M286.332,308.505h 18.2485"
     fill="none"
     stroke="black"
     id="path454" />
  <path
     d="M304.58,309.689v -2.36714"
     fill="none"
     stroke="black"
     id="path456" />
  <path
     d="M322.829,358.935h -18.2485"
     fill="none"
     stroke="black"
     id="path458" />
  <path
     d="M304.58,360.118v -2.36714"
     fill="none"
     stroke="black"
     id="path460" />
  <path
     d="M327.563,358.935h 18.2485"
     fill="none"
     stroke="black"
     id="path462" />
  <path
     d="M345.811,360.118v -2.36714"
     fill="none"
     stroke="black"
     id="path464" />
  <path
     d="M364.06,402.968h -18.2485"
     fill="none"
     stroke="black"
     id="path466" />
  <path
     d="M345.811,404.152v -2.36714"
     fill="none"
     stroke="black"
     id="path468" />
  <path
     d="M368.794,402.968h 18.2485"
     fill="none"
     stroke="black"
     id="path470" />
  <path
     d="M387.043,404.152v -2.36714"
     fill="none"
     stroke="black"
     id="path472" />
  <path
     d="M405.291,460.783h -18.2485"
     fill="none"
     stroke="black"
     id="path474" />
  <path
     d="M387.043,461.967v -2.36714"
     fill="none"
     stroke="black"
     id="path476" />
  <path
     d="M410.025,460.783h 18.2485"
     fill="none"
     stroke="black"
     id="path478" />
  <path
     d="M428.274,461.967v -2.36714"
     fill="none"
     stroke="black"
     id="path480" />
  <path
     d="M446.522,455.27h -18.2485"
     fill="none"
     stroke="black"
     id="path482" />
  <path
     d="M428.274,456.454v -2.36714"
     fill="none"
     stroke="black"
     id="path484" />
  <path
     d="M451.257,455.27h 18.2485"
     fill="none"
     stroke="black"
     id="path486" />
  <path
     d="M469.505,456.454v -2.36714"
     fill="none"
     stroke="black"
     id="path488" />
  <g
     fill="#0000ff"
     id="g510">
    <rect
       x="75.4414"
       y="110.548"
       width="4.73427"
       height="4.73427"
       id="rect490" />
    <rect
       x="116.673"
       y="170.247"
       width="4.73427"
       height="4.73427"
       id="rect492" />
    <rect
       x="157.904"
       y="208.968"
       width="4.73427"
       height="4.73427"
       id="rect494" />
    <rect
       x="199.135"
       y="238.646"
       width="4.73427"
       height="4.73427"
       id="rect496" />
    <rect
       x="240.366"
       y="272.134"
       width="4.73427"
       height="4.73427"
       id="rect498" />
    <rect
       x="281.597"
       y="306.138"
       width="4.73427"
       height="4.73427"
       id="rect500" />
    <rect
       x="322.829"
       y="356.568"
       width="4.73427"
       height="4.73427"
       id="rect502" />
    <rect
       x="364.06"
       y="400.601"
       width="4.73427"
       height="4.73427"
       id="rect504" />
    <rect
       x="405.291"
       y="458.416"
       width="4.73427"
       height="4.73427"
       id="rect506" />
    <rect
       x="446.522"
       y="452.903"
       width="4.73427"
       height="4.73427"
       id="rect508" />
  </g>
  <path
     d="M75.4414,195.916h -18.2485"
     fill="none"
     stroke="black"
     id="path512" />
  <path
     d="M57.1929,197.099v -2.36714"
     fill="none"
     stroke="black"
     id="path514" />
  <path
     d="M80.1757,195.916h 18.2485"
     fill="none"
     stroke="black"
     id="path516" />
  <path
     d="M98.4241,197.099v -2.36714"
     fill="none"
     stroke="black"
     id="path518" />
  <path
     d="M116.673,248.752h -18.2485"
     fill="none"
     stroke="black"
     id="path520" />
  <path
     d="M98.4241,249.936v -2.36714"
     fill="none"
     stroke="black"
     id="path522" />
  <path
     d="M121.407,248.752h 18.2485"
     fill="none"
     stroke="black"
     id="path524" />
  <path
     d="M139.655,249.936v -2.36714"
     fill="none"
     stroke="black"
     id="path526" />
  <path
     d="M157.904,293.849h -18.2485"
     fill="none"
     stroke="black"
     id="path528" />
  <path
     d="M139.655,295.032v -2.36714"
     fill="none"
     stroke="black"
     id="path530" />
  <path
     d="M162.638,293.849h 18.2485"
     fill="none"
     stroke="black"
     id="path532" />
  <path
     d="M180.887,295.032v -2.36714"
     fill="none"
     stroke="black"
     id="path534" />
  <path
     d="M199.135,317.654h -18.2485"
     fill="none"
     stroke="black"
     id="path536" />
  <path
     d="M180.887,318.837v -2.36714"
     fill="none"
     stroke="black"
     id="path538" />
  <path
     d="M203.869,317.654h 18.2485"
     fill="none"
     stroke="black"
     id="path540" />
  <path
     d="M222.118,318.837v -2.36714"
     fill="none"
     stroke="black"
     id="path542" />
  <path
     d="M240.366,353.733h -18.2485"
     fill="none"
     stroke="black"
     id="path544" />
  <path
     d="M222.118,354.916v -2.36714"
     fill="none"
     stroke="black"
     id="path546" />
  <path
     d="M245.1,353.733h 18.2485"
     fill="none"
     stroke="black"
     id="path548" />
  <path
     d="M263.349,354.916v -2.36714"
     fill="none"
     stroke="black"
     id="path550" />
  <path
     d="M281.597,370.072h -18.2485"
     fill="none"
     stroke="black"
     id="path552" />
  <path
     d="M263.349,371.255v -2.36714"
     fill="none"
     stroke="black"
     id="path554" />
  <path
     d="M286.332,370.072h 18.2485"
     fill="none"
     stroke="black"
     id="path556" />
  <path
     d="M304.58,371.255v -2.36714"
     fill="none"
     stroke="black"
     id="path558" />
  <path
     d="M322.829,430.059h -18.2485"
     fill="none"
     stroke="black"
     id="path560" />
  <path
     d="M304.58,431.242v -2.36714"
     fill="none"
     stroke="black"
     id="path562" />
  <path
     d="M327.563,430.059h 18.2485"
     fill="none"
     stroke="black"
     id="path564" />
  <path
     d="M345.811,431.242v -2.36714"
     fill="none"
     stroke="black"
     id="path566" />
  <path
     d="M364.06,456.559h -18.2485"
     fill="none"
     stroke="black"
     id="path568" />
  <path
     d="M345.811,457.743v -2.36714"
     fill="none"
     stroke="black"
     id="path570" />
  <path
     d="M368.794,456.559h 18.2485"
     fill="none"
     stroke="black"
     id="path572" />
  <path
     d="M387.043,457.743v -2.36714"
     fill="none"
     stroke="black"
     id="path574" />
  <path
     d="M405.291,532.731h -18.2485"
     fill="none"
     stroke="black"
     id="path576" />
  <path
     d="M387.043,533.914v -2.36714"
     fill="none"
     stroke="black"
     id="path578" />
  <path
     d="M410.025,532.731h 18.2485"
     fill="none"
     stroke="black"
     id="path580" />
  <path
     d="M428.274,533.914v -2.36714"
     fill="none"
     stroke="black"
     id="path582" />
  <path
     d="M407.658,530.364v -1.82191"
     fill="none"
     stroke="black"
     id="path584" />
  <path
     d="M406.475,528.542h 2.36714"
     fill="none"
     stroke="black"
     id="path586" />
  <path
     d="M407.658,535.098v 2.29743"
     fill="none"
     stroke="black"
     id="path588" />
  <path
     d="M406.475,537.395h 2.36714"
     fill="none"
     stroke="black"
     id="path590" />
  <g
     fill="#00ff00"
     id="g610">
    <rect
       x="75.4414"
       y="193.548"
       width="4.73427"
       height="4.73427"
       id="rect592" />
    <rect
       x="116.673"
       y="246.385"
       width="4.73427"
       height="4.73427"
       id="rect594" />
    <rect
       x="157.904"
       y="291.482"
       width="4.73427"
       height="4.73427"
       id="rect596" />
    <rect
       x="199.135"
       y="315.287"
       width="4.73427"
       height="4.73427"
       id="rect598" />
    <rect
       x="240.366"
       y="351.366"
       width="4.73427"
       height="4.73427"
       id="rect600" />
    <rect
       x="281.597"
       y="367.704"
       width="4.73427"
       height="4.73427"
       id="rect602" />
    <rect
       x="322.829"
       y="427.692"
       width="4.73427"
       height="4.73427"
       id="rect604" />
    <rect
       x="364.06"
       y="454.192"
       width="4.73427"
       height="4.73427"
       id="rect606" />
    <rect
       x="405.291"
       y="530.364"
       width="4.73427"
       height="4.73427"
       id="rect608" />
  </g>
  <rect
     x="396.995"
     y="72.7894"
     width="105.338"
     height="50.3016"
     fill="white"
     id="rect612" />
  <path
     d="M396.995,123.091h 105.338"
     fill="none"
     stroke="black"
     id="path614" />
  <path
     d="M502.333,123.091v -50.3016"
     fill="none"
     stroke="black"
     id="path616" />
  <path
     d="M502.333,72.7894h -105.338"
     fill="none"
     stroke="black"
     id="path618" />
  <path
     d="M396.995,72.7894v 50.3016"
     fill="none"
     stroke="black"
     id="path620" />
  <text
     xml:space="preserve"
     x="423.034"
     y="84.6251"
     fill="black"
     font-size="11.0491"
     font-family="Helvetica"
     id="text622">DC</text>
  <path
     d="M400.945,81.173h 18.4341"
     fill="none"
     stroke="black"
     id="path624" />
  <g
     fill="#ff0000"
     id="g628">
    <rect
       x="407.795"
       y="78.8059"
       width="4.73427"
       height="4.73427"
       id="rect626" />
  </g>
  <text
     xml:space="preserve"
     x="423.034"
     y="101.195"
     fill="black"
     font-size="11.0491"
     font-family="Helvetica"
     id="text630">FMT - 2 layers</text>
  <path
     d="M400.945,97.9403h 18.4341"
     fill="none"
     stroke="black"
     id="path632" />
  <g
     fill="#0000ff"
     id="g636">
    <rect
       x="407.795"
       y="95.5731"
       width="4.73427"
       height="4.73427"
       id="rect634" />
  </g>
  <text
     xml:space="preserve"
     x="423.034"
     y="118.357"
     fill="black"
     font-size="11.0491"
     font-family="Helvetica"
     id="text638">FMT - 3 layers</text>
  <path
     d="M400.945,114.707h 18.4341"
     fill="none"
     stroke="black"
     id="path640" />
  <g
     fill="#00ff00"
     id="g644">
    <rect
       x="407.795"
       y="112.34"
       width="4.73427"
       height="4.73427"
       id="rect642" />
  </g>
  <text
     xml:space="preserve"
     x="315.921"
     y="33.7317"
     fill="black"
     font-size="17.711"
     font-family="Helvetica"
     id="text646">)</text>
  <text
     xml:space="preserve"
     x="309.411"
     y="25.4467"
     fill="black"
     font-size="11.974"
     font-family="Helvetica"
     id="text648">2</text>
  <text
     xml:space="preserve"
     x="263.252"
     y="33.7317"
     fill="black"
     font-size="17.711"
     font-family="Helvetica"
     id="text650"> (GeV</text>
  <text
     xml:space="preserve"
     x="256.151"
     y="27.8139"
     fill="black"
     font-size="11.974"
     font-family="Helvetica"
     id="text652">2</text>
  <text
     xml:space="preserve"
     x="256.151"
     y="43.2002"
     fill="black"
     font-size="11.974"
     font-family="Helvetica"
     id="text654">T</text>
  <text
     xml:space="preserve"
     x="246.682"
     y="33.7317"
     fill="black"
     font-size="17.711"
     font-family="Helvetica"
     id="text656">p</text>
</svg>
