<?xml version="1.0" encoding="UTF-8" standalone="no"?>
<svg
   width="567.429"
   height="608.262"
   viewBox="0 0 567.429 608.262"
   shape-rendering="crispEdges"
   version="1.1"
   id="svg664"
   sodipodi:docname="int_phipq_211.svg"
   inkscape:export-filename="int_phipq_211.pdf"
   inkscape:export-xdpi="96"
   inkscape:export-ydpi="96"
   inkscape:version="1.2.2 (1:1.2.2+202305151914+b0a8486541)"
   xmlns:inkscape="http://www.inkscape.org/namespaces/inkscape"
   xmlns:sodipodi="http://sodipodi.sourceforge.net/DTD/sodipodi-0.dtd"
   xmlns="http://www.w3.org/2000/svg"
   xmlns:svg="http://www.w3.org/2000/svg">
  <sodipodi:namedview
     id="namedview666"
     pagecolor="#ffffff"
     bordercolor="#666666"
     borderopacity="1.0"
     inkscape:showpageshadow="2"
     inkscape:pageopacity="0.0"
     inkscape:pagecheckerboard="0"
     inkscape:deskcolor="#d1d1d1"
     showgrid="false"
     inkscape:zoom="0.38799069"
     inkscape:cx="283.51196"
     inkscape:cy="304.13101"
     inkscape:window-width="1920"
     inkscape:window-height="1051"
     inkscape:window-x="0"
     inkscape:window-y="0"
     inkscape:window-maximized="1"
     inkscape:current-layer="svg664" />
  <title
     id="title2">
/home/twig/code/rge-analysis/macros/int_phipq_211.svg
</title>
  <desc
     id="desc4">
Creator: ROOT Version 6.28/00
CreationDate: Tue Jun 27 11:56:47 2023</desc>
  <defs
     id="defs6" />
  <rect
     x="0.5"
     y="0"
     width="566.929"
     height="607.762"
     fill="white"
     id="rect8" />
  <rect
     x="57.1929"
     y="60.7762"
     width="453.543"
     height="486.21"
     fill="white"
     id="rect10" />
  <rect
     x="57.1929"
     y="60.7762"
     width="453.543"
     height="486.21"
     fill="none"
     stroke="black"
     id="rect12" />
  <rect
     x="57.1929"
     y="60.7762"
     width="453.543"
     height="486.21"
     fill="white"
     id="rect14" />
  <rect
     x="57.1929"
     y="60.7762"
     width="453.543"
     height="486.21"
     fill="none"
     stroke="black"
     id="rect16" />
  <path
     d="M57.1929,546.986h 453.543"
     fill="none"
     stroke="black"
     id="path18" />
  <path
     d="M103.505,60.7762v 486.21"
     fill="none"
     stroke="black"
     stroke-dasharray=" 1, 2"
     id="path20" />
  <path
     d="M163.658,60.7762v 486.21"
     fill="none"
     stroke="black"
     stroke-dasharray=" 1, 2"
     id="path22" />
  <path
     d="M223.812,60.7762v 486.21"
     fill="none"
     stroke="black"
     stroke-dasharray=" 1, 2"
     id="path24" />
  <path
     d="M283.965,60.7762v 486.21"
     fill="none"
     stroke="black"
     stroke-dasharray=" 1, 2"
     id="path26" />
  <path
     d="M344.118,60.7762v 486.21"
     fill="none"
     stroke="black"
     stroke-dasharray=" 1, 2"
     id="path28" />
  <path
     d="M404.271,60.7762v 486.21"
     fill="none"
     stroke="black"
     stroke-dasharray=" 1, 2"
     id="path30" />
  <path
     d="M464.424,60.7762v 486.21"
     fill="none"
     stroke="black"
     stroke-dasharray=" 1, 2"
     id="path32" />
  <path
     d="M103.505,60.7762v 486.21"
     fill="none"
     stroke="black"
     stroke-dasharray=" 1, 2"
     id="path34" />
  <path
     d="M464.424,60.7762v 486.21"
     fill="none"
     stroke="black"
     stroke-dasharray=" 1, 2"
     id="path36" />
  <path
     d="M57.1929,546.986v -486.21"
     fill="none"
     stroke="black"
     id="path38" />
  <path
     d="M510.736,526.597h -453.543"
     fill="none"
     stroke="black"
     stroke-dasharray=" 1, 2"
     id="path40" />
  <path
     d="M510.736,478.366h -453.543"
     fill="none"
     stroke="black"
     stroke-dasharray=" 1, 2"
     id="path42" />
  <path
     d="M510.736,444.146h -453.543"
     fill="none"
     stroke="black"
     stroke-dasharray=" 1, 2"
     id="path44" />
  <path
     d="M510.736,417.603h -453.543"
     fill="none"
     stroke="black"
     stroke-dasharray=" 1, 2"
     id="path46" />
  <path
     d="M510.736,395.916h -453.543"
     fill="none"
     stroke="black"
     stroke-dasharray=" 1, 2"
     id="path48" />
  <path
     d="M510.736,377.58h -453.543"
     fill="none"
     stroke="black"
     stroke-dasharray=" 1, 2"
     id="path50" />
  <path
     d="M510.736,361.696h -453.543"
     fill="none"
     stroke="black"
     stroke-dasharray=" 1, 2"
     id="path52" />
  <path
     d="M510.736,347.686h -453.543"
     fill="none"
     stroke="black"
     stroke-dasharray=" 1, 2"
     id="path54" />
  <path
     d="M510.736,335.153h -453.543"
     fill="none"
     stroke="black"
     stroke-dasharray=" 1, 2"
     id="path56" />
  <path
     d="M510.736,252.703h -453.543"
     fill="none"
     stroke="black"
     stroke-dasharray=" 1, 2"
     id="path58" />
  <path
     d="M510.736,204.472h -453.543"
     fill="none"
     stroke="black"
     stroke-dasharray=" 1, 2"
     id="path60" />
  <path
     d="M510.736,170.252h -453.543"
     fill="none"
     stroke="black"
     stroke-dasharray=" 1, 2"
     id="path62" />
  <path
     d="M510.736,143.709h -453.543"
     fill="none"
     stroke="black"
     stroke-dasharray=" 1, 2"
     id="path64" />
  <path
     d="M510.736,122.022h -453.543"
     fill="none"
     stroke="black"
     stroke-dasharray=" 1, 2"
     id="path66" />
  <path
     d="M510.736,103.686h -453.543"
     fill="none"
     stroke="black"
     stroke-dasharray=" 1, 2"
     id="path68" />
  <path
     d="M510.736,87.8019h -453.543"
     fill="none"
     stroke="black"
     stroke-dasharray=" 1, 2"
     id="path70" />
  <path
     d="M510.736,73.7915h -453.543"
     fill="none"
     stroke="black"
     stroke-dasharray=" 1, 2"
     id="path72" />
  <path
     d="M510.736,61.2588h -453.543"
     fill="none"
     stroke="black"
     stroke-dasharray=" 1, 2"
     id="path74" />
  <path
     d="M57.1929,546.986h 453.543"
     fill="none"
     stroke="black"
     id="path76" />
  <path
     d="M103.505,532.4v 14.5863"
     fill="none"
     stroke="black"
     id="path78" />
  <path
     d="M115.536,539.693v 7.29315"
     fill="none"
     stroke="black"
     id="path80" />
  <path
     d="M127.567,539.693v 7.29315"
     fill="none"
     stroke="black"
     id="path82" />
  <path
     d="M139.597,539.693v 7.29315"
     fill="none"
     stroke="black"
     id="path84" />
  <path
     d="M151.628,539.693v 7.29315"
     fill="none"
     stroke="black"
     id="path86" />
  <path
     d="M163.658,532.4v 14.5863"
     fill="none"
     stroke="black"
     id="path88" />
  <path
     d="M175.689,539.693v 7.29315"
     fill="none"
     stroke="black"
     id="path90" />
  <path
     d="M187.72,539.693v 7.29315"
     fill="none"
     stroke="black"
     id="path92" />
  <path
     d="M199.75,539.693v 7.29315"
     fill="none"
     stroke="black"
     id="path94" />
  <path
     d="M211.781,539.693v 7.29315"
     fill="none"
     stroke="black"
     id="path96" />
  <path
     d="M223.812,532.4v 14.5863"
     fill="none"
     stroke="black"
     id="path98" />
  <path
     d="M235.842,539.693v 7.29315"
     fill="none"
     stroke="black"
     id="path100" />
  <path
     d="M247.873,539.693v 7.29315"
     fill="none"
     stroke="black"
     id="path102" />
  <path
     d="M259.903,539.693v 7.29315"
     fill="none"
     stroke="black"
     id="path104" />
  <path
     d="M271.934,539.693v 7.29315"
     fill="none"
     stroke="black"
     id="path106" />
  <path
     d="M283.965,532.4v 14.5863"
     fill="none"
     stroke="black"
     id="path108" />
  <path
     d="M295.995,539.693v 7.29315"
     fill="none"
     stroke="black"
     id="path110" />
  <path
     d="M308.026,539.693v 7.29315"
     fill="none"
     stroke="black"
     id="path112" />
  <path
     d="M320.056,539.693v 7.29315"
     fill="none"
     stroke="black"
     id="path114" />
  <path
     d="M332.087,539.693v 7.29315"
     fill="none"
     stroke="black"
     id="path116" />
  <path
     d="M344.118,532.4v 14.5863"
     fill="none"
     stroke="black"
     id="path118" />
  <path
     d="M356.148,539.693v 7.29315"
     fill="none"
     stroke="black"
     id="path120" />
  <path
     d="M368.179,539.693v 7.29315"
     fill="none"
     stroke="black"
     id="path122" />
  <path
     d="M380.209,539.693v 7.29315"
     fill="none"
     stroke="black"
     id="path124" />
  <path
     d="M392.24,539.693v 7.29315"
     fill="none"
     stroke="black"
     id="path126" />
  <path
     d="M404.271,532.4v 14.5863"
     fill="none"
     stroke="black"
     id="path128" />
  <path
     d="M416.301,539.693v 7.29315"
     fill="none"
     stroke="black"
     id="path130" />
  <path
     d="M428.332,539.693v 7.29315"
     fill="none"
     stroke="black"
     id="path132" />
  <path
     d="M440.362,539.693v 7.29315"
     fill="none"
     stroke="black"
     id="path134" />
  <path
     d="M452.393,539.693v 7.29315"
     fill="none"
     stroke="black"
     id="path136" />
  <path
     d="M464.424,532.4v 14.5863"
     fill="none"
     stroke="black"
     id="path138" />
  <path
     d="M103.505,532.4v 14.5863"
     fill="none"
     stroke="black"
     id="path140" />
  <path
     d="M91.4748,539.693v 7.29315"
     fill="none"
     stroke="black"
     id="path142" />
  <path
     d="M79.4442,539.693v 7.29315"
     fill="none"
     stroke="black"
     id="path144" />
  <path
     d="M67.4136,539.693v 7.29315"
     fill="none"
     stroke="black"
     id="path146" />
  <path
     d="M464.424,532.4v 14.5863"
     fill="none"
     stroke="black"
     id="path148" />
  <path
     d="M476.454,539.693v 7.29315"
     fill="none"
     stroke="black"
     id="path150" />
  <path
     d="M488.485,539.693v 7.29315"
     fill="none"
     stroke="black"
     id="path152" />
  <path
     d="M500.516,539.693v 7.29315"
     fill="none"
     stroke="black"
     id="path154" />
  <text
     xml:space="preserve"
     x="103.47"
     y="566.929"
     fill="black"
     font-size="18.7041"
     font-family="Helvetica"
     id="text156">3</text>
  <text
     xml:space="preserve"
     x="93.4101"
     y="566.929"
     fill="black"
     font-size="18.7041"
     font-family="Times"
     id="text158">−</text>
  <text
     xml:space="preserve"
     x="163.241"
     y="566.929"
     fill="black"
     font-size="18.7041"
     font-family="Helvetica"
     id="text160">2</text>
  <text
     xml:space="preserve"
     x="153.18"
     y="566.929"
     fill="black"
     font-size="18.7041"
     font-family="Times"
     id="text162">−</text>
  <text
     xml:space="preserve"
     x="224.786"
     y="566.929"
     fill="black"
     font-size="18.7041"
     font-family="Helvetica"
     id="text164">1</text>
  <text
     xml:space="preserve"
     x="215.318"
     y="566.929"
     fill="black"
     font-size="18.7041"
     font-family="Times"
     id="text166">−</text>
  <text
     xml:space="preserve"
     x="279.23"
     y="566.929"
     fill="black"
     font-size="18.7041"
     font-family="Helvetica"
     id="text168">0</text>
  <text
     xml:space="preserve"
     x="340.184"
     y="566.929"
     fill="black"
     font-size="18.7041"
     font-family="Helvetica"
     id="text170">1</text>
  <text
     xml:space="preserve"
     x="399.362"
     y="566.929"
     fill="black"
     font-size="18.7041"
     font-family="Helvetica"
     id="text172">2</text>
  <text
     xml:space="preserve"
     x="459.133"
     y="566.929"
     fill="black"
     font-size="18.7041"
     font-family="Helvetica"
     id="text174">3</text>
  <text
     xml:space="preserve"
     x="468.009"
     y="582.315"
     fill="black"
     font-size="18.7041"
     font-family="Helvetica"
     id="text176"> (rad)</text>
  <text
     xml:space="preserve"
     x="450.256"
     y="591.784"
     fill="black"
     font-size="12.6361"
     font-family="Helvetica"
     id="text178">PQ</text>
  <text
     xml:space="preserve"
     x="440.787"
     y="582.315"
     fill="black"
     font-size="18.7041"
     font-family="Times"
     id="text180">φ</text>
  <path
     d="M57.1929,546.986v -486.21"
     fill="none"
     stroke="black"
     id="path182" />
  <path
     d="M63.9961,526.597h -6.80315"
     fill="none"
     stroke="black"
     id="path184" />
  <path
     d="M63.9961,478.366h -6.80315"
     fill="none"
     stroke="black"
     id="path186" />
  <path
     d="M63.9961,444.146h -6.80315"
     fill="none"
     stroke="black"
     id="path188" />
  <path
     d="M63.9961,417.603h -6.80315"
     fill="none"
     stroke="black"
     id="path190" />
  <path
     d="M63.9961,395.916h -6.80315"
     fill="none"
     stroke="black"
     id="path192" />
  <path
     d="M63.9961,377.58h -6.80315"
     fill="none"
     stroke="black"
     id="path194" />
  <path
     d="M63.9961,361.696h -6.80315"
     fill="none"
     stroke="black"
     id="path196" />
  <path
     d="M63.9961,347.686h -6.80315"
     fill="none"
     stroke="black"
     id="path198" />
  <path
     d="M70.7992,335.153h -13.6063"
     fill="none"
     stroke="black"
     id="path200" />
  <text
     xml:space="preserve"
     x="46.0674"
     y="334.95"
     fill="black"
     font-size="12.6361"
     font-family="Helvetica"
     id="text202">5</text>
  <text
     xml:space="preserve"
     x="26.5385"
     y="343.235"
     fill="black"
     font-size="18.7041"
     font-family="Helvetica"
     id="text204">10</text>
  <path
     d="M63.9961,252.703h -6.80315"
     fill="none"
     stroke="black"
     id="path206" />
  <path
     d="M63.9961,204.472h -6.80315"
     fill="none"
     stroke="black"
     id="path208" />
  <path
     d="M63.9961,170.252h -6.80315"
     fill="none"
     stroke="black"
     id="path210" />
  <path
     d="M63.9961,143.709h -6.80315"
     fill="none"
     stroke="black"
     id="path212" />
  <path
     d="M63.9961,122.022h -6.80315"
     fill="none"
     stroke="black"
     id="path214" />
  <path
     d="M63.9961,103.686h -6.80315"
     fill="none"
     stroke="black"
     id="path216" />
  <path
     d="M63.9961,87.8019h -6.80315"
     fill="none"
     stroke="black"
     id="path218" />
  <path
     d="M63.9961,73.7915h -6.80315"
     fill="none"
     stroke="black"
     id="path220" />
  <path
     d="M70.7992,61.2588h -13.6063"
     fill="none"
     stroke="black"
     id="path222" />
  <text
     xml:space="preserve"
     x="46.0674"
     y="60.9538"
     fill="black"
     font-size="12.6361"
     font-family="Helvetica"
     id="text224">6</text>
  <text
     xml:space="preserve"
     x="26.5385"
     y="69.2387"
     fill="black"
     font-size="18.7041"
     font-family="Helvetica"
     id="text226">10</text>
  <g
     fill="#ff0000"
     id="g254">
    <rect
       x="107.156"
       y="129.313"
       width="4.73427"
       height="4.73427"
       id="rect228" />
    <rect
       x="136.227"
       y="121.969"
       width="4.73427"
       height="4.73427"
       id="rect230" />
    <rect
       x="165.303"
       y="117.111"
       width="4.73427"
       height="4.73427"
       id="rect232" />
    <rect
       x="194.38"
       y="112.463"
       width="4.73427"
       height="4.73427"
       id="rect234" />
    <rect
       x="223.45"
       y="99.6342"
       width="4.73427"
       height="4.73427"
       id="rect236" />
    <rect
       x="252.521"
       y="102.673"
       width="4.73427"
       height="4.73427"
       id="rect238" />
    <rect
       x="281.597"
       y="121.679"
       width="4.73427"
       height="4.73427"
       id="rect240" />
    <rect
       x="310.674"
       y="112.077"
       width="4.73427"
       height="4.73427"
       id="rect242" />
    <rect
       x="339.744"
       y="117.357"
       width="4.73427"
       height="4.73427"
       id="rect244" />
    <rect
       x="368.815"
       y="118.696"
       width="4.73427"
       height="4.73427"
       id="rect246" />
    <rect
       x="397.891"
       y="129.744"
       width="4.73427"
       height="4.73427"
       id="rect248" />
    <rect
       x="426.967"
       y="115.666"
       width="4.73427"
       height="4.73427"
       id="rect250" />
    <rect
       x="456.038"
       y="118.055"
       width="4.73427"
       height="4.73427"
       id="rect252" />
  </g>
  <path
     d="M107.156,131.68h -12.1683"
     fill="none"
     stroke="black"
     id="path256" />
  <path
     d="M94.9882,132.864v -2.36714"
     fill="none"
     stroke="black"
     id="path258" />
  <path
     d="M111.891,131.68h 12.1683"
     fill="none"
     stroke="black"
     id="path260" />
  <path
     d="M124.059,132.864v -2.36714"
     fill="none"
     stroke="black"
     id="path262" />
  <path
     d="M136.227,124.336h -12.1683"
     fill="none"
     stroke="black"
     id="path264" />
  <path
     d="M124.059,125.519v -2.36714"
     fill="none"
     stroke="black"
     id="path266" />
  <path
     d="M140.962,124.336h 12.1683"
     fill="none"
     stroke="black"
     id="path268" />
  <path
     d="M153.13,125.519v -2.36714"
     fill="none"
     stroke="black"
     id="path270" />
  <path
     d="M165.303,119.478h -12.1735"
     fill="none"
     stroke="black"
     id="path272" />
  <path
     d="M153.13,120.662v -2.36714"
     fill="none"
     stroke="black"
     id="path274" />
  <path
     d="M170.038,119.478h 12.1735"
     fill="none"
     stroke="black"
     id="path276" />
  <path
     d="M182.211,120.662v -2.36714"
     fill="none"
     stroke="black"
     id="path278" />
  <path
     d="M194.38,114.831h -12.1683"
     fill="none"
     stroke="black"
     id="path280" />
  <path
     d="M182.211,116.014v -2.36714"
     fill="none"
     stroke="black"
     id="path282" />
  <path
     d="M199.114,114.831h 12.1683"
     fill="none"
     stroke="black"
     id="path284" />
  <path
     d="M211.282,116.014v -2.36714"
     fill="none"
     stroke="black"
     id="path286" />
  <path
     d="M223.45,102.001h -12.1683"
     fill="none"
     stroke="black"
     id="path288" />
  <path
     d="M211.282,103.185v -2.36714"
     fill="none"
     stroke="black"
     id="path290" />
  <path
     d="M228.185,102.001h 12.1683"
     fill="none"
     stroke="black"
     id="path292" />
  <path
     d="M240.353,103.185v -2.36714"
     fill="none"
     stroke="black"
     id="path294" />
  <path
     d="M252.521,105.04h -12.1683"
     fill="none"
     stroke="black"
     id="path296" />
  <path
     d="M240.353,106.224v -2.36714"
     fill="none"
     stroke="black"
     id="path298" />
  <path
     d="M257.256,105.04h 12.1683"
     fill="none"
     stroke="black"
     id="path300" />
  <path
     d="M269.424,106.224v -2.36714"
     fill="none"
     stroke="black"
     id="path302" />
  <path
     d="M281.597,124.046h -12.1735"
     fill="none"
     stroke="black"
     id="path304" />
  <path
     d="M269.424,125.229v -2.36714"
     fill="none"
     stroke="black"
     id="path306" />
  <path
     d="M286.332,124.046h 12.1735"
     fill="none"
     stroke="black"
     id="path308" />
  <path
     d="M298.505,125.229v -2.36714"
     fill="none"
     stroke="black"
     id="path310" />
  <path
     d="M310.674,114.444h -12.1683"
     fill="none"
     stroke="black"
     id="path312" />
  <path
     d="M298.505,115.628v -2.36714"
     fill="none"
     stroke="black"
     id="path314" />
  <path
     d="M315.408,114.444h 12.1683"
     fill="none"
     stroke="black"
     id="path316" />
  <path
     d="M327.576,115.628v -2.36714"
     fill="none"
     stroke="black"
     id="path318" />
  <path
     d="M339.744,119.724h -12.1683"
     fill="none"
     stroke="black"
     id="path320" />
  <path
     d="M327.576,120.907v -2.36714"
     fill="none"
     stroke="black"
     id="path322" />
  <path
     d="M344.479,119.724h 12.1683"
     fill="none"
     stroke="black"
     id="path324" />
  <path
     d="M356.647,120.907v -2.36714"
     fill="none"
     stroke="black"
     id="path326" />
  <path
     d="M368.815,121.063h -12.1683"
     fill="none"
     stroke="black"
     id="path328" />
  <path
     d="M356.647,122.247v -2.36714"
     fill="none"
     stroke="black"
     id="path330" />
  <path
     d="M373.55,121.063h 12.1683"
     fill="none"
     stroke="black"
     id="path332" />
  <path
     d="M385.718,122.247v -2.36714"
     fill="none"
     stroke="black"
     id="path334" />
  <path
     d="M397.891,132.111h -12.1735"
     fill="none"
     stroke="black"
     id="path336" />
  <path
     d="M385.718,133.294v -2.36714"
     fill="none"
     stroke="black"
     id="path338" />
  <path
     d="M402.626,132.111h 12.1735"
     fill="none"
     stroke="black"
     id="path340" />
  <path
     d="M414.799,133.294v -2.36714"
     fill="none"
     stroke="black"
     id="path342" />
  <path
     d="M426.967,118.033h -12.1683"
     fill="none"
     stroke="black"
     id="path344" />
  <path
     d="M414.799,119.216v -2.36714"
     fill="none"
     stroke="black"
     id="path346" />
  <path
     d="M431.702,118.033h 12.1683"
     fill="none"
     stroke="black"
     id="path348" />
  <path
     d="M443.87,119.216v -2.36714"
     fill="none"
     stroke="black"
     id="path350" />
  <path
     d="M456.038,120.422h -12.1683"
     fill="none"
     stroke="black"
     id="path352" />
  <path
     d="M443.87,121.606v -2.36714"
     fill="none"
     stroke="black"
     id="path354" />
  <path
     d="M460.773,120.422h 12.1683"
     fill="none"
     stroke="black"
     id="path356" />
  <path
     d="M472.941,121.606v -2.36714"
     fill="none"
     stroke="black"
     id="path358" />
  <path
     d="M107.156,221.76h -12.1683"
     fill="none"
     stroke="black"
     id="path360" />
  <path
     d="M94.9882,222.944v -2.36714"
     fill="none"
     stroke="black"
     id="path362" />
  <path
     d="M111.891,221.76h 12.1683"
     fill="none"
     stroke="black"
     id="path364" />
  <path
     d="M124.059,222.944v -2.36714"
     fill="none"
     stroke="black"
     id="path366" />
  <path
     d="M136.227,215.828h -12.1683"
     fill="none"
     stroke="black"
     id="path368" />
  <path
     d="M124.059,217.011v -2.36714"
     fill="none"
     stroke="black"
     id="path370" />
  <path
     d="M140.962,215.828h 12.1683"
     fill="none"
     stroke="black"
     id="path372" />
  <path
     d="M153.13,217.011v -2.36714"
     fill="none"
     stroke="black"
     id="path374" />
  <path
     d="M165.303,219.465h -12.1735"
     fill="none"
     stroke="black"
     id="path376" />
  <path
     d="M153.13,220.649v -2.36714"
     fill="none"
     stroke="black"
     id="path378" />
  <path
     d="M170.038,219.465h 12.1735"
     fill="none"
     stroke="black"
     id="path380" />
  <path
     d="M182.211,220.649v -2.36714"
     fill="none"
     stroke="black"
     id="path382" />
  <path
     d="M194.38,222.794h -12.1683"
     fill="none"
     stroke="black"
     id="path384" />
  <path
     d="M182.211,223.977v -2.36714"
     fill="none"
     stroke="black"
     id="path386" />
  <path
     d="M199.114,222.794h 12.1683"
     fill="none"
     stroke="black"
     id="path388" />
  <path
     d="M211.282,223.977v -2.36714"
     fill="none"
     stroke="black"
     id="path390" />
  <path
     d="M223.45,222.783h -12.1683"
     fill="none"
     stroke="black"
     id="path392" />
  <path
     d="M211.282,223.966v -2.36714"
     fill="none"
     stroke="black"
     id="path394" />
  <path
     d="M228.185,222.783h 12.1683"
     fill="none"
     stroke="black"
     id="path396" />
  <path
     d="M240.353,223.966v -2.36714"
     fill="none"
     stroke="black"
     id="path398" />
  <path
     d="M252.521,215.727h -12.1683"
     fill="none"
     stroke="black"
     id="path400" />
  <path
     d="M240.353,216.91v -2.36714"
     fill="none"
     stroke="black"
     id="path402" />
  <path
     d="M257.256,215.727h 12.1683"
     fill="none"
     stroke="black"
     id="path404" />
  <path
     d="M269.424,216.91v -2.36714"
     fill="none"
     stroke="black"
     id="path406" />
  <path
     d="M281.597,221.229h -12.1735"
     fill="none"
     stroke="black"
     id="path408" />
  <path
     d="M269.424,222.412v -2.36714"
     fill="none"
     stroke="black"
     id="path410" />
  <path
     d="M286.332,221.229h 12.1735"
     fill="none"
     stroke="black"
     id="path412" />
  <path
     d="M298.505,222.412v -2.36714"
     fill="none"
     stroke="black"
     id="path414" />
  <path
     d="M310.674,237.873h -12.1683"
     fill="none"
     stroke="black"
     id="path416" />
  <path
     d="M298.505,239.057v -2.36714"
     fill="none"
     stroke="black"
     id="path418" />
  <path
     d="M315.408,237.873h 12.1683"
     fill="none"
     stroke="black"
     id="path420" />
  <path
     d="M327.576,239.057v -2.36714"
     fill="none"
     stroke="black"
     id="path422" />
  <path
     d="M339.744,245.448h -12.1683"
     fill="none"
     stroke="black"
     id="path424" />
  <path
     d="M327.576,246.632v -2.36714"
     fill="none"
     stroke="black"
     id="path426" />
  <path
     d="M344.479,245.448h 12.1683"
     fill="none"
     stroke="black"
     id="path428" />
  <path
     d="M356.647,246.632v -2.36714"
     fill="none"
     stroke="black"
     id="path430" />
  <path
     d="M368.815,233.534h -12.1683"
     fill="none"
     stroke="black"
     id="path432" />
  <path
     d="M356.647,234.718v -2.36714"
     fill="none"
     stroke="black"
     id="path434" />
  <path
     d="M373.55,233.534h 12.1683"
     fill="none"
     stroke="black"
     id="path436" />
  <path
     d="M385.718,234.718v -2.36714"
     fill="none"
     stroke="black"
     id="path438" />
  <path
     d="M397.891,238.001h -12.1735"
     fill="none"
     stroke="black"
     id="path440" />
  <path
     d="M385.718,239.184v -2.36714"
     fill="none"
     stroke="black"
     id="path442" />
  <path
     d="M402.626,238.001h 12.1735"
     fill="none"
     stroke="black"
     id="path444" />
  <path
     d="M414.799,239.184v -2.36714"
     fill="none"
     stroke="black"
     id="path446" />
  <path
     d="M426.967,217.308h -12.1683"
     fill="none"
     stroke="black"
     id="path448" />
  <path
     d="M414.799,218.492v -2.36714"
     fill="none"
     stroke="black"
     id="path450" />
  <path
     d="M431.702,217.308h 12.1683"
     fill="none"
     stroke="black"
     id="path452" />
  <path
     d="M443.87,218.492v -2.36714"
     fill="none"
     stroke="black"
     id="path454" />
  <path
     d="M456.038,212.14h -12.1683"
     fill="none"
     stroke="black"
     id="path456" />
  <path
     d="M443.87,213.324v -2.36714"
     fill="none"
     stroke="black"
     id="path458" />
  <path
     d="M460.773,212.14h 12.1683"
     fill="none"
     stroke="black"
     id="path460" />
  <path
     d="M472.941,213.324v -2.36714"
     fill="none"
     stroke="black"
     id="path462" />
  <g
     fill="#0000ff"
     id="g490">
    <rect
       x="107.156"
       y="219.393"
       width="4.73427"
       height="4.73427"
       id="rect464" />
    <rect
       x="136.227"
       y="213.461"
       width="4.73427"
       height="4.73427"
       id="rect466" />
    <rect
       x="165.303"
       y="217.098"
       width="4.73427"
       height="4.73427"
       id="rect468" />
    <rect
       x="194.38"
       y="220.427"
       width="4.73427"
       height="4.73427"
       id="rect470" />
    <rect
       x="223.45"
       y="220.415"
       width="4.73427"
       height="4.73427"
       id="rect472" />
    <rect
       x="252.521"
       y="213.359"
       width="4.73427"
       height="4.73427"
       id="rect474" />
    <rect
       x="281.597"
       y="218.862"
       width="4.73427"
       height="4.73427"
       id="rect476" />
    <rect
       x="310.674"
       y="235.506"
       width="4.73427"
       height="4.73427"
       id="rect478" />
    <rect
       x="339.744"
       y="243.081"
       width="4.73427"
       height="4.73427"
       id="rect480" />
    <rect
       x="368.815"
       y="231.167"
       width="4.73427"
       height="4.73427"
       id="rect482" />
    <rect
       x="397.891"
       y="235.634"
       width="4.73427"
       height="4.73427"
       id="rect484" />
    <rect
       x="426.967"
       y="214.941"
       width="4.73427"
       height="4.73427"
       id="rect486" />
    <rect
       x="456.038"
       y="209.773"
       width="4.73427"
       height="4.73427"
       id="rect488" />
  </g>
  <path
     d="M107.156,443.343h -12.1683"
     fill="none"
     stroke="black"
     id="path492" />
  <path
     d="M94.9882,444.527v -2.36714"
     fill="none"
     stroke="black"
     id="path494" />
  <path
     d="M111.891,443.343h 12.1683"
     fill="none"
     stroke="black"
     id="path496" />
  <path
     d="M124.059,444.527v -2.36714"
     fill="none"
     stroke="black"
     id="path498" />
  <path
     d="M136.227,435.329h -12.1683"
     fill="none"
     stroke="black"
     id="path500" />
  <path
     d="M124.059,436.513v -2.36714"
     fill="none"
     stroke="black"
     id="path502" />
  <path
     d="M140.962,435.329h 12.1683"
     fill="none"
     stroke="black"
     id="path504" />
  <path
     d="M153.13,436.513v -2.36714"
     fill="none"
     stroke="black"
     id="path506" />
  <path
     d="M165.303,452.049h -12.1735"
     fill="none"
     stroke="black"
     id="path508" />
  <path
     d="M153.13,453.233v -2.36714"
     fill="none"
     stroke="black"
     id="path510" />
  <path
     d="M170.038,452.049h 12.1735"
     fill="none"
     stroke="black"
     id="path512" />
  <path
     d="M182.211,453.233v -2.36714"
     fill="none"
     stroke="black"
     id="path514" />
  <path
     d="M194.38,470.892h -12.1683"
     fill="none"
     stroke="black"
     id="path516" />
  <path
     d="M182.211,472.075v -2.36714"
     fill="none"
     stroke="black"
     id="path518" />
  <path
     d="M199.114,470.892h 12.1683"
     fill="none"
     stroke="black"
     id="path520" />
  <path
     d="M211.282,472.075v -2.36714"
     fill="none"
     stroke="black"
     id="path522" />
  <path
     d="M223.45,483.708h -12.1683"
     fill="none"
     stroke="black"
     id="path524" />
  <path
     d="M211.282,484.891v -2.36714"
     fill="none"
     stroke="black"
     id="path526" />
  <path
     d="M228.185,483.708h 12.1683"
     fill="none"
     stroke="black"
     id="path528" />
  <path
     d="M240.353,484.891v -2.36714"
     fill="none"
     stroke="black"
     id="path530" />
  <path
     d="M252.521,430.41h -12.1683"
     fill="none"
     stroke="black"
     id="path532" />
  <path
     d="M240.353,431.594v -2.36714"
     fill="none"
     stroke="black"
     id="path534" />
  <path
     d="M257.256,430.41h 12.1683"
     fill="none"
     stroke="black"
     id="path536" />
  <path
     d="M269.424,431.594v -2.36714"
     fill="none"
     stroke="black"
     id="path538" />
  <path
     d="M281.597,427.631h -12.1735"
     fill="none"
     stroke="black"
     id="path540" />
  <path
     d="M269.424,428.814v -2.36714"
     fill="none"
     stroke="black"
     id="path542" />
  <path
     d="M286.332,427.631h 12.1735"
     fill="none"
     stroke="black"
     id="path544" />
  <path
     d="M298.505,428.814v -2.36714"
     fill="none"
     stroke="black"
     id="path546" />
  <path
     d="M310.674,503.712h -12.1683"
     fill="none"
     stroke="black"
     id="path548" />
  <path
     d="M298.505,504.895v -2.36714"
     fill="none"
     stroke="black"
     id="path550" />
  <path
     d="M315.408,503.712h 12.1683"
     fill="none"
     stroke="black"
     id="path552" />
  <path
     d="M327.576,504.895v -2.36714"
     fill="none"
     stroke="black"
     id="path554" />
  <path
     d="M339.744,505.761h -12.1683"
     fill="none"
     stroke="black"
     id="path556" />
  <path
     d="M327.576,506.944v -2.36714"
     fill="none"
     stroke="black"
     id="path558" />
  <path
     d="M344.479,505.761h 12.1683"
     fill="none"
     stroke="black"
     id="path560" />
  <path
     d="M356.647,506.944v -2.36714"
     fill="none"
     stroke="black"
     id="path562" />
  <path
     d="M368.815,479.633h -12.1683"
     fill="none"
     stroke="black"
     id="path564" />
  <path
     d="M356.647,480.816v -2.36714"
     fill="none"
     stroke="black"
     id="path566" />
  <path
     d="M373.55,479.633h 12.1683"
     fill="none"
     stroke="black"
     id="path568" />
  <path
     d="M385.718,480.816v -2.36714"
     fill="none"
     stroke="black"
     id="path570" />
  <path
     d="M397.891,471.743h -12.1735"
     fill="none"
     stroke="black"
     id="path572" />
  <path
     d="M385.718,472.927v -2.36714"
     fill="none"
     stroke="black"
     id="path574" />
  <path
     d="M402.626,471.743h 12.1735"
     fill="none"
     stroke="black"
     id="path576" />
  <path
     d="M414.799,472.927v -2.36714"
     fill="none"
     stroke="black"
     id="path578" />
  <path
     d="M426.967,447.489h -12.1683"
     fill="none"
     stroke="black"
     id="path580" />
  <path
     d="M414.799,448.672v -2.36714"
     fill="none"
     stroke="black"
     id="path582" />
  <path
     d="M431.702,447.489h 12.1683"
     fill="none"
     stroke="black"
     id="path584" />
  <path
     d="M443.87,448.672v -2.36714"
     fill="none"
     stroke="black"
     id="path586" />
  <path
     d="M456.038,437.554h -12.1683"
     fill="none"
     stroke="black"
     id="path588" />
  <path
     d="M443.87,438.737v -2.36714"
     fill="none"
     stroke="black"
     id="path590" />
  <path
     d="M460.773,437.554h 12.1683"
     fill="none"
     stroke="black"
     id="path592" />
  <path
     d="M472.941,438.737v -2.36714"
     fill="none"
     stroke="black"
     id="path594" />
  <g
     fill="#00ff00"
     id="g622">
    <rect
       x="107.156"
       y="440.976"
       width="4.73427"
       height="4.73427"
       id="rect596" />
    <rect
       x="136.227"
       y="432.962"
       width="4.73427"
       height="4.73427"
       id="rect598" />
    <rect
       x="165.303"
       y="449.682"
       width="4.73427"
       height="4.73427"
       id="rect600" />
    <rect
       x="194.38"
       y="468.524"
       width="4.73427"
       height="4.73427"
       id="rect602" />
    <rect
       x="223.45"
       y="481.34"
       width="4.73427"
       height="4.73427"
       id="rect604" />
    <rect
       x="252.521"
       y="428.043"
       width="4.73427"
       height="4.73427"
       id="rect606" />
    <rect
       x="281.597"
       y="425.264"
       width="4.73427"
       height="4.73427"
       id="rect608" />
    <rect
       x="310.674"
       y="501.345"
       width="4.73427"
       height="4.73427"
       id="rect610" />
    <rect
       x="339.744"
       y="503.394"
       width="4.73427"
       height="4.73427"
       id="rect612" />
    <rect
       x="368.815"
       y="477.266"
       width="4.73427"
       height="4.73427"
       id="rect614" />
    <rect
       x="397.891"
       y="469.376"
       width="4.73427"
       height="4.73427"
       id="rect616" />
    <rect
       x="426.967"
       y="445.122"
       width="4.73427"
       height="4.73427"
       id="rect618" />
    <rect
       x="456.038"
       y="435.187"
       width="4.73427"
       height="4.73427"
       id="rect620" />
  </g>
  <rect
     x="396.404"
     y="66.2798"
     width="105.338"
     height="43.792"
     fill="white"
     id="rect624" />
  <path
     d="M396.404,110.072h 105.338"
     fill="none"
     stroke="black"
     id="path626" />
  <path
     d="M501.741,110.072v -43.792"
     fill="none"
     stroke="black"
     id="path628" />
  <path
     d="M501.741,66.2798h -105.338"
     fill="none"
     stroke="black"
     id="path630" />
  <path
     d="M396.404,66.2798v 43.792"
     fill="none"
     stroke="black"
     id="path632" />
  <text
     xml:space="preserve"
     x="422.442"
     y="76.3401"
     fill="black"
     font-size="10.1224"
     font-family="Helvetica"
     id="text634">DC</text>
  <path
     d="M400.354,73.5785h 18.4341"
     fill="none"
     stroke="black"
     id="path636" />
  <g
     fill="#ff0000"
     id="g640">
    <rect
       x="407.204"
       y="71.2113"
       width="4.73427"
       height="4.73427"
       id="rect638" />
  </g>
  <text
     xml:space="preserve"
     x="422.442"
     y="91.1347"
     fill="black"
     font-size="10.1224"
     font-family="Helvetica"
     id="text642">FMT - 2 layers</text>
  <path
     d="M400.354,88.1758h 18.4341"
     fill="none"
     stroke="black"
     id="path644" />
  <g
     fill="#0000ff"
     id="g648">
    <rect
       x="407.204"
       y="85.8087"
       width="4.73427"
       height="4.73427"
       id="rect646" />
  </g>
  <text
     xml:space="preserve"
     x="422.442"
     y="105.929"
     fill="black"
     font-size="10.1224"
     font-family="Helvetica"
     id="text650">FMT - 3 layers</text>
  <path
     d="M400.354,102.773h 18.4341"
     fill="none"
     stroke="black"
     id="path652" />
  <g
     fill="#00ff00"
     id="g656">
    <rect
       x="407.204"
       y="100.406"
       width="4.73427"
       height="4.73427"
       id="rect654" />
  </g>
  <text
     xml:space="preserve"
     x="276.271"
     y="28.4056"
     fill="black"
     font-size="18.4126"
     font-family="Helvetica"
     id="text658"> (rad)</text>
  <text
     xml:space="preserve"
     x="258.518"
     y="37.8742"
     fill="black"
     font-size="12.4417"
     font-family="Helvetica"
     id="text660">PQ</text>
  <text
     xml:space="preserve"
     x="249.049"
     y="28.4056"
     fill="black"
     font-size="18.4126"
     font-family="Times"
     id="text662">φ</text>
</svg>
