<?xml version="1.0" encoding="UTF-8" standalone="no"?>
<svg
   width="567.429"
   height="608.262"
   viewBox="0 0 567.429 608.262"
   shape-rendering="crispEdges"
   version="1.1"
   id="svg640"
   sodipodi:docname="int_phipq_-211.svg"
   inkscape:export-filename="int_phipq_-211.pdf"
   inkscape:export-xdpi="96"
   inkscape:export-ydpi="96"
   inkscape:version="1.2.2 (1:1.2.2+202305151914+b0a8486541)"
   xmlns:inkscape="http://www.inkscape.org/namespaces/inkscape"
   xmlns:sodipodi="http://sodipodi.sourceforge.net/DTD/sodipodi-0.dtd"
   xmlns="http://www.w3.org/2000/svg"
   xmlns:svg="http://www.w3.org/2000/svg">
  <sodipodi:namedview
     id="namedview642"
     pagecolor="#ffffff"
     bordercolor="#666666"
     borderopacity="1.0"
     inkscape:showpageshadow="2"
     inkscape:pageopacity="0.0"
     inkscape:pagecheckerboard="0"
     inkscape:deskcolor="#d1d1d1"
     showgrid="false"
     inkscape:zoom="0.38799069"
     inkscape:cx="283.51196"
     inkscape:cy="304.13101"
     inkscape:window-width="1920"
     inkscape:window-height="1051"
     inkscape:window-x="0"
     inkscape:window-y="0"
     inkscape:window-maximized="1"
     inkscape:current-layer="svg640" />
  <title
     id="title2">
/home/twig/code/rge-analysis/macros/int_phipq_-211.svg
</title>
  <desc
     id="desc4">
Creator: ROOT Version 6.28/00
CreationDate: Tue Jun 27 11:57:46 2023</desc>
  <defs
     id="defs6" />
  <rect
     x="0.5"
     y="0"
     width="566.929"
     height="607.762"
     fill="white"
     id="rect8" />
  <rect
     x="57.1929"
     y="60.7762"
     width="453.543"
     height="486.21"
     fill="white"
     id="rect10" />
  <rect
     x="57.1929"
     y="60.7762"
     width="453.543"
     height="486.21"
     fill="none"
     stroke="black"
     id="rect12" />
  <rect
     x="57.1929"
     y="60.7762"
     width="453.543"
     height="486.21"
     fill="white"
     id="rect14" />
  <rect
     x="57.1929"
     y="60.7762"
     width="453.543"
     height="486.21"
     fill="none"
     stroke="black"
     id="rect16" />
  <path
     d="M57.1929,546.986h 453.543"
     fill="none"
     stroke="black"
     id="path18" />
  <path
     d="M103.505,60.7762v 486.21"
     fill="none"
     stroke="black"
     stroke-dasharray=" 1, 2"
     id="path20" />
  <path
     d="M163.658,60.7762v 486.21"
     fill="none"
     stroke="black"
     stroke-dasharray=" 1, 2"
     id="path22" />
  <path
     d="M223.812,60.7762v 486.21"
     fill="none"
     stroke="black"
     stroke-dasharray=" 1, 2"
     id="path24" />
  <path
     d="M283.965,60.7762v 486.21"
     fill="none"
     stroke="black"
     stroke-dasharray=" 1, 2"
     id="path26" />
  <path
     d="M344.118,60.7762v 486.21"
     fill="none"
     stroke="black"
     stroke-dasharray=" 1, 2"
     id="path28" />
  <path
     d="M404.271,60.7762v 486.21"
     fill="none"
     stroke="black"
     stroke-dasharray=" 1, 2"
     id="path30" />
  <path
     d="M464.424,60.7762v 486.21"
     fill="none"
     stroke="black"
     stroke-dasharray=" 1, 2"
     id="path32" />
  <path
     d="M103.505,60.7762v 486.21"
     fill="none"
     stroke="black"
     stroke-dasharray=" 1, 2"
     id="path34" />
  <path
     d="M464.424,60.7762v 486.21"
     fill="none"
     stroke="black"
     stroke-dasharray=" 1, 2"
     id="path36" />
  <path
     d="M57.1929,546.986v -486.21"
     fill="none"
     stroke="black"
     id="path38" />
  <path
     d="M510.736,517.03h -453.543"
     fill="none"
     stroke="black"
     stroke-dasharray=" 1, 2"
     id="path40" />
  <path
     d="M510.736,482.733h -453.543"
     fill="none"
     stroke="black"
     stroke-dasharray=" 1, 2"
     id="path42" />
  <path
     d="M510.736,454.71h -453.543"
     fill="none"
     stroke="black"
     stroke-dasharray=" 1, 2"
     id="path44" />
  <path
     d="M510.736,431.017h -453.543"
     fill="none"
     stroke="black"
     stroke-dasharray=" 1, 2"
     id="path46" />
  <path
     d="M510.736,410.493h -453.543"
     fill="none"
     stroke="black"
     stroke-dasharray=" 1, 2"
     id="path48" />
  <path
     d="M510.736,392.389h -453.543"
     fill="none"
     stroke="black"
     stroke-dasharray=" 1, 2"
     id="path50" />
  <path
     d="M510.736,376.195h -453.543"
     fill="none"
     stroke="black"
     stroke-dasharray=" 1, 2"
     id="path52" />
  <path
     d="M510.736,269.658h -453.543"
     fill="none"
     stroke="black"
     stroke-dasharray=" 1, 2"
     id="path54" />
  <path
     d="M510.736,207.337h -453.543"
     fill="none"
     stroke="black"
     stroke-dasharray=" 1, 2"
     id="path56" />
  <path
     d="M510.736,163.12h -453.543"
     fill="none"
     stroke="black"
     stroke-dasharray=" 1, 2"
     id="path58" />
  <path
     d="M510.736,128.822h -453.543"
     fill="none"
     stroke="black"
     stroke-dasharray=" 1, 2"
     id="path60" />
  <path
     d="M510.736,100.799h -453.543"
     fill="none"
     stroke="black"
     stroke-dasharray=" 1, 2"
     id="path62" />
  <path
     d="M510.736,77.1062h -453.543"
     fill="none"
     stroke="black"
     stroke-dasharray=" 1, 2"
     id="path64" />
  <path
     d="M57.1929,546.986h 453.543"
     fill="none"
     stroke="black"
     id="path66" />
  <path
     d="M103.505,532.4v 14.5863"
     fill="none"
     stroke="black"
     id="path68" />
  <path
     d="M115.536,539.693v 7.29315"
     fill="none"
     stroke="black"
     id="path70" />
  <path
     d="M127.567,539.693v 7.29315"
     fill="none"
     stroke="black"
     id="path72" />
  <path
     d="M139.597,539.693v 7.29315"
     fill="none"
     stroke="black"
     id="path74" />
  <path
     d="M151.628,539.693v 7.29315"
     fill="none"
     stroke="black"
     id="path76" />
  <path
     d="M163.658,532.4v 14.5863"
     fill="none"
     stroke="black"
     id="path78" />
  <path
     d="M175.689,539.693v 7.29315"
     fill="none"
     stroke="black"
     id="path80" />
  <path
     d="M187.72,539.693v 7.29315"
     fill="none"
     stroke="black"
     id="path82" />
  <path
     d="M199.75,539.693v 7.29315"
     fill="none"
     stroke="black"
     id="path84" />
  <path
     d="M211.781,539.693v 7.29315"
     fill="none"
     stroke="black"
     id="path86" />
  <path
     d="M223.812,532.4v 14.5863"
     fill="none"
     stroke="black"
     id="path88" />
  <path
     d="M235.842,539.693v 7.29315"
     fill="none"
     stroke="black"
     id="path90" />
  <path
     d="M247.873,539.693v 7.29315"
     fill="none"
     stroke="black"
     id="path92" />
  <path
     d="M259.903,539.693v 7.29315"
     fill="none"
     stroke="black"
     id="path94" />
  <path
     d="M271.934,539.693v 7.29315"
     fill="none"
     stroke="black"
     id="path96" />
  <path
     d="M283.965,532.4v 14.5863"
     fill="none"
     stroke="black"
     id="path98" />
  <path
     d="M295.995,539.693v 7.29315"
     fill="none"
     stroke="black"
     id="path100" />
  <path
     d="M308.026,539.693v 7.29315"
     fill="none"
     stroke="black"
     id="path102" />
  <path
     d="M320.056,539.693v 7.29315"
     fill="none"
     stroke="black"
     id="path104" />
  <path
     d="M332.087,539.693v 7.29315"
     fill="none"
     stroke="black"
     id="path106" />
  <path
     d="M344.118,532.4v 14.5863"
     fill="none"
     stroke="black"
     id="path108" />
  <path
     d="M356.148,539.693v 7.29315"
     fill="none"
     stroke="black"
     id="path110" />
  <path
     d="M368.179,539.693v 7.29315"
     fill="none"
     stroke="black"
     id="path112" />
  <path
     d="M380.209,539.693v 7.29315"
     fill="none"
     stroke="black"
     id="path114" />
  <path
     d="M392.24,539.693v 7.29315"
     fill="none"
     stroke="black"
     id="path116" />
  <path
     d="M404.271,532.4v 14.5863"
     fill="none"
     stroke="black"
     id="path118" />
  <path
     d="M416.301,539.693v 7.29315"
     fill="none"
     stroke="black"
     id="path120" />
  <path
     d="M428.332,539.693v 7.29315"
     fill="none"
     stroke="black"
     id="path122" />
  <path
     d="M440.362,539.693v 7.29315"
     fill="none"
     stroke="black"
     id="path124" />
  <path
     d="M452.393,539.693v 7.29315"
     fill="none"
     stroke="black"
     id="path126" />
  <path
     d="M464.424,532.4v 14.5863"
     fill="none"
     stroke="black"
     id="path128" />
  <path
     d="M103.505,532.4v 14.5863"
     fill="none"
     stroke="black"
     id="path130" />
  <path
     d="M91.4748,539.693v 7.29315"
     fill="none"
     stroke="black"
     id="path132" />
  <path
     d="M79.4442,539.693v 7.29315"
     fill="none"
     stroke="black"
     id="path134" />
  <path
     d="M67.4136,539.693v 7.29315"
     fill="none"
     stroke="black"
     id="path136" />
  <path
     d="M464.424,532.4v 14.5863"
     fill="none"
     stroke="black"
     id="path138" />
  <path
     d="M476.454,539.693v 7.29315"
     fill="none"
     stroke="black"
     id="path140" />
  <path
     d="M488.485,539.693v 7.29315"
     fill="none"
     stroke="black"
     id="path142" />
  <path
     d="M500.516,539.693v 7.29315"
     fill="none"
     stroke="black"
     id="path144" />
  <text
     xml:space="preserve"
     x="103.47"
     y="566.929"
     fill="black"
     font-size="18.7041"
     font-family="Helvetica"
     id="text146">3</text>
  <text
     xml:space="preserve"
     x="93.4101"
     y="566.929"
     fill="black"
     font-size="18.7041"
     font-family="Times"
     id="text148">−</text>
  <text
     xml:space="preserve"
     x="163.241"
     y="566.929"
     fill="black"
     font-size="18.7041"
     font-family="Helvetica"
     id="text150">2</text>
  <text
     xml:space="preserve"
     x="153.18"
     y="566.929"
     fill="black"
     font-size="18.7041"
     font-family="Times"
     id="text152">−</text>
  <text
     xml:space="preserve"
     x="224.786"
     y="566.929"
     fill="black"
     font-size="18.7041"
     font-family="Helvetica"
     id="text154">1</text>
  <text
     xml:space="preserve"
     x="215.318"
     y="566.929"
     fill="black"
     font-size="18.7041"
     font-family="Times"
     id="text156">−</text>
  <text
     xml:space="preserve"
     x="279.23"
     y="566.929"
     fill="black"
     font-size="18.7041"
     font-family="Helvetica"
     id="text158">0</text>
  <text
     xml:space="preserve"
     x="340.184"
     y="566.929"
     fill="black"
     font-size="18.7041"
     font-family="Helvetica"
     id="text160">1</text>
  <text
     xml:space="preserve"
     x="399.362"
     y="566.929"
     fill="black"
     font-size="18.7041"
     font-family="Helvetica"
     id="text162">2</text>
  <text
     xml:space="preserve"
     x="459.133"
     y="566.929"
     fill="black"
     font-size="18.7041"
     font-family="Helvetica"
     id="text164">3</text>
  <text
     xml:space="preserve"
     x="468.009"
     y="582.315"
     fill="black"
     font-size="18.7041"
     font-family="Helvetica"
     id="text166"> (rad)</text>
  <text
     xml:space="preserve"
     x="450.256"
     y="591.784"
     fill="black"
     font-size="12.6361"
     font-family="Helvetica"
     id="text168">PQ</text>
  <text
     xml:space="preserve"
     x="440.787"
     y="582.315"
     fill="black"
     font-size="18.7041"
     font-family="Times"
     id="text170">φ</text>
  <path
     d="M57.1929,546.986v -486.21"
     fill="none"
     stroke="black"
     id="path172" />
  <path
     d="M63.9961,517.03h -6.80315"
     fill="none"
     stroke="black"
     id="path174" />
  <path
     d="M63.9961,482.733h -6.80315"
     fill="none"
     stroke="black"
     id="path176" />
  <path
     d="M63.9961,454.71h -6.80315"
     fill="none"
     stroke="black"
     id="path178" />
  <path
     d="M63.9961,431.017h -6.80315"
     fill="none"
     stroke="black"
     id="path180" />
  <path
     d="M63.9961,410.493h -6.80315"
     fill="none"
     stroke="black"
     id="path182" />
  <path
     d="M63.9961,392.389h -6.80315"
     fill="none"
     stroke="black"
     id="path184" />
  <path
     d="M70.7992,376.195h -13.6063"
     fill="none"
     stroke="black"
     id="path186" />
  <text
     xml:space="preserve"
     x="46.0674"
     y="375.783"
     fill="black"
     font-size="12.6361"
     font-family="Helvetica"
     id="text188">5</text>
  <text
     xml:space="preserve"
     x="26.5385"
     y="384.068"
     fill="black"
     font-size="18.7041"
     font-family="Helvetica"
     id="text190">10</text>
  <path
     d="M63.9961,269.658h -6.80315"
     fill="none"
     stroke="black"
     id="path192" />
  <path
     d="M63.9961,207.337h -6.80315"
     fill="none"
     stroke="black"
     id="path194" />
  <path
     d="M63.9961,163.12h -6.80315"
     fill="none"
     stroke="black"
     id="path196" />
  <path
     d="M63.9961,128.822h -6.80315"
     fill="none"
     stroke="black"
     id="path198" />
  <path
     d="M63.9961,100.799h -6.80315"
     fill="none"
     stroke="black"
     id="path200" />
  <path
     d="M63.9961,77.1062h -6.80315"
     fill="none"
     stroke="black"
     id="path202" />
  <g
     fill="#ff0000"
     id="g230">
    <rect
       x="107.156"
       y="128.059"
       width="4.73427"
       height="4.73427"
       id="rect204" />
    <rect
       x="136.227"
       y="141.085"
       width="4.73427"
       height="4.73427"
       id="rect206" />
    <rect
       x="165.303"
       y="134.803"
       width="4.73427"
       height="4.73427"
       id="rect208" />
    <rect
       x="194.38"
       y="133.784"
       width="4.73427"
       height="4.73427"
       id="rect210" />
    <rect
       x="223.45"
       y="142.904"
       width="4.73427"
       height="4.73427"
       id="rect212" />
    <rect
       x="252.521"
       y="141.719"
       width="4.73427"
       height="4.73427"
       id="rect214" />
    <rect
       x="281.597"
       y="148.096"
       width="4.73427"
       height="4.73427"
       id="rect216" />
    <rect
       x="310.674"
       y="137.26"
       width="4.73427"
       height="4.73427"
       id="rect218" />
    <rect
       x="339.744"
       y="111.678"
       width="4.73427"
       height="4.73427"
       id="rect220" />
    <rect
       x="368.815"
       y="119.378"
       width="4.73427"
       height="4.73427"
       id="rect222" />
    <rect
       x="397.891"
       y="117.63"
       width="4.73427"
       height="4.73427"
       id="rect224" />
    <rect
       x="426.967"
       y="132.473"
       width="4.73427"
       height="4.73427"
       id="rect226" />
    <rect
       x="456.038"
       y="127.552"
       width="4.73427"
       height="4.73427"
       id="rect228" />
  </g>
  <path
     d="M107.156,130.426h -12.1683"
     fill="none"
     stroke="black"
     id="path232" />
  <path
     d="M94.9882,131.61v -2.36714"
     fill="none"
     stroke="black"
     id="path234" />
  <path
     d="M111.891,130.426h 12.1683"
     fill="none"
     stroke="black"
     id="path236" />
  <path
     d="M124.059,131.61v -2.36714"
     fill="none"
     stroke="black"
     id="path238" />
  <path
     d="M136.227,143.452h -12.1683"
     fill="none"
     stroke="black"
     id="path240" />
  <path
     d="M124.059,144.636v -2.36714"
     fill="none"
     stroke="black"
     id="path242" />
  <path
     d="M140.962,143.452h 12.1683"
     fill="none"
     stroke="black"
     id="path244" />
  <path
     d="M153.13,144.636v -2.36714"
     fill="none"
     stroke="black"
     id="path246" />
  <path
     d="M165.303,137.17h -12.1735"
     fill="none"
     stroke="black"
     id="path248" />
  <path
     d="M153.13,138.354v -2.36714"
     fill="none"
     stroke="black"
     id="path250" />
  <path
     d="M170.038,137.17h 12.1735"
     fill="none"
     stroke="black"
     id="path252" />
  <path
     d="M182.211,138.354v -2.36714"
     fill="none"
     stroke="black"
     id="path254" />
  <path
     d="M194.38,136.151h -12.1683"
     fill="none"
     stroke="black"
     id="path256" />
  <path
     d="M182.211,137.334v -2.36714"
     fill="none"
     stroke="black"
     id="path258" />
  <path
     d="M199.114,136.151h 12.1683"
     fill="none"
     stroke="black"
     id="path260" />
  <path
     d="M211.282,137.334v -2.36714"
     fill="none"
     stroke="black"
     id="path262" />
  <path
     d="M223.45,145.271h -12.1683"
     fill="none"
     stroke="black"
     id="path264" />
  <path
     d="M211.282,146.455v -2.36714"
     fill="none"
     stroke="black"
     id="path266" />
  <path
     d="M228.185,145.271h 12.1683"
     fill="none"
     stroke="black"
     id="path268" />
  <path
     d="M240.353,146.455v -2.36714"
     fill="none"
     stroke="black"
     id="path270" />
  <path
     d="M252.521,144.087h -12.1683"
     fill="none"
     stroke="black"
     id="path272" />
  <path
     d="M240.353,145.27v -2.36714"
     fill="none"
     stroke="black"
     id="path274" />
  <path
     d="M257.256,144.087h 12.1683"
     fill="none"
     stroke="black"
     id="path276" />
  <path
     d="M269.424,145.27v -2.36714"
     fill="none"
     stroke="black"
     id="path278" />
  <path
     d="M281.597,150.463h -12.1735"
     fill="none"
     stroke="black"
     id="path280" />
  <path
     d="M269.424,151.646v -2.36714"
     fill="none"
     stroke="black"
     id="path282" />
  <path
     d="M286.332,150.463h 12.1735"
     fill="none"
     stroke="black"
     id="path284" />
  <path
     d="M298.505,151.646v -2.36714"
     fill="none"
     stroke="black"
     id="path286" />
  <path
     d="M310.674,139.627h -12.1683"
     fill="none"
     stroke="black"
     id="path288" />
  <path
     d="M298.505,140.811v -2.36714"
     fill="none"
     stroke="black"
     id="path290" />
  <path
     d="M315.408,139.627h 12.1683"
     fill="none"
     stroke="black"
     id="path292" />
  <path
     d="M327.576,140.811v -2.36714"
     fill="none"
     stroke="black"
     id="path294" />
  <path
     d="M339.744,114.045h -12.1683"
     fill="none"
     stroke="black"
     id="path296" />
  <path
     d="M327.576,115.229v -2.36714"
     fill="none"
     stroke="black"
     id="path298" />
  <path
     d="M344.479,114.045h 12.1683"
     fill="none"
     stroke="black"
     id="path300" />
  <path
     d="M356.647,115.229v -2.36714"
     fill="none"
     stroke="black"
     id="path302" />
  <path
     d="M368.815,121.746h -12.1683"
     fill="none"
     stroke="black"
     id="path304" />
  <path
     d="M356.647,122.929v -2.36714"
     fill="none"
     stroke="black"
     id="path306" />
  <path
     d="M373.55,121.746h 12.1683"
     fill="none"
     stroke="black"
     id="path308" />
  <path
     d="M385.718,122.929v -2.36714"
     fill="none"
     stroke="black"
     id="path310" />
  <path
     d="M397.891,119.997h -12.1735"
     fill="none"
     stroke="black"
     id="path312" />
  <path
     d="M385.718,121.181v -2.36714"
     fill="none"
     stroke="black"
     id="path314" />
  <path
     d="M402.626,119.997h 12.1735"
     fill="none"
     stroke="black"
     id="path316" />
  <path
     d="M414.799,121.181v -2.36714"
     fill="none"
     stroke="black"
     id="path318" />
  <path
     d="M426.967,134.84h -12.1683"
     fill="none"
     stroke="black"
     id="path320" />
  <path
     d="M414.799,136.024v -2.36714"
     fill="none"
     stroke="black"
     id="path322" />
  <path
     d="M431.702,134.84h 12.1683"
     fill="none"
     stroke="black"
     id="path324" />
  <path
     d="M443.87,136.024v -2.36714"
     fill="none"
     stroke="black"
     id="path326" />
  <path
     d="M456.038,129.919h -12.1683"
     fill="none"
     stroke="black"
     id="path328" />
  <path
     d="M443.87,131.102v -2.36714"
     fill="none"
     stroke="black"
     id="path330" />
  <path
     d="M460.773,129.919h 12.1683"
     fill="none"
     stroke="black"
     id="path332" />
  <path
     d="M472.941,131.102v -2.36714"
     fill="none"
     stroke="black"
     id="path334" />
  <path
     d="M107.156,214.305h -12.1683"
     fill="none"
     stroke="black"
     id="path336" />
  <path
     d="M94.9882,215.489v -2.36714"
     fill="none"
     stroke="black"
     id="path338" />
  <path
     d="M111.891,214.305h 12.1683"
     fill="none"
     stroke="black"
     id="path340" />
  <path
     d="M124.059,215.489v -2.36714"
     fill="none"
     stroke="black"
     id="path342" />
  <path
     d="M136.227,224.563h -12.1683"
     fill="none"
     stroke="black"
     id="path344" />
  <path
     d="M124.059,225.746v -2.36714"
     fill="none"
     stroke="black"
     id="path346" />
  <path
     d="M140.962,224.563h 12.1683"
     fill="none"
     stroke="black"
     id="path348" />
  <path
     d="M153.13,225.746v -2.36714"
     fill="none"
     stroke="black"
     id="path350" />
  <path
     d="M165.303,216.054h -12.1735"
     fill="none"
     stroke="black"
     id="path352" />
  <path
     d="M153.13,217.237v -2.36714"
     fill="none"
     stroke="black"
     id="path354" />
  <path
     d="M170.038,216.054h 12.1735"
     fill="none"
     stroke="black"
     id="path356" />
  <path
     d="M182.211,217.237v -2.36714"
     fill="none"
     stroke="black"
     id="path358" />
  <path
     d="M194.38,212.6h -12.1683"
     fill="none"
     stroke="black"
     id="path360" />
  <path
     d="M182.211,213.783v -2.36714"
     fill="none"
     stroke="black"
     id="path362" />
  <path
     d="M199.114,212.6h 12.1683"
     fill="none"
     stroke="black"
     id="path364" />
  <path
     d="M211.282,213.783v -2.36714"
     fill="none"
     stroke="black"
     id="path366" />
  <path
     d="M223.45,201.789h -12.1683"
     fill="none"
     stroke="black"
     id="path368" />
  <path
     d="M211.282,202.973v -2.36714"
     fill="none"
     stroke="black"
     id="path370" />
  <path
     d="M228.185,201.789h 12.1683"
     fill="none"
     stroke="black"
     id="path372" />
  <path
     d="M240.353,202.973v -2.36714"
     fill="none"
     stroke="black"
     id="path374" />
  <path
     d="M252.521,190.056h -12.1683"
     fill="none"
     stroke="black"
     id="path376" />
  <path
     d="M240.353,191.239v -2.36714"
     fill="none"
     stroke="black"
     id="path378" />
  <path
     d="M257.256,190.056h 12.1683"
     fill="none"
     stroke="black"
     id="path380" />
  <path
     d="M269.424,191.239v -2.36714"
     fill="none"
     stroke="black"
     id="path382" />
  <path
     d="M281.597,183.496h -12.1735"
     fill="none"
     stroke="black"
     id="path384" />
  <path
     d="M269.424,184.679v -2.36714"
     fill="none"
     stroke="black"
     id="path386" />
  <path
     d="M286.332,183.496h 12.1735"
     fill="none"
     stroke="black"
     id="path388" />
  <path
     d="M298.505,184.679v -2.36714"
     fill="none"
     stroke="black"
     id="path390" />
  <path
     d="M310.674,188.983h -12.1683"
     fill="none"
     stroke="black"
     id="path392" />
  <path
     d="M298.505,190.166v -2.36714"
     fill="none"
     stroke="black"
     id="path394" />
  <path
     d="M315.408,188.983h 12.1683"
     fill="none"
     stroke="black"
     id="path396" />
  <path
     d="M327.576,190.166v -2.36714"
     fill="none"
     stroke="black"
     id="path398" />
  <path
     d="M339.744,188.335h -12.1683"
     fill="none"
     stroke="black"
     id="path400" />
  <path
     d="M327.576,189.518v -2.36714"
     fill="none"
     stroke="black"
     id="path402" />
  <path
     d="M344.479,188.335h 12.1683"
     fill="none"
     stroke="black"
     id="path404" />
  <path
     d="M356.647,189.518v -2.36714"
     fill="none"
     stroke="black"
     id="path406" />
  <path
     d="M368.815,201.06h -12.1683"
     fill="none"
     stroke="black"
     id="path408" />
  <path
     d="M356.647,202.243v -2.36714"
     fill="none"
     stroke="black"
     id="path410" />
  <path
     d="M373.55,201.06h 12.1683"
     fill="none"
     stroke="black"
     id="path412" />
  <path
     d="M385.718,202.243v -2.36714"
     fill="none"
     stroke="black"
     id="path414" />
  <path
     d="M397.891,204.904h -12.1735"
     fill="none"
     stroke="black"
     id="path416" />
  <path
     d="M385.718,206.087v -2.36714"
     fill="none"
     stroke="black"
     id="path418" />
  <path
     d="M402.626,204.904h 12.1735"
     fill="none"
     stroke="black"
     id="path420" />
  <path
     d="M414.799,206.087v -2.36714"
     fill="none"
     stroke="black"
     id="path422" />
  <path
     d="M426.967,208.529h -12.1683"
     fill="none"
     stroke="black"
     id="path424" />
  <path
     d="M414.799,209.712v -2.36714"
     fill="none"
     stroke="black"
     id="path426" />
  <path
     d="M431.702,208.529h 12.1683"
     fill="none"
     stroke="black"
     id="path428" />
  <path
     d="M443.87,209.712v -2.36714"
     fill="none"
     stroke="black"
     id="path430" />
  <path
     d="M456.038,212.066h -12.1683"
     fill="none"
     stroke="black"
     id="path432" />
  <path
     d="M443.87,213.25v -2.36714"
     fill="none"
     stroke="black"
     id="path434" />
  <path
     d="M460.773,212.066h 12.1683"
     fill="none"
     stroke="black"
     id="path436" />
  <path
     d="M472.941,213.25v -2.36714"
     fill="none"
     stroke="black"
     id="path438" />
  <g
     fill="#0000ff"
     id="g466">
    <rect
       x="107.156"
       y="211.938"
       width="4.73427"
       height="4.73427"
       id="rect440" />
    <rect
       x="136.227"
       y="222.196"
       width="4.73427"
       height="4.73427"
       id="rect442" />
    <rect
       x="165.303"
       y="213.687"
       width="4.73427"
       height="4.73427"
       id="rect444" />
    <rect
       x="194.38"
       y="210.233"
       width="4.73427"
       height="4.73427"
       id="rect446" />
    <rect
       x="223.45"
       y="199.422"
       width="4.73427"
       height="4.73427"
       id="rect448" />
    <rect
       x="252.521"
       y="187.688"
       width="4.73427"
       height="4.73427"
       id="rect450" />
    <rect
       x="281.597"
       y="181.129"
       width="4.73427"
       height="4.73427"
       id="rect452" />
    <rect
       x="310.674"
       y="186.616"
       width="4.73427"
       height="4.73427"
       id="rect454" />
    <rect
       x="339.744"
       y="185.968"
       width="4.73427"
       height="4.73427"
       id="rect456" />
    <rect
       x="368.815"
       y="198.692"
       width="4.73427"
       height="4.73427"
       id="rect458" />
    <rect
       x="397.891"
       y="202.536"
       width="4.73427"
       height="4.73427"
       id="rect460" />
    <rect
       x="426.967"
       y="206.161"
       width="4.73427"
       height="4.73427"
       id="rect462" />
    <rect
       x="456.038"
       y="209.699"
       width="4.73427"
       height="4.73427"
       id="rect464" />
  </g>
  <path
     d="M107.156,468.697h -12.1683"
     fill="none"
     stroke="black"
     id="path468" />
  <path
     d="M94.9882,469.881v -2.36714"
     fill="none"
     stroke="black"
     id="path470" />
  <path
     d="M111.891,468.697h 12.1683"
     fill="none"
     stroke="black"
     id="path472" />
  <path
     d="M124.059,469.881v -2.36714"
     fill="none"
     stroke="black"
     id="path474" />
  <path
     d="M136.227,470.648h -12.1683"
     fill="none"
     stroke="black"
     id="path476" />
  <path
     d="M124.059,471.832v -2.36714"
     fill="none"
     stroke="black"
     id="path478" />
  <path
     d="M140.962,470.648h 12.1683"
     fill="none"
     stroke="black"
     id="path480" />
  <path
     d="M153.13,471.832v -2.36714"
     fill="none"
     stroke="black"
     id="path482" />
  <path
     d="M165.303,485.271h -12.1735"
     fill="none"
     stroke="black"
     id="path484" />
  <path
     d="M153.13,486.455v -2.36714"
     fill="none"
     stroke="black"
     id="path486" />
  <path
     d="M170.038,485.271h 12.1735"
     fill="none"
     stroke="black"
     id="path488" />
  <path
     d="M182.211,486.455v -2.36714"
     fill="none"
     stroke="black"
     id="path490" />
  <path
     d="M194.38,493.717h -12.1683"
     fill="none"
     stroke="black"
     id="path492" />
  <path
     d="M182.211,494.901v -2.36714"
     fill="none"
     stroke="black"
     id="path494" />
  <path
     d="M199.114,493.717h 12.1683"
     fill="none"
     stroke="black"
     id="path496" />
  <path
     d="M211.282,494.901v -2.36714"
     fill="none"
     stroke="black"
     id="path498" />
  <path
     d="M223.45,470.92h -12.1683"
     fill="none"
     stroke="black"
     id="path500" />
  <path
     d="M211.282,472.103v -2.36714"
     fill="none"
     stroke="black"
     id="path502" />
  <path
     d="M228.185,470.92h 12.1683"
     fill="none"
     stroke="black"
     id="path504" />
  <path
     d="M240.353,472.103v -2.36714"
     fill="none"
     stroke="black"
     id="path506" />
  <path
     d="M252.521,415.725h -12.1683"
     fill="none"
     stroke="black"
     id="path508" />
  <path
     d="M240.353,416.909v -2.36714"
     fill="none"
     stroke="black"
     id="path510" />
  <path
     d="M257.256,415.725h 12.1683"
     fill="none"
     stroke="black"
     id="path512" />
  <path
     d="M269.424,416.909v -2.36714"
     fill="none"
     stroke="black"
     id="path514" />
  <path
     d="M281.597,350.747h -12.1735"
     fill="none"
     stroke="black"
     id="path516" />
  <path
     d="M269.424,351.931v -2.36714"
     fill="none"
     stroke="black"
     id="path518" />
  <path
     d="M286.332,350.747h 12.1735"
     fill="none"
     stroke="black"
     id="path520" />
  <path
     d="M298.505,351.931v -2.36714"
     fill="none"
     stroke="black"
     id="path522" />
  <path
     d="M310.674,394.474h -12.1683"
     fill="none"
     stroke="black"
     id="path524" />
  <path
     d="M298.505,395.657v -2.36714"
     fill="none"
     stroke="black"
     id="path526" />
  <path
     d="M315.408,394.474h 12.1683"
     fill="none"
     stroke="black"
     id="path528" />
  <path
     d="M327.576,395.657v -2.36714"
     fill="none"
     stroke="black"
     id="path530" />
  <path
     d="M339.744,440.167h -12.1683"
     fill="none"
     stroke="black"
     id="path532" />
  <path
     d="M327.576,441.351v -2.36714"
     fill="none"
     stroke="black"
     id="path534" />
  <path
     d="M344.479,440.167h 12.1683"
     fill="none"
     stroke="black"
     id="path536" />
  <path
     d="M356.647,441.351v -2.36714"
     fill="none"
     stroke="black"
     id="path538" />
  <path
     d="M368.815,474.397h -12.1683"
     fill="none"
     stroke="black"
     id="path540" />
  <path
     d="M356.647,475.581v -2.36714"
     fill="none"
     stroke="black"
     id="path542" />
  <path
     d="M373.55,474.397h 12.1683"
     fill="none"
     stroke="black"
     id="path544" />
  <path
     d="M385.718,475.581v -2.36714"
     fill="none"
     stroke="black"
     id="path546" />
  <path
     d="M397.891,471.446h -12.1735"
     fill="none"
     stroke="black"
     id="path548" />
  <path
     d="M385.718,472.63v -2.36714"
     fill="none"
     stroke="black"
     id="path550" />
  <path
     d="M402.626,471.446h 12.1735"
     fill="none"
     stroke="black"
     id="path552" />
  <path
     d="M414.799,472.63v -2.36714"
     fill="none"
     stroke="black"
     id="path554" />
  <path
     d="M426.967,469.114h -12.1683"
     fill="none"
     stroke="black"
     id="path556" />
  <path
     d="M414.799,470.297v -2.36714"
     fill="none"
     stroke="black"
     id="path558" />
  <path
     d="M431.702,469.114h 12.1683"
     fill="none"
     stroke="black"
     id="path560" />
  <path
     d="M443.87,470.297v -2.36714"
     fill="none"
     stroke="black"
     id="path562" />
  <path
     d="M456.038,466.955h -12.1683"
     fill="none"
     stroke="black"
     id="path564" />
  <path
     d="M443.87,468.139v -2.36714"
     fill="none"
     stroke="black"
     id="path566" />
  <path
     d="M460.773,466.955h 12.1683"
     fill="none"
     stroke="black"
     id="path568" />
  <path
     d="M472.941,468.139v -2.36714"
     fill="none"
     stroke="black"
     id="path570" />
  <g
     fill="#00ff00"
     id="g598">
    <rect
       x="107.156"
       y="466.33"
       width="4.73427"
       height="4.73427"
       id="rect572" />
    <rect
       x="136.227"
       y="468.281"
       width="4.73427"
       height="4.73427"
       id="rect574" />
    <rect
       x="165.303"
       y="482.904"
       width="4.73427"
       height="4.73427"
       id="rect576" />
    <rect
       x="194.38"
       y="491.35"
       width="4.73427"
       height="4.73427"
       id="rect578" />
    <rect
       x="223.45"
       y="468.553"
       width="4.73427"
       height="4.73427"
       id="rect580" />
    <rect
       x="252.521"
       y="413.358"
       width="4.73427"
       height="4.73427"
       id="rect582" />
    <rect
       x="281.597"
       y="348.38"
       width="4.73427"
       height="4.73427"
       id="rect584" />
    <rect
       x="310.674"
       y="392.107"
       width="4.73427"
       height="4.73427"
       id="rect586" />
    <rect
       x="339.744"
       y="437.8"
       width="4.73427"
       height="4.73427"
       id="rect588" />
    <rect
       x="368.815"
       y="472.03"
       width="4.73427"
       height="4.73427"
       id="rect590" />
    <rect
       x="397.891"
       y="469.079"
       width="4.73427"
       height="4.73427"
       id="rect592" />
    <rect
       x="426.967"
       y="466.746"
       width="4.73427"
       height="4.73427"
       id="rect594" />
    <rect
       x="456.038"
       y="464.588"
       width="4.73427"
       height="4.73427"
       id="rect596" />
  </g>
  <rect
     x="396.995"
     y="66.2798"
     width="105.338"
     height="44.9756"
     fill="white"
     id="rect600" />
  <path
     d="M396.995,111.255h 105.338"
     fill="none"
     stroke="black"
     id="path602" />
  <path
     d="M502.333,111.255v -44.9756"
     fill="none"
     stroke="black"
     id="path604" />
  <path
     d="M502.333,66.2798h -105.338"
     fill="none"
     stroke="black"
     id="path606" />
  <path
     d="M396.995,66.2798v 44.9756"
     fill="none"
     stroke="black"
     id="path608" />
  <text
     xml:space="preserve"
     x="423.034"
     y="76.9319"
     fill="black"
     font-size="10.6289"
     font-family="Helvetica"
     id="text610">DC</text>
  <path
     d="M400.945,73.7757h 18.4341"
     fill="none"
     stroke="black"
     id="path612" />
  <g
     fill="#ff0000"
     id="g616">
    <rect
       x="407.795"
       y="71.4086"
       width="4.73427"
       height="4.73427"
       id="rect614" />
  </g>
  <text
     xml:space="preserve"
     x="423.034"
     y="91.7265"
     fill="black"
     font-size="10.6289"
     font-family="Helvetica"
     id="text618">FMT - 2 layers</text>
  <path
     d="M400.945,88.7676h 18.4341"
     fill="none"
     stroke="black"
     id="path620" />
  <g
     fill="#0000ff"
     id="g624">
    <rect
       x="407.795"
       y="86.4005"
       width="4.73427"
       height="4.73427"
       id="rect622" />
  </g>
  <text
     xml:space="preserve"
     x="423.034"
     y="107.113"
     fill="black"
     font-size="10.6289"
     font-family="Helvetica"
     id="text626">FMT - 3 layers</text>
  <path
     d="M400.945,103.759h 18.4341"
     fill="none"
     stroke="black"
     id="path628" />
  <g
     fill="#00ff00"
     id="g632">
    <rect
       x="407.795"
       y="101.392"
       width="4.73427"
       height="4.73427"
       id="rect630" />
  </g>
  <text
     xml:space="preserve"
     x="276.271"
     y="28.4056"
     fill="black"
     font-size="18.4126"
     font-family="Helvetica"
     id="text634"> (rad)</text>
  <text
     xml:space="preserve"
     x="258.518"
     y="37.8742"
     fill="black"
     font-size="12.4417"
     font-family="Helvetica"
     id="text636">PQ</text>
  <text
     xml:space="preserve"
     x="249.049"
     y="28.4056"
     fill="black"
     font-size="18.4126"
     font-family="Times"
     id="text638">φ</text>
</svg>
